# Refined by tools/refine_imported_models.py
# Blender 5.1.2
# www.blender.org
mtllib Mushroom_Red_01.mtl
o Mushroom_Red_01
v 0.330203 -0.000000 -0.128059
v 0.336339 0.006935 -0.128962
v 0.329300 0.006935 -0.121923
v 0.334905 0.002031 -0.128334
v 0.333866 0.002931 -0.124396
v 0.334267 0.006935 -0.123995
v 0.329928 0.002031 -0.123357
v 0.291392 0.315900 -0.159830
v 0.298431 0.315900 -0.166869
v 0.302153 0.315900 -0.165743
v 0.305208 0.315900 -0.158128
v 0.295273 0.315900 -0.153597
v 0.296369 0.315900 -0.161892
v 0.141048 0.315900 -0.166869
v 0.148087 0.315900 -0.159830
v 0.144062 0.315900 -0.153526
v 0.134258 0.315900 -0.158180
v 0.143110 0.315900 -0.161892
v 0.109277 -0.000000 -0.128059
v 0.110180 0.006935 -0.121923
v 0.103141 0.006935 -0.128962
v 0.109552 0.002031 -0.123357
v 0.105614 0.002931 -0.124396
v 0.105213 0.006935 -0.123995
v 0.104575 0.002031 -0.128334
v 0.330203 -0.000000 -0.348985
v 0.329300 0.006935 -0.355121
v 0.336339 0.006935 -0.348082
v 0.329928 0.002031 -0.353687
v 0.333866 0.002931 -0.352648
v 0.334267 0.006935 -0.353049
v 0.334905 0.002031 -0.348710
v 0.298431 0.315900 -0.310174
v 0.291392 0.315900 -0.317213
v 0.295629 0.315900 -0.323614
v 0.304837 0.315900 -0.320003
v 0.296369 0.315900 -0.315151
v 0.110180 0.006935 -0.355121
v 0.109277 -0.000000 -0.348985
v 0.103141 0.006935 -0.348082
v 0.109552 0.002031 -0.353687
v 0.105614 0.002931 -0.352648
v 0.104575 0.002031 -0.348710
v 0.105213 0.006935 -0.353049
v 0.148087 0.315900 -0.317213
v 0.141048 0.315900 -0.310174
v 0.136907 0.315900 -0.311585
v 0.143716 0.315900 -0.323671
v 0.143110 0.315900 -0.315151
v 0.423875 0.321182 -0.377744
v 0.430344 0.321182 -0.366539
v 0.427032 0.315900 -0.373135
v 0.427779 0.321955 -0.372528
v 0.429864 0.318293 -0.373876
v 0.431275 0.317496 -0.369320
v 0.426650 0.317447 -0.377513
v 0.223928 0.321182 -0.493183
v 0.217459 0.315900 -0.494132
v 0.210990 0.321182 -0.493183
v 0.221891 0.317447 -0.495731
v 0.217459 0.318293 -0.496584
v 0.213027 0.317447 -0.495731
v 0.217459 0.321955 -0.493957
v 0.004574 0.321182 -0.135661
v 0.006987 0.315900 -0.129584
v 0.011043 0.321182 -0.124456
v 0.003386 0.317447 -0.132622
v 0.004864 0.318293 -0.128358
v 0.007818 0.317447 -0.124946
v 0.007139 0.321955 -0.129672
v 0.011043 0.321182 -0.377744
v 0.006987 0.315900 -0.372616
v 0.004574 0.321182 -0.366539
v 0.007818 0.317447 -0.377254
v 0.004864 0.318293 -0.373842
v 0.003386 0.317447 -0.369578
v 0.007139 0.321955 -0.372528
v 0.210990 0.552061 -0.239895
v 0.223928 0.552061 -0.239895
v 0.230397 0.552061 -0.251100
v 0.223928 0.552061 -0.262305
v 0.210990 0.552061 -0.262305
v 0.204521 0.552061 -0.251100
v 0.217459 0.552834 -0.239122
v 0.217459 0.558716 -0.251100
v 0.227832 0.552834 -0.245111
v 0.227832 0.552834 -0.257089
v 0.217459 0.552834 -0.263078
v 0.207086 0.552834 -0.257089
v 0.207086 0.552834 -0.245111
v 0.218712 0.315900 -0.007345
v 0.223928 0.321182 -0.009017
v 0.210990 0.321182 -0.009017
v 0.221787 0.317390 -0.006035
v 0.217642 0.318293 -0.005417
v 0.217459 0.321955 -0.008243
v 0.213654 0.317447 -0.006107
v 0.426996 0.315900 -0.127540
v 0.430344 0.321182 -0.135661
v 0.423875 0.321182 -0.124456
v 0.431264 0.317495 -0.132256
v 0.429918 0.318293 -0.128063
v 0.427779 0.321955 -0.129672
v 0.426953 0.317386 -0.124474
vn 0.2564 -0.9320 0.2564
vn 0.6167 -0.4892 0.6167
vn 0.1634 -0.6438 0.7475
vn 0.9656 -0.1024 0.2392
vn 0.7475 -0.6438 0.1634
vn 0.2392 -0.1024 0.9656
vn 0.7070 0.0151 0.7070
vn -0.0000 -1.0000 -0.0000
vn -0.2564 -0.9320 0.2564
vn -0.6167 -0.4892 0.6167
vn -0.7475 -0.6438 0.1634
vn -0.2392 -0.1024 0.9656
vn -0.1634 -0.6438 0.7475
vn -0.9656 -0.1024 0.2392
vn -0.7070 0.0151 0.7070
vn 0.2564 -0.9320 -0.2564
vn 0.6167 -0.4892 -0.6167
vn 0.7475 -0.6438 -0.1634
vn 0.2392 -0.1024 -0.9656
vn 0.1634 -0.6438 -0.7475
vn 0.9656 -0.1024 -0.2392
vn 0.7070 0.0151 -0.7070
vn -0.2392 -0.1024 -0.9656
vn -0.6167 -0.4892 -0.6167
vn -0.7070 0.0151 -0.7070
vn -0.2564 -0.9320 -0.2564
vn -0.1634 -0.6438 -0.7475
vn -0.9656 -0.1024 -0.2392
vn -0.7475 -0.6438 -0.1634
vn 0.6839 0.6164 -0.3904
vn 0.6182 -0.3307 -0.7130
vn 0.5567 0.4827 -0.6760
vn 0.9153 -0.3640 -0.1722
vn 0.8809 0.4513 -0.1426
vn 0.4384 -0.8603 -0.2600
vn 0.8681 -0.0627 -0.4925
vn 0.3109 -0.3174 -0.8959
vn -0.0000 0.6292 -0.7772
vn 0.3131 0.4869 -0.8154
vn -0.0000 -0.8325 -0.5540
vn -0.0000 -0.0124 -0.9999
vn -0.3109 -0.3174 -0.8959
vn -0.3131 0.4869 -0.8154
vn -0.9313 -0.3174 0.1787
vn -0.6731 0.6292 0.3886
vn -0.8627 0.4869 0.1366
vn -0.4798 -0.8325 0.2770
vn -0.8660 -0.0124 0.5000
vn -0.6204 -0.3174 0.7172
vn -0.5496 0.4869 0.6788
vn -0.6204 -0.3174 -0.7172
vn -0.6731 0.6292 -0.3886
vn -0.5496 0.4869 -0.6788
vn -0.4798 -0.8325 -0.2770
vn -0.8660 -0.0124 -0.5000
vn -0.9313 -0.3174 -0.1787
vn -0.8627 0.4869 -0.1366
vn -0.3020 0.7970 0.5230
vn -0.0000 1.0000 -0.0000
vn -0.5058 0.8117 0.2920
vn 0.3020 0.7970 0.5230
vn -0.0000 0.8117 0.5841
vn 0.6039 0.7970 -0.0000
vn 0.5058 0.8117 0.2920
vn 0.3020 0.7970 -0.5230
vn 0.5058 0.8117 -0.2920
vn -0.3020 0.7970 -0.5230
vn -0.0000 0.8117 -0.5841
vn -0.6039 0.7970 -0.0000
vn -0.5058 0.8117 -0.2920
vn 0.0132 -0.7804 0.6251
vn -0.0048 0.0640 0.9979
vn -0.3146 -0.2996 0.9007
vn -0.0039 0.6450 0.7642
vn 0.3136 -0.2411 0.9185
vn 0.3072 0.5275 0.7921
vn -0.3202 0.4912 0.8101
vn 0.4882 -0.8161 0.3094
vn 0.8724 0.0016 0.4887
vn 0.6363 -0.2544 0.7283
vn 0.6761 0.6305 0.3812
vn 0.9211 -0.3496 0.1712
vn 0.8807 0.4542 0.1342
vn 0.5401 0.5241 0.6584
vn 0.6967 0.1710 0.6967
vn -0.6967 0.1710 0.6967
vn -0.9122 0.1583 0.3779
vn -0.3779 0.1583 0.9122
vn 0.6967 0.1710 -0.6967
vn -0.6967 0.1710 -0.6967
vn -0.0000 0.1218 0.9926
vn 0.9926 0.1218 -0.0000
vn -0.9926 0.1218 -0.0000
vn -0.0000 0.1218 -0.9926
vn 0.3780 0.6547 -0.6547
vn 0.7559 0.6547 -0.0000
vn -0.3780 0.6547 -0.6547
vn -0.7559 0.6547 -0.0000
vn -0.3780 0.6547 0.6547
vn 0.3780 0.6547 0.6547
vn 0.9122 0.1583 0.3779
vn 0.3779 0.1583 0.9122
vn 0.3779 0.1583 -0.9122
vn 0.9122 0.1583 -0.3778
vn -0.9122 0.1583 -0.3779
vn -0.3779 0.1583 -0.9122
vt -13.000109 5.041689
vt -13.275200 4.897455
vt -12.989281 4.766600
vt 5.077221 -1.341550
vt 4.784170 -1.472366
vt 5.052517 -1.616640
vt 12.964578 0.855561
vt 13.144344 0.580472
vt 13.239315 0.875142
vt 6.333103 10.913600
vt 6.525325 10.895755
vt 6.290751 10.899070
vt -6.333103 13.020700
vt -6.290627 13.005157
vt -6.287664 12.980826
vt -4.302241 5.041689
vt -4.158006 4.766600
vt -4.027150 5.052517
vt 4.337773 0.855561
vt 4.044720 0.724745
vt 4.313069 0.580472
vt -5.077221 0.765513
vt -4.897455 0.490423
vt -4.802485 0.785094
vt -13.000110 13.739510
vt -13.144344 14.014600
vt -13.275200 13.728682
vt -12.964577 -1.431600
vt -13.257630 -1.562415
vt -12.989281 -1.706690
vt 13.703979 -1.341550
vt 13.883744 -1.616640
vt 13.978715 -1.321969
vt -11.708717 10.823600
vt -11.638991 10.792909
vt -11.754591 10.780152
vt -4.337773 -1.431599
vt -4.158006 -1.706690
vt -4.063035 -1.412018
vt -4.302240 13.739510
vt -4.027150 13.883744
vt -4.313069 14.014600
vt -13.703978 0.765513
vt -13.997030 0.634697
vt -13.728683 0.490423
vt -5.593664 10.823600
vt -5.553080 10.823600
vt -5.658103 10.792636
vt -0.083977 -0.048930
vt -0.082152 -0.053229
vt -0.081007 -0.050053
vt 0.167873 -0.020874
vt 0.169580 -0.016575
vt 0.166609 -0.017698
vt -0.194105 0.169607
vt -0.196513 0.171885
vt -0.197690 0.167873
vt 0.025319 -0.053229
vt 0.026909 -0.048930
vt 0.023938 -0.050053
vt -0.098845 0.224606
vt -0.097740 0.227635
vt -0.101629 0.226666
vt -0.198114 0.015780
vt -0.196524 0.011481
vt -0.195143 0.014657
vt -0.060283 0.108545
vt -0.058693 0.112844
vt -0.061664 0.111721
vt -0.003176 0.058902
vt -0.001105 0.056430
vt -0.000000 0.060283
vt -0.026909 0.145198
vt -0.025319 0.140899
vt -0.023938 0.144075
vt -0.088817 0.011481
vt -0.087227 0.015780
vt -0.090198 0.014657
vt -0.003176 0.169371
vt 0.000000 0.169929
vt -0.002784 0.172812
vt -0.169580 0.112844
vt -0.167990 0.108545
vt -0.166609 0.111721
vt 0.028534 0.282904
vt 0.029475 0.289396
vt 0.025563 0.284027
vt 0.142670 0.218195
vt 0.143611 0.224688
vt 0.139699 0.219318
vt 0.114136 0.121131
vt 0.115077 0.127624
vt 0.111165 0.122254
vt -0.028534 0.088776
vt -0.027593 0.095269
vt -0.031505 0.089899
vt -0.142670 0.153486
vt -0.141729 0.159978
vt -0.145641 0.154609
vt -0.114136 0.250550
vt -0.113195 0.257042
vt -0.117107 0.251673
vt -0.099415 0.003339
vt -0.099973 0.000652
vt -0.096346 0.001443
vt 0.087227 0.080489
vt 0.088678 0.076190
vt 0.090198 0.079366
vt 0.082716 0.140899
vt 0.083977 0.145198
vt 0.081007 0.144075
vt -0.194089 0.057973
vt -0.197690 0.058211
vt -0.194763 0.055378
vt 0.058693 -0.016575
vt 0.060117 -0.020874
vt 0.061664 -0.017698
vt 0.196359 0.076190
vt 0.198114 0.080489
vt 0.195143 0.079366
vt 12.989280 0.580472
vt -4.313068 4.766600
vt 4.802485 -1.321969
vt 11.749300 13.110700
vt -6.569643 13.020701
vt 5.553080 13.110700
vt 5.830204 13.110700
vt -13.275200 5.052516
vt 13.728682 -1.616640
vt -13.239316 -1.412016
vt 12.488700 10.913600
vt -12.989280 14.014600
vt -4.313068 -1.706690
vt -5.052516 0.490423
vt -4.027150 13.728683
vt -12.488700 13.020700
vt -13.978715 0.785095
vt -0.194702 0.172930
vt -0.096061 0.226666
vt -0.139699 0.154609
vt -0.002784 0.055461
vt 0.031505 0.284027
vt -0.101508 0.001538
vt 0.145641 0.219318
vt -0.197690 0.060117
vt -0.025563 0.089899
vt 11.472176 13.110700
vt 12.211577 10.913600
vt 6.569643 10.913600
vt -0.135651 0.075850
vt -0.065050 0.073587
vt -0.067312 0.144188
vt -0.138563 0.145456
vt -0.137343 0.075338
vt -0.134216 0.069817
vt -0.065483 0.069785
vt -0.132451 0.072650
vt -12.211577 13.020700
vt -0.061027 0.071900
vt -0.062230 0.141630
vt -0.064113 0.140988
vt -11.472176 10.823600
vt -0.065325 0.147123
vt -0.134377 0.147098
vt -0.132451 0.144188
vt 6.292520 10.913600
vt 6.287642 10.873543
vt -6.292520 13.020700
vt 4.063035 0.875142
vt -11.749300 10.823600
vt -5.830205 10.823600
vt -0.084675 -0.050776
vt 0.169944 -0.020874
vt 0.027258 -0.053229
vt -0.198829 0.013889
vt -0.058345 0.108545
vt -0.027624 0.143307
vt -0.086879 0.011481
vt 0.000000 0.167990
vt -0.170295 0.110953
vt 0.117107 0.122254
vt -0.111165 0.251673
vt 0.086490 0.078538
vt 0.084443 0.140899
vt 0.057975 -0.018475
vt 0.198342 0.076190
vt -0.134714 0.143251
vt -0.135651 0.140988
vt -0.134714 0.073587
vt -0.067312 0.072650
vt -0.064113 0.075850
vt -0.065050 0.143251
vt -0.138731 0.071876
s 1
usemtl FrontColor
f 1/1/1 5/2/2 7/3/3
f 2/4/4 5/5/2 4/6/5
f 3/7/6 5/8/2 6/9/7
f 13/10/8 10/11/8 12/12/8
f 18/13/8 16/14/8 17/15/8
f 19/16/9 23/17/10 25/18/11
f 20/19/12 23/20/10 22/21/13
f 21/22/14 23/23/10 24/24/15
f 26/25/16 30/26/17 32/27/18
f 27/28/19 30/29/17 29/30/20
f 28/31/21 30/32/17 31/33/22
f 37/34/8 35/35/8 36/36/8
f 38/37/23 42/38/24 44/39/25
f 39/40/26 42/41/24 41/42/27
f 40/43/28 42/44/24 43/45/29
f 49/46/8 47/47/8 48/48/8
f 20/19/12 7/121/3 3/7/6
f 22/122/13 1/1/1 7/3/3
f 2/4/4 13/10/85 6/123/7
f 13/124/85 3/7/6 6/9/7
f 21/22/14 18/13/86 14/125/87
f 18/126/86 20/19/12 15/127/88
f 26/25/16 4/128/5 1/1/1
f 32/129/18 2/4/4 4/6/5
f 27/28/19 37/34/89 31/130/22
f 37/131/89 28/31/21 31/33/22
f 39/40/26 29/132/20 26/25/16
f 41/133/27 27/28/19 29/30/20
f 40/43/28 25/134/11 21/22/14
f 43/135/29 19/16/9 25/18/11
f 40/43/28 49/136/90 44/137/25
f 49/46/90 38/37/23 44/39/25
f 1/1/8 39/40/8 26/25/8
f 8/147/91 20/19/91 3/7/91
f 2/4/92 33/148/92 9/149/92
f 46/158/93 21/22/93 14/125/93
f 38/37/94 34/162/94 27/28/94
f 1/1/1 4/128/5 5/2/2
f 2/4/4 6/123/7 5/5/2
f 3/7/6 7/121/3 5/8/2
f 12/12/8 8/166/8 13/10/8
f 13/10/8 9/149/8 10/11/8
f 10/11/8 11/167/8 12/12/8
f 17/15/8 14/125/8 18/13/8
f 18/13/8 15/168/8 16/14/8
f 19/16/9 22/122/13 23/17/10
f 20/19/12 24/169/15 23/20/10
f 21/22/14 25/134/11 23/23/10
f 26/25/16 29/132/20 30/26/17
f 27/28/19 31/130/22 30/29/17
f 28/31/21 32/129/18 30/32/17
f 36/36/8 33/170/8 37/34/8
f 37/34/8 34/162/8 35/35/8
f 38/37/23 41/133/27 42/38/24
f 39/40/26 43/135/29 42/41/24
f 40/43/28 44/137/25 42/44/24
f 48/48/8 45/171/8 49/46/8
f 49/46/8 46/47/8 47/47/8
f 20/19/12 22/21/13 7/121/3
f 22/122/13 19/16/9 1/1/1
f 2/4/4 9/149/101 13/10/85
f 13/124/85 8/147/102 3/7/6
f 21/22/14 24/24/15 18/13/86
f 18/126/86 24/169/15 20/19/12
f 26/25/16 32/27/18 4/128/5
f 32/129/18 28/31/21 2/4/4
f 27/28/19 34/162/103 37/34/89
f 37/131/89 33/148/104 28/31/21
f 39/40/26 41/42/27 29/132/20
f 41/133/27 38/37/23 27/28/19
f 40/43/28 43/45/29 25/134/11
f 43/135/29 39/40/26 19/16/9
f 40/43/28 46/158/105 49/136/90
f 49/46/90 45/171/106 38/37/23
f 1/1/8 19/16/8 39/40/8
f 8/147/91 15/127/91 20/19/91
f 2/4/92 28/31/92 33/148/92
f 46/158/93 40/43/93 21/22/93
f 38/37/94 45/171/94 34/162/94
usemtl Mushroom_Red
f 53/49/30 56/50/31 50/51/32
f 55/52/33 53/53/30 51/54/34
f 52/55/35 54/56/36 55/57/33
f 60/58/37 63/59/38 57/60/39
f 58/61/40 61/62/41 60/63/37
f 63/64/38 62/65/42 59/66/43
f 67/67/44 70/68/45 64/69/46
f 65/70/47 68/71/48 67/72/44
f 70/73/45 69/74/49 66/75/50
f 74/76/51 77/77/52 71/78/53
f 72/79/54 75/80/55 74/81/51
f 77/82/52 76/83/56 73/84/57
f 78/85/58 85/86/59 90/87/60
f 79/88/61 85/89/59 84/90/62
f 80/91/63 85/92/59 86/93/64
f 81/94/65 85/95/59 87/96/66
f 82/97/67 85/98/59 88/99/68
f 83/100/69 85/101/59 89/102/70
f 91/103/71 95/104/72 97/105/73
f 96/106/74 94/107/75 92/108/76
f 97/109/73 96/110/74 93/111/77
f 98/112/78 102/113/79 104/114/80
f 103/115/81 101/116/82 99/117/83
f 104/118/80 103/119/81 100/120/84
f 52/55/35 60/63/37 56/138/31
f 56/50/31 57/60/39 50/51/32
f 72/79/54 62/139/42 58/61/40
f 62/65/42 71/78/53 59/66/43
f 73/84/57 67/67/44 64/69/46
f 67/72/44 72/79/54 65/70/47
f 78/85/58 70/73/45 66/75/50
f 70/68/45 83/100/69 64/69/46
f 83/100/69 77/82/52 73/84/57
f 89/140/70 71/78/53 77/77/52
f 65/70/47 97/105/73 69/141/49
f 69/74/49 93/111/77 66/75/50
f 93/111/77 84/142/62 78/85/58
f 84/90/62 92/108/76 79/88/61
f 98/112/78 94/143/75 91/103/71
f 104/118/80 92/108/76 94/107/75
f 100/120/84 86/144/64 79/88/61
f 86/93/64 99/117/83 80/91/63
f 50/51/32 87/96/66 53/49/30
f 53/53/30 80/91/63 51/54/34
f 99/117/83 55/52/33 51/54/34
f 101/145/82 52/55/35 55/57/33
f 82/97/67 63/64/38 59/66/43
f 88/146/68 57/60/39 63/59/38
f 9/150/8 18/151/8 45/152/8
f 36/153/8 10/154/8 9/150/8
f 98/112/8 10/154/8 52/55/8
f 12/155/8 98/112/8 91/103/8
f 16/156/8 8/157/8 12/155/8
f 65/70/8 16/156/8 91/103/8
f 17/159/8 47/160/8 46/161/8
f 48/163/8 35/164/8 34/165/8
f 35/164/8 52/55/8 36/153/8
f 58/61/8 47/160/8 65/70/8
f 57/60/95 81/94/95 50/51/95
f 80/91/96 99/117/96 51/54/96
f 58/61/8 65/70/8 72/79/8
f 71/78/97 82/97/97 59/66/97
f 64/69/98 83/100/98 73/84/98
f 93/111/99 78/85/99 66/75/99
f 100/120/100 79/88/100 92/108/100
f 53/49/30 54/172/36 56/50/31
f 55/52/33 54/173/36 53/53/30
f 52/55/35 56/138/31 54/56/36
f 60/58/37 61/174/41 63/59/38
f 58/61/40 62/139/42 61/62/41
f 63/64/38 61/175/41 62/65/42
f 67/67/44 68/176/48 70/68/45
f 65/70/47 69/141/49 68/71/48
f 70/73/45 68/177/48 69/74/49
f 74/76/51 75/178/55 77/77/52
f 72/79/54 76/179/56 75/80/55
f 77/82/52 75/180/55 76/83/56
f 78/85/58 84/142/62 85/86/59
f 79/88/61 86/144/64 85/89/59
f 80/91/63 87/181/66 85/92/59
f 81/94/65 88/146/68 85/95/59
f 82/97/67 89/140/70 85/98/59
f 83/100/69 90/182/60 85/101/59
f 91/103/71 94/143/75 95/104/72
f 96/106/74 95/183/72 94/107/75
f 97/109/73 95/184/72 96/110/74
f 98/112/78 101/145/82 102/113/79
f 103/115/81 102/185/79 101/116/82
f 104/118/80 102/186/79 103/119/81
f 52/55/35 58/61/40 60/63/37
f 56/50/31 60/58/37 57/60/39
f 72/79/54 74/81/51 62/139/42
f 62/65/42 74/76/51 71/78/53
f 73/84/57 76/83/56 67/67/44
f 67/72/44 76/179/56 72/79/54
f 78/85/58 90/87/60 70/73/45
f 70/68/45 90/182/60 83/100/69
f 83/100/69 89/102/70 77/82/52
f 89/140/70 82/97/67 71/78/53
f 65/70/47 91/103/71 97/105/73
f 69/74/49 97/109/73 93/111/77
f 93/111/77 96/110/74 84/142/62
f 84/90/62 96/106/74 92/108/76
f 98/112/78 104/114/80 94/143/75
f 104/118/80 100/120/84 92/108/76
f 100/120/84 103/119/81 86/144/64
f 86/93/64 103/115/81 99/117/83
f 50/51/32 81/94/65 87/96/66
f 53/53/30 87/181/66 80/91/63
f 99/117/83 101/116/82 55/52/33
f 101/145/82 98/112/78 52/55/35
f 82/97/67 88/99/68 63/64/38
f 88/146/68 81/94/65 57/60/39
f 45/152/8 34/165/8 37/187/8
f 37/187/8 33/188/8 9/150/8
f 9/150/8 13/189/8 8/157/8
f 8/157/8 15/190/8 18/151/8
f 18/151/8 14/191/8 46/161/8
f 46/161/8 49/192/8 45/152/8
f 45/152/8 37/187/8 9/150/8
f 9/150/8 8/157/8 18/151/8
f 18/151/8 46/161/8 45/152/8
f 9/150/8 33/188/8 36/153/8
f 36/153/8 52/55/8 10/154/8
f 98/112/8 11/193/8 10/154/8
f 12/155/8 11/193/8 98/112/8
f 12/155/8 91/103/8 16/156/8
f 16/156/8 15/190/8 8/157/8
f 65/70/8 17/159/8 16/156/8
f 46/161/8 14/191/8 17/159/8
f 17/159/8 65/70/8 47/160/8
f 34/165/8 45/152/8 48/163/8
f 48/163/8 58/61/8 35/164/8
f 35/164/8 58/61/8 52/55/8
f 58/61/8 48/163/8 47/160/8
