# Generated by tools/generate_island.py. Do not edit by hand.
o terrain_lod2_4_0

v 512.000 0.321 0.000 0.546 0.517 0.306
v 512.000 0.042 16.000 0.528 0.499 0.294
v 528.000 -0.077 16.000 0.511 0.481 0.283
v 528.000 -0.146 0.000 0.566 0.537 0.319
v 544.000 0.043 0.000 0.564 0.535 0.317
v 544.000 -0.408 16.000 0.537 0.508 0.300
v 560.000 -0.894 16.000 0.533 0.503 0.297
v 560.000 -0.814 0.000 0.526 0.496 0.293
v 576.000 -1.369 0.000 0.487 0.456 0.267
v 576.000 -0.898 16.000 0.510 0.480 0.282
v 592.000 -1.482 16.000 0.508 0.478 0.281
v 592.000 -1.527 0.000 0.485 0.454 0.266
v 608.000 -2.319 0.000 0.493 0.462 0.271
v 608.000 -2.325 16.000 0.496 0.465 0.273
v 624.000 -2.235 16.000 0.442 0.410 0.237
v 624.000 -2.869 0.000 0.416 0.383 0.220
v 640.000 -3.204 0.000 0.399 0.366 0.209
v 640.000 -2.888 16.000 0.414 0.381 0.219
v 512.000 0.492 32.000 0.509 0.479 0.282
v 528.000 0.097 32.000 0.486 0.455 0.266
v 544.000 -0.866 32.000 0.489 0.458 0.268
v 560.000 -1.229 32.000 0.495 0.464 0.272
v 576.000 -0.867 32.000 0.529 0.499 0.294
v 592.000 -1.435 32.000 0.531 0.501 0.295
v 608.000 -1.953 32.000 0.543 0.513 0.303
v 624.000 -2.206 32.000 0.497 0.466 0.273
v 640.000 -3.151 32.000 0.529 0.499 0.294
v 512.000 -0.424 48.000 0.484 0.453 0.265
v 528.000 -0.464 48.000 0.510 0.480 0.282
v 544.000 -0.552 48.000 0.510 0.480 0.282
v 560.000 -0.509 48.000 0.497 0.466 0.273
v 576.000 -1.314 48.000 0.484 0.453 0.265
v 592.000 -2.112 48.000 0.490 0.459 0.269
v 608.000 -1.823 48.000 0.532 0.503 0.297
v 624.000 -1.928 48.000 0.532 0.503 0.297
v 640.000 -2.788 48.000 0.544 0.515 0.305
v 512.000 -0.269 64.000 0.468 0.436 0.254
v 528.000 -0.619 64.000 0.521 0.491 0.289
v 544.000 -0.598 64.000 0.493 0.462 0.271
v 560.000 -0.845 64.000 0.482 0.451 0.264
v 576.000 -1.486 64.000 0.473 0.442 0.258
v 592.000 -1.689 64.000 0.493 0.463 0.271
v 608.000 -1.819 64.000 0.538 0.509 0.300
v 624.000 -2.598 64.000 0.561 0.533 0.316
v 640.000 -2.793 64.000 0.566 0.537 0.319
v 512.000 0.676 80.000 0.441 0.409 0.237
v 528.000 -0.307 80.000 0.490 0.459 0.269
v 544.000 -0.523 80.000 0.446 0.414 0.240
v 560.000 -1.140 80.000 0.468 0.436 0.254
v 576.000 -1.694 80.000 0.495 0.464 0.272
v 592.000 -1.526 80.000 0.479 0.447 0.261
v 608.000 -2.176 80.000 0.509 0.479 0.281
v 624.000 -2.698 80.000 0.552 0.523 0.310
v 640.000 -2.532 80.000 0.585 0.557 0.331
v 512.000 -0.230 96.000 0.433 0.400 0.231
v 528.000 -0.201 96.000 0.495 0.464 0.272
v 544.000 -0.507 96.000 0.520 0.490 0.288
v 560.000 -1.384 96.000 0.484 0.453 0.265
v 576.000 -1.552 96.000 0.498 0.467 0.274
v 592.000 -1.448 96.000 0.486 0.455 0.266
v 608.000 -2.350 96.000 0.478 0.447 0.261
v 624.000 -2.738 96.000 0.500 0.469 0.275
v 640.000 -2.990 96.000 0.533 0.503 0.297
v 512.000 -1.424 112.000 0.451 0.419 0.243
v 528.000 -0.525 112.000 0.523 0.493 0.291
v 544.000 -0.491 112.000 0.502 0.472 0.277
v 560.000 -1.025 112.000 0.486 0.455 0.266
v 576.000 -1.167 112.000 0.492 0.461 0.270
v 592.000 -2.071 112.000 0.471 0.439 0.256
v 608.000 -2.734 112.000 0.446 0.414 0.240
v 624.000 -2.571 112.000 0.440 0.407 0.236
v 640.000 -3.150 112.000 0.500 0.469 0.275
v 512.000 -0.680 128.000 0.454 0.422 0.245
v 528.000 -0.331 128.000 0.527 0.497 0.293
v 544.000 -1.040 128.000 0.522 0.492 0.290
v 560.000 -1.278 128.000 0.476 0.444 0.259
v 576.000 -1.381 128.000 0.456 0.424 0.247
v 592.000 -2.158 128.000 0.422 0.389 0.224
v 608.000 -2.511 128.000 0.425 0.392 0.226
v 624.000 -3.001 128.000 0.464 0.432 0.252
v 640.000 -3.670 128.000 0.512 0.482 0.283

vt 0.766667 0.500000
vt 0.766667 0.491667
vt 0.775000 0.491667
vt 0.775000 0.500000
vt 0.783333 0.500000
vt 0.783333 0.491667
vt 0.791667 0.491667
vt 0.791667 0.500000
vt 0.800000 0.500000
vt 0.800000 0.491667
vt 0.808333 0.491667
vt 0.808333 0.500000
vt 0.816667 0.500000
vt 0.816667 0.491667
vt 0.825000 0.491667
vt 0.825000 0.500000
vt 0.833333 0.500000
vt 0.833333 0.491667
vt 0.766667 0.483333
vt 0.775000 0.483333
vt 0.783333 0.483333
vt 0.791667 0.483333
vt 0.800000 0.483333
vt 0.808333 0.483333
vt 0.816667 0.483333
vt 0.825000 0.483333
vt 0.833333 0.483333
vt 0.766667 0.475000
vt 0.775000 0.475000
vt 0.783333 0.475000
vt 0.791667 0.475000
vt 0.800000 0.475000
vt 0.808333 0.475000
vt 0.816667 0.475000
vt 0.825000 0.475000
vt 0.833333 0.475000
vt 0.766667 0.466667
vt 0.775000 0.466667
vt 0.783333 0.466667
vt 0.791667 0.466667
vt 0.800000 0.466667
vt 0.808333 0.466667
vt 0.816667 0.466667
vt 0.825000 0.466667
vt 0.833333 0.466667
vt 0.766667 0.458333
vt 0.775000 0.458333
vt 0.783333 0.458333
vt 0.791667 0.458333
vt 0.800000 0.458333
vt 0.808333 0.458333
vt 0.816667 0.458333
vt 0.825000 0.458333
vt 0.833333 0.458333
vt 0.766667 0.450000
vt 0.775000 0.450000
vt 0.783333 0.450000
vt 0.791667 0.450000
vt 0.800000 0.450000
vt 0.808333 0.450000
vt 0.816667 0.450000
vt 0.825000 0.450000
vt 0.833333 0.450000
vt 0.766667 0.441667
vt 0.775000 0.441667
vt 0.783333 0.441667
vt 0.791667 0.441667
vt 0.800000 0.441667
vt 0.808333 0.441667
vt 0.816667 0.441667
vt 0.825000 0.441667
vt 0.833333 0.441667
vt 0.766667 0.433333
vt 0.775000 0.433333
vt 0.783333 0.433333
vt 0.791667 0.433333
vt 0.800000 0.433333
vt 0.808333 0.433333
vt 0.816667 0.433333
vt 0.825000 0.433333
vt 0.833333 0.433333

vn 0.01831 0.99981 0.00661
vn 0.00744 0.99996 -0.00533
vn 0.01981 0.99980 0.00198
vn 0.00869 0.99995 -0.00426
vn 0.02320 0.99963 0.01429
vn 0.02551 0.99927 0.02839
vn 0.01870 0.99978 0.00967
vn 0.04408 0.99902 0.00502
vn 0.02032 0.99969 -0.01415
vn 0.01835 0.99971 -0.01566
vn 0.03817 0.99924 -0.00822
vn 0.02969 0.99956 -0.00285
vn 0.03272 0.99941 -0.01042
vn 0.02353 0.99966 -0.01143
vn 0.02505 0.99959 -0.01363
vn 0.02762 0.99883 -0.03960
vn 0.03083 0.99908 -0.02968
vn 0.04076 0.99917 -0.00165
vn 0.01483 0.99980 0.01332
vn 0.04239 0.99903 0.01208
vn 0.02744 0.99962 0.00226
vn 0.00005 0.99993 -0.01203
vn 0.02032 0.99976 0.00840
vn 0.03390 0.99923 0.01968
vn 0.01649 0.99985 -0.00532
vn 0.03741 0.99925 -0.00960
vn 0.05310 0.99857 -0.00636
vn 0.00251 0.99971 0.02379
vn 0.01517 0.99977 0.01504
vn 0.00141 0.99996 -0.00836
vn 0.01885 0.99982 -0.00326
vn 0.05001 0.99856 0.01931
vn 0.01904 0.99979 0.00776
vn -0.00576 0.99997 -0.00417
vn 0.03202 0.99948 0.00228
vn 0.05367 0.99850 -0.01118
vn 0.02690 0.99945 -0.01963
vn 0.01028 0.99994 -0.00490
vn 0.01038 0.99994 0.00326
vn 0.02773 0.99942 0.01971
vn 0.02871 0.99957 0.00629
vn 0.01041 0.99978 -0.01830
vn 0.02191 0.99974 0.00695
vn 0.03039 0.99925 0.02405
vn 0.01694 0.99982 0.00804
vn 0.06134 0.99812 -0.00123
vn 0.02346 0.99970 -0.00755
vn 0.02602 0.99966 -0.00285
vn 0.03337 0.99941 0.00822
vn 0.01206 0.99993 0.00205
vn 0.01638 0.99987 0.00089
vn 0.03658 0.99919 0.01657
vn 0.01817 0.99980 0.00787
vn -0.01035 0.99993 0.00617
vn 0.00040 0.99935 0.03618
vn 0.00866 0.99994 0.00679
vn 0.02889 0.99958 0.00030
vn 0.03263 0.99946 -0.00360
vn 0.01218 0.99991 -0.00488
vn 0.02494 0.99954 0.01701
vn 0.03320 0.99938 0.01198
vn 0.02000 0.99979 -0.00395
vn 0.01435 0.99987 0.00767
vn -0.05612 0.99833 0.01404
vn -0.00960 0.99991 0.00971
vn 0.01563 0.99974 0.01666
vn 0.02137 0.99977 0.00119
vn 0.03266 0.99945 -0.00532
vn 0.03952 0.99916 0.01102
vn 0.01564 0.99987 0.00501
vn 0.02055 0.99973 0.01068
vn 0.03614 0.99912 0.02122
vn -0.03897 0.99881 -0.02929
vn 0.01126 0.99986 -0.01212
vn 0.02262 0.99958 0.01807
vn 0.01066 0.99982 0.01583
vn 0.03007 0.99948 0.01203
vn 0.03527 0.99936 0.00548
vn 0.02098 0.99978 0.00111
vn 0.03619 0.99898 0.02685
vn 0.03893 0.99880 0.02965

f 1/1/1 2/2/2 3/3/3
f 1/1/1 3/3/3 4/4/4
f 4/4/4 3/3/3 5/5/5
f 5/5/5 3/3/3 6/6/6
f 5/5/5 6/6/6 7/7/7
f 5/5/5 7/7/7 8/8/8
f 8/8/8 7/7/7 9/9/9
f 9/9/9 7/7/7 10/10/10
f 9/9/9 10/10/10 11/11/11
f 9/9/9 11/11/11 12/12/12
f 12/12/12 11/11/11 13/13/13
f 13/13/13 11/11/11 14/14/14
f 13/13/13 14/14/14 15/15/15
f 13/13/13 15/15/15 16/16/16
f 16/16/16 15/15/15 17/17/17
f 17/17/17 15/15/15 18/18/18
f 2/2/2 19/19/19 3/3/3
f 3/3/3 19/19/19 20/20/20
f 3/3/3 20/20/20 21/21/21
f 3/3/3 21/21/21 6/6/6
f 6/6/6 21/21/21 7/7/7
f 7/7/7 21/21/21 22/22/22
f 7/7/7 22/22/22 23/23/23
f 7/7/7 23/23/23 10/10/10
f 10/10/10 23/23/23 11/11/11
f 11/11/11 23/23/23 24/24/24
f 11/11/11 24/24/24 25/25/25
f 11/11/11 25/25/25 14/14/14
f 14/14/14 25/25/25 15/15/15
f 15/15/15 25/25/25 26/26/26
f 15/15/15 26/26/26 27/27/27
f 15/15/15 27/27/27 18/18/18
f 19/19/19 28/28/28 29/29/29
f 19/19/19 29/29/29 20/20/20
f 20/20/20 29/29/29 21/21/21
f 21/21/21 29/29/29 30/30/30
f 21/21/21 30/30/30 31/31/31
f 21/21/21 31/31/31 22/22/22
f 22/22/22 31/31/31 23/23/23
f 23/23/23 31/31/31 32/32/32
f 23/23/23 32/32/32 33/33/33
f 23/23/23 33/33/33 24/24/24
f 24/24/24 33/33/33 25/25/25
f 25/25/25 33/33/33 34/34/34
f 25/25/25 34/34/34 35/35/35
f 25/25/25 35/35/35 26/26/26
f 26/26/26 35/35/35 27/27/27
f 27/27/27 35/35/35 36/36/36
f 28/28/28 37/37/37 29/29/29
f 29/29/29 37/37/37 38/38/38
f 29/29/29 38/38/38 39/39/39
f 29/29/29 39/39/39 30/30/30
f 30/30/30 39/39/39 31/31/31
f 31/31/31 39/39/39 40/40/40
f 31/31/31 40/40/40 41/41/41
f 31/31/31 41/41/41 32/32/32
f 32/32/32 41/41/41 33/33/33
f 33/33/33 41/41/41 42/42/42
f 33/33/33 42/42/42 43/43/43
f 33/33/33 43/43/43 34/34/34
f 34/34/34 43/43/43 35/35/35
f 35/35/35 43/43/43 44/44/44
f 35/35/35 44/44/44 45/45/45
f 35/35/35 45/45/45 36/36/36
f 37/37/37 46/46/46 47/47/47
f 37/37/37 47/47/47 38/38/38
f 38/38/38 47/47/47 39/39/39
f 39/39/39 47/47/47 48/48/48
f 39/39/39 48/48/48 49/49/49
f 39/39/39 49/49/49 40/40/40
f 40/40/40 49/49/49 41/41/41
f 41/41/41 49/49/49 50/50/50
f 41/41/41 50/50/50 51/51/51
f 41/41/41 51/51/51 42/42/42
f 42/42/42 51/51/51 43/43/43
f 43/43/43 51/51/51 52/52/52
f 43/43/43 52/52/52 53/53/53
f 43/43/43 53/53/53 44/44/44
f 44/44/44 53/53/53 45/45/45
f 45/45/45 53/53/53 54/54/54
f 46/46/46 55/55/55 47/47/47
f 47/47/47 55/55/55 56/56/56
f 47/47/47 56/56/56 57/57/57
f 47/47/47 57/57/57 48/48/48
f 48/48/48 57/57/57 49/49/49
f 49/49/49 57/57/57 58/58/58
f 49/49/49 58/58/58 59/59/59
f 49/49/49 59/59/59 50/50/50
f 50/50/50 59/59/59 51/51/51
f 51/51/51 59/59/59 60/60/60
f 51/51/51 60/60/60 61/61/61
f 51/51/51 61/61/61 52/52/52
f 52/52/52 61/61/61 53/53/53
f 53/53/53 61/61/61 62/62/62
f 53/53/53 62/62/62 63/63/63
f 53/53/53 63/63/63 54/54/54
f 55/55/55 64/64/64 65/65/65
f 55/55/55 65/65/65 56/56/56
f 56/56/56 65/65/65 57/57/57
f 57/57/57 65/65/65 66/66/66
f 57/57/57 66/66/66 67/67/67
f 57/57/57 67/67/67 58/58/58
f 58/58/58 67/67/67 59/59/59
f 59/59/59 67/67/67 68/68/68
f 59/59/59 68/68/68 69/69/69
f 59/59/59 69/69/69 60/60/60
f 60/60/60 69/69/69 61/61/61
f 61/61/61 69/69/69 70/70/70
f 61/61/61 70/70/70 71/71/71
f 61/61/61 71/71/71 62/62/62
f 62/62/62 71/71/71 63/63/63
f 63/63/63 71/71/71 72/72/72
f 64/64/64 73/73/73 65/65/65
f 65/65/65 73/73/73 74/74/74
f 65/65/65 74/74/74 75/75/75
f 65/65/65 75/75/75 66/66/66
f 66/66/66 75/75/75 67/67/67
f 67/67/67 75/75/75 76/76/76
f 67/67/67 76/76/76 77/77/77
f 67/67/67 77/77/77 68/68/68
f 68/68/68 77/77/77 69/69/69
f 69/69/69 77/77/77 78/78/78
f 69/69/69 78/78/78 79/79/79
f 69/69/69 79/79/79 70/70/70
f 70/70/70 79/79/79 71/71/71
f 71/71/71 79/79/79 80/80/80
f 71/71/71 80/80/80 81/81/81
f 71/71/71 81/81/81 72/72/72
