# Generated by tools/generate_island.py. Do not edit by hand.
o terrain_lod2_-1_-4

v -128.000 -1.581 -512.000 0.537 0.508 0.300
v -128.000 -1.183 -496.000 0.546 0.516 0.305
v -112.000 -0.579 -496.000 0.561 0.532 0.316
v -112.000 -1.478 -512.000 0.538 0.509 0.301
v -96.000 -0.977 -512.000 0.585 0.557 0.331
v -96.000 -0.576 -496.000 0.585 0.557 0.331
v -80.000 -0.508 -496.000 0.585 0.557 0.331
v -80.000 -0.850 -512.000 0.585 0.557 0.331
v -64.000 -0.374 -512.000 0.585 0.557 0.331
v -64.000 -0.099 -496.000 0.585 0.557 0.331
v -48.000 -0.128 -496.000 0.535 0.506 0.299
v -48.000 -0.089 -512.000 0.577 0.549 0.326
v -32.000 -0.853 -512.000 0.524 0.494 0.291
v -32.000 -0.615 -496.000 0.507 0.476 0.280
v -16.000 -0.283 -496.000 0.486 0.455 0.266
v -16.000 -0.781 -512.000 0.494 0.463 0.271
v 0.000 -0.335 -512.000 0.491 0.460 0.270
v 0.000 -0.638 -496.000 0.487 0.456 0.267
v -128.000 -0.536 -480.000 0.585 0.557 0.331
v -112.000 0.078 -480.000 0.585 0.557 0.331
v -96.000 -0.547 -480.000 0.560 0.531 0.315
v -80.000 -0.235 -480.000 0.547 0.518 0.306
v -64.000 -0.035 -480.000 0.543 0.513 0.303
v -48.000 -0.201 -480.000 0.481 0.450 0.263
v -32.000 -0.252 -480.000 0.470 0.438 0.255
v -16.000 -0.154 -480.000 0.431 0.398 0.230
v 0.000 -0.935 -480.000 0.446 0.414 0.240
v -128.000 -0.368 -464.000 0.535 0.506 0.298
v -112.000 -0.377 -464.000 0.542 0.513 0.303
v -96.000 -0.302 -464.000 0.509 0.479 0.282
v -80.000 0.133 -464.000 0.486 0.455 0.266
v -64.000 -0.455 -464.000 0.468 0.437 0.254
v -48.000 -0.698 -464.000 0.446 0.414 0.240
v -32.000 -0.177 -464.000 0.451 0.419 0.243
v -16.000 0.430 -464.000 0.494 0.464 0.272
v 0.000 0.367 -464.000 0.504 0.473 0.278
v -128.000 0.174 -448.000 0.492 0.461 0.270
v -112.000 -0.279 -448.000 0.510 0.479 0.282
v -96.000 -0.166 -448.000 0.485 0.454 0.265
v -80.000 0.056 -448.000 0.467 0.436 0.254
v -64.000 -0.155 -448.000 0.463 0.431 0.251
v -48.000 0.121 -448.000 0.449 0.417 0.242
v -32.000 -0.124 -448.000 0.484 0.453 0.265
v -16.000 0.280 -448.000 0.557 0.528 0.313
v 0.000 0.967 -448.000 0.280 0.346 0.130
v -128.000 0.040 -432.000 0.509 0.479 0.281
v -112.000 0.735 -432.000 0.517 0.487 0.287
v -96.000 0.784 -432.000 0.434 0.401 0.232
v -80.000 -0.390 -432.000 0.452 0.420 0.244
v -64.000 0.373 -432.000 0.490 0.460 0.269
v -48.000 0.938 -432.000 0.181 0.270 0.097
v -32.000 0.094 -432.000 0.445 0.412 0.239
v -16.000 0.303 -432.000 0.513 0.483 0.284
v 0.000 0.854 -432.000 0.521 0.491 0.289
v -128.000 -0.535 -416.000 0.496 0.465 0.273
v -112.000 0.575 -416.000 0.508 0.478 0.281
v -96.000 0.512 -416.000 0.436 0.403 0.233
v -80.000 -0.490 -416.000 0.466 0.434 0.253
v -64.000 0.389 -416.000 0.493 0.463 0.271
v -48.000 0.926 -416.000 0.188 0.275 0.099
v -32.000 -0.564 -416.000 0.432 0.399 0.231
v -16.000 -0.130 -416.000 0.472 0.441 0.257
v 0.000 0.224 -416.000 0.484 0.453 0.265
v -128.000 -0.386 -400.000 0.455 0.423 0.246
v -112.000 0.926 -400.000 0.237 0.313 0.116
v -96.000 1.019 -400.000 0.254 0.326 0.121
v -80.000 1.145 -400.000 0.226 0.305 0.112
v -64.000 0.761 -400.000 0.444 0.412 0.238
v -48.000 0.134 -400.000 0.425 0.393 0.226
v -32.000 -0.155 -400.000 0.428 0.395 0.228
v -16.000 0.835 -400.000 0.472 0.441 0.257
v 0.000 0.665 -400.000 0.451 0.419 0.243
v -128.000 -0.722 -384.000 0.424 0.391 0.225
v -112.000 0.034 -384.000 0.446 0.414 0.240
v -96.000 0.395 -384.000 0.490 0.460 0.269
v -80.000 1.872 -384.000 0.222 0.301 0.111
v -64.000 1.763 -384.000 0.208 0.291 0.106
v -48.000 0.934 -384.000 0.195 0.281 0.102
v -32.000 1.848 -384.000 0.203 0.287 0.104
v -16.000 1.646 -384.000 0.229 0.307 0.113
v 0.000 1.178 -384.000 0.190 0.277 0.100

vt 0.433333 0.766667
vt 0.433333 0.758333
vt 0.441667 0.758333
vt 0.441667 0.766667
vt 0.450000 0.766667
vt 0.450000 0.758333
vt 0.458333 0.758333
vt 0.458333 0.766667
vt 0.466667 0.766667
vt 0.466667 0.758333
vt 0.475000 0.758333
vt 0.475000 0.766667
vt 0.483333 0.766667
vt 0.483333 0.758333
vt 0.491667 0.758333
vt 0.491667 0.766667
vt 0.500000 0.766667
vt 0.500000 0.758333
vt 0.433333 0.750000
vt 0.441667 0.750000
vt 0.450000 0.750000
vt 0.458333 0.750000
vt 0.466667 0.750000
vt 0.475000 0.750000
vt 0.483333 0.750000
vt 0.491667 0.750000
vt 0.500000 0.750000
vt 0.433333 0.741667
vt 0.441667 0.741667
vt 0.450000 0.741667
vt 0.458333 0.741667
vt 0.466667 0.741667
vt 0.475000 0.741667
vt 0.483333 0.741667
vt 0.491667 0.741667
vt 0.500000 0.741667
vt 0.433333 0.733333
vt 0.441667 0.733333
vt 0.450000 0.733333
vt 0.458333 0.733333
vt 0.466667 0.733333
vt 0.475000 0.733333
vt 0.483333 0.733333
vt 0.491667 0.733333
vt 0.500000 0.733333
vt 0.433333 0.725000
vt 0.441667 0.725000
vt 0.450000 0.725000
vt 0.458333 0.725000
vt 0.466667 0.725000
vt 0.475000 0.725000
vt 0.483333 0.725000
vt 0.491667 0.725000
vt 0.500000 0.725000
vt 0.433333 0.716667
vt 0.441667 0.716667
vt 0.450000 0.716667
vt 0.458333 0.716667
vt 0.466667 0.716667
vt 0.475000 0.716667
vt 0.483333 0.716667
vt 0.491667 0.716667
vt 0.500000 0.716667
vt 0.433333 0.708333
vt 0.441667 0.708333
vt 0.450000 0.708333
vt 0.458333 0.708333
vt 0.466667 0.708333
vt 0.475000 0.708333
vt 0.483333 0.708333
vt 0.491667 0.708333
vt 0.500000 0.708333
vt 0.433333 0.700000
vt 0.441667 0.700000
vt 0.450000 0.700000
vt 0.458333 0.700000
vt 0.466667 0.700000
vt 0.475000 0.700000
vt 0.483333 0.700000
vt 0.491667 0.700000
vt 0.500000 0.700000

vn -0.02205 0.99894 -0.04049
vn -0.03766 0.99876 -0.03260
vn -0.01409 0.99926 -0.03580
vn -0.01883 0.99825 -0.05607
vn -0.01092 0.99943 -0.03191
vn -0.00224 0.99991 -0.01344
vn -0.01616 0.99975 -0.01562
vn -0.01884 0.99959 -0.02140
vn -0.01781 0.99975 -0.01335
vn -0.01186 0.99987 -0.01059
vn 0.01348 0.99989 -0.00560
vn 0.01494 0.99989 0.00243
vn 0.01322 0.99981 -0.01460
vn 0.00484 0.99981 -0.01876
vn 0.00166 0.99995 -0.00981
vn -0.01615 0.99939 -0.03107
vn -0.00282 0.99998 -0.00609
vn 0.02217 0.99958 0.01873
vn -0.02847 0.99947 -0.01587
vn 0.00034 0.99998 -0.00632
vn 0.00034 0.99994 -0.01086
vn -0.01599 0.99967 -0.02000
vn 0.00299 0.99998 0.00501
vn 0.00677 0.99982 0.01780
vn -0.00834 0.99993 -0.00796
vn 0.02133 0.99952 -0.02228
vn 0.03092 0.99916 -0.02683
vn 0.00054 0.99975 -0.02219
vn 0.00171 0.99999 -0.00295
vn -0.01592 0.99980 -0.01190
vn -0.00171 0.99998 -0.00658
vn 0.02594 0.99966 0.00373
vn -0.00289 0.99998 -0.00509
vn -0.03523 0.99937 -0.00400
vn -0.01168 0.99968 -0.02263
vn 0.00393 0.99823 -0.05933
vn 0.00341 0.99971 -0.02376
vn 0.01063 0.99934 -0.03474
vn -0.00041 0.99977 -0.02158
vn -0.00037 0.99987 0.01633
vn -0.00490 0.99975 -0.02163
vn -0.00096 0.99870 -0.05105
vn -0.00634 0.99985 -0.01601
vn -0.03407 0.99941 0.00397
vn -0.02909 0.99956 -0.00562
vn -0.04341 0.99881 0.02211
vn -0.01714 0.99977 -0.01310
vn 0.03515 0.99916 -0.02118
vn 0.00729 0.99997 -0.00103
vn -0.04146 0.99900 -0.01697
vn 0.01157 0.99984 -0.01339
vn 0.01984 0.99971 0.01376
vn -0.02656 0.99952 0.01565
vn -0.03443 0.99914 0.02319
vn -0.06590 0.99782 0.00367
vn -0.03268 0.99945 -0.00596
vn 0.02371 0.99957 -0.01715
vn 0.00384 0.99884 -0.04792
vn -0.02459 0.99963 -0.01177
vn 0.02977 0.99924 0.02509
vn 0.01599 0.99985 0.00600
vn -0.02463 0.99956 -0.01661
vn -0.01704 0.99984 -0.00535
vn -0.08177 0.99663 0.00583
vn -0.03883 0.99919 0.01082
vn -0.00683 0.99997 0.00364
vn -0.00569 0.99889 -0.04667
vn 0.03154 0.99858 -0.04288
vn 0.02108 0.99934 -0.02969
vn -0.02182 0.99693 -0.07516
vn -0.01371 0.99845 -0.05397
vn 0.01059 0.99950 -0.02978
vn -0.06446 0.99719 0.03827
vn -0.03484 0.99784 0.05567
vn -0.03211 0.99924 0.02205
vn -0.04265 0.99806 -0.04534
vn 0.03038 0.99802 -0.05505
vn -0.00266 0.99875 -0.04993
vn -0.02198 0.99593 -0.08741
vn 0.02092 0.99850 -0.05064
vn 0.01991 0.99895 -0.04134

f 1/1/1 2/2/2 3/3/3
f 1/1/1 3/3/3 4/4/4
f 4/4/4 3/3/3 5/5/5
f 5/5/5 3/3/3 6/6/6
f 5/5/5 6/6/6 7/7/7
f 5/5/5 7/7/7 8/8/8
f 8/8/8 7/7/7 9/9/9
f 9/9/9 7/7/7 10/10/10
f 9/9/9 10/10/10 11/11/11
f 9/9/9 11/11/11 12/12/12
f 12/12/12 11/11/11 13/13/13
f 13/13/13 11/11/11 14/14/14
f 13/13/13 14/14/14 15/15/15
f 13/13/13 15/15/15 16/16/16
f 16/16/16 15/15/15 17/17/17
f 17/17/17 15/15/15 18/18/18
f 2/2/2 19/19/19 3/3/3
f 3/3/3 19/19/19 20/20/20
f 3/3/3 20/20/20 21/21/21
f 3/3/3 21/21/21 6/6/6
f 6/6/6 21/21/21 7/7/7
f 7/7/7 21/21/21 22/22/22
f 7/7/7 22/22/22 23/23/23
f 7/7/7 23/23/23 10/10/10
f 10/10/10 23/23/23 11/11/11
f 11/11/11 23/23/23 24/24/24
f 11/11/11 24/24/24 25/25/25
f 11/11/11 25/25/25 14/14/14
f 14/14/14 25/25/25 15/15/15
f 15/15/15 25/25/25 26/26/26
f 15/15/15 26/26/26 27/27/27
f 15/15/15 27/27/27 18/18/18
f 19/19/19 28/28/28 29/29/29
f 19/19/19 29/29/29 20/20/20
f 20/20/20 29/29/29 21/21/21
f 21/21/21 29/29/29 30/30/30
f 21/21/21 30/30/30 31/31/31
f 21/21/21 31/31/31 22/22/22
f 22/22/22 31/31/31 23/23/23
f 23/23/23 31/31/31 32/32/32
f 23/23/23 32/32/32 33/33/33
f 23/23/23 33/33/33 24/24/24
f 24/24/24 33/33/33 25/25/25
f 25/25/25 33/33/33 34/34/34
f 25/25/25 34/34/34 35/35/35
f 25/25/25 35/35/35 26/26/26
f 26/26/26 35/35/35 27/27/27
f 27/27/27 35/35/35 36/36/36
f 28/28/28 37/37/37 29/29/29
f 29/29/29 37/37/37 38/38/38
f 29/29/29 38/38/38 39/39/39
f 29/29/29 39/39/39 30/30/30
f 30/30/30 39/39/39 31/31/31
f 31/31/31 39/39/39 40/40/40
f 31/31/31 40/40/40 41/41/41
f 31/31/31 41/41/41 32/32/32
f 32/32/32 41/41/41 33/33/33
f 33/33/33 41/41/41 42/42/42
f 33/33/33 42/42/42 43/43/43
f 33/33/33 43/43/43 34/34/34
f 34/34/34 43/43/43 35/35/35
f 35/35/35 43/43/43 44/44/44
f 35/35/35 44/44/44 45/45/45
f 35/35/35 45/45/45 36/36/36
f 37/37/37 46/46/46 47/47/47
f 37/37/37 47/47/47 38/38/38
f 38/38/38 47/47/47 39/39/39
f 39/39/39 47/47/47 48/48/48
f 39/39/39 48/48/48 49/49/49
f 39/39/39 49/49/49 40/40/40
f 40/40/40 49/49/49 41/41/41
f 41/41/41 49/49/49 50/50/50
f 41/41/41 50/50/50 51/51/51
f 41/41/41 51/51/51 42/42/42
f 42/42/42 51/51/51 43/43/43
f 43/43/43 51/51/51 52/52/52
f 43/43/43 52/52/52 53/53/53
f 43/43/43 53/53/53 44/44/44
f 44/44/44 53/53/53 45/45/45
f 45/45/45 53/53/53 54/54/54
f 46/46/46 55/55/55 47/47/47
f 47/47/47 55/55/55 56/56/56
f 47/47/47 56/56/56 57/57/57
f 47/47/47 57/57/57 48/48/48
f 48/48/48 57/57/57 49/49/49
f 49/49/49 57/57/57 58/58/58
f 49/49/49 58/58/58 59/59/59
f 49/49/49 59/59/59 50/50/50
f 50/50/50 59/59/59 51/51/51
f 51/51/51 59/59/59 60/60/60
f 51/51/51 60/60/60 61/61/61
f 51/51/51 61/61/61 52/52/52
f 52/52/52 61/61/61 53/53/53
f 53/53/53 61/61/61 62/62/62
f 53/53/53 62/62/62 63/63/63
f 53/53/53 63/63/63 54/54/54
f 55/55/55 64/64/64 65/65/65
f 55/55/55 65/65/65 56/56/56
f 56/56/56 65/65/65 57/57/57
f 57/57/57 65/65/65 66/66/66
f 57/57/57 66/66/66 67/67/67
f 57/57/57 67/67/67 58/58/58
f 58/58/58 67/67/67 59/59/59
f 59/59/59 67/67/67 68/68/68
f 59/59/59 68/68/68 69/69/69
f 59/59/59 69/69/69 60/60/60
f 60/60/60 69/69/69 61/61/61
f 61/61/61 69/69/69 70/70/70
f 61/61/61 70/70/70 71/71/71
f 61/61/61 71/71/71 62/62/62
f 62/62/62 71/71/71 63/63/63
f 63/63/63 71/71/71 72/72/72
f 64/64/64 73/73/73 65/65/65
f 65/65/65 73/73/73 74/74/74
f 65/65/65 74/74/74 75/75/75
f 65/65/65 75/75/75 66/66/66
f 66/66/66 75/75/75 67/67/67
f 67/67/67 75/75/75 76/76/76
f 67/67/67 76/76/76 77/77/77
f 67/67/67 77/77/77 68/68/68
f 68/68/68 77/77/77 69/69/69
f 69/69/69 77/77/77 78/78/78
f 69/69/69 78/78/78 79/79/79
f 69/69/69 79/79/79 70/70/70
f 70/70/70 79/79/79 71/71/71
f 71/71/71 79/79/79 80/80/80
f 71/71/71 80/80/80 81/81/81
f 71/71/71 81/81/81 72/72/72
