# Generated by tools/generate_island.py. Do not edit by hand.
o terrain_lod2_-3_5

v -352.000 -10.800 640.000 0.405 0.371 0.213
v -336.000 -10.800 656.000 0.461 0.430 0.250
v -336.000 -10.457 640.000 0.427 0.395 0.228
v -320.000 -10.739 640.000 0.441 0.408 0.236
v -320.000 -10.800 656.000 0.490 0.459 0.269
v -304.000 -10.800 656.000 0.534 0.504 0.298
v -304.000 -10.773 640.000 0.451 0.419 0.243
v -288.000 -10.005 640.000 0.467 0.435 0.254
v -288.000 -10.800 656.000 0.495 0.465 0.272
v -272.000 -10.800 656.000 0.493 0.462 0.271
v -272.000 -10.142 640.000 0.470 0.438 0.256
v -256.000 -10.688 640.000 0.490 0.459 0.269
v -256.000 -10.800 656.000 0.530 0.501 0.295

vt 0.316667 0.166667
vt 0.325000 0.158333
vt 0.325000 0.166667
vt 0.333333 0.166667
vt 0.333333 0.158333
vt 0.341667 0.158333
vt 0.341667 0.166667
vt 0.350000 0.166667
vt 0.350000 0.158333
vt 0.358333 0.158333
vt 0.358333 0.166667
vt 0.366667 0.166667
vt 0.366667 0.158333

vn -0.02146 0.99954 0.02146
vn -0.00127 0.99988 0.01558
vn -0.00191 0.99977 0.02146
vn 0.00495 0.99996 0.00769
vn 0.00000 0.99999 0.00382
vn -0.01146 0.99983 0.01420
vn -0.02292 0.99974 0.00167
vn -0.00985 0.99932 0.03550
vn 0.00000 0.99877 0.04961
vn 0.01065 0.99934 0.03470
vn 0.02130 0.99893 0.04106
vn 0.01703 0.99957 0.02405
vn 0.00000 0.99998 0.00703

f 1/1/1 2/2/2 3/3/3
f 3/3/3 2/2/2 4/4/4
f 4/4/4 2/2/2 5/5/5
f 4/4/4 5/5/5 6/6/6
f 4/4/4 6/6/6 7/7/7
f 7/7/7 6/6/6 8/8/8
f 8/8/8 6/6/6 9/9/9
f 8/8/8 9/9/9 10/10/10
f 8/8/8 10/10/10 11/11/11
f 11/11/11 10/10/10 12/12/12
f 12/12/12 10/10/10 13/13/13
