# Generated by tools/generate_island.py. Do not edit by hand.
o terrain_lod2_1_0

v 64.000 1.876 0.000 0.206 0.289 0.105
v 64.000 1.197 8.000 0.474 0.443 0.259
v 72.000 0.888 8.000 0.456 0.429 0.252
v 72.000 0.713 0.000 0.451 0.425 0.250
v 80.000 0.978 0.000 0.392 0.371 0.219
v 80.000 0.335 8.000 0.393 0.372 0.220
v 88.000 -0.371 8.000 0.386 0.365 0.216
v 88.000 -0.660 0.000 0.384 0.362 0.214
v 96.000 1.305 0.000 0.136 0.248 0.126
v 96.000 0.050 8.000 0.390 0.369 0.218
v 104.000 -0.238 8.000 0.471 0.447 0.265
v 104.000 1.758 0.000 0.235 0.317 0.115
v 112.000 2.669 0.000 0.260 0.349 0.126
v 112.000 0.423 8.000 0.496 0.471 0.280
v 120.000 1.234 8.000 0.194 0.345 0.174
v 120.000 2.069 0.000 0.297 0.360 0.136
v 128.000 2.678 0.000 0.292 0.356 0.134
v 128.000 1.921 8.000 0.200 0.357 0.180
v 64.000 0.496 16.000 0.505 0.475 0.279
v 72.000 0.528 16.000 0.478 0.449 0.264
v 80.000 -0.227 16.000 0.373 0.351 0.206
v 88.000 0.128 16.000 0.364 0.342 0.201
v 96.000 -0.156 16.000 0.366 0.344 0.202
v 104.000 -1.555 16.000 0.372 0.350 0.206
v 112.000 -1.646 16.000 0.413 0.391 0.232
v 120.000 -0.885 16.000 0.493 0.468 0.278
v 128.000 0.253 16.000 0.573 0.545 0.324
v 64.000 0.027 24.000 0.502 0.471 0.276
v 72.000 -0.731 24.000 0.504 0.474 0.279
v 80.000 -0.483 24.000 0.438 0.413 0.243
v 88.000 -0.494 24.000 0.371 0.347 0.203
v 96.000 -1.446 24.000 0.360 0.338 0.198
v 104.000 -1.740 24.000 0.359 0.337 0.197
v 112.000 -2.419 24.000 0.393 0.372 0.220
v 120.000 -2.668 24.000 0.458 0.435 0.258
v 128.000 -2.048 24.000 0.563 0.535 0.318
v 64.000 0.127 32.000 0.497 0.467 0.274
v 72.000 -0.386 32.000 0.509 0.479 0.282
v 80.000 -0.433 32.000 0.498 0.468 0.275
v 88.000 -1.018 32.000 0.406 0.380 0.222
v 96.000 -1.299 32.000 0.343 0.321 0.187
v 104.000 -1.646 32.000 0.348 0.325 0.190
v 112.000 -1.960 32.000 0.389 0.367 0.217
v 120.000 -1.546 32.000 0.470 0.446 0.265
v 128.000 0.105 32.000 0.550 0.522 0.309
v 64.000 0.620 40.000 0.502 0.472 0.277
v 72.000 0.367 40.000 0.505 0.474 0.278
v 80.000 0.445 40.000 0.507 0.477 0.280
v 88.000 0.346 40.000 0.440 0.411 0.239
v 96.000 -0.041 40.000 0.385 0.359 0.209
v 104.000 -0.900 40.000 0.357 0.332 0.193
v 112.000 -1.391 40.000 0.359 0.337 0.197
v 120.000 -1.071 40.000 0.387 0.366 0.216
v 128.000 0.331 40.000 0.443 0.417 0.245
v 64.000 1.402 48.000 0.161 0.306 0.158
v 72.000 1.427 48.000 0.164 0.311 0.160
v 80.000 1.620 48.000 0.163 0.309 0.159
v 88.000 1.334 48.000 0.145 0.286 0.149
v 96.000 1.040 48.000 0.433 0.402 0.233
v 104.000 -0.522 48.000 0.338 0.314 0.182
v 112.000 -0.718 48.000 0.333 0.310 0.181
v 120.000 -0.515 48.000 0.346 0.323 0.189
v 128.000 0.124 48.000 0.367 0.343 0.200
v 64.000 1.465 56.000 0.174 0.323 0.165
v 72.000 1.612 56.000 0.170 0.318 0.163
v 80.000 1.968 56.000 0.159 0.304 0.157
v 88.000 1.678 56.000 0.133 0.270 0.142
v 96.000 1.101 56.000 0.427 0.394 0.227
v 104.000 -0.226 56.000 0.366 0.339 0.196
v 112.000 -0.518 56.000 0.324 0.300 0.174
v 120.000 -1.233 56.000 0.325 0.302 0.175
v 128.000 0.476 56.000 0.340 0.317 0.185
v 64.000 0.664 64.000 0.500 0.469 0.275
v 72.000 1.292 64.000 0.166 0.313 0.161
v 80.000 1.944 64.000 0.157 0.301 0.155
v 88.000 1.869 64.000 0.140 0.279 0.146
v 96.000 0.747 64.000 0.439 0.407 0.235
v 104.000 0.328 64.000 0.415 0.385 0.223
v 112.000 0.040 64.000 0.335 0.310 0.179
v 120.000 -0.047 64.000 0.321 0.298 0.172
v 128.000 -1.708 64.000 0.351 0.329 0.193

vt 0.600000 0.500000
vt 0.600000 0.487500
vt 0.612500 0.487500
vt 0.612500 0.500000
vt 0.625000 0.500000
vt 0.625000 0.487500
vt 0.637500 0.487500
vt 0.637500 0.500000
vt 0.650000 0.500000
vt 0.650000 0.487500
vt 0.662500 0.487500
vt 0.662500 0.500000
vt 0.675000 0.500000
vt 0.675000 0.487500
vt 0.687500 0.487500
vt 0.687500 0.500000
vt 0.700000 0.500000
vt 0.700000 0.487500
vt 0.600000 0.475000
vt 0.612500 0.475000
vt 0.625000 0.475000
vt 0.637500 0.475000
vt 0.650000 0.475000
vt 0.662500 0.475000
vt 0.675000 0.475000
vt 0.687500 0.475000
vt 0.700000 0.475000
vt 0.600000 0.462500
vt 0.612500 0.462500
vt 0.625000 0.462500
vt 0.637500 0.462500
vt 0.650000 0.462500
vt 0.662500 0.462500
vt 0.675000 0.462500
vt 0.687500 0.462500
vt 0.700000 0.462500
vt 0.600000 0.450000
vt 0.612500 0.450000
vt 0.625000 0.450000
vt 0.637500 0.450000
vt 0.650000 0.450000
vt 0.662500 0.450000
vt 0.675000 0.450000
vt 0.687500 0.450000
vt 0.700000 0.450000
vt 0.600000 0.437500
vt 0.612500 0.437500
vt 0.625000 0.437500
vt 0.637500 0.437500
vt 0.650000 0.437500
vt 0.662500 0.437500
vt 0.675000 0.437500
vt 0.687500 0.437500
vt 0.700000 0.437500
vt 0.600000 0.425000
vt 0.612500 0.425000
vt 0.625000 0.425000
vt 0.637500 0.425000
vt 0.650000 0.425000
vt 0.662500 0.425000
vt 0.675000 0.425000
vt 0.687500 0.425000
vt 0.700000 0.425000
vt 0.600000 0.412500
vt 0.612500 0.412500
vt 0.625000 0.412500
vt 0.637500 0.412500
vt 0.650000 0.412500
vt 0.662500 0.412500
vt 0.675000 0.412500
vt 0.687500 0.412500
vt 0.700000 0.412500
vt 0.600000 0.400000
vt 0.612500 0.400000
vt 0.625000 0.400000
vt 0.637500 0.400000
vt 0.650000 0.400000
vt 0.662500 0.400000
vt 0.675000 0.400000
vt 0.687500 0.400000
vt 0.700000 0.400000

vn 0.09150 0.99531 0.03138
vn 0.03841 0.99557 0.08586
vn 0.05210 0.99758 0.04607
vn 0.05599 0.99819 -0.02179
vn 0.08197 0.99631 0.02561
vn 0.07825 0.99412 0.07487
vn 0.00272 0.99985 0.01703
vn -0.02039 0.99914 -0.03606
vn -0.07881 0.98834 0.13028
vn -0.00828 0.99582 0.09095
vn -0.00952 0.98169 0.19026
vn -0.08245 0.96693 0.24135
vn -0.05421 0.97336 0.22279
vn -0.08848 0.96172 0.25935
vn -0.07494 0.97827 0.19332
vn -0.00054 0.99460 0.10381
vn -0.08032 0.99187 0.09870
vn -0.08458 0.98517 0.14930
vn 0.03119 0.99574 0.08679
vn 0.04489 0.99391 0.10060
vn 0.02842 0.99821 0.05269
vn -0.00439 0.99996 0.00769
vn 0.06963 0.99499 0.07176
vn 0.09228 0.99138 0.09304
vn -0.02899 0.98491 0.17062
vn -0.11453 0.96513 0.23538
vn -0.10808 0.96537 0.23746
vn 0.09433 0.99528 0.02292
vn 0.03591 0.99865 0.03748
vn -0.01481 0.99981 0.01287
vn 0.04243 0.99749 0.05675
vn 0.07741 0.99447 0.07100
vn 0.06385 0.99763 0.02552
vn 0.05793 0.99813 0.01959
vn -0.07328 0.99692 0.02780
vn -0.07727 0.99697 0.00920
vn 0.06344 0.99660 -0.05266
vn 0.03490 0.99705 -0.06843
vn 0.01636 0.99811 -0.05915
vn 0.05397 0.99717 -0.05237
vn 0.05828 0.99585 -0.06986
vn 0.04123 0.99778 -0.05239
vn 0.01405 0.99745 -0.07002
vn -0.12739 0.98695 -0.09853
vn -0.16295 0.97910 -0.12169
vn 0.03148 0.99635 -0.07936
vn 0.01073 0.99409 -0.10798
vn 0.00130 0.99187 -0.12728
vn 0.03739 0.98936 -0.14061
vn 0.07681 0.98656 -0.14419
vn 0.07941 0.99274 -0.09037
vn 0.01068 0.99695 -0.07736
vn -0.09864 0.99379 -0.05159
vn -0.17269 0.98498 -0.00113
vn 0.00172 0.99787 -0.06519
vn -0.01362 0.99689 -0.07761
vn 0.00218 0.99616 -0.08753
vn 0.03615 0.99590 -0.08292
vn 0.10638 0.99210 -0.06650
vn 0.10912 0.99315 -0.04184
vn 0.01817 0.99921 -0.03526
vn -0.05255 0.99857 0.01009
vn -0.13589 0.99072 0.00051
vn -0.01846 0.99877 0.04604
vn -0.03911 0.99918 0.01064
vn -0.00410 0.99979 -0.02024
vn 0.05478 0.99835 -0.01719
vn 0.11813 0.99283 0.01816
vn 0.08871 0.99549 -0.03369
vn 0.06275 0.99691 -0.04725
vn -0.01692 0.99985 0.00214
vn -0.20765 0.97185 0.11126
vn -0.04833 0.99639 0.06977
vn -0.07969 0.99602 0.03983
vn -0.02007 0.99978 0.00548
vn 0.07459 0.99693 -0.02383
vn 0.10705 0.99425 -0.00115
vn 0.04404 0.99665 -0.06894
vn 0.04297 0.99512 -0.08880
vn 0.10745 0.98346 -0.14579
vn -0.00299 0.99805 0.06230

f 1/1/1 2/2/2 3/3/3
f 1/1/1 3/3/3 4/4/4
f 4/4/4 3/3/3 5/5/5
f 5/5/5 3/3/3 6/6/6
f 5/5/5 6/6/6 7/7/7
f 5/5/5 7/7/7 8/8/8
f 8/8/8 7/7/7 9/9/9
f 9/9/9 7/7/7 10/10/10
f 9/9/9 10/10/10 11/11/11
f 9/9/9 11/11/11 12/12/12
f 12/12/12 11/11/11 13/13/13
f 13/13/13 11/11/11 14/14/14
f 13/13/13 14/14/14 15/15/15
f 13/13/13 15/15/15 16/16/16
f 16/16/16 15/15/15 17/17/17
f 17/17/17 15/15/15 18/18/18
f 2/2/2 19/19/19 3/3/3
f 3/3/3 19/19/19 20/20/20
f 3/3/3 20/20/20 21/21/21
f 3/3/3 21/21/21 6/6/6
f 6/6/6 21/21/21 7/7/7
f 7/7/7 21/21/21 22/22/22
f 7/7/7 22/22/22 23/23/23
f 7/7/7 23/23/23 10/10/10
f 10/10/10 23/23/23 11/11/11
f 11/11/11 23/23/23 24/24/24
f 11/11/11 24/24/24 25/25/25
f 11/11/11 25/25/25 14/14/14
f 14/14/14 25/25/25 15/15/15
f 15/15/15 25/25/25 26/26/26
f 15/15/15 26/26/26 27/27/27
f 15/15/15 27/27/27 18/18/18
f 19/19/19 28/28/28 29/29/29
f 19/19/19 29/29/29 20/20/20
f 20/20/20 29/29/29 21/21/21
f 21/21/21 29/29/29 30/30/30
f 21/21/21 30/30/30 31/31/31
f 21/21/21 31/31/31 22/22/22
f 22/22/22 31/31/31 23/23/23
f 23/23/23 31/31/31 32/32/32
f 23/23/23 32/32/32 33/33/33
f 23/23/23 33/33/33 24/24/24
f 24/24/24 33/33/33 25/25/25
f 25/25/25 33/33/33 34/34/34
f 25/25/25 34/34/34 35/35/35
f 25/25/25 35/35/35 26/26/26
f 26/26/26 35/35/35 27/27/27
f 27/27/27 35/35/35 36/36/36
f 28/28/28 37/37/37 29/29/29
f 29/29/29 37/37/37 38/38/38
f 29/29/29 38/38/38 39/39/39
f 29/29/29 39/39/39 30/30/30
f 30/30/30 39/39/39 31/31/31
f 31/31/31 39/39/39 40/40/40
f 31/31/31 40/40/40 41/41/41
f 31/31/31 41/41/41 32/32/32
f 32/32/32 41/41/41 33/33/33
f 33/33/33 41/41/41 42/42/42
f 33/33/33 42/42/42 43/43/43
f 33/33/33 43/43/43 34/34/34
f 34/34/34 43/43/43 35/35/35
f 35/35/35 43/43/43 44/44/44
f 35/35/35 44/44/44 45/45/45
f 35/35/35 45/45/45 36/36/36
f 37/37/37 46/46/46 47/47/47
f 37/37/37 47/47/47 38/38/38
f 38/38/38 47/47/47 39/39/39
f 39/39/39 47/47/47 48/48/48
f 39/39/39 48/48/48 49/49/49
f 39/39/39 49/49/49 40/40/40
f 40/40/40 49/49/49 41/41/41
f 41/41/41 49/49/49 50/50/50
f 41/41/41 50/50/50 51/51/51
f 41/41/41 51/51/51 42/42/42
f 42/42/42 51/51/51 43/43/43
f 43/43/43 51/51/51 52/52/52
f 43/43/43 52/52/52 53/53/53
f 43/43/43 53/53/53 44/44/44
f 44/44/44 53/53/53 45/45/45
f 45/45/45 53/53/53 54/54/54
f 46/46/46 55/55/55 47/47/47
f 47/47/47 55/55/55 56/56/56
f 47/47/47 56/56/56 57/57/57
f 47/47/47 57/57/57 48/48/48
f 48/48/48 57/57/57 49/49/49
f 49/49/49 57/57/57 58/58/58
f 49/49/49 58/58/58 59/59/59
f 49/49/49 59/59/59 50/50/50
f 50/50/50 59/59/59 51/51/51
f 51/51/51 59/59/59 60/60/60
f 51/51/51 60/60/60 61/61/61
f 51/51/51 61/61/61 52/52/52
f 52/52/52 61/61/61 53/53/53
f 53/53/53 61/61/61 62/62/62
f 53/53/53 62/62/62 63/63/63
f 53/53/53 63/63/63 54/54/54
f 55/55/55 64/64/64 65/65/65
f 55/55/55 65/65/65 56/56/56
f 56/56/56 65/65/65 57/57/57
f 57/57/57 65/65/65 66/66/66
f 57/57/57 66/66/66 67/67/67
f 57/57/57 67/67/67 58/58/58
f 58/58/58 67/67/67 59/59/59
f 59/59/59 67/67/67 68/68/68
f 59/59/59 68/68/68 69/69/69
f 59/59/59 69/69/69 60/60/60
f 60/60/60 69/69/69 61/61/61
f 61/61/61 69/69/69 70/70/70
f 61/61/61 70/70/70 71/71/71
f 61/61/61 71/71/71 62/62/62
f 62/62/62 71/71/71 63/63/63
f 63/63/63 71/71/71 72/72/72
f 64/64/64 73/73/73 65/65/65
f 65/65/65 73/73/73 74/74/74
f 65/65/65 74/74/74 75/75/75
f 65/65/65 75/75/75 66/66/66
f 66/66/66 75/75/75 67/67/67
f 67/67/67 75/75/75 76/76/76
f 67/67/67 76/76/76 77/77/77
f 67/67/67 77/77/77 68/68/68
f 68/68/68 77/77/77 69/69/69
f 69/69/69 77/77/77 78/78/78
f 69/69/69 78/78/78 79/79/79
f 69/69/69 79/79/79 70/70/70
f 70/70/70 79/79/79 71/71/71
f 71/71/71 79/79/79 80/80/80
f 71/71/71 80/80/80 81/81/81
f 71/71/71 81/81/81 72/72/72
