# Generated by tools/generate_island.py. Do not edit by hand.
o terrain_lod2_0_0

v 0.000 17.379 0.000 0.257 0.241 0.219
v 0.000 25.523 16.000 0.300 0.282 0.256
v 16.000 30.377 16.000 0.207 0.193 0.177
v 16.000 23.905 0.000 0.196 0.183 0.168
v 32.000 36.390 0.000 0.199 0.187 0.171
v 32.000 36.811 16.000 0.201 0.188 0.172
v 48.000 40.974 16.000 0.205 0.192 0.175
v 48.000 40.956 0.000 0.168 0.175 0.154
v 64.000 36.361 0.000 0.183 0.192 0.168
v 64.000 31.422 16.000 0.231 0.242 0.211
v 80.000 13.864 16.000 0.230 0.241 0.210
v 80.000 24.698 0.000 0.242 0.254 0.221
v 96.000 17.664 0.000 0.242 0.254 0.221
v 96.000 3.316 16.000 0.212 0.307 0.109
v 112.000 6.415 16.000 0.249 0.339 0.122
v 112.000 13.896 0.000 0.266 0.280 0.243
v 128.000 10.260 0.000 0.303 0.334 0.243
v 128.000 8.040 16.000 0.357 0.391 0.285
v 0.000 34.381 32.000 0.327 0.308 0.279
v 16.000 34.917 32.000 0.286 0.269 0.244
v 32.000 39.194 32.000 0.233 0.218 0.199
v 48.000 38.511 32.000 0.202 0.189 0.173
v 64.000 27.840 32.000 0.262 0.246 0.224
v 80.000 17.318 32.000 0.269 0.253 0.230
v 96.000 6.914 32.000 0.316 0.336 0.251
v 112.000 5.959 32.000 0.271 0.340 0.127
v 128.000 7.654 32.000 0.405 0.402 0.305
v 0.000 36.067 48.000 0.319 0.300 0.272
v 16.000 40.190 48.000 0.325 0.306 0.277
v 32.000 38.885 48.000 0.305 0.287 0.261
v 48.000 28.205 48.000 0.265 0.249 0.227
v 64.000 25.808 48.000 0.258 0.242 0.220
v 80.000 20.349 48.000 0.262 0.246 0.224
v 96.000 13.429 48.000 0.220 0.206 0.188
v 112.000 7.930 48.000 0.305 0.327 0.244
v 128.000 6.211 48.000 0.226 0.305 0.112
v 0.000 27.745 64.000 0.325 0.305 0.277
v 16.000 33.688 64.000 0.313 0.294 0.267
v 32.000 30.433 64.000 0.309 0.290 0.263
v 48.000 25.911 64.000 0.309 0.291 0.264
v 64.000 19.532 64.000 0.264 0.248 0.225
v 80.000 17.325 64.000 0.251 0.235 0.214
v 96.000 11.124 64.000 0.210 0.196 0.179
v 112.000 6.857 64.000 0.277 0.307 0.227
v 128.000 4.447 64.000 0.232 0.309 0.114
v 0.000 17.080 80.000 0.307 0.289 0.262
v 16.000 24.641 80.000 0.291 0.273 0.248
v 32.000 23.644 80.000 0.318 0.300 0.272
v 48.000 21.299 80.000 0.315 0.296 0.268
v 64.000 17.328 80.000 0.312 0.294 0.266
v 80.000 11.071 80.000 0.296 0.278 0.253
v 96.000 10.481 80.000 0.367 0.373 0.282
v 112.000 6.756 80.000 0.322 0.340 0.254
v 128.000 4.164 80.000 0.233 0.310 0.114
v 0.000 14.770 96.000 0.256 0.240 0.219
v 16.000 17.364 96.000 0.272 0.255 0.232
v 32.000 17.007 96.000 0.305 0.287 0.260
v 48.000 15.342 96.000 0.323 0.304 0.275
v 64.000 13.258 96.000 0.299 0.281 0.255
v 80.000 10.451 96.000 0.408 0.403 0.306
v 96.000 6.778 96.000 0.381 0.384 0.290
v 112.000 6.177 96.000 0.231 0.308 0.114
v 128.000 3.883 96.000 0.233 0.310 0.114
v 0.000 12.537 112.000 0.222 0.208 0.190
v 16.000 13.214 112.000 0.256 0.240 0.219
v 32.000 12.928 112.000 0.293 0.275 0.250
v 48.000 11.117 112.000 0.312 0.294 0.266
v 64.000 8.890 112.000 0.420 0.412 0.314
v 80.000 6.777 112.000 0.378 0.382 0.288
v 96.000 6.327 112.000 0.255 0.327 0.122
v 112.000 4.600 112.000 0.253 0.326 0.121
v 128.000 4.002 112.000 0.255 0.327 0.122
v 0.000 8.324 128.000 0.347 0.358 0.269
v 16.000 8.531 128.000 0.370 0.375 0.283
v 32.000 10.460 128.000 0.371 0.377 0.284
v 48.000 8.585 128.000 0.374 0.379 0.286
v 64.000 6.644 128.000 0.277 0.344 0.129
v 80.000 6.255 128.000 0.282 0.348 0.131
v 96.000 6.106 128.000 0.290 0.354 0.133
v 112.000 4.251 128.000 0.286 0.351 0.132
v 128.000 4.050 128.000 0.275 0.343 0.128

vt 0.500000 0.500000
vt 0.500000 0.491667
vt 0.508333 0.491667
vt 0.508333 0.500000
vt 0.516667 0.500000
vt 0.516667 0.491667
vt 0.525000 0.491667
vt 0.525000 0.500000
vt 0.533333 0.500000
vt 0.533333 0.491667
vt 0.541667 0.491667
vt 0.541667 0.500000
vt 0.550000 0.500000
vt 0.550000 0.491667
vt 0.558333 0.491667
vt 0.558333 0.500000
vt 0.566667 0.500000
vt 0.566667 0.491667
vt 0.500000 0.483333
vt 0.508333 0.483333
vt 0.516667 0.483333
vt 0.525000 0.483333
vt 0.533333 0.483333
vt 0.541667 0.483333
vt 0.550000 0.483333
vt 0.558333 0.483333
vt 0.566667 0.483333
vt 0.500000 0.475000
vt 0.508333 0.475000
vt 0.516667 0.475000
vt 0.525000 0.475000
vt 0.533333 0.475000
vt 0.541667 0.475000
vt 0.550000 0.475000
vt 0.558333 0.475000
vt 0.566667 0.475000
vt 0.500000 0.466667
vt 0.508333 0.466667
vt 0.516667 0.466667
vt 0.525000 0.466667
vt 0.533333 0.466667
vt 0.541667 0.466667
vt 0.550000 0.466667
vt 0.558333 0.466667
vt 0.566667 0.466667
vt 0.500000 0.458333
vt 0.508333 0.458333
vt 0.516667 0.458333
vt 0.525000 0.458333
vt 0.533333 0.458333
vt 0.541667 0.458333
vt 0.550000 0.458333
vt 0.558333 0.458333
vt 0.566667 0.458333
vt 0.500000 0.450000
vt 0.508333 0.450000
vt 0.516667 0.450000
vt 0.525000 0.450000
vt 0.533333 0.450000
vt 0.541667 0.450000
vt 0.550000 0.450000
vt 0.558333 0.450000
vt 0.566667 0.450000
vt 0.500000 0.441667
vt 0.508333 0.441667
vt 0.516667 0.441667
vt 0.525000 0.441667
vt 0.533333 0.441667
vt 0.541667 0.441667
vt 0.550000 0.441667
vt 0.558333 0.441667
vt 0.566667 0.441667
vt 0.500000 0.433333
vt 0.508333 0.433333
vt 0.516667 0.433333
vt 0.525000 0.433333
vt 0.533333 0.433333
vt 0.541667 0.433333
vt 0.550000 0.433333
vt 0.558333 0.433333
vt 0.566667 0.433333

vn -0.30778 0.86547 -0.39526
vn -0.25878 0.85302 -0.45320
vn -0.32577 0.89868 -0.29368
vn -0.48242 0.81204 -0.32843
vn -0.39440 0.91297 -0.10457
vn -0.31331 0.94603 -0.08289
vn 0.17004 0.98207 0.08137
vn 0.00093 1.00000 -0.00117
vn 0.54188 0.79969 0.25856
vn 0.63346 0.74772 0.19910
vn 0.58621 0.78296 0.20817
vn 0.43551 0.74538 0.50472
vn 0.22400 0.78546 0.57696
vn 0.21548 0.92567 0.31097
vn -0.02120 0.97469 0.22257
vn 0.20514 0.88661 0.41454
vn 0.06005 0.95526 0.28960
vn -0.10069 0.99164 0.08074
vn -0.14799 0.94246 -0.29979
vn -0.14235 0.94632 -0.29020
vn -0.04528 0.99893 -0.00931
vn 0.31300 0.88212 0.35199
vn 0.51370 0.85005 0.11630
vn 0.53959 0.82515 -0.16722
vn 0.30899 0.92875 -0.20480
vn -0.02310 0.99861 -0.04728
vn -0.05143 0.99866 0.00489
vn -0.24461 0.94943 0.19687
vn -0.10113 0.98533 0.13745
vn 0.33973 0.90714 0.24836
vn 0.33800 0.89368 0.29512
vn 0.23119 0.94169 0.24449
vn 0.38909 0.92073 0.02937
vn 0.35911 0.92532 -0.12175
vn 0.15713 0.98734 -0.02159
vn 0.10627 0.98938 0.09915
vn -0.30829 0.83718 0.45176
vn -0.07534 0.89689 0.43580
vn 0.21759 0.90195 0.37302
vn 0.31595 0.92742 0.20016
vn 0.25765 0.93539 0.24220
vn 0.24467 0.93126 0.27000
vn 0.28023 0.95220 0.12161
vn 0.20412 0.97829 0.03589
vn 0.14105 0.98875 0.04977
vn -0.40112 0.84890 0.34420
vn -0.12702 0.90068 0.41550
vn 0.09585 0.91788 0.38512
vn 0.19899 0.93363 0.29787
vn 0.29927 0.93634 0.18358
vn 0.21427 0.95954 0.18268
vn 0.13245 0.98217 0.13341
vn 0.17073 0.98414 0.04822
vn 0.15991 0.98698 0.01742
vn -0.19942 0.95076 0.23725
vn -0.06568 0.93972 0.33557
vn 0.07004 0.94552 0.31795
vn 0.11095 0.94704 0.30134
vn 0.18170 0.95512 0.23395
vn 0.19678 0.97174 0.13040
vn 0.11594 0.98672 0.11377
vn 0.08990 0.99370 0.06696
vn 0.12057 0.99205 0.03593
vn -0.04143 0.97947 0.19730
vn -0.03912 0.97175 0.23275
vn 0.06407 0.97769 0.20002
vn 0.11877 0.97204 0.20256
vn 0.13166 0.97078 0.20065
vn 0.09376 0.98821 0.12104
vn 0.06787 0.99747 0.02094
vn 0.07476 0.99662 0.03393
vn 0.03734 0.99929 -0.00521
vn -0.02659 0.96312 0.26774
vn -0.06392 0.95777 0.28033
vn 0.03134 0.98197 0.18641
vn 0.11698 0.98093 0.15521
vn 0.10296 0.98784 0.11647
vn 0.01680 0.99933 0.03262
vn 0.06518 0.99766 0.02047
vn 0.06411 0.99771 0.02177
vn 0.02496 0.99964 0.00942

f 1/1/1 2/2/2 3/3/3
f 1/1/1 3/3/3 4/4/4
f 4/4/4 3/3/3 5/5/5
f 5/5/5 3/3/3 6/6/6
f 5/5/5 6/6/6 7/7/7
f 5/5/5 7/7/7 8/8/8
f 8/8/8 7/7/7 9/9/9
f 9/9/9 7/7/7 10/10/10
f 9/9/9 10/10/10 11/11/11
f 9/9/9 11/11/11 12/12/12
f 12/12/12 11/11/11 13/13/13
f 13/13/13 11/11/11 14/14/14
f 13/13/13 14/14/14 15/15/15
f 13/13/13 15/15/15 16/16/16
f 16/16/16 15/15/15 17/17/17
f 17/17/17 15/15/15 18/18/18
f 2/2/2 19/19/19 3/3/3
f 3/3/3 19/19/19 20/20/20
f 3/3/3 20/20/20 21/21/21
f 3/3/3 21/21/21 6/6/6
f 6/6/6 21/21/21 7/7/7
f 7/7/7 21/21/21 22/22/22
f 7/7/7 22/22/22 23/23/23
f 7/7/7 23/23/23 10/10/10
f 10/10/10 23/23/23 11/11/11
f 11/11/11 23/23/23 24/24/24
f 11/11/11 24/24/24 25/25/25
f 11/11/11 25/25/25 14/14/14
f 14/14/14 25/25/25 15/15/15
f 15/15/15 25/25/25 26/26/26
f 15/15/15 26/26/26 27/27/27
f 15/15/15 27/27/27 18/18/18
f 19/19/19 28/28/28 29/29/29
f 19/19/19 29/29/29 20/20/20
f 20/20/20 29/29/29 21/21/21
f 21/21/21 29/29/29 30/30/30
f 21/21/21 30/30/30 31/31/31
f 21/21/21 31/31/31 22/22/22
f 22/22/22 31/31/31 23/23/23
f 23/23/23 31/31/31 32/32/32
f 23/23/23 32/32/32 33/33/33
f 23/23/23 33/33/33 24/24/24
f 24/24/24 33/33/33 25/25/25
f 25/25/25 33/33/33 34/34/34
f 25/25/25 34/34/34 35/35/35
f 25/25/25 35/35/35 26/26/26
f 26/26/26 35/35/35 27/27/27
f 27/27/27 35/35/35 36/36/36
f 28/28/28 37/37/37 29/29/29
f 29/29/29 37/37/37 38/38/38
f 29/29/29 38/38/38 39/39/39
f 29/29/29 39/39/39 30/30/30
f 30/30/30 39/39/39 31/31/31
f 31/31/31 39/39/39 40/40/40
f 31/31/31 40/40/40 41/41/41
f 31/31/31 41/41/41 32/32/32
f 32/32/32 41/41/41 33/33/33
f 33/33/33 41/41/41 42/42/42
f 33/33/33 42/42/42 43/43/43
f 33/33/33 43/43/43 34/34/34
f 34/34/34 43/43/43 35/35/35
f 35/35/35 43/43/43 44/44/44
f 35/35/35 44/44/44 45/45/45
f 35/35/35 45/45/45 36/36/36
f 37/37/37 46/46/46 47/47/47
f 37/37/37 47/47/47 38/38/38
f 38/38/38 47/47/47 39/39/39
f 39/39/39 47/47/47 48/48/48
f 39/39/39 48/48/48 49/49/49
f 39/39/39 49/49/49 40/40/40
f 40/40/40 49/49/49 41/41/41
f 41/41/41 49/49/49 50/50/50
f 41/41/41 50/50/50 51/51/51
f 41/41/41 51/51/51 42/42/42
f 42/42/42 51/51/51 43/43/43
f 43/43/43 51/51/51 52/52/52
f 43/43/43 52/52/52 53/53/53
f 43/43/43 53/53/53 44/44/44
f 44/44/44 53/53/53 45/45/45
f 45/45/45 53/53/53 54/54/54
f 46/46/46 55/55/55 47/47/47
f 47/47/47 55/55/55 56/56/56
f 47/47/47 56/56/56 57/57/57
f 47/47/47 57/57/57 48/48/48
f 48/48/48 57/57/57 49/49/49
f 49/49/49 57/57/57 58/58/58
f 49/49/49 58/58/58 59/59/59
f 49/49/49 59/59/59 50/50/50
f 50/50/50 59/59/59 51/51/51
f 51/51/51 59/59/59 60/60/60
f 51/51/51 60/60/60 61/61/61
f 51/51/51 61/61/61 52/52/52
f 52/52/52 61/61/61 53/53/53
f 53/53/53 61/61/61 62/62/62
f 53/53/53 62/62/62 63/63/63
f 53/53/53 63/63/63 54/54/54
f 55/55/55 64/64/64 65/65/65
f 55/55/55 65/65/65 56/56/56
f 56/56/56 65/65/65 57/57/57
f 57/57/57 65/65/65 66/66/66
f 57/57/57 66/66/66 67/67/67
f 57/57/57 67/67/67 58/58/58
f 58/58/58 67/67/67 59/59/59
f 59/59/59 67/67/67 68/68/68
f 59/59/59 68/68/68 69/69/69
f 59/59/59 69/69/69 60/60/60
f 60/60/60 69/69/69 61/61/61
f 61/61/61 69/69/69 70/70/70
f 61/61/61 70/70/70 71/71/71
f 61/61/61 71/71/71 62/62/62
f 62/62/62 71/71/71 63/63/63
f 63/63/63 71/71/71 72/72/72
f 64/64/64 73/73/73 65/65/65
f 65/65/65 73/73/73 74/74/74
f 65/65/65 74/74/74 75/75/75
f 65/65/65 75/75/75 66/66/66
f 66/66/66 75/75/75 67/67/67
f 67/67/67 75/75/75 76/76/76
f 67/67/67 76/76/76 77/77/77
f 67/67/67 77/77/77 68/68/68
f 68/68/68 77/77/77 69/69/69
f 69/69/69 77/77/77 78/78/78
f 69/69/69 78/78/78 79/79/79
f 69/69/69 79/79/79 70/70/70
f 70/70/70 79/79/79 71/71/71
f 71/71/71 79/79/79 80/80/80
f 71/71/71 80/80/80 81/81/81
f 71/71/71 81/81/81 72/72/72
