# Generated by tools/generate_island.py. Do not edit by hand.
o terrain_lod2_-1_1

v -64.000 3.107 64.000 0.205 0.288 0.105
v -64.000 1.413 72.000 0.201 0.285 0.104
v -56.000 1.186 72.000 0.441 0.408 0.236
v -56.000 1.745 64.000 0.199 0.284 0.103
v -48.000 1.112 64.000 0.465 0.434 0.253
v -48.000 1.286 72.000 0.194 0.280 0.101
v -40.000 0.868 72.000 0.471 0.439 0.256
v -40.000 0.713 64.000 0.503 0.473 0.278
v -32.000 0.949 64.000 0.514 0.484 0.285
v -32.000 0.935 72.000 0.494 0.463 0.271
v -24.000 0.734 72.000 0.521 0.491 0.289
v -24.000 0.950 64.000 0.524 0.494 0.291
v -16.000 1.117 64.000 0.549 0.520 0.308
v -16.000 0.802 72.000 0.540 0.510 0.301
v -8.000 0.903 72.000 0.544 0.514 0.304
v -8.000 1.389 64.000 0.285 0.351 0.132
v 0.000 2.334 64.000 0.296 0.359 0.135
v 0.000 0.712 72.000 0.567 0.539 0.320
v -64.000 -0.135 80.000 0.460 0.428 0.249
v -56.000 0.499 80.000 0.456 0.424 0.246
v -48.000 0.862 80.000 0.466 0.434 0.253
v -40.000 0.888 80.000 0.451 0.419 0.243
v -32.000 0.838 80.000 0.471 0.439 0.256
v -24.000 0.762 80.000 0.510 0.479 0.282
v -16.000 0.622 80.000 0.521 0.491 0.289
v -8.000 0.513 80.000 0.531 0.501 0.296
v 0.000 0.318 80.000 0.548 0.519 0.307
v -64.000 -0.307 88.000 0.434 0.402 0.232
v -56.000 -0.357 88.000 0.438 0.405 0.234
v -48.000 0.304 88.000 0.454 0.422 0.245
v -40.000 0.801 88.000 0.436 0.404 0.234
v -32.000 0.774 88.000 0.459 0.428 0.249
v -24.000 0.739 88.000 0.486 0.455 0.266
v -16.000 0.313 88.000 0.498 0.467 0.274
v -8.000 -0.083 88.000 0.501 0.471 0.276
v 0.000 -0.112 88.000 0.512 0.482 0.283
v -64.000 -1.081 96.000 0.421 0.388 0.223
v -56.000 -0.382 96.000 0.437 0.405 0.234
v -48.000 -0.175 96.000 0.448 0.416 0.241
v -40.000 0.385 96.000 0.444 0.412 0.239
v -32.000 0.579 96.000 0.468 0.436 0.254
v -24.000 0.438 96.000 0.481 0.450 0.263
v -16.000 0.137 96.000 0.458 0.426 0.247
v -8.000 -0.517 96.000 0.452 0.420 0.244
v 0.000 -0.664 96.000 0.491 0.460 0.269
v -64.000 -1.731 104.000 0.466 0.435 0.253
v -56.000 -0.655 104.000 0.459 0.427 0.248
v -48.000 -0.050 104.000 0.448 0.415 0.241
v -40.000 -0.110 104.000 0.479 0.448 0.262
v -32.000 0.136 104.000 0.493 0.462 0.271
v -24.000 -0.312 104.000 0.474 0.443 0.258
v -16.000 -0.735 104.000 0.440 0.408 0.236
v -8.000 -1.305 104.000 0.437 0.405 0.234
v 0.000 -1.741 104.000 0.466 0.434 0.253
v -64.000 -2.110 112.000 0.494 0.463 0.271
v -56.000 -1.560 112.000 0.461 0.430 0.250
v -48.000 -0.875 112.000 0.458 0.426 0.248
v -40.000 -1.167 112.000 0.498 0.467 0.274
v -32.000 -1.099 112.000 0.500 0.469 0.275
v -24.000 -1.570 112.000 0.483 0.452 0.264
v -16.000 -2.247 112.000 0.439 0.406 0.235
v -8.000 -2.441 112.000 0.427 0.394 0.227
v 0.000 -2.947 112.000 0.453 0.421 0.245
v -64.000 -3.287 120.000 0.470 0.438 0.256
v -56.000 -2.893 120.000 0.473 0.441 0.257
v -48.000 -2.646 120.000 0.460 0.428 0.249
v -40.000 -2.734 120.000 0.484 0.453 0.265
v -32.000 -2.696 120.000 0.488 0.457 0.267
v -24.000 -3.463 120.000 0.482 0.451 0.264
v -16.000 -4.071 120.000 0.458 0.426 0.248
v -8.000 -4.539 120.000 0.464 0.433 0.252
v 0.000 -4.837 120.000 0.508 0.477 0.280
v -64.000 -4.943 128.000 0.439 0.407 0.235
v -56.000 -4.395 128.000 0.433 0.401 0.231
v -48.000 -4.722 128.000 0.447 0.415 0.240
v -40.000 -4.863 128.000 0.438 0.406 0.235
v -32.000 -5.056 128.000 0.461 0.429 0.249
v -24.000 -6.661 128.000 0.473 0.442 0.258
v -16.000 -7.083 128.000 0.484 0.453 0.265
v -8.000 -7.737 128.000 0.482 0.451 0.264
v 0.000 -7.674 128.000 0.504 0.473 0.278

vt 0.366667 0.366667
vt 0.366667 0.350000
vt 0.383333 0.350000
vt 0.383333 0.366667
vt 0.400000 0.366667
vt 0.400000 0.350000
vt 0.416667 0.350000
vt 0.416667 0.366667
vt 0.433333 0.366667
vt 0.433333 0.350000
vt 0.450000 0.350000
vt 0.450000 0.366667
vt 0.466667 0.366667
vt 0.466667 0.350000
vt 0.483333 0.350000
vt 0.483333 0.366667
vt 0.500000 0.366667
vt 0.500000 0.350000
vt 0.366667 0.333333
vt 0.383333 0.333333
vt 0.400000 0.333333
vt 0.416667 0.333333
vt 0.433333 0.333333
vt 0.450000 0.333333
vt 0.466667 0.333333
vt 0.483333 0.333333
vt 0.500000 0.333333
vt 0.366667 0.316667
vt 0.383333 0.316667
vt 0.400000 0.316667
vt 0.416667 0.316667
vt 0.433333 0.316667
vt 0.450000 0.316667
vt 0.466667 0.316667
vt 0.483333 0.316667
vt 0.500000 0.316667
vt 0.366667 0.300000
vt 0.383333 0.300000
vt 0.400000 0.300000
vt 0.416667 0.300000
vt 0.433333 0.300000
vt 0.450000 0.300000
vt 0.466667 0.300000
vt 0.483333 0.300000
vt 0.500000 0.300000
vt 0.366667 0.283333
vt 0.383333 0.283333
vt 0.400000 0.283333
vt 0.416667 0.283333
vt 0.433333 0.283333
vt 0.450000 0.283333
vt 0.466667 0.283333
vt 0.483333 0.283333
vt 0.500000 0.283333
vt 0.366667 0.266667
vt 0.383333 0.266667
vt 0.400000 0.266667
vt 0.416667 0.266667
vt 0.433333 0.266667
vt 0.450000 0.266667
vt 0.466667 0.266667
vt 0.483333 0.266667
vt 0.500000 0.266667
vt 0.366667 0.250000
vt 0.383333 0.250000
vt 0.400000 0.250000
vt 0.416667 0.250000
vt 0.433333 0.250000
vt 0.450000 0.250000
vt 0.466667 0.250000
vt 0.483333 0.250000
vt 0.500000 0.250000
vt 0.366667 0.233333
vt 0.383333 0.233333
vt 0.400000 0.233333
vt 0.416667 0.233333
vt 0.433333 0.233333
vt 0.450000 0.233333
vt 0.466667 0.233333
vt 0.483333 0.233333
vt 0.500000 0.233333

vn 0.09788 0.98548 0.13875
vn 0.02776 0.97970 0.19851
vn 0.01947 0.99547 0.09306
vn 0.12342 0.98995 0.06910
vn 0.04214 0.99911 0.00175
vn 0.01985 0.99968 0.01562
vn 0.01387 0.99990 0.00016
vn 0.01018 0.99976 -0.01948
vn -0.00321 0.99999 0.00276
vn 0.00839 0.99994 0.00695
vn 0.00493 0.99987 0.01533
vn -0.01048 0.99958 0.02692
vn -0.01899 0.99895 0.04161
vn -0.01053 0.99947 0.03096
vn -0.01142 0.99772 0.06648
vn -0.07567 0.99529 0.06053
vn -0.04661 0.99035 0.13051
vn 0.02371 0.99188 0.12496
vn -0.03081 0.99437 0.10138
vn -0.06192 0.99347 0.09580
vn -0.02524 0.99813 0.05572
vn 0.00151 0.99999 0.00421
vn 0.00698 0.99996 0.00600
vn 0.01353 0.99991 -0.00033
vn 0.01800 0.99937 0.03057
vn 0.01894 0.99793 0.06149
vn 0.01904 0.99822 0.05644
vn 0.00620 0.99824 0.05905
vn -0.04870 0.99711 0.05836
vn -0.07202 0.99531 0.06454
vn -0.02606 0.99901 0.03595
vn 0.00384 0.99986 0.01617
vn 0.02468 0.99946 0.02173
vn 0.05132 0.99823 0.03020
vn 0.03049 0.99802 0.05499
vn 0.00360 0.99812 0.06125
vn -0.07549 0.99571 0.05359
vn -0.05654 0.99823 0.01860
vn -0.05046 0.99828 0.02991
vn -0.04704 0.99728 0.05678
vn 0.00244 0.99872 0.05053
vn 0.02755 0.99747 0.06556
vn 0.05799 0.99600 0.06799
vn 0.04988 0.99586 0.07604
vn 0.02360 0.99578 0.08872
vn -0.13309 0.98906 0.06359
vn -0.08552 0.99431 0.06345
vn -0.03400 0.99847 0.04364
vn -0.01405 0.99625 0.08534
vn 0.01256 0.99446 0.10434
vn 0.05158 0.99080 0.12508
vn 0.06125 0.98722 0.14713
vn 0.05436 0.98980 0.13168
vn 0.05391 0.98853 0.14107
vn -0.07955 0.98990 0.11736
vn -0.07625 0.98747 0.13813
vn -0.02296 0.98762 0.15517
vn 0.01386 0.98672 0.16184
vn 0.02669 0.98405 0.17589
vn 0.07020 0.97874 0.19272
vn 0.05823 0.97816 0.19955
vn 0.04286 0.97928 0.19793
vn 0.05350 0.97959 0.19376
vn -0.04844 0.98352 0.17416
vn -0.04198 0.98102 0.18933
vn -0.00964 0.97225 0.23377
vn 0.01001 0.97291 0.23098
vn 0.04414 0.96981 0.23983
vn 0.08840 0.95500 0.28312
vn 0.06425 0.95526 0.28870
vn 0.04205 0.95298 0.30010
vn 0.03573 0.95842 0.28313
vn -0.05767 0.97943 0.19336
vn -0.01362 0.98273 0.18454
vn 0.00937 0.97164 0.23626
vn 0.02020 0.96619 0.25703
vn 0.07511 0.95139 0.29869
vn 0.11680 0.92220 0.36864
vn 0.06257 0.93043 0.36110
vn 0.03430 0.92802 0.37096
vn 0.01377 0.93557 0.35288

f 1/1/1 2/2/2 3/3/3
f 1/1/1 3/3/3 4/4/4
f 4/4/4 3/3/3 5/5/5
f 5/5/5 3/3/3 6/6/6
f 5/5/5 6/6/6 7/7/7
f 5/5/5 7/7/7 8/8/8
f 8/8/8 7/7/7 9/9/9
f 9/9/9 7/7/7 10/10/10
f 9/9/9 10/10/10 11/11/11
f 9/9/9 11/11/11 12/12/12
f 12/12/12 11/11/11 13/13/13
f 13/13/13 11/11/11 14/14/14
f 13/13/13 14/14/14 15/15/15
f 13/13/13 15/15/15 16/16/16
f 16/16/16 15/15/15 17/17/17
f 17/17/17 15/15/15 18/18/18
f 2/2/2 19/19/19 3/3/3
f 3/3/3 19/19/19 20/20/20
f 3/3/3 20/20/20 21/21/21
f 3/3/3 21/21/21 6/6/6
f 6/6/6 21/21/21 7/7/7
f 7/7/7 21/21/21 22/22/22
f 7/7/7 22/22/22 23/23/23
f 7/7/7 23/23/23 10/10/10
f 10/10/10 23/23/23 11/11/11
f 11/11/11 23/23/23 24/24/24
f 11/11/11 24/24/24 25/25/25
f 11/11/11 25/25/25 14/14/14
f 14/14/14 25/25/25 15/15/15
f 15/15/15 25/25/25 26/26/26
f 15/15/15 26/26/26 27/27/27
f 15/15/15 27/27/27 18/18/18
f 19/19/19 28/28/28 29/29/29
f 19/19/19 29/29/29 20/20/20
f 20/20/20 29/29/29 21/21/21
f 21/21/21 29/29/29 30/30/30
f 21/21/21 30/30/30 31/31/31
f 21/21/21 31/31/31 22/22/22
f 22/22/22 31/31/31 23/23/23
f 23/23/23 31/31/31 32/32/32
f 23/23/23 32/32/32 33/33/33
f 23/23/23 33/33/33 24/24/24
f 24/24/24 33/33/33 25/25/25
f 25/25/25 33/33/33 34/34/34
f 25/25/25 34/34/34 35/35/35
f 25/25/25 35/35/35 26/26/26
f 26/26/26 35/35/35 27/27/27
f 27/27/27 35/35/35 36/36/36
f 28/28/28 37/37/37 29/29/29
f 29/29/29 37/37/37 38/38/38
f 29/29/29 38/38/38 39/39/39
f 29/29/29 39/39/39 30/30/30
f 30/30/30 39/39/39 31/31/31
f 31/31/31 39/39/39 40/40/40
f 31/31/31 40/40/40 41/41/41
f 31/31/31 41/41/41 32/32/32
f 32/32/32 41/41/41 33/33/33
f 33/33/33 41/41/41 42/42/42
f 33/33/33 42/42/42 43/43/43
f 33/33/33 43/43/43 34/34/34
f 34/34/34 43/43/43 35/35/35
f 35/35/35 43/43/43 44/44/44
f 35/35/35 44/44/44 45/45/45
f 35/35/35 45/45/45 36/36/36
f 37/37/37 46/46/46 47/47/47
f 37/37/37 47/47/47 38/38/38
f 38/38/38 47/47/47 39/39/39
f 39/39/39 47/47/47 48/48/48
f 39/39/39 48/48/48 49/49/49
f 39/39/39 49/49/49 40/40/40
f 40/40/40 49/49/49 41/41/41
f 41/41/41 49/49/49 50/50/50
f 41/41/41 50/50/50 51/51/51
f 41/41/41 51/51/51 42/42/42
f 42/42/42 51/51/51 43/43/43
f 43/43/43 51/51/51 52/52/52
f 43/43/43 52/52/52 53/53/53
f 43/43/43 53/53/53 44/44/44
f 44/44/44 53/53/53 45/45/45
f 45/45/45 53/53/53 54/54/54
f 46/46/46 55/55/55 47/47/47
f 47/47/47 55/55/55 56/56/56
f 47/47/47 56/56/56 57/57/57
f 47/47/47 57/57/57 48/48/48
f 48/48/48 57/57/57 49/49/49
f 49/49/49 57/57/57 58/58/58
f 49/49/49 58/58/58 59/59/59
f 49/49/49 59/59/59 50/50/50
f 50/50/50 59/59/59 51/51/51
f 51/51/51 59/59/59 60/60/60
f 51/51/51 60/60/60 61/61/61
f 51/51/51 61/61/61 52/52/52
f 52/52/52 61/61/61 53/53/53
f 53/53/53 61/61/61 62/62/62
f 53/53/53 62/62/62 63/63/63
f 53/53/53 63/63/63 54/54/54
f 55/55/55 64/64/64 65/65/65
f 55/55/55 65/65/65 56/56/56
f 56/56/56 65/65/65 57/57/57
f 57/57/57 65/65/65 66/66/66
f 57/57/57 66/66/66 67/67/67
f 57/57/57 67/67/67 58/58/58
f 58/58/58 67/67/67 59/59/59
f 59/59/59 67/67/67 68/68/68
f 59/59/59 68/68/68 69/69/69
f 59/59/59 69/69/69 60/60/60
f 60/60/60 69/69/69 61/61/61
f 61/61/61 69/69/69 70/70/70
f 61/61/61 70/70/70 71/71/71
f 61/61/61 71/71/71 62/62/62
f 62/62/62 71/71/71 63/63/63
f 63/63/63 71/71/71 72/72/72
f 64/64/64 73/73/73 65/65/65
f 65/65/65 73/73/73 74/74/74
f 65/65/65 74/74/74 75/75/75
f 65/65/65 75/75/75 66/66/66
f 66/66/66 75/75/75 67/67/67
f 67/67/67 75/75/75 76/76/76
f 67/67/67 76/76/76 77/77/77
f 67/67/67 77/77/77 68/68/68
f 68/68/68 77/77/77 69/69/69
f 69/69/69 77/77/77 78/78/78
f 69/69/69 78/78/78 79/79/79
f 69/69/69 79/79/79 70/70/70
f 70/70/70 79/79/79 71/71/71
f 71/71/71 79/79/79 80/80/80
f 71/71/71 80/80/80 81/81/81
f 71/71/71 81/81/81 72/72/72
