# Generated by tools/generate_island.py. Do not edit by hand.
o terrain_lod2_2_-1

v 256.000 1.436 -128.000 0.432 0.399 0.230
v 256.000 2.177 -112.000 0.226 0.305 0.112
v 272.000 1.329 -112.000 0.454 0.422 0.245
v 272.000 0.807 -128.000 0.410 0.377 0.216
v 288.000 -0.618 -128.000 0.422 0.389 0.224
v 288.000 -0.249 -112.000 0.418 0.385 0.221
v 304.000 -0.592 -112.000 0.361 0.326 0.184
v 304.000 -0.618 -128.000 0.419 0.386 0.222
v 320.000 -0.192 -128.000 0.440 0.408 0.236
v 320.000 -0.802 -112.000 0.362 0.327 0.184
v 336.000 -0.846 -112.000 0.469 0.438 0.255
v 336.000 0.610 -128.000 0.444 0.412 0.239
v 352.000 0.433 -128.000 0.487 0.456 0.267
v 352.000 0.326 -112.000 0.490 0.460 0.269
v 368.000 0.669 -112.000 0.542 0.513 0.303
v 368.000 0.850 -128.000 0.495 0.465 0.272
v 384.000 0.537 -128.000 0.493 0.462 0.270
v 384.000 0.788 -112.000 0.509 0.478 0.281
v 256.000 0.856 -96.000 0.470 0.439 0.256
v 272.000 1.980 -96.000 0.211 0.293 0.107
v 288.000 -0.072 -96.000 0.428 0.396 0.228
v 304.000 -0.126 -96.000 0.380 0.345 0.196
v 320.000 -0.263 -96.000 0.386 0.352 0.200
v 336.000 0.241 -96.000 0.427 0.394 0.227
v 352.000 0.862 -96.000 0.465 0.433 0.252
v 368.000 0.355 -96.000 0.525 0.496 0.292
v 384.000 0.681 -96.000 0.492 0.462 0.270
v 256.000 -0.112 -80.000 0.393 0.360 0.205
v 272.000 0.049 -80.000 0.382 0.347 0.197
v 288.000 -0.685 -80.000 0.387 0.353 0.201
v 304.000 -0.230 -80.000 0.429 0.396 0.229
v 320.000 0.716 -80.000 0.425 0.392 0.226
v 336.000 1.480 -80.000 0.437 0.404 0.234
v 352.000 0.312 -80.000 0.445 0.412 0.239
v 368.000 -0.127 -80.000 0.489 0.458 0.268
v 384.000 0.353 -80.000 0.488 0.457 0.268
v 256.000 -0.055 -64.000 0.388 0.354 0.202
v 272.000 0.489 -64.000 0.383 0.349 0.199
v 288.000 -0.451 -64.000 0.361 0.326 0.184
v 304.000 -0.609 -64.000 0.414 0.381 0.219
v 320.000 -0.094 -64.000 0.444 0.411 0.238
v 336.000 0.789 -64.000 0.443 0.411 0.238
v 352.000 0.486 -64.000 0.451 0.419 0.243
v 368.000 0.429 -64.000 0.512 0.481 0.283
v 384.000 1.003 -64.000 0.476 0.444 0.259
v 256.000 1.564 -48.000 0.378 0.349 0.201
v 272.000 0.481 -48.000 0.369 0.336 0.192
v 288.000 -0.776 -48.000 0.361 0.326 0.184
v 304.000 -1.058 -48.000 0.396 0.362 0.207
v 320.000 0.195 -48.000 0.439 0.406 0.235
v 336.000 -0.002 -48.000 0.429 0.396 0.228
v 352.000 -0.803 -48.000 0.470 0.438 0.256
v 368.000 0.644 -48.000 0.513 0.482 0.284
v 384.000 1.601 -48.000 0.495 0.464 0.272
v 256.000 1.376 -32.000 0.326 0.301 0.174
v 272.000 1.464 -32.000 0.360 0.332 0.192
v 288.000 0.310 -32.000 0.369 0.338 0.193
v 304.000 -0.187 -32.000 0.406 0.373 0.214
v 320.000 -0.052 -32.000 0.433 0.400 0.231
v 336.000 -0.423 -32.000 0.489 0.458 0.268
v 352.000 1.013 -32.000 0.505 0.475 0.279
v 368.000 1.667 -32.000 0.276 0.343 0.129
v 384.000 1.488 -32.000 0.505 0.474 0.278
v 256.000 0.797 -16.000 0.329 0.306 0.178
v 272.000 1.462 -16.000 0.334 0.309 0.179
v 288.000 1.465 -16.000 0.338 0.311 0.179
v 304.000 1.683 -16.000 0.118 0.213 0.072
v 320.000 0.748 -16.000 0.386 0.353 0.202
v 336.000 -0.128 -16.000 0.470 0.439 0.256
v 352.000 1.683 -16.000 0.245 0.319 0.118
v 368.000 2.157 -16.000 0.263 0.333 0.124
v 384.000 2.213 -16.000 0.251 0.324 0.120
v 256.000 -0.911 0.000 0.373 0.351 0.207
v 272.000 0.151 0.000 0.347 0.325 0.190
v 288.000 0.863 0.000 0.318 0.295 0.171
v 304.000 0.707 0.000 0.280 0.253 0.143
v 320.000 -0.758 0.000 0.318 0.287 0.162
v 336.000 -0.781 0.000 0.433 0.401 0.232
v 352.000 0.999 0.000 0.455 0.423 0.246
v 368.000 0.497 0.000 0.506 0.476 0.279
v 384.000 1.761 0.000 0.278 0.345 0.129

vt 0.633333 0.566667
vt 0.633333 0.558333
vt 0.641667 0.558333
vt 0.641667 0.566667
vt 0.650000 0.566667
vt 0.650000 0.558333
vt 0.658333 0.558333
vt 0.658333 0.566667
vt 0.666667 0.566667
vt 0.666667 0.558333
vt 0.675000 0.558333
vt 0.675000 0.566667
vt 0.683333 0.566667
vt 0.683333 0.558333
vt 0.691667 0.558333
vt 0.691667 0.566667
vt 0.700000 0.566667
vt 0.700000 0.558333
vt 0.633333 0.550000
vt 0.641667 0.550000
vt 0.650000 0.550000
vt 0.658333 0.550000
vt 0.666667 0.550000
vt 0.675000 0.550000
vt 0.683333 0.550000
vt 0.691667 0.550000
vt 0.700000 0.550000
vt 0.633333 0.541667
vt 0.641667 0.541667
vt 0.650000 0.541667
vt 0.658333 0.541667
vt 0.666667 0.541667
vt 0.675000 0.541667
vt 0.683333 0.541667
vt 0.691667 0.541667
vt 0.700000 0.541667
vt 0.633333 0.533333
vt 0.641667 0.533333
vt 0.650000 0.533333
vt 0.658333 0.533333
vt 0.666667 0.533333
vt 0.675000 0.533333
vt 0.683333 0.533333
vt 0.691667 0.533333
vt 0.700000 0.533333
vt 0.633333 0.525000
vt 0.641667 0.525000
vt 0.650000 0.525000
vt 0.658333 0.525000
vt 0.666667 0.525000
vt 0.675000 0.525000
vt 0.683333 0.525000
vt 0.691667 0.525000
vt 0.700000 0.525000
vt 0.633333 0.516667
vt 0.641667 0.516667
vt 0.650000 0.516667
vt 0.658333 0.516667
vt 0.666667 0.516667
vt 0.675000 0.516667
vt 0.683333 0.516667
vt 0.691667 0.516667
vt 0.700000 0.516667
vt 0.633333 0.508333
vt 0.641667 0.508333
vt 0.650000 0.508333
vt 0.658333 0.508333
vt 0.666667 0.508333
vt 0.675000 0.508333
vt 0.683333 0.508333
vt 0.691667 0.508333
vt 0.700000 0.508333
vt 0.633333 0.500000
vt 0.641667 0.500000
vt 0.650000 0.500000
vt 0.658333 0.500000
vt 0.666667 0.500000
vt 0.675000 0.500000
vt 0.683333 0.500000
vt 0.691667 0.500000
vt 0.700000 0.500000

vn 0.04607 0.99816 -0.03942
vn 0.05293 0.99843 0.01808
vn 0.06109 0.99797 -0.01804
vn 0.06403 0.99742 -0.03254
vn 0.05221 0.99843 -0.02007
vn 0.05993 0.99806 -0.01705
vn 0.00679 0.99991 -0.01141
vn -0.01332 0.99991 -0.00162
vn -0.01522 0.99903 0.04135
vn 0.00792 0.99997 0.00220
vn -0.03128 0.99951 0.00297
vn -0.01945 0.99570 0.09060
vn -0.02738 0.99921 0.02888
vn -0.04727 0.99879 -0.01340
vn -0.00660 0.99997 0.00325
vn -0.00325 0.99993 0.01130
vn 0.00606 0.99998 -0.00219
vn -0.00743 0.99996 -0.00450
vn -0.02435 0.99815 0.05567
vn 0.02897 0.99878 0.03995
vn 0.05004 0.99865 0.01395
vn 0.00596 0.99992 -0.01133
vn -0.01709 0.99886 -0.04466
vn -0.03504 0.99676 -0.07245
vn -0.00106 0.99993 -0.01173
vn 0.00567 0.99967 0.02486
vn -0.01953 0.99962 0.01922
vn -0.01007 0.99954 0.02847
vn 0.01928 0.99926 0.03337
vn 0.00872 0.99989 0.01185
vn -0.02317 0.99969 0.00918
vn -0.05336 0.99856 -0.00527
vn -0.00701 0.99995 -0.00694
vn 0.05016 0.99867 0.01174
vn -0.00326 0.99999 -0.00074
vn -0.02998 0.99950 -0.01006
vn -0.00257 0.99945 -0.03292
vn 0.01237 0.99983 -0.01348
vn 0.03133 0.99950 0.00453
vn -0.01116 0.99960 0.02588
vn -0.04339 0.99872 0.02616
vn -0.01810 0.99877 0.04626
vn 0.01311 0.99965 0.02296
vn -0.01614 0.99958 -0.02410
vn -0.04031 0.99869 -0.03151
vn 0.06751 0.99672 -0.04458
vn 0.04792 0.99833 -0.03232
vn 0.04802 0.99856 -0.02374
vn -0.01513 0.99980 -0.01287
vn -0.03300 0.99945 -0.00130
vn 0.00273 0.99989 0.01448
vn -0.02019 0.99966 -0.01648
vn -0.04524 0.99861 -0.02721
vn -0.05967 0.99810 -0.01514
vn 0.00379 0.99999 -0.00336
vn 0.03330 0.99898 -0.03065
vn 0.03600 0.99730 -0.06393
vn 0.01127 0.99629 -0.08535
vn 0.00958 0.99953 -0.02907
vn -0.03328 0.99944 0.00394
vn -0.05540 0.99723 -0.04954
vn -0.01482 0.99877 -0.04722
vn -0.01022 0.99940 -0.03319
vn -0.04142 0.99660 0.07124
vn -0.01594 0.99929 0.03405
vn -0.00690 0.99983 -0.01729
vn 0.02667 0.99956 -0.01277
vn 0.05650 0.99816 0.02200
vn -0.03663 0.99927 0.01122
vn -0.07123 0.99746 0.00046
vn -0.01794 0.99971 0.01625
vn -0.00349 0.99996 -0.00854
vn -0.05365 0.99414 0.09383
vn -0.05518 0.99514 0.08158
vn -0.01212 0.99844 0.05446
vn 0.05049 0.99687 0.06083
vn 0.05135 0.99607 0.07223
vn -0.05475 0.99767 0.04073
vn -0.05551 0.99681 0.05736
vn -0.02370 0.99438 0.10317
vn -0.04112 0.99699 0.06580

f 1/1/1 2/2/2 3/3/3
f 1/1/1 3/3/3 4/4/4
f 4/4/4 3/3/3 5/5/5
f 5/5/5 3/3/3 6/6/6
f 5/5/5 6/6/6 7/7/7
f 5/5/5 7/7/7 8/8/8
f 8/8/8 7/7/7 9/9/9
f 9/9/9 7/7/7 10/10/10
f 9/9/9 10/10/10 11/11/11
f 9/9/9 11/11/11 12/12/12
f 12/12/12 11/11/11 13/13/13
f 13/13/13 11/11/11 14/14/14
f 13/13/13 14/14/14 15/15/15
f 13/13/13 15/15/15 16/16/16
f 16/16/16 15/15/15 17/17/17
f 17/17/17 15/15/15 18/18/18
f 2/2/2 19/19/19 3/3/3
f 3/3/3 19/19/19 20/20/20
f 3/3/3 20/20/20 21/21/21
f 3/3/3 21/21/21 6/6/6
f 6/6/6 21/21/21 7/7/7
f 7/7/7 21/21/21 22/22/22
f 7/7/7 22/22/22 23/23/23
f 7/7/7 23/23/23 10/10/10
f 10/10/10 23/23/23 11/11/11
f 11/11/11 23/23/23 24/24/24
f 11/11/11 24/24/24 25/25/25
f 11/11/11 25/25/25 14/14/14
f 14/14/14 25/25/25 15/15/15
f 15/15/15 25/25/25 26/26/26
f 15/15/15 26/26/26 27/27/27
f 15/15/15 27/27/27 18/18/18
f 19/19/19 28/28/28 29/29/29
f 19/19/19 29/29/29 20/20/20
f 20/20/20 29/29/29 21/21/21
f 21/21/21 29/29/29 30/30/30
f 21/21/21 30/30/30 31/31/31
f 21/21/21 31/31/31 22/22/22
f 22/22/22 31/31/31 23/23/23
f 23/23/23 31/31/31 32/32/32
f 23/23/23 32/32/32 33/33/33
f 23/23/23 33/33/33 24/24/24
f 24/24/24 33/33/33 25/25/25
f 25/25/25 33/33/33 34/34/34
f 25/25/25 34/34/34 35/35/35
f 25/25/25 35/35/35 26/26/26
f 26/26/26 35/35/35 27/27/27
f 27/27/27 35/35/35 36/36/36
f 28/28/28 37/37/37 29/29/29
f 29/29/29 37/37/37 38/38/38
f 29/29/29 38/38/38 39/39/39
f 29/29/29 39/39/39 30/30/30
f 30/30/30 39/39/39 31/31/31
f 31/31/31 39/39/39 40/40/40
f 31/31/31 40/40/40 41/41/41
f 31/31/31 41/41/41 32/32/32
f 32/32/32 41/41/41 33/33/33
f 33/33/33 41/41/41 42/42/42
f 33/33/33 42/42/42 43/43/43
f 33/33/33 43/43/43 34/34/34
f 34/34/34 43/43/43 35/35/35
f 35/35/35 43/43/43 44/44/44
f 35/35/35 44/44/44 45/45/45
f 35/35/35 45/45/45 36/36/36
f 37/37/37 46/46/46 47/47/47
f 37/37/37 47/47/47 38/38/38
f 38/38/38 47/47/47 39/39/39
f 39/39/39 47/47/47 48/48/48
f 39/39/39 48/48/48 49/49/49
f 39/39/39 49/49/49 40/40/40
f 40/40/40 49/49/49 41/41/41
f 41/41/41 49/49/49 50/50/50
f 41/41/41 50/50/50 51/51/51
f 41/41/41 51/51/51 42/42/42
f 42/42/42 51/51/51 43/43/43
f 43/43/43 51/51/51 52/52/52
f 43/43/43 52/52/52 53/53/53
f 43/43/43 53/53/53 44/44/44
f 44/44/44 53/53/53 45/45/45
f 45/45/45 53/53/53 54/54/54
f 46/46/46 55/55/55 47/47/47
f 47/47/47 55/55/55 56/56/56
f 47/47/47 56/56/56 57/57/57
f 47/47/47 57/57/57 48/48/48
f 48/48/48 57/57/57 49/49/49
f 49/49/49 57/57/57 58/58/58
f 49/49/49 58/58/58 59/59/59
f 49/49/49 59/59/59 50/50/50
f 50/50/50 59/59/59 51/51/51
f 51/51/51 59/59/59 60/60/60
f 51/51/51 60/60/60 61/61/61
f 51/51/51 61/61/61 52/52/52
f 52/52/52 61/61/61 53/53/53
f 53/53/53 61/61/61 62/62/62
f 53/53/53 62/62/62 63/63/63
f 53/53/53 63/63/63 54/54/54
f 55/55/55 64/64/64 65/65/65
f 55/55/55 65/65/65 56/56/56
f 56/56/56 65/65/65 57/57/57
f 57/57/57 65/65/65 66/66/66
f 57/57/57 66/66/66 67/67/67
f 57/57/57 67/67/67 58/58/58
f 58/58/58 67/67/67 59/59/59
f 59/59/59 67/67/67 68/68/68
f 59/59/59 68/68/68 69/69/69
f 59/59/59 69/69/69 60/60/60
f 60/60/60 69/69/69 61/61/61
f 61/61/61 69/69/69 70/70/70
f 61/61/61 70/70/70 71/71/71
f 61/61/61 71/71/71 62/62/62
f 62/62/62 71/71/71 63/63/63
f 63/63/63 71/71/71 72/72/72
f 64/64/64 73/73/73 65/65/65
f 65/65/65 73/73/73 74/74/74
f 65/65/65 74/74/74 75/75/75
f 65/65/65 75/75/75 66/66/66
f 66/66/66 75/75/75 67/67/67
f 67/67/67 75/75/75 76/76/76
f 67/67/67 76/76/76 77/77/77
f 67/67/67 77/77/77 68/68/68
f 68/68/68 77/77/77 69/69/69
f 69/69/69 77/77/77 78/78/78
f 69/69/69 78/78/78 79/79/79
f 69/69/69 79/79/79 70/70/70
f 70/70/70 79/79/79 71/71/71
f 71/71/71 79/79/79 80/80/80
f 71/71/71 80/80/80 81/81/81
f 71/71/71 81/81/81 72/72/72
