# Generated by tools/generate_island.py. Do not edit by hand.
o terrain_lod2_3_-2

v 384.000 -1.113 -256.000 0.438 0.406 0.235
v 384.000 -0.587 -240.000 0.450 0.417 0.242
v 400.000 -2.125 -240.000 0.490 0.459 0.269
v 400.000 -1.866 -256.000 0.460 0.428 0.249
v 416.000 0.001 -256.000 0.516 0.486 0.286
v 416.000 -1.202 -240.000 0.492 0.461 0.270
v 432.000 -1.157 -240.000 0.513 0.483 0.284
v 432.000 -2.364 -256.000 0.533 0.503 0.297
v 448.000 -2.281 -256.000 0.509 0.479 0.281
v 448.000 -1.570 -240.000 0.495 0.464 0.272
v 464.000 -1.823 -240.000 0.562 0.533 0.316
v 464.000 -2.974 -256.000 0.493 0.462 0.271
v 480.000 -2.763 -256.000 0.484 0.453 0.265
v 480.000 -1.696 -240.000 0.540 0.510 0.302
v 496.000 -2.514 -240.000 0.540 0.510 0.301
v 496.000 -3.122 -256.000 0.476 0.445 0.260
v 512.000 -3.957 -256.000 0.464 0.432 0.252
v 512.000 -2.827 -240.000 0.538 0.508 0.300
v 384.000 -0.173 -224.000 0.426 0.393 0.227
v 400.000 -1.176 -224.000 0.471 0.440 0.256
v 416.000 -0.249 -224.000 0.498 0.467 0.274
v 432.000 -0.518 -224.000 0.542 0.513 0.303
v 448.000 -0.955 -224.000 0.567 0.538 0.319
v 464.000 -1.024 -224.000 0.572 0.544 0.323
v 480.000 -1.370 -224.000 0.560 0.531 0.315
v 496.000 -2.032 -224.000 0.538 0.509 0.300
v 512.000 -2.085 -224.000 0.573 0.545 0.324
v 384.000 0.137 -208.000 0.433 0.401 0.231
v 400.000 -0.470 -208.000 0.456 0.424 0.246
v 416.000 -0.346 -208.000 0.470 0.439 0.256
v 432.000 -0.855 -208.000 0.564 0.535 0.317
v 448.000 -0.194 -208.000 0.585 0.557 0.331
v 464.000 -0.138 -208.000 0.561 0.533 0.316
v 480.000 -1.256 -208.000 0.552 0.524 0.310
v 496.000 -1.915 -208.000 0.496 0.465 0.273
v 512.000 -2.089 -208.000 0.554 0.525 0.311
v 384.000 0.578 -192.000 0.452 0.420 0.244
v 400.000 0.654 -192.000 0.476 0.444 0.259
v 416.000 0.374 -192.000 0.473 0.442 0.258
v 432.000 -0.411 -192.000 0.492 0.461 0.270
v 448.000 -0.741 -192.000 0.463 0.431 0.251
v 464.000 -1.257 -192.000 0.482 0.451 0.263
v 480.000 -1.578 -192.000 0.478 0.447 0.261
v 496.000 -1.387 -192.000 0.473 0.442 0.258
v 512.000 -2.093 -192.000 0.486 0.455 0.266
v 384.000 0.298 -176.000 0.466 0.434 0.253
v 400.000 0.108 -176.000 0.481 0.450 0.263
v 416.000 -0.527 -176.000 0.496 0.465 0.273
v 432.000 -0.284 -176.000 0.452 0.419 0.243
v 448.000 -0.258 -176.000 0.431 0.398 0.230
v 464.000 -1.387 -176.000 0.412 0.379 0.217
v 480.000 -1.721 -176.000 0.429 0.396 0.229
v 496.000 -1.805 -176.000 0.410 0.376 0.216
v 512.000 -2.539 -176.000 0.440 0.408 0.236
v 384.000 0.002 -160.000 0.432 0.399 0.231
v 400.000 -0.354 -160.000 0.419 0.385 0.222
v 416.000 -0.821 -160.000 0.469 0.437 0.255
v 432.000 -0.030 -160.000 0.455 0.423 0.246
v 448.000 -0.408 -160.000 0.461 0.429 0.249
v 464.000 -1.235 -160.000 0.411 0.378 0.217
v 480.000 -1.374 -160.000 0.379 0.345 0.196
v 496.000 -1.869 -160.000 0.393 0.359 0.205
v 512.000 -2.544 -160.000 0.385 0.350 0.199
v 384.000 1.280 -144.000 0.448 0.416 0.241
v 400.000 0.585 -144.000 0.464 0.433 0.252
v 416.000 0.409 -144.000 0.488 0.457 0.267
v 432.000 0.354 -144.000 0.495 0.464 0.272
v 448.000 0.215 -144.000 0.471 0.439 0.256
v 464.000 -0.759 -144.000 0.431 0.398 0.230
v 480.000 -0.999 -144.000 0.415 0.382 0.220
v 496.000 -1.925 -144.000 0.418 0.385 0.221
v 512.000 -2.116 -144.000 0.441 0.409 0.237
v 384.000 0.537 -128.000 0.493 0.462 0.270
v 400.000 -0.151 -128.000 0.474 0.443 0.259
v 416.000 0.584 -128.000 0.533 0.503 0.297
v 432.000 0.535 -128.000 0.497 0.466 0.273
v 448.000 -0.385 -128.000 0.507 0.477 0.280
v 464.000 -0.294 -128.000 0.478 0.447 0.261
v 480.000 -1.013 -128.000 0.495 0.464 0.272
v 496.000 -1.117 -128.000 0.473 0.441 0.257
v 512.000 -1.073 -128.000 0.492 0.461 0.270

vt 0.700000 0.633333
vt 0.700000 0.625000
vt 0.708333 0.625000
vt 0.708333 0.633333
vt 0.716667 0.633333
vt 0.716667 0.625000
vt 0.725000 0.625000
vt 0.725000 0.633333
vt 0.733333 0.633333
vt 0.733333 0.625000
vt 0.741667 0.625000
vt 0.741667 0.633333
vt 0.750000 0.633333
vt 0.750000 0.625000
vt 0.758333 0.625000
vt 0.758333 0.633333
vt 0.766667 0.633333
vt 0.766667 0.625000
vt 0.700000 0.616667
vt 0.708333 0.616667
vt 0.716667 0.616667
vt 0.725000 0.616667
vt 0.733333 0.616667
vt 0.741667 0.616667
vt 0.750000 0.616667
vt 0.758333 0.616667
vt 0.766667 0.616667
vt 0.700000 0.608333
vt 0.708333 0.608333
vt 0.716667 0.608333
vt 0.725000 0.608333
vt 0.733333 0.608333
vt 0.741667 0.608333
vt 0.750000 0.608333
vt 0.758333 0.608333
vt 0.766667 0.608333
vt 0.700000 0.600000
vt 0.708333 0.600000
vt 0.716667 0.600000
vt 0.725000 0.600000
vt 0.733333 0.600000
vt 0.741667 0.600000
vt 0.750000 0.600000
vt 0.758333 0.600000
vt 0.766667 0.600000
vt 0.700000 0.591667
vt 0.708333 0.591667
vt 0.716667 0.591667
vt 0.725000 0.591667
vt 0.733333 0.591667
vt 0.741667 0.591667
vt 0.750000 0.591667
vt 0.758333 0.591667
vt 0.766667 0.591667
vt 0.700000 0.583333
vt 0.708333 0.583333
vt 0.716667 0.583333
vt 0.725000 0.583333
vt 0.733333 0.583333
vt 0.741667 0.583333
vt 0.750000 0.583333
vt 0.758333 0.583333
vt 0.766667 0.583333
vt 0.700000 0.575000
vt 0.708333 0.575000
vt 0.716667 0.575000
vt 0.725000 0.575000
vt 0.733333 0.575000
vt 0.741667 0.575000
vt 0.750000 0.575000
vt 0.758333 0.575000
vt 0.766667 0.575000
vt 0.700000 0.566667
vt 0.708333 0.566667
vt 0.716667 0.566667
vt 0.725000 0.566667
vt 0.733333 0.566667
vt 0.741667 0.566667
vt 0.750000 0.566667
vt 0.758333 0.566667
vt 0.766667 0.566667

vn 0.07139 0.99741 -0.00834
vn 0.09565 0.99499 -0.02925
vn 0.00150 0.99987 -0.01617
vn -0.03480 0.99926 0.01618
vn -0.00733 0.99971 0.02277
vn -0.03023 0.99951 0.00781
vn 0.02907 0.99888 -0.03721
vn 0.07094 0.99465 -0.07505
vn 0.01991 0.99806 -0.05895
vn 0.02081 0.99893 -0.04138
vn 0.00895 0.99863 -0.05165
vn 0.01502 0.99731 -0.07175
vn 0.01306 0.99807 -0.06073
vn 0.02155 0.99882 -0.04348
vn 0.03255 0.99857 -0.04247
vn 0.03727 0.99858 -0.03795
vn 0.03582 0.99789 -0.05422
vn 0.01952 0.99810 -0.05839
vn 0.06468 0.99722 -0.03706
vn 0.00238 0.99866 -0.05164
vn -0.01483 0.99948 -0.02865
vn 0.02207 0.99971 -0.00944
vn 0.00751 0.99929 -0.03701
vn 0.01294 0.99853 -0.05260
vn 0.03501 0.99908 -0.02469
vn 0.02234 0.99958 -0.01871
vn 0.00926 0.99974 -0.02088
vn 0.03788 0.99901 -0.02345
vn 0.00973 0.99918 -0.03929
vn 0.01202 0.99974 -0.01945
vn 0.01185 0.99990 -0.00820
vn -0.02240 0.99973 -0.00670
vn 0.02637 0.99965 0.00360
vn 0.05546 0.99844 0.00649
vn 0.02261 0.99971 -0.00841
vn 0.01086 0.99994 0.00023
vn 0.01009 0.99988 -0.01154
vn 0.00640 0.99982 -0.01805
vn 0.02271 0.99972 -0.00614
vn 0.03480 0.99924 -0.01780
vn 0.01623 0.99985 0.00631
vn 0.02613 0.99890 0.03901
vn 0.01917 0.99969 0.01617
vn 0.01608 0.99986 -0.00343
vn 0.03622 0.99933 0.00531
vn 0.01190 0.99977 0.01802
vn 0.02090 0.99934 0.02958
vn 0.01224 0.99923 0.03730
vn 0.00128 1.00000 0.00078
vn 0.03444 0.99935 -0.01040
vn 0.03692 0.99931 -0.00454
vn 0.01306 0.99989 -0.00637
vn 0.02592 0.99962 0.00947
vn 0.04578 0.99885 0.01409
vn 0.02494 0.99943 -0.02279
vn 0.02569 0.99956 -0.01492
vn -0.00019 0.99973 -0.02333
vn -0.01290 0.99972 -0.01994
vn 0.03610 0.99920 -0.01727
vn 0.03017 0.99935 -0.01961
vn 0.02228 0.99964 -0.01526
vn 0.03653 0.99933 0.00375
vn 0.03551 0.99936 -0.00473
vn 0.04335 0.99892 -0.01670
vn 0.01966 0.99964 -0.01832
vn 0.00722 0.99901 -0.04385
vn 0.00737 0.99977 -0.01998
vn 0.03476 0.99940 -0.00072
vn 0.03139 0.99935 -0.01769
vn 0.03642 0.99927 -0.01129
vn 0.02705 0.99929 -0.02604
vn 0.01189 0.99887 -0.04592
vn 0.04312 0.99800 0.04614
vn -0.00146 0.99894 0.04599
vn -0.00711 0.99997 0.00322
vn 0.03025 0.99948 -0.01130
vn 0.03033 0.99950 0.00864
vn 0.01961 0.99939 -0.02906
vn 0.03107 0.99933 -0.01943
vn 0.00188 0.99873 -0.05043
vn 0.00455 0.99832 -0.05773

f 1/1/1 2/2/2 3/3/3
f 1/1/1 3/3/3 4/4/4
f 4/4/4 3/3/3 5/5/5
f 5/5/5 3/3/3 6/6/6
f 5/5/5 6/6/6 7/7/7
f 5/5/5 7/7/7 8/8/8
f 8/8/8 7/7/7 9/9/9
f 9/9/9 7/7/7 10/10/10
f 9/9/9 10/10/10 11/11/11
f 9/9/9 11/11/11 12/12/12
f 12/12/12 11/11/11 13/13/13
f 13/13/13 11/11/11 14/14/14
f 13/13/13 14/14/14 15/15/15
f 13/13/13 15/15/15 16/16/16
f 16/16/16 15/15/15 17/17/17
f 17/17/17 15/15/15 18/18/18
f 2/2/2 19/19/19 3/3/3
f 3/3/3 19/19/19 20/20/20
f 3/3/3 20/20/20 21/21/21
f 3/3/3 21/21/21 6/6/6
f 6/6/6 21/21/21 7/7/7
f 7/7/7 21/21/21 22/22/22
f 7/7/7 22/22/22 23/23/23
f 7/7/7 23/23/23 10/10/10
f 10/10/10 23/23/23 11/11/11
f 11/11/11 23/23/23 24/24/24
f 11/11/11 24/24/24 25/25/25
f 11/11/11 25/25/25 14/14/14
f 14/14/14 25/25/25 15/15/15
f 15/15/15 25/25/25 26/26/26
f 15/15/15 26/26/26 27/27/27
f 15/15/15 27/27/27 18/18/18
f 19/19/19 28/28/28 29/29/29
f 19/19/19 29/29/29 20/20/20
f 20/20/20 29/29/29 21/21/21
f 21/21/21 29/29/29 30/30/30
f 21/21/21 30/30/30 31/31/31
f 21/21/21 31/31/31 22/22/22
f 22/22/22 31/31/31 23/23/23
f 23/23/23 31/31/31 32/32/32
f 23/23/23 32/32/32 33/33/33
f 23/23/23 33/33/33 24/24/24
f 24/24/24 33/33/33 25/25/25
f 25/25/25 33/33/33 34/34/34
f 25/25/25 34/34/34 35/35/35
f 25/25/25 35/35/35 26/26/26
f 26/26/26 35/35/35 27/27/27
f 27/27/27 35/35/35 36/36/36
f 28/28/28 37/37/37 29/29/29
f 29/29/29 37/37/37 38/38/38
f 29/29/29 38/38/38 39/39/39
f 29/29/29 39/39/39 30/30/30
f 30/30/30 39/39/39 31/31/31
f 31/31/31 39/39/39 40/40/40
f 31/31/31 40/40/40 41/41/41
f 31/31/31 41/41/41 32/32/32
f 32/32/32 41/41/41 33/33/33
f 33/33/33 41/41/41 42/42/42
f 33/33/33 42/42/42 43/43/43
f 33/33/33 43/43/43 34/34/34
f 34/34/34 43/43/43 35/35/35
f 35/35/35 43/43/43 44/44/44
f 35/35/35 44/44/44 45/45/45
f 35/35/35 45/45/45 36/36/36
f 37/37/37 46/46/46 47/47/47
f 37/37/37 47/47/47 38/38/38
f 38/38/38 47/47/47 39/39/39
f 39/39/39 47/47/47 48/48/48
f 39/39/39 48/48/48 49/49/49
f 39/39/39 49/49/49 40/40/40
f 40/40/40 49/49/49 41/41/41
f 41/41/41 49/49/49 50/50/50
f 41/41/41 50/50/50 51/51/51
f 41/41/41 51/51/51 42/42/42
f 42/42/42 51/51/51 43/43/43
f 43/43/43 51/51/51 52/52/52
f 43/43/43 52/52/52 53/53/53
f 43/43/43 53/53/53 44/44/44
f 44/44/44 53/53/53 45/45/45
f 45/45/45 53/53/53 54/54/54
f 46/46/46 55/55/55 47/47/47
f 47/47/47 55/55/55 56/56/56
f 47/47/47 56/56/56 57/57/57
f 47/47/47 57/57/57 48/48/48
f 48/48/48 57/57/57 49/49/49
f 49/49/49 57/57/57 58/58/58
f 49/49/49 58/58/58 59/59/59
f 49/49/49 59/59/59 50/50/50
f 50/50/50 59/59/59 51/51/51
f 51/51/51 59/59/59 60/60/60
f 51/51/51 60/60/60 61/61/61
f 51/51/51 61/61/61 52/52/52
f 52/52/52 61/61/61 53/53/53
f 53/53/53 61/61/61 62/62/62
f 53/53/53 62/62/62 63/63/63
f 53/53/53 63/63/63 54/54/54
f 55/55/55 64/64/64 65/65/65
f 55/55/55 65/65/65 56/56/56
f 56/56/56 65/65/65 57/57/57
f 57/57/57 65/65/65 66/66/66
f 57/57/57 66/66/66 67/67/67
f 57/57/57 67/67/67 58/58/58
f 58/58/58 67/67/67 59/59/59
f 59/59/59 67/67/67 68/68/68
f 59/59/59 68/68/68 69/69/69
f 59/59/59 69/69/69 60/60/60
f 60/60/60 69/69/69 61/61/61
f 61/61/61 69/69/69 70/70/70
f 61/61/61 70/70/70 71/71/71
f 61/61/61 71/71/71 62/62/62
f 62/62/62 71/71/71 63/63/63
f 63/63/63 71/71/71 72/72/72
f 64/64/64 73/73/73 65/65/65
f 65/65/65 73/73/73 74/74/74
f 65/65/65 74/74/74 75/75/75
f 65/65/65 75/75/75 66/66/66
f 66/66/66 75/75/75 67/67/67
f 67/67/67 75/75/75 76/76/76
f 67/67/67 76/76/76 77/77/77
f 67/67/67 77/77/77 68/68/68
f 68/68/68 77/77/77 69/69/69
f 69/69/69 77/77/77 78/78/78
f 69/69/69 78/78/78 79/79/79
f 69/69/69 79/79/79 70/70/70
f 70/70/70 79/79/79 71/71/71
f 71/71/71 79/79/79 80/80/80
f 71/71/71 80/80/80 81/81/81
f 71/71/71 81/81/81 72/72/72
