# Generated by tools/generate_island.py. Do not edit by hand.
o terrain_lod2_-3_0

v -192.000 -8.000 0.000 0.463 0.431 0.251
v -192.000 -8.000 8.000 0.467 0.436 0.254
v -184.000 -8.000 8.000 0.480 0.449 0.262
v -184.000 -8.000 0.000 0.477 0.445 0.260
v -176.000 -8.000 0.000 0.474 0.443 0.258
v -176.000 -8.000 8.000 0.486 0.455 0.266
v -168.000 -6.602 8.000 0.470 0.438 0.255
v -168.000 -7.235 0.000 0.472 0.440 0.257
v -160.000 -5.685 0.000 0.470 0.438 0.256
v -160.000 -5.423 8.000 0.462 0.430 0.250
v -152.000 -3.819 8.000 0.475 0.443 0.259
v -152.000 -4.354 0.000 0.486 0.455 0.266
v -144.000 -2.929 0.000 0.498 0.467 0.274
v -144.000 -2.638 8.000 0.488 0.457 0.267
v -136.000 -1.255 8.000 0.488 0.457 0.268
v -136.000 -1.193 0.000 0.490 0.459 0.269
v -128.000 0.899 0.000 0.490 0.459 0.269
v -128.000 0.338 8.000 0.488 0.457 0.267
v -192.000 -8.000 16.000 0.473 0.442 0.258
v -184.000 -8.000 16.000 0.500 0.469 0.275
v -176.000 -8.000 16.000 0.499 0.468 0.274
v -168.000 -6.268 16.000 0.453 0.421 0.244
v -160.000 -5.053 16.000 0.456 0.424 0.246
v -152.000 -3.447 16.000 0.448 0.416 0.241
v -144.000 -2.085 16.000 0.437 0.405 0.234
v -136.000 -1.446 16.000 0.441 0.409 0.236
v -128.000 -0.280 16.000 0.458 0.427 0.248
v -192.000 -8.000 24.000 0.491 0.460 0.269
v -184.000 -8.000 24.000 0.471 0.439 0.256
v -176.000 -7.866 24.000 0.458 0.426 0.248
v -168.000 -6.305 24.000 0.463 0.431 0.251
v -160.000 -4.544 24.000 0.438 0.406 0.235
v -152.000 -3.382 24.000 0.406 0.373 0.214
v -144.000 -2.221 24.000 0.409 0.375 0.215
v -136.000 -1.778 24.000 0.418 0.385 0.221
v -128.000 -1.121 24.000 0.418 0.385 0.221
v -192.000 -8.000 32.000 0.481 0.450 0.263
v -184.000 -8.000 32.000 0.445 0.413 0.239
v -176.000 -7.822 32.000 0.448 0.415 0.241
v -168.000 -6.557 32.000 0.452 0.420 0.244
v -160.000 -4.760 32.000 0.420 0.387 0.222
v -152.000 -3.625 32.000 0.391 0.357 0.203
v -144.000 -2.877 32.000 0.403 0.369 0.211
v -136.000 -2.059 32.000 0.410 0.376 0.216
v -128.000 -1.668 32.000 0.400 0.366 0.209
v -192.000 -8.000 40.000 0.450 0.418 0.243
v -184.000 -8.000 40.000 0.446 0.414 0.240
v -176.000 -8.000 40.000 0.450 0.418 0.242
v -168.000 -6.987 40.000 0.430 0.398 0.230
v -160.000 -5.487 40.000 0.406 0.372 0.213
v -152.000 -4.041 40.000 0.380 0.346 0.197
v -144.000 -3.418 40.000 0.387 0.353 0.201
v -136.000 -2.516 40.000 0.388 0.354 0.201
v -128.000 -1.681 40.000 0.384 0.350 0.199
v -192.000 -8.000 48.000 0.474 0.443 0.258
v -184.000 -8.000 48.000 0.451 0.418 0.243
v -176.000 -8.000 48.000 0.425 0.392 0.226
v -168.000 -7.432 48.000 0.392 0.359 0.205
v -160.000 -6.281 48.000 0.387 0.353 0.201
v -152.000 -5.052 48.000 0.365 0.330 0.186
v -144.000 -4.237 48.000 0.386 0.352 0.200
v -136.000 -3.512 48.000 0.369 0.335 0.189
v -128.000 -2.145 48.000 0.366 0.331 0.187
v -192.000 -8.000 56.000 0.484 0.453 0.265
v -184.000 -8.000 56.000 0.455 0.423 0.246
v -176.000 -8.000 56.000 0.403 0.369 0.211
v -168.000 -8.000 56.000 0.361 0.326 0.184
v -160.000 -7.280 56.000 0.367 0.332 0.188
v -152.000 -6.427 56.000 0.365 0.330 0.186
v -144.000 -5.272 56.000 0.390 0.356 0.203
v -136.000 -4.260 56.000 0.371 0.337 0.191
v -128.000 -2.841 56.000 0.361 0.326 0.184
v -192.000 -8.000 64.000 0.469 0.438 0.255
v -184.000 -8.000 64.000 0.442 0.410 0.237
v -176.000 -8.000 64.000 0.415 0.382 0.219
v -168.000 -8.000 64.000 0.395 0.361 0.206
v -160.000 -8.000 64.000 0.376 0.342 0.194
v -152.000 -7.259 64.000 0.368 0.334 0.189
v -144.000 -6.053 64.000 0.379 0.345 0.196
v -136.000 -4.596 64.000 0.368 0.334 0.189
v -128.000 -3.518 64.000 0.377 0.342 0.194

vt 0.100000 0.500000
vt 0.100000 0.483333
vt 0.116667 0.483333
vt 0.116667 0.500000
vt 0.133333 0.500000
vt 0.133333 0.483333
vt 0.150000 0.483333
vt 0.150000 0.500000
vt 0.166667 0.500000
vt 0.166667 0.483333
vt 0.183333 0.483333
vt 0.183333 0.500000
vt 0.200000 0.500000
vt 0.200000 0.483333
vt 0.216667 0.483333
vt 0.216667 0.500000
vt 0.233333 0.500000
vt 0.233333 0.483333
vt 0.100000 0.466667
vt 0.116667 0.466667
vt 0.133333 0.466667
vt 0.150000 0.466667
vt 0.166667 0.466667
vt 0.183333 0.466667
vt 0.200000 0.466667
vt 0.216667 0.466667
vt 0.233333 0.466667
vt 0.100000 0.450000
vt 0.116667 0.450000
vt 0.133333 0.450000
vt 0.150000 0.450000
vt 0.166667 0.450000
vt 0.183333 0.450000
vt 0.200000 0.450000
vt 0.216667 0.450000
vt 0.233333 0.450000
vt 0.100000 0.433333
vt 0.116667 0.433333
vt 0.133333 0.433333
vt 0.150000 0.433333
vt 0.166667 0.433333
vt 0.183333 0.433333
vt 0.200000 0.433333
vt 0.216667 0.433333
vt 0.233333 0.433333
vt 0.100000 0.416667
vt 0.116667 0.416667
vt 0.133333 0.416667
vt 0.150000 0.416667
vt 0.166667 0.416667
vt 0.183333 0.416667
vt 0.200000 0.416667
vt 0.216667 0.416667
vt 0.233333 0.416667
vt 0.100000 0.400000
vt 0.116667 0.400000
vt 0.133333 0.400000
vt 0.150000 0.400000
vt 0.166667 0.400000
vt 0.183333 0.400000
vt 0.200000 0.400000
vt 0.216667 0.400000
vt 0.233333 0.400000
vt 0.100000 0.383333
vt 0.116667 0.383333
vt 0.133333 0.383333
vt 0.150000 0.383333
vt 0.166667 0.383333
vt 0.183333 0.383333
vt 0.200000 0.383333
vt 0.216667 0.383333
vt 0.233333 0.383333
vt 0.100000 0.366667
vt 0.116667 0.366667
vt 0.133333 0.366667
vt 0.150000 0.366667
vt 0.166667 0.366667
vt 0.183333 0.366667
vt 0.200000 0.366667
vt 0.216667 0.366667
vt 0.233333 0.366667

vn 0.00000 1.00000 0.00000
vn 0.00000 1.00000 0.00000
vn 0.00000 1.00000 0.00000
vn 0.00000 1.00000 0.00000
vn -0.06745 0.99753 -0.01974
vn -0.08707 0.99620 0.00000
vn -0.16050 0.98624 -0.03953
vn -0.14275 0.98667 -0.07811
vn -0.17402 0.98337 -0.05201
vn -0.17119 0.98447 -0.03890
vn -0.17359 0.98352 -0.05058
vn -0.16942 0.98335 -0.06576
vn -0.17603 0.98385 -0.03241
vn -0.15801 0.98607 -0.05200
vn -0.17810 0.98393 0.01296
vn -0.23267 0.97253 0.00762
vn -0.22432 0.97378 0.03795
vn -0.19488 0.97817 0.07212
vn 0.00000 1.00000 0.00000
vn 0.00000 1.00000 0.00000
vn -0.10191 0.99475 -0.00878
vn -0.18111 0.98329 -0.01823
vn -0.17448 0.98392 -0.03832
vn -0.18233 0.98287 -0.02688
vn -0.12660 0.99189 -0.01161
vn -0.11201 0.99318 0.03244
vn -0.14151 0.98804 0.06119
vn 0.00000 1.00000 0.00000
vn -0.00698 0.99997 -0.00279
vn -0.10535 0.99437 -0.01109
vn -0.19395 0.98101 0.00162
vn -0.17971 0.98356 -0.01804
vn -0.14677 0.98908 0.01323
vn -0.09961 0.99381 0.04920
vn -0.08107 0.99530 0.05297
vn -0.08158 0.99294 0.08615
vn 0.00000 1.00000 0.00000
vn -0.01115 0.99994 0.00000
vn -0.08706 0.99609 0.01479
vn -0.18780 0.98132 0.04184
vn -0.18010 0.98240 0.04956
vn -0.11676 0.99232 0.04091
vn -0.09720 0.99352 0.05889
vn -0.07523 0.99611 0.04594
vn -0.07082 0.99667 0.04043
vn 0.00000 1.00000 0.00000
vn -0.00279 0.99999 0.00279
vn -0.06317 0.99794 0.01113
vn -0.15124 0.98706 0.05319
vn -0.18029 0.97920 0.09313
vn -0.12452 0.98826 0.08857
vn -0.09457 0.99194 0.08435
vn -0.10501 0.99175 0.07351
vn -0.10378 0.99416 0.02963
vn 0.00000 1.00000 0.00000
vn 0.00000 1.00000 0.00000
vn -0.03356 0.99931 0.01582
vn -0.10659 0.99232 0.06282
vn -0.14264 0.98393 0.10737
vn -0.12535 0.98126 0.14633
vn -0.10445 0.98716 0.12087
vn -0.12891 0.98582 0.10744
vn -0.15339 0.98412 0.08932
vn 0.00000 1.00000 0.00000
vn 0.00000 1.00000 0.00000
vn 0.00000 1.00000 0.00000
vn -0.04925 0.99779 0.04452
vn -0.09727 0.98957 0.10630
vn -0.12320 0.98481 0.12233
vn -0.13341 0.98474 0.11176
vn -0.14615 0.98582 0.08249
vn -0.17395 0.98115 0.08417
vn 0.00000 1.00000 0.00000
vn 0.00000 1.00000 0.00000
vn 0.00000 1.00000 0.00000
vn 0.00000 1.00000 0.00000
vn -0.07193 0.99490 0.07066
vn -0.12013 0.98743 0.10271
vn -0.14875 0.98529 0.08411
vn -0.15638 0.98683 0.04146
vn -0.15385 0.98612 0.06242

f 1/1/1 2/2/2 3/3/3
f 1/1/1 3/3/3 4/4/4
f 4/4/4 3/3/3 5/5/5
f 5/5/5 3/3/3 6/6/6
f 5/5/5 6/6/6 7/7/7
f 5/5/5 7/7/7 8/8/8
f 8/8/8 7/7/7 9/9/9
f 9/9/9 7/7/7 10/10/10
f 9/9/9 10/10/10 11/11/11
f 9/9/9 11/11/11 12/12/12
f 12/12/12 11/11/11 13/13/13
f 13/13/13 11/11/11 14/14/14
f 13/13/13 14/14/14 15/15/15
f 13/13/13 15/15/15 16/16/16
f 16/16/16 15/15/15 17/17/17
f 17/17/17 15/15/15 18/18/18
f 2/2/2 19/19/19 3/3/3
f 3/3/3 19/19/19 20/20/20
f 3/3/3 20/20/20 21/21/21
f 3/3/3 21/21/21 6/6/6
f 6/6/6 21/21/21 7/7/7
f 7/7/7 21/21/21 22/22/22
f 7/7/7 22/22/22 23/23/23
f 7/7/7 23/23/23 10/10/10
f 10/10/10 23/23/23 11/11/11
f 11/11/11 23/23/23 24/24/24
f 11/11/11 24/24/24 25/25/25
f 11/11/11 25/25/25 14/14/14
f 14/14/14 25/25/25 15/15/15
f 15/15/15 25/25/25 26/26/26
f 15/15/15 26/26/26 27/27/27
f 15/15/15 27/27/27 18/18/18
f 19/19/19 28/28/28 29/29/29
f 19/19/19 29/29/29 20/20/20
f 20/20/20 29/29/29 21/21/21
f 21/21/21 29/29/29 30/30/30
f 21/21/21 30/30/30 31/31/31
f 21/21/21 31/31/31 22/22/22
f 22/22/22 31/31/31 23/23/23
f 23/23/23 31/31/31 32/32/32
f 23/23/23 32/32/32 33/33/33
f 23/23/23 33/33/33 24/24/24
f 24/24/24 33/33/33 25/25/25
f 25/25/25 33/33/33 34/34/34
f 25/25/25 34/34/34 35/35/35
f 25/25/25 35/35/35 26/26/26
f 26/26/26 35/35/35 27/27/27
f 27/27/27 35/35/35 36/36/36
f 28/28/28 37/37/37 29/29/29
f 29/29/29 37/37/37 38/38/38
f 29/29/29 38/38/38 39/39/39
f 29/29/29 39/39/39 30/30/30
f 30/30/30 39/39/39 31/31/31
f 31/31/31 39/39/39 40/40/40
f 31/31/31 40/40/40 41/41/41
f 31/31/31 41/41/41 32/32/32
f 32/32/32 41/41/41 33/33/33
f 33/33/33 41/41/41 42/42/42
f 33/33/33 42/42/42 43/43/43
f 33/33/33 43/43/43 34/34/34
f 34/34/34 43/43/43 35/35/35
f 35/35/35 43/43/43 44/44/44
f 35/35/35 44/44/44 45/45/45
f 35/35/35 45/45/45 36/36/36
f 37/37/37 46/46/46 47/47/47
f 37/37/37 47/47/47 38/38/38
f 38/38/38 47/47/47 39/39/39
f 39/39/39 47/47/47 48/48/48
f 39/39/39 48/48/48 49/49/49
f 39/39/39 49/49/49 40/40/40
f 40/40/40 49/49/49 41/41/41
f 41/41/41 49/49/49 50/50/50
f 41/41/41 50/50/50 51/51/51
f 41/41/41 51/51/51 42/42/42
f 42/42/42 51/51/51 43/43/43
f 43/43/43 51/51/51 52/52/52
f 43/43/43 52/52/52 53/53/53
f 43/43/43 53/53/53 44/44/44
f 44/44/44 53/53/53 45/45/45
f 45/45/45 53/53/53 54/54/54
f 46/46/46 55/55/55 47/47/47
f 47/47/47 55/55/55 56/56/56
f 47/47/47 56/56/56 57/57/57
f 47/47/47 57/57/57 48/48/48
f 48/48/48 57/57/57 49/49/49
f 49/49/49 57/57/57 58/58/58
f 49/49/49 58/58/58 59/59/59
f 49/49/49 59/59/59 50/50/50
f 50/50/50 59/59/59 51/51/51
f 51/51/51 59/59/59 60/60/60
f 51/51/51 60/60/60 61/61/61
f 51/51/51 61/61/61 52/52/52
f 52/52/52 61/61/61 53/53/53
f 53/53/53 61/61/61 62/62/62
f 53/53/53 62/62/62 63/63/63
f 53/53/53 63/63/63 54/54/54
f 55/55/55 64/64/64 65/65/65
f 55/55/55 65/65/65 56/56/56
f 56/56/56 65/65/65 57/57/57
f 57/57/57 65/65/65 66/66/66
f 57/57/57 66/66/66 67/67/67
f 57/57/57 67/67/67 58/58/58
f 58/58/58 67/67/67 59/59/59
f 59/59/59 67/67/67 68/68/68
f 59/59/59 68/68/68 69/69/69
f 59/59/59 69/69/69 60/60/60
f 60/60/60 69/69/69 61/61/61
f 61/61/61 69/69/69 70/70/70
f 61/61/61 70/70/70 71/71/71
f 61/61/61 71/71/71 62/62/62
f 62/62/62 71/71/71 63/63/63
f 63/63/63 71/71/71 72/72/72
f 64/64/64 73/73/73 65/65/65
f 65/65/65 73/73/73 74/74/74
f 65/65/65 74/74/74 75/75/75
f 65/65/65 75/75/75 66/66/66
f 66/66/66 75/75/75 67/67/67
f 67/67/67 75/75/75 76/76/76
f 67/67/67 76/76/76 77/77/77
f 67/67/67 77/77/77 68/68/68
f 68/68/68 77/77/77 69/69/69
f 69/69/69 77/77/77 78/78/78
f 69/69/69 78/78/78 79/79/79
f 69/69/69 79/79/79 70/70/70
f 70/70/70 79/79/79 71/71/71
f 71/71/71 79/79/79 80/80/80
f 71/71/71 80/80/80 81/81/81
f 71/71/71 81/81/81 72/72/72
