# Generated by tools/generate_island.py. Do not edit by hand.
o terrain_lod2_3_1

v 192.000 -2.246 64.000 0.455 0.423 0.246
v 192.000 -2.701 72.000 0.468 0.437 0.255
v 200.000 -3.130 72.000 0.432 0.400 0.231
v 200.000 -2.831 64.000 0.427 0.394 0.227
v 208.000 -3.168 64.000 0.422 0.389 0.224
v 208.000 -3.233 72.000 0.433 0.401 0.232
v 216.000 -3.820 72.000 0.432 0.399 0.230
v 216.000 -4.014 64.000 0.422 0.389 0.224
v 224.000 -4.692 64.000 0.434 0.402 0.232
v 224.000 -4.909 72.000 0.431 0.398 0.230
v 232.000 -5.882 72.000 0.423 0.390 0.225
v 232.000 -5.822 64.000 0.429 0.396 0.229
v 240.000 -7.159 64.000 0.483 0.452 0.264
v 240.000 -7.379 72.000 0.467 0.435 0.253
v 248.000 -8.000 72.000 0.527 0.497 0.293
v 248.000 -7.976 64.000 0.550 0.521 0.308
v 256.000 -8.000 64.000 0.570 0.542 0.321
v 256.000 -8.000 72.000 0.557 0.529 0.313
v 192.000 -3.011 80.000 0.474 0.442 0.258
v 200.000 -3.006 80.000 0.453 0.421 0.245
v 208.000 -3.549 80.000 0.436 0.403 0.233
v 216.000 -4.020 80.000 0.417 0.384 0.221
v 224.000 -5.388 80.000 0.407 0.373 0.214
v 232.000 -6.518 80.000 0.407 0.374 0.214
v 240.000 -7.495 80.000 0.461 0.429 0.250
v 248.000 -8.000 80.000 0.500 0.469 0.275
v 256.000 -8.000 80.000 0.533 0.503 0.297
v 192.000 -3.354 88.000 0.473 0.441 0.257
v 200.000 -3.179 88.000 0.449 0.417 0.242
v 208.000 -3.956 88.000 0.445 0.413 0.239
v 216.000 -4.728 88.000 0.425 0.392 0.226
v 224.000 -5.655 88.000 0.418 0.385 0.221
v 232.000 -6.890 88.000 0.417 0.384 0.221
v 240.000 -7.398 88.000 0.451 0.418 0.243
v 248.000 -8.000 88.000 0.483 0.452 0.264
v 256.000 -8.000 88.000 0.508 0.478 0.281
v 192.000 -3.445 96.000 0.467 0.435 0.253
v 200.000 -3.765 96.000 0.441 0.409 0.237
v 208.000 -4.313 96.000 0.444 0.412 0.239
v 216.000 -5.443 96.000 0.427 0.394 0.227
v 224.000 -6.125 96.000 0.434 0.402 0.232
v 232.000 -7.096 96.000 0.441 0.409 0.237
v 240.000 -7.842 96.000 0.461 0.429 0.249
v 248.000 -8.000 96.000 0.459 0.427 0.248
v 256.000 -8.000 96.000 0.462 0.430 0.250
v 192.000 -3.551 104.000 0.438 0.406 0.235
v 200.000 -4.421 104.000 0.408 0.374 0.215
v 208.000 -5.175 104.000 0.415 0.382 0.220
v 216.000 -6.328 104.000 0.435 0.403 0.233
v 224.000 -7.233 104.000 0.446 0.414 0.240
v 232.000 -7.639 104.000 0.438 0.405 0.234
v 240.000 -8.000 104.000 0.429 0.396 0.229
v 248.000 -8.000 104.000 0.451 0.419 0.243
v 256.000 -8.000 104.000 0.453 0.421 0.244
v 192.000 -4.463 112.000 0.441 0.408 0.236
v 200.000 -5.368 112.000 0.405 0.371 0.213
v 208.000 -6.541 112.000 0.403 0.370 0.212
v 216.000 -7.239 112.000 0.429 0.396 0.229
v 224.000 -8.000 112.000 0.456 0.424 0.246
v 232.000 -8.000 112.000 0.422 0.389 0.224
v 240.000 -8.000 112.000 0.428 0.395 0.228
v 248.000 -8.000 112.000 0.449 0.417 0.242
v 256.000 -8.000 112.000 0.430 0.397 0.229
v 192.000 -5.718 120.000 0.458 0.426 0.248
v 200.000 -6.426 120.000 0.425 0.392 0.226
v 208.000 -7.558 120.000 0.418 0.385 0.221
v 216.000 -8.000 120.000 0.434 0.401 0.232
v 224.000 -8.000 120.000 0.446 0.414 0.240
v 232.000 -8.000 120.000 0.425 0.392 0.226
v 240.000 -8.000 120.000 0.430 0.397 0.229
v 248.000 -8.000 120.000 0.460 0.428 0.249
v 256.000 -8.000 120.000 0.424 0.391 0.225
v 192.000 -6.780 128.000 0.461 0.429 0.250
v 200.000 -7.770 128.000 0.449 0.417 0.242
v 208.000 -8.000 128.000 0.441 0.409 0.237
v 216.000 -8.000 128.000 0.455 0.423 0.246
v 224.000 -8.000 128.000 0.447 0.415 0.241
v 232.000 -8.000 128.000 0.428 0.396 0.228
v 240.000 -8.000 128.000 0.420 0.387 0.223
v 248.000 -8.000 128.000 0.417 0.384 0.221
v 256.000 -8.000 128.000 0.424 0.391 0.225

vt 0.800000 0.400000
vt 0.800000 0.387500
vt 0.812500 0.387500
vt 0.812500 0.400000
vt 0.825000 0.400000
vt 0.825000 0.387500
vt 0.837500 0.387500
vt 0.837500 0.400000
vt 0.850000 0.400000
vt 0.850000 0.387500
vt 0.862500 0.387500
vt 0.862500 0.400000
vt 0.875000 0.400000
vt 0.875000 0.387500
vt 0.887500 0.387500
vt 0.887500 0.400000
vt 0.900000 0.400000
vt 0.900000 0.387500
vt 0.800000 0.375000
vt 0.812500 0.375000
vt 0.825000 0.375000
vt 0.837500 0.375000
vt 0.850000 0.375000
vt 0.862500 0.375000
vt 0.875000 0.375000
vt 0.887500 0.375000
vt 0.900000 0.375000
vt 0.800000 0.362500
vt 0.812500 0.362500
vt 0.825000 0.362500
vt 0.837500 0.362500
vt 0.850000 0.362500
vt 0.862500 0.362500
vt 0.875000 0.362500
vt 0.887500 0.362500
vt 0.900000 0.362500
vt 0.800000 0.350000
vt 0.812500 0.350000
vt 0.825000 0.350000
vt 0.837500 0.350000
vt 0.850000 0.350000
vt 0.862500 0.350000
vt 0.875000 0.350000
vt 0.887500 0.350000
vt 0.900000 0.350000
vt 0.800000 0.337500
vt 0.812500 0.337500
vt 0.825000 0.337500
vt 0.837500 0.337500
vt 0.850000 0.337500
vt 0.862500 0.337500
vt 0.875000 0.337500
vt 0.887500 0.337500
vt 0.900000 0.337500
vt 0.800000 0.325000
vt 0.812500 0.325000
vt 0.825000 0.325000
vt 0.837500 0.325000
vt 0.850000 0.325000
vt 0.862500 0.325000
vt 0.875000 0.325000
vt 0.887500 0.325000
vt 0.900000 0.325000
vt 0.800000 0.312500
vt 0.812500 0.312500
vt 0.825000 0.312500
vt 0.837500 0.312500
vt 0.850000 0.312500
vt 0.862500 0.312500
vt 0.875000 0.312500
vt 0.887500 0.312500
vt 0.900000 0.312500
vt 0.800000 0.300000
vt 0.812500 0.300000
vt 0.825000 0.300000
vt 0.837500 0.300000
vt 0.850000 0.300000
vt 0.862500 0.300000
vt 0.875000 0.300000
vt 0.887500 0.300000
vt 0.900000 0.300000

vn 0.06319 0.99690 0.04698
vn 0.05342 0.99743 0.04769
vn 0.03938 0.99895 0.02335
vn 0.05750 0.99765 0.03721
vn 0.05843 0.99827 0.00729
vn 0.04308 0.99879 0.02377
vn 0.10437 0.99439 0.01692
vn 0.09482 0.99520 -0.02417
vn 0.12005 0.99272 0.00932
vn 0.12773 0.99087 0.04311
vn 0.14692 0.98844 0.03748
vn 0.15234 0.98830 0.00752
vn 0.13230 0.99108 0.01629
vn 0.13118 0.99114 0.02085
vn 0.04041 0.99917 0.00602
vn 0.05252 0.99862 0.00306
vn 0.00153 1.00000 0.00153
vn 0.00000 1.00000 0.00000
vn 0.00765 0.99973 0.02192
vn 0.03361 0.99943 0.00306
vn 0.06648 0.99708 0.03745
vn 0.11405 0.99188 0.05632
vn 0.14241 0.98841 0.05264
vn 0.13029 0.98951 0.06233
vn 0.09626 0.99522 0.01625
vn 0.03154 0.99950 0.00000
vn 0.00000 1.00000 0.00000
vn -0.02190 0.99939 0.02714
vn 0.04071 0.99827 0.04237
vn 0.09630 0.99422 0.04751
vn 0.10925 0.99173 0.06736
vn 0.13376 0.98997 0.04557
vn 0.11340 0.99294 0.03474
vn 0.06918 0.99737 0.02165
vn 0.02917 0.99956 0.00542
vn 0.00000 1.00000 0.00000
vn 0.04162 0.99812 0.04491
vn 0.05402 0.99554 0.07731
vn 0.10550 0.99105 0.08179
vn 0.11195 0.98878 0.09888
vn 0.10494 0.99082 0.08520
vn 0.10662 0.99321 0.04647
vn 0.05114 0.99823 0.03047
vn 0.00985 0.99995 0.00000
vn 0.00000 1.00000 0.00000
vn 0.10787 0.99216 0.06311
vn 0.09585 0.99038 0.09983
vn 0.11725 0.98361 0.13695
vn 0.11383 0.98640 0.11859
vn 0.08108 0.98993 0.11602
vn 0.05066 0.99692 0.05982
vn 0.02257 0.99970 0.00985
vn 0.00246 0.99999 0.00246
vn 0.00000 1.00000 0.00000
vn 0.10441 0.98619 0.12855
vn 0.12782 0.98410 0.12330
vn 0.11120 0.98526 0.12995
vn 0.09032 0.99052 0.10348
vn 0.04414 0.99748 0.05560
vn 0.00000 0.99975 0.02257
vn 0.00564 0.99997 0.00564
vn 0.00000 1.00000 0.00000
vn 0.00000 1.00000 0.00000
vn 0.08723 0.98591 0.14276
vn 0.10744 0.98540 0.13209
vn 0.09752 0.99112 0.09038
vn 0.03655 0.99825 0.04650
vn 0.00000 1.00000 0.00000
vn 0.00000 1.00000 0.00000
vn 0.00000 1.00000 0.00000
vn 0.00000 1.00000 0.00000
vn 0.00000 1.00000 0.00000
vn 0.10435 0.98349 0.14787
vn 0.07500 0.98341 0.16519
vn 0.05617 0.99601 0.06935
vn 0.00000 1.00000 0.00000
vn 0.00000 1.00000 0.00000
vn 0.00000 1.00000 0.00000
vn 0.00000 1.00000 0.00000
vn 0.00000 1.00000 0.00000
vn 0.00000 1.00000 0.00000

f 1/1/1 2/2/2 3/3/3
f 1/1/1 3/3/3 4/4/4
f 4/4/4 3/3/3 5/5/5
f 5/5/5 3/3/3 6/6/6
f 5/5/5 6/6/6 7/7/7
f 5/5/5 7/7/7 8/8/8
f 8/8/8 7/7/7 9/9/9
f 9/9/9 7/7/7 10/10/10
f 9/9/9 10/10/10 11/11/11
f 9/9/9 11/11/11 12/12/12
f 12/12/12 11/11/11 13/13/13
f 13/13/13 11/11/11 14/14/14
f 13/13/13 14/14/14 15/15/15
f 13/13/13 15/15/15 16/16/16
f 16/16/16 15/15/15 17/17/17
f 17/17/17 15/15/15 18/18/18
f 2/2/2 19/19/19 3/3/3
f 3/3/3 19/19/19 20/20/20
f 3/3/3 20/20/20 21/21/21
f 3/3/3 21/21/21 6/6/6
f 6/6/6 21/21/21 7/7/7
f 7/7/7 21/21/21 22/22/22
f 7/7/7 22/22/22 23/23/23
f 7/7/7 23/23/23 10/10/10
f 10/10/10 23/23/23 11/11/11
f 11/11/11 23/23/23 24/24/24
f 11/11/11 24/24/24 25/25/25
f 11/11/11 25/25/25 14/14/14
f 14/14/14 25/25/25 15/15/15
f 15/15/15 25/25/25 26/26/26
f 15/15/15 26/26/26 27/27/27
f 15/15/15 27/27/27 18/18/18
f 19/19/19 28/28/28 29/29/29
f 19/19/19 29/29/29 20/20/20
f 20/20/20 29/29/29 21/21/21
f 21/21/21 29/29/29 30/30/30
f 21/21/21 30/30/30 31/31/31
f 21/21/21 31/31/31 22/22/22
f 22/22/22 31/31/31 23/23/23
f 23/23/23 31/31/31 32/32/32
f 23/23/23 32/32/32 33/33/33
f 23/23/23 33/33/33 24/24/24
f 24/24/24 33/33/33 25/25/25
f 25/25/25 33/33/33 34/34/34
f 25/25/25 34/34/34 35/35/35
f 25/25/25 35/35/35 26/26/26
f 26/26/26 35/35/35 27/27/27
f 27/27/27 35/35/35 36/36/36
f 28/28/28 37/37/37 29/29/29
f 29/29/29 37/37/37 38/38/38
f 29/29/29 38/38/38 39/39/39
f 29/29/29 39/39/39 30/30/30
f 30/30/30 39/39/39 31/31/31
f 31/31/31 39/39/39 40/40/40
f 31/31/31 40/40/40 41/41/41
f 31/31/31 41/41/41 32/32/32
f 32/32/32 41/41/41 33/33/33
f 33/33/33 41/41/41 42/42/42
f 33/33/33 42/42/42 43/43/43
f 33/33/33 43/43/43 34/34/34
f 34/34/34 43/43/43 35/35/35
f 35/35/35 43/43/43 44/44/44
f 35/35/35 44/44/44 45/45/45
f 35/35/35 45/45/45 36/36/36
f 37/37/37 46/46/46 47/47/47
f 37/37/37 47/47/47 38/38/38
f 38/38/38 47/47/47 39/39/39
f 39/39/39 47/47/47 48/48/48
f 39/39/39 48/48/48 49/49/49
f 39/39/39 49/49/49 40/40/40
f 40/40/40 49/49/49 41/41/41
f 41/41/41 49/49/49 50/50/50
f 41/41/41 50/50/50 51/51/51
f 41/41/41 51/51/51 42/42/42
f 42/42/42 51/51/51 43/43/43
f 43/43/43 51/51/51 52/52/52
f 43/43/43 52/52/52 53/53/53
f 43/43/43 53/53/53 44/44/44
f 44/44/44 53/53/53 45/45/45
f 45/45/45 53/53/53 54/54/54
f 46/46/46 55/55/55 47/47/47
f 47/47/47 55/55/55 56/56/56
f 47/47/47 56/56/56 57/57/57
f 47/47/47 57/57/57 48/48/48
f 48/48/48 57/57/57 49/49/49
f 49/49/49 57/57/57 58/58/58
f 49/49/49 58/58/58 59/59/59
f 49/49/49 59/59/59 50/50/50
f 50/50/50 59/59/59 51/51/51
f 51/51/51 59/59/59 60/60/60
f 51/51/51 60/60/60 61/61/61
f 51/51/51 61/61/61 52/52/52
f 52/52/52 61/61/61 53/53/53
f 53/53/53 61/61/61 62/62/62
f 53/53/53 62/62/62 63/63/63
f 53/53/53 63/63/63 54/54/54
f 55/55/55 64/64/64 65/65/65
f 55/55/55 65/65/65 56/56/56
f 56/56/56 65/65/65 57/57/57
f 57/57/57 65/65/65 66/66/66
f 57/57/57 66/66/66 67/67/67
f 57/57/57 67/67/67 58/58/58
f 58/58/58 67/67/67 59/59/59
f 59/59/59 67/67/67 68/68/68
f 59/59/59 68/68/68 69/69/69
f 59/59/59 69/69/69 60/60/60
f 60/60/60 69/69/69 61/61/61
f 61/61/61 69/69/69 70/70/70
f 61/61/61 70/70/70 71/71/71
f 61/61/61 71/71/71 62/62/62
f 62/62/62 71/71/71 63/63/63
f 63/63/63 71/71/71 72/72/72
f 64/64/64 73/73/73 65/65/65
f 65/65/65 73/73/73 74/74/74
f 65/65/65 74/74/74 75/75/75
f 65/65/65 75/75/75 66/66/66
f 66/66/66 75/75/75 67/67/67
f 67/67/67 75/75/75 76/76/76
f 67/67/67 76/76/76 77/77/77
f 67/67/67 77/77/77 68/68/68
f 68/68/68 77/77/77 69/69/69
f 69/69/69 77/77/77 78/78/78
f 69/69/69 78/78/78 79/79/79
f 69/69/69 79/79/79 70/70/70
f 70/70/70 79/79/79 71/71/71
f 71/71/71 79/79/79 80/80/80
f 71/71/71 80/80/80 81/81/81
f 71/71/71 81/81/81 72/72/72
