# Generated by tools/generate_island.py. Do not edit by hand.
o terrain_lod2_1_-3

v 64.000 -8.000 -192.000 0.433 0.400 0.231
v 64.000 -8.000 -184.000 0.430 0.398 0.230
v 72.000 -8.000 -184.000 0.445 0.413 0.239
v 72.000 -8.000 -192.000 0.429 0.397 0.229
v 80.000 -8.000 -192.000 0.425 0.392 0.226
v 80.000 -8.000 -184.000 0.421 0.388 0.223
v 88.000 -8.000 -184.000 0.396 0.363 0.207
v 88.000 -8.000 -192.000 0.422 0.389 0.224
v 96.000 -8.000 -192.000 0.429 0.396 0.229
v 96.000 -8.000 -184.000 0.397 0.364 0.208
v 104.000 -8.000 -184.000 0.416 0.383 0.220
v 104.000 -8.000 -192.000 0.443 0.410 0.238
v 112.000 -8.000 -192.000 0.432 0.400 0.231
v 112.000 -8.000 -184.000 0.404 0.370 0.212
v 120.000 -8.000 -184.000 0.392 0.359 0.205
v 120.000 -8.000 -192.000 0.412 0.378 0.217
v 128.000 -8.000 -192.000 0.410 0.377 0.216
v 128.000 -8.000 -184.000 0.401 0.368 0.211
v 64.000 -8.000 -176.000 0.415 0.382 0.219
v 72.000 -8.000 -176.000 0.428 0.395 0.228
v 80.000 -8.000 -176.000 0.433 0.400 0.231
v 88.000 -8.000 -176.000 0.418 0.385 0.222
v 96.000 -8.000 -176.000 0.402 0.369 0.211
v 104.000 -8.000 -176.000 0.402 0.368 0.211
v 112.000 -8.000 -176.000 0.401 0.368 0.210
v 120.000 -8.000 -176.000 0.408 0.375 0.215
v 128.000 -8.000 -176.000 0.387 0.353 0.201
v 64.000 -8.000 -168.000 0.437 0.404 0.234
v 72.000 -8.000 -168.000 0.419 0.386 0.222
v 80.000 -8.000 -168.000 0.405 0.372 0.213
v 88.000 -8.000 -168.000 0.434 0.401 0.232
v 96.000 -8.000 -168.000 0.444 0.411 0.238
v 104.000 -8.000 -168.000 0.451 0.419 0.243
v 112.000 -8.000 -168.000 0.438 0.406 0.235
v 120.000 -8.000 -168.000 0.412 0.379 0.217
v 128.000 -8.000 -168.000 0.408 0.375 0.215
v 64.000 -8.000 -160.000 0.432 0.400 0.231
v 72.000 -8.000 -160.000 0.412 0.379 0.218
v 80.000 -8.000 -160.000 0.423 0.390 0.224
v 88.000 -8.000 -160.000 0.452 0.420 0.244
v 96.000 -8.000 -160.000 0.456 0.424 0.246
v 104.000 -8.000 -160.000 0.471 0.439 0.256
v 112.000 -8.000 -160.000 0.461 0.429 0.250
v 120.000 -8.000 -160.000 0.433 0.401 0.232
v 128.000 -8.000 -160.000 0.427 0.395 0.228
v 64.000 -8.000 -152.000 0.389 0.355 0.202
v 72.000 -8.000 -152.000 0.422 0.389 0.224
v 80.000 -8.000 -152.000 0.435 0.402 0.232
v 88.000 -8.000 -152.000 0.430 0.398 0.229
v 96.000 -8.000 -152.000 0.442 0.409 0.237
v 104.000 -8.000 -152.000 0.452 0.420 0.244
v 112.000 -8.000 -152.000 0.461 0.429 0.250
v 120.000 -8.000 -152.000 0.444 0.412 0.239
v 128.000 -8.000 -152.000 0.444 0.412 0.238
v 64.000 -8.000 -144.000 0.373 0.339 0.192
v 72.000 -8.000 -144.000 0.384 0.350 0.199
v 80.000 -8.000 -144.000 0.393 0.360 0.205
v 88.000 -8.000 -144.000 0.402 0.369 0.211
v 96.000 -8.000 -144.000 0.398 0.364 0.208
v 104.000 -8.000 -144.000 0.407 0.374 0.214
v 112.000 -8.000 -144.000 0.425 0.393 0.226
v 120.000 -8.000 -144.000 0.445 0.413 0.239
v 128.000 -8.000 -144.000 0.431 0.398 0.230
v 64.000 -8.000 -136.000 0.361 0.326 0.184
v 72.000 -8.000 -136.000 0.361 0.326 0.184
v 80.000 -8.000 -136.000 0.361 0.326 0.184
v 88.000 -8.000 -136.000 0.361 0.326 0.184
v 96.000 -8.000 -136.000 0.367 0.333 0.188
v 104.000 -8.000 -136.000 0.376 0.341 0.194
v 112.000 -8.000 -136.000 0.408 0.374 0.214
v 120.000 -8.000 -136.000 0.425 0.392 0.226
v 128.000 -8.000 -136.000 0.421 0.388 0.224
v 64.000 -6.920 -128.000 0.361 0.326 0.184
v 72.000 -8.000 -128.000 0.361 0.326 0.184
v 80.000 -8.000 -128.000 0.371 0.336 0.190
v 88.000 -8.000 -128.000 0.371 0.337 0.191
v 96.000 -8.000 -128.000 0.361 0.326 0.184
v 104.000 -8.000 -128.000 0.361 0.326 0.184
v 112.000 -8.000 -128.000 0.364 0.329 0.186
v 120.000 -8.000 -128.000 0.401 0.367 0.210
v 128.000 -8.000 -128.000 0.425 0.392 0.226

vt 0.633333 0.900000
vt 0.633333 0.883333
vt 0.650000 0.883333
vt 0.650000 0.900000
vt 0.666667 0.900000
vt 0.666667 0.883333
vt 0.683333 0.883333
vt 0.683333 0.900000
vt 0.700000 0.900000
vt 0.700000 0.883333
vt 0.716667 0.883333
vt 0.716667 0.900000
vt 0.733333 0.900000
vt 0.733333 0.883333
vt 0.750000 0.883333
vt 0.750000 0.900000
vt 0.766667 0.900000
vt 0.766667 0.883333
vt 0.633333 0.866667
vt 0.650000 0.866667
vt 0.666667 0.866667
vt 0.683333 0.866667
vt 0.700000 0.866667
vt 0.716667 0.866667
vt 0.733333 0.866667
vt 0.750000 0.866667
vt 0.766667 0.866667
vt 0.633333 0.850000
vt 0.650000 0.850000
vt 0.666667 0.850000
vt 0.683333 0.850000
vt 0.700000 0.850000
vt 0.716667 0.850000
vt 0.733333 0.850000
vt 0.750000 0.850000
vt 0.766667 0.850000
vt 0.633333 0.833333
vt 0.650000 0.833333
vt 0.666667 0.833333
vt 0.683333 0.833333
vt 0.700000 0.833333
vt 0.716667 0.833333
vt 0.733333 0.833333
vt 0.750000 0.833333
vt 0.766667 0.833333
vt 0.633333 0.816667
vt 0.650000 0.816667
vt 0.666667 0.816667
vt 0.683333 0.816667
vt 0.700000 0.816667
vt 0.716667 0.816667
vt 0.733333 0.816667
vt 0.750000 0.816667
vt 0.766667 0.816667
vt 0.633333 0.800000
vt 0.650000 0.800000
vt 0.666667 0.800000
vt 0.683333 0.800000
vt 0.700000 0.800000
vt 0.716667 0.800000
vt 0.733333 0.800000
vt 0.750000 0.800000
vt 0.766667 0.800000
vt 0.633333 0.783333
vt 0.650000 0.783333
vt 0.666667 0.783333
vt 0.683333 0.783333
vt 0.700000 0.783333
vt 0.716667 0.783333
vt 0.733333 0.783333
vt 0.750000 0.783333
vt 0.766667 0.783333
vt 0.633333 0.766667
vt 0.650000 0.766667
vt 0.666667 0.766667
vt 0.683333 0.766667
vt 0.700000 0.766667
vt 0.716667 0.766667
vt 0.733333 0.766667
vt 0.750000 0.766667
vt 0.766667 0.766667

vn 0.00000 1.00000 0.00000
vn 0.00000 1.00000 0.00000
vn 0.00000 1.00000 0.00000
vn 0.00000 1.00000 0.00000
vn 0.00000 1.00000 0.00000
vn 0.00000 1.00000 0.00000
vn 0.00000 1.00000 0.00000
vn 0.00000 1.00000 0.00000
vn 0.00000 1.00000 0.00000
vn 0.00000 1.00000 0.00000
vn 0.00000 1.00000 0.00000
vn 0.00000 1.00000 0.00000
vn 0.00000 1.00000 0.00000
vn 0.00000 1.00000 0.00000
vn 0.00000 1.00000 0.00000
vn 0.00000 1.00000 0.00000
vn 0.00000 1.00000 0.00000
vn 0.00000 1.00000 0.00000
vn 0.00000 1.00000 0.00000
vn 0.00000 1.00000 0.00000
vn 0.00000 1.00000 0.00000
vn 0.00000 1.00000 0.00000
vn 0.00000 1.00000 0.00000
vn 0.00000 1.00000 0.00000
vn 0.00000 1.00000 0.00000
vn 0.00000 1.00000 0.00000
vn 0.00000 1.00000 0.00000
vn 0.00000 1.00000 0.00000
vn 0.00000 1.00000 0.00000
vn 0.00000 1.00000 0.00000
vn 0.00000 1.00000 0.00000
vn 0.00000 1.00000 0.00000
vn 0.00000 1.00000 0.00000
vn 0.00000 1.00000 0.00000
vn 0.00000 1.00000 0.00000
vn 0.00000 1.00000 0.00000
vn 0.00000 1.00000 0.00000
vn 0.00000 1.00000 0.00000
vn 0.00000 1.00000 0.00000
vn 0.00000 1.00000 0.00000
vn 0.00000 1.00000 0.00000
vn 0.00000 1.00000 0.00000
vn 0.00000 1.00000 0.00000
vn 0.00000 1.00000 0.00000
vn 0.00000 1.00000 0.00000
vn 0.00000 1.00000 0.00000
vn 0.00000 1.00000 0.00000
vn 0.00000 1.00000 0.00000
vn 0.00000 1.00000 0.00000
vn 0.00000 1.00000 0.00000
vn 0.00000 1.00000 0.00000
vn 0.00000 1.00000 0.00000
vn 0.00000 1.00000 0.00000
vn 0.00000 1.00000 0.00000
vn 0.00000 1.00000 0.00000
vn 0.00000 1.00000 0.00000
vn 0.00000 1.00000 0.00000
vn 0.00000 1.00000 0.00000
vn 0.00000 1.00000 0.00000
vn 0.00000 1.00000 0.00000
vn 0.00000 1.00000 0.00000
vn 0.00000 1.00000 0.00000
vn 0.00000 1.00000 0.00000
vn 0.00000 0.99773 -0.06733
vn 0.01686 0.99972 -0.01686
vn 0.00000 1.00000 0.00000
vn 0.00000 1.00000 0.00000
vn 0.00000 1.00000 0.00000
vn 0.00000 1.00000 0.00000
vn 0.00000 1.00000 0.00000
vn 0.00000 1.00000 0.00000
vn 0.00000 1.00000 0.00000
vn 0.06717 0.99548 -0.06717
vn 0.06733 0.99773 0.00000
vn 0.00000 1.00000 0.00000
vn 0.00000 1.00000 0.00000
vn 0.00000 1.00000 0.00000
vn 0.00000 1.00000 0.00000
vn 0.00000 1.00000 0.00000
vn 0.00000 1.00000 0.00000
vn 0.00000 1.00000 0.00000

f 1/1/1 2/2/2 3/3/3
f 1/1/1 3/3/3 4/4/4
f 4/4/4 3/3/3 5/5/5
f 5/5/5 3/3/3 6/6/6
f 5/5/5 6/6/6 7/7/7
f 5/5/5 7/7/7 8/8/8
f 8/8/8 7/7/7 9/9/9
f 9/9/9 7/7/7 10/10/10
f 9/9/9 10/10/10 11/11/11
f 9/9/9 11/11/11 12/12/12
f 12/12/12 11/11/11 13/13/13
f 13/13/13 11/11/11 14/14/14
f 13/13/13 14/14/14 15/15/15
f 13/13/13 15/15/15 16/16/16
f 16/16/16 15/15/15 17/17/17
f 17/17/17 15/15/15 18/18/18
f 2/2/2 19/19/19 3/3/3
f 3/3/3 19/19/19 20/20/20
f 3/3/3 20/20/20 21/21/21
f 3/3/3 21/21/21 6/6/6
f 6/6/6 21/21/21 7/7/7
f 7/7/7 21/21/21 22/22/22
f 7/7/7 22/22/22 23/23/23
f 7/7/7 23/23/23 10/10/10
f 10/10/10 23/23/23 11/11/11
f 11/11/11 23/23/23 24/24/24
f 11/11/11 24/24/24 25/25/25
f 11/11/11 25/25/25 14/14/14
f 14/14/14 25/25/25 15/15/15
f 15/15/15 25/25/25 26/26/26
f 15/15/15 26/26/26 27/27/27
f 15/15/15 27/27/27 18/18/18
f 19/19/19 28/28/28 29/29/29
f 19/19/19 29/29/29 20/20/20
f 20/20/20 29/29/29 21/21/21
f 21/21/21 29/29/29 30/30/30
f 21/21/21 30/30/30 31/31/31
f 21/21/21 31/31/31 22/22/22
f 22/22/22 31/31/31 23/23/23
f 23/23/23 31/31/31 32/32/32
f 23/23/23 32/32/32 33/33/33
f 23/23/23 33/33/33 24/24/24
f 24/24/24 33/33/33 25/25/25
f 25/25/25 33/33/33 34/34/34
f 25/25/25 34/34/34 35/35/35
f 25/25/25 35/35/35 26/26/26
f 26/26/26 35/35/35 27/27/27
f 27/27/27 35/35/35 36/36/36
f 28/28/28 37/37/37 29/29/29
f 29/29/29 37/37/37 38/38/38
f 29/29/29 38/38/38 39/39/39
f 29/29/29 39/39/39 30/30/30
f 30/30/30 39/39/39 31/31/31
f 31/31/31 39/39/39 40/40/40
f 31/31/31 40/40/40 41/41/41
f 31/31/31 41/41/41 32/32/32
f 32/32/32 41/41/41 33/33/33
f 33/33/33 41/41/41 42/42/42
f 33/33/33 42/42/42 43/43/43
f 33/33/33 43/43/43 34/34/34
f 34/34/34 43/43/43 35/35/35
f 35/35/35 43/43/43 44/44/44
f 35/35/35 44/44/44 45/45/45
f 35/35/35 45/45/45 36/36/36
f 37/37/37 46/46/46 47/47/47
f 37/37/37 47/47/47 38/38/38
f 38/38/38 47/47/47 39/39/39
f 39/39/39 47/47/47 48/48/48
f 39/39/39 48/48/48 49/49/49
f 39/39/39 49/49/49 40/40/40
f 40/40/40 49/49/49 41/41/41
f 41/41/41 49/49/49 50/50/50
f 41/41/41 50/50/50 51/51/51
f 41/41/41 51/51/51 42/42/42
f 42/42/42 51/51/51 43/43/43
f 43/43/43 51/51/51 52/52/52
f 43/43/43 52/52/52 53/53/53
f 43/43/43 53/53/53 44/44/44
f 44/44/44 53/53/53 45/45/45
f 45/45/45 53/53/53 54/54/54
f 46/46/46 55/55/55 47/47/47
f 47/47/47 55/55/55 56/56/56
f 47/47/47 56/56/56 57/57/57
f 47/47/47 57/57/57 48/48/48
f 48/48/48 57/57/57 49/49/49
f 49/49/49 57/57/57 58/58/58
f 49/49/49 58/58/58 59/59/59
f 49/49/49 59/59/59 50/50/50
f 50/50/50 59/59/59 51/51/51
f 51/51/51 59/59/59 60/60/60
f 51/51/51 60/60/60 61/61/61
f 51/51/51 61/61/61 52/52/52
f 52/52/52 61/61/61 53/53/53
f 53/53/53 61/61/61 62/62/62
f 53/53/53 62/62/62 63/63/63
f 53/53/53 63/63/63 54/54/54
f 55/55/55 64/64/64 65/65/65
f 55/55/55 65/65/65 56/56/56
f 56/56/56 65/65/65 57/57/57
f 57/57/57 65/65/65 66/66/66
f 57/57/57 66/66/66 67/67/67
f 57/57/57 67/67/67 58/58/58
f 58/58/58 67/67/67 59/59/59
f 59/59/59 67/67/67 68/68/68
f 59/59/59 68/68/68 69/69/69
f 59/59/59 69/69/69 60/60/60
f 60/60/60 69/69/69 61/61/61
f 61/61/61 69/69/69 70/70/70
f 61/61/61 70/70/70 71/71/71
f 61/61/61 71/71/71 62/62/62
f 62/62/62 71/71/71 63/63/63
f 63/63/63 71/71/71 72/72/72
f 64/64/64 73/73/73 65/65/65
f 65/65/65 73/73/73 74/74/74
f 65/65/65 74/74/74 75/75/75
f 65/65/65 75/75/75 66/66/66
f 66/66/66 75/75/75 67/67/67
f 67/67/67 75/75/75 76/76/76
f 67/67/67 76/76/76 77/77/77
f 67/67/67 77/77/77 68/68/68
f 68/68/68 77/77/77 69/69/69
f 69/69/69 77/77/77 78/78/78
f 69/69/69 78/78/78 79/79/79
f 69/69/69 79/79/79 70/70/70
f 70/70/70 79/79/79 71/71/71
f 71/71/71 79/79/79 80/80/80
f 71/71/71 80/80/80 81/81/81
f 71/71/71 81/81/81 72/72/72
