# Generated by tools/generate_island.py. Do not edit by hand.
o terrain_lod2_-3_0

v -384.000 2.089 0.000 0.228 0.306 0.113
v -384.000 1.242 16.000 0.493 0.462 0.271
v -368.000 1.915 16.000 0.265 0.335 0.125
v -368.000 1.624 0.000 0.248 0.321 0.119
v -352.000 1.818 0.000 0.240 0.316 0.117
v -352.000 2.198 16.000 0.283 0.349 0.131
v -336.000 3.877 16.000 0.247 0.321 0.119
v -336.000 1.168 0.000 0.489 0.458 0.268
v -320.000 1.965 0.000 0.234 0.311 0.115
v -320.000 1.879 16.000 0.225 0.304 0.112
v -304.000 1.304 16.000 0.507 0.477 0.280
v -304.000 0.661 0.000 0.511 0.481 0.283
v -288.000 0.937 0.000 0.571 0.543 0.322
v -288.000 2.024 16.000 0.254 0.326 0.121
v -272.000 1.352 16.000 0.516 0.486 0.286
v -272.000 4.082 0.000 0.282 0.348 0.131
v -256.000 1.748 0.000 0.279 0.346 0.130
v -256.000 0.089 16.000 0.517 0.487 0.287
v -384.000 1.801 32.000 0.253 0.326 0.121
v -368.000 1.253 32.000 0.567 0.538 0.319
v -352.000 2.029 32.000 0.291 0.355 0.134
v -336.000 1.299 32.000 0.474 0.443 0.259
v -320.000 0.979 32.000 0.469 0.437 0.255
v -304.000 1.504 32.000 0.458 0.426 0.247
v -288.000 0.010 32.000 0.422 0.389 0.224
v -272.000 -0.415 32.000 0.438 0.405 0.234
v -256.000 0.498 32.000 0.489 0.458 0.268
v -384.000 2.260 48.000 0.268 0.337 0.126
v -368.000 1.314 48.000 0.491 0.460 0.270
v -352.000 0.689 48.000 0.485 0.454 0.266
v -336.000 0.057 48.000 0.496 0.466 0.273
v -320.000 0.907 48.000 0.446 0.414 0.240
v -304.000 0.649 48.000 0.393 0.359 0.205
v -288.000 -0.851 48.000 0.393 0.360 0.205
v -272.000 -0.084 48.000 0.429 0.396 0.228
v -256.000 0.157 48.000 0.429 0.396 0.229
v -384.000 1.753 64.000 0.264 0.334 0.125
v -368.000 2.067 64.000 0.225 0.304 0.112
v -352.000 1.390 64.000 0.492 0.461 0.270
v -336.000 0.744 64.000 0.482 0.451 0.264
v -320.000 1.180 64.000 0.449 0.417 0.242
v -304.000 1.606 64.000 0.373 0.338 0.191
v -288.000 -0.119 64.000 0.397 0.363 0.207
v -272.000 0.210 64.000 0.418 0.385 0.221
v -256.000 -0.016 64.000 0.397 0.363 0.207
v -384.000 -0.124 80.000 0.475 0.444 0.259
v -368.000 0.540 80.000 0.474 0.443 0.259
v -352.000 1.991 80.000 0.234 0.311 0.115
v -336.000 0.576 80.000 0.448 0.416 0.241
v -320.000 0.283 80.000 0.404 0.370 0.212
v -304.000 -0.285 80.000 0.374 0.339 0.192
v -288.000 -0.595 80.000 0.375 0.340 0.193
v -272.000 1.550 80.000 0.410 0.376 0.216
v -256.000 -0.061 80.000 0.395 0.361 0.206
v -384.000 1.888 96.000 0.269 0.338 0.126
v -368.000 1.492 96.000 0.494 0.463 0.271
v -352.000 1.785 96.000 0.199 0.284 0.103
v -336.000 0.246 96.000 0.395 0.361 0.206
v -320.000 0.144 96.000 0.401 0.367 0.210
v -304.000 -0.917 96.000 0.361 0.326 0.184
v -288.000 -0.962 96.000 0.390 0.357 0.203
v -272.000 1.350 96.000 0.383 0.348 0.198
v -256.000 -0.666 96.000 0.377 0.342 0.194
v -384.000 2.537 112.000 0.280 0.347 0.130
v -368.000 2.107 112.000 0.261 0.332 0.124
v -352.000 1.850 112.000 0.169 0.261 0.093
v -336.000 0.297 112.000 0.361 0.326 0.184
v -320.000 -0.385 112.000 0.361 0.326 0.184
v -304.000 -0.831 112.000 0.362 0.327 0.184
v -288.000 -0.129 112.000 0.414 0.381 0.219
v -272.000 1.264 112.000 0.403 0.370 0.212
v -256.000 -0.205 112.000 0.361 0.326 0.184
v -384.000 2.544 128.000 0.262 0.332 0.124
v -368.000 2.180 128.000 0.235 0.311 0.115
v -352.000 0.734 128.000 0.436 0.403 0.233
v -336.000 0.118 128.000 0.395 0.362 0.207
v -320.000 0.168 128.000 0.370 0.335 0.189
v -304.000 -0.072 128.000 0.361 0.326 0.184
v -288.000 -0.695 128.000 0.383 0.349 0.199
v -272.000 0.022 128.000 0.376 0.341 0.194
v -256.000 0.738 128.000 0.414 0.381 0.219

vt 0.300000 0.500000
vt 0.300000 0.491667
vt 0.308333 0.491667
vt 0.308333 0.500000
vt 0.316667 0.500000
vt 0.316667 0.491667
vt 0.325000 0.491667
vt 0.325000 0.500000
vt 0.333333 0.500000
vt 0.333333 0.491667
vt 0.341667 0.491667
vt 0.341667 0.500000
vt 0.350000 0.500000
vt 0.350000 0.491667
vt 0.358333 0.491667
vt 0.358333 0.500000
vt 0.366667 0.500000
vt 0.366667 0.491667
vt 0.300000 0.483333
vt 0.308333 0.483333
vt 0.316667 0.483333
vt 0.325000 0.483333
vt 0.333333 0.483333
vt 0.341667 0.483333
vt 0.350000 0.483333
vt 0.358333 0.483333
vt 0.366667 0.483333
vt 0.300000 0.475000
vt 0.308333 0.475000
vt 0.316667 0.475000
vt 0.325000 0.475000
vt 0.333333 0.475000
vt 0.341667 0.475000
vt 0.350000 0.475000
vt 0.358333 0.475000
vt 0.366667 0.475000
vt 0.300000 0.466667
vt 0.308333 0.466667
vt 0.316667 0.466667
vt 0.325000 0.466667
vt 0.333333 0.466667
vt 0.341667 0.466667
vt 0.350000 0.466667
vt 0.358333 0.466667
vt 0.366667 0.466667
vt 0.300000 0.458333
vt 0.308333 0.458333
vt 0.316667 0.458333
vt 0.325000 0.458333
vt 0.333333 0.458333
vt 0.341667 0.458333
vt 0.350000 0.458333
vt 0.358333 0.458333
vt 0.366667 0.458333
vt 0.300000 0.450000
vt 0.308333 0.450000
vt 0.316667 0.450000
vt 0.325000 0.450000
vt 0.333333 0.450000
vt 0.341667 0.450000
vt 0.350000 0.450000
vt 0.358333 0.450000
vt 0.366667 0.450000
vt 0.300000 0.441667
vt 0.308333 0.441667
vt 0.316667 0.441667
vt 0.325000 0.441667
vt 0.333333 0.441667
vt 0.341667 0.441667
vt 0.350000 0.441667
vt 0.358333 0.441667
vt 0.366667 0.441667
vt 0.300000 0.433333
vt 0.308333 0.433333
vt 0.316667 0.433333
vt 0.325000 0.433333
vt 0.333333 0.433333
vt 0.341667 0.433333
vt 0.350000 0.433333
vt 0.358333 0.433333
vt 0.366667 0.433333

vn -0.00646 0.99983 0.01737
vn -0.04199 0.99908 0.00901
vn -0.01459 0.99987 0.00640
vn 0.00848 0.99980 -0.01819
vn -0.02348 0.99800 -0.05863
vn -0.06119 0.99810 -0.00659
vn 0.01203 0.99992 0.00399
vn -0.00453 0.98596 -0.16694
vn 0.04800 0.99762 -0.04956
vn 0.08011 0.99631 0.03069
vn 0.01334 0.99991 0.00177
vn 0.03207 0.99868 -0.04010
vn -0.05412 0.99853 -0.00132
vn -0.00151 0.99958 0.02897
vn 0.02000 0.99601 0.08693
vn -0.02496 0.98545 0.16815
vn 0.11066 0.98464 0.13506
vn 0.07862 0.99615 0.03890
vn 0.02140 0.99975 -0.00651
vn -0.00714 0.99980 0.01878
vn -0.00623 0.99830 0.05800
vn 0.03256 0.99243 0.11844
vn 0.01226 0.99867 0.05008
vn 0.03027 0.99933 0.02045
vn 0.03526 0.99751 0.06110
vn -0.01524 0.99888 0.04482
vn -0.01259 0.99969 0.02137
vn 0.05903 0.99826 0.00148
vn 0.02558 0.99965 -0.00736
vn 0.03922 0.99903 0.01996
vn 0.00645 0.99991 0.01211
vn -0.01847 0.99981 -0.00626
vn 0.04514 0.99898 -0.00215
vn 0.02290 0.99973 0.00403
vn -0.02036 0.99978 -0.00474
vn -0.01504 0.99976 0.01606
vn -0.00540 0.99877 0.04928
vn 0.01135 0.99964 0.02417
vn 0.03019 0.99938 -0.01833
vn 0.00656 0.99985 -0.01621
vn -0.01137 0.99985 0.01298
vn 0.04054 0.99875 0.02914
vn 0.01321 0.99987 -0.00947
vn -0.00323 0.99869 -0.05101
vn 0.02842 0.99935 -0.02213
vn -0.04147 0.99913 -0.00422
vn -0.02938 0.99956 0.00485
vn -0.00114 0.99992 -0.01236
vn 0.04110 0.99907 0.01276
vn 0.02689 0.99912 0.03233
vn 0.03245 0.99801 0.05400
vn -0.05724 0.99801 0.02628
vn -0.01147 0.99992 -0.00616
vn 0.10016 0.99477 0.02021
vn 0.00873 0.99779 -0.06593
vn 0.00321 0.99880 -0.04892
vn 0.03330 0.99941 -0.00786
vn 0.05121 0.99865 0.00873
vn 0.03369 0.99929 0.01687
vn 0.03454 0.99926 0.01705
vn -0.06599 0.99782 -0.00079
vn -0.00924 0.99992 0.00895
vn 0.11043 0.99386 0.00669
vn 0.02686 0.99943 -0.02047
vn 0.02567 0.99964 -0.00767
vn 0.05646 0.99787 0.03277
vn 0.05209 0.99859 0.01002
vn 0.03521 0.99938 -0.00074
vn 0.01138 0.99982 -0.01547
vn -0.06531 0.99783 -0.00832
vn -0.01232 0.99989 0.00769
vn 0.09130 0.99487 -0.04365
vn 0.02479 0.99969 -0.00247
vn 0.05645 0.99840 -0.00454
vn 0.06037 0.99751 0.03643
vn 0.01769 0.99978 0.01119
vn 0.02058 0.99944 -0.02631
vn 0.02692 0.99852 -0.04732
vn -0.03418 0.99910 0.02521
vn -0.04460 0.99601 0.07728
vn 0.02351 0.99968 0.00932

f 1/1/1 2/2/2 3/3/3
f 1/1/1 3/3/3 4/4/4
f 4/4/4 3/3/3 5/5/5
f 5/5/5 3/3/3 6/6/6
f 5/5/5 6/6/6 7/7/7
f 5/5/5 7/7/7 8/8/8
f 8/8/8 7/7/7 9/9/9
f 9/9/9 7/7/7 10/10/10
f 9/9/9 10/10/10 11/11/11
f 9/9/9 11/11/11 12/12/12
f 12/12/12 11/11/11 13/13/13
f 13/13/13 11/11/11 14/14/14
f 13/13/13 14/14/14 15/15/15
f 13/13/13 15/15/15 16/16/16
f 16/16/16 15/15/15 17/17/17
f 17/17/17 15/15/15 18/18/18
f 2/2/2 19/19/19 3/3/3
f 3/3/3 19/19/19 20/20/20
f 3/3/3 20/20/20 21/21/21
f 3/3/3 21/21/21 6/6/6
f 6/6/6 21/21/21 7/7/7
f 7/7/7 21/21/21 22/22/22
f 7/7/7 22/22/22 23/23/23
f 7/7/7 23/23/23 10/10/10
f 10/10/10 23/23/23 11/11/11
f 11/11/11 23/23/23 24/24/24
f 11/11/11 24/24/24 25/25/25
f 11/11/11 25/25/25 14/14/14
f 14/14/14 25/25/25 15/15/15
f 15/15/15 25/25/25 26/26/26
f 15/15/15 26/26/26 27/27/27
f 15/15/15 27/27/27 18/18/18
f 19/19/19 28/28/28 29/29/29
f 19/19/19 29/29/29 20/20/20
f 20/20/20 29/29/29 21/21/21
f 21/21/21 29/29/29 30/30/30
f 21/21/21 30/30/30 31/31/31
f 21/21/21 31/31/31 22/22/22
f 22/22/22 31/31/31 23/23/23
f 23/23/23 31/31/31 32/32/32
f 23/23/23 32/32/32 33/33/33
f 23/23/23 33/33/33 24/24/24
f 24/24/24 33/33/33 25/25/25
f 25/25/25 33/33/33 34/34/34
f 25/25/25 34/34/34 35/35/35
f 25/25/25 35/35/35 26/26/26
f 26/26/26 35/35/35 27/27/27
f 27/27/27 35/35/35 36/36/36
f 28/28/28 37/37/37 29/29/29
f 29/29/29 37/37/37 38/38/38
f 29/29/29 38/38/38 39/39/39
f 29/29/29 39/39/39 30/30/30
f 30/30/30 39/39/39 31/31/31
f 31/31/31 39/39/39 40/40/40
f 31/31/31 40/40/40 41/41/41
f 31/31/31 41/41/41 32/32/32
f 32/32/32 41/41/41 33/33/33
f 33/33/33 41/41/41 42/42/42
f 33/33/33 42/42/42 43/43/43
f 33/33/33 43/43/43 34/34/34
f 34/34/34 43/43/43 35/35/35
f 35/35/35 43/43/43 44/44/44
f 35/35/35 44/44/44 45/45/45
f 35/35/35 45/45/45 36/36/36
f 37/37/37 46/46/46 47/47/47
f 37/37/37 47/47/47 38/38/38
f 38/38/38 47/47/47 39/39/39
f 39/39/39 47/47/47 48/48/48
f 39/39/39 48/48/48 49/49/49
f 39/39/39 49/49/49 40/40/40
f 40/40/40 49/49/49 41/41/41
f 41/41/41 49/49/49 50/50/50
f 41/41/41 50/50/50 51/51/51
f 41/41/41 51/51/51 42/42/42
f 42/42/42 51/51/51 43/43/43
f 43/43/43 51/51/51 52/52/52
f 43/43/43 52/52/52 53/53/53
f 43/43/43 53/53/53 44/44/44
f 44/44/44 53/53/53 45/45/45
f 45/45/45 53/53/53 54/54/54
f 46/46/46 55/55/55 47/47/47
f 47/47/47 55/55/55 56/56/56
f 47/47/47 56/56/56 57/57/57
f 47/47/47 57/57/57 48/48/48
f 48/48/48 57/57/57 49/49/49
f 49/49/49 57/57/57 58/58/58
f 49/49/49 58/58/58 59/59/59
f 49/49/49 59/59/59 50/50/50
f 50/50/50 59/59/59 51/51/51
f 51/51/51 59/59/59 60/60/60
f 51/51/51 60/60/60 61/61/61
f 51/51/51 61/61/61 52/52/52
f 52/52/52 61/61/61 53/53/53
f 53/53/53 61/61/61 62/62/62
f 53/53/53 62/62/62 63/63/63
f 53/53/53 63/63/63 54/54/54
f 55/55/55 64/64/64 65/65/65
f 55/55/55 65/65/65 56/56/56
f 56/56/56 65/65/65 57/57/57
f 57/57/57 65/65/65 66/66/66
f 57/57/57 66/66/66 67/67/67
f 57/57/57 67/67/67 58/58/58
f 58/58/58 67/67/67 59/59/59
f 59/59/59 67/67/67 68/68/68
f 59/59/59 68/68/68 69/69/69
f 59/59/59 69/69/69 60/60/60
f 60/60/60 69/69/69 61/61/61
f 61/61/61 69/69/69 70/70/70
f 61/61/61 70/70/70 71/71/71
f 61/61/61 71/71/71 62/62/62
f 62/62/62 71/71/71 63/63/63
f 63/63/63 71/71/71 72/72/72
f 64/64/64 73/73/73 65/65/65
f 65/65/65 73/73/73 74/74/74
f 65/65/65 74/74/74 75/75/75
f 65/65/65 75/75/75 66/66/66
f 66/66/66 75/75/75 67/67/67
f 67/67/67 75/75/75 76/76/76
f 67/67/67 76/76/76 77/77/77
f 67/67/67 77/77/77 68/68/68
f 68/68/68 77/77/77 69/69/69
f 69/69/69 77/77/77 78/78/78
f 69/69/69 78/78/78 79/79/79
f 69/69/69 79/79/79 70/70/70
f 70/70/70 79/79/79 71/71/71
f 71/71/71 79/79/79 80/80/80
f 71/71/71 80/80/80 81/81/81
f 71/71/71 81/81/81 72/72/72
