# Generated by tools/generate_island.py. Do not edit by hand.
o terrain_lod2_6_2

v 768.000 -9.862 256.000 0.422 0.389 0.224
v 768.000 -10.360 272.000 0.416 0.383 0.220
v 784.000 -10.559 272.000 0.411 0.378 0.217
v 784.000 -10.460 256.000 0.412 0.378 0.217
v 800.000 -10.800 256.000 0.445 0.412 0.239
v 800.000 -10.800 272.000 0.438 0.406 0.235
v 768.000 -9.915 288.000 0.431 0.398 0.230
v 784.000 -10.800 288.000 0.446 0.414 0.240
v 800.000 -10.800 288.000 0.476 0.444 0.259
v 768.000 -10.327 304.000 0.411 0.378 0.217
v 784.000 -10.800 304.000 0.471 0.439 0.256
v 768.000 -10.800 320.000 0.453 0.421 0.244

vt 0.900000 0.366667
vt 0.900000 0.358333
vt 0.908333 0.358333
vt 0.908333 0.366667
vt 0.916667 0.366667
vt 0.916667 0.358333
vt 0.900000 0.350000
vt 0.908333 0.350000
vt 0.916667 0.350000
vt 0.900000 0.341667
vt 0.908333 0.341667
vt 0.900000 0.333333

vn 0.02490 0.99952 0.01866
vn 0.01246 0.99992 0.00167
vn 0.02112 0.99976 0.00573
vn 0.02931 0.99955 0.00620
vn 0.01816 0.99983 0.00310
vn 0.01506 0.99989 0.00000
vn 0.03813 0.99927 0.00325
vn 0.03684 0.99927 0.01003
vn 0.00753 0.99994 0.00753
vn 0.02954 0.99918 0.02763
vn 0.03811 0.99910 0.01842
vn 0.02954 0.99913 0.02954

f 1/1/1 2/2/2 3/3/3
f 1/1/1 3/3/3 4/4/4
f 4/4/4 3/3/3 5/5/5
f 5/5/5 3/3/3 6/6/6
f 2/2/2 7/7/7 3/3/3
f 3/3/3 7/7/7 8/8/8
f 3/3/3 8/8/8 9/9/9
f 3/3/3 9/9/9 6/6/6
f 7/7/7 10/10/10 11/11/11
f 7/7/7 11/11/11 8/8/8
f 10/10/10 12/12/12 11/11/11
