# Generated by tools/generate_island.py. Do not edit by hand.
o terrain_lod1_-2_-6

v -136.000 -10.800 -728.000 0.488 0.457 0.267
v -144.000 -10.800 -720.000 0.475 0.444 0.259
v -136.000 -10.686 -720.000 0.460 0.428 0.249
v -128.000 -10.600 -720.000 0.473 0.442 0.258
v -128.000 -10.800 -728.000 0.468 0.436 0.254
v -152.000 -10.800 -712.000 0.451 0.419 0.243
v -144.000 -10.540 -712.000 0.462 0.430 0.250
v -136.000 -10.424 -712.000 0.475 0.444 0.259
v -128.000 -10.024 -712.000 0.481 0.450 0.263
v -184.000 -10.800 -712.000 0.467 0.435 0.254
v -192.000 -10.800 -704.000 0.448 0.416 0.241
v -184.000 -10.587 -704.000 0.462 0.431 0.251
v -176.000 -10.800 -704.000 0.479 0.447 0.261
v -168.000 -10.800 -712.000 0.464 0.433 0.252
v -168.000 -10.756 -704.000 0.475 0.443 0.259
v -160.000 -10.489 -704.000 0.459 0.427 0.248
v -160.000 -10.800 -712.000 0.463 0.432 0.251
v -152.000 -10.345 -704.000 0.431 0.398 0.230
v -144.000 -9.746 -704.000 0.454 0.422 0.245
v -136.000 -9.830 -704.000 0.449 0.417 0.242
v -128.000 -9.874 -704.000 0.455 0.424 0.246
v -240.000 -10.800 -704.000 0.467 0.436 0.254
v -248.000 -10.800 -696.000 0.492 0.461 0.270
v -240.000 -10.440 -696.000 0.481 0.450 0.263
v -232.000 -10.753 -696.000 0.481 0.450 0.263
v -232.000 -10.800 -704.000 0.442 0.410 0.237
v -224.000 -10.800 -704.000 0.448 0.416 0.241
v -224.000 -10.800 -696.000 0.499 0.468 0.275
v -208.000 -10.800 -704.000 0.443 0.411 0.238
v -208.000 -10.800 -696.000 0.459 0.427 0.248
v -200.000 -10.218 -696.000 0.454 0.422 0.245
v -200.000 -10.800 -704.000 0.457 0.425 0.247
v -192.000 -10.263 -696.000 0.434 0.401 0.232
v -184.000 -10.253 -696.000 0.470 0.438 0.255
v -176.000 -10.207 -696.000 0.480 0.449 0.262
v -168.000 -10.358 -696.000 0.456 0.424 0.246
v -160.000 -9.801 -696.000 0.433 0.400 0.231
v -152.000 -9.667 -696.000 0.423 0.390 0.225
v -144.000 -9.480 -696.000 0.421 0.388 0.223
v -136.000 -9.418 -696.000 0.436 0.403 0.233
v -128.000 -9.744 -696.000 0.434 0.401 0.232
v -256.000 -10.800 -696.000 0.498 0.467 0.274
v -256.000 -10.415 -688.000 0.514 0.484 0.285
v -248.000 -10.398 -688.000 0.510 0.480 0.282
v -240.000 -10.333 -688.000 0.509 0.479 0.282
v -232.000 -10.317 -688.000 0.501 0.470 0.276
v -224.000 -10.607 -688.000 0.508 0.477 0.280
v -216.000 -10.800 -696.000 0.486 0.454 0.266
v -216.000 -10.172 -688.000 0.491 0.460 0.269
v -208.000 -9.927 -688.000 0.463 0.432 0.251
v -200.000 -9.649 -688.000 0.454 0.422 0.245
v -192.000 -9.495 -688.000 0.455 0.423 0.246
v -184.000 -9.848 -688.000 0.440 0.407 0.236
v -176.000 -9.810 -688.000 0.441 0.408 0.236
v -168.000 -9.966 -688.000 0.444 0.411 0.238
v -160.000 -9.671 -688.000 0.441 0.409 0.237
v -152.000 -9.120 -688.000 0.447 0.414 0.240
v -144.000 -9.185 -688.000 0.472 0.440 0.257
v -136.000 -8.967 -688.000 0.471 0.440 0.257
v -128.000 -8.964 -688.000 0.457 0.425 0.247
v -256.000 -10.087 -680.000 0.512 0.482 0.284
v -248.000 -9.800 -680.000 0.524 0.494 0.291
v -240.000 -9.944 -680.000 0.531 0.502 0.296
v -232.000 -9.741 -680.000 0.514 0.484 0.285
v -224.000 -9.723 -680.000 0.503 0.473 0.278
v -216.000 -9.580 -680.000 0.484 0.453 0.265
v -208.000 -9.056 -680.000 0.473 0.441 0.257
v -200.000 -9.297 -680.000 0.463 0.432 0.251
v -192.000 -9.312 -680.000 0.448 0.416 0.241
v -184.000 -9.561 -680.000 0.404 0.370 0.212
v -176.000 -9.781 -680.000 0.389 0.355 0.202
v -168.000 -9.428 -680.000 0.413 0.380 0.218
v -160.000 -9.229 -680.000 0.436 0.404 0.233
v -152.000 -8.702 -680.000 0.470 0.439 0.256
v -144.000 -8.506 -680.000 0.498 0.467 0.274
v -136.000 -8.653 -680.000 0.505 0.475 0.279
v -128.000 -8.293 -680.000 0.490 0.459 0.269
v -256.000 -9.457 -672.000 0.505 0.475 0.279
v -248.000 -9.264 -672.000 0.546 0.517 0.306
v -240.000 -9.354 -672.000 0.556 0.527 0.312
v -232.000 -9.441 -672.000 0.529 0.500 0.295
v -224.000 -9.121 -672.000 0.532 0.503 0.297
v -216.000 -9.080 -672.000 0.521 0.491 0.289
v -208.000 -8.661 -672.000 0.470 0.439 0.256
v -200.000 -8.776 -672.000 0.457 0.425 0.247
v -192.000 -9.163 -672.000 0.443 0.410 0.238
v -184.000 -8.942 -672.000 0.372 0.338 0.191
v -176.000 -9.202 -672.000 0.361 0.326 0.184
v -168.000 -8.848 -672.000 0.361 0.326 0.184
v -160.000 -8.606 -672.000 0.425 0.392 0.226
v -152.000 -8.598 -672.000 0.475 0.444 0.259
v -144.000 -8.197 -672.000 0.522 0.493 0.290
v -136.000 -8.402 -672.000 0.556 0.527 0.312
v -128.000 -7.963 -672.000 0.581 0.553 0.329
v -256.000 -8.892 -664.000 0.517 0.486 0.286
v -248.000 -9.131 -664.000 0.541 0.512 0.303
v -240.000 -9.028 -664.000 0.538 0.508 0.300
v -232.000 -9.270 -664.000 0.538 0.509 0.300
v -224.000 -8.828 -664.000 0.534 0.505 0.298
v -216.000 -8.330 -664.000 0.523 0.493 0.291
v -208.000 -8.279 -664.000 0.482 0.451 0.263
v -200.000 -8.175 -664.000 0.457 0.425 0.247
v -192.000 -8.637 -664.000 0.420 0.387 0.223
v -184.000 -8.686 -664.000 0.361 0.326 0.184
v -176.000 -8.547 -664.000 0.361 0.326 0.184
v -168.000 -8.550 -664.000 0.361 0.326 0.184
v -160.000 -8.158 -664.000 0.414 0.380 0.218
v -152.000 -8.343 -664.000 0.467 0.436 0.254
v -144.000 -8.157 -664.000 0.530 0.500 0.295
v -136.000 -7.809 -664.000 0.562 0.533 0.316
v -128.000 -7.446 -664.000 0.577 0.548 0.326
v -256.000 -8.706 -656.000 0.538 0.508 0.300
v -248.000 -8.811 -656.000 0.511 0.481 0.283
v -240.000 -8.756 -656.000 0.517 0.486 0.286
v -232.000 -8.396 -656.000 0.510 0.480 0.282
v -224.000 -8.163 -656.000 0.514 0.484 0.284
v -216.000 -7.703 -656.000 0.505 0.475 0.279
v -208.000 -7.940 -656.000 0.488 0.457 0.267
v -200.000 -8.161 -656.000 0.447 0.415 0.241
v -192.000 -8.212 -656.000 0.402 0.368 0.211
v -184.000 -8.404 -656.000 0.382 0.348 0.198
v -176.000 -7.898 -656.000 0.364 0.329 0.186
v -168.000 -7.782 -656.000 0.384 0.350 0.199
v -160.000 -7.763 -656.000 0.414 0.381 0.219
v -152.000 -7.628 -656.000 0.459 0.428 0.249
v -144.000 -7.764 -656.000 0.519 0.489 0.288
v -136.000 -7.210 -656.000 0.538 0.508 0.300
v -128.000 -6.906 -656.000 0.544 0.514 0.304
v -256.000 -8.461 -648.000 0.536 0.507 0.299
v -248.000 -8.265 -648.000 0.514 0.484 0.285
v -240.000 -8.371 -648.000 0.522 0.492 0.290
v -232.000 -7.858 -648.000 0.528 0.498 0.294
v -224.000 -7.626 -648.000 0.505 0.474 0.278
v -216.000 -7.583 -648.000 0.489 0.458 0.268
v -208.000 -7.675 -648.000 0.486 0.455 0.266
v -200.000 -8.049 -648.000 0.482 0.450 0.263
v -192.000 -7.700 -648.000 0.455 0.423 0.245
v -184.000 -7.452 -648.000 0.435 0.403 0.233
v -176.000 -7.204 -648.000 0.419 0.386 0.222
v -168.000 -6.866 -648.000 0.401 0.367 0.210
v -160.000 -7.341 -648.000 0.443 0.411 0.238
v -152.000 -7.362 -648.000 0.471 0.439 0.256
v -144.000 -7.230 -648.000 0.480 0.449 0.263
v -136.000 -7.100 -648.000 0.486 0.455 0.266
v -128.000 -6.509 -648.000 0.508 0.478 0.281
v -256.000 -8.333 -640.000 0.504 0.473 0.278
v -248.000 -8.089 -640.000 0.492 0.461 0.270
v -240.000 -7.949 -640.000 0.510 0.480 0.282
v -232.000 -7.650 -640.000 0.519 0.489 0.288
v -224.000 -7.070 -640.000 0.499 0.469 0.275
v -216.000 -7.268 -640.000 0.487 0.456 0.267
v -208.000 -7.274 -640.000 0.497 0.466 0.273
v -200.000 -7.297 -640.000 0.488 0.457 0.267
v -192.000 -7.209 -640.000 0.465 0.433 0.252
v -184.000 -6.778 -640.000 0.453 0.421 0.244
v -176.000 -6.898 -640.000 0.455 0.423 0.246
v -168.000 -6.840 -640.000 0.435 0.402 0.233
v -160.000 -7.045 -640.000 0.448 0.416 0.241
v -152.000 -7.209 -640.000 0.474 0.443 0.258
v -144.000 -6.628 -640.000 0.464 0.433 0.252
v -136.000 -6.487 -640.000 0.464 0.433 0.252
v -128.000 -6.017 -640.000 0.487 0.456 0.267

vt 0.429167 0.879167
vt 0.425000 0.875000
vt 0.429167 0.875000
vt 0.433333 0.875000
vt 0.433333 0.879167
vt 0.420833 0.870833
vt 0.425000 0.870833
vt 0.429167 0.870833
vt 0.433333 0.870833
vt 0.404167 0.870833
vt 0.400000 0.866667
vt 0.404167 0.866667
vt 0.408333 0.866667
vt 0.412500 0.870833
vt 0.412500 0.866667
vt 0.416667 0.866667
vt 0.416667 0.870833
vt 0.420833 0.866667
vt 0.425000 0.866667
vt 0.429167 0.866667
vt 0.433333 0.866667
vt 0.375000 0.866667
vt 0.370833 0.862500
vt 0.375000 0.862500
vt 0.379167 0.862500
vt 0.379167 0.866667
vt 0.383333 0.866667
vt 0.383333 0.862500
vt 0.391667 0.866667
vt 0.391667 0.862500
vt 0.395833 0.862500
vt 0.395833 0.866667
vt 0.400000 0.862500
vt 0.404167 0.862500
vt 0.408333 0.862500
vt 0.412500 0.862500
vt 0.416667 0.862500
vt 0.420833 0.862500
vt 0.425000 0.862500
vt 0.429167 0.862500
vt 0.433333 0.862500
vt 0.366667 0.862500
vt 0.366667 0.858333
vt 0.370833 0.858333
vt 0.375000 0.858333
vt 0.379167 0.858333
vt 0.383333 0.858333
vt 0.387500 0.862500
vt 0.387500 0.858333
vt 0.391667 0.858333
vt 0.395833 0.858333
vt 0.400000 0.858333
vt 0.404167 0.858333
vt 0.408333 0.858333
vt 0.412500 0.858333
vt 0.416667 0.858333
vt 0.420833 0.858333
vt 0.425000 0.858333
vt 0.429167 0.858333
vt 0.433333 0.858333
vt 0.366667 0.854167
vt 0.370833 0.854167
vt 0.375000 0.854167
vt 0.379167 0.854167
vt 0.383333 0.854167
vt 0.387500 0.854167
vt 0.391667 0.854167
vt 0.395833 0.854167
vt 0.400000 0.854167
vt 0.404167 0.854167
vt 0.408333 0.854167
vt 0.412500 0.854167
vt 0.416667 0.854167
vt 0.420833 0.854167
vt 0.425000 0.854167
vt 0.429167 0.854167
vt 0.433333 0.854167
vt 0.366667 0.850000
vt 0.370833 0.850000
vt 0.375000 0.850000
vt 0.379167 0.850000
vt 0.383333 0.850000
vt 0.387500 0.850000
vt 0.391667 0.850000
vt 0.395833 0.850000
vt 0.400000 0.850000
vt 0.404167 0.850000
vt 0.408333 0.850000
vt 0.412500 0.850000
vt 0.416667 0.850000
vt 0.420833 0.850000
vt 0.425000 0.850000
vt 0.429167 0.850000
vt 0.433333 0.850000
vt 0.366667 0.845833
vt 0.370833 0.845833
vt 0.375000 0.845833
vt 0.379167 0.845833
vt 0.383333 0.845833
vt 0.387500 0.845833
vt 0.391667 0.845833
vt 0.395833 0.845833
vt 0.400000 0.845833
vt 0.404167 0.845833
vt 0.408333 0.845833
vt 0.412500 0.845833
vt 0.416667 0.845833
vt 0.420833 0.845833
vt 0.425000 0.845833
vt 0.429167 0.845833
vt 0.433333 0.845833
vt 0.366667 0.841667
vt 0.370833 0.841667
vt 0.375000 0.841667
vt 0.379167 0.841667
vt 0.383333 0.841667
vt 0.387500 0.841667
vt 0.391667 0.841667
vt 0.395833 0.841667
vt 0.400000 0.841667
vt 0.404167 0.841667
vt 0.408333 0.841667
vt 0.412500 0.841667
vt 0.416667 0.841667
vt 0.420833 0.841667
vt 0.425000 0.841667
vt 0.429167 0.841667
vt 0.433333 0.841667
vt 0.366667 0.837500
vt 0.370833 0.837500
vt 0.375000 0.837500
vt 0.379167 0.837500
vt 0.383333 0.837500
vt 0.387500 0.837500
vt 0.391667 0.837500
vt 0.395833 0.837500
vt 0.400000 0.837500
vt 0.404167 0.837500
vt 0.408333 0.837500
vt 0.412500 0.837500
vt 0.416667 0.837500
vt 0.420833 0.837500
vt 0.425000 0.837500
vt 0.429167 0.837500
vt 0.433333 0.837500
vt 0.366667 0.833333
vt 0.370833 0.833333
vt 0.375000 0.833333
vt 0.379167 0.833333
vt 0.383333 0.833333
vt 0.387500 0.833333
vt 0.391667 0.833333
vt 0.395833 0.833333
vt 0.400000 0.833333
vt 0.404167 0.833333
vt 0.408333 0.833333
vt 0.412500 0.833333
vt 0.416667 0.833333
vt 0.420833 0.833333
vt 0.425000 0.833333
vt 0.429167 0.833333
vt 0.433333 0.833333

vn -0.00834 0.99981 -0.01784
vn -0.01887 0.99943 -0.02797
vn -0.01251 0.99965 -0.02349
vn -0.01789 0.99919 -0.03598
vn 0.00000 0.99969 -0.02503
vn -0.03150 0.99789 -0.05674
vn -0.02344 0.99756 -0.06569
vn -0.01725 0.99837 -0.05447
vn -0.04992 0.99773 -0.04525
vn 0.00000 0.99964 -0.02667
vn -0.00977 0.99844 -0.05499
vn 0.00000 0.99942 -0.03415
vn 0.00922 0.99893 -0.04527
vn -0.01294 0.99978 -0.01661
vn -0.01940 0.99943 -0.02763
vn -0.02360 0.99817 -0.05573
vn 0.00000 0.99925 -0.03879
vn -0.04628 0.99643 -0.07056
vn -0.02580 0.99746 -0.06639
vn 0.00797 0.99800 -0.06274
vn 0.00046 0.99919 -0.04014
vn -0.00197 0.99949 -0.03192
vn -0.02000 0.99894 -0.04135
vn -0.00296 0.99957 -0.02917
vn 0.01551 0.99956 -0.02541
vn 0.00000 0.99998 -0.00593
vn 0.00296 0.99999 -0.00296
vn 0.00395 0.99986 -0.01610
vn -0.03633 0.99868 -0.03633
vn -0.04832 0.99620 -0.07245
vn -0.02348 0.99728 -0.06980
vn 0.00000 0.99736 -0.07257
vn 0.00221 0.99669 -0.08131
vn 0.00317 0.99826 -0.05882
vn 0.00651 0.99807 -0.06173
vn -0.01968 0.99841 -0.05286
vn -0.04307 0.99777 -0.05106
vn -0.02917 0.99779 -0.05970
vn -0.01555 0.99927 -0.03503
vn 0.00679 0.99873 -0.04987
vn 0.04066 0.99756 -0.05674
vn 0.00000 0.99884 -0.04812
vn -0.00998 0.99852 -0.05343
vn -0.00509 0.99804 -0.06235
vn -0.00422 0.99889 -0.04687
vn 0.01707 0.99786 -0.06310
vn -0.00626 0.99764 -0.06836
vn -0.02117 0.99716 -0.07233
vn -0.04231 0.99621 -0.07598
vn -0.02973 0.99571 -0.08759
vn -0.02698 0.99798 -0.05744
vn 0.01089 0.99844 -0.05484
vn 0.01970 0.99887 -0.04322
vn 0.00322 0.99925 -0.03863
vn -0.00872 0.99828 -0.05803
vn -0.04845 0.99770 -0.04738
vn -0.03026 0.99773 -0.06015
vn -0.00942 0.99831 -0.05736
vn -0.01381 0.99876 -0.04777
vn -0.00123 0.99761 -0.06909
vn -0.03578 0.99758 -0.05968
vn -0.00734 0.99782 -0.06557
vn -0.00372 0.99813 -0.06106
vn -0.00626 0.99782 -0.06572
vn -0.01002 0.99567 -0.09244
vn -0.03853 0.99630 -0.07685
vn -0.01761 0.99673 -0.07887
vn 0.00907 0.99860 -0.05218
vn 0.01650 0.99965 -0.02076
vn 0.02018 0.99887 -0.04299
vn -0.00833 0.99924 -0.03800
vn -0.02868 0.99773 -0.06096
vn -0.04518 0.99677 -0.06634
vn -0.03649 0.99816 -0.04832
vn -0.00310 0.99809 -0.06166
vn -0.01373 0.99872 -0.04868
vn -0.04478 0.99705 -0.06236
vn -0.01361 0.99821 -0.05817
vn -0.00644 0.99910 -0.04182
vn 0.00679 0.99890 -0.04642
vn -0.01455 0.99946 -0.02940
vn -0.02843 0.99810 -0.05474
vn -0.02866 0.99656 -0.07782
vn -0.01631 0.99799 -0.06122
vn 0.03124 0.99706 -0.06994
vn 0.01726 0.99849 -0.05221
vn 0.00245 0.99850 -0.05462
vn -0.00714 0.99781 -0.06581
vn -0.03718 0.99781 -0.05476
vn -0.02234 0.99836 -0.05272
vn -0.02554 0.99942 -0.02246
vn -0.01521 0.99944 -0.02969
vn -0.01458 0.99851 -0.05264
vn -0.04989 0.99736 -0.05272
vn 0.02975 0.99846 -0.04691
vn 0.00340 0.99937 -0.03521
vn 0.00871 0.99926 -0.03739
vn -0.01909 0.99820 -0.05687
vn -0.05853 0.99650 -0.05968
vn -0.02778 0.99722 -0.06909
vn -0.00971 0.99894 -0.04502
vn 0.02326 0.99870 -0.04528
vn 0.03187 0.99773 -0.05930
vn -0.00710 0.99862 -0.05195
vn -0.00849 0.99666 -0.08120
vn -0.02352 0.99750 -0.06666
vn -0.01290 0.99853 -0.05259
vn -0.00640 0.99872 -0.05016
vn -0.03333 0.99908 -0.02705
vn -0.03918 0.99741 -0.06038
vn -0.04531 0.99680 -0.06589
vn 0.00793 0.99915 -0.04049
vn 0.00312 0.99854 -0.05402
vn -0.01713 0.99828 -0.05603
vn -0.03687 0.99545 -0.08789
vn -0.04052 0.99665 -0.07108
vn -0.01393 0.99881 -0.04669
vn 0.01918 0.99929 -0.03249
vn 0.01697 0.99983 -0.00787
vn 0.00625 0.99871 -0.05047
vn -0.01952 0.99685 -0.07685
vn -0.03060 0.99572 -0.08716
vn -0.00841 0.99447 -0.10466
vn -0.00029 0.99775 -0.06702
vn 0.00005 0.99813 -0.06118
vn -0.02545 0.99815 -0.05526
vn -0.05350 0.99759 -0.04421
vn -0.04874 0.99749 -0.05129
vn -0.02448 0.99943 -0.02326
vn -0.00804 0.99913 -0.04096
vn -0.02544 0.99841 -0.05034
vn -0.04614 0.99753 -0.05288
vn -0.01715 0.99753 -0.06817
vn 0.00123 0.99916 -0.04104
vn 0.02911 0.99871 -0.04156
vn 0.00400 0.99859 -0.05301
vn -0.03718 0.99735 -0.06248
vn -0.02516 0.99633 -0.08181
vn -0.03657 0.99738 -0.06234
vn 0.00444 0.99841 -0.05619
vn 0.03098 0.99852 -0.04480
vn -0.00995 0.99907 -0.04201
vn -0.01634 0.99736 -0.07078
vn -0.04537 0.99750 -0.05410
vn -0.07355 0.99576 -0.05529
vn -0.02749 0.99944 -0.01899
vn -0.02401 0.99947 -0.02199
vn -0.02643 0.99892 -0.03831
vn -0.05484 0.99816 -0.02589
vn -0.02051 0.99849 -0.05103
vn 0.01277 0.99915 -0.03931
vn 0.01545 0.99818 -0.05829
vn -0.00404 0.99560 -0.09361
vn -0.03473 0.99658 -0.07499
vn -0.01937 0.99628 -0.08399
vn -0.01637 0.99903 -0.04095
vn 0.00918 0.99995 -0.00320
vn 0.02703 0.99935 -0.02404
vn -0.02603 0.99948 -0.01910
vn -0.03070 0.99764 -0.06141
vn -0.03805 0.99635 -0.07641
vn -0.06597 0.99545 -0.06878

f 1/1/1 2/2/2 3/3/3
f 1/1/1 3/3/3 4/4/4
f 1/1/1 4/4/4 5/5/5
f 2/2/2 6/6/6 7/7/7
f 2/2/2 7/7/7 8/8/8
f 2/2/2 8/8/8 3/3/3
f 3/3/3 8/8/8 4/4/4
f 4/4/4 8/8/8 9/9/9
f 10/10/10 11/11/11 12/12/12
f 10/10/10 12/12/12 13/13/13
f 14/14/14 13/13/13 15/15/15
f 14/14/14 15/15/15 16/16/16
f 14/14/14 16/16/16 17/17/17
f 17/17/17 16/16/16 6/6/6
f 6/6/6 16/16/16 18/18/18
f 6/6/6 18/18/18 19/19/19
f 6/6/6 19/19/19 7/7/7
f 7/7/7 19/19/19 8/8/8
f 8/8/8 19/19/19 20/20/20
f 8/8/8 20/20/20 21/21/21
f 8/8/8 21/21/21 9/9/9
f 22/22/22 23/23/23 24/24/24
f 22/22/22 24/24/24 25/25/25
f 22/22/22 25/25/25 26/26/26
f 26/26/26 25/25/25 27/27/27
f 27/27/27 25/25/25 28/28/28
f 29/29/29 30/30/30 31/31/31
f 29/29/29 31/31/31 32/32/32
f 32/32/32 31/31/31 11/11/11
f 11/11/11 31/31/31 33/33/33
f 11/11/11 33/33/33 34/34/34
f 11/11/11 34/34/34 12/12/12
f 12/12/12 34/34/34 13/13/13
f 13/13/13 34/34/34 35/35/35
f 13/13/13 35/35/35 36/36/36
f 13/13/13 36/36/36 15/15/15
f 15/15/15 36/36/36 16/16/16
f 16/16/16 36/36/36 37/37/37
f 16/16/16 37/37/37 38/38/38
f 16/16/16 38/38/38 18/18/18
f 18/18/18 38/38/38 19/19/19
f 19/19/19 38/38/38 39/39/39
f 19/19/19 39/39/39 40/40/40
f 19/19/19 40/40/40 20/20/20
f 20/20/20 40/40/40 21/21/21
f 21/21/21 40/40/40 41/41/41
f 42/42/42 43/43/43 23/23/23
f 23/23/23 43/43/43 44/44/44
f 23/23/23 44/44/44 45/45/45
f 23/23/23 45/45/45 24/24/24
f 24/24/24 45/45/45 25/25/25
f 25/25/25 45/45/45 46/46/46
f 25/25/25 46/46/46 47/47/47
f 25/25/25 47/47/47 28/28/28
f 28/28/28 47/47/47 48/48/48
f 48/48/48 47/47/47 49/49/49
f 48/48/48 49/49/49 50/50/50
f 48/48/48 50/50/50 30/30/30
f 30/30/30 50/50/50 31/31/31
f 31/31/31 50/50/50 51/51/51
f 31/31/31 51/51/51 52/52/52
f 31/31/31 52/52/52 33/33/33
f 33/33/33 52/52/52 34/34/34
f 34/34/34 52/52/52 53/53/53
f 34/34/34 53/53/53 54/54/54
f 34/34/34 54/54/54 35/35/35
f 35/35/35 54/54/54 36/36/36
f 36/36/36 54/54/54 55/55/55
f 36/36/36 55/55/55 56/56/56
f 36/36/36 56/56/56 37/37/37
f 37/37/37 56/56/56 38/38/38
f 38/38/38 56/56/56 57/57/57
f 38/38/38 57/57/57 58/58/58
f 38/38/38 58/58/58 39/39/39
f 39/39/39 58/58/58 40/40/40
f 40/40/40 58/58/58 59/59/59
f 40/40/40 59/59/59 60/60/60
f 40/40/40 60/60/60 41/41/41
f 43/43/43 61/61/61 62/62/62
f 43/43/43 62/62/62 44/44/44
f 44/44/44 62/62/62 45/45/45
f 45/45/45 62/62/62 63/63/63
f 45/45/45 63/63/63 64/64/64
f 45/45/45 64/64/64 46/46/46
f 46/46/46 64/64/64 47/47/47
f 47/47/47 64/64/64 65/65/65
f 47/47/47 65/65/65 66/66/66
f 47/47/47 66/66/66 49/49/49
f 49/49/49 66/66/66 50/50/50
f 50/50/50 66/66/66 67/67/67
f 50/50/50 67/67/67 68/68/68
f 50/50/50 68/68/68 51/51/51
f 51/51/51 68/68/68 52/52/52
f 52/52/52 68/68/68 69/69/69
f 52/52/52 69/69/69 70/70/70
f 52/52/52 70/70/70 53/53/53
f 53/53/53 70/70/70 54/54/54
f 54/54/54 70/70/70 71/71/71
f 54/54/54 71/71/71 72/72/72
f 54/54/54 72/72/72 55/55/55
f 55/55/55 72/72/72 56/56/56
f 56/56/56 72/72/72 73/73/73
f 56/56/56 73/73/73 74/74/74
f 56/56/56 74/74/74 57/57/57
f 57/57/57 74/74/74 58/58/58
f 58/58/58 74/74/74 75/75/75
f 58/58/58 75/75/75 76/76/76
f 58/58/58 76/76/76 59/59/59
f 59/59/59 76/76/76 60/60/60
f 60/60/60 76/76/76 77/77/77
f 61/61/61 78/78/78 62/62/62
f 62/62/62 78/78/78 79/79/79
f 62/62/62 79/79/79 80/80/80
f 62/62/62 80/80/80 63/63/63
f 63/63/63 80/80/80 64/64/64
f 64/64/64 80/80/80 81/81/81
f 64/64/64 81/81/81 82/82/82
f 64/64/64 82/82/82 65/65/65
f 65/65/65 82/82/82 66/66/66
f 66/66/66 82/82/82 83/83/83
f 66/66/66 83/83/83 84/84/84
f 66/66/66 84/84/84 67/67/67
f 67/67/67 84/84/84 68/68/68
f 68/68/68 84/84/84 85/85/85
f 68/68/68 85/85/85 86/86/86
f 68/68/68 86/86/86 69/69/69
f 69/69/69 86/86/86 70/70/70
f 70/70/70 86/86/86 87/87/87
f 70/70/70 87/87/87 88/88/88
f 70/70/70 88/88/88 71/71/71
f 71/71/71 88/88/88 72/72/72
f 72/72/72 88/88/88 89/89/89
f 72/72/72 89/89/89 90/90/90
f 72/72/72 90/90/90 73/73/73
f 73/73/73 90/90/90 74/74/74
f 74/74/74 90/90/90 91/91/91
f 74/74/74 91/91/91 92/92/92
f 74/74/74 92/92/92 75/75/75
f 75/75/75 92/92/92 76/76/76
f 76/76/76 92/92/92 93/93/93
f 76/76/76 93/93/93 94/94/94
f 76/76/76 94/94/94 77/77/77
f 78/78/78 95/95/95 96/96/96
f 78/78/78 96/96/96 79/79/79
f 79/79/79 96/96/96 80/80/80
f 80/80/80 96/96/96 97/97/97
f 80/80/80 97/97/97 98/98/98
f 80/80/80 98/98/98 81/81/81
f 81/81/81 98/98/98 82/82/82
f 82/82/82 98/98/98 99/99/99
f 82/82/82 99/99/99 100/100/100
f 82/82/82 100/100/100 83/83/83
f 83/83/83 100/100/100 84/84/84
f 84/84/84 100/100/100 101/101/101
f 84/84/84 101/101/101 102/102/102
f 84/84/84 102/102/102 85/85/85
f 85/85/85 102/102/102 86/86/86
f 86/86/86 102/102/102 103/103/103
f 86/86/86 103/103/103 104/104/104
f 86/86/86 104/104/104 87/87/87
f 87/87/87 104/104/104 88/88/88
f 88/88/88 104/104/104 105/105/105
f 88/88/88 105/105/105 106/106/106
f 88/88/88 106/106/106 89/89/89
f 89/89/89 106/106/106 90/90/90
f 90/90/90 106/106/106 107/107/107
f 90/90/90 107/107/107 108/108/108
f 90/90/90 108/108/108 91/91/91
f 91/91/91 108/108/108 92/92/92
f 92/92/92 108/108/108 109/109/109
f 92/92/92 109/109/109 110/110/110
f 92/92/92 110/110/110 93/93/93
f 93/93/93 110/110/110 94/94/94
f 94/94/94 110/110/110 111/111/111
f 95/95/95 112/112/112 96/96/96
f 96/96/96 112/112/112 113/113/113
f 96/96/96 113/113/113 114/114/114
f 96/96/96 114/114/114 97/97/97
f 97/97/97 114/114/114 98/98/98
f 98/98/98 114/114/114 115/115/115
f 98/98/98 115/115/115 116/116/116
f 98/98/98 116/116/116 99/99/99
f 99/99/99 116/116/116 100/100/100
f 100/100/100 116/116/116 117/117/117
f 100/100/100 117/117/117 118/118/118
f 100/100/100 118/118/118 101/101/101
f 101/101/101 118/118/118 102/102/102
f 102/102/102 118/118/118 119/119/119
f 102/102/102 119/119/119 120/120/120
f 102/102/102 120/120/120 103/103/103
f 103/103/103 120/120/120 104/104/104
f 104/104/104 120/120/120 121/121/121
f 104/104/104 121/121/121 122/122/122
f 104/104/104 122/122/122 105/105/105
f 105/105/105 122/122/122 106/106/106
f 106/106/106 122/122/122 123/123/123
f 106/106/106 123/123/123 124/124/124
f 106/106/106 124/124/124 107/107/107
f 107/107/107 124/124/124 108/108/108
f 108/108/108 124/124/124 125/125/125
f 108/108/108 125/125/125 126/126/126
f 108/108/108 126/126/126 109/109/109
f 109/109/109 126/126/126 110/110/110
f 110/110/110 126/126/126 127/127/127
f 110/110/110 127/127/127 128/128/128
f 110/110/110 128/128/128 111/111/111
f 112/112/112 129/129/129 130/130/130
f 112/112/112 130/130/130 113/113/113
f 113/113/113 130/130/130 114/114/114
f 114/114/114 130/130/130 131/131/131
f 114/114/114 131/131/131 132/132/132
f 114/114/114 132/132/132 115/115/115
f 115/115/115 132/132/132 116/116/116
f 116/116/116 132/132/132 133/133/133
f 116/116/116 133/133/133 134/134/134
f 116/116/116 134/134/134 117/117/117
f 117/117/117 134/134/134 118/118/118
f 118/118/118 134/134/134 135/135/135
f 118/118/118 135/135/135 136/136/136
f 118/118/118 136/136/136 119/119/119
f 119/119/119 136/136/136 120/120/120
f 120/120/120 136/136/136 137/137/137
f 120/120/120 137/137/137 138/138/138
f 120/120/120 138/138/138 121/121/121
f 121/121/121 138/138/138 122/122/122
f 122/122/122 138/138/138 139/139/139
f 122/122/122 139/139/139 140/140/140
f 122/122/122 140/140/140 123/123/123
f 123/123/123 140/140/140 124/124/124
f 124/124/124 140/140/140 141/141/141
f 124/124/124 141/141/141 142/142/142
f 124/124/124 142/142/142 125/125/125
f 125/125/125 142/142/142 126/126/126
f 126/126/126 142/142/142 143/143/143
f 126/126/126 143/143/143 144/144/144
f 126/126/126 144/144/144 127/127/127
f 127/127/127 144/144/144 128/128/128
f 128/128/128 144/144/144 145/145/145
f 129/129/129 146/146/146 130/130/130
f 130/130/130 146/146/146 147/147/147
f 130/130/130 147/147/147 148/148/148
f 130/130/130 148/148/148 131/131/131
f 131/131/131 148/148/148 132/132/132
f 132/132/132 148/148/148 149/149/149
f 132/132/132 149/149/149 150/150/150
f 132/132/132 150/150/150 133/133/133
f 133/133/133 150/150/150 134/134/134
f 134/134/134 150/150/150 151/151/151
f 134/134/134 151/151/151 152/152/152
f 134/134/134 152/152/152 135/135/135
f 135/135/135 152/152/152 136/136/136
f 136/136/136 152/152/152 153/153/153
f 136/136/136 153/153/153 154/154/154
f 136/136/136 154/154/154 137/137/137
f 137/137/137 154/154/154 138/138/138
f 138/138/138 154/154/154 155/155/155
f 138/138/138 155/155/155 156/156/156
f 138/138/138 156/156/156 139/139/139
f 139/139/139 156/156/156 140/140/140
f 140/140/140 156/156/156 157/157/157
f 140/140/140 157/157/157 158/158/158
f 140/140/140 158/158/158 141/141/141
f 141/141/141 158/158/158 142/142/142
f 142/142/142 158/158/158 159/159/159
f 142/142/142 159/159/159 160/160/160
f 142/142/142 160/160/160 143/143/143
f 143/143/143 160/160/160 144/144/144
f 144/144/144 160/160/160 161/161/161
f 144/144/144 161/161/161 162/162/162
f 144/144/144 162/162/162 145/145/145
