# Generated by tools/generate_island.py. Do not edit by hand.
o terrain_lod2_-4_2

v -240.000 -8.000 128.000 0.370 0.335 0.190
v -240.000 -8.000 136.000 0.412 0.379 0.218
v -232.000 -8.000 136.000 0.401 0.368 0.210
v -232.000 -8.000 128.000 0.363 0.328 0.185
v -224.000 -8.000 128.000 0.393 0.359 0.205
v -224.000 -8.000 136.000 0.416 0.383 0.220
v -216.000 -8.000 136.000 0.435 0.402 0.233
v -216.000 -8.000 128.000 0.421 0.388 0.224
v -208.000 -8.000 128.000 0.442 0.409 0.237
v -208.000 -8.000 136.000 0.435 0.402 0.233
v -200.000 -8.000 136.000 0.481 0.450 0.263
v -200.000 -8.000 128.000 0.466 0.434 0.253
v -192.000 -8.000 128.000 0.504 0.474 0.278
v -192.000 -8.000 136.000 0.483 0.452 0.264
v -240.000 -8.000 144.000 0.465 0.433 0.252
v -232.000 -8.000 144.000 0.461 0.429 0.250
v -224.000 -8.000 144.000 0.439 0.407 0.235
v -216.000 -8.000 144.000 0.457 0.425 0.247
v -208.000 -8.000 144.000 0.455 0.423 0.246
v -200.000 -8.000 144.000 0.461 0.429 0.250
v -192.000 -8.000 144.000 0.460 0.428 0.249
v -240.000 -8.000 152.000 0.522 0.492 0.290
v -232.000 -8.000 152.000 0.518 0.488 0.287
v -224.000 -8.000 152.000 0.505 0.474 0.279
v -216.000 -8.000 152.000 0.486 0.455 0.266
v -208.000 -8.000 152.000 0.469 0.438 0.255
v -200.000 -8.000 152.000 0.435 0.403 0.233
v -192.000 -8.000 152.000 0.422 0.389 0.224
v -240.000 -8.000 160.000 0.573 0.544 0.323
v -232.000 -8.000 160.000 0.577 0.548 0.326
v -224.000 -8.000 160.000 0.563 0.534 0.317
v -216.000 -8.000 160.000 0.521 0.491 0.289
v -208.000 -8.000 160.000 0.472 0.441 0.257
v -200.000 -8.000 160.000 0.409 0.376 0.216
v -192.000 -8.000 160.000 0.380 0.346 0.196
v -240.000 -8.000 168.000 0.585 0.557 0.331
v -232.000 -8.000 168.000 0.585 0.557 0.331
v -224.000 -8.000 168.000 0.581 0.553 0.329
v -216.000 -8.000 168.000 0.535 0.506 0.299
v -208.000 -8.000 168.000 0.473 0.442 0.258
v -200.000 -8.000 168.000 0.404 0.370 0.212
v -192.000 -8.000 168.000 0.373 0.339 0.192
v -240.000 -8.000 176.000 0.585 0.557 0.331
v -232.000 -8.000 176.000 0.585 0.557 0.331
v -224.000 -8.000 176.000 0.585 0.557 0.331
v -216.000 -8.000 176.000 0.544 0.515 0.304
v -208.000 -8.000 176.000 0.479 0.447 0.261
v -200.000 -8.000 176.000 0.430 0.397 0.229
v -192.000 -8.000 176.000 0.396 0.362 0.207
v -240.000 -8.000 184.000 0.585 0.557 0.331
v -232.000 -8.000 184.000 0.585 0.557 0.331
v -224.000 -8.000 184.000 0.578 0.550 0.327
v -216.000 -8.000 184.000 0.525 0.495 0.292
v -208.000 -8.000 184.000 0.471 0.440 0.256
v -200.000 -8.000 184.000 0.440 0.408 0.236
v -192.000 -8.000 184.000 0.413 0.380 0.218
v -240.000 -8.000 192.000 0.580 0.552 0.328
v -232.000 -8.000 192.000 0.585 0.557 0.331
v -224.000 -8.000 192.000 0.577 0.549 0.326
v -216.000 -8.000 192.000 0.522 0.492 0.290
v -208.000 -8.000 192.000 0.476 0.445 0.260
v -200.000 -8.000 192.000 0.452 0.420 0.244
v -192.000 -8.000 192.000 0.433 0.401 0.231

vt 0.000000 0.233333
vt 0.000000 0.216667
vt 0.016667 0.216667
vt 0.016667 0.233333
vt 0.033333 0.233333
vt 0.033333 0.216667
vt 0.050000 0.216667
vt 0.050000 0.233333
vt 0.066667 0.233333
vt 0.066667 0.216667
vt 0.083333 0.216667
vt 0.083333 0.233333
vt 0.100000 0.233333
vt 0.100000 0.216667
vt 0.000000 0.200000
vt 0.016667 0.200000
vt 0.033333 0.200000
vt 0.050000 0.200000
vt 0.066667 0.200000
vt 0.083333 0.200000
vt 0.100000 0.200000
vt 0.000000 0.183333
vt 0.016667 0.183333
vt 0.033333 0.183333
vt 0.050000 0.183333
vt 0.066667 0.183333
vt 0.083333 0.183333
vt 0.100000 0.183333
vt 0.000000 0.166667
vt 0.016667 0.166667
vt 0.033333 0.166667
vt 0.050000 0.166667
vt 0.066667 0.166667
vt 0.083333 0.166667
vt 0.100000 0.166667
vt 0.000000 0.150000
vt 0.016667 0.150000
vt 0.033333 0.150000
vt 0.050000 0.150000
vt 0.066667 0.150000
vt 0.083333 0.150000
vt 0.100000 0.150000
vt 0.000000 0.133333
vt 0.016667 0.133333
vt 0.033333 0.133333
vt 0.050000 0.133333
vt 0.066667 0.133333
vt 0.083333 0.133333
vt 0.100000 0.133333
vt 0.000000 0.116667
vt 0.016667 0.116667
vt 0.033333 0.116667
vt 0.050000 0.116667
vt 0.066667 0.116667
vt 0.083333 0.116667
vt 0.100000 0.116667
vt 0.000000 0.100000
vt 0.016667 0.100000
vt 0.033333 0.100000
vt 0.050000 0.100000
vt 0.066667 0.100000
vt 0.083333 0.100000
vt 0.100000 0.100000

vn 0.00000 1.00000 0.00000
vn 0.00000 1.00000 0.00000
vn 0.00000 1.00000 0.00000
vn 0.00000 1.00000 0.00000
vn 0.00000 1.00000 0.00000
vn 0.00000 1.00000 0.00000
vn 0.00000 1.00000 0.00000
vn 0.00000 1.00000 0.00000
vn 0.00000 1.00000 0.00000
vn 0.00000 1.00000 0.00000
vn 0.00000 1.00000 0.00000
vn 0.00000 1.00000 0.00000
vn 0.00000 1.00000 0.00000
vn 0.00000 1.00000 0.00000
vn 0.00000 1.00000 0.00000
vn 0.00000 1.00000 0.00000
vn 0.00000 1.00000 0.00000
vn 0.00000 1.00000 0.00000
vn 0.00000 1.00000 0.00000
vn 0.00000 1.00000 0.00000
vn 0.00000 1.00000 0.00000
vn 0.00000 1.00000 0.00000
vn 0.00000 1.00000 0.00000
vn 0.00000 1.00000 0.00000
vn 0.00000 1.00000 0.00000
vn 0.00000 1.00000 0.00000
vn 0.00000 1.00000 0.00000
vn 0.00000 1.00000 0.00000
vn 0.00000 1.00000 0.00000
vn 0.00000 1.00000 0.00000
vn 0.00000 1.00000 0.00000
vn 0.00000 1.00000 0.00000
vn 0.00000 1.00000 0.00000
vn 0.00000 1.00000 0.00000
vn 0.00000 1.00000 0.00000
vn 0.00000 1.00000 0.00000
vn 0.00000 1.00000 0.00000
vn 0.00000 1.00000 0.00000
vn 0.00000 1.00000 0.00000
vn 0.00000 1.00000 0.00000
vn 0.00000 1.00000 0.00000
vn 0.00000 1.00000 0.00000
vn 0.00000 1.00000 0.00000
vn 0.00000 1.00000 0.00000
vn 0.00000 1.00000 0.00000
vn 0.00000 1.00000 0.00000
vn 0.00000 1.00000 0.00000
vn 0.00000 1.00000 0.00000
vn 0.00000 1.00000 0.00000
vn 0.00000 1.00000 0.00000
vn 0.00000 1.00000 0.00000
vn 0.00000 1.00000 0.00000
vn 0.00000 1.00000 0.00000
vn 0.00000 1.00000 0.00000
vn 0.00000 1.00000 0.00000
vn 0.00000 1.00000 0.00000
vn 0.00000 1.00000 0.00000
vn 0.00000 1.00000 0.00000
vn 0.00000 1.00000 0.00000
vn 0.00000 1.00000 0.00000
vn 0.00000 1.00000 0.00000
vn 0.00000 1.00000 0.00000
vn 0.00000 1.00000 0.00000

f 1/1/1 2/2/2 3/3/3
f 1/1/1 3/3/3 4/4/4
f 4/4/4 3/3/3 5/5/5
f 5/5/5 3/3/3 6/6/6
f 5/5/5 6/6/6 7/7/7
f 5/5/5 7/7/7 8/8/8
f 8/8/8 7/7/7 9/9/9
f 9/9/9 7/7/7 10/10/10
f 9/9/9 10/10/10 11/11/11
f 9/9/9 11/11/11 12/12/12
f 12/12/12 11/11/11 13/13/13
f 13/13/13 11/11/11 14/14/14
f 2/2/2 15/15/15 3/3/3
f 3/3/3 15/15/15 16/16/16
f 3/3/3 16/16/16 17/17/17
f 3/3/3 17/17/17 6/6/6
f 6/6/6 17/17/17 7/7/7
f 7/7/7 17/17/17 18/18/18
f 7/7/7 18/18/18 19/19/19
f 7/7/7 19/19/19 10/10/10
f 10/10/10 19/19/19 11/11/11
f 11/11/11 19/19/19 20/20/20
f 11/11/11 20/20/20 21/21/21
f 11/11/11 21/21/21 14/14/14
f 15/15/15 22/22/22 23/23/23
f 15/15/15 23/23/23 16/16/16
f 16/16/16 23/23/23 17/17/17
f 17/17/17 23/23/23 24/24/24
f 17/17/17 24/24/24 25/25/25
f 17/17/17 25/25/25 18/18/18
f 18/18/18 25/25/25 19/19/19
f 19/19/19 25/25/25 26/26/26
f 19/19/19 26/26/26 27/27/27
f 19/19/19 27/27/27 20/20/20
f 20/20/20 27/27/27 21/21/21
f 21/21/21 27/27/27 28/28/28
f 22/22/22 29/29/29 23/23/23
f 23/23/23 29/29/29 30/30/30
f 23/23/23 30/30/30 31/31/31
f 23/23/23 31/31/31 24/24/24
f 24/24/24 31/31/31 25/25/25
f 25/25/25 31/31/31 32/32/32
f 25/25/25 32/32/32 33/33/33
f 25/25/25 33/33/33 26/26/26
f 26/26/26 33/33/33 27/27/27
f 27/27/27 33/33/33 34/34/34
f 27/27/27 34/34/34 35/35/35
f 27/27/27 35/35/35 28/28/28
f 29/29/29 36/36/36 37/37/37
f 29/29/29 37/37/37 30/30/30
f 30/30/30 37/37/37 31/31/31
f 31/31/31 37/37/37 38/38/38
f 31/31/31 38/38/38 39/39/39
f 31/31/31 39/39/39 32/32/32
f 32/32/32 39/39/39 33/33/33
f 33/33/33 39/39/39 40/40/40
f 33/33/33 40/40/40 41/41/41
f 33/33/33 41/41/41 34/34/34
f 34/34/34 41/41/41 35/35/35
f 35/35/35 41/41/41 42/42/42
f 36/36/36 43/43/43 37/37/37
f 37/37/37 43/43/43 44/44/44
f 37/37/37 44/44/44 45/45/45
f 37/37/37 45/45/45 38/38/38
f 38/38/38 45/45/45 39/39/39
f 39/39/39 45/45/45 46/46/46
f 39/39/39 46/46/46 47/47/47
f 39/39/39 47/47/47 40/40/40
f 40/40/40 47/47/47 41/41/41
f 41/41/41 47/47/47 48/48/48
f 41/41/41 48/48/48 49/49/49
f 41/41/41 49/49/49 42/42/42
f 43/43/43 50/50/50 51/51/51
f 43/43/43 51/51/51 44/44/44
f 44/44/44 51/51/51 45/45/45
f 45/45/45 51/51/51 52/52/52
f 45/45/45 52/52/52 53/53/53
f 45/45/45 53/53/53 46/46/46
f 46/46/46 53/53/53 47/47/47
f 47/47/47 53/53/53 54/54/54
f 47/47/47 54/54/54 55/55/55
f 47/47/47 55/55/55 48/48/48
f 48/48/48 55/55/55 49/49/49
f 49/49/49 55/55/55 56/56/56
f 50/50/50 57/57/57 51/51/51
f 51/51/51 57/57/57 58/58/58
f 51/51/51 58/58/58 59/59/59
f 51/51/51 59/59/59 52/52/52
f 52/52/52 59/59/59 53/53/53
f 53/53/53 59/59/59 60/60/60
f 53/53/53 60/60/60 61/61/61
f 53/53/53 61/61/61 54/54/54
f 54/54/54 61/61/61 55/55/55
f 55/55/55 61/61/61 62/62/62
f 55/55/55 62/62/62 63/63/63
f 55/55/55 63/63/63 56/56/56
