# Generated by tools/generate_island.py. Do not edit by hand.
o terrain_lod2_-1_1

v -64.000 3.121 64.000 0.205 0.288 0.105
v -64.000 1.675 72.000 0.201 0.285 0.104
v -56.000 1.272 72.000 0.194 0.280 0.101
v -56.000 1.745 64.000 0.199 0.284 0.103
v -48.000 1.112 64.000 0.465 0.434 0.253
v -48.000 1.290 72.000 0.194 0.280 0.101
v -40.000 0.868 72.000 0.471 0.439 0.256
v -40.000 0.713 64.000 0.503 0.473 0.278
v -32.000 0.949 64.000 0.514 0.484 0.285
v -32.000 0.935 72.000 0.494 0.463 0.271
v -24.000 0.734 72.000 0.521 0.491 0.289
v -24.000 0.950 64.000 0.524 0.494 0.291
v -16.000 1.117 64.000 0.549 0.520 0.308
v -16.000 0.806 72.000 0.540 0.510 0.301
v -8.000 0.969 72.000 0.544 0.514 0.304
v -8.000 1.389 64.000 0.285 0.351 0.132
v 0.000 2.334 64.000 0.296 0.359 0.135
v 0.000 0.812 72.000 0.567 0.539 0.320
v -64.000 0.393 80.000 0.460 0.428 0.249
v -56.000 0.902 80.000 0.456 0.424 0.246
v -48.000 0.996 80.000 0.466 0.434 0.253
v -40.000 0.925 80.000 0.451 0.419 0.243
v -32.000 0.851 80.000 0.471 0.439 0.256
v -24.000 0.775 80.000 0.510 0.479 0.282
v -16.000 0.665 80.000 0.521 0.491 0.289
v -8.000 0.700 80.000 0.531 0.501 0.296
v 0.000 0.608 80.000 0.548 0.519 0.307
v -64.000 0.957 88.000 0.434 0.402 0.232
v -56.000 0.170 88.000 0.438 0.405 0.234
v -48.000 0.625 88.000 0.454 0.422 0.245
v -40.000 1.001 88.000 0.436 0.404 0.234
v -32.000 0.936 88.000 0.459 0.428 0.249
v -24.000 0.961 88.000 0.486 0.455 0.266
v -16.000 0.530 88.000 0.498 0.467 0.274
v -8.000 0.315 88.000 0.501 0.471 0.276
v 0.000 0.497 88.000 0.512 0.482 0.283
v -64.000 0.888 96.000 0.421 0.388 0.223
v -56.000 0.820 96.000 0.437 0.405 0.234
v -48.000 0.469 96.000 0.448 0.416 0.241
v -40.000 0.847 96.000 0.444 0.412 0.239
v -32.000 1.185 96.000 0.468 0.436 0.254
v -24.000 1.318 96.000 0.226 0.305 0.112
v -16.000 1.185 96.000 0.458 0.426 0.247
v -8.000 0.654 96.000 0.452 0.420 0.244
v 0.000 0.220 96.000 0.491 0.460 0.269
v -64.000 0.630 104.000 0.466 0.435 0.253
v -56.000 1.681 104.000 0.209 0.291 0.106
v -48.000 1.699 104.000 0.200 0.284 0.103
v -40.000 1.254 104.000 0.225 0.304 0.112
v -32.000 1.510 104.000 0.236 0.312 0.115
v -24.000 1.680 104.000 0.221 0.301 0.110
v -16.000 1.631 104.000 0.194 0.280 0.101
v -8.000 1.391 104.000 0.191 0.278 0.100
v 0.000 0.605 104.000 0.466 0.434 0.253
v -64.000 1.022 112.000 0.494 0.463 0.271
v -56.000 1.575 112.000 0.211 0.293 0.107
v -48.000 2.051 112.000 0.208 0.291 0.106
v -40.000 1.039 112.000 0.498 0.467 0.274
v -32.000 1.264 112.000 0.242 0.317 0.117
v -24.000 1.613 112.000 0.228 0.306 0.113
v -16.000 1.136 112.000 0.439 0.406 0.235
v -8.000 1.418 112.000 0.183 0.271 0.098
v 0.000 1.207 112.000 0.204 0.288 0.105
v -64.000 0.320 120.000 0.470 0.438 0.256
v -56.000 1.034 120.000 0.473 0.441 0.257
v -48.000 1.205 120.000 0.210 0.292 0.107
v -40.000 0.673 120.000 0.484 0.453 0.265
v -32.000 0.492 120.000 0.488 0.457 0.267
v -24.000 0.712 120.000 0.482 0.451 0.264
v -16.000 0.772 120.000 0.458 0.426 0.248
v -8.000 0.821 120.000 0.464 0.433 0.252
v 0.000 0.454 120.000 0.508 0.477 0.280
v -64.000 -0.432 128.000 0.439 0.407 0.235
v -56.000 0.443 128.000 0.433 0.401 0.231
v -48.000 0.097 128.000 0.447 0.415 0.240
v -40.000 0.020 128.000 0.438 0.406 0.235
v -32.000 -0.432 128.000 0.461 0.429 0.249
v -24.000 -0.624 128.000 0.473 0.442 0.258
v -16.000 -0.220 128.000 0.484 0.453 0.265
v -8.000 -0.209 128.000 0.482 0.451 0.264
v 0.000 -0.105 128.000 0.504 0.473 0.278

vt 0.400000 0.400000
vt 0.400000 0.387500
vt 0.412500 0.387500
vt 0.412500 0.400000
vt 0.425000 0.400000
vt 0.425000 0.387500
vt 0.437500 0.387500
vt 0.437500 0.400000
vt 0.450000 0.400000
vt 0.450000 0.387500
vt 0.462500 0.387500
vt 0.462500 0.400000
vt 0.475000 0.400000
vt 0.475000 0.387500
vt 0.487500 0.387500
vt 0.487500 0.400000
vt 0.500000 0.400000
vt 0.500000 0.387500
vt 0.400000 0.375000
vt 0.412500 0.375000
vt 0.425000 0.375000
vt 0.437500 0.375000
vt 0.450000 0.375000
vt 0.462500 0.375000
vt 0.475000 0.375000
vt 0.487500 0.375000
vt 0.500000 0.375000
vt 0.400000 0.362500
vt 0.412500 0.362500
vt 0.425000 0.362500
vt 0.437500 0.362500
vt 0.450000 0.362500
vt 0.462500 0.362500
vt 0.475000 0.362500
vt 0.487500 0.362500
vt 0.500000 0.362500
vt 0.400000 0.350000
vt 0.412500 0.350000
vt 0.425000 0.350000
vt 0.437500 0.350000
vt 0.450000 0.350000
vt 0.462500 0.350000
vt 0.475000 0.350000
vt 0.487500 0.350000
vt 0.500000 0.350000
vt 0.400000 0.337500
vt 0.412500 0.337500
vt 0.425000 0.337500
vt 0.437500 0.337500
vt 0.450000 0.337500
vt 0.462500 0.337500
vt 0.475000 0.337500
vt 0.487500 0.337500
vt 0.500000 0.337500
vt 0.400000 0.325000
vt 0.412500 0.325000
vt 0.425000 0.325000
vt 0.437500 0.325000
vt 0.450000 0.325000
vt 0.462500 0.325000
vt 0.475000 0.325000
vt 0.487500 0.325000
vt 0.500000 0.325000
vt 0.400000 0.312500
vt 0.412500 0.312500
vt 0.425000 0.312500
vt 0.437500 0.312500
vt 0.450000 0.312500
vt 0.462500 0.312500
vt 0.475000 0.312500
vt 0.487500 0.312500
vt 0.500000 0.312500
vt 0.400000 0.300000
vt 0.412500 0.300000
vt 0.425000 0.300000
vt 0.437500 0.300000
vt 0.450000 0.300000
vt 0.462500 0.300000
vt 0.475000 0.300000
vt 0.487500 0.300000
vt 0.500000 0.300000

vn 0.10973 0.98690 0.11827
vn 0.04959 0.98456 0.16787
vn 0.03389 0.99693 0.07056
vn 0.12433 0.99052 0.05845
vn 0.04483 0.99899 -0.00124
vn 0.02524 0.99965 0.00729
vn 0.01590 0.99987 -0.00327
vn 0.01018 0.99976 -0.01948
vn -0.00321 0.99999 0.00276
vn 0.00839 0.99995 0.00616
vn 0.00430 0.99989 0.01407
vn -0.01048 0.99958 0.02692
vn -0.02106 0.99901 0.03924
vn -0.01468 0.99949 0.02826
vn -0.01825 0.99829 0.05549
vn -0.07571 0.99576 0.05229
vn -0.04876 0.99153 0.12034
vn 0.01956 0.99404 0.10723
vn 0.00533 0.99837 0.05678
vn -0.03758 0.99693 0.06867
vn -0.00736 0.99933 0.03590
vn 0.00905 0.99992 -0.00827
vn 0.00740 0.99996 -0.00566
vn 0.01163 0.99983 -0.01418
vn 0.00877 0.99984 0.01533
vn 0.00356 0.99916 0.04086
vn 0.00499 0.99953 0.03028
vn 0.09786 0.99472 -0.03080
vn 0.00749 0.99997 0.00306
vn -0.05180 0.99812 0.03284
vn -0.01863 0.99981 0.00544
vn 0.00248 0.99978 -0.02088
vn 0.01561 0.99942 -0.03030
vn 0.04033 0.99866 -0.03249
vn 0.01700 0.99986 -0.00066
vn -0.02269 0.99945 0.02420
vn -0.00398 0.99931 -0.03694
vn 0.02605 0.99524 -0.09396
vn -0.00714 0.99811 -0.06098
vn -0.04468 0.99888 -0.01580
vn -0.02074 0.99924 -0.03307
vn -0.00002 0.99899 -0.04486
vn 0.03525 0.99744 -0.06228
vn 0.06007 0.99595 -0.06697
vn 0.04592 0.99826 -0.03694
vn -0.13028 0.99144 -0.00828
vn -0.04285 0.99781 -0.05030
vn 0.02655 0.99480 -0.09833
vn 0.00701 0.99947 -0.03194
vn -0.02660 0.99963 -0.00496
vn -0.00179 0.99995 -0.00969
vn 0.01805 0.99983 0.00306
vn 0.04594 0.99820 -0.03844
vn 0.09758 0.99334 -0.06127
vn -0.08935 0.99556 0.02973
vn -0.06413 0.99713 0.04029
vn 0.02905 0.99898 0.03458
vn 0.04906 0.99814 0.03623
vn -0.02515 0.99812 0.05588
vn 0.00799 0.99814 0.06036
vn 0.00890 0.99867 0.05077
vn -0.00443 0.99936 0.03559
vn 0.04911 0.99854 0.02250
vn -0.08852 0.99199 0.09011
vn -0.05169 0.99476 0.08816
vn 0.02240 0.99238 0.12119
vn 0.04260 0.99517 0.08843
vn -0.00242 0.99443 0.10541
vn -0.00999 0.99311 0.11678
vn -0.00678 0.99640 0.08449
vn 0.00702 0.99572 0.09212
vn 0.04571 0.99561 0.08163
vn -0.09845 0.99165 0.08328
vn -0.03292 0.99674 0.07370
vn 0.02434 0.99391 0.10748
vn 0.03290 0.99615 0.08129
vn 0.01877 0.99271 0.11904
vn -0.01303 0.98626 0.16469
vn -0.01622 0.99075 0.13473
vn -0.00717 0.99179 0.12766
vn 0.01637 0.99498 0.09876

f 1/1/1 2/2/2 3/3/3
f 1/1/1 3/3/3 4/4/4
f 4/4/4 3/3/3 5/5/5
f 5/5/5 3/3/3 6/6/6
f 5/5/5 6/6/6 7/7/7
f 5/5/5 7/7/7 8/8/8
f 8/8/8 7/7/7 9/9/9
f 9/9/9 7/7/7 10/10/10
f 9/9/9 10/10/10 11/11/11
f 9/9/9 11/11/11 12/12/12
f 12/12/12 11/11/11 13/13/13
f 13/13/13 11/11/11 14/14/14
f 13/13/13 14/14/14 15/15/15
f 13/13/13 15/15/15 16/16/16
f 16/16/16 15/15/15 17/17/17
f 17/17/17 15/15/15 18/18/18
f 2/2/2 19/19/19 3/3/3
f 3/3/3 19/19/19 20/20/20
f 3/3/3 20/20/20 21/21/21
f 3/3/3 21/21/21 6/6/6
f 6/6/6 21/21/21 7/7/7
f 7/7/7 21/21/21 22/22/22
f 7/7/7 22/22/22 23/23/23
f 7/7/7 23/23/23 10/10/10
f 10/10/10 23/23/23 11/11/11
f 11/11/11 23/23/23 24/24/24
f 11/11/11 24/24/24 25/25/25
f 11/11/11 25/25/25 14/14/14
f 14/14/14 25/25/25 15/15/15
f 15/15/15 25/25/25 26/26/26
f 15/15/15 26/26/26 27/27/27
f 15/15/15 27/27/27 18/18/18
f 19/19/19 28/28/28 29/29/29
f 19/19/19 29/29/29 20/20/20
f 20/20/20 29/29/29 21/21/21
f 21/21/21 29/29/29 30/30/30
f 21/21/21 30/30/30 31/31/31
f 21/21/21 31/31/31 22/22/22
f 22/22/22 31/31/31 23/23/23
f 23/23/23 31/31/31 32/32/32
f 23/23/23 32/32/32 33/33/33
f 23/23/23 33/33/33 24/24/24
f 24/24/24 33/33/33 25/25/25
f 25/25/25 33/33/33 34/34/34
f 25/25/25 34/34/34 35/35/35
f 25/25/25 35/35/35 26/26/26
f 26/26/26 35/35/35 27/27/27
f 27/27/27 35/35/35 36/36/36
f 28/28/28 37/37/37 29/29/29
f 29/29/29 37/37/37 38/38/38
f 29/29/29 38/38/38 39/39/39
f 29/29/29 39/39/39 30/30/30
f 30/30/30 39/39/39 31/31/31
f 31/31/31 39/39/39 40/40/40
f 31/31/31 40/40/40 41/41/41
f 31/31/31 41/41/41 32/32/32
f 32/32/32 41/41/41 33/33/33
f 33/33/33 41/41/41 42/42/42
f 33/33/33 42/42/42 43/43/43
f 33/33/33 43/43/43 34/34/34
f 34/34/34 43/43/43 35/35/35
f 35/35/35 43/43/43 44/44/44
f 35/35/35 44/44/44 45/45/45
f 35/35/35 45/45/45 36/36/36
f 37/37/37 46/46/46 47/47/47
f 37/37/37 47/47/47 38/38/38
f 38/38/38 47/47/47 39/39/39
f 39/39/39 47/47/47 48/48/48
f 39/39/39 48/48/48 49/49/49
f 39/39/39 49/49/49 40/40/40
f 40/40/40 49/49/49 41/41/41
f 41/41/41 49/49/49 50/50/50
f 41/41/41 50/50/50 51/51/51
f 41/41/41 51/51/51 42/42/42
f 42/42/42 51/51/51 43/43/43
f 43/43/43 51/51/51 52/52/52
f 43/43/43 52/52/52 53/53/53
f 43/43/43 53/53/53 44/44/44
f 44/44/44 53/53/53 45/45/45
f 45/45/45 53/53/53 54/54/54
f 46/46/46 55/55/55 47/47/47
f 47/47/47 55/55/55 56/56/56
f 47/47/47 56/56/56 57/57/57
f 47/47/47 57/57/57 48/48/48
f 48/48/48 57/57/57 49/49/49
f 49/49/49 57/57/57 58/58/58
f 49/49/49 58/58/58 59/59/59
f 49/49/49 59/59/59 50/50/50
f 50/50/50 59/59/59 51/51/51
f 51/51/51 59/59/59 60/60/60
f 51/51/51 60/60/60 61/61/61
f 51/51/51 61/61/61 52/52/52
f 52/52/52 61/61/61 53/53/53
f 53/53/53 61/61/61 62/62/62
f 53/53/53 62/62/62 63/63/63
f 53/53/53 63/63/63 54/54/54
f 55/55/55 64/64/64 65/65/65
f 55/55/55 65/65/65 56/56/56
f 56/56/56 65/65/65 57/57/57
f 57/57/57 65/65/65 66/66/66
f 57/57/57 66/66/66 67/67/67
f 57/57/57 67/67/67 58/58/58
f 58/58/58 67/67/67 59/59/59
f 59/59/59 67/67/67 68/68/68
f 59/59/59 68/68/68 69/69/69
f 59/59/59 69/69/69 60/60/60
f 60/60/60 69/69/69 61/61/61
f 61/61/61 69/69/69 70/70/70
f 61/61/61 70/70/70 71/71/71
f 61/61/61 71/71/71 62/62/62
f 62/62/62 71/71/71 63/63/63
f 63/63/63 71/71/71 72/72/72
f 64/64/64 73/73/73 65/65/65
f 65/65/65 73/73/73 74/74/74
f 65/65/65 74/74/74 75/75/75
f 65/65/65 75/75/75 66/66/66
f 66/66/66 75/75/75 67/67/67
f 67/67/67 75/75/75 76/76/76
f 67/67/67 76/76/76 77/77/77
f 67/67/67 77/77/77 68/68/68
f 68/68/68 77/77/77 69/69/69
f 69/69/69 77/77/77 78/78/78
f 69/69/69 78/78/78 79/79/79
f 69/69/69 79/79/79 70/70/70
f 70/70/70 79/79/79 71/71/71
f 71/71/71 79/79/79 80/80/80
f 71/71/71 80/80/80 81/81/81
f 71/71/71 81/81/81 72/72/72
