# Generated by tools/generate_island.py. Do not edit by hand.
o terrain_lod2_-4_-5

v -384.000 -10.800 -608.000 0.507 0.477 0.280
v -400.000 -10.800 -592.000 0.468 0.437 0.255
v -384.000 -10.395 -592.000 0.509 0.479 0.281
v -416.000 -10.800 -576.000 0.487 0.456 0.267
v -400.000 -10.256 -576.000 0.511 0.481 0.283
v -384.000 -9.871 -576.000 0.521 0.491 0.289
v -432.000 -10.800 -560.000 0.481 0.450 0.263
v -416.000 -9.994 -560.000 0.499 0.468 0.275
v -400.000 -9.393 -560.000 0.465 0.433 0.252
v -384.000 -9.138 -560.000 0.477 0.446 0.260
v -464.000 -10.800 -560.000 0.561 0.532 0.315
v -464.000 -10.800 -544.000 0.543 0.514 0.304
v -448.000 -10.336 -544.000 0.546 0.517 0.306
v -448.000 -10.800 -560.000 0.506 0.475 0.279
v -432.000 -9.544 -544.000 0.525 0.495 0.292
v -416.000 -9.134 -544.000 0.509 0.479 0.282
v -400.000 -9.254 -544.000 0.483 0.451 0.264
v -384.000 -8.297 -544.000 0.488 0.457 0.268
v -480.000 -10.800 -544.000 0.451 0.419 0.243
v -496.000 -10.800 -528.000 0.405 0.372 0.213
v -480.000 -10.231 -528.000 0.445 0.413 0.239
v -464.000 -10.113 -528.000 0.490 0.459 0.269
v -448.000 -9.951 -528.000 0.510 0.480 0.282
v -432.000 -8.791 -528.000 0.528 0.498 0.294
v -416.000 -8.460 -528.000 0.526 0.496 0.292
v -400.000 -8.045 -528.000 0.488 0.457 0.267
v -384.000 -7.413 -528.000 0.499 0.469 0.275
v -512.000 -10.800 -528.000 0.395 0.361 0.206
v -512.000 -10.518 -512.000 0.395 0.361 0.206
v -496.000 -9.910 -512.000 0.389 0.355 0.202
v -480.000 -9.524 -512.000 0.428 0.396 0.228
v -464.000 -9.374 -512.000 0.455 0.423 0.246
v -448.000 -8.633 -512.000 0.453 0.421 0.245
v -432.000 -8.091 -512.000 0.444 0.412 0.239
v -416.000 -8.213 -512.000 0.461 0.429 0.250
v -400.000 -7.385 -512.000 0.466 0.434 0.253
v -384.000 -6.694 -512.000 0.453 0.421 0.244

vt 0.300000 0.816667
vt 0.291667 0.808333
vt 0.300000 0.808333
vt 0.283333 0.800000
vt 0.291667 0.800000
vt 0.300000 0.800000
vt 0.275000 0.791667
vt 0.283333 0.791667
vt 0.291667 0.791667
vt 0.300000 0.791667
vt 0.258333 0.791667
vt 0.258333 0.783333
vt 0.266667 0.783333
vt 0.266667 0.791667
vt 0.275000 0.783333
vt 0.283333 0.783333
vt 0.291667 0.783333
vt 0.300000 0.783333
vt 0.250000 0.783333
vt 0.241667 0.775000
vt 0.250000 0.775000
vt 0.258333 0.775000
vt 0.266667 0.775000
vt 0.275000 0.775000
vt 0.283333 0.775000
vt 0.291667 0.775000
vt 0.300000 0.775000
vt 0.233333 0.775000
vt 0.233333 0.766667
vt 0.241667 0.766667
vt 0.250000 0.766667
vt 0.258333 0.766667
vt 0.266667 0.766667
vt 0.275000 0.766667
vt 0.283333 0.766667
vt 0.291667 0.766667
vt 0.300000 0.766667

vn -0.02530 0.99936 -0.02530
vn -0.02716 0.99913 -0.03150
vn -0.02530 0.99926 -0.02902
vn -0.03891 0.99813 -0.04709
vn -0.02901 0.99861 -0.04391
vn -0.02233 0.99889 -0.04158
vn -0.03510 0.99771 -0.05788
vn -0.04387 0.99769 -0.05194
vn -0.02714 0.99879 -0.04091
vn -0.01592 0.99867 -0.04910
vn -0.01449 0.99979 -0.01449
vn -0.01931 0.99940 -0.02862
vn -0.02991 0.99896 -0.03429
vn 0.00000 0.99958 -0.02897
vn -0.03747 0.99733 -0.06262
vn -0.02133 0.99852 -0.05012
vn -0.02611 0.99877 -0.04208
vn -0.04366 0.99790 -0.04791
vn -0.01431 0.99917 -0.03801
vn -0.02663 0.99878 -0.04167
vn -0.02146 0.99898 -0.03984
vn -0.01493 0.99885 -0.04551
vn -0.04121 0.99774 -0.05310
vn -0.03592 0.99842 -0.04314
vn -0.02330 0.99931 -0.02877
vn -0.03470 0.99820 -0.04884
vn -0.03938 0.99797 -0.05002
vn 0.00000 0.99984 -0.01764
vn -0.01896 0.99915 -0.03659
vn -0.03100 0.99798 -0.05549
vn -0.01910 0.99869 -0.04747
vn -0.02778 0.99855 -0.04611
vn -0.04058 0.99716 -0.06348
vn -0.01313 0.99896 -0.04367
vn -0.02268 0.99932 -0.02895
vn -0.04738 0.99803 -0.04114
vn -0.04127 0.99822 -0.04302

f 1/1/1 2/2/2 3/3/3
f 2/2/2 4/4/4 5/5/5
f 2/2/2 5/5/5 6/6/6
f 2/2/2 6/6/6 3/3/3
f 4/4/4 7/7/7 8/8/8
f 4/4/4 8/8/8 9/9/9
f 4/4/4 9/9/9 5/5/5
f 5/5/5 9/9/9 6/6/6
f 6/6/6 9/9/9 10/10/10
f 11/11/11 12/12/12 13/13/13
f 11/11/11 13/13/13 14/14/14
f 14/14/14 13/13/13 7/7/7
f 7/7/7 13/13/13 15/15/15
f 7/7/7 15/15/15 16/16/16
f 7/7/7 16/16/16 8/8/8
f 8/8/8 16/16/16 9/9/9
f 9/9/9 16/16/16 17/17/17
f 9/9/9 17/17/17 18/18/18
f 9/9/9 18/18/18 10/10/10
f 19/19/19 20/20/20 21/21/21
f 19/19/19 21/21/21 22/22/22
f 19/19/19 22/22/22 12/12/12
f 12/12/12 22/22/22 13/13/13
f 13/13/13 22/22/22 23/23/23
f 13/13/13 23/23/23 24/24/24
f 13/13/13 24/24/24 15/15/15
f 15/15/15 24/24/24 16/16/16
f 16/16/16 24/24/24 25/25/25
f 16/16/16 25/25/25 26/26/26
f 16/16/16 26/26/26 17/17/17
f 17/17/17 26/26/26 18/18/18
f 18/18/18 26/26/26 27/27/27
f 28/28/28 29/29/29 20/20/20
f 20/20/20 29/29/29 30/30/30
f 20/20/20 30/30/30 31/31/31
f 20/20/20 31/31/31 21/21/21
f 21/21/21 31/31/31 22/22/22
f 22/22/22 31/31/31 32/32/32
f 22/22/22 32/32/32 33/33/33
f 22/22/22 33/33/33 23/23/23
f 23/23/23 33/33/33 24/24/24
f 24/24/24 33/33/33 34/34/34
f 24/24/24 34/34/34 35/35/35
f 24/24/24 35/35/35 25/25/25
f 25/25/25 35/35/35 26/26/26
f 26/26/26 35/35/35 36/36/36
f 26/26/26 36/36/36 37/37/37
f 26/26/26 37/37/37 27/27/27
