# Generated by tools/generate_island.py. Do not edit by hand.
o terrain_lod2_-2_-4

v -256.000 -3.166 -512.000 0.449 0.417 0.242
v -256.000 -2.424 -496.000 0.437 0.405 0.234
v -240.000 -2.420 -496.000 0.428 0.395 0.228
v -240.000 -2.570 -512.000 0.446 0.413 0.240
v -224.000 -2.654 -512.000 0.441 0.409 0.237
v -224.000 -2.349 -496.000 0.435 0.402 0.233
v -208.000 -1.840 -496.000 0.386 0.352 0.200
v -208.000 -2.259 -512.000 0.403 0.370 0.212
v -192.000 -2.268 -512.000 0.386 0.352 0.201
v -192.000 -2.044 -496.000 0.383 0.349 0.199
v -176.000 -2.125 -496.000 0.361 0.326 0.184
v -176.000 -2.629 -512.000 0.377 0.343 0.194
v -160.000 -2.231 -512.000 0.434 0.401 0.232
v -160.000 -1.646 -496.000 0.418 0.385 0.221
v -144.000 -1.470 -496.000 0.535 0.505 0.298
v -144.000 -1.489 -512.000 0.515 0.484 0.285
v -128.000 -1.581 -512.000 0.537 0.508 0.300
v -128.000 -1.183 -496.000 0.546 0.516 0.305
v -256.000 -2.120 -480.000 0.409 0.375 0.215
v -240.000 -2.518 -480.000 0.416 0.383 0.220
v -224.000 -1.854 -480.000 0.409 0.375 0.215
v -208.000 -1.389 -480.000 0.397 0.363 0.208
v -192.000 -1.760 -480.000 0.371 0.337 0.191
v -176.000 -1.576 -480.000 0.410 0.377 0.216
v -160.000 -1.325 -480.000 0.446 0.414 0.240
v -144.000 -1.344 -480.000 0.504 0.473 0.278
v -128.000 -0.536 -480.000 0.585 0.557 0.331
v -256.000 -1.913 -464.000 0.450 0.418 0.243
v -240.000 -1.558 -464.000 0.450 0.418 0.243
v -224.000 -1.117 -464.000 0.447 0.415 0.241
v -208.000 -1.496 -464.000 0.413 0.380 0.218
v -192.000 -1.574 -464.000 0.442 0.409 0.237
v -176.000 -0.621 -464.000 0.429 0.396 0.229
v -160.000 -0.774 -464.000 0.454 0.422 0.245
v -144.000 -0.944 -464.000 0.494 0.463 0.272
v -128.000 -0.368 -464.000 0.535 0.506 0.298
v -256.000 -2.089 -448.000 0.462 0.430 0.250
v -240.000 -1.409 -448.000 0.460 0.428 0.249
v -224.000 -0.963 -448.000 0.460 0.429 0.249
v -208.000 -0.984 -448.000 0.417 0.383 0.220
v -192.000 -0.937 -448.000 0.462 0.430 0.250
v -176.000 -0.654 -448.000 0.458 0.426 0.248
v -160.000 -1.049 -448.000 0.485 0.454 0.265
v -144.000 0.101 -448.000 0.501 0.470 0.276
v -128.000 0.174 -448.000 0.492 0.461 0.270
v -256.000 -1.364 -432.000 0.471 0.439 0.256
v -240.000 -0.586 -432.000 0.418 0.385 0.221
v -224.000 -1.285 -432.000 0.418 0.385 0.221
v -208.000 -1.106 -432.000 0.397 0.363 0.208
v -192.000 -0.589 -432.000 0.395 0.361 0.206
v -176.000 -0.615 -432.000 0.453 0.421 0.244
v -160.000 -0.317 -432.000 0.459 0.427 0.248
v -144.000 0.020 -432.000 0.442 0.409 0.237
v -128.000 0.040 -432.000 0.509 0.479 0.281
v -256.000 -0.872 -416.000 0.461 0.429 0.249
v -240.000 -0.828 -416.000 0.428 0.396 0.228
v -224.000 -1.048 -416.000 0.403 0.369 0.211
v -208.000 -0.628 -416.000 0.411 0.378 0.217
v -192.000 -0.076 -416.000 0.416 0.383 0.220
v -176.000 -0.227 -416.000 0.471 0.440 0.256
v -160.000 0.374 -416.000 0.442 0.409 0.237
v -144.000 0.164 -416.000 0.421 0.388 0.224
v -128.000 -0.535 -416.000 0.496 0.465 0.273
v -256.000 -0.521 -400.000 0.411 0.377 0.216
v -240.000 -0.900 -400.000 0.412 0.378 0.217
v -224.000 -0.702 -400.000 0.448 0.416 0.241
v -208.000 0.058 -400.000 0.463 0.431 0.251
v -192.000 -0.003 -400.000 0.477 0.445 0.260
v -176.000 0.675 -400.000 0.482 0.451 0.263
v -160.000 1.295 -400.000 0.193 0.279 0.101
v -144.000 0.088 -400.000 0.387 0.353 0.201
v -128.000 -0.386 -400.000 0.455 0.423 0.246
v -256.000 -0.741 -384.000 0.395 0.361 0.206
v -240.000 -1.500 -384.000 0.365 0.330 0.186
v -224.000 -0.926 -384.000 0.378 0.343 0.195
v -208.000 -0.315 -384.000 0.449 0.416 0.241
v -192.000 0.351 -384.000 0.477 0.446 0.260
v -176.000 0.846 -384.000 0.470 0.438 0.255
v -160.000 1.162 -384.000 0.201 0.285 0.104
v -144.000 -0.454 -384.000 0.375 0.341 0.193
v -128.000 -0.722 -384.000 0.424 0.391 0.225

vt 0.366667 0.766667
vt 0.366667 0.758333
vt 0.375000 0.758333
vt 0.375000 0.766667
vt 0.383333 0.766667
vt 0.383333 0.758333
vt 0.391667 0.758333
vt 0.391667 0.766667
vt 0.400000 0.766667
vt 0.400000 0.758333
vt 0.408333 0.758333
vt 0.408333 0.766667
vt 0.416667 0.766667
vt 0.416667 0.758333
vt 0.425000 0.758333
vt 0.425000 0.766667
vt 0.433333 0.766667
vt 0.433333 0.758333
vt 0.366667 0.750000
vt 0.375000 0.750000
vt 0.383333 0.750000
vt 0.391667 0.750000
vt 0.400000 0.750000
vt 0.408333 0.750000
vt 0.416667 0.750000
vt 0.425000 0.750000
vt 0.433333 0.750000
vt 0.366667 0.741667
vt 0.375000 0.741667
vt 0.383333 0.741667
vt 0.391667 0.741667
vt 0.400000 0.741667
vt 0.408333 0.741667
vt 0.416667 0.741667
vt 0.425000 0.741667
vt 0.433333 0.741667
vt 0.366667 0.733333
vt 0.375000 0.733333
vt 0.383333 0.733333
vt 0.391667 0.733333
vt 0.400000 0.733333
vt 0.408333 0.733333
vt 0.416667 0.733333
vt 0.425000 0.733333
vt 0.433333 0.733333
vt 0.366667 0.725000
vt 0.375000 0.725000
vt 0.383333 0.725000
vt 0.391667 0.725000
vt 0.400000 0.725000
vt 0.408333 0.725000
vt 0.416667 0.725000
vt 0.425000 0.725000
vt 0.433333 0.725000
vt 0.366667 0.716667
vt 0.375000 0.716667
vt 0.383333 0.716667
vt 0.391667 0.716667
vt 0.400000 0.716667
vt 0.408333 0.716667
vt 0.416667 0.716667
vt 0.425000 0.716667
vt 0.433333 0.716667
vt 0.366667 0.708333
vt 0.375000 0.708333
vt 0.383333 0.708333
vt 0.391667 0.708333
vt 0.400000 0.708333
vt 0.408333 0.708333
vt 0.416667 0.708333
vt 0.425000 0.708333
vt 0.433333 0.708333
vt 0.366667 0.700000
vt 0.375000 0.700000
vt 0.383333 0.700000
vt 0.391667 0.700000
vt 0.400000 0.700000
vt 0.408333 0.700000
vt 0.416667 0.700000
vt 0.425000 0.700000
vt 0.433333 0.700000

vn -0.01874 0.99944 -0.02787
vn -0.00029 0.99947 -0.03267
vn -0.00725 0.99986 -0.01522
vn -0.01601 0.99983 -0.00942
vn -0.01391 0.99973 -0.01841
vn -0.01810 0.99952 -0.02497
vn -0.00852 0.99968 -0.02382
vn -0.01203 0.99958 -0.02619
vn 0.01023 0.99972 -0.02143
vn 0.00891 0.99983 -0.01589
vn -0.00990 0.99957 -0.02749
vn -0.00116 0.99950 -0.03146
vn -0.02803 0.99926 -0.02645
vn -0.02047 0.99939 -0.02829
vn -0.01847 0.99968 -0.01750
vn -0.02032 0.99979 -0.00119
vn -0.00610 0.99990 -0.01304
vn -0.01795 0.99931 -0.03262
vn 0.00684 0.99975 -0.02144
vn -0.00830 0.99960 -0.02691
vn -0.02266 0.99933 -0.02865
vn -0.00296 0.99994 -0.01077
vn -0.00167 0.99976 -0.02178
vn -0.01355 0.99881 -0.04695
vn -0.00623 0.99955 -0.02948
vn -0.02465 0.99956 -0.01644
vn -0.03868 0.99903 -0.02093
vn -0.02216 0.99975 -0.00097
vn -0.02329 0.99943 -0.02453
vn -0.00196 0.99961 -0.02785
vn 0.00619 0.99979 -0.01971
vn -0.02730 0.99930 -0.02569
vn -0.01502 0.99962 -0.02299
vn 0.01007 0.99991 -0.00864
vn -0.02203 0.99930 -0.03027
vn -0.03591 0.99911 -0.02217
vn -0.03890 0.99896 -0.02374
vn -0.03515 0.99892 -0.03035
vn -0.00307 0.99996 -0.00802
vn -0.00081 0.99993 -0.01218
vn -0.01582 0.99970 -0.01848
vn 0.00350 0.99999 -0.00020
vn -0.01424 0.99979 -0.01471
vn -0.03816 0.99882 -0.03008
vn -0.01156 0.99970 -0.02143
vn -0.04853 0.99810 -0.03795
vn -0.00866 0.99980 -0.01792
vn 0.01624 0.99986 0.00267
vn -0.01867 0.99976 -0.01162
vn -0.01533 0.99952 -0.02690
vn -0.00690 0.99968 -0.02451
vn -0.01982 0.99882 -0.04442
vn -0.00803 0.99995 -0.00657
vn -0.00126 0.99975 0.02213
vn -0.00762 0.99994 -0.00827
vn 0.00550 0.99994 0.00980
vn -0.00654 0.99985 -0.01574
vn -0.03036 0.99888 -0.03633
vn -0.01492 0.99949 -0.02831
vn -0.01405 0.99909 -0.04028
vn -0.00648 0.99934 -0.03577
vn 0.02839 0.99959 -0.00211
vn 0.02893 0.99957 0.00560
vn 0.02366 0.99971 -0.00409
vn 0.00566 0.99995 0.00853
vn -0.02991 0.99955 -0.00380
vn -0.02849 0.99955 -0.00916
vn -0.01929 0.99973 -0.01333
vn -0.03012 0.99920 -0.02623
vn 0.01835 0.99953 -0.02460
vn 0.04804 0.99883 0.00497
vn 0.02962 0.99954 0.00585
vn 0.03551 0.99904 0.02561
vn 0.00579 0.99928 0.03749
vn -0.03345 0.99919 0.02220
vn -0.03988 0.99893 0.02331
vn -0.02778 0.99958 -0.00789
vn -0.02533 0.99962 -0.01066
vn 0.02948 0.99952 0.00997
vn 0.05873 0.99770 0.03380
vn 0.02316 0.99936 0.02741

f 1/1/1 2/2/2 3/3/3
f 1/1/1 3/3/3 4/4/4
f 4/4/4 3/3/3 5/5/5
f 5/5/5 3/3/3 6/6/6
f 5/5/5 6/6/6 7/7/7
f 5/5/5 7/7/7 8/8/8
f 8/8/8 7/7/7 9/9/9
f 9/9/9 7/7/7 10/10/10
f 9/9/9 10/10/10 11/11/11
f 9/9/9 11/11/11 12/12/12
f 12/12/12 11/11/11 13/13/13
f 13/13/13 11/11/11 14/14/14
f 13/13/13 14/14/14 15/15/15
f 13/13/13 15/15/15 16/16/16
f 16/16/16 15/15/15 17/17/17
f 17/17/17 15/15/15 18/18/18
f 2/2/2 19/19/19 3/3/3
f 3/3/3 19/19/19 20/20/20
f 3/3/3 20/20/20 21/21/21
f 3/3/3 21/21/21 6/6/6
f 6/6/6 21/21/21 7/7/7
f 7/7/7 21/21/21 22/22/22
f 7/7/7 22/22/22 23/23/23
f 7/7/7 23/23/23 10/10/10
f 10/10/10 23/23/23 11/11/11
f 11/11/11 23/23/23 24/24/24
f 11/11/11 24/24/24 25/25/25
f 11/11/11 25/25/25 14/14/14
f 14/14/14 25/25/25 15/15/15
f 15/15/15 25/25/25 26/26/26
f 15/15/15 26/26/26 27/27/27
f 15/15/15 27/27/27 18/18/18
f 19/19/19 28/28/28 29/29/29
f 19/19/19 29/29/29 20/20/20
f 20/20/20 29/29/29 21/21/21
f 21/21/21 29/29/29 30/30/30
f 21/21/21 30/30/30 31/31/31
f 21/21/21 31/31/31 22/22/22
f 22/22/22 31/31/31 23/23/23
f 23/23/23 31/31/31 32/32/32
f 23/23/23 32/32/32 33/33/33
f 23/23/23 33/33/33 24/24/24
f 24/24/24 33/33/33 25/25/25
f 25/25/25 33/33/33 34/34/34
f 25/25/25 34/34/34 35/35/35
f 25/25/25 35/35/35 26/26/26
f 26/26/26 35/35/35 27/27/27
f 27/27/27 35/35/35 36/36/36
f 28/28/28 37/37/37 29/29/29
f 29/29/29 37/37/37 38/38/38
f 29/29/29 38/38/38 39/39/39
f 29/29/29 39/39/39 30/30/30
f 30/30/30 39/39/39 31/31/31
f 31/31/31 39/39/39 40/40/40
f 31/31/31 40/40/40 41/41/41
f 31/31/31 41/41/41 32/32/32
f 32/32/32 41/41/41 33/33/33
f 33/33/33 41/41/41 42/42/42
f 33/33/33 42/42/42 43/43/43
f 33/33/33 43/43/43 34/34/34
f 34/34/34 43/43/43 35/35/35
f 35/35/35 43/43/43 44/44/44
f 35/35/35 44/44/44 45/45/45
f 35/35/35 45/45/45 36/36/36
f 37/37/37 46/46/46 47/47/47
f 37/37/37 47/47/47 38/38/38
f 38/38/38 47/47/47 39/39/39
f 39/39/39 47/47/47 48/48/48
f 39/39/39 48/48/48 49/49/49
f 39/39/39 49/49/49 40/40/40
f 40/40/40 49/49/49 41/41/41
f 41/41/41 49/49/49 50/50/50
f 41/41/41 50/50/50 51/51/51
f 41/41/41 51/51/51 42/42/42
f 42/42/42 51/51/51 43/43/43
f 43/43/43 51/51/51 52/52/52
f 43/43/43 52/52/52 53/53/53
f 43/43/43 53/53/53 44/44/44
f 44/44/44 53/53/53 45/45/45
f 45/45/45 53/53/53 54/54/54
f 46/46/46 55/55/55 47/47/47
f 47/47/47 55/55/55 56/56/56
f 47/47/47 56/56/56 57/57/57
f 47/47/47 57/57/57 48/48/48
f 48/48/48 57/57/57 49/49/49
f 49/49/49 57/57/57 58/58/58
f 49/49/49 58/58/58 59/59/59
f 49/49/49 59/59/59 50/50/50
f 50/50/50 59/59/59 51/51/51
f 51/51/51 59/59/59 60/60/60
f 51/51/51 60/60/60 61/61/61
f 51/51/51 61/61/61 52/52/52
f 52/52/52 61/61/61 53/53/53
f 53/53/53 61/61/61 62/62/62
f 53/53/53 62/62/62 63/63/63
f 53/53/53 63/63/63 54/54/54
f 55/55/55 64/64/64 65/65/65
f 55/55/55 65/65/65 56/56/56
f 56/56/56 65/65/65 57/57/57
f 57/57/57 65/65/65 66/66/66
f 57/57/57 66/66/66 67/67/67
f 57/57/57 67/67/67 58/58/58
f 58/58/58 67/67/67 59/59/59
f 59/59/59 67/67/67 68/68/68
f 59/59/59 68/68/68 69/69/69
f 59/59/59 69/69/69 60/60/60
f 60/60/60 69/69/69 61/61/61
f 61/61/61 69/69/69 70/70/70
f 61/61/61 70/70/70 71/71/71
f 61/61/61 71/71/71 62/62/62
f 62/62/62 71/71/71 63/63/63
f 63/63/63 71/71/71 72/72/72
f 64/64/64 73/73/73 65/65/65
f 65/65/65 73/73/73 74/74/74
f 65/65/65 74/74/74 75/75/75
f 65/65/65 75/75/75 66/66/66
f 66/66/66 75/75/75 67/67/67
f 67/67/67 75/75/75 76/76/76
f 67/67/67 76/76/76 77/77/77
f 67/67/67 77/77/77 68/68/68
f 68/68/68 77/77/77 69/69/69
f 69/69/69 77/77/77 78/78/78
f 69/69/69 78/78/78 79/79/79
f 69/69/69 79/79/79 70/70/70
f 70/70/70 79/79/79 71/71/71
f 71/71/71 79/79/79 80/80/80
f 71/71/71 80/80/80 81/81/81
f 71/71/71 81/81/81 72/72/72
