# Generated by tools/generate_island.py. Do not edit by hand.
o terrain_lod2_-3_1

v -192.000 -2.971 64.000 0.469 0.438 0.255
v -192.000 -3.633 72.000 0.466 0.435 0.253
v -184.000 -3.180 72.000 0.436 0.403 0.233
v -184.000 -2.403 64.000 0.442 0.410 0.237
v -176.000 -1.632 64.000 0.415 0.382 0.219
v -176.000 -2.307 72.000 0.418 0.385 0.222
v -168.000 -1.943 72.000 0.421 0.388 0.223
v -168.000 -1.464 64.000 0.395 0.361 0.206
v -160.000 -0.853 64.000 0.376 0.342 0.194
v -160.000 -1.621 72.000 0.399 0.365 0.209
v -152.000 -1.162 72.000 0.387 0.353 0.201
v -152.000 -0.993 64.000 0.368 0.334 0.189
v -144.000 -0.932 64.000 0.379 0.345 0.196
v -144.000 -0.870 72.000 0.375 0.341 0.193
v -136.000 0.022 72.000 0.400 0.366 0.209
v -136.000 -0.469 64.000 0.368 0.334 0.189
v -128.000 -0.405 64.000 0.377 0.342 0.194
v -128.000 -0.019 72.000 0.408 0.375 0.215
v -192.000 -4.317 80.000 0.440 0.408 0.236
v -184.000 -4.034 80.000 0.446 0.414 0.240
v -176.000 -3.800 80.000 0.436 0.403 0.233
v -168.000 -3.255 80.000 0.436 0.403 0.233
v -160.000 -2.816 80.000 0.447 0.415 0.240
v -152.000 -1.858 80.000 0.440 0.407 0.236
v -144.000 -0.754 80.000 0.420 0.387 0.223
v -136.000 0.107 80.000 0.438 0.406 0.235
v -128.000 0.648 80.000 0.453 0.421 0.244
v -192.000 -5.225 88.000 0.467 0.436 0.254
v -184.000 -4.720 88.000 0.458 0.426 0.248
v -176.000 -4.982 88.000 0.466 0.434 0.253
v -168.000 -4.480 88.000 0.460 0.428 0.249
v -160.000 -3.350 88.000 0.446 0.414 0.240
v -152.000 -2.204 88.000 0.449 0.416 0.241
v -144.000 -0.736 88.000 0.444 0.411 0.238
v -136.000 0.148 88.000 0.438 0.406 0.235
v -128.000 0.446 88.000 0.445 0.413 0.239
v -192.000 -5.293 96.000 0.506 0.475 0.279
v -184.000 -4.734 96.000 0.483 0.451 0.264
v -176.000 -4.477 96.000 0.483 0.452 0.264
v -168.000 -4.295 96.000 0.486 0.455 0.266
v -160.000 -3.052 96.000 0.461 0.429 0.250
v -152.000 -2.095 96.000 0.435 0.403 0.233
v -144.000 -1.067 96.000 0.435 0.402 0.233
v -136.000 -0.382 96.000 0.420 0.387 0.223
v -128.000 -0.444 96.000 0.421 0.388 0.223
v -192.000 -4.859 104.000 0.528 0.498 0.294
v -184.000 -4.492 104.000 0.535 0.506 0.298
v -176.000 -3.919 104.000 0.540 0.510 0.301
v -168.000 -3.674 104.000 0.517 0.487 0.287
v -160.000 -2.792 104.000 0.482 0.451 0.263
v -152.000 -1.703 104.000 0.432 0.399 0.230
v -144.000 -1.274 104.000 0.428 0.396 0.228
v -136.000 -0.661 104.000 0.382 0.348 0.198
v -128.000 -0.668 104.000 0.375 0.341 0.193
v -192.000 -5.202 112.000 0.529 0.500 0.295
v -184.000 -4.610 112.000 0.530 0.501 0.295
v -176.000 -4.083 112.000 0.549 0.520 0.308
v -168.000 -3.278 112.000 0.533 0.503 0.297
v -160.000 -2.553 112.000 0.486 0.455 0.266
v -152.000 -1.493 112.000 0.431 0.399 0.230
v -144.000 -1.171 112.000 0.417 0.384 0.221
v -136.000 -1.174 112.000 0.380 0.346 0.196
v -128.000 -1.182 112.000 0.366 0.331 0.187
v -192.000 -5.738 120.000 0.505 0.475 0.279
v -184.000 -4.788 120.000 0.520 0.490 0.289
v -176.000 -4.306 120.000 0.528 0.498 0.294
v -168.000 -3.316 120.000 0.531 0.501 0.296
v -160.000 -2.498 120.000 0.484 0.453 0.265
v -152.000 -1.942 120.000 0.434 0.402 0.232
v -144.000 -1.504 120.000 0.405 0.372 0.213
v -136.000 -1.794 120.000 0.370 0.335 0.190
v -128.000 -1.768 120.000 0.361 0.326 0.184
v -192.000 -6.346 128.000 0.504 0.474 0.278
v -184.000 -5.444 128.000 0.513 0.483 0.284
v -176.000 -4.714 128.000 0.516 0.486 0.286
v -168.000 -4.041 128.000 0.513 0.483 0.284
v -160.000 -2.989 128.000 0.491 0.460 0.270
v -152.000 -2.588 128.000 0.457 0.425 0.247
v -144.000 -2.072 128.000 0.412 0.378 0.217
v -136.000 -1.959 128.000 0.396 0.362 0.207
v -128.000 -2.027 128.000 0.385 0.350 0.199

vt 0.200000 0.400000
vt 0.200000 0.387500
vt 0.212500 0.387500
vt 0.212500 0.400000
vt 0.225000 0.400000
vt 0.225000 0.387500
vt 0.237500 0.387500
vt 0.237500 0.400000
vt 0.250000 0.400000
vt 0.250000 0.387500
vt 0.262500 0.387500
vt 0.262500 0.400000
vt 0.275000 0.400000
vt 0.275000 0.387500
vt 0.287500 0.387500
vt 0.287500 0.400000
vt 0.300000 0.400000
vt 0.300000 0.387500
vt 0.200000 0.375000
vt 0.212500 0.375000
vt 0.225000 0.375000
vt 0.237500 0.375000
vt 0.250000 0.375000
vt 0.262500 0.375000
vt 0.275000 0.375000
vt 0.287500 0.375000
vt 0.300000 0.375000
vt 0.200000 0.362500
vt 0.212500 0.362500
vt 0.225000 0.362500
vt 0.237500 0.362500
vt 0.250000 0.362500
vt 0.262500 0.362500
vt 0.275000 0.362500
vt 0.287500 0.362500
vt 0.300000 0.362500
vt 0.200000 0.350000
vt 0.212500 0.350000
vt 0.225000 0.350000
vt 0.237500 0.350000
vt 0.250000 0.350000
vt 0.262500 0.350000
vt 0.275000 0.350000
vt 0.287500 0.350000
vt 0.300000 0.350000
vt 0.200000 0.337500
vt 0.212500 0.337500
vt 0.225000 0.337500
vt 0.237500 0.337500
vt 0.250000 0.337500
vt 0.262500 0.337500
vt 0.275000 0.337500
vt 0.287500 0.337500
vt 0.300000 0.337500
vt 0.200000 0.325000
vt 0.212500 0.325000
vt 0.225000 0.325000
vt 0.237500 0.325000
vt 0.250000 0.325000
vt 0.262500 0.325000
vt 0.275000 0.325000
vt 0.287500 0.325000
vt 0.300000 0.325000
vt 0.200000 0.312500
vt 0.212500 0.312500
vt 0.225000 0.312500
vt 0.237500 0.312500
vt 0.250000 0.312500
vt 0.262500 0.312500
vt 0.275000 0.312500
vt 0.287500 0.312500
vt 0.300000 0.312500
vt 0.200000 0.300000
vt 0.212500 0.300000
vt 0.225000 0.300000
vt 0.237500 0.300000
vt 0.250000 0.300000
vt 0.262500 0.300000
vt 0.275000 0.300000
vt 0.287500 0.300000
vt 0.300000 0.300000

vn -0.06338 0.99397 0.08943
vn -0.05626 0.99490 0.08372
vn -0.06986 0.99201 0.10507
vn -0.08301 0.99188 0.09640
vn -0.06762 0.99442 0.08101
vn -0.07643 0.98804 0.13392
vn -0.04858 0.99165 0.11949
vn -0.04849 0.99704 0.05961
vn -0.03902 0.99692 0.06797
vn -0.04839 0.99140 0.12160
vn -0.05429 0.99702 0.05475
vn 0.00491 0.99977 0.02108
vn -0.05328 0.99848 -0.01392
vn -0.07377 0.99721 -0.01111
vn -0.05660 0.99771 -0.03714
vn -0.03284 0.99758 -0.06121
vn -0.00142 0.99850 -0.05475
vn 0.00509 0.99783 -0.06568
vn -0.04728 0.99413 0.09731
vn -0.03213 0.99489 0.09576
vn -0.04691 0.98823 0.14558
vn -0.06065 0.98584 0.15635
vn -0.09050 0.98993 0.10888
vn -0.12756 0.98973 0.06446
vn -0.11584 0.99322 0.01006
vn -0.08726 0.99615 -0.00786
vn -0.04183 0.99895 -0.01846
vn -0.06285 0.99617 0.06074
vn -0.02836 0.99846 0.04760
vn -0.01499 0.99900 0.04224
vn -0.08819 0.99501 0.04656
vn -0.14085 0.98992 0.01462
vn -0.14341 0.98954 0.01583
vn -0.14539 0.98918 0.01938
vn -0.06839 0.99697 0.03711
vn -0.03715 0.99699 0.06803
vn -0.06202 0.99790 -0.01855
vn -0.05092 0.99860 -0.01426
vn -0.03018 0.99833 -0.04929
vn -0.08856 0.99481 -0.05010
vn -0.13382 0.99030 -0.03750
vn -0.12305 0.99191 -0.03103
vn -0.10594 0.99414 0.02149
vn -0.03888 0.99797 0.05048
vn -0.00524 0.99819 0.05999
vn -0.04580 0.99893 -0.00566
vn -0.05947 0.99816 -0.01143
vn -0.05101 0.99840 -0.02456
vn -0.08106 0.99567 -0.04555
vn -0.12222 0.99202 -0.03097
vn -0.09952 0.99472 -0.02488
vn -0.06498 0.99787 0.00644
vn -0.02847 0.99888 0.03787
vn 0.00079 0.99894 0.04610
vn -0.07784 0.99629 0.03661
vn -0.06975 0.99739 0.01850
vn -0.07716 0.99696 0.01107
vn -0.09518 0.99521 -0.02229
vn -0.10743 0.99415 -0.01098
vn -0.08605 0.99618 0.01486
vn -0.02853 0.99918 0.02859
vn 0.00073 0.99750 0.07061
vn -0.00008 0.99757 0.06963
vn -0.11751 0.99054 0.07081
vn -0.08726 0.99475 0.05354
vn -0.09158 0.99502 0.03926
vn -0.10665 0.99348 0.04025
vn -0.08554 0.99596 0.02717
vn -0.06676 0.99626 0.05491
vn -0.00924 0.99838 0.05623
vn 0.00775 0.99863 0.05174
vn -0.00316 0.99860 0.05272
vn -0.11452 0.99033 0.07824
vn -0.10110 0.99155 0.08131
vn -0.08931 0.99366 0.06825
vn -0.10677 0.99023 0.08972
vn -0.08777 0.99346 0.07304
vn -0.05706 0.99513 0.08036
vn -0.02422 0.99786 0.06072
vn -0.00279 0.99978 0.02066
vn 0.00266 0.99965 0.02648

f 1/1/1 2/2/2 3/3/3
f 1/1/1 3/3/3 4/4/4
f 4/4/4 3/3/3 5/5/5
f 5/5/5 3/3/3 6/6/6
f 5/5/5 6/6/6 7/7/7
f 5/5/5 7/7/7 8/8/8
f 8/8/8 7/7/7 9/9/9
f 9/9/9 7/7/7 10/10/10
f 9/9/9 10/10/10 11/11/11
f 9/9/9 11/11/11 12/12/12
f 12/12/12 11/11/11 13/13/13
f 13/13/13 11/11/11 14/14/14
f 13/13/13 14/14/14 15/15/15
f 13/13/13 15/15/15 16/16/16
f 16/16/16 15/15/15 17/17/17
f 17/17/17 15/15/15 18/18/18
f 2/2/2 19/19/19 3/3/3
f 3/3/3 19/19/19 20/20/20
f 3/3/3 20/20/20 21/21/21
f 3/3/3 21/21/21 6/6/6
f 6/6/6 21/21/21 7/7/7
f 7/7/7 21/21/21 22/22/22
f 7/7/7 22/22/22 23/23/23
f 7/7/7 23/23/23 10/10/10
f 10/10/10 23/23/23 11/11/11
f 11/11/11 23/23/23 24/24/24
f 11/11/11 24/24/24 25/25/25
f 11/11/11 25/25/25 14/14/14
f 14/14/14 25/25/25 15/15/15
f 15/15/15 25/25/25 26/26/26
f 15/15/15 26/26/26 27/27/27
f 15/15/15 27/27/27 18/18/18
f 19/19/19 28/28/28 29/29/29
f 19/19/19 29/29/29 20/20/20
f 20/20/20 29/29/29 21/21/21
f 21/21/21 29/29/29 30/30/30
f 21/21/21 30/30/30 31/31/31
f 21/21/21 31/31/31 22/22/22
f 22/22/22 31/31/31 23/23/23
f 23/23/23 31/31/31 32/32/32
f 23/23/23 32/32/32 33/33/33
f 23/23/23 33/33/33 24/24/24
f 24/24/24 33/33/33 25/25/25
f 25/25/25 33/33/33 34/34/34
f 25/25/25 34/34/34 35/35/35
f 25/25/25 35/35/35 26/26/26
f 26/26/26 35/35/35 27/27/27
f 27/27/27 35/35/35 36/36/36
f 28/28/28 37/37/37 29/29/29
f 29/29/29 37/37/37 38/38/38
f 29/29/29 38/38/38 39/39/39
f 29/29/29 39/39/39 30/30/30
f 30/30/30 39/39/39 31/31/31
f 31/31/31 39/39/39 40/40/40
f 31/31/31 40/40/40 41/41/41
f 31/31/31 41/41/41 32/32/32
f 32/32/32 41/41/41 33/33/33
f 33/33/33 41/41/41 42/42/42
f 33/33/33 42/42/42 43/43/43
f 33/33/33 43/43/43 34/34/34
f 34/34/34 43/43/43 35/35/35
f 35/35/35 43/43/43 44/44/44
f 35/35/35 44/44/44 45/45/45
f 35/35/35 45/45/45 36/36/36
f 37/37/37 46/46/46 47/47/47
f 37/37/37 47/47/47 38/38/38
f 38/38/38 47/47/47 39/39/39
f 39/39/39 47/47/47 48/48/48
f 39/39/39 48/48/48 49/49/49
f 39/39/39 49/49/49 40/40/40
f 40/40/40 49/49/49 41/41/41
f 41/41/41 49/49/49 50/50/50
f 41/41/41 50/50/50 51/51/51
f 41/41/41 51/51/51 42/42/42
f 42/42/42 51/51/51 43/43/43
f 43/43/43 51/51/51 52/52/52
f 43/43/43 52/52/52 53/53/53
f 43/43/43 53/53/53 44/44/44
f 44/44/44 53/53/53 45/45/45
f 45/45/45 53/53/53 54/54/54
f 46/46/46 55/55/55 47/47/47
f 47/47/47 55/55/55 56/56/56
f 47/47/47 56/56/56 57/57/57
f 47/47/47 57/57/57 48/48/48
f 48/48/48 57/57/57 49/49/49
f 49/49/49 57/57/57 58/58/58
f 49/49/49 58/58/58 59/59/59
f 49/49/49 59/59/59 50/50/50
f 50/50/50 59/59/59 51/51/51
f 51/51/51 59/59/59 60/60/60
f 51/51/51 60/60/60 61/61/61
f 51/51/51 61/61/61 52/52/52
f 52/52/52 61/61/61 53/53/53
f 53/53/53 61/61/61 62/62/62
f 53/53/53 62/62/62 63/63/63
f 53/53/53 63/63/63 54/54/54
f 55/55/55 64/64/64 65/65/65
f 55/55/55 65/65/65 56/56/56
f 56/56/56 65/65/65 57/57/57
f 57/57/57 65/65/65 66/66/66
f 57/57/57 66/66/66 67/67/67
f 57/57/57 67/67/67 58/58/58
f 58/58/58 67/67/67 59/59/59
f 59/59/59 67/67/67 68/68/68
f 59/59/59 68/68/68 69/69/69
f 59/59/59 69/69/69 60/60/60
f 60/60/60 69/69/69 61/61/61
f 61/61/61 69/69/69 70/70/70
f 61/61/61 70/70/70 71/71/71
f 61/61/61 71/71/71 62/62/62
f 62/62/62 71/71/71 63/63/63
f 63/63/63 71/71/71 72/72/72
f 64/64/64 73/73/73 65/65/65
f 65/65/65 73/73/73 74/74/74
f 65/65/65 74/74/74 75/75/75
f 65/65/65 75/75/75 66/66/66
f 66/66/66 75/75/75 67/67/67
f 67/67/67 75/75/75 76/76/76
f 67/67/67 76/76/76 77/77/77
f 67/67/67 77/77/77 68/68/68
f 68/68/68 77/77/77 69/69/69
f 69/69/69 77/77/77 78/78/78
f 69/69/69 78/78/78 79/79/79
f 69/69/69 79/79/79 70/70/70
f 70/70/70 79/79/79 71/71/71
f 71/71/71 79/79/79 80/80/80
f 71/71/71 80/80/80 81/81/81
f 71/71/71 81/81/81 72/72/72
