# Generated by tools/generate_island.py. Do not edit by hand.
o terrain_lod2_0_2

v 0.000 -7.674 128.000 0.504 0.473 0.278
v 0.000 -8.000 136.000 0.480 0.449 0.262
v 8.000 -8.000 136.000 0.527 0.497 0.293
v 8.000 -7.476 128.000 0.511 0.481 0.283
v 16.000 -6.694 128.000 0.526 0.496 0.293
v 16.000 -8.000 136.000 0.541 0.512 0.302
v 24.000 -7.708 136.000 0.560 0.531 0.315
v 24.000 -5.563 128.000 0.536 0.506 0.299
v 32.000 -5.141 128.000 0.528 0.498 0.294
v 32.000 -7.080 136.000 0.526 0.497 0.293
v 40.000 -7.197 136.000 0.504 0.474 0.278
v 40.000 -4.720 128.000 0.526 0.496 0.292
v 48.000 -5.342 128.000 0.530 0.501 0.295
v 48.000 -7.531 136.000 0.510 0.479 0.282
v 56.000 -8.000 136.000 0.530 0.500 0.295
v 56.000 -6.193 128.000 0.550 0.521 0.309
v 64.000 -6.575 128.000 0.543 0.514 0.304
v 64.000 -8.000 136.000 0.542 0.513 0.303
v 0.000 -8.000 144.000 0.479 0.448 0.262
v 8.000 -8.000 144.000 0.515 0.485 0.285
v 16.000 -8.000 144.000 0.527 0.497 0.293
v 24.000 -8.000 144.000 0.510 0.480 0.282
v 32.000 -8.000 144.000 0.488 0.457 0.267
v 40.000 -8.000 144.000 0.470 0.439 0.256
v 48.000 -8.000 144.000 0.481 0.450 0.263
v 56.000 -8.000 144.000 0.503 0.473 0.278
v 64.000 -8.000 144.000 0.510 0.479 0.282
v 0.000 -8.000 152.000 0.486 0.455 0.266
v 8.000 -8.000 152.000 0.511 0.481 0.283
v 16.000 -8.000 152.000 0.520 0.490 0.289
v 24.000 -8.000 152.000 0.495 0.464 0.272
v 32.000 -8.000 152.000 0.477 0.446 0.261
v 40.000 -8.000 152.000 0.476 0.445 0.260
v 48.000 -8.000 152.000 0.487 0.456 0.266
v 56.000 -8.000 152.000 0.492 0.461 0.270
v 64.000 -8.000 152.000 0.509 0.479 0.281
v 0.000 -8.000 160.000 0.470 0.438 0.256
v 8.000 -8.000 160.000 0.488 0.457 0.267
v 16.000 -8.000 160.000 0.514 0.484 0.285
v 24.000 -8.000 160.000 0.487 0.456 0.267
v 32.000 -8.000 160.000 0.494 0.463 0.271
v 40.000 -8.000 160.000 0.486 0.455 0.266
v 48.000 -8.000 160.000 0.488 0.457 0.267
v 56.000 -8.000 160.000 0.499 0.469 0.275
v 64.000 -8.000 160.000 0.497 0.466 0.273
v 0.000 -8.000 168.000 0.492 0.461 0.270
v 8.000 -8.000 168.000 0.486 0.455 0.266
v 16.000 -8.000 168.000 0.488 0.457 0.268
v 24.000 -8.000 168.000 0.490 0.459 0.269
v 32.000 -8.000 168.000 0.485 0.454 0.265
v 40.000 -8.000 168.000 0.464 0.432 0.251
v 48.000 -8.000 168.000 0.475 0.443 0.259
v 56.000 -8.000 168.000 0.497 0.467 0.274
v 64.000 -8.000 168.000 0.505 0.475 0.279
v 0.000 -8.000 176.000 0.456 0.424 0.247
v 8.000 -8.000 176.000 0.465 0.433 0.252
v 16.000 -8.000 176.000 0.468 0.436 0.254
v 24.000 -8.000 176.000 0.470 0.439 0.256
v 32.000 -8.000 176.000 0.455 0.423 0.246
v 40.000 -8.000 176.000 0.452 0.420 0.244
v 48.000 -8.000 176.000 0.475 0.444 0.259
v 56.000 -8.000 176.000 0.503 0.473 0.277
v 64.000 -8.000 176.000 0.494 0.463 0.271
v 0.000 -8.000 184.000 0.406 0.372 0.213
v 8.000 -8.000 184.000 0.445 0.413 0.239
v 16.000 -8.000 184.000 0.452 0.420 0.244
v 24.000 -8.000 184.000 0.447 0.415 0.240
v 32.000 -8.000 184.000 0.437 0.405 0.234
v 40.000 -8.000 184.000 0.437 0.405 0.234
v 48.000 -8.000 184.000 0.451 0.419 0.243
v 56.000 -8.000 184.000 0.454 0.422 0.245
v 64.000 -8.000 184.000 0.484 0.453 0.265
v 0.000 -8.000 192.000 0.371 0.337 0.191
v 8.000 -8.000 192.000 0.419 0.386 0.222
v 16.000 -8.000 192.000 0.438 0.406 0.235
v 24.000 -8.000 192.000 0.460 0.429 0.249
v 32.000 -8.000 192.000 0.472 0.441 0.257
v 40.000 -8.000 192.000 0.451 0.419 0.243
v 48.000 -8.000 192.000 0.442 0.410 0.237
v 56.000 -8.000 192.000 0.441 0.409 0.237
v 64.000 -8.000 192.000 0.461 0.429 0.250

vt 0.500000 0.233333
vt 0.500000 0.216667
vt 0.516667 0.216667
vt 0.516667 0.233333
vt 0.533333 0.233333
vt 0.533333 0.216667
vt 0.550000 0.216667
vt 0.550000 0.233333
vt 0.566667 0.233333
vt 0.566667 0.216667
vt 0.583333 0.216667
vt 0.583333 0.233333
vt 0.600000 0.233333
vt 0.600000 0.216667
vt 0.616667 0.216667
vt 0.616667 0.233333
vt 0.633333 0.233333
vt 0.633333 0.216667
vt 0.500000 0.200000
vt 0.516667 0.200000
vt 0.533333 0.200000
vt 0.550000 0.200000
vt 0.566667 0.200000
vt 0.583333 0.200000
vt 0.600000 0.200000
vt 0.616667 0.200000
vt 0.633333 0.200000
vt 0.500000 0.183333
vt 0.516667 0.183333
vt 0.533333 0.183333
vt 0.550000 0.183333
vt 0.566667 0.183333
vt 0.583333 0.183333
vt 0.600000 0.183333
vt 0.616667 0.183333
vt 0.633333 0.183333
vt 0.500000 0.166667
vt 0.516667 0.166667
vt 0.533333 0.166667
vt 0.550000 0.166667
vt 0.566667 0.166667
vt 0.583333 0.166667
vt 0.600000 0.166667
vt 0.616667 0.166667
vt 0.633333 0.166667
vt 0.500000 0.150000
vt 0.516667 0.150000
vt 0.533333 0.150000
vt 0.550000 0.150000
vt 0.566667 0.150000
vt 0.583333 0.150000
vt 0.600000 0.150000
vt 0.616667 0.150000
vt 0.633333 0.150000
vt 0.500000 0.133333
vt 0.516667 0.133333
vt 0.533333 0.133333
vt 0.550000 0.133333
vt 0.566667 0.133333
vt 0.583333 0.133333
vt 0.600000 0.133333
vt 0.616667 0.133333
vt 0.633333 0.133333
vt 0.500000 0.116667
vt 0.516667 0.116667
vt 0.533333 0.116667
vt 0.550000 0.116667
vt 0.566667 0.116667
vt 0.583333 0.116667
vt 0.600000 0.116667
vt 0.616667 0.116667
vt 0.633333 0.116667
vt 0.500000 0.100000
vt 0.516667 0.100000
vt 0.533333 0.100000
vt 0.550000 0.100000
vt 0.566667 0.100000
vt 0.583333 0.100000
vt 0.600000 0.100000
vt 0.616667 0.100000
vt 0.633333 0.100000

vn -0.01238 0.99851 0.05308
vn 0.00000 0.99979 0.02038
vn -0.01530 0.99901 0.04186
vn -0.06102 0.99600 0.06530
vn -0.06780 0.98438 0.16248
vn -0.01818 0.99652 0.08136
vn -0.05240 0.98881 0.13964
vn -0.09330 0.96168 0.25782
vn -0.04087 0.96568 0.25651
vn -0.03141 0.98393 0.17579
vn 0.01692 0.98252 0.18539
vn 0.01200 0.95518 0.29579
vn 0.06848 0.96300 0.26067
vn 0.04943 0.98528 0.16365
vn 0.03365 0.99228 0.11934
vn 0.07494 0.97268 0.21974
vn 0.02342 0.97993 0.19796
vn 0.00000 0.99606 0.08870
vn 0.00000 1.00000 0.00000
vn 0.00000 1.00000 0.00000
vn -0.00456 0.99998 0.00456
vn 0.00000 0.99983 0.01824
vn -0.00797 0.99892 0.04579
vn 0.00000 0.99874 0.05010
vn 0.01254 0.99955 0.02719
vn 0.00000 1.00000 0.00000
vn 0.00000 1.00000 0.00000
vn 0.00000 1.00000 0.00000
vn 0.00000 1.00000 0.00000
vn 0.00000 1.00000 0.00000
vn 0.00000 1.00000 0.00000
vn 0.00000 1.00000 0.00000
vn 0.00000 1.00000 0.00000
vn 0.00000 1.00000 0.00000
vn 0.00000 1.00000 0.00000
vn 0.00000 1.00000 0.00000
vn 0.00000 1.00000 0.00000
vn 0.00000 1.00000 0.00000
vn 0.00000 1.00000 0.00000
vn 0.00000 1.00000 0.00000
vn 0.00000 1.00000 0.00000
vn 0.00000 1.00000 0.00000
vn 0.00000 1.00000 0.00000
vn 0.00000 1.00000 0.00000
vn 0.00000 1.00000 0.00000
vn 0.00000 1.00000 0.00000
vn 0.00000 1.00000 0.00000
vn 0.00000 1.00000 0.00000
vn 0.00000 1.00000 0.00000
vn 0.00000 1.00000 0.00000
vn 0.00000 1.00000 0.00000
vn 0.00000 1.00000 0.00000
vn 0.00000 1.00000 0.00000
vn 0.00000 1.00000 0.00000
vn 0.00000 1.00000 0.00000
vn 0.00000 1.00000 0.00000
vn 0.00000 1.00000 0.00000
vn 0.00000 1.00000 0.00000
vn 0.00000 1.00000 0.00000
vn 0.00000 1.00000 0.00000
vn 0.00000 1.00000 0.00000
vn 0.00000 1.00000 0.00000
vn 0.00000 1.00000 0.00000
vn 0.00000 1.00000 0.00000
vn 0.00000 1.00000 0.00000
vn 0.00000 1.00000 0.00000
vn 0.00000 1.00000 0.00000
vn 0.00000 1.00000 0.00000
vn 0.00000 1.00000 0.00000
vn 0.00000 1.00000 0.00000
vn 0.00000 1.00000 0.00000
vn 0.00000 1.00000 0.00000
vn 0.00000 1.00000 0.00000
vn 0.00000 1.00000 0.00000
vn 0.00000 1.00000 0.00000
vn 0.00000 1.00000 0.00000
vn 0.00000 1.00000 0.00000
vn 0.00000 1.00000 0.00000
vn 0.00000 1.00000 0.00000
vn 0.00000 1.00000 0.00000
vn 0.00000 1.00000 0.00000

f 1/1/1 2/2/2 3/3/3
f 1/1/1 3/3/3 4/4/4
f 4/4/4 3/3/3 5/5/5
f 5/5/5 3/3/3 6/6/6
f 5/5/5 6/6/6 7/7/7
f 5/5/5 7/7/7 8/8/8
f 8/8/8 7/7/7 9/9/9
f 9/9/9 7/7/7 10/10/10
f 9/9/9 10/10/10 11/11/11
f 9/9/9 11/11/11 12/12/12
f 12/12/12 11/11/11 13/13/13
f 13/13/13 11/11/11 14/14/14
f 13/13/13 14/14/14 15/15/15
f 13/13/13 15/15/15 16/16/16
f 16/16/16 15/15/15 17/17/17
f 17/17/17 15/15/15 18/18/18
f 2/2/2 19/19/19 3/3/3
f 3/3/3 19/19/19 20/20/20
f 3/3/3 20/20/20 21/21/21
f 3/3/3 21/21/21 6/6/6
f 6/6/6 21/21/21 7/7/7
f 7/7/7 21/21/21 22/22/22
f 7/7/7 22/22/22 23/23/23
f 7/7/7 23/23/23 10/10/10
f 10/10/10 23/23/23 11/11/11
f 11/11/11 23/23/23 24/24/24
f 11/11/11 24/24/24 25/25/25
f 11/11/11 25/25/25 14/14/14
f 14/14/14 25/25/25 15/15/15
f 15/15/15 25/25/25 26/26/26
f 15/15/15 26/26/26 27/27/27
f 15/15/15 27/27/27 18/18/18
f 19/19/19 28/28/28 29/29/29
f 19/19/19 29/29/29 20/20/20
f 20/20/20 29/29/29 21/21/21
f 21/21/21 29/29/29 30/30/30
f 21/21/21 30/30/30 31/31/31
f 21/21/21 31/31/31 22/22/22
f 22/22/22 31/31/31 23/23/23
f 23/23/23 31/31/31 32/32/32
f 23/23/23 32/32/32 33/33/33
f 23/23/23 33/33/33 24/24/24
f 24/24/24 33/33/33 25/25/25
f 25/25/25 33/33/33 34/34/34
f 25/25/25 34/34/34 35/35/35
f 25/25/25 35/35/35 26/26/26
f 26/26/26 35/35/35 27/27/27
f 27/27/27 35/35/35 36/36/36
f 28/28/28 37/37/37 29/29/29
f 29/29/29 37/37/37 38/38/38
f 29/29/29 38/38/38 39/39/39
f 29/29/29 39/39/39 30/30/30
f 30/30/30 39/39/39 31/31/31
f 31/31/31 39/39/39 40/40/40
f 31/31/31 40/40/40 41/41/41
f 31/31/31 41/41/41 32/32/32
f 32/32/32 41/41/41 33/33/33
f 33/33/33 41/41/41 42/42/42
f 33/33/33 42/42/42 43/43/43
f 33/33/33 43/43/43 34/34/34
f 34/34/34 43/43/43 35/35/35
f 35/35/35 43/43/43 44/44/44
f 35/35/35 44/44/44 45/45/45
f 35/35/35 45/45/45 36/36/36
f 37/37/37 46/46/46 47/47/47
f 37/37/37 47/47/47 38/38/38
f 38/38/38 47/47/47 39/39/39
f 39/39/39 47/47/47 48/48/48
f 39/39/39 48/48/48 49/49/49
f 39/39/39 49/49/49 40/40/40
f 40/40/40 49/49/49 41/41/41
f 41/41/41 49/49/49 50/50/50
f 41/41/41 50/50/50 51/51/51
f 41/41/41 51/51/51 42/42/42
f 42/42/42 51/51/51 43/43/43
f 43/43/43 51/51/51 52/52/52
f 43/43/43 52/52/52 53/53/53
f 43/43/43 53/53/53 44/44/44
f 44/44/44 53/53/53 45/45/45
f 45/45/45 53/53/53 54/54/54
f 46/46/46 55/55/55 47/47/47
f 47/47/47 55/55/55 56/56/56
f 47/47/47 56/56/56 57/57/57
f 47/47/47 57/57/57 48/48/48
f 48/48/48 57/57/57 49/49/49
f 49/49/49 57/57/57 58/58/58
f 49/49/49 58/58/58 59/59/59
f 49/49/49 59/59/59 50/50/50
f 50/50/50 59/59/59 51/51/51
f 51/51/51 59/59/59 60/60/60
f 51/51/51 60/60/60 61/61/61
f 51/51/51 61/61/61 52/52/52
f 52/52/52 61/61/61 53/53/53
f 53/53/53 61/61/61 62/62/62
f 53/53/53 62/62/62 63/63/63
f 53/53/53 63/63/63 54/54/54
f 55/55/55 64/64/64 65/65/65
f 55/55/55 65/65/65 56/56/56
f 56/56/56 65/65/65 57/57/57
f 57/57/57 65/65/65 66/66/66
f 57/57/57 66/66/66 67/67/67
f 57/57/57 67/67/67 58/58/58
f 58/58/58 67/67/67 59/59/59
f 59/59/59 67/67/67 68/68/68
f 59/59/59 68/68/68 69/69/69
f 59/59/59 69/69/69 60/60/60
f 60/60/60 69/69/69 61/61/61
f 61/61/61 69/69/69 70/70/70
f 61/61/61 70/70/70 71/71/71
f 61/61/61 71/71/71 62/62/62
f 62/62/62 71/71/71 63/63/63
f 63/63/63 71/71/71 72/72/72
f 64/64/64 73/73/73 65/65/65
f 65/65/65 73/73/73 74/74/74
f 65/65/65 74/74/74 75/75/75
f 65/65/65 75/75/75 66/66/66
f 66/66/66 75/75/75 67/67/67
f 67/67/67 75/75/75 76/76/76
f 67/67/67 76/76/76 77/77/77
f 67/67/67 77/77/77 68/68/68
f 68/68/68 77/77/77 69/69/69
f 69/69/69 77/77/77 78/78/78
f 69/69/69 78/78/78 79/79/79
f 69/69/69 79/79/79 70/70/70
f 70/70/70 79/79/79 71/71/71
f 71/71/71 79/79/79 80/80/80
f 71/71/71 80/80/80 81/81/81
f 71/71/71 81/81/81 72/72/72
