# Generated by tools/generate_island.py. Do not edit by hand.
o terrain_lod2_-4_4

v -512.000 -8.263 512.000 0.455 0.423 0.246
v -512.000 -8.853 528.000 0.481 0.450 0.263
v -496.000 -8.845 528.000 0.469 0.437 0.255
v -496.000 -7.875 512.000 0.454 0.422 0.245
v -480.000 -7.706 512.000 0.470 0.439 0.256
v -480.000 -8.177 528.000 0.479 0.448 0.262
v -464.000 -7.119 528.000 0.508 0.478 0.281
v -464.000 -6.828 512.000 0.501 0.470 0.276
v -448.000 -6.233 512.000 0.557 0.529 0.313
v -448.000 -7.108 528.000 0.539 0.510 0.301
v -432.000 -6.653 528.000 0.511 0.481 0.283
v -432.000 -6.023 512.000 0.518 0.488 0.287
v -416.000 -5.467 512.000 0.459 0.427 0.248
v -416.000 -5.983 528.000 0.469 0.438 0.255
v -400.000 -5.999 528.000 0.445 0.412 0.239
v -400.000 -5.366 512.000 0.433 0.400 0.231
v -384.000 -5.316 512.000 0.475 0.443 0.259
v -384.000 -5.667 528.000 0.438 0.406 0.235
v -512.000 -9.376 544.000 0.525 0.495 0.292
v -496.000 -9.292 544.000 0.480 0.448 0.262
v -480.000 -8.657 544.000 0.521 0.492 0.290
v -464.000 -8.248 544.000 0.558 0.530 0.314
v -448.000 -7.803 544.000 0.547 0.518 0.307
v -432.000 -6.858 544.000 0.494 0.463 0.271
v -416.000 -6.804 544.000 0.496 0.466 0.273
v -400.000 -6.993 544.000 0.430 0.397 0.229
v -384.000 -6.524 544.000 0.408 0.375 0.215
v -512.000 -10.800 560.000 0.561 0.532 0.316
v -496.000 -9.912 560.000 0.585 0.557 0.331
v -480.000 -8.762 560.000 0.510 0.480 0.282
v -464.000 -9.105 560.000 0.480 0.449 0.262
v -448.000 -8.828 560.000 0.484 0.453 0.265
v -432.000 -8.159 560.000 0.476 0.445 0.260
v -416.000 -7.967 560.000 0.451 0.419 0.243
v -400.000 -7.301 560.000 0.433 0.400 0.231
v -384.000 -6.820 560.000 0.397 0.364 0.208
v -512.000 -10.800 576.000 0.539 0.510 0.301
v -496.000 -10.630 576.000 0.569 0.540 0.321
v -480.000 -10.363 576.000 0.480 0.449 0.262
v -464.000 -10.284 576.000 0.486 0.455 0.266
v -448.000 -9.081 576.000 0.453 0.421 0.245
v -432.000 -8.906 576.000 0.428 0.395 0.228
v -416.000 -8.981 576.000 0.425 0.393 0.226
v -400.000 -8.264 576.000 0.383 0.349 0.198
v -384.000 -8.063 576.000 0.400 0.366 0.210
v -512.000 -10.800 592.000 0.480 0.449 0.262
v -496.000 -10.800 592.000 0.456 0.424 0.246
v -480.000 -10.800 592.000 0.434 0.401 0.232
v -464.000 -10.800 592.000 0.472 0.440 0.257
v -448.000 -10.108 592.000 0.471 0.439 0.256
v -432.000 -10.143 592.000 0.429 0.397 0.229
v -416.000 -9.529 592.000 0.401 0.368 0.210
v -400.000 -8.975 592.000 0.412 0.378 0.217
v -384.000 -9.005 592.000 0.376 0.342 0.194
v -512.000 -10.800 608.000 0.427 0.394 0.227
v -496.000 -10.800 608.000 0.438 0.405 0.234
v -480.000 -10.800 608.000 0.447 0.415 0.241
v -464.000 -10.800 608.000 0.485 0.454 0.265
v -448.000 -10.800 608.000 0.478 0.447 0.261
v -432.000 -10.770 608.000 0.454 0.422 0.245
v -416.000 -9.994 608.000 0.401 0.367 0.210
v -400.000 -10.122 608.000 0.419 0.386 0.222
v -384.000 -9.992 608.000 0.421 0.388 0.224
v -512.000 -10.800 624.000 0.406 0.372 0.213
v -496.000 -10.800 624.000 0.458 0.426 0.248
v -480.000 -10.800 624.000 0.479 0.448 0.262
v -464.000 -10.800 624.000 0.514 0.484 0.285
v -448.000 -10.800 624.000 0.504 0.473 0.278
v -432.000 -10.800 624.000 0.453 0.421 0.244
v -416.000 -10.800 624.000 0.403 0.369 0.211
v -400.000 -10.800 624.000 0.436 0.403 0.233
v -384.000 -10.291 624.000 0.423 0.390 0.224
v -512.000 -10.800 640.000 0.416 0.382 0.220
v -496.000 -10.800 640.000 0.454 0.422 0.245
v -480.000 -10.800 640.000 0.427 0.394 0.227
v -464.000 -10.800 640.000 0.439 0.407 0.236
v -448.000 -10.800 640.000 0.442 0.409 0.237
v -432.000 -10.800 640.000 0.430 0.397 0.229
v -416.000 -10.800 640.000 0.449 0.417 0.242
v -400.000 -10.800 640.000 0.434 0.401 0.232
v -384.000 -10.800 640.000 0.446 0.414 0.240

vt 0.233333 0.233333
vt 0.233333 0.225000
vt 0.241667 0.225000
vt 0.241667 0.233333
vt 0.250000 0.233333
vt 0.250000 0.225000
vt 0.258333 0.225000
vt 0.258333 0.233333
vt 0.266667 0.233333
vt 0.266667 0.225000
vt 0.275000 0.225000
vt 0.275000 0.233333
vt 0.283333 0.233333
vt 0.283333 0.225000
vt 0.291667 0.225000
vt 0.291667 0.233333
vt 0.300000 0.233333
vt 0.300000 0.225000
vt 0.233333 0.216667
vt 0.241667 0.216667
vt 0.250000 0.216667
vt 0.258333 0.216667
vt 0.266667 0.216667
vt 0.275000 0.216667
vt 0.283333 0.216667
vt 0.291667 0.216667
vt 0.300000 0.216667
vt 0.233333 0.208333
vt 0.241667 0.208333
vt 0.250000 0.208333
vt 0.258333 0.208333
vt 0.266667 0.208333
vt 0.275000 0.208333
vt 0.283333 0.208333
vt 0.291667 0.208333
vt 0.300000 0.208333
vt 0.233333 0.200000
vt 0.241667 0.200000
vt 0.250000 0.200000
vt 0.258333 0.200000
vt 0.266667 0.200000
vt 0.275000 0.200000
vt 0.283333 0.200000
vt 0.291667 0.200000
vt 0.300000 0.200000
vt 0.233333 0.191667
vt 0.241667 0.191667
vt 0.250000 0.191667
vt 0.258333 0.191667
vt 0.266667 0.191667
vt 0.275000 0.191667
vt 0.283333 0.191667
vt 0.291667 0.191667
vt 0.300000 0.191667
vt 0.233333 0.183333
vt 0.241667 0.183333
vt 0.250000 0.183333
vt 0.258333 0.183333
vt 0.266667 0.183333
vt 0.275000 0.183333
vt 0.283333 0.183333
vt 0.291667 0.183333
vt 0.300000 0.183333
vt 0.233333 0.175000
vt 0.241667 0.175000
vt 0.250000 0.175000
vt 0.258333 0.175000
vt 0.266667 0.175000
vt 0.275000 0.175000
vt 0.283333 0.175000
vt 0.291667 0.175000
vt 0.300000 0.175000
vt 0.233333 0.166667
vt 0.241667 0.166667
vt 0.250000 0.166667
vt 0.258333 0.166667
vt 0.266667 0.166667
vt 0.275000 0.166667
vt 0.283333 0.166667
vt 0.291667 0.166667
vt 0.300000 0.166667

vn -0.01239 0.99874 0.04868
vn -0.00054 0.99940 0.03474
vn -0.02052 0.99906 0.03822
vn -0.01737 0.99802 0.06048
vn -0.04327 0.99847 0.03433
vn -0.05384 0.99811 0.02965
vn -0.03483 0.99852 0.04182
vn -0.04598 0.99878 0.01814
vn -0.01983 0.99893 0.04168
vn -0.01452 0.99869 0.04900
vn -0.03133 0.99887 0.03572
vn -0.02392 0.99894 0.03935
vn -0.02047 0.99915 0.03585
vn -0.02043 0.99892 0.04173
vn -0.00830 0.99894 0.04525
vn -0.00471 0.99921 0.03952
vn -0.01194 0.99946 0.03072
vn -0.02075 0.99907 0.03771
vn -0.01659 0.99876 0.04704
vn -0.02244 0.99919 0.03334
vn -0.03606 0.99881 0.03298
vn -0.02662 0.99772 0.06195
vn -0.03267 0.99800 0.05406
vn -0.03119 0.99841 0.04698
vn -0.00970 0.99856 0.05285
vn -0.00873 0.99913 0.04066
vn -0.02733 0.99889 0.03832
vn -0.05533 0.99748 0.04440
vn -0.04079 0.99814 0.04527
vn -0.02517 0.99827 0.05320
vn -0.01562 0.99836 0.05504
vn -0.02954 0.99877 0.03988
vn -0.02201 0.99802 0.05886
vn -0.02674 0.99734 0.06786
vn -0.02724 0.99844 0.04883
vn -0.03005 0.99839 0.04803
vn -0.01918 0.99972 0.01386
vn -0.01366 0.99952 0.02772
vn -0.01168 0.99858 0.05194
vn -0.03997 0.99780 0.05284
vn -0.03401 0.99824 0.04864
vn -0.00312 0.99808 0.06189
vn -0.02580 0.99827 0.05290
vn -0.02863 0.99822 0.05223
vn -0.01331 0.99810 0.06020
vn 0.00000 1.00000 0.00000
vn -0.00342 0.99998 0.00608
vn 0.00000 0.99991 0.01367
vn -0.02082 0.99947 0.02489
vn -0.02049 0.99835 0.05363
vn -0.01610 0.99860 0.05041
vn -0.03645 0.99883 0.03163
vn -0.01535 0.99853 0.05194
vn 0.00185 0.99819 0.06015
vn 0.00000 1.00000 0.00000
vn 0.00000 1.00000 0.00000
vn 0.00000 1.00000 0.00000
vn 0.00000 1.00000 0.00000
vn -0.00560 0.99986 0.01595
vn -0.02517 0.99947 0.02052
vn -0.01923 0.99905 0.03921
vn -0.00008 0.99838 0.05693
vn -0.01155 0.99875 0.04854
vn 0.00000 1.00000 0.00000
vn 0.00000 1.00000 0.00000
vn 0.00000 1.00000 0.00000
vn 0.00000 1.00000 0.00000
vn 0.00000 1.00000 0.00000
vn -0.00629 0.99996 0.00676
vn 0.00000 0.99968 0.02517
vn -0.00797 0.99970 0.02320
vn -0.03179 0.99918 0.02524
vn 0.00000 1.00000 0.00000
vn 0.00000 1.00000 0.00000
vn 0.00000 1.00000 0.00000
vn 0.00000 1.00000 0.00000
vn 0.00000 1.00000 0.00000
vn 0.00000 1.00000 0.00000
vn 0.00000 1.00000 0.00000
vn 0.00000 1.00000 0.00000
vn -0.01590 0.99975 0.01590

f 1/1/1 2/2/2 3/3/3
f 1/1/1 3/3/3 4/4/4
f 4/4/4 3/3/3 5/5/5
f 5/5/5 3/3/3 6/6/6
f 5/5/5 6/6/6 7/7/7
f 5/5/5 7/7/7 8/8/8
f 8/8/8 7/7/7 9/9/9
f 9/9/9 7/7/7 10/10/10
f 9/9/9 10/10/10 11/11/11
f 9/9/9 11/11/11 12/12/12
f 12/12/12 11/11/11 13/13/13
f 13/13/13 11/11/11 14/14/14
f 13/13/13 14/14/14 15/15/15
f 13/13/13 15/15/15 16/16/16
f 16/16/16 15/15/15 17/17/17
f 17/17/17 15/15/15 18/18/18
f 2/2/2 19/19/19 3/3/3
f 3/3/3 19/19/19 20/20/20
f 3/3/3 20/20/20 21/21/21
f 3/3/3 21/21/21 6/6/6
f 6/6/6 21/21/21 7/7/7
f 7/7/7 21/21/21 22/22/22
f 7/7/7 22/22/22 23/23/23
f 7/7/7 23/23/23 10/10/10
f 10/10/10 23/23/23 11/11/11
f 11/11/11 23/23/23 24/24/24
f 11/11/11 24/24/24 25/25/25
f 11/11/11 25/25/25 14/14/14
f 14/14/14 25/25/25 15/15/15
f 15/15/15 25/25/25 26/26/26
f 15/15/15 26/26/26 27/27/27
f 15/15/15 27/27/27 18/18/18
f 19/19/19 28/28/28 29/29/29
f 19/19/19 29/29/29 20/20/20
f 20/20/20 29/29/29 21/21/21
f 21/21/21 29/29/29 30/30/30
f 21/21/21 30/30/30 31/31/31
f 21/21/21 31/31/31 22/22/22
f 22/22/22 31/31/31 23/23/23
f 23/23/23 31/31/31 32/32/32
f 23/23/23 32/32/32 33/33/33
f 23/23/23 33/33/33 24/24/24
f 24/24/24 33/33/33 25/25/25
f 25/25/25 33/33/33 34/34/34
f 25/25/25 34/34/34 35/35/35
f 25/25/25 35/35/35 26/26/26
f 26/26/26 35/35/35 27/27/27
f 27/27/27 35/35/35 36/36/36
f 28/28/28 37/37/37 29/29/29
f 29/29/29 37/37/37 38/38/38
f 29/29/29 38/38/38 39/39/39
f 29/29/29 39/39/39 30/30/30
f 30/30/30 39/39/39 31/31/31
f 31/31/31 39/39/39 40/40/40
f 31/31/31 40/40/40 41/41/41
f 31/31/31 41/41/41 32/32/32
f 32/32/32 41/41/41 33/33/33
f 33/33/33 41/41/41 42/42/42
f 33/33/33 42/42/42 43/43/43
f 33/33/33 43/43/43 34/34/34
f 34/34/34 43/43/43 35/35/35
f 35/35/35 43/43/43 44/44/44
f 35/35/35 44/44/44 45/45/45
f 35/35/35 45/45/45 36/36/36
f 37/37/37 46/46/46 47/47/47
f 37/37/37 47/47/47 38/38/38
f 38/38/38 47/47/47 39/39/39
f 39/39/39 47/47/47 48/48/48
f 39/39/39 48/48/48 49/49/49
f 39/39/39 49/49/49 40/40/40
f 40/40/40 49/49/49 41/41/41
f 41/41/41 49/49/49 50/50/50
f 41/41/41 50/50/50 51/51/51
f 41/41/41 51/51/51 42/42/42
f 42/42/42 51/51/51 43/43/43
f 43/43/43 51/51/51 52/52/52
f 43/43/43 52/52/52 53/53/53
f 43/43/43 53/53/53 44/44/44
f 44/44/44 53/53/53 45/45/45
f 45/45/45 53/53/53 54/54/54
f 46/46/46 55/55/55 47/47/47
f 47/47/47 55/55/55 56/56/56
f 47/47/47 56/56/56 57/57/57
f 47/47/47 57/57/57 48/48/48
f 48/48/48 57/57/57 49/49/49
f 49/49/49 57/57/57 58/58/58
f 49/49/49 58/58/58 59/59/59
f 49/49/49 59/59/59 50/50/50
f 50/50/50 59/59/59 51/51/51
f 51/51/51 59/59/59 60/60/60
f 51/51/51 60/60/60 61/61/61
f 51/51/51 61/61/61 52/52/52
f 52/52/52 61/61/61 53/53/53
f 53/53/53 61/61/61 62/62/62
f 53/53/53 62/62/62 63/63/63
f 53/53/53 63/63/63 54/54/54
f 55/55/55 64/64/64 65/65/65
f 55/55/55 65/65/65 56/56/56
f 56/56/56 65/65/65 57/57/57
f 57/57/57 65/65/65 66/66/66
f 57/57/57 66/66/66 67/67/67
f 57/57/57 67/67/67 58/58/58
f 58/58/58 67/67/67 59/59/59
f 59/59/59 67/67/67 68/68/68
f 59/59/59 68/68/68 69/69/69
f 59/59/59 69/69/69 60/60/60
f 60/60/60 69/69/69 61/61/61
f 61/61/61 69/69/69 70/70/70
f 61/61/61 70/70/70 71/71/71
f 61/61/61 71/71/71 62/62/62
f 62/62/62 71/71/71 63/63/63
f 63/63/63 71/71/71 72/72/72
f 64/64/64 73/73/73 65/65/65
f 65/65/65 73/73/73 74/74/74
f 65/65/65 74/74/74 75/75/75
f 65/65/65 75/75/75 66/66/66
f 66/66/66 75/75/75 67/67/67
f 67/67/67 75/75/75 76/76/76
f 67/67/67 76/76/76 77/77/77
f 67/67/67 77/77/77 68/68/68
f 68/68/68 77/77/77 69/69/69
f 69/69/69 77/77/77 78/78/78
f 69/69/69 78/78/78 79/79/79
f 69/69/69 79/79/79 70/70/70
f 70/70/70 79/79/79 71/71/71
f 71/71/71 79/79/79 80/80/80
f 71/71/71 80/80/80 81/81/81
f 71/71/71 81/81/81 72/72/72
