# Generated by tools/generate_island.py. Do not edit by hand.
o terrain_lod2_-2_1

v -128.000 -3.518 64.000 0.377 0.342 0.194
v -128.000 -3.855 72.000 0.408 0.375 0.215
v -120.000 -2.775 72.000 0.399 0.366 0.209
v -120.000 -2.060 64.000 0.361 0.326 0.184
v -112.000 -1.410 64.000 0.388 0.354 0.202
v -112.000 -1.819 72.000 0.403 0.369 0.211
v -104.000 -1.086 72.000 0.418 0.385 0.221
v -104.000 -0.388 64.000 0.427 0.395 0.228
v -96.000 0.679 64.000 0.469 0.437 0.255
v -96.000 0.212 72.000 0.432 0.400 0.231
v -88.000 0.602 72.000 0.454 0.422 0.245
v -88.000 0.765 64.000 0.486 0.455 0.266
v -80.000 2.380 64.000 0.229 0.307 0.113
v -80.000 1.211 72.000 0.460 0.429 0.249
v -72.000 1.805 72.000 0.203 0.287 0.104
v -72.000 4.582 64.000 0.206 0.289 0.105
v -64.000 3.107 64.000 0.205 0.288 0.105
v -64.000 1.413 72.000 0.201 0.285 0.104
v -128.000 -4.012 80.000 0.453 0.421 0.244
v -120.000 -3.257 80.000 0.456 0.424 0.246
v -112.000 -2.405 80.000 0.433 0.401 0.232
v -104.000 -1.675 80.000 0.397 0.363 0.208
v -96.000 -0.847 80.000 0.385 0.351 0.200
v -88.000 -0.250 80.000 0.390 0.356 0.203
v -80.000 -0.403 80.000 0.397 0.364 0.208
v -72.000 -0.209 80.000 0.432 0.400 0.231
v -64.000 -0.135 80.000 0.460 0.428 0.249
v -128.000 -4.899 88.000 0.445 0.413 0.239
v -120.000 -4.058 88.000 0.450 0.418 0.243
v -112.000 -3.589 88.000 0.438 0.405 0.234
v -104.000 -2.556 88.000 0.386 0.352 0.200
v -96.000 -1.946 88.000 0.373 0.338 0.192
v -88.000 -1.261 88.000 0.392 0.358 0.204
v -80.000 -0.718 88.000 0.393 0.359 0.205
v -72.000 -0.754 88.000 0.408 0.375 0.215
v -64.000 -0.307 88.000 0.434 0.402 0.232
v -128.000 -6.296 96.000 0.421 0.388 0.223
v -120.000 -5.224 96.000 0.431 0.399 0.230
v -112.000 -4.501 96.000 0.425 0.393 0.226
v -104.000 -3.416 96.000 0.386 0.352 0.200
v -96.000 -2.334 96.000 0.396 0.362 0.207
v -88.000 -1.908 96.000 0.420 0.387 0.223
v -80.000 -1.295 96.000 0.416 0.383 0.220
v -72.000 -1.332 96.000 0.429 0.396 0.228
v -64.000 -1.081 96.000 0.421 0.388 0.223
v -128.000 -7.294 104.000 0.375 0.341 0.193
v -120.000 -6.466 104.000 0.396 0.362 0.207
v -112.000 -5.252 104.000 0.386 0.352 0.200
v -104.000 -4.376 104.000 0.385 0.351 0.200
v -96.000 -3.271 104.000 0.396 0.362 0.207
v -88.000 -2.762 104.000 0.407 0.374 0.214
v -80.000 -2.566 104.000 0.435 0.403 0.233
v -72.000 -2.044 104.000 0.453 0.421 0.245
v -64.000 -1.731 104.000 0.466 0.435 0.253
v -128.000 -8.000 112.000 0.366 0.331 0.187
v -120.000 -7.962 112.000 0.389 0.355 0.203
v -112.000 -6.548 112.000 0.396 0.362 0.207
v -104.000 -5.393 112.000 0.394 0.360 0.205
v -96.000 -4.601 112.000 0.404 0.371 0.212
v -88.000 -3.650 112.000 0.416 0.383 0.220
v -80.000 -3.496 112.000 0.433 0.400 0.231
v -72.000 -2.825 112.000 0.467 0.435 0.254
v -64.000 -2.110 112.000 0.494 0.463 0.271
v -128.000 -8.000 120.000 0.361 0.326 0.184
v -120.000 -8.000 120.000 0.376 0.342 0.194
v -112.000 -7.901 120.000 0.396 0.362 0.207
v -104.000 -6.394 120.000 0.386 0.352 0.201
v -96.000 -5.768 120.000 0.407 0.373 0.214
v -88.000 -5.125 120.000 0.411 0.378 0.217
v -80.000 -4.630 120.000 0.444 0.412 0.239
v -72.000 -4.219 120.000 0.463 0.432 0.251
v -64.000 -3.287 120.000 0.470 0.438 0.256
v -128.000 -8.000 128.000 0.385 0.350 0.199
v -120.000 -8.000 128.000 0.390 0.356 0.203
v -112.000 -8.000 128.000 0.393 0.360 0.205
v -104.000 -7.983 128.000 0.371 0.336 0.190
v -96.000 -7.291 128.000 0.369 0.334 0.189
v -88.000 -7.129 128.000 0.388 0.354 0.202
v -80.000 -6.271 128.000 0.411 0.377 0.217
v -72.000 -5.692 128.000 0.427 0.394 0.227
v -64.000 -4.943 128.000 0.439 0.407 0.235

vt 0.233333 0.366667
vt 0.233333 0.350000
vt 0.250000 0.350000
vt 0.250000 0.366667
vt 0.266667 0.366667
vt 0.266667 0.350000
vt 0.283333 0.350000
vt 0.283333 0.366667
vt 0.300000 0.366667
vt 0.300000 0.350000
vt 0.316667 0.350000
vt 0.316667 0.366667
vt 0.333333 0.366667
vt 0.333333 0.350000
vt 0.350000 0.350000
vt 0.350000 0.366667
vt 0.366667 0.366667
vt 0.366667 0.350000
vt 0.233333 0.333333
vt 0.250000 0.333333
vt 0.266667 0.333333
vt 0.283333 0.333333
vt 0.300000 0.333333
vt 0.316667 0.333333
vt 0.333333 0.333333
vt 0.350000 0.333333
vt 0.366667 0.333333
vt 0.233333 0.316667
vt 0.250000 0.316667
vt 0.266667 0.316667
vt 0.283333 0.316667
vt 0.300000 0.316667
vt 0.316667 0.316667
vt 0.333333 0.316667
vt 0.350000 0.316667
vt 0.366667 0.316667
vt 0.233333 0.300000
vt 0.250000 0.300000
vt 0.266667 0.300000
vt 0.283333 0.300000
vt 0.300000 0.300000
vt 0.316667 0.300000
vt 0.333333 0.300000
vt 0.350000 0.300000
vt 0.366667 0.300000
vt 0.233333 0.283333
vt 0.250000 0.283333
vt 0.266667 0.283333
vt 0.283333 0.283333
vt 0.300000 0.283333
vt 0.316667 0.283333
vt 0.333333 0.283333
vt 0.350000 0.283333
vt 0.366667 0.283333
vt 0.233333 0.266667
vt 0.250000 0.266667
vt 0.266667 0.266667
vt 0.283333 0.266667
vt 0.300000 0.266667
vt 0.316667 0.266667
vt 0.333333 0.266667
vt 0.350000 0.266667
vt 0.366667 0.266667
vt 0.233333 0.250000
vt 0.250000 0.250000
vt 0.266667 0.250000
vt 0.283333 0.250000
vt 0.300000 0.250000
vt 0.316667 0.250000
vt 0.333333 0.250000
vt 0.350000 0.250000
vt 0.366667 0.250000
vt 0.233333 0.233333
vt 0.250000 0.233333
vt 0.266667 0.233333
vt 0.283333 0.233333
vt 0.300000 0.233333
vt 0.316667 0.233333
vt 0.333333 0.233333
vt 0.350000 0.233333
vt 0.366667 0.233333

vn -0.15631 0.98558 0.06483
vn -0.13374 0.99054 0.03059
vn -0.12058 0.99088 0.06010
vn -0.13010 0.98757 0.08824
vn -0.10421 0.99215 0.06913
vn -0.10479 0.99258 0.06172
vn -0.11921 0.98974 0.07879
vn -0.12899 0.98790 0.08616
vn -0.08830 0.99453 0.05575
vn -0.10445 0.99004 0.09444
vn -0.06430 0.99307 0.09837
vn -0.10572 0.99419 0.02022
vn -0.15298 0.97506 0.16080
vn -0.07390 0.98251 0.17089
vn -0.02121 0.97131 0.23685
vn -0.04287 0.94386 0.32755
vn 0.11170 0.95709 0.26742
vn 0.04805 0.97895 0.19836
vn -0.10635 0.99171 0.07209
vn -0.09961 0.99184 0.07951
vn -0.09833 0.99038 0.09738
vn -0.09651 0.99116 0.09106
vn -0.09013 0.98889 0.11819
vn -0.02759 0.99291 0.11558
vn -0.02777 0.99135 0.12826
vn -0.01652 0.98731 0.15793
vn -0.00626 0.99116 0.13254
vn -0.10354 0.98465 0.14055
vn -0.09291 0.98738 0.12826
vn -0.09267 0.98726 0.12931
vn -0.10823 0.98812 0.10907
vn -0.08036 0.99249 0.09221
vn -0.06121 0.99420 0.08843
vn -0.03160 0.99795 0.05563
vn -0.02031 0.99776 0.06367
vn -0.05569 0.99671 0.05896
vn -0.11703 0.98213 0.14739
vn -0.11027 0.98284 0.14790
vn -0.11115 0.98695 0.11648
vn -0.13337 0.98472 0.11199
vn -0.09181 0.99147 0.09250
vn -0.06454 0.99355 0.09324
vn -0.03692 0.99422 0.10080
vn -0.01327 0.99668 0.08038
vn -0.03921 0.99565 0.08446
vn -0.10240 0.98915 0.10535
vn -0.11265 0.98347 0.14179
vn -0.12849 0.98369 0.12587
vn -0.12417 0.98408 0.12714
vn -0.09935 0.98521 0.13963
vn -0.05502 0.99086 0.12315
vn -0.04440 0.98969 0.13618
vn -0.05077 0.99403 0.09657
vn -0.03901 0.99718 0.06411
vn -0.02819 0.99716 0.06982
vn -0.08996 0.99140 0.09507
vn -0.13546 0.98144 0.13573
vn -0.11985 0.98498 0.12428
vn -0.09799 0.98468 0.14425
vn -0.06818 0.98697 0.14572
vn -0.05062 0.98969 0.13400
vn -0.08552 0.98726 0.13418
vn -0.08275 0.98987 0.11539
vn 0.00000 1.00000 0.00000
vn -0.02578 0.99938 0.02386
vn -0.09944 0.99097 0.08992
vn -0.10638 0.98394 0.14333
vn -0.07803 0.98315 0.16530
vn -0.06736 0.97945 0.19012
vn -0.05568 0.98376 0.17061
vn -0.08280 0.98128 0.17390
vn -0.11395 0.97827 0.17323
vn 0.00000 1.00000 0.00000
vn 0.00000 1.00000 0.00000
vn -0.05055 0.99717 0.05571
vn -0.04339 0.97991 0.19464
vn -0.06486 0.97708 0.20274
vn -0.06176 0.96816 0.24261
vn -0.07144 0.97591 0.20613
vn -0.08132 0.98020 0.18053
vn -0.10255 0.97623 0.19097

f 1/1/1 2/2/2 3/3/3
f 1/1/1 3/3/3 4/4/4
f 4/4/4 3/3/3 5/5/5
f 5/5/5 3/3/3 6/6/6
f 5/5/5 6/6/6 7/7/7
f 5/5/5 7/7/7 8/8/8
f 8/8/8 7/7/7 9/9/9
f 9/9/9 7/7/7 10/10/10
f 9/9/9 10/10/10 11/11/11
f 9/9/9 11/11/11 12/12/12
f 12/12/12 11/11/11 13/13/13
f 13/13/13 11/11/11 14/14/14
f 13/13/13 14/14/14 15/15/15
f 13/13/13 15/15/15 16/16/16
f 16/16/16 15/15/15 17/17/17
f 17/17/17 15/15/15 18/18/18
f 2/2/2 19/19/19 3/3/3
f 3/3/3 19/19/19 20/20/20
f 3/3/3 20/20/20 21/21/21
f 3/3/3 21/21/21 6/6/6
f 6/6/6 21/21/21 7/7/7
f 7/7/7 21/21/21 22/22/22
f 7/7/7 22/22/22 23/23/23
f 7/7/7 23/23/23 10/10/10
f 10/10/10 23/23/23 11/11/11
f 11/11/11 23/23/23 24/24/24
f 11/11/11 24/24/24 25/25/25
f 11/11/11 25/25/25 14/14/14
f 14/14/14 25/25/25 15/15/15
f 15/15/15 25/25/25 26/26/26
f 15/15/15 26/26/26 27/27/27
f 15/15/15 27/27/27 18/18/18
f 19/19/19 28/28/28 29/29/29
f 19/19/19 29/29/29 20/20/20
f 20/20/20 29/29/29 21/21/21
f 21/21/21 29/29/29 30/30/30
f 21/21/21 30/30/30 31/31/31
f 21/21/21 31/31/31 22/22/22
f 22/22/22 31/31/31 23/23/23
f 23/23/23 31/31/31 32/32/32
f 23/23/23 32/32/32 33/33/33
f 23/23/23 33/33/33 24/24/24
f 24/24/24 33/33/33 25/25/25
f 25/25/25 33/33/33 34/34/34
f 25/25/25 34/34/34 35/35/35
f 25/25/25 35/35/35 26/26/26
f 26/26/26 35/35/35 27/27/27
f 27/27/27 35/35/35 36/36/36
f 28/28/28 37/37/37 29/29/29
f 29/29/29 37/37/37 38/38/38
f 29/29/29 38/38/38 39/39/39
f 29/29/29 39/39/39 30/30/30
f 30/30/30 39/39/39 31/31/31
f 31/31/31 39/39/39 40/40/40
f 31/31/31 40/40/40 41/41/41
f 31/31/31 41/41/41 32/32/32
f 32/32/32 41/41/41 33/33/33
f 33/33/33 41/41/41 42/42/42
f 33/33/33 42/42/42 43/43/43
f 33/33/33 43/43/43 34/34/34
f 34/34/34 43/43/43 35/35/35
f 35/35/35 43/43/43 44/44/44
f 35/35/35 44/44/44 45/45/45
f 35/35/35 45/45/45 36/36/36
f 37/37/37 46/46/46 47/47/47
f 37/37/37 47/47/47 38/38/38
f 38/38/38 47/47/47 39/39/39
f 39/39/39 47/47/47 48/48/48
f 39/39/39 48/48/48 49/49/49
f 39/39/39 49/49/49 40/40/40
f 40/40/40 49/49/49 41/41/41
f 41/41/41 49/49/49 50/50/50
f 41/41/41 50/50/50 51/51/51
f 41/41/41 51/51/51 42/42/42
f 42/42/42 51/51/51 43/43/43
f 43/43/43 51/51/51 52/52/52
f 43/43/43 52/52/52 53/53/53
f 43/43/43 53/53/53 44/44/44
f 44/44/44 53/53/53 45/45/45
f 45/45/45 53/53/53 54/54/54
f 46/46/46 55/55/55 47/47/47
f 47/47/47 55/55/55 56/56/56
f 47/47/47 56/56/56 57/57/57
f 47/47/47 57/57/57 48/48/48
f 48/48/48 57/57/57 49/49/49
f 49/49/49 57/57/57 58/58/58
f 49/49/49 58/58/58 59/59/59
f 49/49/49 59/59/59 50/50/50
f 50/50/50 59/59/59 51/51/51
f 51/51/51 59/59/59 60/60/60
f 51/51/51 60/60/60 61/61/61
f 51/51/51 61/61/61 52/52/52
f 52/52/52 61/61/61 53/53/53
f 53/53/53 61/61/61 62/62/62
f 53/53/53 62/62/62 63/63/63
f 53/53/53 63/63/63 54/54/54
f 55/55/55 64/64/64 65/65/65
f 55/55/55 65/65/65 56/56/56
f 56/56/56 65/65/65 57/57/57
f 57/57/57 65/65/65 66/66/66
f 57/57/57 66/66/66 67/67/67
f 57/57/57 67/67/67 58/58/58
f 58/58/58 67/67/67 59/59/59
f 59/59/59 67/67/67 68/68/68
f 59/59/59 68/68/68 69/69/69
f 59/59/59 69/69/69 60/60/60
f 60/60/60 69/69/69 61/61/61
f 61/61/61 69/69/69 70/70/70
f 61/61/61 70/70/70 71/71/71
f 61/61/61 71/71/71 62/62/62
f 62/62/62 71/71/71 63/63/63
f 63/63/63 71/71/71 72/72/72
f 64/64/64 73/73/73 65/65/65
f 65/65/65 73/73/73 74/74/74
f 65/65/65 74/74/74 75/75/75
f 65/65/65 75/75/75 66/66/66
f 66/66/66 75/75/75 67/67/67
f 67/67/67 75/75/75 76/76/76
f 67/67/67 76/76/76 77/77/77
f 67/67/67 77/77/77 68/68/68
f 68/68/68 77/77/77 69/69/69
f 69/69/69 77/77/77 78/78/78
f 69/69/69 78/78/78 79/79/79
f 69/69/69 79/79/79 70/70/70
f 70/70/70 79/79/79 71/71/71
f 71/71/71 79/79/79 80/80/80
f 71/71/71 80/80/80 81/81/81
f 71/71/71 81/81/81 72/72/72
