# Generated by tools/generate_island.py. Do not edit by hand.
o terrain_lod2_0_-1

v 0.000 1.627 -64.000 0.073 0.166 0.089
v 0.000 2.703 -56.000 0.068 0.159 0.086
v 8.000 3.089 -56.000 0.073 0.166 0.089
v 8.000 1.991 -64.000 0.072 0.164 0.089
v 16.000 2.839 -64.000 0.073 0.165 0.089
v 16.000 3.306 -56.000 0.077 0.170 0.091
v 24.000 3.439 -56.000 0.083 0.178 0.094
v 24.000 4.691 -64.000 0.081 0.175 0.093
v 32.000 7.969 -64.000 0.174 0.221 0.156
v 32.000 6.472 -56.000 0.178 0.222 0.157
v 40.000 7.974 -56.000 0.224 0.275 0.195
v 40.000 9.702 -64.000 0.228 0.285 0.202
v 48.000 11.267 -64.000 0.230 0.281 0.200
v 48.000 8.229 -56.000 0.214 0.262 0.186
v 56.000 6.649 -56.000 0.104 0.205 0.107
v 56.000 9.845 -64.000 0.189 0.230 0.163
v 64.000 7.701 -64.000 0.093 0.191 0.101
v 64.000 3.490 -56.000 0.106 0.208 0.108
v 0.000 4.684 -48.000 0.072 0.164 0.089
v 8.000 4.569 -48.000 0.098 0.182 0.061
v 16.000 3.371 -48.000 0.082 0.177 0.094
v 24.000 1.586 -48.000 0.088 0.185 0.098
v 32.000 3.391 -48.000 0.088 0.185 0.098
v 40.000 3.405 -48.000 0.104 0.208 0.109
v 48.000 3.414 -48.000 0.147 0.235 0.082
v 56.000 3.318 -48.000 0.103 0.208 0.109
v 64.000 1.970 -48.000 0.108 0.211 0.109
v 0.000 9.295 -40.000 0.115 0.120 0.106
v 8.000 7.757 -40.000 0.191 0.249 0.174
v 16.000 4.871 -40.000 0.087 0.186 0.099
v 24.000 3.277 -40.000 0.088 0.185 0.098
v 32.000 1.019 -40.000 0.303 0.279 0.160
v 40.000 1.645 -40.000 0.094 0.193 0.101
v 48.000 1.475 -40.000 0.103 0.205 0.107
v 56.000 0.955 -40.000 0.329 0.305 0.177
v 64.000 1.234 -40.000 0.112 0.215 0.111
v 0.000 15.492 -32.000 0.143 0.149 0.131
v 8.000 14.164 -32.000 0.155 0.162 0.142
v 16.000 3.415 -32.000 0.105 0.213 0.111
v 24.000 3.211 -32.000 0.090 0.188 0.099
v 32.000 2.993 -32.000 0.095 0.194 0.102
v 40.000 0.447 -32.000 0.318 0.295 0.171
v 48.000 0.033 -32.000 0.321 0.297 0.172
v 56.000 -0.915 -32.000 0.322 0.298 0.173
v 64.000 0.532 -32.000 0.337 0.314 0.183
v 0.000 25.459 -24.000 0.164 0.172 0.150
v 8.000 23.705 -24.000 0.157 0.164 0.143
v 16.000 3.293 -24.000 0.101 0.204 0.107
v 24.000 3.037 -24.000 0.098 0.197 0.103
v 32.000 2.750 -24.000 0.095 0.194 0.102
v 40.000 2.667 -24.000 0.102 0.202 0.106
v 48.000 2.977 -24.000 0.095 0.194 0.102
v 56.000 0.704 -24.000 0.308 0.284 0.164
v 64.000 -0.065 -24.000 0.299 0.275 0.158
v 0.000 35.358 -16.000 0.223 0.209 0.191
v 8.000 33.785 -16.000 0.171 0.178 0.156
v 16.000 4.706 -16.000 0.105 0.212 0.111
v 24.000 3.253 -16.000 0.095 0.194 0.102
v 32.000 3.092 -16.000 0.090 0.187 0.099
v 40.000 1.994 -16.000 0.090 0.187 0.099
v 48.000 1.063 -16.000 0.291 0.267 0.153
v 56.000 3.499 -16.000 0.085 0.181 0.096
v 64.000 3.297 -16.000 0.093 0.191 0.101
v 0.000 24.214 -8.000 0.251 0.235 0.214
v 8.000 28.868 -8.000 0.192 0.200 0.175
v 16.000 32.039 -8.000 0.153 0.160 0.140
v 24.000 22.409 -8.000 0.119 0.124 0.109
v 32.000 12.759 -8.000 0.125 0.130 0.114
v 40.000 7.873 -8.000 0.095 0.198 0.104
v 48.000 4.546 -8.000 0.088 0.186 0.099
v 56.000 2.794 -8.000 0.116 0.200 0.068
v 64.000 2.738 -8.000 0.154 0.245 0.085
v 0.000 13.007 0.000 0.257 0.241 0.219
v 8.000 22.606 0.000 0.223 0.209 0.191
v 16.000 30.396 0.000 0.166 0.173 0.152
v 24.000 22.258 0.000 0.149 0.155 0.136
v 32.000 12.866 0.000 0.158 0.164 0.144
v 40.000 6.482 0.000 0.210 0.266 0.188
v 48.000 3.215 0.000 0.147 0.243 0.084
v 56.000 1.685 0.000 0.164 0.264 0.091
v 64.000 1.876 0.000 0.206 0.289 0.105

vt 0.500000 0.600000
vt 0.500000 0.587500
vt 0.512500 0.587500
vt 0.512500 0.600000
vt 0.525000 0.600000
vt 0.525000 0.587500
vt 0.537500 0.587500
vt 0.537500 0.600000
vt 0.550000 0.600000
vt 0.550000 0.587500
vt 0.562500 0.587500
vt 0.562500 0.600000
vt 0.575000 0.600000
vt 0.575000 0.587500
vt 0.587500 0.587500
vt 0.587500 0.600000
vt 0.600000 0.600000
vt 0.600000 0.587500
vt 0.500000 0.575000
vt 0.512500 0.575000
vt 0.525000 0.575000
vt 0.537500 0.575000
vt 0.550000 0.575000
vt 0.562500 0.575000
vt 0.575000 0.575000
vt 0.587500 0.575000
vt 0.600000 0.575000
vt 0.500000 0.562500
vt 0.512500 0.562500
vt 0.525000 0.562500
vt 0.537500 0.562500
vt 0.550000 0.562500
vt 0.562500 0.562500
vt 0.575000 0.562500
vt 0.587500 0.562500
vt 0.600000 0.562500
vt 0.500000 0.550000
vt 0.512500 0.550000
vt 0.525000 0.550000
vt 0.537500 0.550000
vt 0.550000 0.550000
vt 0.562500 0.550000
vt 0.575000 0.550000
vt 0.587500 0.550000
vt 0.600000 0.550000
vt 0.500000 0.537500
vt 0.512500 0.537500
vt 0.525000 0.537500
vt 0.537500 0.537500
vt 0.550000 0.537500
vt 0.562500 0.537500
vt 0.575000 0.537500
vt 0.587500 0.537500
vt 0.600000 0.537500
vt 0.500000 0.525000
vt 0.512500 0.525000
vt 0.525000 0.525000
vt 0.537500 0.525000
vt 0.550000 0.525000
vt 0.562500 0.525000
vt 0.575000 0.525000
vt 0.587500 0.525000
vt 0.600000 0.525000
vt 0.500000 0.512500
vt 0.512500 0.512500
vt 0.525000 0.512500
vt 0.537500 0.512500
vt 0.550000 0.512500
vt 0.562500 0.512500
vt 0.575000 0.512500
vt 0.587500 0.512500
vt 0.600000 0.512500
vt 0.500000 0.500000
vt 0.512500 0.500000
vt 0.525000 0.500000
vt 0.537500 0.500000
vt 0.550000 0.500000
vt 0.562500 0.500000
vt 0.575000 0.500000
vt 0.587500 0.500000
vt 0.600000 0.500000

vn -0.04641 0.98983 -0.13448
vn -0.04733 0.98113 -0.18747
vn -0.01713 0.99065 -0.13535
vn -0.07488 0.98794 -0.13555
vn -0.09485 0.99520 -0.02426
vn -0.02188 0.99921 -0.03319
vn -0.17444 0.97227 0.15579
vn -0.30197 0.94186 0.14735
vn -0.28139 0.94330 0.17607
vn -0.26290 0.92760 0.26540
vn -0.09896 0.92677 0.36237
vn -0.19750 0.95821 0.20696
vn 0.03490 0.94512 0.32485
vn 0.07412 0.89522 0.43941
vn 0.20458 0.90370 0.37612
vn 0.20268 0.90938 0.36326
vn 0.28804 0.86902 0.40229
vn 0.34848 0.88243 0.31604
vn 0.04072 0.94252 -0.33166
vn 0.07854 0.95701 -0.27921
vn 0.15472 0.98100 -0.11704
vn -0.00128 0.99995 0.01009
vn -0.09812 0.96032 0.26106
vn -0.00130 0.92989 0.36784
vn 0.03174 0.92835 0.37035
vn 0.08467 0.93873 0.33410
vn 0.16671 0.95692 0.23773
vn 0.15734 0.81832 -0.55280
vn 0.30006 0.86352 -0.40535
vn 0.26959 0.96297 -0.00266
vn 0.12551 0.99108 -0.04485
vn 0.10150 0.99453 0.02474
vn 0.03127 0.98824 0.14968
vn 0.04216 0.97753 0.20654
vn 0.02180 0.97889 0.20320
vn -0.03481 0.99538 0.08946
vn 0.13013 0.69987 -0.70232
vn 0.47147 0.62460 -0.62257
vn 0.58507 0.79582 -0.15608
vn 0.02635 0.99954 0.01505
vn 0.11660 0.99100 -0.06573
vn 0.18157 0.98138 -0.06274
vn 0.08361 0.99477 -0.05870
vn -0.03120 0.99939 0.01565
vn -0.07490 0.99602 0.04824
vn 0.13625 0.62141 -0.77155
vn 0.70330 0.51701 -0.48793
vn 0.78978 0.61140 -0.04933
vn 0.04870 0.99855 -0.02298
vn 0.02307 0.99971 -0.00619
vn 0.07054 0.99535 -0.06565
vn 0.12155 0.99053 -0.06376
vn 0.05130 0.97981 -0.19326
vn 0.09429 0.98101 -0.16949
vn 0.00764 0.99255 -0.12156
vn 0.87677 0.45766 -0.14770
vn 0.64662 0.46924 -0.60142
vn 0.06409 0.63550 -0.76944
vn 0.21798 0.80073 -0.55796
vn 0.11975 0.94409 -0.30719
vn 0.06205 0.98507 -0.16059
vn -0.13714 0.98221 -0.12832
vn 0.03797 0.98779 -0.15106
vn -0.32073 0.55132 0.77018
vn -0.03572 0.95796 0.28468
vn 0.20873 0.51702 -0.83013
vn 0.50955 0.56515 -0.64881
vn 0.61270 0.67444 -0.41198
vn 0.38525 0.87722 -0.28649
vn 0.30011 0.94539 -0.12718
vn 0.04242 0.99808 0.04519
vn 0.00696 0.99606 0.08846
vn -0.51556 0.57873 0.63187
vn -0.65021 0.59828 0.46828
vn 0.19950 0.93776 0.28425
vn 0.73854 0.67409 0.01268
vn 0.68738 0.72567 0.03014
vn 0.51085 0.84695 0.14735
vn 0.29146 0.94437 0.15235
vn 0.08264 0.98713 0.13692
vn -0.00839 0.99245 0.12233

f 1/1/1 2/2/2 3/3/3
f 1/1/1 3/3/3 4/4/4
f 4/4/4 3/3/3 5/5/5
f 5/5/5 3/3/3 6/6/6
f 5/5/5 6/6/6 7/7/7
f 5/5/5 7/7/7 8/8/8
f 8/8/8 7/7/7 9/9/9
f 9/9/9 7/7/7 10/10/10
f 9/9/9 10/10/10 11/11/11
f 9/9/9 11/11/11 12/12/12
f 12/12/12 11/11/11 13/13/13
f 13/13/13 11/11/11 14/14/14
f 13/13/13 14/14/14 15/15/15
f 13/13/13 15/15/15 16/16/16
f 16/16/16 15/15/15 17/17/17
f 17/17/17 15/15/15 18/18/18
f 2/2/2 19/19/19 3/3/3
f 3/3/3 19/19/19 20/20/20
f 3/3/3 20/20/20 21/21/21
f 3/3/3 21/21/21 6/6/6
f 6/6/6 21/21/21 7/7/7
f 7/7/7 21/21/21 22/22/22
f 7/7/7 22/22/22 23/23/23
f 7/7/7 23/23/23 10/10/10
f 10/10/10 23/23/23 11/11/11
f 11/11/11 23/23/23 24/24/24
f 11/11/11 24/24/24 25/25/25
f 11/11/11 25/25/25 14/14/14
f 14/14/14 25/25/25 15/15/15
f 15/15/15 25/25/25 26/26/26
f 15/15/15 26/26/26 27/27/27
f 15/15/15 27/27/27 18/18/18
f 19/19/19 28/28/28 29/29/29
f 19/19/19 29/29/29 20/20/20
f 20/20/20 29/29/29 21/21/21
f 21/21/21 29/29/29 30/30/30
f 21/21/21 30/30/30 31/31/31
f 21/21/21 31/31/31 22/22/22
f 22/22/22 31/31/31 23/23/23
f 23/23/23 31/31/31 32/32/32
f 23/23/23 32/32/32 33/33/33
f 23/23/23 33/33/33 24/24/24
f 24/24/24 33/33/33 25/25/25
f 25/25/25 33/33/33 34/34/34
f 25/25/25 34/34/34 35/35/35
f 25/25/25 35/35/35 26/26/26
f 26/26/26 35/35/35 27/27/27
f 27/27/27 35/35/35 36/36/36
f 28/28/28 37/37/37 29/29/29
f 29/29/29 37/37/37 38/38/38
f 29/29/29 38/38/38 39/39/39
f 29/29/29 39/39/39 30/30/30
f 30/30/30 39/39/39 31/31/31
f 31/31/31 39/39/39 40/40/40
f 31/31/31 40/40/40 41/41/41
f 31/31/31 41/41/41 32/32/32
f 32/32/32 41/41/41 33/33/33
f 33/33/33 41/41/41 42/42/42
f 33/33/33 42/42/42 43/43/43
f 33/33/33 43/43/43 34/34/34
f 34/34/34 43/43/43 35/35/35
f 35/35/35 43/43/43 44/44/44
f 35/35/35 44/44/44 45/45/45
f 35/35/35 45/45/45 36/36/36
f 37/37/37 46/46/46 47/47/47
f 37/37/37 47/47/47 38/38/38
f 38/38/38 47/47/47 39/39/39
f 39/39/39 47/47/47 48/48/48
f 39/39/39 48/48/48 49/49/49
f 39/39/39 49/49/49 40/40/40
f 40/40/40 49/49/49 41/41/41
f 41/41/41 49/49/49 50/50/50
f 41/41/41 50/50/50 51/51/51
f 41/41/41 51/51/51 42/42/42
f 42/42/42 51/51/51 43/43/43
f 43/43/43 51/51/51 52/52/52
f 43/43/43 52/52/52 53/53/53
f 43/43/43 53/53/53 44/44/44
f 44/44/44 53/53/53 45/45/45
f 45/45/45 53/53/53 54/54/54
f 46/46/46 55/55/55 47/47/47
f 47/47/47 55/55/55 56/56/56
f 47/47/47 56/56/56 57/57/57
f 47/47/47 57/57/57 48/48/48
f 48/48/48 57/57/57 49/49/49
f 49/49/49 57/57/57 58/58/58
f 49/49/49 58/58/58 59/59/59
f 49/49/49 59/59/59 50/50/50
f 50/50/50 59/59/59 51/51/51
f 51/51/51 59/59/59 60/60/60
f 51/51/51 60/60/60 61/61/61
f 51/51/51 61/61/61 52/52/52
f 52/52/52 61/61/61 53/53/53
f 53/53/53 61/61/61 62/62/62
f 53/53/53 62/62/62 63/63/63
f 53/53/53 63/63/63 54/54/54
f 55/55/55 64/64/64 65/65/65
f 55/55/55 65/65/65 56/56/56
f 56/56/56 65/65/65 57/57/57
f 57/57/57 65/65/65 66/66/66
f 57/57/57 66/66/66 67/67/67
f 57/57/57 67/67/67 58/58/58
f 58/58/58 67/67/67 59/59/59
f 59/59/59 67/67/67 68/68/68
f 59/59/59 68/68/68 69/69/69
f 59/59/59 69/69/69 60/60/60
f 60/60/60 69/69/69 61/61/61
f 61/61/61 69/69/69 70/70/70
f 61/61/61 70/70/70 71/71/71
f 61/61/61 71/71/71 62/62/62
f 62/62/62 71/71/71 63/63/63
f 63/63/63 71/71/71 72/72/72
f 64/64/64 73/73/73 65/65/65
f 65/65/65 73/73/73 74/74/74
f 65/65/65 74/74/74 75/75/75
f 65/65/65 75/75/75 66/66/66
f 66/66/66 75/75/75 67/67/67
f 67/67/67 75/75/75 76/76/76
f 67/67/67 76/76/76 77/77/77
f 67/67/67 77/77/77 68/68/68
f 68/68/68 77/77/77 69/69/69
f 69/69/69 77/77/77 78/78/78
f 69/69/69 78/78/78 79/79/79
f 69/69/69 79/79/79 70/70/70
f 70/70/70 79/79/79 71/71/71
f 71/71/71 79/79/79 80/80/80
f 71/71/71 80/80/80 81/81/81
f 71/71/71 81/81/81 72/72/72
