# Generated by tools/generate_island.py. Do not edit by hand.
o terrain_lod2_0_4

v 0.000 -5.713 512.000 0.494 0.463 0.271
v 0.000 -6.689 528.000 0.524 0.494 0.291
v 16.000 -5.850 528.000 0.500 0.470 0.276
v 16.000 -4.622 512.000 0.535 0.505 0.298
v 32.000 -3.968 512.000 0.576 0.547 0.325
v 32.000 -5.833 528.000 0.552 0.523 0.309
v 48.000 -5.252 528.000 0.558 0.529 0.314
v 48.000 -3.951 512.000 0.585 0.557 0.331
v 64.000 -3.231 512.000 0.556 0.527 0.312
v 64.000 -4.452 528.000 0.478 0.447 0.261
v 80.000 -4.784 528.000 0.447 0.415 0.241
v 80.000 -2.911 512.000 0.494 0.463 0.271
v 96.000 -3.359 512.000 0.442 0.410 0.237
v 96.000 -4.703 528.000 0.448 0.416 0.241
v 112.000 -4.057 528.000 0.430 0.397 0.229
v 112.000 -3.325 512.000 0.438 0.405 0.234
v 128.000 -3.305 512.000 0.417 0.384 0.220
v 128.000 -4.252 528.000 0.425 0.392 0.226
v 0.000 -7.786 544.000 0.529 0.500 0.295
v 16.000 -7.230 544.000 0.465 0.434 0.253
v 32.000 -7.320 544.000 0.453 0.421 0.244
v 48.000 -6.593 544.000 0.485 0.454 0.266
v 64.000 -6.098 544.000 0.447 0.415 0.240
v 80.000 -6.222 544.000 0.431 0.399 0.230
v 96.000 -5.519 544.000 0.451 0.419 0.243
v 112.000 -5.049 544.000 0.450 0.418 0.243
v 128.000 -5.522 544.000 0.464 0.432 0.252
v 0.000 -8.772 560.000 0.525 0.495 0.292
v 16.000 -8.956 560.000 0.452 0.420 0.244
v 32.000 -8.850 560.000 0.400 0.366 0.209
v 48.000 -7.932 560.000 0.407 0.374 0.214
v 64.000 -7.437 560.000 0.457 0.425 0.247
v 80.000 -7.055 560.000 0.492 0.461 0.270
v 96.000 -6.383 560.000 0.498 0.467 0.274
v 112.000 -6.473 560.000 0.466 0.434 0.253
v 128.000 -6.371 560.000 0.517 0.487 0.286
v 0.000 -10.522 576.000 0.478 0.447 0.261
v 16.000 -10.149 576.000 0.439 0.407 0.235
v 32.000 -9.410 576.000 0.382 0.348 0.198
v 48.000 -9.359 576.000 0.401 0.367 0.210
v 64.000 -9.261 576.000 0.459 0.427 0.248
v 80.000 -8.070 576.000 0.483 0.452 0.264
v 96.000 -7.344 576.000 0.491 0.460 0.269
v 112.000 -7.552 576.000 0.479 0.448 0.261
v 128.000 -7.218 576.000 0.474 0.443 0.258
v 0.000 -10.800 592.000 0.474 0.443 0.258
v 16.000 -10.800 592.000 0.459 0.427 0.249
v 32.000 -10.800 592.000 0.414 0.381 0.219
v 48.000 -10.604 592.000 0.417 0.384 0.221
v 64.000 -9.996 592.000 0.445 0.413 0.239
v 80.000 -9.169 592.000 0.458 0.427 0.248
v 96.000 -9.163 592.000 0.452 0.420 0.244
v 112.000 -8.747 592.000 0.465 0.434 0.253
v 128.000 -7.884 592.000 0.460 0.429 0.249
v 32.000 -10.800 608.000 0.429 0.396 0.229
v 48.000 -10.800 608.000 0.410 0.377 0.216
v 64.000 -10.800 608.000 0.426 0.393 0.227
v 80.000 -10.611 608.000 0.470 0.439 0.256
v 96.000 -10.284 608.000 0.480 0.448 0.262
v 112.000 -9.613 608.000 0.461 0.430 0.250
v 128.000 -9.400 608.000 0.468 0.436 0.254
v 80.000 -10.800 624.000 0.459 0.427 0.248
v 96.000 -10.800 624.000 0.476 0.445 0.260
v 112.000 -10.800 624.000 0.500 0.470 0.275
v 128.000 -10.642 624.000 0.489 0.458 0.268
v 128.000 -10.800 640.000 0.506 0.476 0.279

vt 0.500000 0.233333
vt 0.500000 0.225000
vt 0.508333 0.225000
vt 0.508333 0.233333
vt 0.516667 0.233333
vt 0.516667 0.225000
vt 0.525000 0.225000
vt 0.525000 0.233333
vt 0.533333 0.233333
vt 0.533333 0.225000
vt 0.541667 0.225000
vt 0.541667 0.233333
vt 0.550000 0.233333
vt 0.550000 0.225000
vt 0.558333 0.225000
vt 0.558333 0.233333
vt 0.566667 0.233333
vt 0.566667 0.225000
vt 0.500000 0.216667
vt 0.508333 0.216667
vt 0.516667 0.216667
vt 0.525000 0.216667
vt 0.533333 0.216667
vt 0.541667 0.216667
vt 0.550000 0.216667
vt 0.558333 0.216667
vt 0.566667 0.216667
vt 0.500000 0.208333
vt 0.508333 0.208333
vt 0.516667 0.208333
vt 0.525000 0.208333
vt 0.533333 0.208333
vt 0.541667 0.208333
vt 0.550000 0.208333
vt 0.558333 0.208333
vt 0.566667 0.208333
vt 0.500000 0.200000
vt 0.508333 0.200000
vt 0.516667 0.200000
vt 0.525000 0.200000
vt 0.533333 0.200000
vt 0.541667 0.200000
vt 0.550000 0.200000
vt 0.558333 0.200000
vt 0.566667 0.200000
vt 0.500000 0.191667
vt 0.508333 0.191667
vt 0.516667 0.191667
vt 0.525000 0.191667
vt 0.533333 0.191667
vt 0.541667 0.191667
vt 0.550000 0.191667
vt 0.558333 0.191667
vt 0.566667 0.191667
vt 0.516667 0.183333
vt 0.525000 0.183333
vt 0.533333 0.183333
vt 0.541667 0.183333
vt 0.550000 0.183333
vt 0.558333 0.183333
vt 0.566667 0.183333
vt 0.541667 0.175000
vt 0.550000 0.175000
vt 0.558333 0.175000
vt 0.566667 0.175000
vt 0.566667 0.166667

vn -0.06007 0.99583 0.06859
vn -0.05226 0.99654 0.06455
vn -0.03054 0.99610 0.08282
vn -0.05430 0.99560 0.07642
vn -0.01971 0.99506 0.09732
vn -0.01857 0.99439 0.10417
vn -0.03669 0.99532 0.08943
vn -0.02292 0.99645 0.08102
vn -0.02347 0.99590 0.08738
vn -0.01458 0.99591 0.08920
vn 0.00039 0.99588 0.09063
vn 0.00395 0.99321 0.11623
vn -0.00489 0.99659 0.08241
vn -0.02267 0.99747 0.06735
vn -0.00743 0.99811 0.06104
vn -0.00168 0.99895 0.04569
vn 0.00547 0.99861 0.05240
vn 0.01217 0.99753 0.06912
vn -0.02751 0.99635 0.08079
vn -0.01450 0.99522 0.09659
vn -0.02253 0.99551 0.09193
vn -0.03803 0.99579 0.08338
vn -0.01624 0.99625 0.08500
vn -0.01803 0.99733 0.07080
vn -0.02848 0.99762 0.06273
vn 0.00009 0.99716 0.07530
vn 0.01618 0.99737 0.07069
vn 0.01141 0.99630 0.08519
vn -0.01108 0.99649 0.08303
vn -0.03191 0.99737 0.06514
vn -0.03265 0.99594 0.08393
vn -0.02725 0.99478 0.09835
vn -0.03586 0.99706 0.06766
vn -0.01816 0.99821 0.05693
vn -0.00115 0.99779 0.06646
vn -0.00636 0.99858 0.05293
vn -0.00877 0.99814 0.06039
vn -0.03468 0.99774 0.05751
vn -0.02183 0.99761 0.06559
vn -0.00462 0.99652 0.08321
vn -0.03805 0.99630 0.07708
vn -0.05968 0.99605 0.06579
vn -0.01590 0.99687 0.07746
vn -0.00394 0.99748 0.07087
vn -0.02545 0.99793 0.05904
vn 0.00000 0.99985 0.01737
vn -0.01736 0.99877 0.04634
vn -0.00816 0.99829 0.05783
vn -0.01371 0.99888 0.04535
vn -0.04474 0.99785 0.04798
vn -0.03191 0.99671 0.07445
vn -0.01314 0.99572 0.09149
vn -0.02780 0.99702 0.07201
vn -0.05372 0.99624 0.06793
vn -0.00613 0.99996 0.00613
vn 0.00000 0.99992 0.01226
vn -0.02262 0.99882 0.04290
vn -0.01609 0.99857 0.05090
vn -0.01887 0.99835 0.05427
vn -0.02757 0.99757 0.06401
vn -0.02254 0.99693 0.07494
vn -0.01074 0.99977 0.01859
vn 0.00000 0.99948 0.03221
vn -0.01499 0.99845 0.05354
vn -0.00989 0.99900 0.04371
vn -0.00990 0.99990 0.00990

f 1/1/1 2/2/2 3/3/3
f 1/1/1 3/3/3 4/4/4
f 4/4/4 3/3/3 5/5/5
f 5/5/5 3/3/3 6/6/6
f 5/5/5 6/6/6 7/7/7
f 5/5/5 7/7/7 8/8/8
f 8/8/8 7/7/7 9/9/9
f 9/9/9 7/7/7 10/10/10
f 9/9/9 10/10/10 11/11/11
f 9/9/9 11/11/11 12/12/12
f 12/12/12 11/11/11 13/13/13
f 13/13/13 11/11/11 14/14/14
f 13/13/13 14/14/14 15/15/15
f 13/13/13 15/15/15 16/16/16
f 16/16/16 15/15/15 17/17/17
f 17/17/17 15/15/15 18/18/18
f 2/2/2 19/19/19 3/3/3
f 3/3/3 19/19/19 20/20/20
f 3/3/3 20/20/20 21/21/21
f 3/3/3 21/21/21 6/6/6
f 6/6/6 21/21/21 7/7/7
f 7/7/7 21/21/21 22/22/22
f 7/7/7 22/22/22 23/23/23
f 7/7/7 23/23/23 10/10/10
f 10/10/10 23/23/23 11/11/11
f 11/11/11 23/23/23 24/24/24
f 11/11/11 24/24/24 25/25/25
f 11/11/11 25/25/25 14/14/14
f 14/14/14 25/25/25 15/15/15
f 15/15/15 25/25/25 26/26/26
f 15/15/15 26/26/26 27/27/27
f 15/15/15 27/27/27 18/18/18
f 19/19/19 28/28/28 29/29/29
f 19/19/19 29/29/29 20/20/20
f 20/20/20 29/29/29 21/21/21
f 21/21/21 29/29/29 30/30/30
f 21/21/21 30/30/30 31/31/31
f 21/21/21 31/31/31 22/22/22
f 22/22/22 31/31/31 23/23/23
f 23/23/23 31/31/31 32/32/32
f 23/23/23 32/32/32 33/33/33
f 23/23/23 33/33/33 24/24/24
f 24/24/24 33/33/33 25/25/25
f 25/25/25 33/33/33 34/34/34
f 25/25/25 34/34/34 35/35/35
f 25/25/25 35/35/35 26/26/26
f 26/26/26 35/35/35 27/27/27
f 27/27/27 35/35/35 36/36/36
f 28/28/28 37/37/37 29/29/29
f 29/29/29 37/37/37 38/38/38
f 29/29/29 38/38/38 39/39/39
f 29/29/29 39/39/39 30/30/30
f 30/30/30 39/39/39 31/31/31
f 31/31/31 39/39/39 40/40/40
f 31/31/31 40/40/40 41/41/41
f 31/31/31 41/41/41 32/32/32
f 32/32/32 41/41/41 33/33/33
f 33/33/33 41/41/41 42/42/42
f 33/33/33 42/42/42 43/43/43
f 33/33/33 43/43/43 34/34/34
f 34/34/34 43/43/43 35/35/35
f 35/35/35 43/43/43 44/44/44
f 35/35/35 44/44/44 45/45/45
f 35/35/35 45/45/45 36/36/36
f 37/37/37 46/46/46 47/47/47
f 37/37/37 47/47/47 38/38/38
f 38/38/38 47/47/47 39/39/39
f 39/39/39 47/47/47 48/48/48
f 39/39/39 48/48/48 49/49/49
f 39/39/39 49/49/49 40/40/40
f 40/40/40 49/49/49 41/41/41
f 41/41/41 49/49/49 50/50/50
f 41/41/41 50/50/50 51/51/51
f 41/41/41 51/51/51 42/42/42
f 42/42/42 51/51/51 43/43/43
f 43/43/43 51/51/51 52/52/52
f 43/43/43 52/52/52 53/53/53
f 43/43/43 53/53/53 44/44/44
f 44/44/44 53/53/53 45/45/45
f 45/45/45 53/53/53 54/54/54
f 48/48/48 55/55/55 49/49/49
f 49/49/49 55/55/55 56/56/56
f 49/49/49 56/56/56 57/57/57
f 49/49/49 57/57/57 50/50/50
f 50/50/50 57/57/57 51/51/51
f 51/51/51 57/57/57 58/58/58
f 51/51/51 58/58/58 59/59/59
f 51/51/51 59/59/59 52/52/52
f 52/52/52 59/59/59 53/53/53
f 53/53/53 59/59/59 60/60/60
f 53/53/53 60/60/60 61/61/61
f 53/53/53 61/61/61 54/54/54
f 57/57/57 62/62/62 58/58/58
f 58/58/58 62/62/62 59/59/59
f 59/59/59 62/62/62 63/63/63
f 59/59/59 63/63/63 64/64/64
f 59/59/59 64/64/64 60/60/60
f 60/60/60 64/64/64 61/61/61
f 61/61/61 64/64/64 65/65/65
f 64/64/64 66/66/66 65/65/65
