# Generated by tools/generate_island.py. Do not edit by hand.
o terrain_lod1_3_-8

v 384.000 -10.800 -960.000 0.511 0.481 0.283
v 384.000 -10.800 -952.000 0.464 0.432 0.251
v 392.000 -10.800 -952.000 0.473 0.442 0.258
v 392.000 -10.800 -960.000 0.527 0.497 0.293
v 400.000 -10.800 -960.000 0.499 0.469 0.275
v 400.000 -10.800 -952.000 0.465 0.433 0.252
v 408.000 -10.800 -952.000 0.449 0.417 0.242
v 408.000 -10.800 -960.000 0.480 0.449 0.262
v 416.000 -10.800 -960.000 0.460 0.428 0.249
v 416.000 -10.800 -952.000 0.443 0.410 0.238
v 424.000 -10.800 -952.000 0.466 0.434 0.253
v 424.000 -10.800 -960.000 0.484 0.453 0.265
v 432.000 -10.800 -960.000 0.494 0.464 0.272
v 432.000 -10.800 -952.000 0.487 0.456 0.267
v 440.000 -10.800 -952.000 0.483 0.451 0.264
v 440.000 -10.800 -960.000 0.503 0.473 0.278
v 448.000 -10.800 -960.000 0.496 0.466 0.273
v 448.000 -10.800 -952.000 0.493 0.462 0.271
v 456.000 -10.800 -952.000 0.498 0.467 0.274
v 456.000 -10.800 -960.000 0.508 0.478 0.281
v 464.000 -10.800 -960.000 0.539 0.510 0.301
v 464.000 -10.800 -952.000 0.533 0.504 0.297
v 472.000 -10.800 -952.000 0.558 0.530 0.314
v 472.000 -10.800 -960.000 0.577 0.549 0.326
v 480.000 -10.800 -960.000 0.548 0.519 0.307
v 480.000 -10.800 -952.000 0.555 0.526 0.311
v 488.000 -10.800 -952.000 0.553 0.524 0.310
v 488.000 -10.800 -960.000 0.555 0.526 0.311
v 496.000 -10.800 -960.000 0.563 0.534 0.317
v 496.000 -10.800 -952.000 0.557 0.528 0.313
v 504.000 -10.800 -952.000 0.557 0.528 0.313
v 504.000 -10.800 -960.000 0.555 0.526 0.312
v 512.000 -10.800 -960.000 0.540 0.511 0.302
v 512.000 -10.800 -952.000 0.544 0.514 0.304
v 384.000 -10.800 -944.000 0.437 0.405 0.234
v 392.000 -10.800 -944.000 0.421 0.388 0.223
v 400.000 -10.800 -944.000 0.442 0.410 0.237
v 408.000 -10.800 -944.000 0.440 0.407 0.236
v 416.000 -10.800 -944.000 0.434 0.401 0.232
v 424.000 -10.800 -944.000 0.437 0.404 0.234
v 432.000 -10.800 -944.000 0.451 0.419 0.243
v 440.000 -10.800 -944.000 0.462 0.430 0.250
v 448.000 -10.800 -944.000 0.489 0.458 0.268
v 456.000 -10.800 -944.000 0.513 0.483 0.284
v 464.000 -10.800 -944.000 0.510 0.480 0.282
v 472.000 -10.800 -944.000 0.531 0.501 0.296
v 480.000 -10.800 -944.000 0.565 0.537 0.318
v 488.000 -10.800 -944.000 0.557 0.529 0.313
v 496.000 -10.800 -944.000 0.558 0.530 0.314
v 504.000 -10.800 -944.000 0.557 0.528 0.313
v 512.000 -10.800 -944.000 0.554 0.525 0.311
v 384.000 -10.800 -936.000 0.428 0.395 0.228
v 392.000 -10.800 -936.000 0.431 0.398 0.230
v 400.000 -10.800 -936.000 0.449 0.417 0.242
v 408.000 -10.800 -936.000 0.457 0.425 0.247
v 416.000 -10.800 -936.000 0.448 0.416 0.241
v 424.000 -10.800 -936.000 0.460 0.429 0.249
v 432.000 -10.800 -936.000 0.467 0.436 0.254
v 440.000 -10.800 -936.000 0.468 0.436 0.254
v 448.000 -10.800 -936.000 0.501 0.470 0.276
v 456.000 -10.800 -936.000 0.508 0.478 0.281
v 464.000 -10.800 -936.000 0.514 0.484 0.285
v 472.000 -10.800 -936.000 0.521 0.491 0.289
v 480.000 -10.800 -936.000 0.541 0.512 0.303
v 488.000 -10.800 -936.000 0.540 0.511 0.302
v 496.000 -10.800 -936.000 0.521 0.491 0.289
v 504.000 -10.800 -936.000 0.537 0.508 0.300
v 512.000 -10.800 -936.000 0.553 0.524 0.311
v 384.000 -10.800 -928.000 0.456 0.424 0.247
v 392.000 -10.800 -928.000 0.453 0.421 0.245
v 400.000 -10.800 -928.000 0.464 0.432 0.252
v 408.000 -10.800 -928.000 0.465 0.433 0.252
v 416.000 -10.800 -928.000 0.474 0.443 0.258
v 424.000 -10.800 -928.000 0.492 0.461 0.270
v 432.000 -10.800 -928.000 0.493 0.462 0.271
v 440.000 -10.800 -928.000 0.481 0.450 0.263
v 448.000 -10.800 -928.000 0.492 0.461 0.270
v 456.000 -10.800 -928.000 0.509 0.479 0.282
v 464.000 -10.800 -928.000 0.493 0.462 0.271
v 472.000 -10.800 -928.000 0.511 0.481 0.283
v 480.000 -10.800 -928.000 0.520 0.491 0.289
v 488.000 -10.800 -928.000 0.525 0.495 0.292
v 496.000 -10.800 -928.000 0.528 0.498 0.294
v 504.000 -10.800 -928.000 0.527 0.497 0.293
v 512.000 -10.800 -928.000 0.541 0.511 0.302
v 384.000 -10.800 -920.000 0.474 0.443 0.258
v 392.000 -10.800 -920.000 0.475 0.443 0.259
v 400.000 -10.800 -920.000 0.484 0.453 0.265
v 408.000 -10.800 -920.000 0.490 0.459 0.269
v 416.000 -10.800 -920.000 0.476 0.445 0.260
v 424.000 -10.800 -920.000 0.505 0.474 0.279
v 432.000 -10.800 -920.000 0.515 0.485 0.285
v 440.000 -10.800 -920.000 0.487 0.456 0.267
v 448.000 -10.800 -920.000 0.505 0.474 0.278
v 456.000 -10.800 -920.000 0.524 0.495 0.291
v 464.000 -10.800 -920.000 0.508 0.477 0.280
v 472.000 -10.800 -920.000 0.516 0.486 0.286
v 480.000 -10.800 -920.000 0.516 0.486 0.286
v 488.000 -10.800 -920.000 0.520 0.490 0.288
v 496.000 -10.800 -920.000 0.504 0.473 0.278
v 504.000 -10.800 -920.000 0.522 0.492 0.290
v 512.000 -10.800 -920.000 0.536 0.506 0.299
v 384.000 -10.800 -912.000 0.507 0.476 0.280
v 392.000 -10.800 -912.000 0.500 0.469 0.275
v 400.000 -10.800 -912.000 0.513 0.483 0.284
v 408.000 -10.800 -912.000 0.521 0.491 0.289
v 416.000 -10.800 -912.000 0.512 0.482 0.284
v 424.000 -10.800 -912.000 0.527 0.498 0.293
v 432.000 -10.800 -912.000 0.521 0.491 0.289
v 440.000 -10.800 -912.000 0.496 0.465 0.273
v 448.000 -10.800 -912.000 0.503 0.473 0.277
v 456.000 -10.800 -912.000 0.510 0.480 0.282
v 464.000 -10.800 -912.000 0.502 0.471 0.277
v 472.000 -10.800 -912.000 0.513 0.482 0.284
v 480.000 -10.800 -912.000 0.502 0.471 0.277
v 488.000 -10.800 -912.000 0.487 0.456 0.267
v 496.000 -10.800 -912.000 0.482 0.451 0.264
v 504.000 -10.800 -912.000 0.504 0.473 0.278
v 512.000 -10.800 -912.000 0.527 0.497 0.293
v 384.000 -10.800 -904.000 0.531 0.501 0.296
v 392.000 -10.800 -904.000 0.514 0.484 0.285
v 400.000 -10.800 -904.000 0.531 0.502 0.296
v 408.000 -10.800 -904.000 0.525 0.495 0.292
v 416.000 -10.800 -904.000 0.536 0.506 0.299
v 424.000 -10.800 -904.000 0.533 0.503 0.297
v 432.000 -10.800 -904.000 0.538 0.508 0.300
v 440.000 -10.800 -904.000 0.532 0.503 0.297
v 448.000 -10.800 -904.000 0.509 0.479 0.281
v 456.000 -10.800 -904.000 0.477 0.446 0.260
v 464.000 -10.800 -904.000 0.477 0.445 0.260
v 472.000 -10.800 -904.000 0.464 0.433 0.252
v 480.000 -10.800 -904.000 0.468 0.437 0.254
v 488.000 -10.800 -904.000 0.474 0.442 0.258
v 496.000 -10.800 -904.000 0.467 0.435 0.254
v 504.000 -10.800 -904.000 0.481 0.449 0.263
v 512.000 -10.800 -904.000 0.486 0.455 0.266
v 384.000 -10.800 -896.000 0.529 0.499 0.294
v 392.000 -10.800 -896.000 0.523 0.493 0.291
v 400.000 -10.800 -896.000 0.542 0.513 0.303
v 408.000 -10.800 -896.000 0.557 0.528 0.313
v 416.000 -10.800 -896.000 0.579 0.551 0.327
v 424.000 -10.800 -896.000 0.551 0.522 0.309
v 432.000 -10.800 -896.000 0.545 0.516 0.305
v 440.000 -10.800 -896.000 0.557 0.528 0.313
v 448.000 -10.800 -896.000 0.522 0.492 0.290
v 456.000 -10.800 -896.000 0.477 0.446 0.260
v 464.000 -10.800 -896.000 0.475 0.444 0.259
v 472.000 -10.800 -896.000 0.452 0.420 0.244
v 480.000 -10.800 -896.000 0.427 0.394 0.227
v 488.000 -10.800 -896.000 0.440 0.408 0.236
v 496.000 -10.800 -896.000 0.444 0.412 0.239
v 504.000 -10.800 -896.000 0.468 0.437 0.254
v 512.000 -10.800 -896.000 0.467 0.435 0.254

vt 0.700000 1.000000
vt 0.700000 0.995833
vt 0.704167 0.995833
vt 0.704167 1.000000
vt 0.708333 1.000000
vt 0.708333 0.995833
vt 0.712500 0.995833
vt 0.712500 1.000000
vt 0.716667 1.000000
vt 0.716667 0.995833
vt 0.720833 0.995833
vt 0.720833 1.000000
vt 0.725000 1.000000
vt 0.725000 0.995833
vt 0.729167 0.995833
vt 0.729167 1.000000
vt 0.733333 1.000000
vt 0.733333 0.995833
vt 0.737500 0.995833
vt 0.737500 1.000000
vt 0.741667 1.000000
vt 0.741667 0.995833
vt 0.745833 0.995833
vt 0.745833 1.000000
vt 0.750000 1.000000
vt 0.750000 0.995833
vt 0.754167 0.995833
vt 0.754167 1.000000
vt 0.758333 1.000000
vt 0.758333 0.995833
vt 0.762500 0.995833
vt 0.762500 1.000000
vt 0.766667 1.000000
vt 0.766667 0.995833
vt 0.700000 0.991667
vt 0.704167 0.991667
vt 0.708333 0.991667
vt 0.712500 0.991667
vt 0.716667 0.991667
vt 0.720833 0.991667
vt 0.725000 0.991667
vt 0.729167 0.991667
vt 0.733333 0.991667
vt 0.737500 0.991667
vt 0.741667 0.991667
vt 0.745833 0.991667
vt 0.750000 0.991667
vt 0.754167 0.991667
vt 0.758333 0.991667
vt 0.762500 0.991667
vt 0.766667 0.991667
vt 0.700000 0.987500
vt 0.704167 0.987500
vt 0.708333 0.987500
vt 0.712500 0.987500
vt 0.716667 0.987500
vt 0.720833 0.987500
vt 0.725000 0.987500
vt 0.729167 0.987500
vt 0.733333 0.987500
vt 0.737500 0.987500
vt 0.741667 0.987500
vt 0.745833 0.987500
vt 0.750000 0.987500
vt 0.754167 0.987500
vt 0.758333 0.987500
vt 0.762500 0.987500
vt 0.766667 0.987500
vt 0.700000 0.983333
vt 0.704167 0.983333
vt 0.708333 0.983333
vt 0.712500 0.983333
vt 0.716667 0.983333
vt 0.720833 0.983333
vt 0.725000 0.983333
vt 0.729167 0.983333
vt 0.733333 0.983333
vt 0.737500 0.983333
vt 0.741667 0.983333
vt 0.745833 0.983333
vt 0.750000 0.983333
vt 0.754167 0.983333
vt 0.758333 0.983333
vt 0.762500 0.983333
vt 0.766667 0.983333
vt 0.700000 0.979167
vt 0.704167 0.979167
vt 0.708333 0.979167
vt 0.712500 0.979167
vt 0.716667 0.979167
vt 0.720833 0.979167
vt 0.725000 0.979167
vt 0.729167 0.979167
vt 0.733333 0.979167
vt 0.737500 0.979167
vt 0.741667 0.979167
vt 0.745833 0.979167
vt 0.750000 0.979167
vt 0.754167 0.979167
vt 0.758333 0.979167
vt 0.762500 0.979167
vt 0.766667 0.979167
vt 0.700000 0.975000
vt 0.704167 0.975000
vt 0.708333 0.975000
vt 0.712500 0.975000
vt 0.716667 0.975000
vt 0.720833 0.975000
vt 0.725000 0.975000
vt 0.729167 0.975000
vt 0.733333 0.975000
vt 0.737500 0.975000
vt 0.741667 0.975000
vt 0.745833 0.975000
vt 0.750000 0.975000
vt 0.754167 0.975000
vt 0.758333 0.975000
vt 0.762500 0.975000
vt 0.766667 0.975000
vt 0.700000 0.970833
vt 0.704167 0.970833
vt 0.708333 0.970833
vt 0.712500 0.970833
vt 0.716667 0.970833
vt 0.720833 0.970833
vt 0.725000 0.970833
vt 0.729167 0.970833
vt 0.733333 0.970833
vt 0.737500 0.970833
vt 0.741667 0.970833
vt 0.745833 0.970833
vt 0.750000 0.970833
vt 0.754167 0.970833
vt 0.758333 0.970833
vt 0.762500 0.970833
vt 0.766667 0.970833
vt 0.700000 0.966667
vt 0.704167 0.966667
vt 0.708333 0.966667
vt 0.712500 0.966667
vt 0.716667 0.966667
vt 0.720833 0.966667
vt 0.725000 0.966667
vt 0.729167 0.966667
vt 0.733333 0.966667
vt 0.737500 0.966667
vt 0.741667 0.966667
vt 0.745833 0.966667
vt 0.750000 0.966667
vt 0.754167 0.966667
vt 0.758333 0.966667
vt 0.762500 0.966667
vt 0.766667 0.966667

vn 0.00000 1.00000 0.00000
vn 0.00000 1.00000 0.00000
vn 0.00000 1.00000 0.00000
vn 0.00000 1.00000 0.00000
vn 0.00000 1.00000 0.00000
vn 0.00000 1.00000 0.00000
vn 0.00000 1.00000 0.00000
vn 0.00000 1.00000 0.00000
vn 0.00000 1.00000 0.00000
vn 0.00000 1.00000 0.00000
vn 0.00000 1.00000 0.00000
vn 0.00000 1.00000 0.00000
vn 0.00000 1.00000 0.00000
vn 0.00000 1.00000 0.00000
vn 0.00000 1.00000 0.00000
vn 0.00000 1.00000 0.00000
vn 0.00000 1.00000 0.00000
vn 0.00000 1.00000 0.00000
vn 0.00000 1.00000 0.00000
vn 0.00000 1.00000 0.00000
vn 0.00000 1.00000 0.00000
vn 0.00000 1.00000 0.00000
vn 0.00000 1.00000 0.00000
vn 0.00000 1.00000 0.00000
vn 0.00000 1.00000 0.00000
vn 0.00000 1.00000 0.00000
vn 0.00000 1.00000 0.00000
vn 0.00000 1.00000 0.00000
vn 0.00000 1.00000 0.00000
vn 0.00000 1.00000 0.00000
vn 0.00000 1.00000 0.00000
vn 0.00000 1.00000 0.00000
vn 0.00000 1.00000 0.00000
vn 0.00000 1.00000 0.00000
vn 0.00000 1.00000 0.00000
vn 0.00000 1.00000 0.00000
vn 0.00000 1.00000 0.00000
vn 0.00000 1.00000 0.00000
vn 0.00000 1.00000 0.00000
vn 0.00000 1.00000 0.00000
vn 0.00000 1.00000 0.00000
vn 0.00000 1.00000 0.00000
vn 0.00000 1.00000 0.00000
vn 0.00000 1.00000 0.00000
vn 0.00000 1.00000 0.00000
vn 0.00000 1.00000 0.00000
vn 0.00000 1.00000 0.00000
vn 0.00000 1.00000 0.00000
vn 0.00000 1.00000 0.00000
vn 0.00000 1.00000 0.00000
vn 0.00000 1.00000 0.00000
vn 0.00000 1.00000 0.00000
vn 0.00000 1.00000 0.00000
vn 0.00000 1.00000 0.00000
vn 0.00000 1.00000 0.00000
vn 0.00000 1.00000 0.00000
vn 0.00000 1.00000 0.00000
vn 0.00000 1.00000 0.00000
vn 0.00000 1.00000 0.00000
vn 0.00000 1.00000 0.00000
vn 0.00000 1.00000 0.00000
vn 0.00000 1.00000 0.00000
vn 0.00000 1.00000 0.00000
vn 0.00000 1.00000 0.00000
vn 0.00000 1.00000 0.00000
vn 0.00000 1.00000 0.00000
vn 0.00000 1.00000 0.00000
vn 0.00000 1.00000 0.00000
vn 0.00000 1.00000 0.00000
vn 0.00000 1.00000 0.00000
vn 0.00000 1.00000 0.00000
vn 0.00000 1.00000 0.00000
vn 0.00000 1.00000 0.00000
vn 0.00000 1.00000 0.00000
vn 0.00000 1.00000 0.00000
vn 0.00000 1.00000 0.00000
vn 0.00000 1.00000 0.00000
vn 0.00000 1.00000 0.00000
vn 0.00000 1.00000 0.00000
vn 0.00000 1.00000 0.00000
vn 0.00000 1.00000 0.00000
vn 0.00000 1.00000 0.00000
vn 0.00000 1.00000 0.00000
vn 0.00000 1.00000 0.00000
vn 0.00000 1.00000 0.00000
vn 0.00000 1.00000 0.00000
vn 0.00000 1.00000 0.00000
vn 0.00000 1.00000 0.00000
vn 0.00000 1.00000 0.00000
vn 0.00000 1.00000 0.00000
vn 0.00000 1.00000 0.00000
vn 0.00000 1.00000 0.00000
vn 0.00000 1.00000 0.00000
vn 0.00000 1.00000 0.00000
vn 0.00000 1.00000 0.00000
vn 0.00000 1.00000 0.00000
vn 0.00000 1.00000 0.00000
vn 0.00000 1.00000 0.00000
vn 0.00000 1.00000 0.00000
vn 0.00000 1.00000 0.00000
vn 0.00000 1.00000 0.00000
vn 0.00000 1.00000 0.00000
vn 0.00000 1.00000 0.00000
vn 0.00000 1.00000 0.00000
vn 0.00000 1.00000 0.00000
vn 0.00000 1.00000 0.00000
vn 0.00000 1.00000 0.00000
vn 0.00000 1.00000 0.00000
vn 0.00000 1.00000 0.00000
vn 0.00000 1.00000 0.00000
vn 0.00000 1.00000 0.00000
vn 0.00000 1.00000 0.00000
vn 0.00000 1.00000 0.00000
vn 0.00000 1.00000 0.00000
vn 0.00000 1.00000 0.00000
vn 0.00000 1.00000 0.00000
vn 0.00000 1.00000 0.00000
vn 0.00000 1.00000 0.00000
vn 0.00000 1.00000 0.00000
vn 0.00000 1.00000 0.00000
vn 0.00000 1.00000 0.00000
vn 0.00000 1.00000 0.00000
vn 0.00000 1.00000 0.00000
vn 0.00000 1.00000 0.00000
vn 0.00000 1.00000 0.00000
vn 0.00000 1.00000 0.00000
vn 0.00000 1.00000 0.00000
vn 0.00000 1.00000 0.00000
vn 0.00000 1.00000 0.00000
vn 0.00000 1.00000 0.00000
vn 0.00000 1.00000 0.00000
vn 0.00000 1.00000 0.00000
vn 0.00000 1.00000 0.00000
vn 0.00000 1.00000 0.00000
vn 0.00000 1.00000 0.00000
vn 0.00000 1.00000 0.00000
vn 0.00000 1.00000 0.00000
vn 0.00000 1.00000 0.00000
vn 0.00000 1.00000 0.00000
vn 0.00000 1.00000 0.00000
vn 0.00000 1.00000 0.00000
vn 0.00000 1.00000 0.00000
vn 0.00000 1.00000 0.00000
vn 0.00000 1.00000 0.00000
vn 0.00000 1.00000 0.00000
vn 0.00000 1.00000 0.00000
vn 0.00000 1.00000 0.00000
vn 0.00000 1.00000 0.00000
vn 0.00000 1.00000 0.00000
vn 0.00000 1.00000 0.00000
vn 0.00000 1.00000 0.00000
vn 0.00000 1.00000 0.00000
vn 0.00000 1.00000 0.00000

f 1/1/1 2/2/2 3/3/3
f 1/1/1 3/3/3 4/4/4
f 4/4/4 3/3/3 5/5/5
f 5/5/5 3/3/3 6/6/6
f 5/5/5 6/6/6 7/7/7
f 5/5/5 7/7/7 8/8/8
f 8/8/8 7/7/7 9/9/9
f 9/9/9 7/7/7 10/10/10
f 9/9/9 10/10/10 11/11/11
f 9/9/9 11/11/11 12/12/12
f 12/12/12 11/11/11 13/13/13
f 13/13/13 11/11/11 14/14/14
f 13/13/13 14/14/14 15/15/15
f 13/13/13 15/15/15 16/16/16
f 16/16/16 15/15/15 17/17/17
f 17/17/17 15/15/15 18/18/18
f 17/17/17 18/18/18 19/19/19
f 17/17/17 19/19/19 20/20/20
f 20/20/20 19/19/19 21/21/21
f 21/21/21 19/19/19 22/22/22
f 21/21/21 22/22/22 23/23/23
f 21/21/21 23/23/23 24/24/24
f 24/24/24 23/23/23 25/25/25
f 25/25/25 23/23/23 26/26/26
f 25/25/25 26/26/26 27/27/27
f 25/25/25 27/27/27 28/28/28
f 28/28/28 27/27/27 29/29/29
f 29/29/29 27/27/27 30/30/30
f 29/29/29 30/30/30 31/31/31
f 29/29/29 31/31/31 32/32/32
f 32/32/32 31/31/31 33/33/33
f 33/33/33 31/31/31 34/34/34
f 2/2/2 35/35/35 3/3/3
f 3/3/3 35/35/35 36/36/36
f 3/3/3 36/36/36 37/37/37
f 3/3/3 37/37/37 6/6/6
f 6/6/6 37/37/37 7/7/7
f 7/7/7 37/37/37 38/38/38
f 7/7/7 38/38/38 39/39/39
f 7/7/7 39/39/39 10/10/10
f 10/10/10 39/39/39 11/11/11
f 11/11/11 39/39/39 40/40/40
f 11/11/11 40/40/40 41/41/41
f 11/11/11 41/41/41 14/14/14
f 14/14/14 41/41/41 15/15/15
f 15/15/15 41/41/41 42/42/42
f 15/15/15 42/42/42 43/43/43
f 15/15/15 43/43/43 18/18/18
f 18/18/18 43/43/43 19/19/19
f 19/19/19 43/43/43 44/44/44
f 19/19/19 44/44/44 45/45/45
f 19/19/19 45/45/45 22/22/22
f 22/22/22 45/45/45 23/23/23
f 23/23/23 45/45/45 46/46/46
f 23/23/23 46/46/46 47/47/47
f 23/23/23 47/47/47 26/26/26
f 26/26/26 47/47/47 27/27/27
f 27/27/27 47/47/47 48/48/48
f 27/27/27 48/48/48 49/49/49
f 27/27/27 49/49/49 30/30/30
f 30/30/30 49/49/49 31/31/31
f 31/31/31 49/49/49 50/50/50
f 31/31/31 50/50/50 51/51/51
f 31/31/31 51/51/51 34/34/34
f 35/35/35 52/52/52 53/53/53
f 35/35/35 53/53/53 36/36/36
f 36/36/36 53/53/53 37/37/37
f 37/37/37 53/53/53 54/54/54
f 37/37/37 54/54/54 55/55/55
f 37/37/37 55/55/55 38/38/38
f 38/38/38 55/55/55 39/39/39
f 39/39/39 55/55/55 56/56/56
f 39/39/39 56/56/56 57/57/57
f 39/39/39 57/57/57 40/40/40
f 40/40/40 57/57/57 41/41/41
f 41/41/41 57/57/57 58/58/58
f 41/41/41 58/58/58 59/59/59
f 41/41/41 59/59/59 42/42/42
f 42/42/42 59/59/59 43/43/43
f 43/43/43 59/59/59 60/60/60
f 43/43/43 60/60/60 61/61/61
f 43/43/43 61/61/61 44/44/44
f 44/44/44 61/61/61 45/45/45
f 45/45/45 61/61/61 62/62/62
f 45/45/45 62/62/62 63/63/63
f 45/45/45 63/63/63 46/46/46
f 46/46/46 63/63/63 47/47/47
f 47/47/47 63/63/63 64/64/64
f 47/47/47 64/64/64 65/65/65
f 47/47/47 65/65/65 48/48/48
f 48/48/48 65/65/65 49/49/49
f 49/49/49 65/65/65 66/66/66
f 49/49/49 66/66/66 67/67/67
f 49/49/49 67/67/67 50/50/50
f 50/50/50 67/67/67 51/51/51
f 51/51/51 67/67/67 68/68/68
f 52/52/52 69/69/69 53/53/53
f 53/53/53 69/69/69 70/70/70
f 53/53/53 70/70/70 71/71/71
f 53/53/53 71/71/71 54/54/54
f 54/54/54 71/71/71 55/55/55
f 55/55/55 71/71/71 72/72/72
f 55/55/55 72/72/72 73/73/73
f 55/55/55 73/73/73 56/56/56
f 56/56/56 73/73/73 57/57/57
f 57/57/57 73/73/73 74/74/74
f 57/57/57 74/74/74 75/75/75
f 57/57/57 75/75/75 58/58/58
f 58/58/58 75/75/75 59/59/59
f 59/59/59 75/75/75 76/76/76
f 59/59/59 76/76/76 77/77/77
f 59/59/59 77/77/77 60/60/60
f 60/60/60 77/77/77 61/61/61
f 61/61/61 77/77/77 78/78/78
f 61/61/61 78/78/78 79/79/79
f 61/61/61 79/79/79 62/62/62
f 62/62/62 79/79/79 63/63/63
f 63/63/63 79/79/79 80/80/80
f 63/63/63 80/80/80 81/81/81
f 63/63/63 81/81/81 64/64/64
f 64/64/64 81/81/81 65/65/65
f 65/65/65 81/81/81 82/82/82
f 65/65/65 82/82/82 83/83/83
f 65/65/65 83/83/83 66/66/66
f 66/66/66 83/83/83 67/67/67
f 67/67/67 83/83/83 84/84/84
f 67/67/67 84/84/84 85/85/85
f 67/67/67 85/85/85 68/68/68
f 69/69/69 86/86/86 87/87/87
f 69/69/69 87/87/87 70/70/70
f 70/70/70 87/87/87 71/71/71
f 71/71/71 87/87/87 88/88/88
f 71/71/71 88/88/88 89/89/89
f 71/71/71 89/89/89 72/72/72
f 72/72/72 89/89/89 73/73/73
f 73/73/73 89/89/89 90/90/90
f 73/73/73 90/90/90 91/91/91
f 73/73/73 91/91/91 74/74/74
f 74/74/74 91/91/91 75/75/75
f 75/75/75 91/91/91 92/92/92
f 75/75/75 92/92/92 93/93/93
f 75/75/75 93/93/93 76/76/76
f 76/76/76 93/93/93 77/77/77
f 77/77/77 93/93/93 94/94/94
f 77/77/77 94/94/94 95/95/95
f 77/77/77 95/95/95 78/78/78
f 78/78/78 95/95/95 79/79/79
f 79/79/79 95/95/95 96/96/96
f 79/79/79 96/96/96 97/97/97
f 79/79/79 97/97/97 80/80/80
f 80/80/80 97/97/97 81/81/81
f 81/81/81 97/97/97 98/98/98
f 81/81/81 98/98/98 99/99/99
f 81/81/81 99/99/99 82/82/82
f 82/82/82 99/99/99 83/83/83
f 83/83/83 99/99/99 100/100/100
f 83/83/83 100/100/100 101/101/101
f 83/83/83 101/101/101 84/84/84
f 84/84/84 101/101/101 85/85/85
f 85/85/85 101/101/101 102/102/102
f 86/86/86 103/103/103 87/87/87
f 87/87/87 103/103/103 104/104/104
f 87/87/87 104/104/104 105/105/105
f 87/87/87 105/105/105 88/88/88
f 88/88/88 105/105/105 89/89/89
f 89/89/89 105/105/105 106/106/106
f 89/89/89 106/106/106 107/107/107
f 89/89/89 107/107/107 90/90/90
f 90/90/90 107/107/107 91/91/91
f 91/91/91 107/107/107 108/108/108
f 91/91/91 108/108/108 109/109/109
f 91/91/91 109/109/109 92/92/92
f 92/92/92 109/109/109 93/93/93
f 93/93/93 109/109/109 110/110/110
f 93/93/93 110/110/110 111/111/111
f 93/93/93 111/111/111 94/94/94
f 94/94/94 111/111/111 95/95/95
f 95/95/95 111/111/111 112/112/112
f 95/95/95 112/112/112 113/113/113
f 95/95/95 113/113/113 96/96/96
f 96/96/96 113/113/113 97/97/97
f 97/97/97 113/113/113 114/114/114
f 97/97/97 114/114/114 115/115/115
f 97/97/97 115/115/115 98/98/98
f 98/98/98 115/115/115 99/99/99
f 99/99/99 115/115/115 116/116/116
f 99/99/99 116/116/116 117/117/117
f 99/99/99 117/117/117 100/100/100
f 100/100/100 117/117/117 101/101/101
f 101/101/101 117/117/117 118/118/118
f 101/101/101 118/118/118 119/119/119
f 101/101/101 119/119/119 102/102/102
f 103/103/103 120/120/120 121/121/121
f 103/103/103 121/121/121 104/104/104
f 104/104/104 121/121/121 105/105/105
f 105/105/105 121/121/121 122/122/122
f 105/105/105 122/122/122 123/123/123
f 105/105/105 123/123/123 106/106/106
f 106/106/106 123/123/123 107/107/107
f 107/107/107 123/123/123 124/124/124
f 107/107/107 124/124/124 125/125/125
f 107/107/107 125/125/125 108/108/108
f 108/108/108 125/125/125 109/109/109
f 109/109/109 125/125/125 126/126/126
f 109/109/109 126/126/126 127/127/127
f 109/109/109 127/127/127 110/110/110
f 110/110/110 127/127/127 111/111/111
f 111/111/111 127/127/127 128/128/128
f 111/111/111 128/128/128 129/129/129
f 111/111/111 129/129/129 112/112/112
f 112/112/112 129/129/129 113/113/113
f 113/113/113 129/129/129 130/130/130
f 113/113/113 130/130/130 131/131/131
f 113/113/113 131/131/131 114/114/114
f 114/114/114 131/131/131 115/115/115
f 115/115/115 131/131/131 132/132/132
f 115/115/115 132/132/132 133/133/133
f 115/115/115 133/133/133 116/116/116
f 116/116/116 133/133/133 117/117/117
f 117/117/117 133/133/133 134/134/134
f 117/117/117 134/134/134 135/135/135
f 117/117/117 135/135/135 118/118/118
f 118/118/118 135/135/135 119/119/119
f 119/119/119 135/135/135 136/136/136
f 120/120/120 137/137/137 121/121/121
f 121/121/121 137/137/137 138/138/138
f 121/121/121 138/138/138 139/139/139
f 121/121/121 139/139/139 122/122/122
f 122/122/122 139/139/139 123/123/123
f 123/123/123 139/139/139 140/140/140
f 123/123/123 140/140/140 141/141/141
f 123/123/123 141/141/141 124/124/124
f 124/124/124 141/141/141 125/125/125
f 125/125/125 141/141/141 142/142/142
f 125/125/125 142/142/142 143/143/143
f 125/125/125 143/143/143 126/126/126
f 126/126/126 143/143/143 127/127/127
f 127/127/127 143/143/143 144/144/144
f 127/127/127 144/144/144 145/145/145
f 127/127/127 145/145/145 128/128/128
f 128/128/128 145/145/145 129/129/129
f 129/129/129 145/145/145 146/146/146
f 129/129/129 146/146/146 147/147/147
f 129/129/129 147/147/147 130/130/130
f 130/130/130 147/147/147 131/131/131
f 131/131/131 147/147/147 148/148/148
f 131/131/131 148/148/148 149/149/149
f 131/131/131 149/149/149 132/132/132
f 132/132/132 149/149/149 133/133/133
f 133/133/133 149/149/149 150/150/150
f 133/133/133 150/150/150 151/151/151
f 133/133/133 151/151/151 134/134/134
f 134/134/134 151/151/151 135/135/135
f 135/135/135 151/151/151 152/152/152
f 135/135/135 152/152/152 153/153/153
f 135/135/135 153/153/153 136/136/136
