# Generated by tools/generate_island.py. Do not edit by hand.
o terrain_lod2_-5_-2

v -640.000 -10.800 -256.000 0.511 0.480 0.282
v -640.000 -10.440 -240.000 0.517 0.487 0.286
v -624.000 -8.965 -240.000 0.570 0.541 0.321
v -624.000 -9.442 -256.000 0.555 0.526 0.312
v -608.000 -9.052 -256.000 0.507 0.476 0.280
v -608.000 -8.306 -240.000 0.505 0.475 0.279
v -592.000 -7.489 -240.000 0.428 0.395 0.228
v -592.000 -8.343 -256.000 0.474 0.443 0.258
v -576.000 -7.117 -256.000 0.414 0.380 0.219
v -576.000 -7.177 -240.000 0.393 0.359 0.205
v -560.000 -6.903 -240.000 0.408 0.375 0.215
v -560.000 -6.657 -256.000 0.397 0.364 0.208
v -544.000 -6.042 -256.000 0.384 0.350 0.199
v -544.000 -5.424 -240.000 0.443 0.411 0.238
v -528.000 -4.354 -240.000 0.446 0.414 0.240
v -528.000 -4.933 -256.000 0.427 0.394 0.227
v -512.000 -4.421 -256.000 0.442 0.410 0.237
v -512.000 -4.227 -240.000 0.473 0.442 0.258
v -640.000 -9.334 -224.000 0.521 0.491 0.289
v -624.000 -8.708 -224.000 0.558 0.529 0.313
v -608.000 -8.039 -224.000 0.473 0.441 0.257
v -592.000 -6.981 -224.000 0.448 0.416 0.241
v -576.000 -6.487 -224.000 0.414 0.381 0.219
v -560.000 -5.983 -224.000 0.432 0.399 0.230
v -544.000 -5.004 -224.000 0.483 0.452 0.264
v -528.000 -4.611 -224.000 0.502 0.472 0.277
v -512.000 -3.831 -224.000 0.499 0.468 0.275
v -640.000 -8.905 -208.000 0.496 0.465 0.273
v -624.000 -8.058 -208.000 0.543 0.514 0.304
v -608.000 -6.941 -208.000 0.465 0.434 0.253
v -592.000 -6.570 -208.000 0.456 0.424 0.247
v -576.000 -6.370 -208.000 0.441 0.409 0.237
v -560.000 -5.264 -208.000 0.488 0.457 0.267
v -544.000 -4.347 -208.000 0.508 0.478 0.281
v -528.000 -4.180 -208.000 0.503 0.472 0.277
v -512.000 -3.411 -208.000 0.486 0.455 0.266
v -640.000 -8.391 -192.000 0.439 0.407 0.235
v -624.000 -7.508 -192.000 0.471 0.439 0.256
v -608.000 -6.503 -192.000 0.428 0.395 0.228
v -592.000 -6.383 -192.000 0.412 0.379 0.217
v -576.000 -5.701 -192.000 0.378 0.344 0.195
v -560.000 -4.816 -192.000 0.407 0.373 0.214
v -544.000 -4.558 -192.000 0.493 0.462 0.271
v -528.000 -3.753 -192.000 0.472 0.440 0.257
v -512.000 -2.920 -192.000 0.468 0.436 0.254
v -640.000 -7.959 -176.000 0.423 0.390 0.225
v -624.000 -6.904 -176.000 0.385 0.351 0.200
v -608.000 -6.266 -176.000 0.378 0.344 0.195
v -592.000 -5.846 -176.000 0.368 0.333 0.188
v -576.000 -4.992 -176.000 0.379 0.345 0.196
v -560.000 -4.686 -176.000 0.411 0.378 0.217
v -544.000 -4.253 -176.000 0.447 0.415 0.240
v -528.000 -3.059 -176.000 0.431 0.399 0.230
v -512.000 -2.624 -176.000 0.435 0.403 0.233
v -640.000 -6.819 -160.000 0.406 0.372 0.213
v -624.000 -6.042 -160.000 0.361 0.326 0.184
v -608.000 -6.258 -160.000 0.372 0.337 0.191
v -592.000 -5.470 -160.000 0.374 0.339 0.192
v -576.000 -4.356 -160.000 0.367 0.332 0.188
v -560.000 -4.089 -160.000 0.381 0.347 0.197
v -544.000 -3.553 -160.000 0.416 0.383 0.220
v -528.000 -2.932 -160.000 0.427 0.394 0.227
v -512.000 -2.791 -160.000 0.434 0.402 0.232
v -640.000 -6.353 -144.000 0.401 0.368 0.210
v -624.000 -5.908 -144.000 0.367 0.333 0.188
v -608.000 -5.372 -144.000 0.387 0.353 0.201
v -592.000 -4.312 -144.000 0.403 0.370 0.212
v -576.000 -4.227 -144.000 0.385 0.351 0.200
v -560.000 -3.932 -144.000 0.414 0.381 0.219
v -544.000 -2.711 -144.000 0.433 0.400 0.231
v -528.000 -2.269 -144.000 0.435 0.403 0.233
v -512.000 -2.342 -144.000 0.436 0.404 0.233
v -640.000 -5.650 -128.000 0.406 0.372 0.213
v -624.000 -5.775 -128.000 0.394 0.360 0.205
v -608.000 -4.834 -128.000 0.401 0.368 0.210
v -592.000 -3.971 -128.000 0.449 0.417 0.242
v -576.000 -3.594 -128.000 0.428 0.395 0.228
v -560.000 -2.867 -128.000 0.483 0.452 0.264
v -544.000 -2.160 -128.000 0.492 0.461 0.270
v -528.000 -2.205 -128.000 0.460 0.428 0.249
v -512.000 -1.637 -128.000 0.452 0.420 0.244

vt 0.166667 0.633333
vt 0.166667 0.625000
vt 0.175000 0.625000
vt 0.175000 0.633333
vt 0.183333 0.633333
vt 0.183333 0.625000
vt 0.191667 0.625000
vt 0.191667 0.633333
vt 0.200000 0.633333
vt 0.200000 0.625000
vt 0.208333 0.625000
vt 0.208333 0.633333
vt 0.216667 0.633333
vt 0.216667 0.625000
vt 0.225000 0.625000
vt 0.225000 0.633333
vt 0.233333 0.633333
vt 0.233333 0.625000
vt 0.166667 0.616667
vt 0.175000 0.616667
vt 0.183333 0.616667
vt 0.191667 0.616667
vt 0.200000 0.616667
vt 0.208333 0.616667
vt 0.216667 0.616667
vt 0.225000 0.616667
vt 0.233333 0.616667
vt 0.166667 0.608333
vt 0.175000 0.608333
vt 0.183333 0.608333
vt 0.191667 0.608333
vt 0.200000 0.608333
vt 0.208333 0.608333
vt 0.216667 0.608333
vt 0.225000 0.608333
vt 0.233333 0.608333
vt 0.166667 0.600000
vt 0.175000 0.600000
vt 0.183333 0.600000
vt 0.191667 0.600000
vt 0.200000 0.600000
vt 0.208333 0.600000
vt 0.216667 0.600000
vt 0.225000 0.600000
vt 0.233333 0.600000
vt 0.166667 0.591667
vt 0.175000 0.591667
vt 0.183333 0.591667
vt 0.191667 0.591667
vt 0.200000 0.591667
vt 0.208333 0.591667
vt 0.216667 0.591667
vt 0.225000 0.591667
vt 0.233333 0.591667
vt 0.166667 0.583333
vt 0.175000 0.583333
vt 0.183333 0.583333
vt 0.191667 0.583333
vt 0.200000 0.583333
vt 0.208333 0.583333
vt 0.216667 0.583333
vt 0.225000 0.583333
vt 0.233333 0.583333
vt 0.166667 0.575000
vt 0.175000 0.575000
vt 0.183333 0.575000
vt 0.191667 0.575000
vt 0.200000 0.575000
vt 0.208333 0.575000
vt 0.216667 0.575000
vt 0.225000 0.575000
vt 0.233333 0.575000
vt 0.166667 0.566667
vt 0.175000 0.566667
vt 0.183333 0.566667
vt 0.191667 0.566667
vt 0.200000 0.566667
vt 0.208333 0.566667
vt 0.216667 0.566667
vt 0.225000 0.566667
vt 0.233333 0.566667

vn -0.08815 0.99577 -0.02603
vn -0.09172 0.99474 -0.04557
vn -0.05700 0.99790 -0.03077
vn -0.05452 0.99807 -0.02976
vn -0.04017 0.99822 -0.04402
vn -0.04605 0.99844 -0.03161
vn -0.04482 0.99841 -0.03406
vn -0.06027 0.99676 -0.05319
vn -0.03547 0.99934 -0.00764
vn -0.01830 0.99964 -0.01968
vn -0.04729 0.99860 -0.02354
vn -0.03357 0.99932 0.01536
vn -0.06660 0.99748 -0.02444
vn -0.07936 0.99632 -0.03231
vn -0.04051 0.99902 -0.01773
vn -0.05056 0.99807 -0.03608
vn -0.01998 0.99951 -0.02415
vn -0.00799 0.99980 -0.01845
vn -0.05573 0.99772 -0.03808
vn -0.04042 0.99878 -0.02833
vn -0.05004 0.99811 -0.03555
vn -0.04842 0.99841 -0.02869
vn -0.03035 0.99901 -0.03257
vn -0.04622 0.99762 -0.05111
vn -0.04973 0.99828 -0.03095
vn -0.03665 0.99931 -0.00544
vn -0.03836 0.99914 -0.01545
vn -0.05287 0.99817 -0.02943
vn -0.05544 0.99774 -0.03804
vn -0.04640 0.99777 -0.04788
vn -0.02729 0.99925 -0.02747
vn -0.04075 0.99887 -0.02453
vn -0.05203 0.99826 -0.02781
vn -0.03384 0.99933 -0.01393
vn -0.03655 0.99904 -0.02399
vn -0.04799 0.99844 -0.02842
vn -0.05719 0.99783 -0.03274
vn -0.05884 0.99762 -0.03596
vn -0.03743 0.99898 -0.02518
vn -0.02505 0.99943 -0.02260
vn -0.04369 0.99854 -0.03164
vn -0.03569 0.99920 -0.01804
vn -0.03776 0.99918 -0.01472
vn -0.05110 0.99808 -0.03498
vn -0.04477 0.99855 -0.02978
vn -0.06569 0.99664 -0.04896
vn -0.04550 0.99828 -0.03704
vn -0.03305 0.99942 -0.00766
vn -0.04098 0.99880 -0.02667
vn -0.03619 0.99846 -0.04198
vn -0.02673 0.99920 -0.02969
vn -0.05077 0.99822 -0.03135
vn -0.04415 0.99879 -0.02165
vn -0.02715 0.99962 -0.00401
vn -0.04761 0.99804 -0.04058
vn -0.01751 0.99936 -0.03110
vn -0.02965 0.99899 -0.03370
vn -0.05928 0.99710 -0.04780
vn -0.03357 0.99899 -0.02981
vn -0.02506 0.99941 -0.02356
vn -0.04371 0.99839 -0.03609
vn -0.02379 0.99941 -0.02465
vn -0.01004 0.99981 -0.01673
vn -0.02773 0.99895 -0.03649
vn -0.02606 0.99936 -0.02441
vn -0.04978 0.99777 -0.04440
vn -0.04237 0.99828 -0.04042
vn -0.01187 0.99965 -0.02379
vn -0.04110 0.99851 -0.03588
vn -0.05183 0.99771 -0.04345
vn -0.01579 0.99939 -0.03124
vn 0.00455 0.99934 -0.03605
vn -0.00997 0.99961 -0.02613
vn -0.02548 0.99964 -0.00835
vn -0.05304 0.99830 -0.02418
vn -0.03871 0.99902 -0.02130
vn -0.02317 0.99886 -0.04170
vn -0.04469 0.99679 -0.06637
vn -0.03626 0.99873 -0.03485
vn -0.01632 0.99986 -0.00402
vn -0.01547 0.99959 -0.02404

f 1/1/1 2/2/2 3/3/3
f 1/1/1 3/3/3 4/4/4
f 4/4/4 3/3/3 5/5/5
f 5/5/5 3/3/3 6/6/6
f 5/5/5 6/6/6 7/7/7
f 5/5/5 7/7/7 8/8/8
f 8/8/8 7/7/7 9/9/9
f 9/9/9 7/7/7 10/10/10
f 9/9/9 10/10/10 11/11/11
f 9/9/9 11/11/11 12/12/12
f 12/12/12 11/11/11 13/13/13
f 13/13/13 11/11/11 14/14/14
f 13/13/13 14/14/14 15/15/15
f 13/13/13 15/15/15 16/16/16
f 16/16/16 15/15/15 17/17/17
f 17/17/17 15/15/15 18/18/18
f 2/2/2 19/19/19 3/3/3
f 3/3/3 19/19/19 20/20/20
f 3/3/3 20/20/20 21/21/21
f 3/3/3 21/21/21 6/6/6
f 6/6/6 21/21/21 7/7/7
f 7/7/7 21/21/21 22/22/22
f 7/7/7 22/22/22 23/23/23
f 7/7/7 23/23/23 10/10/10
f 10/10/10 23/23/23 11/11/11
f 11/11/11 23/23/23 24/24/24
f 11/11/11 24/24/24 25/25/25
f 11/11/11 25/25/25 14/14/14
f 14/14/14 25/25/25 15/15/15
f 15/15/15 25/25/25 26/26/26
f 15/15/15 26/26/26 27/27/27
f 15/15/15 27/27/27 18/18/18
f 19/19/19 28/28/28 29/29/29
f 19/19/19 29/29/29 20/20/20
f 20/20/20 29/29/29 21/21/21
f 21/21/21 29/29/29 30/30/30
f 21/21/21 30/30/30 31/31/31
f 21/21/21 31/31/31 22/22/22
f 22/22/22 31/31/31 23/23/23
f 23/23/23 31/31/31 32/32/32
f 23/23/23 32/32/32 33/33/33
f 23/23/23 33/33/33 24/24/24
f 24/24/24 33/33/33 25/25/25
f 25/25/25 33/33/33 34/34/34
f 25/25/25 34/34/34 35/35/35
f 25/25/25 35/35/35 26/26/26
f 26/26/26 35/35/35 27/27/27
f 27/27/27 35/35/35 36/36/36
f 28/28/28 37/37/37 29/29/29
f 29/29/29 37/37/37 38/38/38
f 29/29/29 38/38/38 39/39/39
f 29/29/29 39/39/39 30/30/30
f 30/30/30 39/39/39 31/31/31
f 31/31/31 39/39/39 40/40/40
f 31/31/31 40/40/40 41/41/41
f 31/31/31 41/41/41 32/32/32
f 32/32/32 41/41/41 33/33/33
f 33/33/33 41/41/41 42/42/42
f 33/33/33 42/42/42 43/43/43
f 33/33/33 43/43/43 34/34/34
f 34/34/34 43/43/43 35/35/35
f 35/35/35 43/43/43 44/44/44
f 35/35/35 44/44/44 45/45/45
f 35/35/35 45/45/45 36/36/36
f 37/37/37 46/46/46 47/47/47
f 37/37/37 47/47/47 38/38/38
f 38/38/38 47/47/47 39/39/39
f 39/39/39 47/47/47 48/48/48
f 39/39/39 48/48/48 49/49/49
f 39/39/39 49/49/49 40/40/40
f 40/40/40 49/49/49 41/41/41
f 41/41/41 49/49/49 50/50/50
f 41/41/41 50/50/50 51/51/51
f 41/41/41 51/51/51 42/42/42
f 42/42/42 51/51/51 43/43/43
f 43/43/43 51/51/51 52/52/52
f 43/43/43 52/52/52 53/53/53
f 43/43/43 53/53/53 44/44/44
f 44/44/44 53/53/53 45/45/45
f 45/45/45 53/53/53 54/54/54
f 46/46/46 55/55/55 47/47/47
f 47/47/47 55/55/55 56/56/56
f 47/47/47 56/56/56 57/57/57
f 47/47/47 57/57/57 48/48/48
f 48/48/48 57/57/57 49/49/49
f 49/49/49 57/57/57 58/58/58
f 49/49/49 58/58/58 59/59/59
f 49/49/49 59/59/59 50/50/50
f 50/50/50 59/59/59 51/51/51
f 51/51/51 59/59/59 60/60/60
f 51/51/51 60/60/60 61/61/61
f 51/51/51 61/61/61 52/52/52
f 52/52/52 61/61/61 53/53/53
f 53/53/53 61/61/61 62/62/62
f 53/53/53 62/62/62 63/63/63
f 53/53/53 63/63/63 54/54/54
f 55/55/55 64/64/64 65/65/65
f 55/55/55 65/65/65 56/56/56
f 56/56/56 65/65/65 57/57/57
f 57/57/57 65/65/65 66/66/66
f 57/57/57 66/66/66 67/67/67
f 57/57/57 67/67/67 58/58/58
f 58/58/58 67/67/67 59/59/59
f 59/59/59 67/67/67 68/68/68
f 59/59/59 68/68/68 69/69/69
f 59/59/59 69/69/69 60/60/60
f 60/60/60 69/69/69 61/61/61
f 61/61/61 69/69/69 70/70/70
f 61/61/61 70/70/70 71/71/71
f 61/61/61 71/71/71 62/62/62
f 62/62/62 71/71/71 63/63/63
f 63/63/63 71/71/71 72/72/72
f 64/64/64 73/73/73 65/65/65
f 65/65/65 73/73/73 74/74/74
f 65/65/65 74/74/74 75/75/75
f 65/65/65 75/75/75 66/66/66
f 66/66/66 75/75/75 67/67/67
f 67/67/67 75/75/75 76/76/76
f 67/67/67 76/76/76 77/77/77
f 67/67/67 77/77/77 68/68/68
f 68/68/68 77/77/77 69/69/69
f 69/69/69 77/77/77 78/78/78
f 69/69/69 78/78/78 79/79/79
f 69/69/69 79/79/79 70/70/70
f 70/70/70 79/79/79 71/71/71
f 71/71/71 79/79/79 80/80/80
f 71/71/71 80/80/80 81/81/81
f 71/71/71 81/81/81 72/72/72
