# Generated by tools/generate_island.py. Do not edit by hand.
o terrain_lod2_-5_-3

v -624.000 -10.800 -384.000 0.457 0.425 0.247
v -624.000 -10.800 -368.000 0.512 0.482 0.284
v -608.000 -9.846 -384.000 0.506 0.476 0.279
v -608.000 -9.577 -368.000 0.516 0.485 0.286
v -592.000 -9.005 -368.000 0.440 0.408 0.236
v -592.000 -8.580 -384.000 0.425 0.392 0.226
v -576.000 -8.082 -384.000 0.384 0.350 0.199
v -576.000 -7.884 -368.000 0.420 0.387 0.223
v -560.000 -6.548 -368.000 0.396 0.362 0.207
v -560.000 -7.180 -384.000 0.372 0.337 0.191
v -544.000 -6.625 -384.000 0.447 0.415 0.240
v -544.000 -6.270 -368.000 0.416 0.383 0.220
v -528.000 -5.415 -368.000 0.446 0.414 0.240
v -528.000 -5.732 -384.000 0.522 0.492 0.290
v -512.000 -4.119 -384.000 0.570 0.541 0.321
v -512.000 -4.360 -368.000 0.479 0.448 0.261
v -624.000 -10.800 -352.000 0.532 0.502 0.296
v -608.000 -9.689 -352.000 0.535 0.505 0.298
v -592.000 -8.832 -352.000 0.507 0.477 0.280
v -576.000 -7.239 -352.000 0.499 0.469 0.275
v -560.000 -6.567 -352.000 0.479 0.448 0.262
v -544.000 -6.014 -352.000 0.436 0.403 0.233
v -528.000 -4.962 -352.000 0.450 0.418 0.242
v -512.000 -4.391 -352.000 0.430 0.397 0.229
v -640.000 -10.800 -352.000 0.523 0.493 0.291
v -640.000 -10.800 -336.000 0.542 0.513 0.303
v -624.000 -10.575 -336.000 0.576 0.547 0.325
v -608.000 -9.640 -336.000 0.549 0.520 0.308
v -592.000 -8.450 -336.000 0.551 0.522 0.309
v -576.000 -7.368 -336.000 0.538 0.508 0.300
v -560.000 -6.888 -336.000 0.524 0.494 0.291
v -544.000 -5.560 -336.000 0.487 0.456 0.267
v -528.000 -4.558 -336.000 0.413 0.379 0.218
v -512.000 -4.703 -336.000 0.371 0.337 0.191
v -640.000 -10.800 -320.000 0.549 0.520 0.308
v -624.000 -10.800 -320.000 0.585 0.557 0.331
v -608.000 -10.038 -320.000 0.556 0.527 0.312
v -592.000 -8.347 -320.000 0.523 0.494 0.291
v -576.000 -7.469 -320.000 0.491 0.460 0.269
v -560.000 -6.794 -320.000 0.494 0.463 0.272
v -544.000 -5.688 -320.000 0.462 0.430 0.250
v -528.000 -5.230 -320.000 0.403 0.369 0.211
v -512.000 -4.669 -320.000 0.361 0.326 0.184
v -624.000 -10.800 -304.000 0.546 0.517 0.306
v -608.000 -9.488 -304.000 0.541 0.512 0.303
v -592.000 -8.600 -304.000 0.476 0.444 0.259
v -576.000 -8.317 -304.000 0.455 0.423 0.246
v -560.000 -6.813 -304.000 0.453 0.421 0.244
v -544.000 -5.492 -304.000 0.460 0.428 0.249
v -528.000 -5.123 -304.000 0.414 0.381 0.219
v -512.000 -4.432 -304.000 0.400 0.366 0.210
v -624.000 -10.800 -288.000 0.512 0.482 0.283
v -608.000 -9.369 -288.000 0.484 0.453 0.265
v -592.000 -8.781 -288.000 0.412 0.379 0.218
v -576.000 -8.051 -288.000 0.386 0.352 0.200
v -560.000 -6.811 -288.000 0.392 0.358 0.204
v -544.000 -6.411 -288.000 0.427 0.394 0.227
v -528.000 -5.375 -288.000 0.447 0.415 0.240
v -512.000 -3.860 -288.000 0.436 0.404 0.233
v -640.000 -10.800 -288.000 0.488 0.457 0.267
v -640.000 -10.800 -272.000 0.483 0.452 0.264
v -624.000 -10.340 -272.000 0.534 0.505 0.298
v -608.000 -9.037 -272.000 0.503 0.473 0.278
v -592.000 -8.615 -272.000 0.445 0.412 0.239
v -576.000 -7.592 -272.000 0.395 0.361 0.206
v -560.000 -6.803 -272.000 0.368 0.334 0.189
v -544.000 -6.367 -272.000 0.395 0.361 0.206
v -528.000 -5.155 -272.000 0.393 0.359 0.205
v -512.000 -4.309 -272.000 0.422 0.390 0.224
v -640.000 -10.800 -256.000 0.511 0.480 0.282
v -624.000 -9.442 -256.000 0.555 0.526 0.312
v -608.000 -9.052 -256.000 0.507 0.476 0.280
v -592.000 -8.343 -256.000 0.474 0.443 0.258
v -576.000 -7.117 -256.000 0.414 0.380 0.219
v -560.000 -6.657 -256.000 0.397 0.364 0.208
v -544.000 -6.042 -256.000 0.384 0.350 0.199
v -528.000 -4.933 -256.000 0.427 0.394 0.227
v -512.000 -4.421 -256.000 0.442 0.410 0.237

vt 0.175000 0.700000
vt 0.175000 0.691667
vt 0.183333 0.700000
vt 0.183333 0.691667
vt 0.191667 0.691667
vt 0.191667 0.700000
vt 0.200000 0.700000
vt 0.200000 0.691667
vt 0.208333 0.691667
vt 0.208333 0.700000
vt 0.216667 0.700000
vt 0.216667 0.691667
vt 0.225000 0.691667
vt 0.225000 0.700000
vt 0.233333 0.700000
vt 0.233333 0.691667
vt 0.175000 0.683333
vt 0.183333 0.683333
vt 0.191667 0.683333
vt 0.200000 0.683333
vt 0.208333 0.683333
vt 0.216667 0.683333
vt 0.225000 0.683333
vt 0.233333 0.683333
vt 0.166667 0.683333
vt 0.166667 0.675000
vt 0.175000 0.675000
vt 0.183333 0.675000
vt 0.191667 0.675000
vt 0.200000 0.675000
vt 0.208333 0.675000
vt 0.216667 0.675000
vt 0.225000 0.675000
vt 0.233333 0.675000
vt 0.166667 0.666667
vt 0.175000 0.666667
vt 0.183333 0.666667
vt 0.191667 0.666667
vt 0.200000 0.666667
vt 0.208333 0.666667
vt 0.216667 0.666667
vt 0.225000 0.666667
vt 0.233333 0.666667
vt 0.175000 0.658333
vt 0.183333 0.658333
vt 0.191667 0.658333
vt 0.200000 0.658333
vt 0.208333 0.658333
vt 0.216667 0.658333
vt 0.225000 0.658333
vt 0.233333 0.658333
vt 0.175000 0.650000
vt 0.183333 0.650000
vt 0.191667 0.650000
vt 0.200000 0.650000
vt 0.208333 0.650000
vt 0.216667 0.650000
vt 0.225000 0.650000
vt 0.233333 0.650000
vt 0.166667 0.650000
vt 0.166667 0.641667
vt 0.175000 0.641667
vt 0.183333 0.641667
vt 0.191667 0.641667
vt 0.200000 0.641667
vt 0.208333 0.641667
vt 0.216667 0.641667
vt 0.225000 0.641667
vt 0.233333 0.641667
vt 0.166667 0.633333
vt 0.175000 0.633333
vt 0.183333 0.633333
vt 0.191667 0.633333
vt 0.200000 0.633333
vt 0.208333 0.633333
vt 0.216667 0.633333
vt 0.225000 0.633333
vt 0.233333 0.633333

vn -0.05953 0.99823 0.00000
vn -0.07029 0.99752 -0.00244
vn -0.06260 0.99804 -0.00175
vn -0.05600 0.99842 -0.00488
vn -0.05927 0.99823 -0.00387
vn -0.05501 0.99813 0.02649
vn -0.06016 0.99814 -0.00939
vn -0.07652 0.99672 -0.02625
vn -0.04612 0.99872 -0.02090
vn -0.04544 0.99819 -0.03938
vn -0.04028 0.99885 -0.02589
vn -0.03538 0.99919 -0.01909
vn -0.06197 0.99797 -0.01465
vn -0.07807 0.99675 -0.01973
vn -0.08309 0.99654 -0.00235
vn -0.06580 0.99780 0.00848
vn -0.04622 0.99889 -0.00937
vn -0.06126 0.99811 -0.00510
vn -0.07633 0.99693 -0.01730
vn -0.06663 0.99773 -0.00973
vn -0.03826 0.99921 0.01062
vn -0.05207 0.99853 -0.01512
vn -0.05063 0.99836 -0.02676
vn -0.03203 0.99945 -0.00804
vn -0.00704 0.99995 -0.00704
vn -0.01407 0.99990 0.00000
vn -0.03273 0.99946 0.00272
vn -0.06625 0.99774 0.01086
vn -0.07451 0.99722 -0.00304
vn -0.04874 0.99879 0.00718
vn -0.05167 0.99866 0.00279
vn -0.07264 0.99731 -0.01017
vn -0.03400 0.99941 0.00380
vn 0.00910 0.99992 0.00869
vn -0.00704 0.99995 0.00704
vn -0.03174 0.99945 0.00938
vn -0.07193 0.99741 0.00055
vn -0.08001 0.99678 0.00467
vn -0.05036 0.99861 0.01539
vn -0.05559 0.99845 -0.00235
vn -0.05577 0.99844 0.00275
vn -0.03180 0.99934 0.01764
vn -0.02601 0.99965 0.00459
vn -0.07505 0.99713 -0.01042
vn -0.06858 0.99743 -0.02084
vn -0.04861 0.99880 0.00609
vn -0.05574 0.99828 0.01814
vn -0.07070 0.99744 0.01043
vn -0.05274 0.99835 0.02255
vn -0.04439 0.99901 0.00159
vn -0.04309 0.99875 -0.02527
vn -0.05949 0.99805 -0.01913
vn -0.06209 0.99802 -0.01050
vn -0.04116 0.99915 0.00048
vn -0.05879 0.99821 -0.01126
vn -0.05120 0.99869 -0.00031
vn -0.04847 0.99873 0.01383
vn -0.07947 0.99684 0.00100
vn -0.07117 0.99746 -0.00143
vn -0.01437 0.99979 -0.01437
vn -0.02874 0.99959 0.00000
vn -0.05230 0.99835 -0.02365
vn -0.05382 0.99850 -0.00990
vn -0.04792 0.99871 -0.01659
vn -0.05651 0.99798 -0.02913
vn -0.04033 0.99911 -0.01257
vn -0.05144 0.99861 -0.01150
vn -0.06462 0.99790 -0.00538
vn -0.05281 0.99845 0.01752
vn -0.05669 0.99800 -0.02799
vn -0.05446 0.99695 -0.05592
vn -0.04407 0.99887 -0.01777
vn -0.06035 0.99803 -0.01697
vn -0.05456 0.99828 -0.02134
vn -0.03357 0.99939 -0.00910
vn -0.05262 0.99849 -0.01586
vn -0.05059 0.99862 -0.01385
vn -0.04240 0.99909 -0.00341

f 1/1/1 2/2/2 3/3/3
f 3/3/3 2/2/2 4/4/4
f 3/3/3 4/4/4 5/5/5
f 3/3/3 5/5/5 6/6/6
f 6/6/6 5/5/5 7/7/7
f 7/7/7 5/5/5 8/8/8
f 7/7/7 8/8/8 9/9/9
f 7/7/7 9/9/9 10/10/10
f 10/10/10 9/9/9 11/11/11
f 11/11/11 9/9/9 12/12/12
f 11/11/11 12/12/12 13/13/13
f 11/11/11 13/13/13 14/14/14
f 14/14/14 13/13/13 15/15/15
f 15/15/15 13/13/13 16/16/16
f 2/2/2 17/17/17 18/18/18
f 2/2/2 18/18/18 4/4/4
f 4/4/4 18/18/18 5/5/5
f 5/5/5 18/18/18 19/19/19
f 5/5/5 19/19/19 20/20/20
f 5/5/5 20/20/20 8/8/8
f 8/8/8 20/20/20 9/9/9
f 9/9/9 20/20/20 21/21/21
f 9/9/9 21/21/21 22/22/22
f 9/9/9 22/22/22 12/12/12
f 12/12/12 22/22/22 13/13/13
f 13/13/13 22/22/22 23/23/23
f 13/13/13 23/23/23 24/24/24
f 13/13/13 24/24/24 16/16/16
f 25/25/25 26/26/26 27/27/27
f 25/25/25 27/27/27 17/17/17
f 17/17/17 27/27/27 18/18/18
f 18/18/18 27/27/27 28/28/28
f 18/18/18 28/28/28 29/29/29
f 18/18/18 29/29/29 19/19/19
f 19/19/19 29/29/29 20/20/20
f 20/20/20 29/29/29 30/30/30
f 20/20/20 30/30/30 31/31/31
f 20/20/20 31/31/31 21/21/21
f 21/21/21 31/31/31 22/22/22
f 22/22/22 31/31/31 32/32/32
f 22/22/22 32/32/32 33/33/33
f 22/22/22 33/33/33 23/23/23
f 23/23/23 33/33/33 24/24/24
f 24/24/24 33/33/33 34/34/34
f 26/26/26 35/35/35 27/27/27
f 27/27/27 35/35/35 36/36/36
f 27/27/27 36/36/36 37/37/37
f 27/27/27 37/37/37 28/28/28
f 28/28/28 37/37/37 29/29/29
f 29/29/29 37/37/37 38/38/38
f 29/29/29 38/38/38 39/39/39
f 29/29/29 39/39/39 30/30/30
f 30/30/30 39/39/39 31/31/31
f 31/31/31 39/39/39 40/40/40
f 31/31/31 40/40/40 41/41/41
f 31/31/31 41/41/41 32/32/32
f 32/32/32 41/41/41 33/33/33
f 33/33/33 41/41/41 42/42/42
f 33/33/33 42/42/42 43/43/43
f 33/33/33 43/43/43 34/34/34
f 36/36/36 44/44/44 37/37/37
f 37/37/37 44/44/44 45/45/45
f 37/37/37 45/45/45 46/46/46
f 37/37/37 46/46/46 38/38/38
f 38/38/38 46/46/46 39/39/39
f 39/39/39 46/46/46 47/47/47
f 39/39/39 47/47/47 48/48/48
f 39/39/39 48/48/48 40/40/40
f 40/40/40 48/48/48 41/41/41
f 41/41/41 48/48/48 49/49/49
f 41/41/41 49/49/49 50/50/50
f 41/41/41 50/50/50 42/42/42
f 42/42/42 50/50/50 43/43/43
f 43/43/43 50/50/50 51/51/51
f 44/44/44 52/52/52 53/53/53
f 44/44/44 53/53/53 45/45/45
f 45/45/45 53/53/53 46/46/46
f 46/46/46 53/53/53 54/54/54
f 46/46/46 54/54/54 55/55/55
f 46/46/46 55/55/55 47/47/47
f 47/47/47 55/55/55 48/48/48
f 48/48/48 55/55/55 56/56/56
f 48/48/48 56/56/56 57/57/57
f 48/48/48 57/57/57 49/49/49
f 49/49/49 57/57/57 50/50/50
f 50/50/50 57/57/57 58/58/58
f 50/50/50 58/58/58 59/59/59
f 50/50/50 59/59/59 51/51/51
f 60/60/60 61/61/61 62/62/62
f 60/60/60 62/62/62 52/52/52
f 52/52/52 62/62/62 53/53/53
f 53/53/53 62/62/62 63/63/63
f 53/53/53 63/63/63 64/64/64
f 53/53/53 64/64/64 54/54/54
f 54/54/54 64/64/64 55/55/55
f 55/55/55 64/64/64 65/65/65
f 55/55/55 65/65/65 66/66/66
f 55/55/55 66/66/66 56/56/56
f 56/56/56 66/66/66 57/57/57
f 57/57/57 66/66/66 67/67/67
f 57/57/57 67/67/67 68/68/68
f 57/57/57 68/68/68 58/58/58
f 58/58/58 68/68/68 59/59/59
f 59/59/59 68/68/68 69/69/69
f 61/61/61 70/70/70 62/62/62
f 62/62/62 70/70/70 71/71/71
f 62/62/62 71/71/71 72/72/72
f 62/62/62 72/72/72 63/63/63
f 63/63/63 72/72/72 64/64/64
f 64/64/64 72/72/72 73/73/73
f 64/64/64 73/73/73 74/74/74
f 64/64/64 74/74/74 65/65/65
f 65/65/65 74/74/74 66/66/66
f 66/66/66 74/74/74 75/75/75
f 66/66/66 75/75/75 76/76/76
f 66/66/66 76/76/76 67/67/67
f 67/67/67 76/76/76 68/68/68
f 68/68/68 76/76/76 77/77/77
f 68/68/68 77/77/77 78/78/78
f 68/68/68 78/78/78 69/69/69
