# Generated by tools/generate_island.py. Do not edit by hand.
o terrain_lod0_6_2

v 768.000 -9.862 256.000 0.422 0.389 0.224
v 768.000 -9.969 260.000 0.404 0.370 0.212
v 772.000 -10.035 260.000 0.408 0.374 0.215
v 772.000 -10.024 256.000 0.415 0.381 0.219
v 776.000 -10.332 256.000 0.417 0.384 0.221
v 776.000 -10.241 260.000 0.421 0.388 0.224
v 780.000 -10.455 260.000 0.418 0.385 0.222
v 780.000 -10.480 256.000 0.410 0.377 0.216
v 784.000 -10.460 256.000 0.412 0.378 0.217
v 784.000 -10.562 260.000 0.421 0.388 0.223
v 788.000 -10.582 260.000 0.425 0.393 0.226
v 788.000 -10.390 256.000 0.432 0.400 0.231
v 792.000 -10.596 256.000 0.440 0.407 0.236
v 792.000 -10.724 260.000 0.432 0.400 0.231
v 796.000 -10.800 260.000 0.435 0.402 0.232
v 796.000 -10.800 256.000 0.437 0.405 0.234
v 768.000 -10.106 264.000 0.396 0.362 0.207
v 772.000 -10.120 264.000 0.405 0.372 0.213
v 776.000 -10.206 264.000 0.414 0.381 0.219
v 780.000 -10.421 264.000 0.413 0.380 0.218
v 784.000 -10.656 264.000 0.418 0.385 0.221
v 788.000 -10.800 264.000 0.432 0.399 0.231
v 792.000 -10.800 264.000 0.441 0.409 0.237
v 768.000 -10.298 268.000 0.404 0.370 0.212
v 772.000 -10.283 268.000 0.411 0.378 0.217
v 776.000 -10.222 268.000 0.410 0.376 0.216
v 780.000 -10.356 268.000 0.408 0.375 0.215
v 784.000 -10.658 268.000 0.413 0.380 0.218
v 788.000 -10.800 268.000 0.434 0.402 0.232
v 768.000 -10.360 272.000 0.416 0.383 0.220
v 772.000 -10.358 272.000 0.415 0.382 0.220
v 776.000 -10.248 272.000 0.413 0.380 0.218
v 780.000 -10.286 272.000 0.410 0.377 0.216
v 784.000 -10.559 272.000 0.411 0.378 0.217
v 788.000 -10.800 272.000 0.425 0.392 0.226
v 768.000 -10.226 276.000 0.422 0.389 0.224
v 772.000 -10.309 276.000 0.414 0.380 0.218
v 776.000 -10.267 276.000 0.409 0.376 0.216
v 780.000 -10.239 276.000 0.410 0.376 0.216
v 784.000 -10.495 276.000 0.415 0.382 0.220
v 788.000 -10.800 276.000 0.426 0.393 0.226
v 768.000 -10.006 280.000 0.421 0.388 0.223
v 772.000 -10.143 280.000 0.407 0.374 0.214
v 776.000 -10.288 280.000 0.404 0.371 0.212
v 780.000 -10.304 280.000 0.412 0.379 0.217
v 784.000 -10.474 280.000 0.429 0.396 0.229
v 788.000 -10.800 280.000 0.441 0.408 0.236
v 768.000 -9.870 284.000 0.424 0.391 0.226
v 772.000 -10.026 284.000 0.419 0.386 0.222
v 776.000 -10.334 284.000 0.401 0.368 0.210
v 780.000 -10.495 284.000 0.413 0.380 0.218
v 784.000 -10.660 284.000 0.442 0.409 0.237
v 788.000 -10.800 284.000 0.460 0.428 0.249
v 768.000 -9.915 288.000 0.431 0.398 0.230
v 772.000 -10.096 288.000 0.428 0.396 0.228
v 776.000 -10.441 288.000 0.412 0.379 0.218
v 780.000 -10.759 288.000 0.421 0.388 0.223
v 784.000 -10.800 288.000 0.446 0.414 0.240
v 768.000 -10.142 292.000 0.433 0.400 0.231
v 772.000 -10.224 292.000 0.435 0.403 0.233
v 776.000 -10.524 292.000 0.438 0.405 0.234
v 780.000 -10.800 292.000 0.433 0.401 0.232
v 768.000 -10.345 296.000 0.421 0.388 0.223
v 772.000 -10.371 296.000 0.428 0.395 0.228
v 776.000 -10.610 296.000 0.443 0.411 0.238
v 780.000 -10.800 296.000 0.451 0.419 0.243
v 768.000 -10.354 300.000 0.410 0.376 0.216
v 772.000 -10.463 300.000 0.425 0.392 0.226
v 776.000 -10.646 300.000 0.450 0.418 0.243
v 780.000 -10.800 300.000 0.466 0.435 0.253
v 768.000 -10.327 304.000 0.411 0.378 0.217
v 772.000 -10.539 304.000 0.430 0.397 0.229
v 776.000 -10.724 304.000 0.452 0.420 0.244
v 780.000 -10.800 304.000 0.467 0.435 0.254
v 768.000 -10.300 308.000 0.430 0.398 0.230
v 772.000 -10.673 308.000 0.445 0.413 0.239
v 776.000 -10.800 308.000 0.460 0.428 0.249
v 780.000 -10.800 308.000 0.472 0.441 0.257
v 768.000 -10.413 312.000 0.451 0.419 0.243
v 772.000 -10.800 312.000 0.459 0.428 0.249
v 776.000 -10.800 312.000 0.468 0.436 0.254
v 768.000 -10.595 316.000 0.459 0.427 0.249
v 772.000 -10.800 316.000 0.460 0.428 0.249
v 768.000 -10.800 320.000 0.453 0.421 0.244

vt 0.900000 0.366667
vt 0.900000 0.364583
vt 0.902083 0.364583
vt 0.902083 0.366667
vt 0.904167 0.366667
vt 0.904167 0.364583
vt 0.906250 0.364583
vt 0.906250 0.366667
vt 0.908333 0.366667
vt 0.908333 0.364583
vt 0.910417 0.364583
vt 0.910417 0.366667
vt 0.912500 0.366667
vt 0.912500 0.364583
vt 0.914583 0.364583
vt 0.914583 0.366667
vt 0.900000 0.362500
vt 0.902083 0.362500
vt 0.904167 0.362500
vt 0.906250 0.362500
vt 0.908333 0.362500
vt 0.910417 0.362500
vt 0.912500 0.362500
vt 0.900000 0.360417
vt 0.902083 0.360417
vt 0.904167 0.360417
vt 0.906250 0.360417
vt 0.908333 0.360417
vt 0.910417 0.360417
vt 0.900000 0.358333
vt 0.902083 0.358333
vt 0.904167 0.358333
vt 0.906250 0.358333
vt 0.908333 0.358333
vt 0.910417 0.358333
vt 0.900000 0.356250
vt 0.902083 0.356250
vt 0.904167 0.356250
vt 0.906250 0.356250
vt 0.908333 0.356250
vt 0.910417 0.356250
vt 0.900000 0.354167
vt 0.902083 0.354167
vt 0.904167 0.354167
vt 0.906250 0.354167
vt 0.908333 0.354167
vt 0.910417 0.354167
vt 0.900000 0.352083
vt 0.902083 0.352083
vt 0.904167 0.352083
vt 0.906250 0.352083
vt 0.908333 0.352083
vt 0.910417 0.352083
vt 0.900000 0.350000
vt 0.902083 0.350000
vt 0.904167 0.350000
vt 0.906250 0.350000
vt 0.908333 0.350000
vt 0.900000 0.347917
vt 0.902083 0.347917
vt 0.904167 0.347917
vt 0.906250 0.347917
vt 0.900000 0.345833
vt 0.902083 0.345833
vt 0.904167 0.345833
vt 0.906250 0.345833
vt 0.900000 0.343750
vt 0.902083 0.343750
vt 0.904167 0.343750
vt 0.906250 0.343750
vt 0.900000 0.341667
vt 0.902083 0.341667
vt 0.904167 0.341667
vt 0.906250 0.341667
vt 0.900000 0.339583
vt 0.902083 0.339583
vt 0.904167 0.339583
vt 0.906250 0.339583
vt 0.900000 0.337500
vt 0.902083 0.337500
vt 0.904167 0.337500
vt 0.900000 0.335417
vt 0.902083 0.335417
vt 0.900000 0.333333

vn 0.02847 0.99949 0.01469
vn 0.01643 0.99940 0.03057
vn 0.03482 0.99935 0.00970
vn 0.05868 0.99827 0.00265
vn 0.05472 0.99843 -0.01221
vn 0.05250 0.99850 -0.01571
vn 0.03810 0.99927 -0.00145
vn 0.01596 0.99985 -0.00625
vn 0.00229 0.99973 0.02331
vn 0.01590 0.99957 0.02458
vn 0.01881 0.99910 0.03814
vn 0.01702 0.99869 0.04816
vn 0.03921 0.99884 0.02797
vn 0.02718 0.99931 0.02547
vn 0.02969 0.99941 0.01698
vn 0.05091 0.99870 0.00000
vn 0.00481 0.99934 0.03605
vn 0.01245 0.99944 0.03098
vn 0.03426 0.99941 0.00344
vn 0.05620 0.99834 -0.01241
vn 0.04149 0.99909 0.00968
vn 0.02390 0.99906 0.03623
vn 0.01812 0.99936 0.03083
vn -0.00385 0.99949 0.03164
vn -0.00509 0.99970 0.02410
vn 0.00914 0.99994 0.00529
vn 0.05097 0.99865 -0.01017
vn 0.05545 0.99839 -0.01216
vn 0.04170 0.99911 -0.00608
vn 0.00395 0.99999 -0.00283
vn -0.01390 0.99990 0.00330
vn -0.00437 0.99999 -0.00002
vn 0.03879 0.99914 -0.01455
vn 0.06340 0.99789 -0.01382
vn 0.06013 0.99819 0.00000
vn 0.02064 0.99881 -0.04417
vn 0.00787 0.99970 -0.02322
vn -0.00872 0.99995 0.00491
vn 0.02977 0.99956 -0.00034
vn 0.06993 0.99750 -0.01062
vn 0.07336 0.99729 -0.00531
vn 0.03210 0.99869 -0.03990
vn 0.03519 0.99876 -0.03528
vn 0.02248 0.99974 0.00337
vn 0.02324 0.99922 0.03196
vn 0.05798 0.99815 0.01829
vn 0.08127 0.99669 0.00000
vn 0.03915 0.99917 -0.01134
vn 0.05419 0.99853 -0.00104
vn 0.05848 0.99811 0.01906
vn 0.03737 0.99836 0.04335
vn 0.03806 0.99845 0.04071
vn 0.05037 0.99836 0.02713
vn 0.03742 0.99887 0.02933
vn 0.06552 0.99755 0.02460
vn 0.07387 0.99689 0.02749
vn 0.04485 0.99827 0.03805
vn 0.02418 0.99904 0.03648
vn 0.02032 0.99835 0.05364
vn 0.04849 0.99818 0.03585
vn 0.07185 0.99719 0.02107
vn 0.05497 0.99841 0.01255
vn 0.01518 0.99949 0.02817
vn 0.03305 0.99901 0.02991
vn 0.05527 0.99836 0.01507
vn 0.04755 0.99887 0.00000
vn 0.02735 0.99962 -0.00224
vn 0.03892 0.99915 0.01349
vn 0.04208 0.99901 0.01427
vn 0.03587 0.99933 0.00714
vn 0.05651 0.99835 0.00975
vn 0.04953 0.99843 0.02617
vn 0.03081 0.99939 0.01616
vn 0.01904 0.99982 0.00000
vn 0.09272 0.99563 0.01068
vn 0.05564 0.99822 0.02134
vn 0.02120 0.99969 0.01269
vn 0.00952 0.99991 0.00952
vn 0.08419 0.99610 0.02625
vn 0.06439 0.99770 0.02116
vn 0.01590 0.99975 0.01590
vn 0.05121 0.99752 0.04828
vn 0.06631 0.99728 0.03218
vn 0.05121 0.99737 0.05121

f 1/1/1 2/2/2 3/3/3
f 1/1/1 3/3/3 4/4/4
f 4/4/4 3/3/3 5/5/5
f 5/5/5 3/3/3 6/6/6
f 5/5/5 6/6/6 7/7/7
f 5/5/5 7/7/7 8/8/8
f 8/8/8 7/7/7 9/9/9
f 9/9/9 7/7/7 10/10/10
f 9/9/9 10/10/10 11/11/11
f 9/9/9 11/11/11 12/12/12
f 12/12/12 11/11/11 13/13/13
f 13/13/13 11/11/11 14/14/14
f 13/13/13 14/14/14 15/15/15
f 13/13/13 15/15/15 16/16/16
f 2/2/2 17/17/17 3/3/3
f 3/3/3 17/17/17 18/18/18
f 3/3/3 18/18/18 19/19/19
f 3/3/3 19/19/19 6/6/6
f 6/6/6 19/19/19 7/7/7
f 7/7/7 19/19/19 20/20/20
f 7/7/7 20/20/20 21/21/21
f 7/7/7 21/21/21 10/10/10
f 10/10/10 21/21/21 11/11/11
f 11/11/11 21/21/21 22/22/22
f 11/11/11 22/22/22 23/23/23
f 11/11/11 23/23/23 14/14/14
f 14/14/14 23/23/23 15/15/15
f 17/17/17 24/24/24 25/25/25
f 17/17/17 25/25/25 18/18/18
f 18/18/18 25/25/25 19/19/19
f 19/19/19 25/25/25 26/26/26
f 19/19/19 26/26/26 27/27/27
f 19/19/19 27/27/27 20/20/20
f 20/20/20 27/27/27 21/21/21
f 21/21/21 27/27/27 28/28/28
f 21/21/21 28/28/28 29/29/29
f 21/21/21 29/29/29 22/22/22
f 24/24/24 30/30/30 25/25/25
f 25/25/25 30/30/30 31/31/31
f 25/25/25 31/31/31 32/32/32
f 25/25/25 32/32/32 26/26/26
f 26/26/26 32/32/32 27/27/27
f 27/27/27 32/32/32 33/33/33
f 27/27/27 33/33/33 34/34/34
f 27/27/27 34/34/34 28/28/28
f 28/28/28 34/34/34 29/29/29
f 29/29/29 34/34/34 35/35/35
f 30/30/30 36/36/36 37/37/37
f 30/30/30 37/37/37 31/31/31
f 31/31/31 37/37/37 32/32/32
f 32/32/32 37/37/37 38/38/38
f 32/32/32 38/38/38 39/39/39
f 32/32/32 39/39/39 33/33/33
f 33/33/33 39/39/39 34/34/34
f 34/34/34 39/39/39 40/40/40
f 34/34/34 40/40/40 41/41/41
f 34/34/34 41/41/41 35/35/35
f 36/36/36 42/42/42 37/37/37
f 37/37/37 42/42/42 43/43/43
f 37/37/37 43/43/43 44/44/44
f 37/37/37 44/44/44 38/38/38
f 38/38/38 44/44/44 39/39/39
f 39/39/39 44/44/44 45/45/45
f 39/39/39 45/45/45 46/46/46
f 39/39/39 46/46/46 40/40/40
f 40/40/40 46/46/46 41/41/41
f 41/41/41 46/46/46 47/47/47
f 42/42/42 48/48/48 49/49/49
f 42/42/42 49/49/49 43/43/43
f 43/43/43 49/49/49 44/44/44
f 44/44/44 49/49/49 50/50/50
f 44/44/44 50/50/50 51/51/51
f 44/44/44 51/51/51 45/45/45
f 45/45/45 51/51/51 46/46/46
f 46/46/46 51/51/51 52/52/52
f 46/46/46 52/52/52 53/53/53
f 46/46/46 53/53/53 47/47/47
f 48/48/48 54/54/54 49/49/49
f 49/49/49 54/54/54 55/55/55
f 49/49/49 55/55/55 56/56/56
f 49/49/49 56/56/56 50/50/50
f 50/50/50 56/56/56 51/51/51
f 51/51/51 56/56/56 57/57/57
f 51/51/51 57/57/57 58/58/58
f 51/51/51 58/58/58 52/52/52
f 52/52/52 58/58/58 53/53/53
f 54/54/54 59/59/59 60/60/60
f 54/54/54 60/60/60 55/55/55
f 55/55/55 60/60/60 56/56/56
f 56/56/56 60/60/60 61/61/61
f 56/56/56 61/61/61 62/62/62
f 56/56/56 62/62/62 57/57/57
f 57/57/57 62/62/62 58/58/58
f 59/59/59 63/63/63 60/60/60
f 60/60/60 63/63/63 64/64/64
f 60/60/60 64/64/64 65/65/65
f 60/60/60 65/65/65 61/61/61
f 61/61/61 65/65/65 62/62/62
f 62/62/62 65/65/65 66/66/66
f 63/63/63 67/67/67 68/68/68
f 63/63/63 68/68/68 64/64/64
f 64/64/64 68/68/68 65/65/65
f 65/65/65 68/68/68 69/69/69
f 65/65/65 69/69/69 70/70/70
f 65/65/65 70/70/70 66/66/66
f 67/67/67 71/71/71 68/68/68
f 68/68/68 71/71/71 72/72/72
f 68/68/68 72/72/72 73/73/73
f 68/68/68 73/73/73 69/69/69
f 69/69/69 73/73/73 70/70/70
f 70/70/70 73/73/73 74/74/74
f 71/71/71 75/75/75 76/76/76
f 71/71/71 76/76/76 72/72/72
f 72/72/72 76/76/76 73/73/73
f 73/73/73 76/76/76 77/77/77
f 73/73/73 77/77/77 78/78/78
f 73/73/73 78/78/78 74/74/74
f 75/75/75 79/79/79 76/76/76
f 76/76/76 79/79/79 80/80/80
f 76/76/76 80/80/80 81/81/81
f 76/76/76 81/81/81 77/77/77
f 79/79/79 82/82/82 83/83/83
f 79/79/79 83/83/83 80/80/80
f 82/82/82 84/84/84 83/83/83
