# Generated by tools/generate_island.py. Do not edit by hand.
o terrain_lod2_-5_-4

v -640.000 -10.800 -512.000 0.428 0.395 0.228
v -640.000 -10.800 -496.000 0.414 0.381 0.219
v -624.000 -10.800 -496.000 0.403 0.370 0.212
v -624.000 -10.800 -512.000 0.437 0.404 0.234
v -608.000 -10.800 -512.000 0.469 0.437 0.255
v -608.000 -10.800 -496.000 0.448 0.416 0.241
v -592.000 -10.800 -496.000 0.449 0.417 0.242
v -592.000 -10.800 -512.000 0.466 0.435 0.253
v -576.000 -10.800 -512.000 0.439 0.406 0.235
v -576.000 -10.800 -496.000 0.418 0.385 0.222
v -560.000 -10.800 -496.000 0.426 0.394 0.227
v -560.000 -10.800 -512.000 0.458 0.426 0.248
v -544.000 -10.800 -512.000 0.437 0.405 0.234
v -544.000 -9.772 -496.000 0.416 0.382 0.220
v -528.000 -9.735 -496.000 0.403 0.370 0.212
v -528.000 -10.478 -512.000 0.400 0.367 0.210
v -512.000 -10.518 -512.000 0.395 0.361 0.206
v -512.000 -9.679 -496.000 0.394 0.360 0.205
v -640.000 -10.800 -480.000 0.452 0.420 0.244
v -624.000 -10.800 -480.000 0.438 0.406 0.235
v -608.000 -10.800 -480.000 0.482 0.450 0.263
v -592.000 -10.684 -480.000 0.441 0.409 0.237
v -576.000 -10.530 -480.000 0.436 0.404 0.233
v -560.000 -9.857 -480.000 0.431 0.399 0.230
v -544.000 -9.401 -480.000 0.462 0.430 0.250
v -528.000 -9.074 -480.000 0.367 0.332 0.188
v -512.000 -8.272 -480.000 0.367 0.333 0.188
v -640.000 -10.800 -464.000 0.490 0.459 0.269
v -624.000 -10.800 -464.000 0.456 0.424 0.246
v -608.000 -10.800 -464.000 0.479 0.448 0.262
v -592.000 -10.730 -464.000 0.455 0.423 0.246
v -576.000 -10.020 -464.000 0.398 0.364 0.208
v -560.000 -8.902 -464.000 0.390 0.356 0.203
v -544.000 -8.659 -464.000 0.446 0.414 0.240
v -528.000 -8.071 -464.000 0.502 0.471 0.277
v -512.000 -7.077 -464.000 0.503 0.473 0.277
v -640.000 -10.800 -448.000 0.487 0.456 0.267
v -624.000 -10.800 -448.000 0.512 0.482 0.283
v -608.000 -10.447 -448.000 0.458 0.426 0.248
v -592.000 -10.057 -448.000 0.417 0.384 0.221
v -576.000 -9.189 -448.000 0.384 0.350 0.199
v -560.000 -8.689 -448.000 0.371 0.336 0.190
v -544.000 -8.298 -448.000 0.471 0.440 0.256
v -528.000 -6.859 -448.000 0.575 0.547 0.325
v -512.000 -5.966 -448.000 0.568 0.540 0.320
v -640.000 -10.800 -432.000 0.525 0.496 0.292
v -624.000 -10.800 -432.000 0.538 0.508 0.300
v -608.000 -10.406 -432.000 0.488 0.457 0.267
v -592.000 -9.682 -432.000 0.418 0.384 0.221
v -576.000 -8.597 -432.000 0.439 0.407 0.235
v -560.000 -8.034 -432.000 0.447 0.415 0.240
v -544.000 -7.268 -432.000 0.513 0.483 0.284
v -528.000 -6.052 -432.000 0.562 0.534 0.316
v -512.000 -5.863 -432.000 0.585 0.557 0.331
v -640.000 -10.800 -416.000 0.500 0.469 0.275
v -624.000 -10.800 -416.000 0.500 0.470 0.276
v -608.000 -10.526 -416.000 0.448 0.416 0.241
v -592.000 -9.105 -416.000 0.422 0.389 0.224
v -576.000 -8.171 -416.000 0.439 0.407 0.235
v -560.000 -7.854 -416.000 0.429 0.396 0.228
v -544.000 -6.826 -416.000 0.515 0.485 0.285
v -528.000 -5.918 -416.000 0.573 0.545 0.324
v -512.000 -5.384 -416.000 0.573 0.544 0.323
v -640.000 -10.800 -400.000 0.410 0.377 0.216
v -624.000 -10.800 -400.000 0.450 0.418 0.242
v -608.000 -9.969 -400.000 0.502 0.471 0.277
v -592.000 -8.758 -400.000 0.435 0.403 0.233
v -576.000 -8.587 -400.000 0.403 0.370 0.212
v -560.000 -7.505 -400.000 0.426 0.393 0.227
v -544.000 -6.032 -400.000 0.495 0.464 0.272
v -528.000 -5.579 -400.000 0.540 0.511 0.302
v -512.000 -4.994 -400.000 0.572 0.544 0.323
v -640.000 -10.800 -384.000 0.433 0.400 0.231
v -624.000 -10.800 -384.000 0.457 0.425 0.247
v -608.000 -9.846 -384.000 0.506 0.476 0.279
v -592.000 -8.580 -384.000 0.425 0.392 0.226
v -576.000 -8.082 -384.000 0.384 0.350 0.199
v -560.000 -7.180 -384.000 0.372 0.337 0.191
v -544.000 -6.625 -384.000 0.447 0.415 0.240
v -528.000 -5.732 -384.000 0.522 0.492 0.290
v -512.000 -4.119 -384.000 0.570 0.541 0.321

vt 0.166667 0.766667
vt 0.166667 0.758333
vt 0.175000 0.758333
vt 0.175000 0.766667
vt 0.183333 0.766667
vt 0.183333 0.758333
vt 0.191667 0.758333
vt 0.191667 0.766667
vt 0.200000 0.766667
vt 0.200000 0.758333
vt 0.208333 0.758333
vt 0.208333 0.766667
vt 0.216667 0.766667
vt 0.216667 0.758333
vt 0.225000 0.758333
vt 0.225000 0.766667
vt 0.233333 0.766667
vt 0.233333 0.758333
vt 0.166667 0.750000
vt 0.175000 0.750000
vt 0.183333 0.750000
vt 0.191667 0.750000
vt 0.200000 0.750000
vt 0.208333 0.750000
vt 0.216667 0.750000
vt 0.225000 0.750000
vt 0.233333 0.750000
vt 0.166667 0.741667
vt 0.175000 0.741667
vt 0.183333 0.741667
vt 0.191667 0.741667
vt 0.200000 0.741667
vt 0.208333 0.741667
vt 0.216667 0.741667
vt 0.225000 0.741667
vt 0.233333 0.741667
vt 0.166667 0.733333
vt 0.175000 0.733333
vt 0.183333 0.733333
vt 0.191667 0.733333
vt 0.200000 0.733333
vt 0.208333 0.733333
vt 0.216667 0.733333
vt 0.225000 0.733333
vt 0.233333 0.733333
vt 0.166667 0.725000
vt 0.175000 0.725000
vt 0.183333 0.725000
vt 0.191667 0.725000
vt 0.200000 0.725000
vt 0.208333 0.725000
vt 0.216667 0.725000
vt 0.225000 0.725000
vt 0.233333 0.725000
vt 0.166667 0.716667
vt 0.175000 0.716667
vt 0.183333 0.716667
vt 0.191667 0.716667
vt 0.200000 0.716667
vt 0.208333 0.716667
vt 0.216667 0.716667
vt 0.225000 0.716667
vt 0.233333 0.716667
vt 0.166667 0.708333
vt 0.175000 0.708333
vt 0.183333 0.708333
vt 0.191667 0.708333
vt 0.200000 0.708333
vt 0.208333 0.708333
vt 0.216667 0.708333
vt 0.225000 0.708333
vt 0.233333 0.708333
vt 0.166667 0.700000
vt 0.175000 0.700000
vt 0.183333 0.700000
vt 0.191667 0.700000
vt 0.200000 0.700000
vt 0.208333 0.700000
vt 0.216667 0.700000
vt 0.225000 0.700000
vt 0.233333 0.700000

vn 0.00000 1.00000 0.00000
vn 0.00000 1.00000 0.00000
vn 0.00000 1.00000 0.00000
vn 0.00000 1.00000 0.00000
vn 0.00000 1.00000 0.00000
vn 0.00000 1.00000 0.00000
vn -0.00211 0.99999 -0.00392
vn 0.00000 1.00000 0.00000
vn 0.00000 1.00000 0.00000
vn 0.00000 0.99996 -0.00844
vn -0.02487 0.99931 -0.02775
vn 0.00000 1.00000 0.00000
vn -0.02165 0.99881 -0.04370
vn -0.03324 0.99849 -0.04365
vn -0.01247 0.99865 -0.05035
vn -0.00881 0.99888 -0.04640
vn -0.00050 0.99878 -0.04939
vn -0.00349 0.99754 -0.07002
vn 0.00000 1.00000 0.00000
vn 0.00000 1.00000 0.00000
vn -0.00236 1.00000 -0.00055
vn -0.00844 0.99996 -0.00220
vn -0.02718 0.99925 -0.02754
vn -0.03519 0.99763 -0.05918
vn -0.02702 0.99861 -0.04516
vn -0.03522 0.99803 -0.05189
vn -0.04134 0.99693 -0.06644
vn 0.00000 1.00000 0.00000
vn -0.00276 0.99999 -0.00276
vn -0.00220 0.99994 -0.01105
vn -0.02411 0.99944 -0.02303
vn -0.05697 0.99750 -0.04181
vn -0.03700 0.99862 -0.03729
vn -0.02594 0.99907 -0.03443
vn -0.05158 0.99680 -0.06104
vn -0.06182 0.99551 -0.07173
vn 0.00000 1.00000 0.00000
vn -0.01105 0.99994 0.00000
vn -0.02089 0.99968 -0.01433
vn -0.03926 0.99869 -0.03270
vn -0.04843 0.99814 -0.03713
vn -0.02781 0.99925 -0.02709
vn -0.05047 0.99775 -0.04418
vn -0.07254 0.99539 -0.06280
vn -0.04626 0.99766 -0.05040
vn 0.00000 1.00000 0.00000
vn -0.01105 0.99994 0.00062
vn -0.03492 0.99939 0.00247
vn -0.05640 0.99816 -0.02216
vn -0.05139 0.99817 -0.03175
vn -0.03818 0.99874 -0.03247
vn -0.06177 0.99704 -0.04586
vn -0.05134 0.99821 -0.03069
vn -0.01177 0.99977 -0.01818
vn 0.00000 1.00000 0.00000
vn -0.00857 0.99996 0.00000
vn -0.05110 0.99860 -0.01403
vn -0.07336 0.99689 -0.02878
vn -0.04218 0.99904 -0.01149
vn -0.04198 0.99898 -0.01652
vn -0.06065 0.99779 -0.02708
vn -0.04501 0.99888 -0.01476
vn -0.02874 0.99937 -0.02096
vn 0.00000 1.00000 0.00000
vn -0.02257 0.99973 -0.00531
vn -0.06367 0.99775 -0.02120
vn -0.05369 0.99846 -0.01418
vn -0.03912 0.99923 -0.00277
vn -0.06169 0.99801 -0.01276
vn -0.06009 0.99817 -0.00626
vn -0.04701 0.99879 -0.01434
vn -0.03649 0.99855 -0.03948
vn 0.00000 1.00000 0.00000
vn -0.02980 0.99956 0.00000
vn -0.06644 0.99777 -0.00661
vn -0.05503 0.99842 -0.01108
vn -0.04141 0.99886 -0.02362
vn -0.04547 0.99876 -0.02033
vn -0.05264 0.99849 0.01581
vn -0.07808 0.99690 0.00953
vn -0.06850 0.99740 -0.02251

f 1/1/1 2/2/2 3/3/3
f 1/1/1 3/3/3 4/4/4
f 4/4/4 3/3/3 5/5/5
f 5/5/5 3/3/3 6/6/6
f 5/5/5 6/6/6 7/7/7
f 5/5/5 7/7/7 8/8/8
f 8/8/8 7/7/7 9/9/9
f 9/9/9 7/7/7 10/10/10
f 9/9/9 10/10/10 11/11/11
f 9/9/9 11/11/11 12/12/12
f 12/12/12 11/11/11 13/13/13
f 13/13/13 11/11/11 14/14/14
f 13/13/13 14/14/14 15/15/15
f 13/13/13 15/15/15 16/16/16
f 16/16/16 15/15/15 17/17/17
f 17/17/17 15/15/15 18/18/18
f 2/2/2 19/19/19 3/3/3
f 3/3/3 19/19/19 20/20/20
f 3/3/3 20/20/20 21/21/21
f 3/3/3 21/21/21 6/6/6
f 6/6/6 21/21/21 7/7/7
f 7/7/7 21/21/21 22/22/22
f 7/7/7 22/22/22 23/23/23
f 7/7/7 23/23/23 10/10/10
f 10/10/10 23/23/23 11/11/11
f 11/11/11 23/23/23 24/24/24
f 11/11/11 24/24/24 25/25/25
f 11/11/11 25/25/25 14/14/14
f 14/14/14 25/25/25 15/15/15
f 15/15/15 25/25/25 26/26/26
f 15/15/15 26/26/26 27/27/27
f 15/15/15 27/27/27 18/18/18
f 19/19/19 28/28/28 29/29/29
f 19/19/19 29/29/29 20/20/20
f 20/20/20 29/29/29 21/21/21
f 21/21/21 29/29/29 30/30/30
f 21/21/21 30/30/30 31/31/31
f 21/21/21 31/31/31 22/22/22
f 22/22/22 31/31/31 23/23/23
f 23/23/23 31/31/31 32/32/32
f 23/23/23 32/32/32 33/33/33
f 23/23/23 33/33/33 24/24/24
f 24/24/24 33/33/33 25/25/25
f 25/25/25 33/33/33 34/34/34
f 25/25/25 34/34/34 35/35/35
f 25/25/25 35/35/35 26/26/26
f 26/26/26 35/35/35 27/27/27
f 27/27/27 35/35/35 36/36/36
f 28/28/28 37/37/37 29/29/29
f 29/29/29 37/37/37 38/38/38
f 29/29/29 38/38/38 39/39/39
f 29/29/29 39/39/39 30/30/30
f 30/30/30 39/39/39 31/31/31
f 31/31/31 39/39/39 40/40/40
f 31/31/31 40/40/40 41/41/41
f 31/31/31 41/41/41 32/32/32
f 32/32/32 41/41/41 33/33/33
f 33/33/33 41/41/41 42/42/42
f 33/33/33 42/42/42 43/43/43
f 33/33/33 43/43/43 34/34/34
f 34/34/34 43/43/43 35/35/35
f 35/35/35 43/43/43 44/44/44
f 35/35/35 44/44/44 45/45/45
f 35/35/35 45/45/45 36/36/36
f 37/37/37 46/46/46 47/47/47
f 37/37/37 47/47/47 38/38/38
f 38/38/38 47/47/47 39/39/39
f 39/39/39 47/47/47 48/48/48
f 39/39/39 48/48/48 49/49/49
f 39/39/39 49/49/49 40/40/40
f 40/40/40 49/49/49 41/41/41
f 41/41/41 49/49/49 50/50/50
f 41/41/41 50/50/50 51/51/51
f 41/41/41 51/51/51 42/42/42
f 42/42/42 51/51/51 43/43/43
f 43/43/43 51/51/51 52/52/52
f 43/43/43 52/52/52 53/53/53
f 43/43/43 53/53/53 44/44/44
f 44/44/44 53/53/53 45/45/45
f 45/45/45 53/53/53 54/54/54
f 46/46/46 55/55/55 47/47/47
f 47/47/47 55/55/55 56/56/56
f 47/47/47 56/56/56 57/57/57
f 47/47/47 57/57/57 48/48/48
f 48/48/48 57/57/57 49/49/49
f 49/49/49 57/57/57 58/58/58
f 49/49/49 58/58/58 59/59/59
f 49/49/49 59/59/59 50/50/50
f 50/50/50 59/59/59 51/51/51
f 51/51/51 59/59/59 60/60/60
f 51/51/51 60/60/60 61/61/61
f 51/51/51 61/61/61 52/52/52
f 52/52/52 61/61/61 53/53/53
f 53/53/53 61/61/61 62/62/62
f 53/53/53 62/62/62 63/63/63
f 53/53/53 63/63/63 54/54/54
f 55/55/55 64/64/64 65/65/65
f 55/55/55 65/65/65 56/56/56
f 56/56/56 65/65/65 57/57/57
f 57/57/57 65/65/65 66/66/66
f 57/57/57 66/66/66 67/67/67
f 57/57/57 67/67/67 58/58/58
f 58/58/58 67/67/67 59/59/59
f 59/59/59 67/67/67 68/68/68
f 59/59/59 68/68/68 69/69/69
f 59/59/59 69/69/69 60/60/60
f 60/60/60 69/69/69 61/61/61
f 61/61/61 69/69/69 70/70/70
f 61/61/61 70/70/70 71/71/71
f 61/61/61 71/71/71 62/62/62
f 62/62/62 71/71/71 63/63/63
f 63/63/63 71/71/71 72/72/72
f 64/64/64 73/73/73 65/65/65
f 65/65/65 73/73/73 74/74/74
f 65/65/65 74/74/74 75/75/75
f 65/65/65 75/75/75 66/66/66
f 66/66/66 75/75/75 67/67/67
f 67/67/67 75/75/75 76/76/76
f 67/67/67 76/76/76 77/77/77
f 67/67/67 77/77/77 68/68/68
f 68/68/68 77/77/77 69/69/69
f 69/69/69 77/77/77 78/78/78
f 69/69/69 78/78/78 79/79/79
f 69/69/69 79/79/79 70/70/70
f 70/70/70 79/79/79 71/71/71
f 71/71/71 79/79/79 80/80/80
f 71/71/71 80/80/80 81/81/81
f 71/71/71 81/81/81 72/72/72
