# Generated by tools/generate_island.py. Do not edit by hand.
o terrain_lod2_-3_-6

v -256.000 -10.800 -704.000 0.487 0.456 0.267
v -272.000 -10.800 -688.000 0.514 0.483 0.284
v -256.000 -10.415 -688.000 0.514 0.484 0.285
v -304.000 -10.800 -688.000 0.506 0.476 0.280
v -320.000 -10.800 -672.000 0.541 0.512 0.302
v -304.000 -10.406 -672.000 0.524 0.494 0.291
v -288.000 -10.419 -672.000 0.521 0.491 0.289
v -288.000 -10.800 -688.000 0.496 0.466 0.273
v -272.000 -10.204 -672.000 0.533 0.504 0.297
v -256.000 -9.457 -672.000 0.505 0.475 0.279
v -336.000 -10.800 -656.000 0.563 0.534 0.317
v -320.000 -10.189 -656.000 0.548 0.518 0.307
v -304.000 -9.801 -656.000 0.507 0.477 0.280
v -288.000 -9.771 -656.000 0.490 0.459 0.269
v -272.000 -9.148 -656.000 0.497 0.466 0.273
v -256.000 -8.706 -656.000 0.538 0.508 0.300
v -352.000 -10.800 -640.000 0.579 0.551 0.327
v -336.000 -10.362 -640.000 0.537 0.507 0.300
v -320.000 -9.530 -640.000 0.505 0.475 0.279
v -304.000 -9.179 -640.000 0.496 0.465 0.273
v -288.000 -8.721 -640.000 0.435 0.402 0.233
v -272.000 -8.223 -640.000 0.430 0.398 0.229
v -256.000 -8.333 -640.000 0.504 0.473 0.278

vt 0.366667 0.866667
vt 0.358333 0.858333
vt 0.366667 0.858333
vt 0.341667 0.858333
vt 0.333333 0.850000
vt 0.341667 0.850000
vt 0.350000 0.850000
vt 0.350000 0.858333
vt 0.358333 0.850000
vt 0.366667 0.850000
vt 0.325000 0.841667
vt 0.333333 0.841667
vt 0.341667 0.841667
vt 0.350000 0.841667
vt 0.358333 0.841667
vt 0.366667 0.841667
vt 0.316667 0.833333
vt 0.325000 0.833333
vt 0.333333 0.833333
vt 0.341667 0.833333
vt 0.350000 0.833333
vt 0.358333 0.833333
vt 0.366667 0.833333

vn -0.02407 0.99942 -0.02407
vn -0.02163 0.99910 -0.03642
vn -0.02406 0.99883 -0.04191
vn -0.00794 0.99967 -0.02434
vn -0.02788 0.99901 -0.03467
vn -0.01190 0.99944 -0.03119
vn -0.00826 0.99929 -0.03676
vn 0.00000 0.99972 -0.02381
vn -0.02999 0.99822 -0.05153
vn -0.03618 0.99797 -0.05241
vn -0.03889 0.99868 -0.03349
vn -0.03117 0.99873 -0.03963
vn -0.01581 0.99898 -0.04231
vn -0.02038 0.99839 -0.05296
vn -0.02714 0.99823 -0.05290
vn -0.02762 0.99900 -0.03509
vn -0.02737 0.99925 -0.02737
vn -0.03964 0.99884 -0.02736
vn -0.03404 0.99873 -0.03711
vn -0.02525 0.99893 -0.03883
vn -0.02511 0.99807 -0.05686
vn -0.01211 0.99826 -0.05773
vn -0.01036 0.99913 -0.04051

f 1/1/1 2/2/2 3/3/3
f 4/4/4 5/5/5 6/6/6
f 4/4/4 6/6/6 7/7/7
f 4/4/4 7/7/7 8/8/8
f 8/8/8 7/7/7 2/2/2
f 2/2/2 7/7/7 9/9/9
f 2/2/2 9/9/9 10/10/10
f 2/2/2 10/10/10 3/3/3
f 5/5/5 11/11/11 12/12/12
f 5/5/5 12/12/12 13/13/13
f 5/5/5 13/13/13 6/6/6
f 6/6/6 13/13/13 7/7/7
f 7/7/7 13/13/13 14/14/14
f 7/7/7 14/14/14 15/15/15
f 7/7/7 15/15/15 9/9/9
f 9/9/9 15/15/15 10/10/10
f 10/10/10 15/15/15 16/16/16
f 11/11/11 17/17/17 18/18/18
f 11/11/11 18/18/18 19/19/19
f 11/11/11 19/19/19 12/12/12
f 12/12/12 19/19/19 13/13/13
f 13/13/13 19/19/19 20/20/20
f 13/13/13 20/20/20 21/21/21
f 13/13/13 21/21/21 14/14/14
f 14/14/14 21/21/21 15/15/15
f 15/15/15 21/21/21 22/22/22
f 15/15/15 22/22/22 23/23/23
f 15/15/15 23/23/23 16/16/16
