# Generated by tools/generate_island.py. Do not edit by hand.
o terrain_lod2_-1_-3

v -64.000 -8.000 -192.000 0.505 0.474 0.278
v -64.000 -8.000 -184.000 0.461 0.430 0.250
v -56.000 -8.000 -184.000 0.465 0.433 0.252
v -56.000 -8.000 -192.000 0.517 0.486 0.286
v -48.000 -8.000 -192.000 0.513 0.483 0.284
v -48.000 -8.000 -184.000 0.490 0.459 0.269
v -40.000 -8.000 -184.000 0.464 0.432 0.252
v -40.000 -8.000 -192.000 0.489 0.458 0.268
v -32.000 -8.000 -192.000 0.478 0.447 0.261
v -32.000 -8.000 -184.000 0.451 0.419 0.243
v -24.000 -8.000 -184.000 0.445 0.413 0.239
v -24.000 -8.000 -192.000 0.459 0.427 0.248
v -16.000 -8.000 -192.000 0.493 0.462 0.271
v -16.000 -8.000 -184.000 0.466 0.434 0.253
v -8.000 -8.000 -184.000 0.451 0.419 0.243
v -8.000 -8.000 -192.000 0.487 0.456 0.267
v 0.000 -8.000 -192.000 0.476 0.445 0.260
v 0.000 -8.000 -184.000 0.425 0.392 0.226
v -64.000 -8.000 -176.000 0.442 0.410 0.237
v -56.000 -8.000 -176.000 0.446 0.414 0.240
v -48.000 -8.000 -176.000 0.464 0.432 0.251
v -40.000 -8.000 -176.000 0.441 0.409 0.237
v -32.000 -8.000 -176.000 0.452 0.420 0.244
v -24.000 -8.000 -176.000 0.459 0.427 0.248
v -16.000 -8.000 -176.000 0.448 0.416 0.241
v -8.000 -8.000 -176.000 0.443 0.410 0.238
v 0.000 -8.000 -176.000 0.411 0.378 0.217
v -64.000 -8.000 -168.000 0.438 0.406 0.235
v -56.000 -8.000 -168.000 0.439 0.406 0.235
v -48.000 -8.000 -168.000 0.434 0.401 0.232
v -40.000 -8.000 -168.000 0.419 0.386 0.222
v -32.000 -8.000 -168.000 0.410 0.377 0.216
v -24.000 -8.000 -168.000 0.429 0.397 0.229
v -16.000 -8.000 -168.000 0.446 0.414 0.240
v -8.000 -8.000 -168.000 0.441 0.409 0.237
v 0.000 -8.000 -168.000 0.417 0.384 0.221
v -64.000 -8.000 -160.000 0.469 0.437 0.255
v -56.000 -8.000 -160.000 0.447 0.415 0.241
v -48.000 -8.000 -160.000 0.423 0.390 0.224
v -40.000 -8.000 -160.000 0.400 0.367 0.210
v -32.000 -8.000 -160.000 0.403 0.370 0.212
v -24.000 -8.000 -160.000 0.433 0.400 0.231
v -16.000 -7.873 -160.000 0.443 0.410 0.238
v -8.000 -6.938 -160.000 0.447 0.415 0.241
v 0.000 -6.440 -160.000 0.424 0.391 0.225
v -64.000 -8.000 -152.000 0.484 0.452 0.265
v -56.000 -8.000 -152.000 0.448 0.416 0.241
v -48.000 -7.528 -152.000 0.403 0.370 0.212
v -40.000 -7.582 -152.000 0.431 0.399 0.230
v -32.000 -7.287 -152.000 0.412 0.378 0.217
v -24.000 -6.788 -152.000 0.424 0.391 0.225
v -16.000 -6.289 -152.000 0.429 0.396 0.228
v -8.000 -5.303 -152.000 0.428 0.396 0.228
v 0.000 -5.052 -152.000 0.436 0.404 0.233
v -64.000 -7.032 -144.000 0.455 0.423 0.246
v -56.000 -6.437 -144.000 0.447 0.415 0.241
v -48.000 -6.096 -144.000 0.441 0.409 0.237
v -40.000 -5.927 -144.000 0.441 0.408 0.236
v -32.000 -5.927 -144.000 0.428 0.395 0.228
v -24.000 -5.170 -144.000 0.429 0.397 0.229
v -16.000 -4.660 -144.000 0.427 0.395 0.228
v -8.000 -3.964 -144.000 0.429 0.396 0.229
v 0.000 -3.491 -144.000 0.426 0.393 0.227
v -64.000 -5.774 -136.000 0.431 0.398 0.230
v -56.000 -4.986 -136.000 0.436 0.404 0.233
v -48.000 -5.016 -136.000 0.456 0.424 0.247
v -40.000 -4.591 -136.000 0.472 0.440 0.257
v -32.000 -4.238 -136.000 0.453 0.421 0.244
v -24.000 -3.640 -136.000 0.425 0.392 0.226
v -16.000 -2.841 -136.000 0.429 0.397 0.229
v -8.000 -2.728 -136.000 0.428 0.395 0.228
v 0.000 -2.495 -136.000 0.419 0.386 0.222
v -64.000 -4.556 -128.000 0.418 0.385 0.221
v -56.000 -3.728 -128.000 0.438 0.406 0.235
v -48.000 -3.565 -128.000 0.462 0.430 0.250
v -40.000 -3.390 -128.000 0.467 0.435 0.254
v -32.000 -2.724 -128.000 0.471 0.439 0.256
v -24.000 -2.477 -128.000 0.441 0.409 0.237
v -16.000 -1.884 -128.000 0.421 0.388 0.223
v -8.000 -1.885 -128.000 0.413 0.380 0.218
v 0.000 -2.059 -128.000 0.410 0.376 0.216

vt 0.366667 0.900000
vt 0.366667 0.883333
vt 0.383333 0.883333
vt 0.383333 0.900000
vt 0.400000 0.900000
vt 0.400000 0.883333
vt 0.416667 0.883333
vt 0.416667 0.900000
vt 0.433333 0.900000
vt 0.433333 0.883333
vt 0.450000 0.883333
vt 0.450000 0.900000
vt 0.466667 0.900000
vt 0.466667 0.883333
vt 0.483333 0.883333
vt 0.483333 0.900000
vt 0.500000 0.900000
vt 0.500000 0.883333
vt 0.366667 0.866667
vt 0.383333 0.866667
vt 0.400000 0.866667
vt 0.416667 0.866667
vt 0.433333 0.866667
vt 0.450000 0.866667
vt 0.466667 0.866667
vt 0.483333 0.866667
vt 0.500000 0.866667
vt 0.366667 0.850000
vt 0.383333 0.850000
vt 0.400000 0.850000
vt 0.416667 0.850000
vt 0.433333 0.850000
vt 0.450000 0.850000
vt 0.466667 0.850000
vt 0.483333 0.850000
vt 0.500000 0.850000
vt 0.366667 0.833333
vt 0.383333 0.833333
vt 0.400000 0.833333
vt 0.416667 0.833333
vt 0.433333 0.833333
vt 0.450000 0.833333
vt 0.466667 0.833333
vt 0.483333 0.833333
vt 0.500000 0.833333
vt 0.366667 0.816667
vt 0.383333 0.816667
vt 0.400000 0.816667
vt 0.416667 0.816667
vt 0.433333 0.816667
vt 0.450000 0.816667
vt 0.466667 0.816667
vt 0.483333 0.816667
vt 0.500000 0.816667
vt 0.366667 0.800000
vt 0.383333 0.800000
vt 0.400000 0.800000
vt 0.416667 0.800000
vt 0.433333 0.800000
vt 0.450000 0.800000
vt 0.466667 0.800000
vt 0.483333 0.800000
vt 0.500000 0.800000
vt 0.366667 0.783333
vt 0.383333 0.783333
vt 0.400000 0.783333
vt 0.416667 0.783333
vt 0.433333 0.783333
vt 0.450000 0.783333
vt 0.466667 0.783333
vt 0.483333 0.783333
vt 0.500000 0.783333
vt 0.366667 0.766667
vt 0.383333 0.766667
vt 0.400000 0.766667
vt 0.416667 0.766667
vt 0.433333 0.766667
vt 0.450000 0.766667
vt 0.466667 0.766667
vt 0.483333 0.766667
vt 0.500000 0.766667

vn 0.00000 1.00000 0.00000
vn 0.00000 1.00000 0.00000
vn 0.00000 1.00000 0.00000
vn 0.00000 1.00000 0.00000
vn 0.00000 1.00000 0.00000
vn 0.00000 1.00000 0.00000
vn 0.00000 1.00000 0.00000
vn 0.00000 1.00000 0.00000
vn 0.00000 1.00000 0.00000
vn 0.00000 1.00000 0.00000
vn 0.00000 1.00000 0.00000
vn 0.00000 1.00000 0.00000
vn 0.00000 1.00000 0.00000
vn 0.00000 1.00000 0.00000
vn 0.00000 1.00000 0.00000
vn 0.00000 1.00000 0.00000
vn 0.00000 1.00000 0.00000
vn 0.00000 1.00000 0.00000
vn 0.00000 1.00000 0.00000
vn 0.00000 1.00000 0.00000
vn 0.00000 1.00000 0.00000
vn 0.00000 1.00000 0.00000
vn 0.00000 1.00000 0.00000
vn 0.00000 1.00000 0.00000
vn 0.00000 1.00000 0.00000
vn 0.00000 1.00000 0.00000
vn 0.00000 1.00000 0.00000
vn 0.00000 1.00000 0.00000
vn 0.00000 1.00000 0.00000
vn 0.00000 1.00000 0.00000
vn 0.00000 1.00000 0.00000
vn 0.00000 1.00000 0.00000
vn -0.00198 1.00000 -0.00198
vn 0.00000 0.99997 -0.00792
vn -0.02235 0.99798 -0.05942
vn 0.00000 0.99528 -0.09702
vn 0.00000 1.00000 0.00000
vn 0.00000 1.00000 0.00000
vn -0.00653 0.99975 -0.02129
vn 0.00000 0.99966 -0.02613
vn -0.01240 0.99878 -0.04771
vn -0.00790 0.99711 -0.07556
vn -0.05593 0.99195 -0.11362
vn -0.08797 0.98227 -0.16557
vn -0.03835 0.98407 -0.17361
vn 0.00000 0.99818 -0.06037
vn -0.02925 0.99521 -0.09327
vn -0.02594 0.99266 -0.11814
vn -0.01008 0.99199 -0.12591
vn -0.04917 0.99051 -0.12831
vn -0.05212 0.98435 -0.16836
vn -0.09059 0.97639 -0.19608
vn -0.07771 0.97959 -0.18536
vn -0.03088 0.98297 -0.18117
vn -0.06092 0.98502 -0.16131
vn -0.05742 0.98109 -0.18484
vn -0.02822 0.98508 -0.16975
vn -0.01035 0.98292 -0.18374
vn -0.04995 0.98098 -0.18755
vn -0.07748 0.97825 -0.19243
vn -0.07350 0.97846 -0.19291
vn -0.07193 0.98474 -0.15847
vn -0.04407 0.98643 -0.15818
vn -0.09696 0.98358 -0.15223
vn -0.05303 0.98560 -0.16054
vn -0.02435 0.98743 -0.15618
vn -0.03949 0.98527 -0.16637
vn -0.05817 0.97889 -0.19596
vn -0.07519 0.98181 -0.17434
vn -0.05607 0.98373 -0.17070
vn -0.02612 0.99122 -0.12960
vn -0.02899 0.99560 -0.08915
vn -0.09934 0.98335 -0.15215
vn -0.06106 0.98603 -0.15496
vn -0.02258 0.98601 -0.16516
vn -0.05190 0.98759 -0.14826
vn -0.05733 0.98448 -0.16587
vn -0.05193 0.98826 -0.14365
vn -0.04662 0.99149 -0.12151
vn 0.01088 0.99443 -0.10483
vn -0.00368 0.99681 -0.07973

f 1/1/1 2/2/2 3/3/3
f 1/1/1 3/3/3 4/4/4
f 4/4/4 3/3/3 5/5/5
f 5/5/5 3/3/3 6/6/6
f 5/5/5 6/6/6 7/7/7
f 5/5/5 7/7/7 8/8/8
f 8/8/8 7/7/7 9/9/9
f 9/9/9 7/7/7 10/10/10
f 9/9/9 10/10/10 11/11/11
f 9/9/9 11/11/11 12/12/12
f 12/12/12 11/11/11 13/13/13
f 13/13/13 11/11/11 14/14/14
f 13/13/13 14/14/14 15/15/15
f 13/13/13 15/15/15 16/16/16
f 16/16/16 15/15/15 17/17/17
f 17/17/17 15/15/15 18/18/18
f 2/2/2 19/19/19 3/3/3
f 3/3/3 19/19/19 20/20/20
f 3/3/3 20/20/20 21/21/21
f 3/3/3 21/21/21 6/6/6
f 6/6/6 21/21/21 7/7/7
f 7/7/7 21/21/21 22/22/22
f 7/7/7 22/22/22 23/23/23
f 7/7/7 23/23/23 10/10/10
f 10/10/10 23/23/23 11/11/11
f 11/11/11 23/23/23 24/24/24
f 11/11/11 24/24/24 25/25/25
f 11/11/11 25/25/25 14/14/14
f 14/14/14 25/25/25 15/15/15
f 15/15/15 25/25/25 26/26/26
f 15/15/15 26/26/26 27/27/27
f 15/15/15 27/27/27 18/18/18
f 19/19/19 28/28/28 29/29/29
f 19/19/19 29/29/29 20/20/20
f 20/20/20 29/29/29 21/21/21
f 21/21/21 29/29/29 30/30/30
f 21/21/21 30/30/30 31/31/31
f 21/21/21 31/31/31 22/22/22
f 22/22/22 31/31/31 23/23/23
f 23/23/23 31/31/31 32/32/32
f 23/23/23 32/32/32 33/33/33
f 23/23/23 33/33/33 24/24/24
f 24/24/24 33/33/33 25/25/25
f 25/25/25 33/33/33 34/34/34
f 25/25/25 34/34/34 35/35/35
f 25/25/25 35/35/35 26/26/26
f 26/26/26 35/35/35 27/27/27
f 27/27/27 35/35/35 36/36/36
f 28/28/28 37/37/37 29/29/29
f 29/29/29 37/37/37 38/38/38
f 29/29/29 38/38/38 39/39/39
f 29/29/29 39/39/39 30/30/30
f 30/30/30 39/39/39 31/31/31
f 31/31/31 39/39/39 40/40/40
f 31/31/31 40/40/40 41/41/41
f 31/31/31 41/41/41 32/32/32
f 32/32/32 41/41/41 33/33/33
f 33/33/33 41/41/41 42/42/42
f 33/33/33 42/42/42 43/43/43
f 33/33/33 43/43/43 34/34/34
f 34/34/34 43/43/43 35/35/35
f 35/35/35 43/43/43 44/44/44
f 35/35/35 44/44/44 45/45/45
f 35/35/35 45/45/45 36/36/36
f 37/37/37 46/46/46 47/47/47
f 37/37/37 47/47/47 38/38/38
f 38/38/38 47/47/47 39/39/39
f 39/39/39 47/47/47 48/48/48
f 39/39/39 48/48/48 49/49/49
f 39/39/39 49/49/49 40/40/40
f 40/40/40 49/49/49 41/41/41
f 41/41/41 49/49/49 50/50/50
f 41/41/41 50/50/50 51/51/51
f 41/41/41 51/51/51 42/42/42
f 42/42/42 51/51/51 43/43/43
f 43/43/43 51/51/51 52/52/52
f 43/43/43 52/52/52 53/53/53
f 43/43/43 53/53/53 44/44/44
f 44/44/44 53/53/53 45/45/45
f 45/45/45 53/53/53 54/54/54
f 46/46/46 55/55/55 47/47/47
f 47/47/47 55/55/55 56/56/56
f 47/47/47 56/56/56 57/57/57
f 47/47/47 57/57/57 48/48/48
f 48/48/48 57/57/57 49/49/49
f 49/49/49 57/57/57 58/58/58
f 49/49/49 58/58/58 59/59/59
f 49/49/49 59/59/59 50/50/50
f 50/50/50 59/59/59 51/51/51
f 51/51/51 59/59/59 60/60/60
f 51/51/51 60/60/60 61/61/61
f 51/51/51 61/61/61 52/52/52
f 52/52/52 61/61/61 53/53/53
f 53/53/53 61/61/61 62/62/62
f 53/53/53 62/62/62 63/63/63
f 53/53/53 63/63/63 54/54/54
f 55/55/55 64/64/64 65/65/65
f 55/55/55 65/65/65 56/56/56
f 56/56/56 65/65/65 57/57/57
f 57/57/57 65/65/65 66/66/66
f 57/57/57 66/66/66 67/67/67
f 57/57/57 67/67/67 58/58/58
f 58/58/58 67/67/67 59/59/59
f 59/59/59 67/67/67 68/68/68
f 59/59/59 68/68/68 69/69/69
f 59/59/59 69/69/69 60/60/60
f 60/60/60 69/69/69 61/61/61
f 61/61/61 69/69/69 70/70/70
f 61/61/61 70/70/70 71/71/71
f 61/61/61 71/71/71 62/62/62
f 62/62/62 71/71/71 63/63/63
f 63/63/63 71/71/71 72/72/72
f 64/64/64 73/73/73 65/65/65
f 65/65/65 73/73/73 74/74/74
f 65/65/65 74/74/74 75/75/75
f 65/65/65 75/75/75 66/66/66
f 66/66/66 75/75/75 67/67/67
f 67/67/67 75/75/75 76/76/76
f 67/67/67 76/76/76 77/77/77
f 67/67/67 77/77/77 68/68/68
f 68/68/68 77/77/77 69/69/69
f 69/69/69 77/77/77 78/78/78
f 69/69/69 78/78/78 79/79/79
f 69/69/69 79/79/79 70/70/70
f 70/70/70 79/79/79 71/71/71
f 71/71/71 79/79/79 80/80/80
f 71/71/71 80/80/80 81/81/81
f 71/71/71 81/81/81 72/72/72
