# Generated by tools/generate_island.py. Do not edit by hand.
o terrain_lod0_4_4

v 512.000 -10.401 512.000 0.518 0.488 0.287
v 512.000 -10.557 516.000 0.516 0.486 0.286
v 516.000 -10.783 516.000 0.533 0.503 0.297
v 516.000 -10.480 512.000 0.520 0.490 0.288
v 520.000 -10.537 512.000 0.522 0.492 0.290
v 520.000 -10.800 516.000 0.546 0.516 0.305
v 524.000 -10.800 516.000 0.569 0.541 0.321
v 524.000 -10.768 512.000 0.550 0.521 0.308
v 528.000 -10.800 512.000 0.581 0.553 0.329
v 512.000 -10.605 520.000 0.508 0.478 0.281
v 516.000 -10.800 520.000 0.540 0.511 0.302
v 520.000 -10.800 520.000 0.564 0.535 0.317
v 512.000 -10.687 524.000 0.498 0.468 0.274
v 516.000 -10.800 524.000 0.532 0.502 0.296
v 512.000 -10.800 528.000 0.500 0.470 0.275

vt 0.766667 0.233333
vt 0.766667 0.231250
vt 0.768750 0.231250
vt 0.768750 0.233333
vt 0.770833 0.233333
vt 0.770833 0.231250
vt 0.772917 0.231250
vt 0.772917 0.233333
vt 0.775000 0.233333
vt 0.766667 0.229167
vt 0.768750 0.229167
vt 0.770833 0.229167
vt 0.766667 0.227083
vt 0.768750 0.227083
vt 0.766667 0.225000

vn 0.03798 0.99764 0.05723
vn 0.05644 0.99808 0.02541
vn 0.02551 0.99908 0.03456
vn 0.01694 0.99699 0.07561
vn 0.01907 0.99838 0.05370
vn 0.00282 0.99904 0.04375
vn 0.02188 0.99939 0.02716
vn 0.03282 0.99943 0.00791
vn 0.00792 0.99994 0.00792
vn 0.04551 0.99892 0.00920
vn 0.03248 0.99947 0.00282
vn 0.00212 1.00000 0.00212
vn 0.02816 0.99931 0.02436
vn 0.03501 0.99926 0.01624
vn 0.02815 0.99921 0.02815

f 1/1/1 2/2/2 3/3/3
f 1/1/1 3/3/3 4/4/4
f 4/4/4 3/3/3 5/5/5
f 5/5/5 3/3/3 6/6/6
f 5/5/5 6/6/6 7/7/7
f 5/5/5 7/7/7 8/8/8
f 8/8/8 7/7/7 9/9/9
f 2/2/2 10/10/10 3/3/3
f 3/3/3 10/10/10 11/11/11
f 3/3/3 11/11/11 12/12/12
f 3/3/3 12/12/12 6/6/6
f 10/10/10 13/13/13 14/14/14
f 10/10/10 14/14/14 11/11/11
f 13/13/13 15/15/15 14/14/14
