# Generated by tools/generate_island.py. Do not edit by hand.
o terrain_lod2_3_-1

v 384.000 0.537 -128.000 0.493 0.462 0.270
v 384.000 0.788 -112.000 0.509 0.478 0.281
v 400.000 0.668 -112.000 0.486 0.455 0.266
v 400.000 -0.151 -128.000 0.474 0.443 0.259
v 416.000 0.584 -128.000 0.533 0.503 0.297
v 416.000 0.361 -112.000 0.477 0.446 0.260
v 432.000 -0.432 -112.000 0.484 0.453 0.265
v 432.000 0.535 -128.000 0.497 0.466 0.273
v 448.000 -0.385 -128.000 0.507 0.477 0.280
v 448.000 0.170 -112.000 0.503 0.473 0.278
v 464.000 0.205 -112.000 0.493 0.462 0.271
v 464.000 -0.294 -128.000 0.478 0.447 0.261
v 480.000 -1.013 -128.000 0.495 0.464 0.272
v 480.000 -0.659 -112.000 0.502 0.472 0.277
v 496.000 -0.879 -112.000 0.458 0.427 0.248
v 496.000 -1.117 -128.000 0.473 0.441 0.257
v 512.000 -1.073 -128.000 0.492 0.461 0.270
v 512.000 -0.838 -112.000 0.521 0.491 0.289
v 384.000 0.681 -96.000 0.492 0.462 0.270
v 400.000 1.556 -96.000 0.481 0.450 0.263
v 416.000 0.475 -96.000 0.462 0.430 0.250
v 432.000 0.100 -96.000 0.469 0.438 0.255
v 448.000 0.393 -96.000 0.505 0.474 0.278
v 464.000 -0.210 -96.000 0.464 0.432 0.251
v 480.000 -0.298 -96.000 0.465 0.434 0.252
v 496.000 -0.027 -96.000 0.486 0.455 0.266
v 512.000 -0.393 -96.000 0.527 0.498 0.293
v 384.000 0.353 -80.000 0.488 0.457 0.268
v 400.000 1.737 -80.000 0.228 0.306 0.113
v 416.000 0.454 -80.000 0.512 0.482 0.283
v 432.000 0.787 -80.000 0.471 0.440 0.256
v 448.000 -0.091 -80.000 0.454 0.422 0.245
v 464.000 -0.325 -80.000 0.464 0.432 0.252
v 480.000 0.451 -80.000 0.466 0.435 0.253
v 496.000 -0.123 -80.000 0.453 0.421 0.245
v 512.000 -0.636 -80.000 0.523 0.493 0.291
v 384.000 1.003 -64.000 0.476 0.444 0.259
v 400.000 1.223 -64.000 0.474 0.442 0.258
v 416.000 0.698 -64.000 0.499 0.468 0.274
v 432.000 1.226 -64.000 0.458 0.427 0.248
v 448.000 -0.087 -64.000 0.417 0.384 0.221
v 464.000 -0.538 -64.000 0.471 0.439 0.256
v 480.000 0.752 -64.000 0.435 0.402 0.232
v 496.000 -0.032 -64.000 0.438 0.406 0.235
v 512.000 -0.110 -64.000 0.486 0.455 0.266
v 384.000 1.601 -48.000 0.495 0.464 0.272
v 400.000 1.984 -48.000 0.202 0.286 0.104
v 416.000 0.747 -48.000 0.472 0.441 0.257
v 432.000 0.718 -48.000 0.461 0.429 0.250
v 448.000 0.451 -48.000 0.388 0.354 0.202
v 464.000 1.183 -48.000 0.441 0.409 0.237
v 480.000 0.541 -48.000 0.439 0.407 0.236
v 496.000 -0.535 -48.000 0.466 0.434 0.253
v 512.000 -0.351 -48.000 0.446 0.413 0.240
v 384.000 1.488 -32.000 0.505 0.474 0.278
v 400.000 1.742 -32.000 0.218 0.298 0.109
v 416.000 1.642 -32.000 0.203 0.287 0.104
v 432.000 0.633 -32.000 0.420 0.387 0.223
v 448.000 0.232 -32.000 0.444 0.412 0.239
v 464.000 0.639 -32.000 0.458 0.426 0.247
v 480.000 0.028 -32.000 0.468 0.437 0.254
v 496.000 -0.101 -32.000 0.482 0.451 0.263
v 512.000 0.446 -32.000 0.491 0.460 0.269
v 384.000 2.213 -16.000 0.251 0.324 0.120
v 400.000 1.425 -16.000 0.477 0.446 0.260
v 416.000 0.774 -16.000 0.447 0.415 0.241
v 432.000 0.049 -16.000 0.445 0.413 0.239
v 448.000 1.474 -16.000 0.464 0.433 0.252
v 464.000 1.159 -16.000 0.474 0.442 0.258
v 480.000 0.585 -16.000 0.502 0.471 0.277
v 496.000 0.718 -16.000 0.528 0.498 0.294
v 512.000 0.508 -16.000 0.534 0.505 0.298
v 384.000 1.761 0.000 0.278 0.345 0.129
v 400.000 2.291 0.000 0.225 0.304 0.112
v 416.000 -0.112 0.000 0.428 0.395 0.228
v 432.000 -0.504 0.000 0.467 0.436 0.254
v 448.000 1.477 0.000 0.510 0.480 0.282
v 464.000 1.534 0.000 0.540 0.511 0.302
v 480.000 1.238 0.000 0.585 0.557 0.331
v 496.000 1.453 0.000 0.543 0.513 0.304
v 512.000 0.321 0.000 0.546 0.517 0.306

vt 0.700000 0.566667
vt 0.700000 0.558333
vt 0.708333 0.558333
vt 0.708333 0.566667
vt 0.716667 0.566667
vt 0.716667 0.558333
vt 0.725000 0.558333
vt 0.725000 0.566667
vt 0.733333 0.566667
vt 0.733333 0.558333
vt 0.741667 0.558333
vt 0.741667 0.566667
vt 0.750000 0.566667
vt 0.750000 0.558333
vt 0.758333 0.558333
vt 0.758333 0.566667
vt 0.766667 0.566667
vt 0.766667 0.558333
vt 0.700000 0.550000
vt 0.708333 0.550000
vt 0.716667 0.550000
vt 0.725000 0.550000
vt 0.733333 0.550000
vt 0.741667 0.550000
vt 0.750000 0.550000
vt 0.758333 0.550000
vt 0.766667 0.550000
vt 0.700000 0.541667
vt 0.708333 0.541667
vt 0.716667 0.541667
vt 0.725000 0.541667
vt 0.733333 0.541667
vt 0.741667 0.541667
vt 0.750000 0.541667
vt 0.758333 0.541667
vt 0.766667 0.541667
vt 0.700000 0.533333
vt 0.708333 0.533333
vt 0.716667 0.533333
vt 0.725000 0.533333
vt 0.733333 0.533333
vt 0.741667 0.533333
vt 0.750000 0.533333
vt 0.758333 0.533333
vt 0.766667 0.533333
vt 0.700000 0.525000
vt 0.708333 0.525000
vt 0.716667 0.525000
vt 0.725000 0.525000
vt 0.733333 0.525000
vt 0.741667 0.525000
vt 0.750000 0.525000
vt 0.758333 0.525000
vt 0.766667 0.525000
vt 0.700000 0.516667
vt 0.708333 0.516667
vt 0.716667 0.516667
vt 0.725000 0.516667
vt 0.733333 0.516667
vt 0.741667 0.516667
vt 0.750000 0.516667
vt 0.758333 0.516667
vt 0.766667 0.516667
vt 0.700000 0.508333
vt 0.708333 0.508333
vt 0.716667 0.508333
vt 0.725000 0.508333
vt 0.733333 0.508333
vt 0.741667 0.508333
vt 0.750000 0.508333
vt 0.758333 0.508333
vt 0.766667 0.508333
vt 0.700000 0.500000
vt 0.708333 0.500000
vt 0.716667 0.500000
vt 0.725000 0.500000
vt 0.733333 0.500000
vt 0.741667 0.500000
vt 0.750000 0.500000
vt 0.758333 0.500000
vt 0.766667 0.500000

vn 0.02524 0.99912 -0.03340
vn 0.00751 0.99996 -0.00450
vn 0.00791 0.99961 -0.02694
vn -0.00146 0.99869 -0.05112
vn 0.00646 0.99994 0.00927
vn 0.03434 0.99940 0.00340
vn 0.01118 0.99994 0.00157
vn 0.03019 0.99772 0.06029
vn 0.00300 0.99995 -0.01003
vn -0.01989 0.99951 -0.02430
vn 0.02326 0.99965 -0.01297
vn 0.01961 0.99932 -0.03115
vn 0.02978 0.99930 -0.02254
vn 0.03385 0.99918 -0.02231
vn 0.00400 0.99960 -0.02793
vn 0.00188 0.99989 -0.01489
vn -0.00269 0.99989 -0.01480
vn -0.00259 0.99977 -0.02123
vn -0.04704 0.99884 -0.00990
vn 0.00643 0.99942 -0.03339
vn 0.03872 0.99906 -0.01931
vn 0.00255 0.99927 -0.03808
vn 0.00856 0.99996 -0.00130
vn 0.02160 0.99963 0.01655
vn 0.00402 0.99981 -0.01913
vn 0.00298 0.99972 -0.02364
vn 0.01883 0.99971 -0.01497
vn -0.08615 0.99623 -0.01003
vn 0.00241 1.00000 0.00093
vn 0.02965 0.99954 -0.00699
vn 0.01529 0.99976 -0.01559
vn 0.03473 0.99928 0.01499
vn -0.00963 0.99995 0.00067
vn -0.00632 0.99944 -0.03279
vn 0.02446 0.99965 -0.01032
vn 0.03207 0.99945 -0.00885
vn -0.03447 0.99913 -0.02335
vn 0.00951 0.99992 -0.00773
vn 0.01726 0.99983 -0.00597
vn 0.02454 0.99970 0.00218
vn 0.03259 0.99927 -0.01969
vn -0.02617 0.99855 -0.04704
vn 0.00395 0.99994 -0.00995
vn 0.02692 0.99955 0.01289
vn 0.00757 0.99997 0.00200
vn -0.02393 0.99960 -0.01516
vn 0.01452 0.99971 -0.01926
vn 0.03952 0.99878 -0.02946
vn 0.02178 0.99976 -0.00059
vn -0.01453 0.99984 -0.00996
vn -0.00637 0.99986 -0.01522
vn 0.05359 0.99831 0.02257
vn 0.01740 0.99985 0.00237
vn -0.01152 0.99978 -0.01738
vn -0.00159 1.00000 -0.00083
vn -0.00482 0.99984 0.01747
vn 0.03794 0.99924 0.00916
vn 0.04402 0.99881 0.02088
vn -0.01240 0.99987 -0.01057
vn 0.00637 0.99998 0.00075
vn 0.02841 0.99954 -0.01028
vn -0.01305 0.99915 -0.03912
vn -0.01668 0.99932 -0.03297
vn 0.04922 0.99875 -0.00853
vn 0.03590 0.99935 0.00299
vn 0.04290 0.99758 0.05470
vn -0.01233 0.99969 0.02174
vn -0.03464 0.99864 -0.03886
vn 0.01734 0.99930 -0.03313
vn 0.01377 0.99919 -0.03777
vn 0.00509 0.99945 -0.03274
vn 0.01313 0.99991 0.00389
vn 0.00810 0.99988 -0.01293
vn 0.05836 0.99684 -0.05394
vn 0.06501 0.99763 0.02274
vn -0.04957 0.99817 0.03450
vn -0.04912 0.99879 0.00267
vn 0.00748 0.99970 -0.02342
vn 0.00814 0.99925 -0.03773
vn 0.02859 0.99854 -0.04591
vn 0.04189 0.99897 -0.01716

f 1/1/1 2/2/2 3/3/3
f 1/1/1 3/3/3 4/4/4
f 4/4/4 3/3/3 5/5/5
f 5/5/5 3/3/3 6/6/6
f 5/5/5 6/6/6 7/7/7
f 5/5/5 7/7/7 8/8/8
f 8/8/8 7/7/7 9/9/9
f 9/9/9 7/7/7 10/10/10
f 9/9/9 10/10/10 11/11/11
f 9/9/9 11/11/11 12/12/12
f 12/12/12 11/11/11 13/13/13
f 13/13/13 11/11/11 14/14/14
f 13/13/13 14/14/14 15/15/15
f 13/13/13 15/15/15 16/16/16
f 16/16/16 15/15/15 17/17/17
f 17/17/17 15/15/15 18/18/18
f 2/2/2 19/19/19 3/3/3
f 3/3/3 19/19/19 20/20/20
f 3/3/3 20/20/20 21/21/21
f 3/3/3 21/21/21 6/6/6
f 6/6/6 21/21/21 7/7/7
f 7/7/7 21/21/21 22/22/22
f 7/7/7 22/22/22 23/23/23
f 7/7/7 23/23/23 10/10/10
f 10/10/10 23/23/23 11/11/11
f 11/11/11 23/23/23 24/24/24
f 11/11/11 24/24/24 25/25/25
f 11/11/11 25/25/25 14/14/14
f 14/14/14 25/25/25 15/15/15
f 15/15/15 25/25/25 26/26/26
f 15/15/15 26/26/26 27/27/27
f 15/15/15 27/27/27 18/18/18
f 19/19/19 28/28/28 29/29/29
f 19/19/19 29/29/29 20/20/20
f 20/20/20 29/29/29 21/21/21
f 21/21/21 29/29/29 30/30/30
f 21/21/21 30/30/30 31/31/31
f 21/21/21 31/31/31 22/22/22
f 22/22/22 31/31/31 23/23/23
f 23/23/23 31/31/31 32/32/32
f 23/23/23 32/32/32 33/33/33
f 23/23/23 33/33/33 24/24/24
f 24/24/24 33/33/33 25/25/25
f 25/25/25 33/33/33 34/34/34
f 25/25/25 34/34/34 35/35/35
f 25/25/25 35/35/35 26/26/26
f 26/26/26 35/35/35 27/27/27
f 27/27/27 35/35/35 36/36/36
f 28/28/28 37/37/37 29/29/29
f 29/29/29 37/37/37 38/38/38
f 29/29/29 38/38/38 39/39/39
f 29/29/29 39/39/39 30/30/30
f 30/30/30 39/39/39 31/31/31
f 31/31/31 39/39/39 40/40/40
f 31/31/31 40/40/40 41/41/41
f 31/31/31 41/41/41 32/32/32
f 32/32/32 41/41/41 33/33/33
f 33/33/33 41/41/41 42/42/42
f 33/33/33 42/42/42 43/43/43
f 33/33/33 43/43/43 34/34/34
f 34/34/34 43/43/43 35/35/35
f 35/35/35 43/43/43 44/44/44
f 35/35/35 44/44/44 45/45/45
f 35/35/35 45/45/45 36/36/36
f 37/37/37 46/46/46 47/47/47
f 37/37/37 47/47/47 38/38/38
f 38/38/38 47/47/47 39/39/39
f 39/39/39 47/47/47 48/48/48
f 39/39/39 48/48/48 49/49/49
f 39/39/39 49/49/49 40/40/40
f 40/40/40 49/49/49 41/41/41
f 41/41/41 49/49/49 50/50/50
f 41/41/41 50/50/50 51/51/51
f 41/41/41 51/51/51 42/42/42
f 42/42/42 51/51/51 43/43/43
f 43/43/43 51/51/51 52/52/52
f 43/43/43 52/52/52 53/53/53
f 43/43/43 53/53/53 44/44/44
f 44/44/44 53/53/53 45/45/45
f 45/45/45 53/53/53 54/54/54
f 46/46/46 55/55/55 47/47/47
f 47/47/47 55/55/55 56/56/56
f 47/47/47 56/56/56 57/57/57
f 47/47/47 57/57/57 48/48/48
f 48/48/48 57/57/57 49/49/49
f 49/49/49 57/57/57 58/58/58
f 49/49/49 58/58/58 59/59/59
f 49/49/49 59/59/59 50/50/50
f 50/50/50 59/59/59 51/51/51
f 51/51/51 59/59/59 60/60/60
f 51/51/51 60/60/60 61/61/61
f 51/51/51 61/61/61 52/52/52
f 52/52/52 61/61/61 53/53/53
f 53/53/53 61/61/61 62/62/62
f 53/53/53 62/62/62 63/63/63
f 53/53/53 63/63/63 54/54/54
f 55/55/55 64/64/64 65/65/65
f 55/55/55 65/65/65 56/56/56
f 56/56/56 65/65/65 57/57/57
f 57/57/57 65/65/65 66/66/66
f 57/57/57 66/66/66 67/67/67
f 57/57/57 67/67/67 58/58/58
f 58/58/58 67/67/67 59/59/59
f 59/59/59 67/67/67 68/68/68
f 59/59/59 68/68/68 69/69/69
f 59/59/59 69/69/69 60/60/60
f 60/60/60 69/69/69 61/61/61
f 61/61/61 69/69/69 70/70/70
f 61/61/61 70/70/70 71/71/71
f 61/61/61 71/71/71 62/62/62
f 62/62/62 71/71/71 63/63/63
f 63/63/63 71/71/71 72/72/72
f 64/64/64 73/73/73 65/65/65
f 65/65/65 73/73/73 74/74/74
f 65/65/65 74/74/74 75/75/75
f 65/65/65 75/75/75 66/66/66
f 66/66/66 75/75/75 67/67/67
f 67/67/67 75/75/75 76/76/76
f 67/67/67 76/76/76 77/77/77
f 67/67/67 77/77/77 68/68/68
f 68/68/68 77/77/77 69/69/69
f 69/69/69 77/77/77 78/78/78
f 69/69/69 78/78/78 79/79/79
f 69/69/69 79/79/79 70/70/70
f 70/70/70 79/79/79 71/71/71
f 71/71/71 79/79/79 80/80/80
f 71/71/71 80/80/80 81/81/81
f 71/71/71 81/81/81 72/72/72
