# Generated by tools/generate_island.py. Do not edit by hand.
o terrain_lod2_1_-3

v 128.000 0.256 -384.000 0.439 0.407 0.235
v 128.000 -0.065 -368.000 0.417 0.384 0.221
v 144.000 0.473 -368.000 0.468 0.436 0.254
v 144.000 -0.018 -384.000 0.488 0.458 0.268
v 160.000 1.446 -384.000 0.254 0.327 0.121
v 160.000 4.168 -368.000 0.237 0.313 0.116
v 176.000 4.295 -368.000 0.238 0.314 0.116
v 176.000 4.248 -384.000 0.215 0.296 0.108
v 192.000 -0.068 -384.000 0.430 0.397 0.229
v 192.000 0.182 -368.000 0.467 0.435 0.253
v 208.000 0.473 -368.000 0.426 0.394 0.227
v 208.000 -0.601 -384.000 0.418 0.385 0.222
v 224.000 -0.927 -384.000 0.432 0.400 0.231
v 224.000 0.522 -368.000 0.442 0.409 0.237
v 240.000 -0.485 -368.000 0.433 0.400 0.231
v 240.000 -1.342 -384.000 0.439 0.406 0.235
v 256.000 -1.082 -384.000 0.426 0.393 0.227
v 256.000 -0.743 -368.000 0.462 0.430 0.250
v 128.000 -0.019 -352.000 0.441 0.408 0.236
v 144.000 0.747 -352.000 0.529 0.499 0.294
v 160.000 2.292 -352.000 0.232 0.310 0.114
v 176.000 2.266 -352.000 0.211 0.293 0.107
v 192.000 0.581 -352.000 0.500 0.469 0.275
v 208.000 0.414 -352.000 0.510 0.480 0.282
v 224.000 0.540 -352.000 0.519 0.489 0.288
v 240.000 0.688 -352.000 0.526 0.496 0.292
v 256.000 0.267 -352.000 0.490 0.459 0.269
v 128.000 0.366 -336.000 0.430 0.398 0.229
v 144.000 1.292 -336.000 0.267 0.337 0.126
v 160.000 0.555 -336.000 0.482 0.450 0.263
v 176.000 0.181 -336.000 0.484 0.453 0.265
v 192.000 1.949 -336.000 0.260 0.331 0.123
v 208.000 0.759 -336.000 0.534 0.505 0.298
v 224.000 0.942 -336.000 0.294 0.357 0.135
v 240.000 0.857 -336.000 0.567 0.539 0.320
v 256.000 0.296 -336.000 0.535 0.506 0.299
v 128.000 0.944 -320.000 0.204 0.287 0.105
v 144.000 1.151 -320.000 0.191 0.278 0.100
v 160.000 0.348 -320.000 0.510 0.480 0.282
v 176.000 1.216 -320.000 0.252 0.325 0.121
v 192.000 2.036 -320.000 0.246 0.321 0.119
v 208.000 0.764 -320.000 0.517 0.487 0.287
v 224.000 1.446 -320.000 0.277 0.345 0.129
v 240.000 0.922 -320.000 0.293 0.357 0.134
v 256.000 0.416 -320.000 0.550 0.521 0.308
v 128.000 -0.080 -304.000 0.388 0.354 0.202
v 144.000 0.788 -304.000 0.441 0.408 0.236
v 160.000 -0.026 -304.000 0.455 0.423 0.246
v 176.000 0.149 -304.000 0.472 0.440 0.257
v 192.000 0.058 -304.000 0.465 0.434 0.253
v 208.000 0.341 -304.000 0.445 0.413 0.239
v 224.000 0.989 -304.000 0.226 0.305 0.112
v 240.000 0.880 -304.000 0.240 0.316 0.117
v 256.000 0.723 -304.000 0.556 0.527 0.312
v 128.000 -0.461 -288.000 0.374 0.340 0.192
v 144.000 -0.622 -288.000 0.383 0.349 0.199
v 160.000 -0.845 -288.000 0.391 0.357 0.204
v 176.000 -0.469 -288.000 0.375 0.340 0.193
v 192.000 -0.199 -288.000 0.408 0.374 0.215
v 208.000 0.196 -288.000 0.427 0.395 0.228
v 224.000 0.128 -288.000 0.422 0.389 0.224
v 240.000 0.340 -288.000 0.477 0.445 0.260
v 256.000 1.207 -288.000 0.262 0.333 0.124
v 128.000 -0.016 -272.000 0.365 0.330 0.186
v 144.000 -0.221 -272.000 0.369 0.334 0.189
v 160.000 0.390 -272.000 0.393 0.359 0.205
v 176.000 0.270 -272.000 0.429 0.396 0.228
v 192.000 1.482 -272.000 0.193 0.279 0.101
v 208.000 2.225 -272.000 0.171 0.262 0.094
v 224.000 0.538 -272.000 0.414 0.381 0.219
v 240.000 -0.266 -272.000 0.428 0.395 0.228
v 256.000 0.030 -272.000 0.467 0.435 0.253
v 128.000 -0.778 -256.000 0.390 0.356 0.203
v 144.000 0.836 -256.000 0.402 0.368 0.211
v 160.000 -0.097 -256.000 0.382 0.348 0.198
v 176.000 -0.584 -256.000 0.449 0.417 0.242
v 192.000 1.269 -256.000 0.212 0.294 0.107
v 208.000 0.992 -256.000 0.197 0.282 0.102
v 224.000 0.474 -256.000 0.420 0.387 0.223
v 240.000 0.220 -256.000 0.429 0.396 0.229
v 256.000 0.454 -256.000 0.479 0.448 0.261

vt 0.566667 0.700000
vt 0.566667 0.691667
vt 0.575000 0.691667
vt 0.575000 0.700000
vt 0.583333 0.700000
vt 0.583333 0.691667
vt 0.591667 0.691667
vt 0.591667 0.700000
vt 0.600000 0.700000
vt 0.600000 0.691667
vt 0.608333 0.691667
vt 0.608333 0.700000
vt 0.616667 0.700000
vt 0.616667 0.691667
vt 0.625000 0.691667
vt 0.625000 0.700000
vt 0.633333 0.700000
vt 0.633333 0.691667
vt 0.566667 0.683333
vt 0.575000 0.683333
vt 0.583333 0.683333
vt 0.591667 0.683333
vt 0.600000 0.683333
vt 0.608333 0.683333
vt 0.616667 0.683333
vt 0.625000 0.683333
vt 0.633333 0.683333
vt 0.566667 0.675000
vt 0.575000 0.675000
vt 0.583333 0.675000
vt 0.591667 0.675000
vt 0.600000 0.675000
vt 0.608333 0.675000
vt 0.616667 0.675000
vt 0.625000 0.675000
vt 0.633333 0.675000
vt 0.566667 0.666667
vt 0.575000 0.666667
vt 0.583333 0.666667
vt 0.591667 0.666667
vt 0.600000 0.666667
vt 0.608333 0.666667
vt 0.616667 0.666667
vt 0.625000 0.666667
vt 0.633333 0.666667
vt 0.566667 0.658333
vt 0.575000 0.658333
vt 0.583333 0.658333
vt 0.591667 0.658333
vt 0.600000 0.658333
vt 0.608333 0.658333
vt 0.616667 0.658333
vt 0.625000 0.658333
vt 0.633333 0.658333
vt 0.566667 0.650000
vt 0.575000 0.650000
vt 0.583333 0.650000
vt 0.591667 0.650000
vt 0.600000 0.650000
vt 0.608333 0.650000
vt 0.616667 0.650000
vt 0.625000 0.650000
vt 0.633333 0.650000
vt 0.566667 0.641667
vt 0.575000 0.641667
vt 0.583333 0.641667
vt 0.591667 0.641667
vt 0.600000 0.641667
vt 0.608333 0.641667
vt 0.616667 0.641667
vt 0.625000 0.641667
vt 0.633333 0.641667
vt 0.566667 0.633333
vt 0.575000 0.633333
vt 0.583333 0.633333
vt 0.591667 0.633333
vt 0.600000 0.633333
vt 0.608333 0.633333
vt 0.616667 0.633333
vt 0.625000 0.633333
vt 0.633333 0.633333

vn -0.00827 0.99995 -0.00531
vn -0.03365 0.99940 0.00857
vn -0.09308 0.99552 -0.01634
vn -0.03716 0.99884 -0.03068
vn -0.12484 0.98787 -0.09233
vn -0.11854 0.99260 -0.02623
vn 0.08714 0.99601 0.01922
vn 0.04728 0.99888 -0.00294
vn 0.13421 0.99064 -0.02509
vn 0.11857 0.99274 -0.02013
vn 0.00170 0.99947 -0.03238
vn 0.02677 0.99740 -0.06691
vn 0.02647 0.99682 -0.07522
vn 0.02989 0.99850 -0.04580
vn 0.02307 0.99829 -0.05364
vn 0.00482 0.99856 -0.05347
vn -0.00008 0.99930 -0.03733
vn 0.01610 0.99898 -0.04211
vn -0.04674 0.99872 -0.01952
vn -0.07199 0.99708 -0.02552
vn -0.04471 0.99564 0.08185
vn 0.05297 0.99044 0.12735
vn 0.05419 0.99853 0.00230
vn 0.00125 0.99996 -0.00895
vn 0.00244 0.99981 -0.01928
vn 0.00853 0.99908 -0.04191
vn 0.02592 0.99897 -0.03718
vn -0.05775 0.99788 -0.03002
vn -0.01633 0.99987 0.00136
vn 0.03466 0.99756 0.06060
vn -0.02159 0.99956 0.02022
vn -0.01806 0.99880 -0.04542
vn 0.02064 0.99950 -0.02389
vn -0.00306 0.99960 -0.02828
vn 0.02025 0.99972 -0.01189
vn 0.03502 0.99938 -0.00465
vn -0.03446 0.99930 0.01484
vn 0.01863 0.99970 0.01576
vn 0.01266 0.99983 0.01326
vn -0.05267 0.99861 0.00099
vn 0.00103 0.99945 0.03304
vn 0.01844 0.99974 0.01307
vn -0.00744 0.99997 0.00235
vn 0.03215 0.99948 -0.00072
vn 0.02701 0.99961 -0.00703
vn -0.05409 0.99757 0.04381
vn 0.00681 0.99883 0.04795
vn 0.01996 0.99911 0.03724
vn -0.01952 0.99840 0.05300
vn -0.00599 0.99755 0.06965
vn -0.01249 0.99925 0.03660
vn -0.01683 0.99901 0.04112
vn 0.00376 0.99991 0.01320
vn 0.00982 0.99965 -0.02471
vn -0.00532 0.99988 0.01475
vn 0.01198 0.99943 0.03150
vn -0.00125 1.00000 0.00043
vn -0.02019 0.99979 -0.00380
vn -0.02712 0.99891 -0.03789
vn -0.01020 0.99822 -0.05877
vn 0.01299 0.99991 0.00128
vn -0.03368 0.99879 0.03577
vn -0.02924 0.99916 0.02872
vn 0.01281 0.99987 0.00989
vn -0.00865 0.99962 -0.02615
vn -0.01533 0.99961 -0.02336
vn -0.03277 0.99934 -0.01549
vn -0.06090 0.99710 -0.04571
vn 0.01840 0.99948 -0.02658
vn 0.07759 0.99693 -0.01077
vn -0.00032 0.99999 0.00506
vn -0.01844 0.99955 0.02355
vn -0.04400 0.99899 -0.00919
vn -0.02123 0.99760 -0.06590
vn 0.01452 0.99982 0.01205
vn -0.04257 0.99767 0.05328
vn -0.05504 0.99771 0.03921
vn 0.02475 0.99674 0.07683
vn 0.05090 0.99861 0.01366
vn 0.00064 0.99954 -0.03035
vn -0.01651 0.99946 -0.02842

f 1/1/1 2/2/2 3/3/3
f 1/1/1 3/3/3 4/4/4
f 4/4/4 3/3/3 5/5/5
f 5/5/5 3/3/3 6/6/6
f 5/5/5 6/6/6 7/7/7
f 5/5/5 7/7/7 8/8/8
f 8/8/8 7/7/7 9/9/9
f 9/9/9 7/7/7 10/10/10
f 9/9/9 10/10/10 11/11/11
f 9/9/9 11/11/11 12/12/12
f 12/12/12 11/11/11 13/13/13
f 13/13/13 11/11/11 14/14/14
f 13/13/13 14/14/14 15/15/15
f 13/13/13 15/15/15 16/16/16
f 16/16/16 15/15/15 17/17/17
f 17/17/17 15/15/15 18/18/18
f 2/2/2 19/19/19 3/3/3
f 3/3/3 19/19/19 20/20/20
f 3/3/3 20/20/20 21/21/21
f 3/3/3 21/21/21 6/6/6
f 6/6/6 21/21/21 7/7/7
f 7/7/7 21/21/21 22/22/22
f 7/7/7 22/22/22 23/23/23
f 7/7/7 23/23/23 10/10/10
f 10/10/10 23/23/23 11/11/11
f 11/11/11 23/23/23 24/24/24
f 11/11/11 24/24/24 25/25/25
f 11/11/11 25/25/25 14/14/14
f 14/14/14 25/25/25 15/15/15
f 15/15/15 25/25/25 26/26/26
f 15/15/15 26/26/26 27/27/27
f 15/15/15 27/27/27 18/18/18
f 19/19/19 28/28/28 29/29/29
f 19/19/19 29/29/29 20/20/20
f 20/20/20 29/29/29 21/21/21
f 21/21/21 29/29/29 30/30/30
f 21/21/21 30/30/30 31/31/31
f 21/21/21 31/31/31 22/22/22
f 22/22/22 31/31/31 23/23/23
f 23/23/23 31/31/31 32/32/32
f 23/23/23 32/32/32 33/33/33
f 23/23/23 33/33/33 24/24/24
f 24/24/24 33/33/33 25/25/25
f 25/25/25 33/33/33 34/34/34
f 25/25/25 34/34/34 35/35/35
f 25/25/25 35/35/35 26/26/26
f 26/26/26 35/35/35 27/27/27
f 27/27/27 35/35/35 36/36/36
f 28/28/28 37/37/37 29/29/29
f 29/29/29 37/37/37 38/38/38
f 29/29/29 38/38/38 39/39/39
f 29/29/29 39/39/39 30/30/30
f 30/30/30 39/39/39 31/31/31
f 31/31/31 39/39/39 40/40/40
f 31/31/31 40/40/40 41/41/41
f 31/31/31 41/41/41 32/32/32
f 32/32/32 41/41/41 33/33/33
f 33/33/33 41/41/41 42/42/42
f 33/33/33 42/42/42 43/43/43
f 33/33/33 43/43/43 34/34/34
f 34/34/34 43/43/43 35/35/35
f 35/35/35 43/43/43 44/44/44
f 35/35/35 44/44/44 45/45/45
f 35/35/35 45/45/45 36/36/36
f 37/37/37 46/46/46 47/47/47
f 37/37/37 47/47/47 38/38/38
f 38/38/38 47/47/47 39/39/39
f 39/39/39 47/47/47 48/48/48
f 39/39/39 48/48/48 49/49/49
f 39/39/39 49/49/49 40/40/40
f 40/40/40 49/49/49 41/41/41
f 41/41/41 49/49/49 50/50/50
f 41/41/41 50/50/50 51/51/51
f 41/41/41 51/51/51 42/42/42
f 42/42/42 51/51/51 43/43/43
f 43/43/43 51/51/51 52/52/52
f 43/43/43 52/52/52 53/53/53
f 43/43/43 53/53/53 44/44/44
f 44/44/44 53/53/53 45/45/45
f 45/45/45 53/53/53 54/54/54
f 46/46/46 55/55/55 47/47/47
f 47/47/47 55/55/55 56/56/56
f 47/47/47 56/56/56 57/57/57
f 47/47/47 57/57/57 48/48/48
f 48/48/48 57/57/57 49/49/49
f 49/49/49 57/57/57 58/58/58
f 49/49/49 58/58/58 59/59/59
f 49/49/49 59/59/59 50/50/50
f 50/50/50 59/59/59 51/51/51
f 51/51/51 59/59/59 60/60/60
f 51/51/51 60/60/60 61/61/61
f 51/51/51 61/61/61 52/52/52
f 52/52/52 61/61/61 53/53/53
f 53/53/53 61/61/61 62/62/62
f 53/53/53 62/62/62 63/63/63
f 53/53/53 63/63/63 54/54/54
f 55/55/55 64/64/64 65/65/65
f 55/55/55 65/65/65 56/56/56
f 56/56/56 65/65/65 57/57/57
f 57/57/57 65/65/65 66/66/66
f 57/57/57 66/66/66 67/67/67
f 57/57/57 67/67/67 58/58/58
f 58/58/58 67/67/67 59/59/59
f 59/59/59 67/67/67 68/68/68
f 59/59/59 68/68/68 69/69/69
f 59/59/59 69/69/69 60/60/60
f 60/60/60 69/69/69 61/61/61
f 61/61/61 69/69/69 70/70/70
f 61/61/61 70/70/70 71/71/71
f 61/61/61 71/71/71 62/62/62
f 62/62/62 71/71/71 63/63/63
f 63/63/63 71/71/71 72/72/72
f 64/64/64 73/73/73 65/65/65
f 65/65/65 73/73/73 74/74/74
f 65/65/65 74/74/74 75/75/75
f 65/65/65 75/75/75 66/66/66
f 66/66/66 75/75/75 67/67/67
f 67/67/67 75/75/75 76/76/76
f 67/67/67 76/76/76 77/77/77
f 67/67/67 77/77/77 68/68/68
f 68/68/68 77/77/77 69/69/69
f 69/69/69 77/77/77 78/78/78
f 69/69/69 78/78/78 79/79/79
f 69/69/69 79/79/79 70/70/70
f 70/70/70 79/79/79 71/71/71
f 71/71/71 79/79/79 80/80/80
f 71/71/71 80/80/80 81/81/81
f 71/71/71 81/81/81 72/72/72
