# Generated by tools/generate_island.py. Do not edit by hand.
o terrain_lod2_2_3

v 256.000 -0.414 384.000 0.459 0.427 0.248
v 256.000 -0.898 400.000 0.511 0.481 0.283
v 272.000 -0.425 400.000 0.475 0.444 0.259
v 272.000 -0.806 384.000 0.474 0.443 0.258
v 288.000 -0.404 384.000 0.480 0.449 0.262
v 288.000 -0.778 400.000 0.451 0.419 0.243
v 304.000 -1.679 400.000 0.389 0.355 0.202
v 304.000 -0.981 384.000 0.462 0.430 0.250
v 320.000 -1.409 384.000 0.418 0.385 0.221
v 320.000 -1.726 400.000 0.383 0.349 0.198
v 336.000 -1.831 400.000 0.440 0.407 0.236
v 336.000 -1.307 384.000 0.476 0.445 0.260
v 352.000 -1.570 384.000 0.507 0.477 0.280
v 352.000 -2.138 400.000 0.493 0.462 0.271
v 368.000 -1.667 400.000 0.579 0.551 0.327
v 368.000 -1.735 384.000 0.556 0.527 0.312
v 384.000 -1.395 384.000 0.525 0.495 0.292
v 384.000 -1.945 400.000 0.558 0.529 0.314
v 256.000 -0.948 416.000 0.521 0.491 0.289
v 272.000 -1.061 416.000 0.494 0.463 0.272
v 288.000 -1.678 416.000 0.428 0.396 0.228
v 304.000 -1.791 416.000 0.414 0.381 0.219
v 320.000 -1.362 416.000 0.400 0.366 0.209
v 336.000 -2.247 416.000 0.445 0.413 0.239
v 352.000 -2.540 416.000 0.491 0.460 0.269
v 368.000 -2.270 416.000 0.516 0.486 0.286
v 384.000 -2.667 416.000 0.498 0.468 0.274
v 256.000 -1.322 432.000 0.490 0.459 0.268
v 272.000 -1.318 432.000 0.487 0.456 0.267
v 288.000 -1.995 432.000 0.458 0.426 0.248
v 304.000 -1.972 432.000 0.499 0.468 0.275
v 320.000 -2.170 432.000 0.479 0.448 0.262
v 336.000 -2.650 432.000 0.409 0.376 0.216
v 352.000 -2.462 432.000 0.460 0.428 0.249
v 368.000 -2.781 432.000 0.443 0.410 0.238
v 384.000 -3.818 432.000 0.417 0.384 0.221
v 256.000 -1.670 448.000 0.521 0.491 0.289
v 272.000 -2.246 448.000 0.532 0.503 0.297
v 288.000 -2.235 448.000 0.487 0.456 0.267
v 304.000 -2.012 448.000 0.511 0.481 0.283
v 320.000 -2.542 448.000 0.484 0.453 0.265
v 336.000 -3.039 448.000 0.431 0.398 0.230
v 352.000 -3.162 448.000 0.428 0.396 0.228
v 368.000 -3.669 448.000 0.452 0.420 0.244
v 384.000 -3.771 448.000 0.416 0.383 0.220
v 256.000 -2.471 464.000 0.544 0.514 0.304
v 272.000 -2.744 464.000 0.527 0.498 0.293
v 288.000 -2.453 464.000 0.514 0.484 0.285
v 304.000 -2.821 464.000 0.514 0.484 0.285
v 320.000 -3.316 464.000 0.467 0.435 0.253
v 336.000 -3.341 464.000 0.394 0.360 0.205
v 352.000 -3.820 464.000 0.428 0.395 0.228
v 368.000 -4.255 464.000 0.434 0.401 0.232
v 384.000 -4.256 464.000 0.436 0.403 0.233
v 256.000 -3.177 480.000 0.480 0.449 0.262
v 272.000 -3.351 480.000 0.504 0.473 0.278
v 288.000 -3.306 480.000 0.508 0.478 0.281
v 304.000 -3.869 480.000 0.467 0.436 0.254
v 320.000 -3.816 480.000 0.442 0.409 0.237
v 336.000 -3.802 480.000 0.392 0.358 0.204
v 352.000 -4.740 480.000 0.407 0.374 0.214
v 368.000 -4.998 480.000 0.387 0.353 0.201
v 384.000 -4.984 480.000 0.415 0.382 0.219
v 256.000 -4.215 496.000 0.479 0.448 0.261
v 272.000 -3.752 496.000 0.500 0.469 0.275
v 288.000 -3.827 496.000 0.516 0.486 0.286
v 304.000 -4.420 496.000 0.457 0.426 0.247
v 320.000 -4.564 496.000 0.430 0.397 0.229
v 336.000 -4.980 496.000 0.420 0.387 0.223
v 352.000 -5.197 496.000 0.399 0.365 0.209
v 368.000 -5.071 496.000 0.392 0.358 0.204
v 384.000 -5.709 496.000 0.427 0.395 0.228
v 256.000 -4.370 512.000 0.469 0.437 0.255
v 272.000 -4.613 512.000 0.489 0.458 0.268
v 288.000 -5.259 512.000 0.465 0.433 0.252
v 304.000 -5.052 512.000 0.444 0.412 0.239
v 320.000 -4.897 512.000 0.449 0.417 0.242
v 336.000 -5.668 512.000 0.467 0.436 0.254
v 352.000 -5.941 512.000 0.414 0.381 0.219
v 368.000 -5.989 512.000 0.391 0.357 0.204
v 384.000 -6.574 512.000 0.458 0.426 0.248

vt 0.633333 0.300000
vt 0.633333 0.291667
vt 0.641667 0.291667
vt 0.641667 0.300000
vt 0.650000 0.300000
vt 0.650000 0.291667
vt 0.658333 0.291667
vt 0.658333 0.300000
vt 0.666667 0.300000
vt 0.666667 0.291667
vt 0.675000 0.291667
vt 0.675000 0.300000
vt 0.683333 0.300000
vt 0.683333 0.291667
vt 0.691667 0.291667
vt 0.691667 0.300000
vt 0.700000 0.300000
vt 0.700000 0.291667
vt 0.633333 0.283333
vt 0.641667 0.283333
vt 0.650000 0.283333
vt 0.658333 0.283333
vt 0.666667 0.283333
vt 0.675000 0.283333
vt 0.683333 0.283333
vt 0.691667 0.283333
vt 0.700000 0.283333
vt 0.633333 0.275000
vt 0.641667 0.275000
vt 0.650000 0.275000
vt 0.658333 0.275000
vt 0.666667 0.275000
vt 0.675000 0.275000
vt 0.683333 0.275000
vt 0.691667 0.275000
vt 0.700000 0.275000
vt 0.633333 0.266667
vt 0.641667 0.266667
vt 0.650000 0.266667
vt 0.658333 0.266667
vt 0.666667 0.266667
vt 0.675000 0.266667
vt 0.683333 0.266667
vt 0.691667 0.266667
vt 0.700000 0.266667
vt 0.633333 0.258333
vt 0.641667 0.258333
vt 0.650000 0.258333
vt 0.658333 0.258333
vt 0.666667 0.258333
vt 0.675000 0.258333
vt 0.683333 0.258333
vt 0.691667 0.258333
vt 0.700000 0.258333
vt 0.633333 0.250000
vt 0.641667 0.250000
vt 0.650000 0.250000
vt 0.658333 0.250000
vt 0.666667 0.250000
vt 0.675000 0.250000
vt 0.683333 0.250000
vt 0.691667 0.250000
vt 0.700000 0.250000
vt 0.633333 0.241667
vt 0.641667 0.241667
vt 0.650000 0.241667
vt 0.658333 0.241667
vt 0.666667 0.241667
vt 0.675000 0.241667
vt 0.683333 0.241667
vt 0.691667 0.241667
vt 0.700000 0.241667
vt 0.633333 0.233333
vt 0.641667 0.233333
vt 0.650000 0.233333
vt 0.658333 0.233333
vt 0.666667 0.233333
vt 0.675000 0.233333
vt 0.683333 0.233333
vt 0.691667 0.233333
vt 0.700000 0.233333

vn -0.00255 0.99999 0.00322
vn -0.02959 0.99942 0.01669
vn 0.00374 0.99983 0.01810
vn -0.00032 0.99972 -0.02384
vn 0.02231 0.99961 0.01663
vn 0.03913 0.99844 0.03977
vn 0.02019 0.99955 0.02224
vn 0.03137 0.99856 0.04357
vn 0.00747 0.99955 0.02897
vn 0.00475 0.99999 -0.00147
vn 0.01690 0.99962 0.02190
vn 0.00502 0.99945 0.03272
vn 0.00413 0.99968 0.02488
vn -0.00510 0.99953 0.03031
vn -0.00339 0.99966 0.02587
vn -0.00547 0.99998 -0.00420
vn -0.00194 0.99988 0.01509
vn 0.01733 0.99906 0.03973
vn -0.00396 0.99978 0.02056
vn 0.02280 0.99935 0.02788
vn 0.02630 0.99925 0.02826
vn -0.00988 0.99991 0.00916
vn 0.01362 0.99979 0.01563
vn 0.03678 0.99900 0.02558
vn 0.00009 0.99980 0.02016
vn 0.00397 0.99939 0.03479
vn 0.03291 0.99837 0.04659
vn -0.00026 0.99975 0.02254
vn 0.02062 0.99938 0.02849
vn 0.02045 0.99964 0.01739
vn 0.00266 0.99985 0.01702
vn 0.02118 0.99910 0.03683
vn 0.01861 0.99948 0.02642
vn 0.00409 0.99980 0.01943
vn 0.02691 0.99901 0.03530
vn 0.06461 0.99732 0.03438
vn 0.02218 0.99895 0.04019
vn 0.01764 0.99885 0.04451
vn 0.00206 0.99969 0.02491
vn 0.00959 0.99960 0.02651
vn 0.02539 0.99923 0.02991
vn 0.01937 0.99958 0.02158
vn 0.01799 0.99911 0.03810
vn 0.01899 0.99876 0.04599
vn 0.01939 0.99937 0.02985
vn 0.01703 0.99875 0.04702
vn 0.00514 0.99929 0.03738
vn 0.00241 0.99944 0.03344
vn 0.01985 0.99868 0.04727
vn 0.01625 0.99908 0.03979
vn 0.01993 0.99922 0.03418
vn 0.02850 0.99838 0.04922
vn 0.01345 0.99900 0.04253
vn 0.00008 0.99928 0.03788
vn 0.00249 0.99907 0.04298
vn 0.00404 0.99950 0.03151
vn 0.01389 0.99903 0.04180
vn 0.01593 0.99863 0.04990
vn 0.00739 0.99897 0.04475
vn 0.02880 0.99828 0.05112
vn 0.02650 0.99882 0.04063
vn 0.00762 0.99965 0.02549
vn 0.00954 0.99933 0.03543
vn -0.02889 0.99889 0.03726
vn 0.00189 0.99902 0.04426
vn 0.02082 0.99793 0.06091
vn 0.01266 0.99903 0.04215
vn 0.01749 0.99928 0.03374
vn 0.02523 0.99858 0.04691
vn 0.00284 0.99929 0.03752
vn 0.01484 0.99920 0.03727
vn 0.03982 0.99798 0.04959
vn -0.00686 0.99947 0.03175
vn 0.02772 0.99817 0.05373
vn 0.01724 0.99754 0.06793
vn -0.01131 0.99916 0.03948
vn 0.01836 0.99935 0.03102
vn 0.03259 0.99855 0.04294
vn 0.00644 0.99881 0.04831
vn 0.01973 0.99816 0.05731
vn 0.03813 0.99772 0.05560

f 1/1/1 2/2/2 3/3/3
f 1/1/1 3/3/3 4/4/4
f 4/4/4 3/3/3 5/5/5
f 5/5/5 3/3/3 6/6/6
f 5/5/5 6/6/6 7/7/7
f 5/5/5 7/7/7 8/8/8
f 8/8/8 7/7/7 9/9/9
f 9/9/9 7/7/7 10/10/10
f 9/9/9 10/10/10 11/11/11
f 9/9/9 11/11/11 12/12/12
f 12/12/12 11/11/11 13/13/13
f 13/13/13 11/11/11 14/14/14
f 13/13/13 14/14/14 15/15/15
f 13/13/13 15/15/15 16/16/16
f 16/16/16 15/15/15 17/17/17
f 17/17/17 15/15/15 18/18/18
f 2/2/2 19/19/19 3/3/3
f 3/3/3 19/19/19 20/20/20
f 3/3/3 20/20/20 21/21/21
f 3/3/3 21/21/21 6/6/6
f 6/6/6 21/21/21 7/7/7
f 7/7/7 21/21/21 22/22/22
f 7/7/7 22/22/22 23/23/23
f 7/7/7 23/23/23 10/10/10
f 10/10/10 23/23/23 11/11/11
f 11/11/11 23/23/23 24/24/24
f 11/11/11 24/24/24 25/25/25
f 11/11/11 25/25/25 14/14/14
f 14/14/14 25/25/25 15/15/15
f 15/15/15 25/25/25 26/26/26
f 15/15/15 26/26/26 27/27/27
f 15/15/15 27/27/27 18/18/18
f 19/19/19 28/28/28 29/29/29
f 19/19/19 29/29/29 20/20/20
f 20/20/20 29/29/29 21/21/21
f 21/21/21 29/29/29 30/30/30
f 21/21/21 30/30/30 31/31/31
f 21/21/21 31/31/31 22/22/22
f 22/22/22 31/31/31 23/23/23
f 23/23/23 31/31/31 32/32/32
f 23/23/23 32/32/32 33/33/33
f 23/23/23 33/33/33 24/24/24
f 24/24/24 33/33/33 25/25/25
f 25/25/25 33/33/33 34/34/34
f 25/25/25 34/34/34 35/35/35
f 25/25/25 35/35/35 26/26/26
f 26/26/26 35/35/35 27/27/27
f 27/27/27 35/35/35 36/36/36
f 28/28/28 37/37/37 29/29/29
f 29/29/29 37/37/37 38/38/38
f 29/29/29 38/38/38 39/39/39
f 29/29/29 39/39/39 30/30/30
f 30/30/30 39/39/39 31/31/31
f 31/31/31 39/39/39 40/40/40
f 31/31/31 40/40/40 41/41/41
f 31/31/31 41/41/41 32/32/32
f 32/32/32 41/41/41 33/33/33
f 33/33/33 41/41/41 42/42/42
f 33/33/33 42/42/42 43/43/43
f 33/33/33 43/43/43 34/34/34
f 34/34/34 43/43/43 35/35/35
f 35/35/35 43/43/43 44/44/44
f 35/35/35 44/44/44 45/45/45
f 35/35/35 45/45/45 36/36/36
f 37/37/37 46/46/46 47/47/47
f 37/37/37 47/47/47 38/38/38
f 38/38/38 47/47/47 39/39/39
f 39/39/39 47/47/47 48/48/48
f 39/39/39 48/48/48 49/49/49
f 39/39/39 49/49/49 40/40/40
f 40/40/40 49/49/49 41/41/41
f 41/41/41 49/49/49 50/50/50
f 41/41/41 50/50/50 51/51/51
f 41/41/41 51/51/51 42/42/42
f 42/42/42 51/51/51 43/43/43
f 43/43/43 51/51/51 52/52/52
f 43/43/43 52/52/52 53/53/53
f 43/43/43 53/53/53 44/44/44
f 44/44/44 53/53/53 45/45/45
f 45/45/45 53/53/53 54/54/54
f 46/46/46 55/55/55 47/47/47
f 47/47/47 55/55/55 56/56/56
f 47/47/47 56/56/56 57/57/57
f 47/47/47 57/57/57 48/48/48
f 48/48/48 57/57/57 49/49/49
f 49/49/49 57/57/57 58/58/58
f 49/49/49 58/58/58 59/59/59
f 49/49/49 59/59/59 50/50/50
f 50/50/50 59/59/59 51/51/51
f 51/51/51 59/59/59 60/60/60
f 51/51/51 60/60/60 61/61/61
f 51/51/51 61/61/61 52/52/52
f 52/52/52 61/61/61 53/53/53
f 53/53/53 61/61/61 62/62/62
f 53/53/53 62/62/62 63/63/63
f 53/53/53 63/63/63 54/54/54
f 55/55/55 64/64/64 65/65/65
f 55/55/55 65/65/65 56/56/56
f 56/56/56 65/65/65 57/57/57
f 57/57/57 65/65/65 66/66/66
f 57/57/57 66/66/66 67/67/67
f 57/57/57 67/67/67 58/58/58
f 58/58/58 67/67/67 59/59/59
f 59/59/59 67/67/67 68/68/68
f 59/59/59 68/68/68 69/69/69
f 59/59/59 69/69/69 60/60/60
f 60/60/60 69/69/69 61/61/61
f 61/61/61 69/69/69 70/70/70
f 61/61/61 70/70/70 71/71/71
f 61/61/61 71/71/71 62/62/62
f 62/62/62 71/71/71 63/63/63
f 63/63/63 71/71/71 72/72/72
f 64/64/64 73/73/73 65/65/65
f 65/65/65 73/73/73 74/74/74
f 65/65/65 74/74/74 75/75/75
f 65/65/65 75/75/75 66/66/66
f 66/66/66 75/75/75 67/67/67
f 67/67/67 75/75/75 76/76/76
f 67/67/67 76/76/76 77/77/77
f 67/67/67 77/77/77 68/68/68
f 68/68/68 77/77/77 69/69/69
f 69/69/69 77/77/77 78/78/78
f 69/69/69 78/78/78 79/79/79
f 69/69/69 79/79/79 70/70/70
f 70/70/70 79/79/79 71/71/71
f 71/71/71 79/79/79 80/80/80
f 71/71/71 80/80/80 81/81/81
f 71/71/71 81/81/81 72/72/72
