# Generated by tools/generate_island.py. Do not edit by hand.
o terrain_lod2_-2_-4

v -128.000 -8.000 -256.000 0.374 0.339 0.192
v -128.000 -8.000 -248.000 0.391 0.358 0.204
v -120.000 -8.000 -248.000 0.399 0.365 0.209
v -120.000 -8.000 -256.000 0.380 0.346 0.197
v -112.000 -8.000 -256.000 0.394 0.360 0.205
v -112.000 -8.000 -248.000 0.404 0.371 0.212
v -104.000 -8.000 -248.000 0.412 0.379 0.217
v -104.000 -8.000 -256.000 0.407 0.374 0.214
v -96.000 -8.000 -256.000 0.449 0.417 0.242
v -96.000 -8.000 -248.000 0.443 0.411 0.238
v -88.000 -8.000 -248.000 0.482 0.450 0.263
v -88.000 -8.000 -256.000 0.491 0.460 0.269
v -80.000 -8.000 -256.000 0.524 0.494 0.291
v -80.000 -8.000 -248.000 0.536 0.507 0.299
v -72.000 -8.000 -248.000 0.581 0.553 0.329
v -72.000 -8.000 -256.000 0.556 0.527 0.312
v -64.000 -8.000 -256.000 0.569 0.540 0.321
v -64.000 -8.000 -248.000 0.585 0.557 0.331
v -128.000 -8.000 -240.000 0.398 0.364 0.208
v -120.000 -8.000 -240.000 0.390 0.356 0.203
v -112.000 -8.000 -240.000 0.423 0.390 0.225
v -104.000 -8.000 -240.000 0.405 0.372 0.213
v -96.000 -8.000 -240.000 0.425 0.392 0.226
v -88.000 -8.000 -240.000 0.457 0.425 0.247
v -80.000 -8.000 -240.000 0.537 0.508 0.300
v -72.000 -8.000 -240.000 0.585 0.557 0.331
v -64.000 -8.000 -240.000 0.580 0.552 0.328
v -128.000 -8.000 -232.000 0.389 0.355 0.202
v -120.000 -8.000 -232.000 0.395 0.361 0.206
v -112.000 -8.000 -232.000 0.398 0.364 0.208
v -104.000 -8.000 -232.000 0.408 0.375 0.215
v -96.000 -8.000 -232.000 0.442 0.409 0.237
v -88.000 -8.000 -232.000 0.471 0.439 0.256
v -80.000 -8.000 -232.000 0.537 0.507 0.300
v -72.000 -8.000 -232.000 0.585 0.557 0.331
v -64.000 -8.000 -232.000 0.585 0.557 0.331
v -128.000 -8.000 -224.000 0.400 0.366 0.209
v -120.000 -8.000 -224.000 0.407 0.373 0.214
v -112.000 -8.000 -224.000 0.411 0.378 0.217
v -104.000 -8.000 -224.000 0.421 0.388 0.223
v -96.000 -8.000 -224.000 0.454 0.422 0.245
v -88.000 -8.000 -224.000 0.488 0.457 0.267
v -80.000 -8.000 -224.000 0.531 0.501 0.296
v -72.000 -8.000 -224.000 0.572 0.543 0.323
v -64.000 -8.000 -224.000 0.585 0.557 0.331
v -128.000 -8.000 -216.000 0.417 0.384 0.221
v -120.000 -8.000 -216.000 0.407 0.373 0.214
v -112.000 -8.000 -216.000 0.424 0.391 0.225
v -104.000 -8.000 -216.000 0.434 0.401 0.232
v -96.000 -8.000 -216.000 0.477 0.446 0.261
v -88.000 -8.000 -216.000 0.497 0.466 0.273
v -80.000 -8.000 -216.000 0.546 0.516 0.305
v -72.000 -7.531 -216.000 0.562 0.533 0.316
v -64.000 -6.883 -216.000 0.560 0.531 0.315
v -128.000 -8.000 -208.000 0.417 0.384 0.221
v -120.000 -8.000 -208.000 0.397 0.364 0.208
v -112.000 -8.000 -208.000 0.417 0.384 0.221
v -104.000 -8.000 -208.000 0.415 0.382 0.219
v -96.000 -8.000 -208.000 0.454 0.422 0.245
v -88.000 -7.706 -208.000 0.499 0.469 0.275
v -80.000 -6.704 -208.000 0.522 0.493 0.290
v -72.000 -6.379 -208.000 0.536 0.507 0.299
v -64.000 -5.908 -208.000 0.565 0.537 0.318
v -128.000 -8.000 -200.000 0.433 0.400 0.231
v -120.000 -8.000 -200.000 0.403 0.370 0.212
v -112.000 -8.000 -200.000 0.406 0.372 0.213
v -104.000 -8.000 -200.000 0.421 0.388 0.223
v -96.000 -7.156 -200.000 0.457 0.425 0.247
v -88.000 -6.616 -200.000 0.482 0.450 0.263
v -80.000 -5.603 -200.000 0.484 0.453 0.265
v -72.000 -5.323 -200.000 0.514 0.483 0.284
v -64.000 -5.325 -200.000 0.542 0.513 0.303
v -128.000 -8.000 -192.000 0.409 0.376 0.216
v -120.000 -8.000 -192.000 0.420 0.387 0.223
v -112.000 -7.861 -192.000 0.434 0.401 0.232
v -104.000 -7.315 -192.000 0.450 0.418 0.243
v -96.000 -6.230 -192.000 0.473 0.441 0.257
v -88.000 -5.289 -192.000 0.483 0.452 0.264
v -80.000 -4.658 -192.000 0.461 0.430 0.250
v -72.000 -4.130 -192.000 0.469 0.437 0.255
v -64.000 -4.417 -192.000 0.505 0.474 0.278

vt 0.300000 0.900000
vt 0.300000 0.887500
vt 0.312500 0.887500
vt 0.312500 0.900000
vt 0.325000 0.900000
vt 0.325000 0.887500
vt 0.337500 0.887500
vt 0.337500 0.900000
vt 0.350000 0.900000
vt 0.350000 0.887500
vt 0.362500 0.887500
vt 0.362500 0.900000
vt 0.375000 0.900000
vt 0.375000 0.887500
vt 0.387500 0.887500
vt 0.387500 0.900000
vt 0.400000 0.900000
vt 0.400000 0.887500
vt 0.300000 0.875000
vt 0.312500 0.875000
vt 0.325000 0.875000
vt 0.337500 0.875000
vt 0.350000 0.875000
vt 0.362500 0.875000
vt 0.375000 0.875000
vt 0.387500 0.875000
vt 0.400000 0.875000
vt 0.300000 0.862500
vt 0.312500 0.862500
vt 0.325000 0.862500
vt 0.337500 0.862500
vt 0.350000 0.862500
vt 0.362500 0.862500
vt 0.375000 0.862500
vt 0.387500 0.862500
vt 0.400000 0.862500
vt 0.300000 0.850000
vt 0.312500 0.850000
vt 0.325000 0.850000
vt 0.337500 0.850000
vt 0.350000 0.850000
vt 0.362500 0.850000
vt 0.375000 0.850000
vt 0.387500 0.850000
vt 0.400000 0.850000
vt 0.300000 0.837500
vt 0.312500 0.837500
vt 0.325000 0.837500
vt 0.337500 0.837500
vt 0.350000 0.837500
vt 0.362500 0.837500
vt 0.375000 0.837500
vt 0.387500 0.837500
vt 0.400000 0.837500
vt 0.300000 0.825000
vt 0.312500 0.825000
vt 0.325000 0.825000
vt 0.337500 0.825000
vt 0.350000 0.825000
vt 0.362500 0.825000
vt 0.375000 0.825000
vt 0.387500 0.825000
vt 0.400000 0.825000
vt 0.300000 0.812500
vt 0.312500 0.812500
vt 0.325000 0.812500
vt 0.337500 0.812500
vt 0.350000 0.812500
vt 0.362500 0.812500
vt 0.375000 0.812500
vt 0.387500 0.812500
vt 0.400000 0.812500
vt 0.300000 0.800000
vt 0.312500 0.800000
vt 0.325000 0.800000
vt 0.337500 0.800000
vt 0.350000 0.800000
vt 0.362500 0.800000
vt 0.375000 0.800000
vt 0.387500 0.800000
vt 0.400000 0.800000

vn 0.00000 1.00000 0.00000
vn 0.00000 1.00000 0.00000
vn 0.00000 1.00000 0.00000
vn 0.00000 1.00000 0.00000
vn 0.00000 1.00000 0.00000
vn 0.00000 1.00000 0.00000
vn 0.00000 1.00000 0.00000
vn 0.00000 1.00000 0.00000
vn 0.00000 1.00000 0.00000
vn 0.00000 1.00000 0.00000
vn 0.00000 1.00000 0.00000
vn 0.00000 1.00000 0.00000
vn 0.00000 1.00000 0.00000
vn 0.00000 1.00000 0.00000
vn 0.00000 1.00000 0.00000
vn 0.00000 1.00000 0.00000
vn 0.00000 1.00000 0.00000
vn 0.00000 1.00000 0.00000
vn 0.00000 1.00000 0.00000
vn 0.00000 1.00000 0.00000
vn 0.00000 1.00000 0.00000
vn 0.00000 1.00000 0.00000
vn 0.00000 1.00000 0.00000
vn 0.00000 1.00000 0.00000
vn 0.00000 1.00000 0.00000
vn 0.00000 1.00000 0.00000
vn 0.00000 1.00000 0.00000
vn 0.00000 1.00000 0.00000
vn 0.00000 1.00000 0.00000
vn 0.00000 1.00000 0.00000
vn 0.00000 1.00000 0.00000
vn 0.00000 1.00000 0.00000
vn 0.00000 1.00000 0.00000
vn 0.00000 1.00000 0.00000
vn 0.00000 1.00000 0.00000
vn 0.00000 1.00000 0.00000
vn 0.00000 1.00000 0.00000
vn 0.00000 1.00000 0.00000
vn 0.00000 1.00000 0.00000
vn 0.00000 1.00000 0.00000
vn 0.00000 1.00000 0.00000
vn 0.00000 1.00000 0.00000
vn -0.00732 0.99995 -0.00732
vn 0.00000 0.99957 -0.02929
vn -0.02024 0.99857 -0.04949
vn 0.00000 1.00000 0.00000
vn 0.00000 1.00000 0.00000
vn 0.00000 1.00000 0.00000
vn 0.00000 1.00000 0.00000
vn 0.00000 1.00000 0.00000
vn -0.02024 0.99936 -0.02942
vn -0.02919 0.99631 -0.08069
vn -0.04705 0.99358 -0.10292
vn -0.08012 0.98837 -0.12924
vn 0.00000 1.00000 0.00000
vn 0.00000 1.00000 0.00000
vn 0.00000 1.00000 0.00000
vn 0.00000 1.00000 0.00000
vn -0.03076 0.99838 -0.04791
vn -0.08043 0.99305 -0.08591
vn -0.06825 0.98921 -0.12964
vn -0.04924 0.98941 -0.13656
vn -0.04926 0.99194 -0.11674
vn 0.00000 1.00000 0.00000
vn -0.00217 1.00000 -0.00217
vn 0.00000 0.99996 -0.00867
vn -0.05171 0.99735 -0.05110
vn -0.08567 0.99028 -0.10954
vn -0.09214 0.98677 -0.13338
vn -0.07990 0.98875 -0.12644
vn -0.02468 0.99191 -0.12455
vn 0.00025 0.99569 -0.09278
vn 0.00000 1.00000 0.00000
vn -0.00867 0.99996 0.00000
vn -0.02140 0.99932 -0.03006
vn -0.10105 0.99125 -0.08490
vn -0.10522 0.98727 -0.11925
vn -0.09648 0.98191 -0.16291
vn -0.07569 0.98780 -0.13612
vn -0.01490 0.98895 -0.14753
vn 0.01793 0.99133 -0.13020

f 1/1/1 2/2/2 3/3/3
f 1/1/1 3/3/3 4/4/4
f 4/4/4 3/3/3 5/5/5
f 5/5/5 3/3/3 6/6/6
f 5/5/5 6/6/6 7/7/7
f 5/5/5 7/7/7 8/8/8
f 8/8/8 7/7/7 9/9/9
f 9/9/9 7/7/7 10/10/10
f 9/9/9 10/10/10 11/11/11
f 9/9/9 11/11/11 12/12/12
f 12/12/12 11/11/11 13/13/13
f 13/13/13 11/11/11 14/14/14
f 13/13/13 14/14/14 15/15/15
f 13/13/13 15/15/15 16/16/16
f 16/16/16 15/15/15 17/17/17
f 17/17/17 15/15/15 18/18/18
f 2/2/2 19/19/19 3/3/3
f 3/3/3 19/19/19 20/20/20
f 3/3/3 20/20/20 21/21/21
f 3/3/3 21/21/21 6/6/6
f 6/6/6 21/21/21 7/7/7
f 7/7/7 21/21/21 22/22/22
f 7/7/7 22/22/22 23/23/23
f 7/7/7 23/23/23 10/10/10
f 10/10/10 23/23/23 11/11/11
f 11/11/11 23/23/23 24/24/24
f 11/11/11 24/24/24 25/25/25
f 11/11/11 25/25/25 14/14/14
f 14/14/14 25/25/25 15/15/15
f 15/15/15 25/25/25 26/26/26
f 15/15/15 26/26/26 27/27/27
f 15/15/15 27/27/27 18/18/18
f 19/19/19 28/28/28 29/29/29
f 19/19/19 29/29/29 20/20/20
f 20/20/20 29/29/29 21/21/21
f 21/21/21 29/29/29 30/30/30
f 21/21/21 30/30/30 31/31/31
f 21/21/21 31/31/31 22/22/22
f 22/22/22 31/31/31 23/23/23
f 23/23/23 31/31/31 32/32/32
f 23/23/23 32/32/32 33/33/33
f 23/23/23 33/33/33 24/24/24
f 24/24/24 33/33/33 25/25/25
f 25/25/25 33/33/33 34/34/34
f 25/25/25 34/34/34 35/35/35
f 25/25/25 35/35/35 26/26/26
f 26/26/26 35/35/35 27/27/27
f 27/27/27 35/35/35 36/36/36
f 28/28/28 37/37/37 29/29/29
f 29/29/29 37/37/37 38/38/38
f 29/29/29 38/38/38 39/39/39
f 29/29/29 39/39/39 30/30/30
f 30/30/30 39/39/39 31/31/31
f 31/31/31 39/39/39 40/40/40
f 31/31/31 40/40/40 41/41/41
f 31/31/31 41/41/41 32/32/32
f 32/32/32 41/41/41 33/33/33
f 33/33/33 41/41/41 42/42/42
f 33/33/33 42/42/42 43/43/43
f 33/33/33 43/43/43 34/34/34
f 34/34/34 43/43/43 35/35/35
f 35/35/35 43/43/43 44/44/44
f 35/35/35 44/44/44 45/45/45
f 35/35/35 45/45/45 36/36/36
f 37/37/37 46/46/46 47/47/47
f 37/37/37 47/47/47 38/38/38
f 38/38/38 47/47/47 39/39/39
f 39/39/39 47/47/47 48/48/48
f 39/39/39 48/48/48 49/49/49
f 39/39/39 49/49/49 40/40/40
f 40/40/40 49/49/49 41/41/41
f 41/41/41 49/49/49 50/50/50
f 41/41/41 50/50/50 51/51/51
f 41/41/41 51/51/51 42/42/42
f 42/42/42 51/51/51 43/43/43
f 43/43/43 51/51/51 52/52/52
f 43/43/43 52/52/52 53/53/53
f 43/43/43 53/53/53 44/44/44
f 44/44/44 53/53/53 45/45/45
f 45/45/45 53/53/53 54/54/54
f 46/46/46 55/55/55 47/47/47
f 47/47/47 55/55/55 56/56/56
f 47/47/47 56/56/56 57/57/57
f 47/47/47 57/57/57 48/48/48
f 48/48/48 57/57/57 49/49/49
f 49/49/49 57/57/57 58/58/58
f 49/49/49 58/58/58 59/59/59
f 49/49/49 59/59/59 50/50/50
f 50/50/50 59/59/59 51/51/51
f 51/51/51 59/59/59 60/60/60
f 51/51/51 60/60/60 61/61/61
f 51/51/51 61/61/61 52/52/52
f 52/52/52 61/61/61 53/53/53
f 53/53/53 61/61/61 62/62/62
f 53/53/53 62/62/62 63/63/63
f 53/53/53 63/63/63 54/54/54
f 55/55/55 64/64/64 65/65/65
f 55/55/55 65/65/65 56/56/56
f 56/56/56 65/65/65 57/57/57
f 57/57/57 65/65/65 66/66/66
f 57/57/57 66/66/66 67/67/67
f 57/57/57 67/67/67 58/58/58
f 58/58/58 67/67/67 59/59/59
f 59/59/59 67/67/67 68/68/68
f 59/59/59 68/68/68 69/69/69
f 59/59/59 69/69/69 60/60/60
f 60/60/60 69/69/69 61/61/61
f 61/61/61 69/69/69 70/70/70
f 61/61/61 70/70/70 71/71/71
f 61/61/61 71/71/71 62/62/62
f 62/62/62 71/71/71 63/63/63
f 63/63/63 71/71/71 72/72/72
f 64/64/64 73/73/73 65/65/65
f 65/65/65 73/73/73 74/74/74
f 65/65/65 74/74/74 75/75/75
f 65/65/65 75/75/75 66/66/66
f 66/66/66 75/75/75 67/67/67
f 67/67/67 75/75/75 76/76/76
f 67/67/67 76/76/76 77/77/77
f 67/67/67 77/77/77 68/68/68
f 68/68/68 77/77/77 69/69/69
f 69/69/69 77/77/77 78/78/78
f 69/69/69 78/78/78 79/79/79
f 69/69/69 79/79/79 70/70/70
f 70/70/70 79/79/79 71/71/71
f 71/71/71 79/79/79 80/80/80
f 71/71/71 80/80/80 81/81/81
f 71/71/71 81/81/81 72/72/72
