# Generated by tools/generate_island.py. Do not edit by hand.
o terrain_lod2_0_1

v 0.000 8.324 128.000 0.347 0.358 0.269
v 0.000 4.633 144.000 0.225 0.304 0.112
v 16.000 6.163 144.000 0.264 0.334 0.125
v 16.000 8.531 128.000 0.370 0.375 0.283
v 32.000 10.460 128.000 0.371 0.377 0.284
v 32.000 6.556 144.000 0.232 0.309 0.114
v 48.000 4.557 144.000 0.155 0.298 0.154
v 48.000 8.585 128.000 0.374 0.379 0.286
v 64.000 6.644 128.000 0.277 0.344 0.129
v 64.000 4.409 144.000 0.169 0.316 0.162
v 80.000 4.551 144.000 0.188 0.341 0.173
v 80.000 6.255 128.000 0.282 0.348 0.131
v 96.000 6.106 128.000 0.290 0.354 0.133
v 96.000 4.339 144.000 0.193 0.348 0.176
v 112.000 4.270 144.000 0.190 0.343 0.174
v 112.000 4.251 128.000 0.191 0.345 0.175
v 128.000 4.050 128.000 0.185 0.337 0.171
v 128.000 4.115 144.000 0.189 0.342 0.174
v 0.000 4.100 160.000 0.218 0.298 0.109
v 16.000 4.076 160.000 0.253 0.326 0.121
v 32.000 4.054 160.000 0.237 0.313 0.116
v 48.000 3.765 160.000 0.158 0.302 0.156
v 64.000 4.122 160.000 0.163 0.308 0.159
v 80.000 3.922 160.000 0.191 0.344 0.175
v 96.000 3.875 160.000 0.184 0.337 0.171
v 112.000 2.150 160.000 0.187 0.339 0.173
v 128.000 2.097 160.000 0.187 0.340 0.173
v 0.000 1.264 176.000 0.456 0.424 0.247
v 16.000 2.535 176.000 0.216 0.297 0.109
v 32.000 2.454 176.000 0.206 0.289 0.105
v 48.000 2.461 176.000 0.152 0.294 0.153
v 64.000 2.527 176.000 0.161 0.306 0.158
v 80.000 1.893 176.000 0.173 0.321 0.165
v 96.000 2.633 176.000 0.194 0.349 0.177
v 112.000 2.565 176.000 0.195 0.349 0.177
v 128.000 1.607 176.000 0.563 0.535 0.317
v 0.000 0.220 192.000 0.371 0.337 0.191
v 16.000 0.832 192.000 0.438 0.406 0.235
v 32.000 1.003 192.000 0.472 0.441 0.257
v 48.000 1.719 192.000 0.135 0.273 0.143
v 64.000 1.400 192.000 0.461 0.429 0.250
v 80.000 0.885 192.000 0.530 0.500 0.295
v 96.000 2.563 192.000 0.196 0.352 0.178
v 112.000 1.209 192.000 0.546 0.517 0.306
v 128.000 1.707 192.000 0.184 0.336 0.171
v 0.000 -0.448 208.000 0.361 0.326 0.184
v 16.000 0.280 208.000 0.421 0.388 0.223
v 32.000 0.118 208.000 0.462 0.430 0.250
v 48.000 0.680 208.000 0.449 0.416 0.242
v 64.000 0.119 208.000 0.481 0.450 0.263
v 80.000 0.906 208.000 0.477 0.446 0.260
v 96.000 1.699 208.000 0.169 0.316 0.162
v 112.000 1.019 208.000 0.519 0.489 0.288
v 128.000 0.580 208.000 0.526 0.496 0.292
v 0.000 0.028 224.000 0.361 0.326 0.184
v 16.000 -0.211 224.000 0.380 0.346 0.196
v 32.000 0.264 224.000 0.408 0.375 0.215
v 48.000 0.018 224.000 0.434 0.402 0.232
v 64.000 0.114 224.000 0.497 0.466 0.273
v 80.000 0.694 224.000 0.476 0.445 0.260
v 96.000 1.024 224.000 0.451 0.419 0.243
v 112.000 0.034 224.000 0.509 0.479 0.281
v 128.000 0.993 224.000 0.541 0.511 0.302
v 0.000 -0.534 240.000 0.416 0.383 0.220
v 16.000 0.652 240.000 0.479 0.448 0.262
v 32.000 2.052 240.000 0.198 0.283 0.103
v 48.000 1.193 240.000 0.466 0.435 0.253
v 64.000 0.729 240.000 0.439 0.407 0.235
v 80.000 0.338 240.000 0.452 0.420 0.244
v 96.000 0.320 240.000 0.470 0.438 0.256
v 112.000 1.222 240.000 0.490 0.459 0.269
v 128.000 0.782 240.000 0.528 0.498 0.294
v 0.000 0.735 256.000 0.467 0.436 0.254
v 16.000 1.728 256.000 0.264 0.334 0.125
v 32.000 1.995 256.000 0.243 0.318 0.118
v 48.000 1.993 256.000 0.160 0.305 0.157
v 64.000 1.801 256.000 0.172 0.320 0.164
v 80.000 1.640 256.000 0.150 0.292 0.151
v 96.000 0.800 256.000 0.468 0.436 0.254
v 112.000 1.258 256.000 0.494 0.463 0.271
v 128.000 0.396 256.000 0.508 0.478 0.281

vt 0.500000 0.433333
vt 0.500000 0.425000
vt 0.508333 0.425000
vt 0.508333 0.433333
vt 0.516667 0.433333
vt 0.516667 0.425000
vt 0.525000 0.425000
vt 0.525000 0.433333
vt 0.533333 0.433333
vt 0.533333 0.425000
vt 0.541667 0.425000
vt 0.541667 0.433333
vt 0.550000 0.433333
vt 0.550000 0.425000
vt 0.558333 0.425000
vt 0.558333 0.433333
vt 0.566667 0.433333
vt 0.566667 0.425000
vt 0.500000 0.416667
vt 0.508333 0.416667
vt 0.516667 0.416667
vt 0.525000 0.416667
vt 0.533333 0.416667
vt 0.541667 0.416667
vt 0.550000 0.416667
vt 0.558333 0.416667
vt 0.566667 0.416667
vt 0.500000 0.408333
vt 0.508333 0.408333
vt 0.516667 0.408333
vt 0.525000 0.408333
vt 0.533333 0.408333
vt 0.541667 0.408333
vt 0.550000 0.408333
vt 0.558333 0.408333
vt 0.566667 0.408333
vt 0.500000 0.400000
vt 0.508333 0.400000
vt 0.516667 0.400000
vt 0.525000 0.400000
vt 0.533333 0.400000
vt 0.541667 0.400000
vt 0.550000 0.400000
vt 0.558333 0.400000
vt 0.566667 0.400000
vt 0.500000 0.391667
vt 0.508333 0.391667
vt 0.516667 0.391667
vt 0.525000 0.391667
vt 0.533333 0.391667
vt 0.541667 0.391667
vt 0.550000 0.391667
vt 0.558333 0.391667
vt 0.566667 0.391667
vt 0.500000 0.383333
vt 0.508333 0.383333
vt 0.516667 0.383333
vt 0.525000 0.383333
vt 0.533333 0.383333
vt 0.541667 0.383333
vt 0.550000 0.383333
vt 0.558333 0.383333
vt 0.566667 0.383333
vt 0.500000 0.375000
vt 0.508333 0.375000
vt 0.516667 0.375000
vt 0.525000 0.375000
vt 0.533333 0.375000
vt 0.541667 0.375000
vt 0.550000 0.375000
vt 0.558333 0.375000
vt 0.566667 0.375000
vt 0.500000 0.366667
vt 0.508333 0.366667
vt 0.516667 0.366667
vt 0.525000 0.366667
vt 0.533333 0.366667
vt 0.541667 0.366667
vt 0.550000 0.366667
vt 0.558333 0.366667
vt 0.566667 0.366667

vn -0.05326 0.98114 0.18579
vn -0.09441 0.98697 0.13029
vn -0.04580 0.98751 0.15076
vn -0.06588 0.98708 0.14608
vn 0.02366 0.97597 0.21661
vn 0.04914 0.97936 0.19607
vn 0.06205 0.98773 0.14329
vn 0.11488 0.96332 0.24253
vn 0.03604 0.98689 0.15730
vn 0.00020 0.99691 0.07857
vn 0.00721 0.99728 0.07338
vn 0.01671 0.99424 0.10588
vn 0.03556 0.99606 0.08121
vn 0.00874 0.99754 0.06954
vn 0.03336 0.99731 0.06533
vn 0.06413 0.99794 -0.00123
vn 0.01113 0.99993 -0.00267
vn 0.00967 0.99810 0.06090
vn -0.04273 0.99317 0.10858
vn 0.00144 0.99363 0.11266
vn 0.01787 0.99397 0.10815
vn -0.00213 0.99786 0.06538
vn 0.00203 0.99779 0.06642
vn 0.00768 0.99654 0.08278
vn 0.02458 0.99786 0.06062
vn 0.05540 0.99705 0.05315
vn 0.01900 0.99766 0.06570
vn -0.07862 0.98966 0.12001
vn -0.02423 0.99426 0.10422
vn 0.00231 0.99548 0.09489
vn -0.00474 0.99703 0.07684
vn 0.01768 0.99625 0.08475
vn -0.00880 0.99686 0.07872
vn -0.02098 0.99894 0.04096
vn 0.03658 0.99894 0.02796
vn 0.05976 0.99814 0.01216
vn -0.05022 0.99683 0.06178
vn -0.02442 0.99723 0.07028
vn -0.01636 0.99756 0.06787
vn -0.01236 0.99838 0.05556
vn 0.01566 0.99813 0.05912
vn -0.03632 0.99887 0.03080
vn -0.01119 0.99935 0.03435
vn 0.02671 0.99848 0.04822
vn 0.00628 0.99917 0.04016
vn -0.04543 0.99895 0.00598
vn -0.01680 0.99958 0.02357
vn -0.01250 0.99966 0.02310
vn -0.00195 0.99910 0.04235
vn -0.00706 0.99917 0.04014
vn -0.04084 0.99885 0.02503
vn -0.00354 0.99884 0.04804
vn 0.02440 0.99906 0.03593
vn 0.02746 0.99937 0.02231
vn -0.02240 0.99974 -0.00447
vn -0.00737 0.99991 -0.01162
vn -0.01094 0.99925 -0.03711
vn 0.00468 0.99986 -0.01604
vn -0.00564 0.99994 -0.00910
vn -0.02842 0.99944 0.01774
vn 0.00252 0.99970 0.02440
vn 0.00098 0.99998 -0.00632
vn -0.01621 0.99985 -0.00632
vn -0.07385 0.99703 -0.02202
vn -0.05195 0.99744 -0.04922
vn -0.01689 0.99840 -0.05402
vn 0.02331 0.99808 -0.05744
vn 0.02667 0.99826 -0.05262
vn 0.00710 0.99963 -0.02620
vn -0.02760 0.99959 0.00699
vn -0.00381 0.99991 -0.01271
vn 0.02747 0.99945 0.01865
vn -0.06774 0.99504 -0.07292
vn -0.03927 0.99697 -0.06708
vn -0.01259 0.99954 -0.02753
vn 0.00607 0.99874 -0.04991
vn 0.01883 0.99763 -0.06616
vn 0.03115 0.99622 -0.08105
vn -0.00784 0.99933 -0.03588
vn 0.01264 0.99992 -0.00229
vn 0.04066 0.99911 0.01092

f 1/1/1 2/2/2 3/3/3
f 1/1/1 3/3/3 4/4/4
f 4/4/4 3/3/3 5/5/5
f 5/5/5 3/3/3 6/6/6
f 5/5/5 6/6/6 7/7/7
f 5/5/5 7/7/7 8/8/8
f 8/8/8 7/7/7 9/9/9
f 9/9/9 7/7/7 10/10/10
f 9/9/9 10/10/10 11/11/11
f 9/9/9 11/11/11 12/12/12
f 12/12/12 11/11/11 13/13/13
f 13/13/13 11/11/11 14/14/14
f 13/13/13 14/14/14 15/15/15
f 13/13/13 15/15/15 16/16/16
f 16/16/16 15/15/15 17/17/17
f 17/17/17 15/15/15 18/18/18
f 2/2/2 19/19/19 3/3/3
f 3/3/3 19/19/19 20/20/20
f 3/3/3 20/20/20 21/21/21
f 3/3/3 21/21/21 6/6/6
f 6/6/6 21/21/21 7/7/7
f 7/7/7 21/21/21 22/22/22
f 7/7/7 22/22/22 23/23/23
f 7/7/7 23/23/23 10/10/10
f 10/10/10 23/23/23 11/11/11
f 11/11/11 23/23/23 24/24/24
f 11/11/11 24/24/24 25/25/25
f 11/11/11 25/25/25 14/14/14
f 14/14/14 25/25/25 15/15/15
f 15/15/15 25/25/25 26/26/26
f 15/15/15 26/26/26 27/27/27
f 15/15/15 27/27/27 18/18/18
f 19/19/19 28/28/28 29/29/29
f 19/19/19 29/29/29 20/20/20
f 20/20/20 29/29/29 21/21/21
f 21/21/21 29/29/29 30/30/30
f 21/21/21 30/30/30 31/31/31
f 21/21/21 31/31/31 22/22/22
f 22/22/22 31/31/31 23/23/23
f 23/23/23 31/31/31 32/32/32
f 23/23/23 32/32/32 33/33/33
f 23/23/23 33/33/33 24/24/24
f 24/24/24 33/33/33 25/25/25
f 25/25/25 33/33/33 34/34/34
f 25/25/25 34/34/34 35/35/35
f 25/25/25 35/35/35 26/26/26
f 26/26/26 35/35/35 27/27/27
f 27/27/27 35/35/35 36/36/36
f 28/28/28 37/37/37 29/29/29
f 29/29/29 37/37/37 38/38/38
f 29/29/29 38/38/38 39/39/39
f 29/29/29 39/39/39 30/30/30
f 30/30/30 39/39/39 31/31/31
f 31/31/31 39/39/39 40/40/40
f 31/31/31 40/40/40 41/41/41
f 31/31/31 41/41/41 32/32/32
f 32/32/32 41/41/41 33/33/33
f 33/33/33 41/41/41 42/42/42
f 33/33/33 42/42/42 43/43/43
f 33/33/33 43/43/43 34/34/34
f 34/34/34 43/43/43 35/35/35
f 35/35/35 43/43/43 44/44/44
f 35/35/35 44/44/44 45/45/45
f 35/35/35 45/45/45 36/36/36
f 37/37/37 46/46/46 47/47/47
f 37/37/37 47/47/47 38/38/38
f 38/38/38 47/47/47 39/39/39
f 39/39/39 47/47/47 48/48/48
f 39/39/39 48/48/48 49/49/49
f 39/39/39 49/49/49 40/40/40
f 40/40/40 49/49/49 41/41/41
f 41/41/41 49/49/49 50/50/50
f 41/41/41 50/50/50 51/51/51
f 41/41/41 51/51/51 42/42/42
f 42/42/42 51/51/51 43/43/43
f 43/43/43 51/51/51 52/52/52
f 43/43/43 52/52/52 53/53/53
f 43/43/43 53/53/53 44/44/44
f 44/44/44 53/53/53 45/45/45
f 45/45/45 53/53/53 54/54/54
f 46/46/46 55/55/55 47/47/47
f 47/47/47 55/55/55 56/56/56
f 47/47/47 56/56/56 57/57/57
f 47/47/47 57/57/57 48/48/48
f 48/48/48 57/57/57 49/49/49
f 49/49/49 57/57/57 58/58/58
f 49/49/49 58/58/58 59/59/59
f 49/49/49 59/59/59 50/50/50
f 50/50/50 59/59/59 51/51/51
f 51/51/51 59/59/59 60/60/60
f 51/51/51 60/60/60 61/61/61
f 51/51/51 61/61/61 52/52/52
f 52/52/52 61/61/61 53/53/53
f 53/53/53 61/61/61 62/62/62
f 53/53/53 62/62/62 63/63/63
f 53/53/53 63/63/63 54/54/54
f 55/55/55 64/64/64 65/65/65
f 55/55/55 65/65/65 56/56/56
f 56/56/56 65/65/65 57/57/57
f 57/57/57 65/65/65 66/66/66
f 57/57/57 66/66/66 67/67/67
f 57/57/57 67/67/67 58/58/58
f 58/58/58 67/67/67 59/59/59
f 59/59/59 67/67/67 68/68/68
f 59/59/59 68/68/68 69/69/69
f 59/59/59 69/69/69 60/60/60
f 60/60/60 69/69/69 61/61/61
f 61/61/61 69/69/69 70/70/70
f 61/61/61 70/70/70 71/71/71
f 61/61/61 71/71/71 62/62/62
f 62/62/62 71/71/71 63/63/63
f 63/63/63 71/71/71 72/72/72
f 64/64/64 73/73/73 65/65/65
f 65/65/65 73/73/73 74/74/74
f 65/65/65 74/74/74 75/75/75
f 65/65/65 75/75/75 66/66/66
f 66/66/66 75/75/75 67/67/67
f 67/67/67 75/75/75 76/76/76
f 67/67/67 76/76/76 77/77/77
f 67/67/67 77/77/77 68/68/68
f 68/68/68 77/77/77 69/69/69
f 69/69/69 77/77/77 78/78/78
f 69/69/69 78/78/78 79/79/79
f 69/69/69 79/79/79 70/70/70
f 70/70/70 79/79/79 71/71/71
f 71/71/71 79/79/79 80/80/80
f 71/71/71 80/80/80 81/81/81
f 71/71/71 81/81/81 72/72/72
