# Generated by tools/generate_island.py. Do not edit by hand.
o terrain_lod2_2_-8

v 256.000 -10.800 -960.000 0.448 0.416 0.241
v 256.000 -10.800 -944.000 0.579 0.550 0.327
v 272.000 -10.800 -944.000 0.563 0.534 0.317
v 272.000 -10.800 -960.000 0.497 0.467 0.274
v 288.000 -10.800 -960.000 0.557 0.528 0.313
v 288.000 -10.800 -944.000 0.554 0.525 0.311
v 304.000 -10.800 -944.000 0.549 0.520 0.308
v 304.000 -10.800 -960.000 0.585 0.557 0.331
v 320.000 -10.800 -960.000 0.569 0.540 0.320
v 320.000 -10.800 -944.000 0.528 0.499 0.294
v 336.000 -10.800 -944.000 0.566 0.537 0.319
v 336.000 -10.800 -960.000 0.549 0.520 0.308
v 352.000 -10.800 -960.000 0.527 0.497 0.293
v 352.000 -10.800 -944.000 0.502 0.471 0.277
v 368.000 -10.800 -944.000 0.470 0.439 0.256
v 368.000 -10.800 -960.000 0.495 0.464 0.272
v 384.000 -10.800 -960.000 0.511 0.481 0.283
v 384.000 -10.800 -944.000 0.437 0.405 0.234
v 256.000 -10.800 -928.000 0.558 0.529 0.314
v 272.000 -10.800 -928.000 0.533 0.503 0.297
v 288.000 -10.800 -928.000 0.544 0.515 0.305
v 304.000 -10.800 -928.000 0.523 0.493 0.290
v 320.000 -10.800 -928.000 0.534 0.504 0.298
v 336.000 -10.800 -928.000 0.534 0.505 0.298
v 352.000 -10.800 -928.000 0.500 0.469 0.275
v 368.000 -10.800 -928.000 0.504 0.474 0.278
v 384.000 -10.800 -928.000 0.456 0.424 0.247
v 256.000 -10.800 -912.000 0.481 0.450 0.263
v 272.000 -10.800 -912.000 0.516 0.486 0.286
v 288.000 -10.800 -912.000 0.525 0.495 0.292
v 304.000 -10.800 -912.000 0.546 0.517 0.306
v 320.000 -10.800 -912.000 0.565 0.536 0.318
v 336.000 -10.800 -912.000 0.564 0.535 0.317
v 352.000 -10.800 -912.000 0.549 0.520 0.308
v 368.000 -10.800 -912.000 0.541 0.512 0.303
v 384.000 -10.800 -912.000 0.507 0.476 0.280
v 256.000 -10.800 -896.000 0.466 0.434 0.253
v 272.000 -10.800 -896.000 0.449 0.417 0.242
v 288.000 -10.800 -896.000 0.488 0.457 0.268
v 304.000 -10.800 -896.000 0.515 0.485 0.285
v 320.000 -10.800 -896.000 0.538 0.508 0.300
v 336.000 -10.800 -896.000 0.558 0.530 0.314
v 352.000 -10.800 -896.000 0.543 0.513 0.303
v 368.000 -10.800 -896.000 0.556 0.527 0.312
v 384.000 -10.800 -896.000 0.529 0.499 0.294

vt 0.633333 1.000000
vt 0.633333 0.991667
vt 0.641667 0.991667
vt 0.641667 1.000000
vt 0.650000 1.000000
vt 0.650000 0.991667
vt 0.658333 0.991667
vt 0.658333 1.000000
vt 0.666667 1.000000
vt 0.666667 0.991667
vt 0.675000 0.991667
vt 0.675000 1.000000
vt 0.683333 1.000000
vt 0.683333 0.991667
vt 0.691667 0.991667
vt 0.691667 1.000000
vt 0.700000 1.000000
vt 0.700000 0.991667
vt 0.633333 0.983333
vt 0.641667 0.983333
vt 0.650000 0.983333
vt 0.658333 0.983333
vt 0.666667 0.983333
vt 0.675000 0.983333
vt 0.683333 0.983333
vt 0.691667 0.983333
vt 0.700000 0.983333
vt 0.633333 0.975000
vt 0.641667 0.975000
vt 0.650000 0.975000
vt 0.658333 0.975000
vt 0.666667 0.975000
vt 0.675000 0.975000
vt 0.683333 0.975000
vt 0.691667 0.975000
vt 0.700000 0.975000
vt 0.633333 0.966667
vt 0.641667 0.966667
vt 0.650000 0.966667
vt 0.658333 0.966667
vt 0.666667 0.966667
vt 0.675000 0.966667
vt 0.683333 0.966667
vt 0.691667 0.966667
vt 0.700000 0.966667

vn 0.00000 1.00000 0.00000
vn 0.00000 1.00000 0.00000
vn 0.00000 1.00000 0.00000
vn 0.00000 1.00000 0.00000
vn 0.00000 1.00000 0.00000
vn 0.00000 1.00000 0.00000
vn 0.00000 1.00000 0.00000
vn 0.00000 1.00000 0.00000
vn 0.00000 1.00000 0.00000
vn 0.00000 1.00000 0.00000
vn 0.00000 1.00000 0.00000
vn 0.00000 1.00000 0.00000
vn 0.00000 1.00000 0.00000
vn 0.00000 1.00000 0.00000
vn 0.00000 1.00000 0.00000
vn 0.00000 1.00000 0.00000
vn 0.00000 1.00000 0.00000
vn 0.00000 1.00000 0.00000
vn 0.00000 1.00000 0.00000
vn 0.00000 1.00000 0.00000
vn 0.00000 1.00000 0.00000
vn 0.00000 1.00000 0.00000
vn 0.00000 1.00000 0.00000
vn 0.00000 1.00000 0.00000
vn 0.00000 1.00000 0.00000
vn 0.00000 1.00000 0.00000
vn 0.00000 1.00000 0.00000
vn 0.00000 1.00000 0.00000
vn 0.00000 1.00000 0.00000
vn 0.00000 1.00000 0.00000
vn 0.00000 1.00000 0.00000
vn 0.00000 1.00000 0.00000
vn 0.00000 1.00000 0.00000
vn 0.00000 1.00000 0.00000
vn 0.00000 1.00000 0.00000
vn 0.00000 1.00000 0.00000
vn 0.00000 1.00000 0.00000
vn 0.00000 1.00000 0.00000
vn 0.00000 1.00000 0.00000
vn 0.00000 1.00000 0.00000
vn 0.00000 1.00000 0.00000
vn 0.00000 1.00000 0.00000
vn 0.00000 1.00000 0.00000
vn 0.00000 1.00000 0.00000
vn 0.00000 1.00000 0.00000

f 1/1/1 2/2/2 3/3/3
f 1/1/1 3/3/3 4/4/4
f 4/4/4 3/3/3 5/5/5
f 5/5/5 3/3/3 6/6/6
f 5/5/5 6/6/6 7/7/7
f 5/5/5 7/7/7 8/8/8
f 8/8/8 7/7/7 9/9/9
f 9/9/9 7/7/7 10/10/10
f 9/9/9 10/10/10 11/11/11
f 9/9/9 11/11/11 12/12/12
f 12/12/12 11/11/11 13/13/13
f 13/13/13 11/11/11 14/14/14
f 13/13/13 14/14/14 15/15/15
f 13/13/13 15/15/15 16/16/16
f 16/16/16 15/15/15 17/17/17
f 17/17/17 15/15/15 18/18/18
f 2/2/2 19/19/19 3/3/3
f 3/3/3 19/19/19 20/20/20
f 3/3/3 20/20/20 21/21/21
f 3/3/3 21/21/21 6/6/6
f 6/6/6 21/21/21 7/7/7
f 7/7/7 21/21/21 22/22/22
f 7/7/7 22/22/22 23/23/23
f 7/7/7 23/23/23 10/10/10
f 10/10/10 23/23/23 11/11/11
f 11/11/11 23/23/23 24/24/24
f 11/11/11 24/24/24 25/25/25
f 11/11/11 25/25/25 14/14/14
f 14/14/14 25/25/25 15/15/15
f 15/15/15 25/25/25 26/26/26
f 15/15/15 26/26/26 27/27/27
f 15/15/15 27/27/27 18/18/18
f 19/19/19 28/28/28 29/29/29
f 19/19/19 29/29/29 20/20/20
f 20/20/20 29/29/29 21/21/21
f 21/21/21 29/29/29 30/30/30
f 21/21/21 30/30/30 31/31/31
f 21/21/21 31/31/31 22/22/22
f 22/22/22 31/31/31 23/23/23
f 23/23/23 31/31/31 32/32/32
f 23/23/23 32/32/32 33/33/33
f 23/23/23 33/33/33 24/24/24
f 24/24/24 33/33/33 25/25/25
f 25/25/25 33/33/33 34/34/34
f 25/25/25 34/34/34 35/35/35
f 25/25/25 35/35/35 26/26/26
f 26/26/26 35/35/35 27/27/27
f 27/27/27 35/35/35 36/36/36
f 28/28/28 37/37/37 29/29/29
f 29/29/29 37/37/37 38/38/38
f 29/29/29 38/38/38 39/39/39
f 29/29/29 39/39/39 30/30/30
f 30/30/30 39/39/39 31/31/31
f 31/31/31 39/39/39 40/40/40
f 31/31/31 40/40/40 41/41/41
f 31/31/31 41/41/41 32/32/32
f 32/32/32 41/41/41 33/33/33
f 33/33/33 41/41/41 42/42/42
f 33/33/33 42/42/42 43/43/43
f 33/33/33 43/43/43 34/34/34
f 34/34/34 43/43/43 35/35/35
f 35/35/35 43/43/43 44/44/44
f 35/35/35 44/44/44 45/45/45
f 35/35/35 45/45/45 36/36/36
