# Generated by tools/generate_island.py. Do not edit by hand.
o terrain_lod2_-3_-2

v -384.000 -0.094 -256.000 0.484 0.453 0.265
v -384.000 -0.157 -240.000 0.465 0.433 0.252
v -368.000 -0.102 -240.000 0.535 0.505 0.298
v -368.000 0.096 -256.000 0.501 0.470 0.276
v -352.000 0.828 -256.000 0.506 0.476 0.280
v -352.000 1.594 -240.000 0.561 0.532 0.315
v -336.000 1.316 -240.000 0.570 0.542 0.322
v -336.000 1.011 -256.000 0.529 0.499 0.294
v -320.000 1.137 -256.000 0.494 0.463 0.271
v -320.000 1.335 -240.000 0.501 0.471 0.276
v -304.000 1.368 -240.000 0.451 0.419 0.243
v -304.000 1.024 -256.000 0.499 0.468 0.275
v -288.000 2.184 -256.000 0.253 0.326 0.121
v -288.000 1.963 -240.000 0.207 0.290 0.106
v -272.000 0.755 -240.000 0.420 0.387 0.223
v -272.000 1.261 -256.000 0.477 0.446 0.260
v -256.000 -0.214 -256.000 0.385 0.351 0.200
v -256.000 0.130 -240.000 0.413 0.379 0.218
v -384.000 -1.086 -224.000 0.463 0.431 0.251
v -368.000 -0.513 -224.000 0.523 0.493 0.291
v -352.000 1.372 -224.000 0.560 0.531 0.315
v -336.000 2.354 -224.000 0.268 0.337 0.126
v -320.000 2.159 -224.000 0.248 0.322 0.119
v -304.000 2.198 -224.000 0.206 0.289 0.105
v -288.000 1.463 -224.000 0.420 0.387 0.223
v -272.000 0.347 -224.000 0.422 0.389 0.224
v -256.000 1.411 -224.000 0.441 0.408 0.236
v -384.000 -1.011 -208.000 0.478 0.446 0.261
v -368.000 -0.211 -208.000 0.509 0.479 0.281
v -352.000 0.596 -208.000 0.550 0.521 0.308
v -336.000 0.757 -208.000 0.533 0.504 0.297
v -320.000 1.662 -208.000 0.260 0.331 0.123
v -304.000 2.528 -208.000 0.225 0.304 0.112
v -288.000 1.396 -208.000 0.406 0.373 0.214
v -272.000 1.526 -208.000 0.440 0.408 0.236
v -256.000 2.207 -208.000 0.257 0.329 0.122
v -384.000 -0.944 -192.000 0.549 0.520 0.307
v -368.000 0.042 -192.000 0.519 0.489 0.288
v -352.000 0.359 -192.000 0.513 0.483 0.284
v -336.000 1.278 -192.000 0.502 0.472 0.277
v -320.000 2.012 -192.000 0.206 0.289 0.105
v -304.000 1.364 -192.000 0.444 0.412 0.239
v -288.000 1.480 -192.000 0.400 0.367 0.210
v -272.000 1.012 -192.000 0.438 0.406 0.235
v -256.000 1.426 -192.000 0.512 0.482 0.283
v -384.000 -0.302 -176.000 0.570 0.541 0.321
v -368.000 0.563 -176.000 0.561 0.533 0.316
v -352.000 0.778 -176.000 0.538 0.509 0.300
v -336.000 1.240 -176.000 0.523 0.493 0.291
v -320.000 1.321 -176.000 0.494 0.463 0.271
v -304.000 0.960 -176.000 0.454 0.422 0.245
v -288.000 1.551 -176.000 0.392 0.358 0.204
v -272.000 0.569 -176.000 0.406 0.373 0.214
v -256.000 0.782 -176.000 0.489 0.458 0.268
v -384.000 0.491 -160.000 0.556 0.527 0.312
v -368.000 0.434 -160.000 0.585 0.557 0.331
v -352.000 1.309 -160.000 0.574 0.546 0.324
v -336.000 2.170 -160.000 0.251 0.324 0.120
v -320.000 1.015 -160.000 0.500 0.470 0.276
v -304.000 1.333 -160.000 0.483 0.452 0.264
v -288.000 1.537 -160.000 0.455 0.423 0.246
v -272.000 0.409 -160.000 0.454 0.422 0.245
v -256.000 1.137 -160.000 0.440 0.407 0.236
v -384.000 1.371 -144.000 0.531 0.502 0.296
v -368.000 1.629 -144.000 0.535 0.506 0.298
v -352.000 1.641 -144.000 0.292 0.356 0.134
v -336.000 2.024 -144.000 0.233 0.310 0.114
v -320.000 0.817 -144.000 0.498 0.467 0.274
v -304.000 1.603 -144.000 0.473 0.441 0.257
v -288.000 1.005 -144.000 0.412 0.379 0.217
v -272.000 -0.464 -144.000 0.444 0.412 0.239
v -256.000 0.252 -144.000 0.469 0.437 0.255
v -384.000 0.378 -128.000 0.498 0.467 0.274
v -368.000 1.452 -128.000 0.542 0.513 0.303
v -352.000 2.606 -128.000 0.274 0.342 0.128
v -336.000 1.788 -128.000 0.264 0.335 0.125
v -320.000 1.845 -128.000 0.239 0.315 0.116
v -304.000 1.548 -128.000 0.490 0.459 0.269
v -288.000 0.175 -128.000 0.413 0.380 0.218
v -272.000 -0.392 -128.000 0.422 0.389 0.224
v -256.000 0.644 -128.000 0.486 0.455 0.266

vt 0.300000 0.633333
vt 0.300000 0.625000
vt 0.308333 0.625000
vt 0.308333 0.633333
vt 0.316667 0.633333
vt 0.316667 0.625000
vt 0.325000 0.625000
vt 0.325000 0.633333
vt 0.333333 0.633333
vt 0.333333 0.625000
vt 0.341667 0.625000
vt 0.341667 0.633333
vt 0.350000 0.633333
vt 0.350000 0.625000
vt 0.358333 0.625000
vt 0.358333 0.633333
vt 0.366667 0.633333
vt 0.366667 0.625000
vt 0.300000 0.616667
vt 0.308333 0.616667
vt 0.316667 0.616667
vt 0.325000 0.616667
vt 0.333333 0.616667
vt 0.341667 0.616667
vt 0.350000 0.616667
vt 0.358333 0.616667
vt 0.366667 0.616667
vt 0.300000 0.608333
vt 0.308333 0.608333
vt 0.316667 0.608333
vt 0.325000 0.608333
vt 0.333333 0.608333
vt 0.341667 0.608333
vt 0.350000 0.608333
vt 0.358333 0.608333
vt 0.366667 0.608333
vt 0.300000 0.600000
vt 0.308333 0.600000
vt 0.316667 0.600000
vt 0.325000 0.600000
vt 0.333333 0.600000
vt 0.341667 0.600000
vt 0.350000 0.600000
vt 0.358333 0.600000
vt 0.366667 0.600000
vt 0.300000 0.591667
vt 0.308333 0.591667
vt 0.316667 0.591667
vt 0.325000 0.591667
vt 0.333333 0.591667
vt 0.341667 0.591667
vt 0.350000 0.591667
vt 0.358333 0.591667
vt 0.366667 0.591667
vt 0.300000 0.583333
vt 0.308333 0.583333
vt 0.316667 0.583333
vt 0.325000 0.583333
vt 0.333333 0.583333
vt 0.341667 0.583333
vt 0.350000 0.583333
vt 0.358333 0.583333
vt 0.366667 0.583333
vt 0.300000 0.575000
vt 0.308333 0.575000
vt 0.316667 0.575000
vt 0.325000 0.575000
vt 0.333333 0.575000
vt 0.341667 0.575000
vt 0.350000 0.575000
vt 0.358333 0.575000
vt 0.366667 0.575000
vt 0.300000 0.566667
vt 0.308333 0.566667
vt 0.316667 0.566667
vt 0.325000 0.566667
vt 0.333333 0.566667
vt 0.341667 0.566667
vt 0.350000 0.566667
vt 0.358333 0.566667
vt 0.366667 0.566667

vn -0.00769 0.99994 0.00818
vn -0.00349 0.99951 0.03099
vn -0.05369 0.99847 0.01300
vn -0.02878 0.99951 0.01237
vn -0.03640 0.99901 -0.02560
vn -0.04426 0.99888 -0.01699
vn -0.00451 0.99944 -0.03321
vn -0.00965 0.99977 -0.01911
vn -0.00101 0.99987 -0.01634
vn -0.00160 0.99949 -0.03194
vn -0.01255 0.99971 -0.02070
vn -0.03270 0.99923 -0.02147
vn 0.00587 0.99994 0.00943
vn 0.01913 0.99956 0.02253
vn 0.04772 0.99883 0.00720
vn 0.07470 0.99671 0.03148
vn 0.06548 0.99784 0.00501
vn 0.03899 0.99795 -0.05068
vn -0.03126 0.99940 0.01504
vn -0.07659 0.99706 0.00341
vn -0.06329 0.99778 0.02077
vn -0.02459 0.99954 0.01749
vn -0.01181 0.99988 -0.00980
vn 0.02175 0.99911 -0.03623
vn 0.04150 0.99912 -0.00623
vn 0.00162 0.99971 -0.02408
vn -0.03405 0.99843 -0.04443
vn -0.04995 0.99874 -0.00443
vn -0.05442 0.99852 -0.00186
vn -0.03021 0.99904 0.03163
vn -0.03567 0.99903 0.02585
vn -0.05528 0.99846 0.00459
vn 0.01374 0.99981 0.01404
vn 0.03130 0.99951 -0.00056
vn -0.01184 0.99987 -0.01064
vn -0.04252 0.99910 -0.00047
vn -0.05672 0.99812 -0.02314
vn -0.04067 0.99888 -0.02418
vn -0.03215 0.99940 -0.01265
vn -0.05158 0.99855 -0.01510
vn -0.01299 0.99982 0.01379
vn 0.01659 0.99866 0.04895
vn 0.01637 0.99972 0.01730
vn 0.00171 0.99955 0.02990
vn -0.02686 0.99895 0.03718
vn -0.05395 0.99754 -0.04472
vn -0.03341 0.99914 -0.02473
vn -0.02114 0.99934 -0.02966
vn -0.01911 0.99973 -0.01356
vn 0.00877 0.99948 0.03113
vn -0.00352 0.99996 0.00783
vn 0.01220 0.99992 -0.00178
vn 0.01557 0.99982 0.01124
vn -0.01332 0.99987 0.00903
vn -0.01575 0.99896 -0.04274
vn -0.02554 0.99912 -0.03325
vn -0.03546 0.99898 -0.02790
vn 0.00917 0.99966 -0.02447
vn 0.01854 0.99982 -0.00328
vn -0.01631 0.99966 -0.02010
vn 0.03363 0.99937 0.01157
vn 0.01251 0.99940 0.03226
vn -0.03723 0.99901 0.02440
vn -0.01608 0.99986 0.00351
vn -0.02799 0.99929 -0.02516
vn -0.01234 0.99910 -0.04051
vn 0.02109 0.99972 -0.01066
vn 0.01313 0.99958 -0.02592
vn 0.00604 0.99998 0.00081
vn 0.06440 0.99702 0.04246
vn 0.01123 0.99957 0.02699
vn -0.04469 0.99888 0.01538
vn -0.04154 0.99847 0.03647
vn -0.06944 0.99753 0.01098
vn -0.01142 0.99965 -0.02373
vn 0.02377 0.99961 0.01470
vn 0.01032 0.99957 -0.02757
vn 0.05213 0.99863 0.00344
vn 0.06247 0.99772 0.02564
vn -0.01467 0.99988 -0.00449
vn -0.05466 0.99840 -0.01448

f 1/1/1 2/2/2 3/3/3
f 1/1/1 3/3/3 4/4/4
f 4/4/4 3/3/3 5/5/5
f 5/5/5 3/3/3 6/6/6
f 5/5/5 6/6/6 7/7/7
f 5/5/5 7/7/7 8/8/8
f 8/8/8 7/7/7 9/9/9
f 9/9/9 7/7/7 10/10/10
f 9/9/9 10/10/10 11/11/11
f 9/9/9 11/11/11 12/12/12
f 12/12/12 11/11/11 13/13/13
f 13/13/13 11/11/11 14/14/14
f 13/13/13 14/14/14 15/15/15
f 13/13/13 15/15/15 16/16/16
f 16/16/16 15/15/15 17/17/17
f 17/17/17 15/15/15 18/18/18
f 2/2/2 19/19/19 3/3/3
f 3/3/3 19/19/19 20/20/20
f 3/3/3 20/20/20 21/21/21
f 3/3/3 21/21/21 6/6/6
f 6/6/6 21/21/21 7/7/7
f 7/7/7 21/21/21 22/22/22
f 7/7/7 22/22/22 23/23/23
f 7/7/7 23/23/23 10/10/10
f 10/10/10 23/23/23 11/11/11
f 11/11/11 23/23/23 24/24/24
f 11/11/11 24/24/24 25/25/25
f 11/11/11 25/25/25 14/14/14
f 14/14/14 25/25/25 15/15/15
f 15/15/15 25/25/25 26/26/26
f 15/15/15 26/26/26 27/27/27
f 15/15/15 27/27/27 18/18/18
f 19/19/19 28/28/28 29/29/29
f 19/19/19 29/29/29 20/20/20
f 20/20/20 29/29/29 21/21/21
f 21/21/21 29/29/29 30/30/30
f 21/21/21 30/30/30 31/31/31
f 21/21/21 31/31/31 22/22/22
f 22/22/22 31/31/31 23/23/23
f 23/23/23 31/31/31 32/32/32
f 23/23/23 32/32/32 33/33/33
f 23/23/23 33/33/33 24/24/24
f 24/24/24 33/33/33 25/25/25
f 25/25/25 33/33/33 34/34/34
f 25/25/25 34/34/34 35/35/35
f 25/25/25 35/35/35 26/26/26
f 26/26/26 35/35/35 27/27/27
f 27/27/27 35/35/35 36/36/36
f 28/28/28 37/37/37 29/29/29
f 29/29/29 37/37/37 38/38/38
f 29/29/29 38/38/38 39/39/39
f 29/29/29 39/39/39 30/30/30
f 30/30/30 39/39/39 31/31/31
f 31/31/31 39/39/39 40/40/40
f 31/31/31 40/40/40 41/41/41
f 31/31/31 41/41/41 32/32/32
f 32/32/32 41/41/41 33/33/33
f 33/33/33 41/41/41 42/42/42
f 33/33/33 42/42/42 43/43/43
f 33/33/33 43/43/43 34/34/34
f 34/34/34 43/43/43 35/35/35
f 35/35/35 43/43/43 44/44/44
f 35/35/35 44/44/44 45/45/45
f 35/35/35 45/45/45 36/36/36
f 37/37/37 46/46/46 47/47/47
f 37/37/37 47/47/47 38/38/38
f 38/38/38 47/47/47 39/39/39
f 39/39/39 47/47/47 48/48/48
f 39/39/39 48/48/48 49/49/49
f 39/39/39 49/49/49 40/40/40
f 40/40/40 49/49/49 41/41/41
f 41/41/41 49/49/49 50/50/50
f 41/41/41 50/50/50 51/51/51
f 41/41/41 51/51/51 42/42/42
f 42/42/42 51/51/51 43/43/43
f 43/43/43 51/51/51 52/52/52
f 43/43/43 52/52/52 53/53/53
f 43/43/43 53/53/53 44/44/44
f 44/44/44 53/53/53 45/45/45
f 45/45/45 53/53/53 54/54/54
f 46/46/46 55/55/55 47/47/47
f 47/47/47 55/55/55 56/56/56
f 47/47/47 56/56/56 57/57/57
f 47/47/47 57/57/57 48/48/48
f 48/48/48 57/57/57 49/49/49
f 49/49/49 57/57/57 58/58/58
f 49/49/49 58/58/58 59/59/59
f 49/49/49 59/59/59 50/50/50
f 50/50/50 59/59/59 51/51/51
f 51/51/51 59/59/59 60/60/60
f 51/51/51 60/60/60 61/61/61
f 51/51/51 61/61/61 52/52/52
f 52/52/52 61/61/61 53/53/53
f 53/53/53 61/61/61 62/62/62
f 53/53/53 62/62/62 63/63/63
f 53/53/53 63/63/63 54/54/54
f 55/55/55 64/64/64 65/65/65
f 55/55/55 65/65/65 56/56/56
f 56/56/56 65/65/65 57/57/57
f 57/57/57 65/65/65 66/66/66
f 57/57/57 66/66/66 67/67/67
f 57/57/57 67/67/67 58/58/58
f 58/58/58 67/67/67 59/59/59
f 59/59/59 67/67/67 68/68/68
f 59/59/59 68/68/68 69/69/69
f 59/59/59 69/69/69 60/60/60
f 60/60/60 69/69/69 61/61/61
f 61/61/61 69/69/69 70/70/70
f 61/61/61 70/70/70 71/71/71
f 61/61/61 71/71/71 62/62/62
f 62/62/62 71/71/71 63/63/63
f 63/63/63 71/71/71 72/72/72
f 64/64/64 73/73/73 65/65/65
f 65/65/65 73/73/73 74/74/74
f 65/65/65 74/74/74 75/75/75
f 65/65/65 75/75/75 66/66/66
f 66/66/66 75/75/75 67/67/67
f 67/67/67 75/75/75 76/76/76
f 67/67/67 76/76/76 77/77/77
f 67/67/67 77/77/77 68/68/68
f 68/68/68 77/77/77 69/69/69
f 69/69/69 77/77/77 78/78/78
f 69/69/69 78/78/78 79/79/79
f 69/69/69 79/79/79 70/70/70
f 70/70/70 79/79/79 71/71/71
f 71/71/71 79/79/79 80/80/80
f 71/71/71 80/80/80 81/81/81
f 71/71/71 81/81/81 72/72/72
