# Generated by tools/generate_island.py. Do not edit by hand.
o terrain_lod2_2_-4

v 256.000 -4.184 -512.000 0.519 0.489 0.288
v 256.000 -3.805 -496.000 0.535 0.506 0.298
v 272.000 -3.627 -496.000 0.567 0.538 0.319
v 272.000 -4.907 -512.000 0.555 0.526 0.312
v 288.000 -4.902 -512.000 0.533 0.503 0.297
v 288.000 -4.245 -496.000 0.538 0.508 0.300
v 304.000 -5.430 -496.000 0.480 0.449 0.262
v 304.000 -5.753 -512.000 0.478 0.447 0.261
v 320.000 -6.362 -512.000 0.479 0.448 0.262
v 320.000 -5.704 -496.000 0.477 0.445 0.260
v 336.000 -6.132 -496.000 0.494 0.463 0.271
v 336.000 -6.692 -512.000 0.479 0.448 0.261
v 352.000 -7.907 -512.000 0.499 0.469 0.275
v 352.000 -6.907 -496.000 0.483 0.452 0.265
v 368.000 -7.260 -496.000 0.490 0.459 0.269
v 368.000 -8.509 -512.000 0.473 0.442 0.258
v 384.000 -8.513 -512.000 0.478 0.446 0.261
v 384.000 -8.029 -496.000 0.481 0.450 0.263
v 256.000 -3.177 -480.000 0.547 0.518 0.306
v 272.000 -3.193 -480.000 0.537 0.508 0.300
v 288.000 -4.208 -480.000 0.528 0.498 0.294
v 304.000 -4.574 -480.000 0.522 0.492 0.290
v 320.000 -4.607 -480.000 0.518 0.488 0.288
v 336.000 -5.569 -480.000 0.492 0.462 0.270
v 352.000 -6.347 -480.000 0.489 0.458 0.268
v 368.000 -6.474 -480.000 0.528 0.498 0.294
v 384.000 -7.382 -480.000 0.466 0.434 0.253
v 256.000 -2.520 -464.000 0.559 0.531 0.315
v 272.000 -2.874 -464.000 0.541 0.511 0.302
v 288.000 -3.616 -464.000 0.507 0.476 0.280
v 304.000 -3.662 -464.000 0.550 0.521 0.309
v 320.000 -4.161 -464.000 0.566 0.538 0.319
v 336.000 -5.144 -464.000 0.486 0.455 0.266
v 352.000 -5.395 -464.000 0.479 0.448 0.261
v 368.000 -5.946 -464.000 0.445 0.413 0.239
v 384.000 -7.145 -464.000 0.427 0.394 0.227
v 256.000 -1.625 -448.000 0.559 0.530 0.314
v 272.000 -2.688 -448.000 0.537 0.508 0.300
v 288.000 -3.312 -448.000 0.540 0.511 0.302
v 304.000 -3.175 -448.000 0.575 0.547 0.325
v 320.000 -3.641 -448.000 0.577 0.548 0.326
v 336.000 -3.976 -448.000 0.513 0.483 0.284
v 352.000 -4.662 -448.000 0.442 0.409 0.237
v 368.000 -6.083 -448.000 0.374 0.340 0.193
v 384.000 -6.504 -448.000 0.399 0.365 0.209
v 256.000 -2.031 -432.000 0.548 0.519 0.307
v 272.000 -2.326 -432.000 0.534 0.505 0.298
v 288.000 -2.018 -432.000 0.559 0.530 0.314
v 304.000 -2.710 -432.000 0.578 0.550 0.327
v 320.000 -3.526 -432.000 0.581 0.553 0.329
v 336.000 -3.524 -432.000 0.553 0.524 0.310
v 352.000 -3.907 -432.000 0.450 0.418 0.242
v 368.000 -5.148 -432.000 0.368 0.333 0.188
v 384.000 -5.722 -432.000 0.361 0.326 0.184
v 256.000 -1.735 -416.000 0.496 0.465 0.272
v 272.000 -2.084 -416.000 0.507 0.476 0.280
v 288.000 -2.109 -416.000 0.527 0.497 0.293
v 304.000 -2.660 -416.000 0.544 0.515 0.304
v 320.000 -2.619 -416.000 0.567 0.538 0.319
v 336.000 -2.907 -416.000 0.536 0.506 0.299
v 352.000 -4.071 -416.000 0.470 0.439 0.256
v 368.000 -4.501 -416.000 0.402 0.368 0.211
v 384.000 -4.792 -416.000 0.361 0.326 0.184
v 256.000 -1.550 -400.000 0.460 0.428 0.249
v 272.000 -1.443 -400.000 0.450 0.418 0.243
v 288.000 -1.932 -400.000 0.501 0.471 0.276
v 304.000 -2.361 -400.000 0.531 0.501 0.296
v 320.000 -2.152 -400.000 0.575 0.546 0.325
v 336.000 -2.652 -400.000 0.534 0.505 0.298
v 352.000 -3.459 -400.000 0.480 0.448 0.262
v 368.000 -3.565 -400.000 0.477 0.445 0.260
v 384.000 -4.353 -400.000 0.430 0.397 0.229
v 256.000 -1.082 -384.000 0.426 0.393 0.227
v 272.000 -1.082 -384.000 0.460 0.428 0.249
v 288.000 -1.959 -384.000 0.477 0.445 0.260
v 304.000 -1.958 -384.000 0.514 0.484 0.285
v 320.000 -1.789 -384.000 0.523 0.493 0.291
v 336.000 -2.513 -384.000 0.475 0.444 0.259
v 352.000 -2.945 -384.000 0.476 0.444 0.259
v 368.000 -3.279 -384.000 0.448 0.416 0.241
v 384.000 -4.263 -384.000 0.416 0.383 0.220

vt 0.633333 0.766667
vt 0.633333 0.758333
vt 0.641667 0.758333
vt 0.641667 0.766667
vt 0.650000 0.766667
vt 0.650000 0.758333
vt 0.658333 0.758333
vt 0.658333 0.766667
vt 0.666667 0.766667
vt 0.666667 0.758333
vt 0.675000 0.758333
vt 0.675000 0.766667
vt 0.683333 0.766667
vt 0.683333 0.758333
vt 0.691667 0.758333
vt 0.691667 0.766667
vt 0.700000 0.766667
vt 0.700000 0.758333
vt 0.633333 0.750000
vt 0.641667 0.750000
vt 0.650000 0.750000
vt 0.658333 0.750000
vt 0.666667 0.750000
vt 0.675000 0.750000
vt 0.683333 0.750000
vt 0.691667 0.750000
vt 0.700000 0.750000
vt 0.633333 0.741667
vt 0.641667 0.741667
vt 0.650000 0.741667
vt 0.658333 0.741667
vt 0.666667 0.741667
vt 0.675000 0.741667
vt 0.683333 0.741667
vt 0.691667 0.741667
vt 0.700000 0.741667
vt 0.633333 0.733333
vt 0.641667 0.733333
vt 0.650000 0.733333
vt 0.658333 0.733333
vt 0.666667 0.733333
vt 0.675000 0.733333
vt 0.683333 0.733333
vt 0.691667 0.733333
vt 0.700000 0.733333
vt 0.633333 0.725000
vt 0.641667 0.725000
vt 0.650000 0.725000
vt 0.658333 0.725000
vt 0.666667 0.725000
vt 0.675000 0.725000
vt 0.683333 0.725000
vt 0.691667 0.725000
vt 0.700000 0.725000
vt 0.633333 0.716667
vt 0.641667 0.716667
vt 0.650000 0.716667
vt 0.658333 0.716667
vt 0.666667 0.716667
vt 0.675000 0.716667
vt 0.683333 0.716667
vt 0.691667 0.716667
vt 0.700000 0.716667
vt 0.633333 0.708333
vt 0.641667 0.708333
vt 0.650000 0.708333
vt 0.658333 0.708333
vt 0.666667 0.708333
vt 0.675000 0.708333
vt 0.683333 0.708333
vt 0.691667 0.708333
vt 0.700000 0.708333
vt 0.633333 0.700000
vt 0.641667 0.700000
vt 0.650000 0.700000
vt 0.658333 0.700000
vt 0.666667 0.700000
vt 0.675000 0.700000
vt 0.683333 0.700000
vt 0.691667 0.700000
vt 0.700000 0.700000

vn 0.01700 0.99851 -0.05180
vn -0.01114 0.99944 -0.03145
vn 0.02052 0.99899 -0.04004
vn 0.02236 0.99656 -0.07977
vn 0.04131 0.99811 -0.04549
vn 0.05626 0.99818 -0.02165
vn 0.03726 0.99860 -0.03750
vn 0.04557 0.99876 -0.02012
vn 0.02562 0.99908 -0.03432
vn 0.02190 0.99826 -0.05475
vn 0.04438 0.99807 -0.04335
vn 0.04819 0.99823 -0.03489
vn 0.04588 0.99718 -0.05932
vn 0.03517 0.99820 -0.04866
vn 0.03029 0.99815 -0.05272
vn 0.01888 0.99679 -0.07780
vn 0.02415 0.99825 -0.05405
vn 0.04801 0.99822 -0.03530
vn 0.00322 0.99949 -0.03183
vn 0.03219 0.99921 -0.02351
vn 0.04178 0.99869 -0.02948
vn 0.01245 0.99840 -0.05517
vn 0.03256 0.99843 -0.04557
vn 0.05427 0.99805 -0.03081
vn 0.02917 0.99871 -0.04156
vn 0.03229 0.99864 -0.04099
vn 0.05897 0.99767 -0.03426
vn 0.02208 0.99858 -0.04844
vn 0.03833 0.99890 -0.02699
vn 0.02463 0.99931 -0.02797
vn 0.01418 0.99924 -0.03636
vn 0.04625 0.99848 -0.03013
vn 0.04077 0.99813 -0.04551
vn 0.02502 0.99830 -0.05256
vn 0.04974 0.99842 -0.02608
vn 0.07468 0.99683 -0.02735
vn 0.04330 0.99893 -0.01618
vn 0.05265 0.99847 -0.01709
vn 0.01677 0.99919 -0.03666
vn 0.01028 0.99951 -0.02973
vn 0.03042 0.99909 -0.02999
vn 0.03184 0.99821 -0.05056
vn 0.05176 0.99777 -0.04205
vn 0.05743 0.99804 -0.02490
vn 0.04077 0.99857 -0.03466
vn 0.01845 0.99982 0.00344
vn 0.01590 0.99971 -0.01796
vn 0.01200 0.99922 -0.03758
vn 0.03009 0.99922 -0.02542
vn 0.02540 0.99917 -0.03193
vn 0.02526 0.99925 -0.02930
vn 0.05069 0.99854 -0.01846
vn 0.04827 0.99792 -0.04263
vn 0.03578 0.99793 -0.05338
vn 0.01385 0.99968 -0.02130
vn 0.01168 0.99955 -0.02757
vn 0.01917 0.99976 -0.01097
vn 0.01593 0.99981 -0.01090
vn 0.01247 0.99944 -0.03099
vn 0.04530 0.99860 -0.02720
vn 0.04467 0.99866 -0.02614
vn 0.02252 0.99853 -0.04940
vn 0.03033 0.99848 -0.04605
vn -0.00668 0.99977 -0.02042
vn 0.01573 0.99964 -0.02193
vn 0.02868 0.99958 -0.00469
vn 0.00610 0.99981 -0.01861
vn 0.00908 0.99962 -0.02591
vn 0.04076 0.99894 -0.02140
vn 0.02850 0.99898 -0.03514
vn 0.02988 0.99904 -0.03200
vn 0.04921 0.99865 -0.01651
vn -0.00332 0.99966 -0.02590
vn 0.02740 0.99937 -0.02253
vn 0.02802 0.99955 -0.01106
vn -0.00530 0.99967 -0.02518
vn 0.01321 0.99972 -0.01978
vn 0.03608 0.99931 -0.00866
vn 0.02621 0.99940 -0.02271
vn 0.04115 0.99899 -0.01787
vn 0.05531 0.99840 -0.01175

f 1/1/1 2/2/2 3/3/3
f 1/1/1 3/3/3 4/4/4
f 4/4/4 3/3/3 5/5/5
f 5/5/5 3/3/3 6/6/6
f 5/5/5 6/6/6 7/7/7
f 5/5/5 7/7/7 8/8/8
f 8/8/8 7/7/7 9/9/9
f 9/9/9 7/7/7 10/10/10
f 9/9/9 10/10/10 11/11/11
f 9/9/9 11/11/11 12/12/12
f 12/12/12 11/11/11 13/13/13
f 13/13/13 11/11/11 14/14/14
f 13/13/13 14/14/14 15/15/15
f 13/13/13 15/15/15 16/16/16
f 16/16/16 15/15/15 17/17/17
f 17/17/17 15/15/15 18/18/18
f 2/2/2 19/19/19 3/3/3
f 3/3/3 19/19/19 20/20/20
f 3/3/3 20/20/20 21/21/21
f 3/3/3 21/21/21 6/6/6
f 6/6/6 21/21/21 7/7/7
f 7/7/7 21/21/21 22/22/22
f 7/7/7 22/22/22 23/23/23
f 7/7/7 23/23/23 10/10/10
f 10/10/10 23/23/23 11/11/11
f 11/11/11 23/23/23 24/24/24
f 11/11/11 24/24/24 25/25/25
f 11/11/11 25/25/25 14/14/14
f 14/14/14 25/25/25 15/15/15
f 15/15/15 25/25/25 26/26/26
f 15/15/15 26/26/26 27/27/27
f 15/15/15 27/27/27 18/18/18
f 19/19/19 28/28/28 29/29/29
f 19/19/19 29/29/29 20/20/20
f 20/20/20 29/29/29 21/21/21
f 21/21/21 29/29/29 30/30/30
f 21/21/21 30/30/30 31/31/31
f 21/21/21 31/31/31 22/22/22
f 22/22/22 31/31/31 23/23/23
f 23/23/23 31/31/31 32/32/32
f 23/23/23 32/32/32 33/33/33
f 23/23/23 33/33/33 24/24/24
f 24/24/24 33/33/33 25/25/25
f 25/25/25 33/33/33 34/34/34
f 25/25/25 34/34/34 35/35/35
f 25/25/25 35/35/35 26/26/26
f 26/26/26 35/35/35 27/27/27
f 27/27/27 35/35/35 36/36/36
f 28/28/28 37/37/37 29/29/29
f 29/29/29 37/37/37 38/38/38
f 29/29/29 38/38/38 39/39/39
f 29/29/29 39/39/39 30/30/30
f 30/30/30 39/39/39 31/31/31
f 31/31/31 39/39/39 40/40/40
f 31/31/31 40/40/40 41/41/41
f 31/31/31 41/41/41 32/32/32
f 32/32/32 41/41/41 33/33/33
f 33/33/33 41/41/41 42/42/42
f 33/33/33 42/42/42 43/43/43
f 33/33/33 43/43/43 34/34/34
f 34/34/34 43/43/43 35/35/35
f 35/35/35 43/43/43 44/44/44
f 35/35/35 44/44/44 45/45/45
f 35/35/35 45/45/45 36/36/36
f 37/37/37 46/46/46 47/47/47
f 37/37/37 47/47/47 38/38/38
f 38/38/38 47/47/47 39/39/39
f 39/39/39 47/47/47 48/48/48
f 39/39/39 48/48/48 49/49/49
f 39/39/39 49/49/49 40/40/40
f 40/40/40 49/49/49 41/41/41
f 41/41/41 49/49/49 50/50/50
f 41/41/41 50/50/50 51/51/51
f 41/41/41 51/51/51 42/42/42
f 42/42/42 51/51/51 43/43/43
f 43/43/43 51/51/51 52/52/52
f 43/43/43 52/52/52 53/53/53
f 43/43/43 53/53/53 44/44/44
f 44/44/44 53/53/53 45/45/45
f 45/45/45 53/53/53 54/54/54
f 46/46/46 55/55/55 47/47/47
f 47/47/47 55/55/55 56/56/56
f 47/47/47 56/56/56 57/57/57
f 47/47/47 57/57/57 48/48/48
f 48/48/48 57/57/57 49/49/49
f 49/49/49 57/57/57 58/58/58
f 49/49/49 58/58/58 59/59/59
f 49/49/49 59/59/59 50/50/50
f 50/50/50 59/59/59 51/51/51
f 51/51/51 59/59/59 60/60/60
f 51/51/51 60/60/60 61/61/61
f 51/51/51 61/61/61 52/52/52
f 52/52/52 61/61/61 53/53/53
f 53/53/53 61/61/61 62/62/62
f 53/53/53 62/62/62 63/63/63
f 53/53/53 63/63/63 54/54/54
f 55/55/55 64/64/64 65/65/65
f 55/55/55 65/65/65 56/56/56
f 56/56/56 65/65/65 57/57/57
f 57/57/57 65/65/65 66/66/66
f 57/57/57 66/66/66 67/67/67
f 57/57/57 67/67/67 58/58/58
f 58/58/58 67/67/67 59/59/59
f 59/59/59 67/67/67 68/68/68
f 59/59/59 68/68/68 69/69/69
f 59/59/59 69/69/69 60/60/60
f 60/60/60 69/69/69 61/61/61
f 61/61/61 69/69/69 70/70/70
f 61/61/61 70/70/70 71/71/71
f 61/61/61 71/71/71 62/62/62
f 62/62/62 71/71/71 63/63/63
f 63/63/63 71/71/71 72/72/72
f 64/64/64 73/73/73 65/65/65
f 65/65/65 73/73/73 74/74/74
f 65/65/65 74/74/74 75/75/75
f 65/65/65 75/75/75 66/66/66
f 66/66/66 75/75/75 67/67/67
f 67/67/67 75/75/75 76/76/76
f 67/67/67 76/76/76 77/77/77
f 67/67/67 77/77/77 68/68/68
f 68/68/68 77/77/77 69/69/69
f 69/69/69 77/77/77 78/78/78
f 69/69/69 78/78/78 79/79/79
f 69/69/69 79/79/79 70/70/70
f 70/70/70 79/79/79 71/71/71
f 71/71/71 79/79/79 80/80/80
f 71/71/71 80/80/80 81/81/81
f 71/71/71 81/81/81 72/72/72
