# Generated by tools/generate_island.py. Do not edit by hand.
o terrain_lod2_-3_4

v -384.000 -5.316 512.000 0.475 0.443 0.259
v -384.000 -5.667 528.000 0.438 0.406 0.235
v -368.000 -5.100 528.000 0.473 0.442 0.258
v -368.000 -4.416 512.000 0.479 0.447 0.261
v -352.000 -4.248 512.000 0.499 0.468 0.275
v -352.000 -5.147 528.000 0.486 0.455 0.266
v -336.000 -4.800 528.000 0.504 0.474 0.278
v -336.000 -4.299 512.000 0.492 0.461 0.270
v -320.000 -3.615 512.000 0.516 0.486 0.286
v -320.000 -4.017 528.000 0.514 0.484 0.284
v -304.000 -4.147 528.000 0.530 0.501 0.295
v -304.000 -3.239 512.000 0.559 0.531 0.315
v -288.000 -3.290 512.000 0.528 0.498 0.294
v -288.000 -4.000 528.000 0.516 0.486 0.286
v -272.000 -3.560 528.000 0.517 0.487 0.287
v -272.000 -3.063 512.000 0.556 0.527 0.312
v -256.000 -2.899 512.000 0.585 0.557 0.331
v -256.000 -3.846 528.000 0.537 0.508 0.300
v -384.000 -6.524 544.000 0.408 0.375 0.215
v -368.000 -6.015 544.000 0.454 0.422 0.245
v -352.000 -5.709 544.000 0.503 0.472 0.277
v -336.000 -4.996 544.000 0.508 0.477 0.280
v -320.000 -5.052 544.000 0.503 0.472 0.277
v -304.000 -5.203 544.000 0.498 0.468 0.274
v -288.000 -4.515 544.000 0.474 0.443 0.259
v -272.000 -4.334 544.000 0.485 0.454 0.265
v -256.000 -4.819 544.000 0.516 0.486 0.286
v -384.000 -6.820 560.000 0.397 0.364 0.208
v -368.000 -7.203 560.000 0.424 0.391 0.226
v -352.000 -6.815 560.000 0.444 0.412 0.238
v -336.000 -5.910 560.000 0.449 0.417 0.242
v -320.000 -5.908 560.000 0.448 0.416 0.241
v -304.000 -5.732 560.000 0.470 0.439 0.256
v -288.000 -5.421 560.000 0.453 0.421 0.245
v -272.000 -5.790 560.000 0.467 0.435 0.254
v -256.000 -5.393 560.000 0.477 0.446 0.260
v -384.000 -8.063 576.000 0.400 0.366 0.210
v -368.000 -7.804 576.000 0.398 0.365 0.208
v -352.000 -7.071 576.000 0.408 0.375 0.215
v -336.000 -7.078 576.000 0.444 0.411 0.238
v -320.000 -7.096 576.000 0.454 0.422 0.245
v -304.000 -6.393 576.000 0.456 0.424 0.247
v -288.000 -6.142 576.000 0.472 0.440 0.257
v -272.000 -6.442 576.000 0.511 0.480 0.282
v -256.000 -6.090 576.000 0.506 0.476 0.280
v -384.000 -9.005 592.000 0.376 0.342 0.194
v -368.000 -8.620 592.000 0.379 0.345 0.196
v -352.000 -8.027 592.000 0.411 0.378 0.217
v -336.000 -8.118 592.000 0.429 0.396 0.228
v -320.000 -7.675 592.000 0.390 0.356 0.203
v -304.000 -7.403 592.000 0.399 0.365 0.209
v -288.000 -7.663 592.000 0.457 0.425 0.247
v -272.000 -7.198 592.000 0.489 0.458 0.268
v -256.000 -6.831 592.000 0.482 0.451 0.263
v -384.000 -9.992 608.000 0.421 0.388 0.224
v -368.000 -9.184 608.000 0.395 0.361 0.206
v -352.000 -9.060 608.000 0.361 0.326 0.184
v -336.000 -9.189 608.000 0.391 0.357 0.203
v -320.000 -8.466 608.000 0.406 0.373 0.214
v -304.000 -8.579 608.000 0.394 0.360 0.205
v -288.000 -8.683 608.000 0.468 0.437 0.254
v -272.000 -7.793 608.000 0.475 0.443 0.259
v -256.000 -8.121 608.000 0.468 0.436 0.254
v -384.000 -10.291 624.000 0.423 0.390 0.224
v -368.000 -9.982 624.000 0.393 0.359 0.205
v -352.000 -10.525 624.000 0.376 0.341 0.194
v -336.000 -9.982 624.000 0.393 0.359 0.205
v -320.000 -9.284 624.000 0.382 0.348 0.198
v -304.000 -9.570 624.000 0.409 0.375 0.215
v -288.000 -9.330 624.000 0.495 0.465 0.272
v -272.000 -9.095 624.000 0.490 0.460 0.269
v -256.000 -9.601 624.000 0.454 0.422 0.245
v -384.000 -10.800 640.000 0.446 0.414 0.240
v -368.000 -10.800 640.000 0.417 0.384 0.221
v -352.000 -10.800 640.000 0.405 0.371 0.213
v -336.000 -10.457 640.000 0.427 0.395 0.228
v -320.000 -10.739 640.000 0.441 0.408 0.236
v -304.000 -10.773 640.000 0.451 0.419 0.243
v -288.000 -10.005 640.000 0.467 0.435 0.254
v -272.000 -10.142 640.000 0.470 0.438 0.256
v -256.000 -10.688 640.000 0.490 0.459 0.269

vt 0.300000 0.233333
vt 0.300000 0.225000
vt 0.308333 0.225000
vt 0.308333 0.233333
vt 0.316667 0.233333
vt 0.316667 0.225000
vt 0.325000 0.225000
vt 0.325000 0.233333
vt 0.333333 0.233333
vt 0.333333 0.225000
vt 0.341667 0.225000
vt 0.341667 0.233333
vt 0.350000 0.233333
vt 0.350000 0.225000
vt 0.358333 0.225000
vt 0.358333 0.233333
vt 0.366667 0.233333
vt 0.366667 0.225000
vt 0.300000 0.216667
vt 0.308333 0.216667
vt 0.316667 0.216667
vt 0.325000 0.216667
vt 0.333333 0.216667
vt 0.341667 0.216667
vt 0.350000 0.216667
vt 0.358333 0.216667
vt 0.366667 0.216667
vt 0.300000 0.208333
vt 0.308333 0.208333
vt 0.316667 0.208333
vt 0.325000 0.208333
vt 0.333333 0.208333
vt 0.341667 0.208333
vt 0.350000 0.208333
vt 0.358333 0.208333
vt 0.366667 0.208333
vt 0.300000 0.200000
vt 0.308333 0.200000
vt 0.316667 0.200000
vt 0.325000 0.200000
vt 0.333333 0.200000
vt 0.341667 0.200000
vt 0.350000 0.200000
vt 0.358333 0.200000
vt 0.366667 0.200000
vt 0.300000 0.191667
vt 0.308333 0.191667
vt 0.316667 0.191667
vt 0.325000 0.191667
vt 0.333333 0.191667
vt 0.341667 0.191667
vt 0.350000 0.191667
vt 0.358333 0.191667
vt 0.366667 0.191667
vt 0.300000 0.183333
vt 0.308333 0.183333
vt 0.316667 0.183333
vt 0.325000 0.183333
vt 0.333333 0.183333
vt 0.341667 0.183333
vt 0.350000 0.183333
vt 0.358333 0.183333
vt 0.366667 0.183333
vt 0.300000 0.175000
vt 0.308333 0.175000
vt 0.316667 0.175000
vt 0.325000 0.175000
vt 0.333333 0.175000
vt 0.341667 0.175000
vt 0.350000 0.175000
vt 0.358333 0.175000
vt 0.366667 0.175000
vt 0.300000 0.166667
vt 0.308333 0.166667
vt 0.316667 0.166667
vt 0.325000 0.166667
vt 0.333333 0.166667
vt 0.341667 0.166667
vt 0.350000 0.166667
vt 0.358333 0.166667
vt 0.366667 0.166667

vn -0.04573 0.99843 0.03228
vn -0.03534 0.99866 0.03769
vn -0.02279 0.99869 0.04576
vn -0.03332 0.99853 0.04268
vn -0.00652 0.99889 0.04655
vn -0.00938 0.99892 0.04559
vn -0.02772 0.99905 0.03349
vn -0.01977 0.99932 0.03128
vn -0.02674 0.99905 0.03453
vn -0.02038 0.99879 0.04484
vn -0.00698 0.99865 0.05141
vn -0.01013 0.99834 0.05665
vn -0.01192 0.99896 0.04409
vn -0.01832 0.99910 0.03824
vn -0.00309 0.99901 0.04439
vn -0.01223 0.99944 0.03109
vn 0.00380 0.99898 0.04510
vn 0.01781 0.99805 0.05989
vn -0.01873 0.99853 0.05080
vn -0.02541 0.99753 0.06555
vn -0.02832 0.99829 0.05107
vn -0.02051 0.99919 0.03467
vn -0.00325 0.99872 0.05054
vn -0.01675 0.99864 0.04946
vn -0.01769 0.99849 0.05193
vn 0.00947 0.99754 0.06952
vn 0.01338 0.99817 0.05891
vn 0.02394 0.99856 0.04804
vn -0.01417 0.99862 0.05056
vn -0.04033 0.99828 0.04251
vn -0.01908 0.99807 0.05903
vn -0.00556 0.99795 0.06374
vn -0.01923 0.99870 0.04720
vn 0.00182 0.99871 0.05077
vn 0.00152 0.99846 0.05549
vn -0.02483 0.99890 0.03967
vn -0.00810 0.99839 0.05620
vn -0.03095 0.99854 0.04422
vn -0.02534 0.99856 0.04719
vn 0.00076 0.99763 0.06883
vn -0.01765 0.99817 0.05780
vn -0.02975 0.99820 0.05211
vn -0.00037 0.99826 0.05898
vn -0.00163 0.99903 0.04395
vn -0.02293 0.99875 0.04442
vn -0.02399 0.99790 0.06013
vn -0.03026 0.99819 0.05206
vn -0.01567 0.99795 0.06203
vn -0.00994 0.99820 0.05913
vn -0.02234 0.99883 0.04278
vn -0.00592 0.99790 0.06457
vn -0.00636 0.99684 0.07916
vn -0.01777 0.99823 0.05673
vn -0.02290 0.99773 0.06334
vn -0.03602 0.99850 0.04131
vn -0.02906 0.99867 0.04250
vn -0.00383 0.99794 0.06410
vn -0.01854 0.99814 0.05813
vn -0.01832 0.99823 0.05653
vn 0.00676 0.99769 0.06757
vn -0.01756 0.99818 0.05768
vn -0.01752 0.99810 0.05915
vn 0.01241 0.99728 0.07272
vn -0.01929 0.99950 0.02525
vn -0.00362 0.99898 0.04511
vn -0.00002 0.99853 0.05428
vn -0.02447 0.99840 0.05106
vn -0.01284 0.99741 0.07084
vn -0.00331 0.99805 0.06226
vn -0.01483 0.99904 0.04128
vn 0.00517 0.99774 0.06695
vn 0.03153 0.99630 0.07990
vn -0.00964 0.99910 0.04142
vn 0.00000 0.99870 0.05104
vn -0.00537 0.99957 0.02879
vn -0.00191 0.99956 0.02966
vn -0.00148 0.99744 0.07152
vn -0.02286 0.99692 0.07499
vn -0.01725 0.99827 0.05619
vn 0.02127 0.99764 0.06531
vn 0.03277 0.99725 0.06650

f 1/1/1 2/2/2 3/3/3
f 1/1/1 3/3/3 4/4/4
f 4/4/4 3/3/3 5/5/5
f 5/5/5 3/3/3 6/6/6
f 5/5/5 6/6/6 7/7/7
f 5/5/5 7/7/7 8/8/8
f 8/8/8 7/7/7 9/9/9
f 9/9/9 7/7/7 10/10/10
f 9/9/9 10/10/10 11/11/11
f 9/9/9 11/11/11 12/12/12
f 12/12/12 11/11/11 13/13/13
f 13/13/13 11/11/11 14/14/14
f 13/13/13 14/14/14 15/15/15
f 13/13/13 15/15/15 16/16/16
f 16/16/16 15/15/15 17/17/17
f 17/17/17 15/15/15 18/18/18
f 2/2/2 19/19/19 3/3/3
f 3/3/3 19/19/19 20/20/20
f 3/3/3 20/20/20 21/21/21
f 3/3/3 21/21/21 6/6/6
f 6/6/6 21/21/21 7/7/7
f 7/7/7 21/21/21 22/22/22
f 7/7/7 22/22/22 23/23/23
f 7/7/7 23/23/23 10/10/10
f 10/10/10 23/23/23 11/11/11
f 11/11/11 23/23/23 24/24/24
f 11/11/11 24/24/24 25/25/25
f 11/11/11 25/25/25 14/14/14
f 14/14/14 25/25/25 15/15/15
f 15/15/15 25/25/25 26/26/26
f 15/15/15 26/26/26 27/27/27
f 15/15/15 27/27/27 18/18/18
f 19/19/19 28/28/28 29/29/29
f 19/19/19 29/29/29 20/20/20
f 20/20/20 29/29/29 21/21/21
f 21/21/21 29/29/29 30/30/30
f 21/21/21 30/30/30 31/31/31
f 21/21/21 31/31/31 22/22/22
f 22/22/22 31/31/31 23/23/23
f 23/23/23 31/31/31 32/32/32
f 23/23/23 32/32/32 33/33/33
f 23/23/23 33/33/33 24/24/24
f 24/24/24 33/33/33 25/25/25
f 25/25/25 33/33/33 34/34/34
f 25/25/25 34/34/34 35/35/35
f 25/25/25 35/35/35 26/26/26
f 26/26/26 35/35/35 27/27/27
f 27/27/27 35/35/35 36/36/36
f 28/28/28 37/37/37 29/29/29
f 29/29/29 37/37/37 38/38/38
f 29/29/29 38/38/38 39/39/39
f 29/29/29 39/39/39 30/30/30
f 30/30/30 39/39/39 31/31/31
f 31/31/31 39/39/39 40/40/40
f 31/31/31 40/40/40 41/41/41
f 31/31/31 41/41/41 32/32/32
f 32/32/32 41/41/41 33/33/33
f 33/33/33 41/41/41 42/42/42
f 33/33/33 42/42/42 43/43/43
f 33/33/33 43/43/43 34/34/34
f 34/34/34 43/43/43 35/35/35
f 35/35/35 43/43/43 44/44/44
f 35/35/35 44/44/44 45/45/45
f 35/35/35 45/45/45 36/36/36
f 37/37/37 46/46/46 47/47/47
f 37/37/37 47/47/47 38/38/38
f 38/38/38 47/47/47 39/39/39
f 39/39/39 47/47/47 48/48/48
f 39/39/39 48/48/48 49/49/49
f 39/39/39 49/49/49 40/40/40
f 40/40/40 49/49/49 41/41/41
f 41/41/41 49/49/49 50/50/50
f 41/41/41 50/50/50 51/51/51
f 41/41/41 51/51/51 42/42/42
f 42/42/42 51/51/51 43/43/43
f 43/43/43 51/51/51 52/52/52
f 43/43/43 52/52/52 53/53/53
f 43/43/43 53/53/53 44/44/44
f 44/44/44 53/53/53 45/45/45
f 45/45/45 53/53/53 54/54/54
f 46/46/46 55/55/55 47/47/47
f 47/47/47 55/55/55 56/56/56
f 47/47/47 56/56/56 57/57/57
f 47/47/47 57/57/57 48/48/48
f 48/48/48 57/57/57 49/49/49
f 49/49/49 57/57/57 58/58/58
f 49/49/49 58/58/58 59/59/59
f 49/49/49 59/59/59 50/50/50
f 50/50/50 59/59/59 51/51/51
f 51/51/51 59/59/59 60/60/60
f 51/51/51 60/60/60 61/61/61
f 51/51/51 61/61/61 52/52/52
f 52/52/52 61/61/61 53/53/53
f 53/53/53 61/61/61 62/62/62
f 53/53/53 62/62/62 63/63/63
f 53/53/53 63/63/63 54/54/54
f 55/55/55 64/64/64 65/65/65
f 55/55/55 65/65/65 56/56/56
f 56/56/56 65/65/65 57/57/57
f 57/57/57 65/65/65 66/66/66
f 57/57/57 66/66/66 67/67/67
f 57/57/57 67/67/67 58/58/58
f 58/58/58 67/67/67 59/59/59
f 59/59/59 67/67/67 68/68/68
f 59/59/59 68/68/68 69/69/69
f 59/59/59 69/69/69 60/60/60
f 60/60/60 69/69/69 61/61/61
f 61/61/61 69/69/69 70/70/70
f 61/61/61 70/70/70 71/71/71
f 61/61/61 71/71/71 62/62/62
f 62/62/62 71/71/71 63/63/63
f 63/63/63 71/71/71 72/72/72
f 64/64/64 73/73/73 65/65/65
f 65/65/65 73/73/73 74/74/74
f 65/65/65 74/74/74 75/75/75
f 65/65/65 75/75/75 66/66/66
f 66/66/66 75/75/75 67/67/67
f 67/67/67 75/75/75 76/76/76
f 67/67/67 76/76/76 77/77/77
f 67/67/67 77/77/77 68/68/68
f 68/68/68 77/77/77 69/69/69
f 69/69/69 77/77/77 78/78/78
f 69/69/69 78/78/78 79/79/79
f 69/69/69 79/79/79 70/70/70
f 70/70/70 79/79/79 71/71/71
f 71/71/71 79/79/79 80/80/80
f 71/71/71 80/80/80 81/81/81
f 71/71/71 81/81/81 72/72/72
