# Generated by tools/generate_island.py. Do not edit by hand.
o terrain_lod2_7_0

v 896.000 -10.800 0.000 0.526 0.496 0.292
v 896.000 -10.800 16.000 0.526 0.496 0.292
v 912.000 -10.800 16.000 0.533 0.504 0.297
v 912.000 -10.800 0.000 0.553 0.524 0.310
v 928.000 -10.800 0.000 0.540 0.511 0.302
v 928.000 -10.800 16.000 0.520 0.490 0.289
v 944.000 -10.800 16.000 0.558 0.530 0.314
v 944.000 -10.800 0.000 0.585 0.557 0.331
v 960.000 -10.800 0.000 0.585 0.557 0.331
v 960.000 -10.800 16.000 0.571 0.543 0.322
v 896.000 -10.800 32.000 0.547 0.518 0.306
v 912.000 -10.800 32.000 0.505 0.475 0.279
v 928.000 -10.800 32.000 0.491 0.460 0.269
v 944.000 -10.800 32.000 0.514 0.484 0.285
v 960.000 -10.800 32.000 0.533 0.503 0.297
v 896.000 -10.800 48.000 0.490 0.459 0.269
v 912.000 -10.800 48.000 0.464 0.432 0.251
v 928.000 -10.800 48.000 0.466 0.435 0.253
v 944.000 -10.800 48.000 0.464 0.433 0.252
v 960.000 -10.800 48.000 0.504 0.474 0.278
v 896.000 -10.800 64.000 0.436 0.403 0.233
v 912.000 -10.800 64.000 0.434 0.402 0.232
v 928.000 -10.800 64.000 0.438 0.406 0.235
v 944.000 -10.800 64.000 0.468 0.436 0.254
v 960.000 -10.800 64.000 0.461 0.429 0.250
v 896.000 -10.800 80.000 0.445 0.412 0.239
v 912.000 -10.800 80.000 0.413 0.380 0.218
v 928.000 -10.800 80.000 0.423 0.390 0.224
v 944.000 -10.800 80.000 0.458 0.427 0.248
v 960.000 -10.800 80.000 0.480 0.449 0.262
v 896.000 -10.800 96.000 0.440 0.408 0.236
v 912.000 -10.800 96.000 0.440 0.407 0.236
v 928.000 -10.800 96.000 0.434 0.401 0.232
v 944.000 -10.800 96.000 0.466 0.434 0.253
v 960.000 -10.800 96.000 0.455 0.423 0.246
v 896.000 -10.800 112.000 0.407 0.374 0.214
v 912.000 -10.800 112.000 0.453 0.421 0.245
v 928.000 -10.800 112.000 0.491 0.460 0.269
v 944.000 -10.800 112.000 0.464 0.433 0.252
v 960.000 -10.800 112.000 0.411 0.378 0.217
v 896.000 -10.800 128.000 0.413 0.380 0.218
v 912.000 -10.800 128.000 0.451 0.419 0.243
v 928.000 -10.800 128.000 0.467 0.435 0.253
v 944.000 -10.800 128.000 0.454 0.422 0.245
v 960.000 -10.800 128.000 0.426 0.393 0.226

vt 0.966667 0.500000
vt 0.966667 0.491667
vt 0.975000 0.491667
vt 0.975000 0.500000
vt 0.983333 0.500000
vt 0.983333 0.491667
vt 0.991667 0.491667
vt 0.991667 0.500000
vt 1.000000 0.500000
vt 1.000000 0.491667
vt 0.966667 0.483333
vt 0.975000 0.483333
vt 0.983333 0.483333
vt 0.991667 0.483333
vt 1.000000 0.483333
vt 0.966667 0.475000
vt 0.975000 0.475000
vt 0.983333 0.475000
vt 0.991667 0.475000
vt 1.000000 0.475000
vt 0.966667 0.466667
vt 0.975000 0.466667
vt 0.983333 0.466667
vt 0.991667 0.466667
vt 1.000000 0.466667
vt 0.966667 0.458333
vt 0.975000 0.458333
vt 0.983333 0.458333
vt 0.991667 0.458333
vt 1.000000 0.458333
vt 0.966667 0.450000
vt 0.975000 0.450000
vt 0.983333 0.450000
vt 0.991667 0.450000
vt 1.000000 0.450000
vt 0.966667 0.441667
vt 0.975000 0.441667
vt 0.983333 0.441667
vt 0.991667 0.441667
vt 1.000000 0.441667
vt 0.966667 0.433333
vt 0.975000 0.433333
vt 0.983333 0.433333
vt 0.991667 0.433333
vt 1.000000 0.433333

vn 0.00000 1.00000 0.00000
vn 0.00000 1.00000 0.00000
vn 0.00000 1.00000 0.00000
vn 0.00000 1.00000 0.00000
vn 0.00000 1.00000 0.00000
vn 0.00000 1.00000 0.00000
vn 0.00000 1.00000 0.00000
vn 0.00000 1.00000 0.00000
vn 0.00000 1.00000 0.00000
vn 0.00000 1.00000 0.00000
vn 0.00000 1.00000 0.00000
vn 0.00000 1.00000 0.00000
vn 0.00000 1.00000 0.00000
vn 0.00000 1.00000 0.00000
vn 0.00000 1.00000 0.00000
vn 0.00000 1.00000 0.00000
vn 0.00000 1.00000 0.00000
vn 0.00000 1.00000 0.00000
vn 0.00000 1.00000 0.00000
vn 0.00000 1.00000 0.00000
vn 0.00000 1.00000 0.00000
vn 0.00000 1.00000 0.00000
vn 0.00000 1.00000 0.00000
vn 0.00000 1.00000 0.00000
vn 0.00000 1.00000 0.00000
vn 0.00000 1.00000 0.00000
vn 0.00000 1.00000 0.00000
vn 0.00000 1.00000 0.00000
vn 0.00000 1.00000 0.00000
vn 0.00000 1.00000 0.00000
vn 0.00000 1.00000 0.00000
vn 0.00000 1.00000 0.00000
vn 0.00000 1.00000 0.00000
vn 0.00000 1.00000 0.00000
vn 0.00000 1.00000 0.00000
vn 0.00000 1.00000 0.00000
vn 0.00000 1.00000 0.00000
vn 0.00000 1.00000 0.00000
vn 0.00000 1.00000 0.00000
vn 0.00000 1.00000 0.00000
vn 0.00000 1.00000 0.00000
vn 0.00000 1.00000 0.00000
vn 0.00000 1.00000 0.00000
vn 0.00000 1.00000 0.00000
vn 0.00000 1.00000 0.00000

f 1/1/1 2/2/2 3/3/3
f 1/1/1 3/3/3 4/4/4
f 4/4/4 3/3/3 5/5/5
f 5/5/5 3/3/3 6/6/6
f 5/5/5 6/6/6 7/7/7
f 5/5/5 7/7/7 8/8/8
f 8/8/8 7/7/7 9/9/9
f 9/9/9 7/7/7 10/10/10
f 2/2/2 11/11/11 3/3/3
f 3/3/3 11/11/11 12/12/12
f 3/3/3 12/12/12 13/13/13
f 3/3/3 13/13/13 6/6/6
f 6/6/6 13/13/13 7/7/7
f 7/7/7 13/13/13 14/14/14
f 7/7/7 14/14/14 15/15/15
f 7/7/7 15/15/15 10/10/10
f 11/11/11 16/16/16 17/17/17
f 11/11/11 17/17/17 12/12/12
f 12/12/12 17/17/17 13/13/13
f 13/13/13 17/17/17 18/18/18
f 13/13/13 18/18/18 19/19/19
f 13/13/13 19/19/19 14/14/14
f 14/14/14 19/19/19 15/15/15
f 15/15/15 19/19/19 20/20/20
f 16/16/16 21/21/21 17/17/17
f 17/17/17 21/21/21 22/22/22
f 17/17/17 22/22/22 23/23/23
f 17/17/17 23/23/23 18/18/18
f 18/18/18 23/23/23 19/19/19
f 19/19/19 23/23/23 24/24/24
f 19/19/19 24/24/24 25/25/25
f 19/19/19 25/25/25 20/20/20
f 21/21/21 26/26/26 27/27/27
f 21/21/21 27/27/27 22/22/22
f 22/22/22 27/27/27 23/23/23
f 23/23/23 27/27/27 28/28/28
f 23/23/23 28/28/28 29/29/29
f 23/23/23 29/29/29 24/24/24
f 24/24/24 29/29/29 25/25/25
f 25/25/25 29/29/29 30/30/30
f 26/26/26 31/31/31 27/27/27
f 27/27/27 31/31/31 32/32/32
f 27/27/27 32/32/32 33/33/33
f 27/27/27 33/33/33 28/28/28
f 28/28/28 33/33/33 29/29/29
f 29/29/29 33/33/33 34/34/34
f 29/29/29 34/34/34 35/35/35
f 29/29/29 35/35/35 30/30/30
f 31/31/31 36/36/36 37/37/37
f 31/31/31 37/37/37 32/32/32
f 32/32/32 37/37/37 33/33/33
f 33/33/33 37/37/37 38/38/38
f 33/33/33 38/38/38 39/39/39
f 33/33/33 39/39/39 34/34/34
f 34/34/34 39/39/39 35/35/35
f 35/35/35 39/39/39 40/40/40
f 36/36/36 41/41/41 37/37/37
f 37/37/37 41/41/41 42/42/42
f 37/37/37 42/42/42 43/43/43
f 37/37/37 43/43/43 38/38/38
f 38/38/38 43/43/43 39/39/39
f 39/39/39 43/43/43 44/44/44
f 39/39/39 44/44/44 45/45/45
f 39/39/39 45/45/45 40/40/40
