# Generated by tools/generate_island.py. Do not edit by hand.
o terrain_lod2_-2_2

v -128.000 -2.027 128.000 0.385 0.350 0.199
v -128.000 -2.329 136.000 0.410 0.377 0.216
v -120.000 -1.824 136.000 0.389 0.355 0.202
v -120.000 -1.281 128.000 0.390 0.356 0.203
v -112.000 -1.120 128.000 0.393 0.360 0.205
v -112.000 -1.366 136.000 0.374 0.340 0.193
v -104.000 -1.444 136.000 0.361 0.326 0.184
v -104.000 -0.872 128.000 0.371 0.336 0.190
v -96.000 -1.074 128.000 0.369 0.334 0.189
v -96.000 -1.451 136.000 0.361 0.326 0.184
v -88.000 -1.832 136.000 0.361 0.326 0.184
v -88.000 -1.763 128.000 0.388 0.354 0.202
v -80.000 -1.395 128.000 0.411 0.377 0.217
v -80.000 -1.689 136.000 0.378 0.344 0.195
v -72.000 -1.030 136.000 0.404 0.371 0.212
v -72.000 -1.124 128.000 0.427 0.394 0.227
v -64.000 -0.432 128.000 0.439 0.407 0.235
v -64.000 -0.662 136.000 0.413 0.380 0.218
v -128.000 -2.736 144.000 0.389 0.355 0.203
v -120.000 -2.367 144.000 0.392 0.359 0.205
v -112.000 -1.648 144.000 0.391 0.357 0.204
v -104.000 -1.554 144.000 0.361 0.326 0.184
v -96.000 -1.770 144.000 0.361 0.326 0.184
v -88.000 -1.565 144.000 0.361 0.326 0.184
v -80.000 -1.690 144.000 0.361 0.326 0.184
v -72.000 -1.185 144.000 0.395 0.361 0.206
v -64.000 -1.013 144.000 0.396 0.362 0.207
v -128.000 -3.158 152.000 0.401 0.368 0.210
v -120.000 -2.578 152.000 0.417 0.383 0.220
v -112.000 -2.314 152.000 0.415 0.382 0.219
v -104.000 -2.066 152.000 0.397 0.363 0.207
v -96.000 -2.354 152.000 0.386 0.352 0.200
v -88.000 -2.012 152.000 0.381 0.347 0.197
v -80.000 -1.655 152.000 0.387 0.353 0.201
v -72.000 -1.528 152.000 0.382 0.348 0.198
v -64.000 -1.403 152.000 0.378 0.343 0.195
v -128.000 -4.091 160.000 0.427 0.394 0.227
v -120.000 -3.296 160.000 0.442 0.409 0.237
v -112.000 -3.198 160.000 0.431 0.399 0.230
v -104.000 -3.025 160.000 0.428 0.395 0.228
v -96.000 -2.746 160.000 0.435 0.402 0.232
v -88.000 -2.514 160.000 0.434 0.401 0.232
v -80.000 -1.762 160.000 0.415 0.382 0.220
v -72.000 -1.946 160.000 0.378 0.343 0.195
v -64.000 -2.192 160.000 0.362 0.327 0.185
v -128.000 -5.038 168.000 0.439 0.407 0.235
v -120.000 -4.230 168.000 0.446 0.414 0.240
v -112.000 -3.854 168.000 0.455 0.423 0.246
v -104.000 -3.823 168.000 0.428 0.395 0.228
v -96.000 -3.296 168.000 0.440 0.408 0.236
v -88.000 -3.038 168.000 0.445 0.413 0.239
v -80.000 -2.713 168.000 0.390 0.356 0.203
v -72.000 -2.825 168.000 0.370 0.335 0.190
v -64.000 -3.680 168.000 0.380 0.346 0.196
v -128.000 -5.489 176.000 0.431 0.398 0.230
v -120.000 -5.345 176.000 0.446 0.414 0.240
v -112.000 -4.923 176.000 0.428 0.395 0.228
v -104.000 -4.730 176.000 0.419 0.386 0.222
v -96.000 -4.349 176.000 0.437 0.404 0.234
v -88.000 -3.752 176.000 0.445 0.413 0.239
v -80.000 -3.937 176.000 0.401 0.367 0.210
v -72.000 -3.976 176.000 0.365 0.330 0.186
v -64.000 -4.648 176.000 0.385 0.351 0.200
v -128.000 -6.568 184.000 0.397 0.363 0.208
v -120.000 -6.548 184.000 0.430 0.397 0.229
v -112.000 -6.322 184.000 0.432 0.400 0.231
v -104.000 -5.589 184.000 0.459 0.427 0.249
v -96.000 -5.238 184.000 0.450 0.418 0.243
v -88.000 -4.669 184.000 0.432 0.400 0.231
v -80.000 -4.830 184.000 0.418 0.384 0.221
v -72.000 -5.327 184.000 0.408 0.374 0.215
v -64.000 -5.617 184.000 0.392 0.358 0.204
v -128.000 -7.879 192.000 0.440 0.408 0.236
v -120.000 -7.330 192.000 0.439 0.407 0.235
v -112.000 -7.157 192.000 0.450 0.417 0.242
v -104.000 -6.454 192.000 0.464 0.432 0.252
v -96.000 -6.010 192.000 0.464 0.433 0.252
v -88.000 -6.037 192.000 0.465 0.433 0.252
v -80.000 -6.172 192.000 0.443 0.411 0.238
v -72.000 -6.927 192.000 0.424 0.391 0.225
v -64.000 -7.322 192.000 0.423 0.390 0.225

vt 0.300000 0.300000
vt 0.300000 0.287500
vt 0.312500 0.287500
vt 0.312500 0.300000
vt 0.325000 0.300000
vt 0.325000 0.287500
vt 0.337500 0.287500
vt 0.337500 0.300000
vt 0.350000 0.300000
vt 0.350000 0.287500
vt 0.362500 0.287500
vt 0.362500 0.300000
vt 0.375000 0.300000
vt 0.375000 0.287500
vt 0.387500 0.287500
vt 0.387500 0.300000
vt 0.400000 0.300000
vt 0.400000 0.287500
vt 0.300000 0.275000
vt 0.312500 0.275000
vt 0.325000 0.275000
vt 0.337500 0.275000
vt 0.350000 0.275000
vt 0.362500 0.275000
vt 0.375000 0.275000
vt 0.387500 0.275000
vt 0.400000 0.275000
vt 0.300000 0.262500
vt 0.312500 0.262500
vt 0.325000 0.262500
vt 0.337500 0.262500
vt 0.350000 0.262500
vt 0.362500 0.262500
vt 0.375000 0.262500
vt 0.387500 0.262500
vt 0.400000 0.262500
vt 0.300000 0.250000
vt 0.312500 0.250000
vt 0.325000 0.250000
vt 0.337500 0.250000
vt 0.350000 0.250000
vt 0.362500 0.250000
vt 0.375000 0.250000
vt 0.387500 0.250000
vt 0.400000 0.250000
vt 0.300000 0.237500
vt 0.312500 0.237500
vt 0.325000 0.237500
vt 0.337500 0.237500
vt 0.350000 0.237500
vt 0.362500 0.237500
vt 0.375000 0.237500
vt 0.387500 0.237500
vt 0.400000 0.237500
vt 0.300000 0.225000
vt 0.312500 0.225000
vt 0.325000 0.225000
vt 0.337500 0.225000
vt 0.350000 0.225000
vt 0.362500 0.225000
vt 0.375000 0.225000
vt 0.387500 0.225000
vt 0.400000 0.225000
vt 0.300000 0.212500
vt 0.312500 0.212500
vt 0.325000 0.212500
vt 0.337500 0.212500
vt 0.350000 0.212500
vt 0.362500 0.212500
vt 0.375000 0.212500
vt 0.387500 0.212500
vt 0.400000 0.212500
vt 0.300000 0.200000
vt 0.312500 0.200000
vt 0.325000 0.200000
vt 0.337500 0.200000
vt 0.350000 0.200000
vt 0.362500 0.200000
vt 0.375000 0.200000
vt 0.387500 0.200000
vt 0.400000 0.200000

vn -0.07788 0.99558 0.05258
vn -0.06301 0.99703 0.04418
vn -0.06109 0.99672 0.05309
vn -0.05649 0.99611 0.06758
vn -0.02463 0.99844 0.05014
vn -0.02373 0.99917 0.03299
vn 0.00387 0.99917 0.04043
vn -0.00285 0.99745 0.07133
vn 0.03991 0.99825 0.04353
vn 0.02421 0.99876 0.04346
vn 0.01118 0.99989 0.00930
vn 0.02007 0.99976 0.00858
vn -0.04498 0.99883 0.01755
vn -0.05003 0.99858 0.01837
vn -0.05761 0.99822 0.01557
vn -0.06010 0.99812 -0.01169
vn -0.06609 0.99778 0.00851
vn -0.04592 0.99829 0.03626
vn -0.05686 0.99716 0.04933
vn -0.06777 0.99659 0.04698
vn -0.03925 0.99792 0.05105
vn 0.00763 0.99922 0.03887
vn 0.00557 0.99915 0.04074
vn -0.00504 0.99992 0.01130
vn -0.03196 0.99944 0.00955
vn -0.04223 0.99862 0.03107
vn -0.02613 0.99891 0.03867
vn -0.07208 0.99384 0.08416
vn -0.05706 0.99562 0.07412
vn -0.03183 0.99483 0.09641
vn -0.00390 0.99636 0.08513
vn -0.00335 0.99814 0.06086
vn -0.03841 0.99821 0.04594
vn -0.03027 0.99953 0.00453
vn -0.01173 0.99899 0.04328
vn -0.01557 0.99718 0.07347
vn -0.09210 0.98974 0.10923
vn -0.05539 0.99318 0.10255
vn -0.02269 0.99464 0.10085
vn -0.02812 0.99363 0.10914
vn -0.02901 0.99693 0.07267
vn -0.06123 0.99608 0.06383
vn -0.02857 0.99720 0.06917
vn 0.02676 0.99637 0.08080
vn 0.03792 0.99310 0.11093
vn -0.10006 0.99121 0.08659
vn -0.05928 0.99195 0.11190
vn -0.02526 0.99392 0.10713
vn -0.03330 0.99395 0.10464
vn -0.04881 0.99383 0.09958
vn -0.03978 0.99447 0.09720
vn -0.01315 0.99080 0.13471
vn 0.04754 0.98978 0.13445
vn 0.10499 0.98295 0.15092
vn -0.03460 0.99225 0.11933
vn -0.03496 0.98907 0.14327
vn -0.04010 0.98942 0.13943
vn -0.03565 0.99333 0.10963
vn -0.05676 0.99199 0.11286
vn -0.02557 0.99452 0.10141
vn 0.01385 0.99147 0.12961
vn 0.04386 0.98704 0.15434
vn 0.07682 0.98759 0.13702
vn -0.00256 0.98902 0.14775
vn -0.02756 0.99073 0.13303
vn -0.05921 0.98866 0.13803
vn -0.06027 0.99168 0.11376
vn -0.05711 0.99303 0.10309
vn -0.01649 0.99123 0.13111
vn 0.04070 0.98957 0.13820
vn 0.05287 0.98466 0.16630
vn 0.03577 0.98569 0.16471
vn -0.03529 0.99094 0.12959
vn -0.04486 0.99425 0.09719
vn -0.05691 0.99306 0.10292
vn -0.07109 0.99170 0.10717
vn -0.04145 0.99225 0.11712
vn 0.00998 0.98564 0.16856
vn 0.04757 0.98364 0.17373
vn 0.07031 0.97816 0.19559
vn 0.04193 0.97847 0.20207

f 1/1/1 2/2/2 3/3/3
f 1/1/1 3/3/3 4/4/4
f 4/4/4 3/3/3 5/5/5
f 5/5/5 3/3/3 6/6/6
f 5/5/5 6/6/6 7/7/7
f 5/5/5 7/7/7 8/8/8
f 8/8/8 7/7/7 9/9/9
f 9/9/9 7/7/7 10/10/10
f 9/9/9 10/10/10 11/11/11
f 9/9/9 11/11/11 12/12/12
f 12/12/12 11/11/11 13/13/13
f 13/13/13 11/11/11 14/14/14
f 13/13/13 14/14/14 15/15/15
f 13/13/13 15/15/15 16/16/16
f 16/16/16 15/15/15 17/17/17
f 17/17/17 15/15/15 18/18/18
f 2/2/2 19/19/19 3/3/3
f 3/3/3 19/19/19 20/20/20
f 3/3/3 20/20/20 21/21/21
f 3/3/3 21/21/21 6/6/6
f 6/6/6 21/21/21 7/7/7
f 7/7/7 21/21/21 22/22/22
f 7/7/7 22/22/22 23/23/23
f 7/7/7 23/23/23 10/10/10
f 10/10/10 23/23/23 11/11/11
f 11/11/11 23/23/23 24/24/24
f 11/11/11 24/24/24 25/25/25
f 11/11/11 25/25/25 14/14/14
f 14/14/14 25/25/25 15/15/15
f 15/15/15 25/25/25 26/26/26
f 15/15/15 26/26/26 27/27/27
f 15/15/15 27/27/27 18/18/18
f 19/19/19 28/28/28 29/29/29
f 19/19/19 29/29/29 20/20/20
f 20/20/20 29/29/29 21/21/21
f 21/21/21 29/29/29 30/30/30
f 21/21/21 30/30/30 31/31/31
f 21/21/21 31/31/31 22/22/22
f 22/22/22 31/31/31 23/23/23
f 23/23/23 31/31/31 32/32/32
f 23/23/23 32/32/32 33/33/33
f 23/23/23 33/33/33 24/24/24
f 24/24/24 33/33/33 25/25/25
f 25/25/25 33/33/33 34/34/34
f 25/25/25 34/34/34 35/35/35
f 25/25/25 35/35/35 26/26/26
f 26/26/26 35/35/35 27/27/27
f 27/27/27 35/35/35 36/36/36
f 28/28/28 37/37/37 29/29/29
f 29/29/29 37/37/37 38/38/38
f 29/29/29 38/38/38 39/39/39
f 29/29/29 39/39/39 30/30/30
f 30/30/30 39/39/39 31/31/31
f 31/31/31 39/39/39 40/40/40
f 31/31/31 40/40/40 41/41/41
f 31/31/31 41/41/41 32/32/32
f 32/32/32 41/41/41 33/33/33
f 33/33/33 41/41/41 42/42/42
f 33/33/33 42/42/42 43/43/43
f 33/33/33 43/43/43 34/34/34
f 34/34/34 43/43/43 35/35/35
f 35/35/35 43/43/43 44/44/44
f 35/35/35 44/44/44 45/45/45
f 35/35/35 45/45/45 36/36/36
f 37/37/37 46/46/46 47/47/47
f 37/37/37 47/47/47 38/38/38
f 38/38/38 47/47/47 39/39/39
f 39/39/39 47/47/47 48/48/48
f 39/39/39 48/48/48 49/49/49
f 39/39/39 49/49/49 40/40/40
f 40/40/40 49/49/49 41/41/41
f 41/41/41 49/49/49 50/50/50
f 41/41/41 50/50/50 51/51/51
f 41/41/41 51/51/51 42/42/42
f 42/42/42 51/51/51 43/43/43
f 43/43/43 51/51/51 52/52/52
f 43/43/43 52/52/52 53/53/53
f 43/43/43 53/53/53 44/44/44
f 44/44/44 53/53/53 45/45/45
f 45/45/45 53/53/53 54/54/54
f 46/46/46 55/55/55 47/47/47
f 47/47/47 55/55/55 56/56/56
f 47/47/47 56/56/56 57/57/57
f 47/47/47 57/57/57 48/48/48
f 48/48/48 57/57/57 49/49/49
f 49/49/49 57/57/57 58/58/58
f 49/49/49 58/58/58 59/59/59
f 49/49/49 59/59/59 50/50/50
f 50/50/50 59/59/59 51/51/51
f 51/51/51 59/59/59 60/60/60
f 51/51/51 60/60/60 61/61/61
f 51/51/51 61/61/61 52/52/52
f 52/52/52 61/61/61 53/53/53
f 53/53/53 61/61/61 62/62/62
f 53/53/53 62/62/62 63/63/63
f 53/53/53 63/63/63 54/54/54
f 55/55/55 64/64/64 65/65/65
f 55/55/55 65/65/65 56/56/56
f 56/56/56 65/65/65 57/57/57
f 57/57/57 65/65/65 66/66/66
f 57/57/57 66/66/66 67/67/67
f 57/57/57 67/67/67 58/58/58
f 58/58/58 67/67/67 59/59/59
f 59/59/59 67/67/67 68/68/68
f 59/59/59 68/68/68 69/69/69
f 59/59/59 69/69/69 60/60/60
f 60/60/60 69/69/69 61/61/61
f 61/61/61 69/69/69 70/70/70
f 61/61/61 70/70/70 71/71/71
f 61/61/61 71/71/71 62/62/62
f 62/62/62 71/71/71 63/63/63
f 63/63/63 71/71/71 72/72/72
f 64/64/64 73/73/73 65/65/65
f 65/65/65 73/73/73 74/74/74
f 65/65/65 74/74/74 75/75/75
f 65/65/65 75/75/75 66/66/66
f 66/66/66 75/75/75 67/67/67
f 67/67/67 75/75/75 76/76/76
f 67/67/67 76/76/76 77/77/77
f 67/67/67 77/77/77 68/68/68
f 68/68/68 77/77/77 69/69/69
f 69/69/69 77/77/77 78/78/78
f 69/69/69 78/78/78 79/79/79
f 69/69/69 79/79/79 70/70/70
f 70/70/70 79/79/79 71/71/71
f 71/71/71 79/79/79 80/80/80
f 71/71/71 80/80/80 81/81/81
f 71/71/71 81/81/81 72/72/72
