# Generated by tools/generate_island.py. Do not edit by hand.
o terrain_lod2_0_-4

v 0.000 -8.000 -256.000 0.555 0.526 0.312
v 0.000 -8.000 -248.000 0.554 0.526 0.311
v 8.000 -8.000 -248.000 0.537 0.508 0.300
v 8.000 -8.000 -256.000 0.540 0.511 0.302
v 16.000 -8.000 -256.000 0.516 0.485 0.286
v 16.000 -8.000 -248.000 0.504 0.474 0.278
v 24.000 -8.000 -248.000 0.503 0.472 0.277
v 24.000 -8.000 -256.000 0.481 0.450 0.263
v 32.000 -8.000 -256.000 0.439 0.406 0.235
v 32.000 -8.000 -248.000 0.457 0.425 0.247
v 40.000 -8.000 -248.000 0.437 0.404 0.234
v 40.000 -8.000 -256.000 0.417 0.384 0.221
v 48.000 -8.000 -256.000 0.417 0.383 0.220
v 48.000 -8.000 -248.000 0.447 0.415 0.240
v 56.000 -8.000 -248.000 0.451 0.419 0.243
v 56.000 -8.000 -256.000 0.427 0.395 0.228
v 64.000 -8.000 -256.000 0.445 0.413 0.239
v 64.000 -8.000 -248.000 0.441 0.409 0.237
v 0.000 -7.741 -240.000 0.557 0.528 0.313
v 8.000 -7.906 -240.000 0.517 0.487 0.287
v 16.000 -7.894 -240.000 0.509 0.478 0.281
v 24.000 -7.904 -240.000 0.511 0.481 0.283
v 32.000 -8.000 -240.000 0.485 0.454 0.266
v 40.000 -8.000 -240.000 0.449 0.417 0.242
v 48.000 -8.000 -240.000 0.467 0.436 0.254
v 56.000 -8.000 -240.000 0.471 0.440 0.256
v 64.000 -8.000 -240.000 0.449 0.417 0.242
v 0.000 -6.583 -232.000 0.525 0.495 0.292
v 8.000 -6.622 -232.000 0.529 0.500 0.295
v 16.000 -6.934 -232.000 0.535 0.505 0.298
v 24.000 -6.644 -232.000 0.522 0.492 0.290
v 32.000 -6.914 -232.000 0.505 0.475 0.279
v 40.000 -7.100 -232.000 0.470 0.439 0.256
v 48.000 -7.800 -232.000 0.473 0.441 0.257
v 56.000 -8.000 -232.000 0.471 0.440 0.256
v 64.000 -8.000 -232.000 0.474 0.443 0.258
v 0.000 -5.706 -224.000 0.546 0.517 0.306
v 8.000 -5.569 -224.000 0.535 0.506 0.298
v 16.000 -5.720 -224.000 0.521 0.491 0.289
v 24.000 -5.599 -224.000 0.522 0.492 0.290
v 32.000 -5.421 -224.000 0.501 0.470 0.276
v 40.000 -6.019 -224.000 0.469 0.438 0.255
v 48.000 -6.588 -224.000 0.466 0.435 0.253
v 56.000 -7.674 -224.000 0.470 0.439 0.256
v 64.000 -8.000 -224.000 0.480 0.449 0.262
v 0.000 -4.597 -216.000 0.548 0.519 0.307
v 8.000 -4.585 -216.000 0.530 0.500 0.295
v 16.000 -4.275 -216.000 0.518 0.488 0.287
v 24.000 -4.379 -216.000 0.496 0.466 0.273
v 32.000 -4.401 -216.000 0.481 0.450 0.263
v 40.000 -5.130 -216.000 0.480 0.449 0.262
v 48.000 -6.108 -216.000 0.475 0.444 0.259
v 56.000 -6.737 -216.000 0.477 0.446 0.260
v 64.000 -7.644 -216.000 0.468 0.437 0.255
v 0.000 -3.633 -208.000 0.548 0.519 0.307
v 8.000 -3.736 -208.000 0.529 0.499 0.295
v 16.000 -3.377 -208.000 0.507 0.476 0.280
v 24.000 -3.402 -208.000 0.467 0.435 0.253
v 32.000 -3.945 -208.000 0.443 0.411 0.238
v 40.000 -4.419 -208.000 0.424 0.391 0.225
v 48.000 -5.441 -208.000 0.442 0.409 0.237
v 56.000 -5.834 -208.000 0.455 0.423 0.246
v 64.000 -6.238 -208.000 0.465 0.433 0.252
v 0.000 -3.237 -200.000 0.516 0.486 0.286
v 8.000 -2.927 -200.000 0.517 0.487 0.287
v 16.000 -2.796 -200.000 0.496 0.465 0.272
v 24.000 -2.518 -200.000 0.457 0.425 0.247
v 32.000 -3.084 -200.000 0.429 0.397 0.229
v 40.000 -3.640 -200.000 0.407 0.373 0.214
v 48.000 -4.285 -200.000 0.429 0.396 0.228
v 56.000 -4.913 -200.000 0.443 0.410 0.238
v 64.000 -5.141 -200.000 0.454 0.422 0.245
v 0.000 -2.619 -192.000 0.476 0.445 0.260
v 8.000 -2.020 -192.000 0.477 0.446 0.260
v 16.000 -1.958 -192.000 0.481 0.450 0.263
v 24.000 -1.964 -192.000 0.463 0.431 0.251
v 32.000 -2.341 -192.000 0.450 0.418 0.243
v 40.000 -3.207 -192.000 0.401 0.368 0.211
v 48.000 -3.579 -192.000 0.427 0.395 0.228
v 56.000 -4.101 -192.000 0.432 0.400 0.231
v 64.000 -4.482 -192.000 0.433 0.400 0.231

vt 0.500000 0.900000
vt 0.500000 0.887500
vt 0.512500 0.887500
vt 0.512500 0.900000
vt 0.525000 0.900000
vt 0.525000 0.887500
vt 0.537500 0.887500
vt 0.537500 0.900000
vt 0.550000 0.900000
vt 0.550000 0.887500
vt 0.562500 0.887500
vt 0.562500 0.900000
vt 0.575000 0.900000
vt 0.575000 0.887500
vt 0.587500 0.887500
vt 0.587500 0.900000
vt 0.600000 0.900000
vt 0.600000 0.887500
vt 0.500000 0.875000
vt 0.512500 0.875000
vt 0.525000 0.875000
vt 0.537500 0.875000
vt 0.550000 0.875000
vt 0.562500 0.875000
vt 0.575000 0.875000
vt 0.587500 0.875000
vt 0.600000 0.875000
vt 0.500000 0.862500
vt 0.512500 0.862500
vt 0.525000 0.862500
vt 0.537500 0.862500
vt 0.550000 0.862500
vt 0.562500 0.862500
vt 0.575000 0.862500
vt 0.587500 0.862500
vt 0.600000 0.862500
vt 0.500000 0.850000
vt 0.512500 0.850000
vt 0.525000 0.850000
vt 0.537500 0.850000
vt 0.550000 0.850000
vt 0.562500 0.850000
vt 0.575000 0.850000
vt 0.587500 0.850000
vt 0.600000 0.850000
vt 0.500000 0.837500
vt 0.512500 0.837500
vt 0.525000 0.837500
vt 0.537500 0.837500
vt 0.550000 0.837500
vt 0.562500 0.837500
vt 0.575000 0.837500
vt 0.587500 0.837500
vt 0.600000 0.837500
vt 0.500000 0.825000
vt 0.512500 0.825000
vt 0.525000 0.825000
vt 0.537500 0.825000
vt 0.550000 0.825000
vt 0.562500 0.825000
vt 0.575000 0.825000
vt 0.587500 0.825000
vt 0.600000 0.825000
vt 0.500000 0.812500
vt 0.512500 0.812500
vt 0.525000 0.812500
vt 0.537500 0.812500
vt 0.550000 0.812500
vt 0.562500 0.812500
vt 0.575000 0.812500
vt 0.587500 0.812500
vt 0.600000 0.812500
vt 0.500000 0.800000
vt 0.512500 0.800000
vt 0.525000 0.800000
vt 0.537500 0.800000
vt 0.550000 0.800000
vt 0.562500 0.800000
vt 0.575000 0.800000
vt 0.587500 0.800000
vt 0.600000 0.800000

vn 0.00000 1.00000 0.00000
vn 0.00000 0.99987 -0.01619
vn 0.00239 0.99996 -0.00865
vn 0.00000 1.00000 0.00000
vn 0.00000 1.00000 0.00000
vn 0.00000 0.99998 -0.00661
vn 0.00165 0.99999 -0.00466
vn 0.00000 1.00000 0.00000
vn 0.00000 1.00000 0.00000
vn 0.00000 1.00000 0.00000
vn 0.00000 1.00000 0.00000
vn 0.00000 1.00000 0.00000
vn 0.00000 1.00000 0.00000
vn 0.00000 1.00000 0.00000
vn 0.00000 1.00000 0.00000
vn 0.00000 1.00000 0.00000
vn 0.00000 1.00000 0.00000
vn 0.00000 1.00000 0.00000
vn 0.01147 0.99614 -0.08702
vn 0.00954 0.99626 -0.08582
vn 0.00028 0.99712 -0.07583
vn 0.00659 0.99640 -0.08447
vn 0.01012 0.99756 -0.06903
vn 0.00000 0.99842 -0.05615
vn 0.01406 0.99970 -0.02030
vn 0.00000 1.00000 0.00000
vn 0.00000 1.00000 0.00000
vn 0.00479 0.99200 -0.12618
vn 0.01345 0.99042 -0.13747
vn 0.00136 0.99089 -0.13465
vn -0.00361 0.98946 -0.14475
vn 0.02816 0.98687 -0.15907
vn 0.04554 0.99134 -0.12317
vn 0.05594 0.99457 -0.08776
vn 0.02828 0.99908 -0.03221
vn 0.00000 1.00000 0.00000
vn -0.00765 0.99216 -0.12471
vn 0.00089 0.99200 -0.12626
vn -0.00193 0.98889 -0.14863
vn -0.01851 0.98996 -0.14014
vn 0.03167 0.98920 -0.14314
vn 0.07222 0.98991 -0.12189
vn 0.09003 0.99066 -0.10243
vn 0.08762 0.99306 -0.07840
vn 0.04859 0.99754 -0.05048
vn -0.00146 0.99171 -0.12850
vn -0.01373 0.99203 -0.12527
vn -0.01278 0.98937 -0.14488
vn 0.00807 0.99183 -0.12729
vn 0.04672 0.99468 -0.09176
vn 0.09415 0.99146 -0.09024
vn 0.09967 0.99247 -0.07117
vn 0.08180 0.99141 -0.10209
vn 0.11199 0.98774 -0.10876
vn -0.00355 0.99557 -0.09391
vn -0.01588 0.99455 -0.10305
vn -0.01997 0.99472 -0.10067
vn 0.03523 0.99269 -0.11543
vn 0.06068 0.99382 -0.09292
vn 0.09270 0.99140 -0.09233
vn 0.08834 0.99025 -0.10770
vn 0.04945 0.99235 -0.11312
vn 0.06011 0.98919 -0.13374
vn -0.03854 0.99726 -0.06319
vn -0.02797 0.99544 -0.09123
vn -0.02547 0.99576 -0.08834
vn 0.02377 0.99550 -0.09175
vn 0.06960 0.99260 -0.09950
vn 0.07964 0.99263 -0.09134
vn 0.07879 0.99021 -0.11524
vn 0.05293 0.99254 -0.10985
vn 0.02833 0.99363 -0.10907
vn -0.05639 0.99390 -0.09474
vn -0.04102 0.99279 -0.11260
vn -0.01448 0.99512 -0.09757
vn 0.02390 0.99732 -0.06910
vn 0.07349 0.99433 -0.07685
vn 0.07701 0.99557 -0.05386
vn 0.06733 0.99431 -0.08255
vn 0.05607 0.99332 -0.10082
vn 0.03787 0.99508 -0.09150

f 1/1/1 2/2/2 3/3/3
f 1/1/1 3/3/3 4/4/4
f 4/4/4 3/3/3 5/5/5
f 5/5/5 3/3/3 6/6/6
f 5/5/5 6/6/6 7/7/7
f 5/5/5 7/7/7 8/8/8
f 8/8/8 7/7/7 9/9/9
f 9/9/9 7/7/7 10/10/10
f 9/9/9 10/10/10 11/11/11
f 9/9/9 11/11/11 12/12/12
f 12/12/12 11/11/11 13/13/13
f 13/13/13 11/11/11 14/14/14
f 13/13/13 14/14/14 15/15/15
f 13/13/13 15/15/15 16/16/16
f 16/16/16 15/15/15 17/17/17
f 17/17/17 15/15/15 18/18/18
f 2/2/2 19/19/19 3/3/3
f 3/3/3 19/19/19 20/20/20
f 3/3/3 20/20/20 21/21/21
f 3/3/3 21/21/21 6/6/6
f 6/6/6 21/21/21 7/7/7
f 7/7/7 21/21/21 22/22/22
f 7/7/7 22/22/22 23/23/23
f 7/7/7 23/23/23 10/10/10
f 10/10/10 23/23/23 11/11/11
f 11/11/11 23/23/23 24/24/24
f 11/11/11 24/24/24 25/25/25
f 11/11/11 25/25/25 14/14/14
f 14/14/14 25/25/25 15/15/15
f 15/15/15 25/25/25 26/26/26
f 15/15/15 26/26/26 27/27/27
f 15/15/15 27/27/27 18/18/18
f 19/19/19 28/28/28 29/29/29
f 19/19/19 29/29/29 20/20/20
f 20/20/20 29/29/29 21/21/21
f 21/21/21 29/29/29 30/30/30
f 21/21/21 30/30/30 31/31/31
f 21/21/21 31/31/31 22/22/22
f 22/22/22 31/31/31 23/23/23
f 23/23/23 31/31/31 32/32/32
f 23/23/23 32/32/32 33/33/33
f 23/23/23 33/33/33 24/24/24
f 24/24/24 33/33/33 25/25/25
f 25/25/25 33/33/33 34/34/34
f 25/25/25 34/34/34 35/35/35
f 25/25/25 35/35/35 26/26/26
f 26/26/26 35/35/35 27/27/27
f 27/27/27 35/35/35 36/36/36
f 28/28/28 37/37/37 29/29/29
f 29/29/29 37/37/37 38/38/38
f 29/29/29 38/38/38 39/39/39
f 29/29/29 39/39/39 30/30/30
f 30/30/30 39/39/39 31/31/31
f 31/31/31 39/39/39 40/40/40
f 31/31/31 40/40/40 41/41/41
f 31/31/31 41/41/41 32/32/32
f 32/32/32 41/41/41 33/33/33
f 33/33/33 41/41/41 42/42/42
f 33/33/33 42/42/42 43/43/43
f 33/33/33 43/43/43 34/34/34
f 34/34/34 43/43/43 35/35/35
f 35/35/35 43/43/43 44/44/44
f 35/35/35 44/44/44 45/45/45
f 35/35/35 45/45/45 36/36/36
f 37/37/37 46/46/46 47/47/47
f 37/37/37 47/47/47 38/38/38
f 38/38/38 47/47/47 39/39/39
f 39/39/39 47/47/47 48/48/48
f 39/39/39 48/48/48 49/49/49
f 39/39/39 49/49/49 40/40/40
f 40/40/40 49/49/49 41/41/41
f 41/41/41 49/49/49 50/50/50
f 41/41/41 50/50/50 51/51/51
f 41/41/41 51/51/51 42/42/42
f 42/42/42 51/51/51 43/43/43
f 43/43/43 51/51/51 52/52/52
f 43/43/43 52/52/52 53/53/53
f 43/43/43 53/53/53 44/44/44
f 44/44/44 53/53/53 45/45/45
f 45/45/45 53/53/53 54/54/54
f 46/46/46 55/55/55 47/47/47
f 47/47/47 55/55/55 56/56/56
f 47/47/47 56/56/56 57/57/57
f 47/47/47 57/57/57 48/48/48
f 48/48/48 57/57/57 49/49/49
f 49/49/49 57/57/57 58/58/58
f 49/49/49 58/58/58 59/59/59
f 49/49/49 59/59/59 50/50/50
f 50/50/50 59/59/59 51/51/51
f 51/51/51 59/59/59 60/60/60
f 51/51/51 60/60/60 61/61/61
f 51/51/51 61/61/61 52/52/52
f 52/52/52 61/61/61 53/53/53
f 53/53/53 61/61/61 62/62/62
f 53/53/53 62/62/62 63/63/63
f 53/53/53 63/63/63 54/54/54
f 55/55/55 64/64/64 65/65/65
f 55/55/55 65/65/65 56/56/56
f 56/56/56 65/65/65 57/57/57
f 57/57/57 65/65/65 66/66/66
f 57/57/57 66/66/66 67/67/67
f 57/57/57 67/67/67 58/58/58
f 58/58/58 67/67/67 59/59/59
f 59/59/59 67/67/67 68/68/68
f 59/59/59 68/68/68 69/69/69
f 59/59/59 69/69/69 60/60/60
f 60/60/60 69/69/69 61/61/61
f 61/61/61 69/69/69 70/70/70
f 61/61/61 70/70/70 71/71/71
f 61/61/61 71/71/71 62/62/62
f 62/62/62 71/71/71 63/63/63
f 63/63/63 71/71/71 72/72/72
f 64/64/64 73/73/73 65/65/65
f 65/65/65 73/73/73 74/74/74
f 65/65/65 74/74/74 75/75/75
f 65/65/65 75/75/75 66/66/66
f 66/66/66 75/75/75 67/67/67
f 67/67/67 75/75/75 76/76/76
f 67/67/67 76/76/76 77/77/77
f 67/67/67 77/77/77 68/68/68
f 68/68/68 77/77/77 69/69/69
f 69/69/69 77/77/77 78/78/78
f 69/69/69 78/78/78 79/79/79
f 69/69/69 79/79/79 70/70/70
f 70/70/70 79/79/79 71/71/71
f 71/71/71 79/79/79 80/80/80
f 71/71/71 80/80/80 81/81/81
f 71/71/71 81/81/81 72/72/72
