# Generated by tools/generate_island.py. Do not edit by hand.
o terrain_lod2_-2_-1

v -128.000 -1.524 -64.000 0.514 0.484 0.285
v -128.000 -0.608 -56.000 0.528 0.498 0.294
v -120.000 0.433 -56.000 0.541 0.512 0.302
v -120.000 -0.438 -64.000 0.522 0.492 0.290
v -112.000 1.402 -64.000 0.272 0.340 0.127
v -112.000 2.794 -56.000 0.258 0.329 0.123
v -104.000 3.198 -56.000 0.252 0.325 0.121
v -104.000 2.752 -64.000 0.261 0.332 0.124
v -96.000 3.119 -64.000 0.257 0.329 0.122
v -96.000 2.902 -56.000 0.230 0.308 0.113
v -88.000 1.975 -56.000 0.235 0.312 0.115
v -88.000 1.945 -64.000 0.260 0.331 0.123
v -80.000 1.903 -64.000 0.254 0.326 0.121
v -80.000 1.807 -56.000 0.249 0.322 0.120
v -72.000 1.501 -56.000 0.258 0.329 0.123
v -72.000 2.244 -64.000 0.250 0.323 0.120
v -64.000 3.698 -64.000 0.238 0.314 0.116
v -64.000 3.809 -56.000 0.249 0.323 0.120
v -128.000 0.559 -48.000 0.545 0.515 0.305
v -120.000 1.971 -48.000 0.276 0.344 0.129
v -112.000 3.465 -48.000 0.264 0.334 0.125
v -104.000 5.074 -48.000 0.332 0.347 0.260
v -96.000 4.726 -48.000 0.222 0.302 0.111
v -88.000 4.374 -48.000 0.229 0.307 0.113
v -80.000 3.310 -48.000 0.237 0.313 0.116
v -72.000 2.191 -48.000 0.252 0.325 0.121
v -64.000 6.072 -48.000 0.373 0.378 0.285
v -128.000 1.405 -40.000 0.253 0.326 0.121
v -120.000 3.493 -40.000 0.258 0.330 0.123
v -112.000 6.514 -40.000 0.339 0.353 0.265
v -104.000 11.130 -40.000 0.355 0.365 0.274
v -96.000 9.881 -40.000 0.333 0.348 0.261
v -88.000 9.183 -40.000 0.327 0.344 0.258
v -80.000 5.809 -40.000 0.324 0.341 0.255
v -72.000 6.904 -40.000 0.344 0.357 0.268
v -64.000 13.409 -40.000 0.365 0.372 0.280
v -128.000 3.040 -32.000 0.233 0.310 0.114
v -120.000 6.172 -32.000 0.319 0.338 0.252
v -112.000 11.395 -32.000 0.313 0.334 0.249
v -104.000 17.271 -32.000 0.354 0.364 0.273
v -96.000 15.999 -32.000 0.351 0.362 0.272
v -88.000 14.139 -32.000 0.339 0.353 0.264
v -80.000 9.315 -32.000 0.329 0.345 0.258
v -72.000 12.240 -32.000 0.327 0.344 0.257
v -64.000 18.820 -32.000 0.342 0.355 0.266
v -128.000 4.536 -24.000 0.231 0.309 0.114
v -120.000 7.884 -24.000 0.321 0.339 0.254
v -112.000 15.211 -24.000 0.328 0.345 0.258
v -104.000 20.482 -24.000 0.308 0.330 0.246
v -96.000 18.633 -24.000 0.333 0.349 0.261
v -88.000 16.946 -24.000 0.331 0.347 0.260
v -80.000 12.534 -24.000 0.317 0.337 0.251
v -72.000 14.207 -24.000 0.305 0.327 0.244
v -64.000 18.916 -24.000 0.327 0.344 0.257
v -128.000 4.552 -16.000 0.210 0.292 0.107
v -120.000 9.091 -16.000 0.307 0.329 0.245
v -112.000 14.306 -16.000 0.309 0.330 0.246
v -104.000 13.451 -16.000 0.296 0.321 0.238
v -96.000 14.738 -16.000 0.298 0.322 0.240
v -88.000 17.647 -16.000 0.312 0.333 0.248
v -80.000 12.728 -16.000 0.284 0.312 0.231
v -72.000 12.673 -16.000 0.275 0.305 0.225
v -64.000 14.694 -16.000 0.276 0.307 0.227
v -128.000 4.702 -8.000 0.200 0.284 0.103
v -120.000 9.330 -8.000 0.272 0.303 0.224
v -112.000 13.622 -8.000 0.273 0.304 0.225
v -104.000 9.064 -8.000 0.282 0.311 0.230
v -96.000 11.710 -8.000 0.273 0.304 0.224
v -88.000 16.712 -8.000 0.265 0.298 0.219
v -80.000 12.510 -8.000 0.266 0.299 0.220
v -72.000 11.217 -8.000 0.262 0.296 0.218
v -64.000 12.521 -8.000 0.245 0.284 0.208
v -128.000 3.446 0.000 0.234 0.311 0.115
v -120.000 7.908 0.000 0.304 0.327 0.243
v -112.000 14.764 0.000 0.290 0.317 0.235
v -104.000 17.744 0.000 0.271 0.303 0.223
v -96.000 17.928 0.000 0.263 0.297 0.219
v -88.000 16.342 0.000 0.248 0.286 0.209
v -80.000 10.997 0.000 0.247 0.285 0.209
v -72.000 8.266 0.000 0.232 0.274 0.200
v -64.000 8.142 0.000 0.216 0.262 0.190

vt 0.300000 0.600000
vt 0.300000 0.587500
vt 0.312500 0.587500
vt 0.312500 0.600000
vt 0.325000 0.600000
vt 0.325000 0.587500
vt 0.337500 0.587500
vt 0.337500 0.600000
vt 0.350000 0.600000
vt 0.350000 0.587500
vt 0.362500 0.587500
vt 0.362500 0.600000
vt 0.375000 0.600000
vt 0.375000 0.587500
vt 0.387500 0.587500
vt 0.387500 0.600000
vt 0.400000 0.600000
vt 0.400000 0.587500
vt 0.300000 0.575000
vt 0.312500 0.575000
vt 0.325000 0.575000
vt 0.337500 0.575000
vt 0.350000 0.575000
vt 0.362500 0.575000
vt 0.375000 0.575000
vt 0.387500 0.575000
vt 0.400000 0.575000
vt 0.300000 0.562500
vt 0.312500 0.562500
vt 0.325000 0.562500
vt 0.337500 0.562500
vt 0.350000 0.562500
vt 0.362500 0.562500
vt 0.375000 0.562500
vt 0.387500 0.562500
vt 0.400000 0.562500
vt 0.300000 0.550000
vt 0.312500 0.550000
vt 0.325000 0.550000
vt 0.337500 0.550000
vt 0.350000 0.550000
vt 0.362500 0.550000
vt 0.375000 0.550000
vt 0.387500 0.550000
vt 0.400000 0.550000
vt 0.300000 0.537500
vt 0.312500 0.537500
vt 0.325000 0.537500
vt 0.337500 0.537500
vt 0.350000 0.537500
vt 0.362500 0.537500
vt 0.375000 0.537500
vt 0.387500 0.537500
vt 0.400000 0.537500
vt 0.300000 0.525000
vt 0.312500 0.525000
vt 0.325000 0.525000
vt 0.337500 0.525000
vt 0.350000 0.525000
vt 0.362500 0.525000
vt 0.375000 0.525000
vt 0.387500 0.525000
vt 0.400000 0.525000
vt 0.300000 0.512500
vt 0.312500 0.512500
vt 0.325000 0.512500
vt 0.337500 0.512500
vt 0.350000 0.512500
vt 0.362500 0.512500
vt 0.375000 0.512500
vt 0.387500 0.512500
vt 0.400000 0.512500
vt 0.300000 0.500000
vt 0.312500 0.500000
vt 0.325000 0.500000
vt 0.337500 0.500000
vt 0.350000 0.500000
vt 0.362500 0.500000
vt 0.375000 0.500000
vt 0.387500 0.500000
vt 0.400000 0.500000

vn -0.13096 0.98526 -0.11008
vn -0.12798 0.98348 -0.12804
vn -0.19190 0.97193 -0.13613
vn -0.17888 0.97808 -0.10655
vn -0.18151 0.97541 -0.12500
vn -0.16890 0.97754 -0.12604
vn -0.04941 0.99046 -0.12865
vn -0.10654 0.99277 -0.05531
vn 0.06332 0.99799 -0.00126
vn 0.07585 0.99213 -0.09961
vn 0.07458 0.98976 -0.12172
vn 0.07582 0.99711 -0.00369
vn 0.00547 0.99959 0.02827
vn 0.02950 0.99572 -0.08756
vn -0.13235 0.98957 -0.05681
vn -0.11101 0.98955 0.09197
vn -0.22868 0.97274 0.03846
vn -0.27442 0.95120 -0.14113
vn -0.18070 0.97141 -0.15400
vn -0.17563 0.96693 -0.18493
vn -0.24195 0.93239 -0.26854
vn -0.07040 0.89371 -0.44309
vn 0.06488 0.90841 -0.41302
vn 0.08044 0.90879 -0.40943
vn 0.10528 0.94655 -0.30490
vn -0.16140 0.93501 -0.31577
vn -0.42459 0.81975 -0.38437
vn -0.24978 0.95687 -0.14836
vn -0.30650 0.91324 -0.26844
vn -0.39321 0.82381 -0.40831
vn -0.16056 0.81574 -0.55569
vn 0.09901 0.81346 -0.57314
vn 0.21488 0.84661 -0.48691
vn 0.13218 0.92802 -0.34830
vn -0.34444 0.80251 -0.48717
vn -0.53663 0.65994 -0.52584
vn -0.33529 0.91712 -0.21556
vn -0.44979 0.86130 -0.23633
vn -0.51211 0.77237 -0.37575
vn -0.24107 0.83788 -0.48973
vn 0.15939 0.86832 -0.46969
vn 0.35183 0.84218 -0.40860
vn 0.12483 0.90629 -0.40380
vn -0.47547 0.80030 -0.36530
vn -0.57739 0.75799 -0.30344
vn -0.38454 0.91901 -0.08686
vn -0.52000 0.84340 -0.13522
vn -0.61242 0.77777 -0.14149
vn -0.18172 0.97907 0.09164
vn 0.21518 0.97355 0.07674
vn 0.30750 0.94193 -0.13494
vn 0.16508 0.96458 -0.20575
vn -0.35416 0.93518 -0.00223
vn -0.49519 0.84125 0.21698
vn -0.46981 0.88165 -0.04442
vn -0.51899 0.85131 -0.07694
vn -0.30670 0.93233 0.19157
vn -0.02195 0.81378 0.58076
vn -0.17858 0.91405 0.36417
vn 0.12464 0.99210 0.01449
vn 0.27294 0.96078 0.04912
vn -0.11991 0.97589 0.18239
vn -0.28867 0.91873 0.26946
vn -0.49980 0.86408 0.05975
vn -0.51909 0.85377 0.04020
vn 0.01661 0.99945 -0.02861
vn 0.00353 0.98221 -0.18777
vn -0.42447 0.88797 -0.17703
vn 0.11393 0.99333 0.01787
vn 0.32313 0.94087 0.10176
vn 0.01306 0.96604 0.25805
vn -0.14919 0.91507 0.37469
vn -0.48881 0.86042 0.14401
vn -0.57153 0.80792 0.14356
vn -0.27550 0.92120 -0.27474
vn -0.13280 0.67169 -0.72883
vn -0.16162 0.82806 -0.53684
vn 0.39711 0.91679 0.04245
vn 0.38407 0.90566 0.17961
vn 0.16512 0.92533 0.34132
vn -0.06691 0.90709 0.41558

f 1/1/1 2/2/2 3/3/3
f 1/1/1 3/3/3 4/4/4
f 4/4/4 3/3/3 5/5/5
f 5/5/5 3/3/3 6/6/6
f 5/5/5 6/6/6 7/7/7
f 5/5/5 7/7/7 8/8/8
f 8/8/8 7/7/7 9/9/9
f 9/9/9 7/7/7 10/10/10
f 9/9/9 10/10/10 11/11/11
f 9/9/9 11/11/11 12/12/12
f 12/12/12 11/11/11 13/13/13
f 13/13/13 11/11/11 14/14/14
f 13/13/13 14/14/14 15/15/15
f 13/13/13 15/15/15 16/16/16
f 16/16/16 15/15/15 17/17/17
f 17/17/17 15/15/15 18/18/18
f 2/2/2 19/19/19 3/3/3
f 3/3/3 19/19/19 20/20/20
f 3/3/3 20/20/20 21/21/21
f 3/3/3 21/21/21 6/6/6
f 6/6/6 21/21/21 7/7/7
f 7/7/7 21/21/21 22/22/22
f 7/7/7 22/22/22 23/23/23
f 7/7/7 23/23/23 10/10/10
f 10/10/10 23/23/23 11/11/11
f 11/11/11 23/23/23 24/24/24
f 11/11/11 24/24/24 25/25/25
f 11/11/11 25/25/25 14/14/14
f 14/14/14 25/25/25 15/15/15
f 15/15/15 25/25/25 26/26/26
f 15/15/15 26/26/26 27/27/27
f 15/15/15 27/27/27 18/18/18
f 19/19/19 28/28/28 29/29/29
f 19/19/19 29/29/29 20/20/20
f 20/20/20 29/29/29 21/21/21
f 21/21/21 29/29/29 30/30/30
f 21/21/21 30/30/30 31/31/31
f 21/21/21 31/31/31 22/22/22
f 22/22/22 31/31/31 23/23/23
f 23/23/23 31/31/31 32/32/32
f 23/23/23 32/32/32 33/33/33
f 23/23/23 33/33/33 24/24/24
f 24/24/24 33/33/33 25/25/25
f 25/25/25 33/33/33 34/34/34
f 25/25/25 34/34/34 35/35/35
f 25/25/25 35/35/35 26/26/26
f 26/26/26 35/35/35 27/27/27
f 27/27/27 35/35/35 36/36/36
f 28/28/28 37/37/37 29/29/29
f 29/29/29 37/37/37 38/38/38
f 29/29/29 38/38/38 39/39/39
f 29/29/29 39/39/39 30/30/30
f 30/30/30 39/39/39 31/31/31
f 31/31/31 39/39/39 40/40/40
f 31/31/31 40/40/40 41/41/41
f 31/31/31 41/41/41 32/32/32
f 32/32/32 41/41/41 33/33/33
f 33/33/33 41/41/41 42/42/42
f 33/33/33 42/42/42 43/43/43
f 33/33/33 43/43/43 34/34/34
f 34/34/34 43/43/43 35/35/35
f 35/35/35 43/43/43 44/44/44
f 35/35/35 44/44/44 45/45/45
f 35/35/35 45/45/45 36/36/36
f 37/37/37 46/46/46 47/47/47
f 37/37/37 47/47/47 38/38/38
f 38/38/38 47/47/47 39/39/39
f 39/39/39 47/47/47 48/48/48
f 39/39/39 48/48/48 49/49/49
f 39/39/39 49/49/49 40/40/40
f 40/40/40 49/49/49 41/41/41
f 41/41/41 49/49/49 50/50/50
f 41/41/41 50/50/50 51/51/51
f 41/41/41 51/51/51 42/42/42
f 42/42/42 51/51/51 43/43/43
f 43/43/43 51/51/51 52/52/52
f 43/43/43 52/52/52 53/53/53
f 43/43/43 53/53/53 44/44/44
f 44/44/44 53/53/53 45/45/45
f 45/45/45 53/53/53 54/54/54
f 46/46/46 55/55/55 47/47/47
f 47/47/47 55/55/55 56/56/56
f 47/47/47 56/56/56 57/57/57
f 47/47/47 57/57/57 48/48/48
f 48/48/48 57/57/57 49/49/49
f 49/49/49 57/57/57 58/58/58
f 49/49/49 58/58/58 59/59/59
f 49/49/49 59/59/59 50/50/50
f 50/50/50 59/59/59 51/51/51
f 51/51/51 59/59/59 60/60/60
f 51/51/51 60/60/60 61/61/61
f 51/51/51 61/61/61 52/52/52
f 52/52/52 61/61/61 53/53/53
f 53/53/53 61/61/61 62/62/62
f 53/53/53 62/62/62 63/63/63
f 53/53/53 63/63/63 54/54/54
f 55/55/55 64/64/64 65/65/65
f 55/55/55 65/65/65 56/56/56
f 56/56/56 65/65/65 57/57/57
f 57/57/57 65/65/65 66/66/66
f 57/57/57 66/66/66 67/67/67
f 57/57/57 67/67/67 58/58/58
f 58/58/58 67/67/67 59/59/59
f 59/59/59 67/67/67 68/68/68
f 59/59/59 68/68/68 69/69/69
f 59/59/59 69/69/69 60/60/60
f 60/60/60 69/69/69 61/61/61
f 61/61/61 69/69/69 70/70/70
f 61/61/61 70/70/70 71/71/71
f 61/61/61 71/71/71 62/62/62
f 62/62/62 71/71/71 63/63/63
f 63/63/63 71/71/71 72/72/72
f 64/64/64 73/73/73 65/65/65
f 65/65/65 73/73/73 74/74/74
f 65/65/65 74/74/74 75/75/75
f 65/65/65 75/75/75 66/66/66
f 66/66/66 75/75/75 67/67/67
f 67/67/67 75/75/75 76/76/76
f 67/67/67 76/76/76 77/77/77
f 67/67/67 77/77/77 68/68/68
f 68/68/68 77/77/77 69/69/69
f 69/69/69 77/77/77 78/78/78
f 69/69/69 78/78/78 79/79/79
f 69/69/69 79/79/79 70/70/70
f 70/70/70 79/79/79 71/71/71
f 71/71/71 79/79/79 80/80/80
f 71/71/71 80/80/80 81/81/81
f 71/71/71 81/81/81 72/72/72
