# Generated by tools/generate_island.py. Do not edit by hand.
o terrain_lod2_-2_1

v -128.000 -0.405 64.000 0.377 0.342 0.194
v -128.000 -0.019 72.000 0.408 0.375 0.215
v -120.000 -1.269 72.000 0.399 0.366 0.209
v -120.000 0.129 64.000 0.361 0.326 0.184
v -112.000 0.213 64.000 0.388 0.354 0.202
v -112.000 0.099 72.000 0.403 0.369 0.211
v -104.000 0.421 72.000 0.418 0.385 0.221
v -104.000 1.071 64.000 0.427 0.395 0.228
v -96.000 1.134 64.000 0.469 0.437 0.255
v -96.000 0.804 72.000 0.432 0.400 0.231
v -88.000 0.913 72.000 0.454 0.422 0.245
v -88.000 0.886 64.000 0.486 0.455 0.266
v -80.000 2.596 64.000 0.229 0.307 0.113
v -80.000 1.792 72.000 0.210 0.292 0.107
v -72.000 2.648 72.000 0.203 0.287 0.104
v -72.000 4.652 64.000 0.206 0.289 0.105
v -64.000 3.121 64.000 0.205 0.288 0.105
v -64.000 1.675 72.000 0.201 0.285 0.104
v -128.000 0.648 80.000 0.453 0.421 0.244
v -120.000 0.084 80.000 0.456 0.424 0.246
v -112.000 0.226 80.000 0.433 0.401 0.232
v -104.000 0.416 80.000 0.397 0.363 0.208
v -96.000 0.526 80.000 0.385 0.351 0.200
v -88.000 0.988 80.000 0.390 0.356 0.203
v -80.000 0.859 80.000 0.397 0.364 0.208
v -72.000 0.614 80.000 0.432 0.400 0.231
v -64.000 0.393 80.000 0.460 0.428 0.249
v -128.000 0.446 88.000 0.445 0.413 0.239
v -120.000 0.174 88.000 0.450 0.418 0.243
v -112.000 -0.432 88.000 0.438 0.405 0.234
v -104.000 0.255 88.000 0.386 0.352 0.200
v -96.000 0.406 88.000 0.373 0.338 0.192
v -88.000 0.780 88.000 0.392 0.358 0.204
v -80.000 1.258 88.000 0.156 0.250 0.089
v -72.000 0.757 88.000 0.408 0.375 0.215
v -64.000 0.957 88.000 0.434 0.402 0.232
v -128.000 -0.444 96.000 0.421 0.388 0.223
v -120.000 -0.582 96.000 0.431 0.399 0.230
v -112.000 -0.527 96.000 0.425 0.393 0.226
v -104.000 0.322 96.000 0.386 0.352 0.200
v -96.000 0.936 96.000 0.396 0.362 0.207
v -88.000 0.594 96.000 0.420 0.387 0.223
v -80.000 1.118 96.000 0.416 0.383 0.220
v -72.000 0.904 96.000 0.429 0.396 0.228
v -64.000 0.888 96.000 0.421 0.388 0.223
v -128.000 -0.668 104.000 0.375 0.341 0.193
v -120.000 -0.817 104.000 0.396 0.362 0.207
v -112.000 -0.391 104.000 0.386 0.352 0.200
v -104.000 -0.228 104.000 0.385 0.351 0.200
v -96.000 0.044 104.000 0.396 0.362 0.207
v -88.000 0.078 104.000 0.407 0.374 0.214
v -80.000 -0.237 104.000 0.435 0.403 0.233
v -72.000 0.340 104.000 0.453 0.421 0.245
v -64.000 0.630 104.000 0.466 0.435 0.253
v -128.000 -1.182 112.000 0.366 0.331 0.187
v -120.000 -1.669 112.000 0.389 0.355 0.203
v -112.000 -1.162 112.000 0.396 0.362 0.207
v -104.000 -0.606 112.000 0.394 0.360 0.205
v -96.000 -0.686 112.000 0.404 0.371 0.212
v -88.000 -0.312 112.000 0.416 0.383 0.220
v -80.000 -0.725 112.000 0.433 0.400 0.231
v -72.000 -0.232 112.000 0.467 0.435 0.254
v -64.000 1.022 112.000 0.494 0.463 0.271
v -128.000 -1.768 120.000 0.361 0.326 0.184
v -120.000 -1.572 120.000 0.376 0.342 0.194
v -112.000 -1.270 120.000 0.396 0.362 0.207
v -104.000 -0.661 120.000 0.386 0.352 0.201
v -96.000 -0.871 120.000 0.407 0.373 0.214
v -88.000 -0.794 120.000 0.411 0.378 0.217
v -80.000 -0.828 120.000 0.444 0.412 0.239
v -72.000 -0.615 120.000 0.463 0.432 0.251
v -64.000 0.320 120.000 0.470 0.438 0.256
v -128.000 -2.027 128.000 0.385 0.350 0.199
v -120.000 -1.281 128.000 0.390 0.356 0.203
v -112.000 -1.120 128.000 0.393 0.360 0.205
v -104.000 -0.872 128.000 0.371 0.336 0.190
v -96.000 -1.074 128.000 0.369 0.334 0.189
v -88.000 -1.763 128.000 0.388 0.354 0.202
v -80.000 -1.395 128.000 0.411 0.377 0.217
v -72.000 -1.124 128.000 0.427 0.394 0.227
v -64.000 -0.432 128.000 0.439 0.407 0.235

vt 0.300000 0.400000
vt 0.300000 0.387500
vt 0.312500 0.387500
vt 0.312500 0.400000
vt 0.325000 0.400000
vt 0.325000 0.387500
vt 0.337500 0.387500
vt 0.337500 0.400000
vt 0.350000 0.400000
vt 0.350000 0.387500
vt 0.362500 0.387500
vt 0.362500 0.400000
vt 0.375000 0.400000
vt 0.375000 0.387500
vt 0.387500 0.387500
vt 0.387500 0.400000
vt 0.400000 0.400000
vt 0.400000 0.387500
vt 0.300000 0.375000
vt 0.312500 0.375000
vt 0.325000 0.375000
vt 0.337500 0.375000
vt 0.350000 0.375000
vt 0.362500 0.375000
vt 0.375000 0.375000
vt 0.387500 0.375000
vt 0.400000 0.375000
vt 0.300000 0.362500
vt 0.312500 0.362500
vt 0.325000 0.362500
vt 0.337500 0.362500
vt 0.350000 0.362500
vt 0.362500 0.362500
vt 0.375000 0.362500
vt 0.387500 0.362500
vt 0.400000 0.362500
vt 0.300000 0.350000
vt 0.312500 0.350000
vt 0.325000 0.350000
vt 0.337500 0.350000
vt 0.350000 0.350000
vt 0.362500 0.350000
vt 0.375000 0.350000
vt 0.387500 0.350000
vt 0.400000 0.350000
vt 0.300000 0.337500
vt 0.312500 0.337500
vt 0.325000 0.337500
vt 0.337500 0.337500
vt 0.350000 0.337500
vt 0.362500 0.337500
vt 0.375000 0.337500
vt 0.387500 0.337500
vt 0.400000 0.337500
vt 0.300000 0.325000
vt 0.312500 0.325000
vt 0.325000 0.325000
vt 0.337500 0.325000
vt 0.350000 0.325000
vt 0.362500 0.325000
vt 0.375000 0.325000
vt 0.387500 0.325000
vt 0.400000 0.325000
vt 0.300000 0.312500
vt 0.312500 0.312500
vt 0.325000 0.312500
vt 0.337500 0.312500
vt 0.350000 0.312500
vt 0.362500 0.312500
vt 0.375000 0.312500
vt 0.387500 0.312500
vt 0.400000 0.312500
vt 0.300000 0.300000
vt 0.312500 0.300000
vt 0.325000 0.300000
vt 0.337500 0.300000
vt 0.350000 0.300000
vt 0.362500 0.300000
vt 0.375000 0.300000
vt 0.387500 0.300000
vt 0.400000 0.300000

vn 0.04458 0.99702 0.06303
vn 0.15404 0.98593 -0.06490
vn -0.00675 0.99986 -0.01523
vn -0.03805 0.98436 0.17201
vn -0.08176 0.99414 0.07071
vn -0.10503 0.99447 -0.00079
vn -0.04104 0.99872 0.02972
vn -0.05725 0.99508 0.08083
vn -0.00959 0.99915 0.04008
vn -0.03068 0.99881 0.03794
vn -0.05882 0.99771 0.03340
vn -0.09104 0.99584 -0.00325
vn -0.16838 0.97959 0.10978
vn -0.10718 0.98843 0.10734
vn 0.00270 0.98133 0.19230
vn -0.03177 0.96953 0.24292
vn 0.15120 0.96630 0.20834
vn 0.11894 0.97878 0.16689
vn 0.08240 0.99483 -0.05932
vn 0.02626 0.99561 -0.08979
vn -0.03803 0.99927 -0.00336
vn -0.01875 0.99977 0.01041
vn -0.03372 0.99929 0.01709
vn -0.02081 0.99975 0.00829
vn -0.01506 0.99872 0.04824
vn 0.02894 0.99268 0.11727
vn 0.03783 0.99598 0.08118
vn 0.03391 0.99711 0.06803
vn 0.03525 0.99815 0.04954
vn -0.00502 0.99888 0.04699
vn -0.05365 0.99853 0.00828
vn -0.03281 0.99913 -0.02564
vn -0.03464 0.99940 0.00182
vn 0.00141 0.99987 -0.01621
vn 0.02027 0.99958 -0.02084
vn -0.02498 0.99921 -0.03094
vn 0.02176 0.99761 0.06561
vn 0.00517 0.99808 0.06180
vn -0.03866 0.99902 0.02173
vn -0.09103 0.99539 0.03005
vn -0.02150 0.99932 0.02982
vn -0.01136 0.99897 0.04382
vn -0.01339 0.99786 0.06407
vn 0.01439 0.99956 0.02607
vn -0.01429 0.99963 0.02327
vn 0.01860 0.99876 0.04610
vn -0.00767 0.99844 0.05535
vn -0.03670 0.99854 0.03962
vn -0.04374 0.99699 0.06408
vn -0.01906 0.99472 0.10086
vn 0.00652 0.99659 0.08219
vn -0.01626 0.99329 0.11446
vn -0.05062 0.99679 0.06201
vn -0.03617 0.99931 -0.00835
vn 0.02890 0.99790 0.05788
vn -0.00129 0.99889 0.04715
vn -0.05648 0.99735 0.04592
vn -0.02972 0.99919 0.02703
vn -0.01190 0.99873 0.04893
vn 0.00247 0.99851 0.05446
vn -0.00940 0.99885 0.04697
vn -0.10835 0.99235 0.05923
vn -0.11573 0.99251 0.03921
vn -0.02455 0.99831 0.05270
vn -0.03006 0.99955 0.00040
vn -0.05681 0.99838 -0.00263
vn -0.02061 0.99969 0.01369
vn 0.00832 0.99967 0.02424
vn 0.00427 0.99808 0.06175
vn -0.01122 0.99906 0.04182
vn -0.07785 0.99511 0.06075
vn -0.11565 0.98922 0.08986
vn -0.05882 0.99827 -0.00202
vn -0.05658 0.99774 -0.03627
vn -0.04121 0.99908 -0.01191
vn -0.00286 0.99965 0.02626
vn 0.03196 0.99827 0.04941
vn 0.01993 0.99256 0.12015
vn -0.02550 0.99636 0.08132
vn -0.05998 0.99619 0.06335
vn -0.10086 0.99183 0.07816

f 1/1/1 2/2/2 3/3/3
f 1/1/1 3/3/3 4/4/4
f 4/4/4 3/3/3 5/5/5
f 5/5/5 3/3/3 6/6/6
f 5/5/5 6/6/6 7/7/7
f 5/5/5 7/7/7 8/8/8
f 8/8/8 7/7/7 9/9/9
f 9/9/9 7/7/7 10/10/10
f 9/9/9 10/10/10 11/11/11
f 9/9/9 11/11/11 12/12/12
f 12/12/12 11/11/11 13/13/13
f 13/13/13 11/11/11 14/14/14
f 13/13/13 14/14/14 15/15/15
f 13/13/13 15/15/15 16/16/16
f 16/16/16 15/15/15 17/17/17
f 17/17/17 15/15/15 18/18/18
f 2/2/2 19/19/19 3/3/3
f 3/3/3 19/19/19 20/20/20
f 3/3/3 20/20/20 21/21/21
f 3/3/3 21/21/21 6/6/6
f 6/6/6 21/21/21 7/7/7
f 7/7/7 21/21/21 22/22/22
f 7/7/7 22/22/22 23/23/23
f 7/7/7 23/23/23 10/10/10
f 10/10/10 23/23/23 11/11/11
f 11/11/11 23/23/23 24/24/24
f 11/11/11 24/24/24 25/25/25
f 11/11/11 25/25/25 14/14/14
f 14/14/14 25/25/25 15/15/15
f 15/15/15 25/25/25 26/26/26
f 15/15/15 26/26/26 27/27/27
f 15/15/15 27/27/27 18/18/18
f 19/19/19 28/28/28 29/29/29
f 19/19/19 29/29/29 20/20/20
f 20/20/20 29/29/29 21/21/21
f 21/21/21 29/29/29 30/30/30
f 21/21/21 30/30/30 31/31/31
f 21/21/21 31/31/31 22/22/22
f 22/22/22 31/31/31 23/23/23
f 23/23/23 31/31/31 32/32/32
f 23/23/23 32/32/32 33/33/33
f 23/23/23 33/33/33 24/24/24
f 24/24/24 33/33/33 25/25/25
f 25/25/25 33/33/33 34/34/34
f 25/25/25 34/34/34 35/35/35
f 25/25/25 35/35/35 26/26/26
f 26/26/26 35/35/35 27/27/27
f 27/27/27 35/35/35 36/36/36
f 28/28/28 37/37/37 29/29/29
f 29/29/29 37/37/37 38/38/38
f 29/29/29 38/38/38 39/39/39
f 29/29/29 39/39/39 30/30/30
f 30/30/30 39/39/39 31/31/31
f 31/31/31 39/39/39 40/40/40
f 31/31/31 40/40/40 41/41/41
f 31/31/31 41/41/41 32/32/32
f 32/32/32 41/41/41 33/33/33
f 33/33/33 41/41/41 42/42/42
f 33/33/33 42/42/42 43/43/43
f 33/33/33 43/43/43 34/34/34
f 34/34/34 43/43/43 35/35/35
f 35/35/35 43/43/43 44/44/44
f 35/35/35 44/44/44 45/45/45
f 35/35/35 45/45/45 36/36/36
f 37/37/37 46/46/46 47/47/47
f 37/37/37 47/47/47 38/38/38
f 38/38/38 47/47/47 39/39/39
f 39/39/39 47/47/47 48/48/48
f 39/39/39 48/48/48 49/49/49
f 39/39/39 49/49/49 40/40/40
f 40/40/40 49/49/49 41/41/41
f 41/41/41 49/49/49 50/50/50
f 41/41/41 50/50/50 51/51/51
f 41/41/41 51/51/51 42/42/42
f 42/42/42 51/51/51 43/43/43
f 43/43/43 51/51/51 52/52/52
f 43/43/43 52/52/52 53/53/53
f 43/43/43 53/53/53 44/44/44
f 44/44/44 53/53/53 45/45/45
f 45/45/45 53/53/53 54/54/54
f 46/46/46 55/55/55 47/47/47
f 47/47/47 55/55/55 56/56/56
f 47/47/47 56/56/56 57/57/57
f 47/47/47 57/57/57 48/48/48
f 48/48/48 57/57/57 49/49/49
f 49/49/49 57/57/57 58/58/58
f 49/49/49 58/58/58 59/59/59
f 49/49/49 59/59/59 50/50/50
f 50/50/50 59/59/59 51/51/51
f 51/51/51 59/59/59 60/60/60
f 51/51/51 60/60/60 61/61/61
f 51/51/51 61/61/61 52/52/52
f 52/52/52 61/61/61 53/53/53
f 53/53/53 61/61/61 62/62/62
f 53/53/53 62/62/62 63/63/63
f 53/53/53 63/63/63 54/54/54
f 55/55/55 64/64/64 65/65/65
f 55/55/55 65/65/65 56/56/56
f 56/56/56 65/65/65 57/57/57
f 57/57/57 65/65/65 66/66/66
f 57/57/57 66/66/66 67/67/67
f 57/57/57 67/67/67 58/58/58
f 58/58/58 67/67/67 59/59/59
f 59/59/59 67/67/67 68/68/68
f 59/59/59 68/68/68 69/69/69
f 59/59/59 69/69/69 60/60/60
f 60/60/60 69/69/69 61/61/61
f 61/61/61 69/69/69 70/70/70
f 61/61/61 70/70/70 71/71/71
f 61/61/61 71/71/71 62/62/62
f 62/62/62 71/71/71 63/63/63
f 63/63/63 71/71/71 72/72/72
f 64/64/64 73/73/73 65/65/65
f 65/65/65 73/73/73 74/74/74
f 65/65/65 74/74/74 75/75/75
f 65/65/65 75/75/75 66/66/66
f 66/66/66 75/75/75 67/67/67
f 67/67/67 75/75/75 76/76/76
f 67/67/67 76/76/76 77/77/77
f 67/67/67 77/77/77 68/68/68
f 68/68/68 77/77/77 69/69/69
f 69/69/69 77/77/77 78/78/78
f 69/69/69 78/78/78 79/79/79
f 69/69/69 79/79/79 70/70/70
f 70/70/70 79/79/79 71/71/71
f 71/71/71 79/79/79 80/80/80
f 71/71/71 80/80/80 81/81/81
f 71/71/71 81/81/81 72/72/72
