# Generated by tools/generate_island.py. Do not edit by hand.
o terrain_lod2_-1_-3

v -128.000 -0.722 -384.000 0.424 0.391 0.225
v -128.000 -0.342 -368.000 0.429 0.396 0.228
v -112.000 -0.320 -368.000 0.449 0.417 0.242
v -112.000 0.034 -384.000 0.446 0.414 0.240
v -96.000 0.395 -384.000 0.490 0.460 0.269
v -96.000 1.178 -368.000 0.229 0.307 0.113
v -80.000 2.319 -368.000 0.233 0.310 0.114
v -80.000 1.872 -384.000 0.222 0.301 0.111
v -64.000 1.763 -384.000 0.208 0.291 0.106
v -64.000 1.225 -368.000 0.195 0.281 0.102
v -48.000 0.613 -368.000 0.500 0.469 0.275
v -48.000 0.934 -384.000 0.195 0.281 0.102
v -32.000 1.848 -384.000 0.203 0.287 0.104
v -32.000 1.873 -368.000 0.242 0.317 0.117
v -16.000 1.576 -368.000 0.239 0.315 0.116
v -16.000 1.646 -384.000 0.229 0.307 0.113
v 0.000 1.178 -384.000 0.190 0.277 0.100
v 0.000 1.785 -368.000 0.219 0.299 0.110
v -128.000 1.879 -352.000 0.218 0.299 0.109
v -112.000 0.899 -352.000 0.204 0.287 0.105
v -96.000 1.270 -352.000 0.212 0.294 0.107
v -80.000 1.471 -352.000 0.203 0.287 0.104
v -64.000 0.854 -352.000 0.442 0.410 0.237
v -48.000 0.924 -352.000 0.202 0.286 0.104
v -32.000 0.958 -352.000 0.243 0.318 0.118
v -16.000 1.308 -352.000 0.263 0.334 0.124
v 0.000 1.632 -352.000 0.240 0.316 0.117
v -128.000 2.371 -336.000 0.262 0.333 0.124
v -112.000 2.460 -336.000 0.250 0.323 0.120
v -96.000 2.574 -336.000 0.215 0.296 0.108
v -80.000 1.214 -336.000 0.169 0.261 0.093
v -64.000 0.397 -336.000 0.413 0.380 0.218
v -48.000 0.549 -336.000 0.440 0.408 0.236
v -32.000 1.292 -336.000 0.241 0.316 0.117
v -16.000 0.840 -336.000 0.544 0.515 0.305
v 0.000 1.655 -336.000 0.264 0.334 0.125
v -128.000 2.104 -320.000 0.277 0.344 0.129
v -112.000 2.517 -320.000 0.270 0.339 0.127
v -96.000 1.719 -320.000 0.181 0.269 0.097
v -80.000 -0.265 -320.000 0.441 0.409 0.237
v -64.000 0.903 -320.000 0.225 0.304 0.112
v -48.000 0.604 -320.000 0.452 0.420 0.244
v -32.000 0.692 -320.000 0.501 0.470 0.276
v -16.000 2.259 -320.000 0.239 0.315 0.116
v 0.000 0.751 -320.000 0.504 0.474 0.278
v -128.000 0.589 -304.000 0.485 0.454 0.266
v -112.000 0.738 -304.000 0.486 0.455 0.266
v -96.000 0.503 -304.000 0.465 0.434 0.253
v -80.000 0.519 -304.000 0.481 0.450 0.263
v -64.000 1.451 -304.000 0.230 0.308 0.113
v -48.000 0.137 -304.000 0.477 0.446 0.260
v -32.000 0.624 -304.000 0.501 0.470 0.276
v -16.000 0.969 -304.000 0.259 0.331 0.123
v 0.000 1.401 -304.000 0.246 0.320 0.119
v -128.000 0.948 -288.000 0.201 0.285 0.104
v -112.000 0.175 -288.000 0.444 0.412 0.239
v -96.000 -0.558 -288.000 0.474 0.443 0.259
v -80.000 0.363 -288.000 0.526 0.497 0.293
v -64.000 1.367 -288.000 0.280 0.347 0.130
v -48.000 1.829 -288.000 0.252 0.325 0.121
v -32.000 0.954 -288.000 0.253 0.326 0.121
v -16.000 0.880 -288.000 0.252 0.325 0.121
v 0.000 0.781 -288.000 0.526 0.496 0.292
v -128.000 0.961 -272.000 0.170 0.261 0.093
v -112.000 0.269 -272.000 0.406 0.373 0.214
v -96.000 0.612 -272.000 0.475 0.444 0.259
v -80.000 1.439 -272.000 0.264 0.334 0.125
v -64.000 2.032 -272.000 0.298 0.360 0.136
v -48.000 2.447 -272.000 0.306 0.367 0.139
v -32.000 3.787 -272.000 0.278 0.345 0.129
v -16.000 1.791 -272.000 0.242 0.317 0.117
v 0.000 1.207 -272.000 0.243 0.318 0.118
v -128.000 -0.772 -256.000 0.374 0.339 0.192
v -112.000 -0.958 -256.000 0.394 0.360 0.205
v -96.000 0.678 -256.000 0.449 0.417 0.242
v -80.000 1.887 -256.000 0.261 0.332 0.124
v -64.000 2.104 -256.000 0.297 0.360 0.136
v -48.000 2.146 -256.000 0.310 0.370 0.140
v -32.000 2.356 -256.000 0.285 0.350 0.132
v -16.000 2.357 -256.000 0.259 0.330 0.123
v 0.000 2.555 -256.000 0.286 0.351 0.132

vt 0.433333 0.700000
vt 0.433333 0.691667
vt 0.441667 0.691667
vt 0.441667 0.700000
vt 0.450000 0.700000
vt 0.450000 0.691667
vt 0.458333 0.691667
vt 0.458333 0.700000
vt 0.466667 0.700000
vt 0.466667 0.691667
vt 0.475000 0.691667
vt 0.475000 0.700000
vt 0.483333 0.700000
vt 0.483333 0.691667
vt 0.491667 0.691667
vt 0.491667 0.700000
vt 0.500000 0.700000
vt 0.500000 0.691667
vt 0.433333 0.683333
vt 0.441667 0.683333
vt 0.450000 0.683333
vt 0.458333 0.683333
vt 0.466667 0.683333
vt 0.475000 0.683333
vt 0.483333 0.683333
vt 0.491667 0.683333
vt 0.500000 0.683333
vt 0.433333 0.675000
vt 0.441667 0.675000
vt 0.450000 0.675000
vt 0.458333 0.675000
vt 0.466667 0.675000
vt 0.475000 0.675000
vt 0.483333 0.675000
vt 0.491667 0.675000
vt 0.500000 0.675000
vt 0.433333 0.666667
vt 0.441667 0.666667
vt 0.450000 0.666667
vt 0.458333 0.666667
vt 0.466667 0.666667
vt 0.475000 0.666667
vt 0.483333 0.666667
vt 0.491667 0.666667
vt 0.500000 0.666667
vt 0.433333 0.658333
vt 0.441667 0.658333
vt 0.450000 0.658333
vt 0.458333 0.658333
vt 0.466667 0.658333
vt 0.475000 0.658333
vt 0.483333 0.658333
vt 0.491667 0.658333
vt 0.500000 0.658333
vt 0.433333 0.650000
vt 0.441667 0.650000
vt 0.450000 0.650000
vt 0.458333 0.650000
vt 0.466667 0.650000
vt 0.475000 0.650000
vt 0.483333 0.650000
vt 0.491667 0.650000
vt 0.500000 0.650000
vt 0.433333 0.641667
vt 0.441667 0.641667
vt 0.450000 0.641667
vt 0.458333 0.641667
vt 0.466667 0.641667
vt 0.475000 0.641667
vt 0.483333 0.641667
vt 0.491667 0.641667
vt 0.500000 0.641667
vt 0.433333 0.633333
vt 0.441667 0.633333
vt 0.450000 0.633333
vt 0.458333 0.633333
vt 0.466667 0.633333
vt 0.475000 0.633333
vt 0.483333 0.633333
vt 0.491667 0.633333
vt 0.500000 0.633333

vn -0.02429 0.99970 -0.00079
vn -0.00136 0.99671 -0.08100
vn -0.02769 0.99879 -0.04062
vn -0.03489 0.99915 0.02213
vn -0.06976 0.99723 -0.02581
vn -0.08216 0.99625 -0.02723
vn -0.00817 0.99995 0.00654
vn -0.04268 0.99870 -0.02788
vn 0.04125 0.99904 0.01483
vn 0.05319 0.99818 0.02835
vn -0.01160 0.99983 0.01421
vn -0.00266 0.99980 0.02005
vn -0.02616 0.99964 0.00534
vn -0.03007 0.99916 0.02779
vn 0.00135 0.99996 0.00869
vn 0.02095 0.99977 0.00436
vn 0.00812 0.99983 -0.01679
vn -0.01303 0.99981 -0.01418
vn 0.02876 0.99592 -0.08550
vn 0.01894 0.99607 -0.08656
vn -0.01979 0.99920 -0.03489
vn 0.01300 0.99932 0.03449
vn 0.02704 0.99939 0.02205
vn -0.00326 0.99999 0.00201
vn -0.01580 0.99976 0.01532
vn -0.02103 0.99951 0.02299
vn -0.02609 0.99957 0.01353
vn -0.00556 0.99996 -0.00703
vn 0.00459 0.99952 -0.03053
vn 0.03891 0.99914 -0.01402
vn 0.04359 0.99878 0.02320
vn 0.02079 0.99978 -0.00152
vn -0.01315 0.99989 0.00669
vn -0.00910 0.99992 0.00832
vn -0.01139 0.99992 -0.00591
vn -0.05084 0.99833 0.02746
vn -0.01661 0.99837 0.05467
vn 0.01200 0.99848 0.05375
vn 0.05476 0.99719 0.05111
vn 0.02550 0.99944 0.02170
vn -0.00540 0.99995 -0.00782
vn 0.00658 0.99990 0.01286
vn -0.03460 0.99932 0.01264
vn -0.00185 0.99999 -0.00401
vn 0.02762 0.99962 0.00197
vn -0.00927 0.99931 0.03609
vn 0.01609 0.99787 0.06328
vn 0.00680 0.99746 0.07097
vn -0.02347 0.99972 0.00436
vn 0.01194 0.99982 -0.01449
vn 0.01778 0.99953 -0.02478
vn -0.02597 0.99963 -0.00817
vn -0.01125 0.99975 0.01926
vn -0.02699 0.99964 -0.00092
vn 0.03264 0.99947 0.00152
vn 0.04700 0.99879 0.01464
vn -0.01037 0.99993 -0.00522
vn -0.06000 0.99779 -0.02868
vn -0.02777 0.99903 -0.03427
vn 0.01286 0.99732 -0.07199
vn 0.01341 0.99719 -0.07370
vn 0.00540 0.99966 -0.02570
vn 0.00548 0.99994 -0.00983
vn 0.04315 0.99763 0.05362
vn 0.00589 0.99975 0.02148
vn -0.03652 0.99859 -0.03857
vn -0.04827 0.99807 -0.03916
vn -0.03148 0.99924 -0.02302
vn -0.02616 0.99942 -0.02166
vn 0.02047 0.99883 -0.04376
vn 0.04003 0.99805 -0.04779
vn 0.03644 0.99780 -0.05532
vn 0.02732 0.99538 0.09206
vn -0.04514 0.99606 0.07638
vn -0.06262 0.99799 0.01007
vn -0.04449 0.99862 -0.02796
vn -0.01980 0.99979 -0.00455
vn -0.00787 0.99979 0.01882
vn 0.00695 0.99915 0.04058
vn -0.00623 0.99936 -0.03532
vn 0.01205 0.99814 -0.05968

f 1/1/1 2/2/2 3/3/3
f 1/1/1 3/3/3 4/4/4
f 4/4/4 3/3/3 5/5/5
f 5/5/5 3/3/3 6/6/6
f 5/5/5 6/6/6 7/7/7
f 5/5/5 7/7/7 8/8/8
f 8/8/8 7/7/7 9/9/9
f 9/9/9 7/7/7 10/10/10
f 9/9/9 10/10/10 11/11/11
f 9/9/9 11/11/11 12/12/12
f 12/12/12 11/11/11 13/13/13
f 13/13/13 11/11/11 14/14/14
f 13/13/13 14/14/14 15/15/15
f 13/13/13 15/15/15 16/16/16
f 16/16/16 15/15/15 17/17/17
f 17/17/17 15/15/15 18/18/18
f 2/2/2 19/19/19 3/3/3
f 3/3/3 19/19/19 20/20/20
f 3/3/3 20/20/20 21/21/21
f 3/3/3 21/21/21 6/6/6
f 6/6/6 21/21/21 7/7/7
f 7/7/7 21/21/21 22/22/22
f 7/7/7 22/22/22 23/23/23
f 7/7/7 23/23/23 10/10/10
f 10/10/10 23/23/23 11/11/11
f 11/11/11 23/23/23 24/24/24
f 11/11/11 24/24/24 25/25/25
f 11/11/11 25/25/25 14/14/14
f 14/14/14 25/25/25 15/15/15
f 15/15/15 25/25/25 26/26/26
f 15/15/15 26/26/26 27/27/27
f 15/15/15 27/27/27 18/18/18
f 19/19/19 28/28/28 29/29/29
f 19/19/19 29/29/29 20/20/20
f 20/20/20 29/29/29 21/21/21
f 21/21/21 29/29/29 30/30/30
f 21/21/21 30/30/30 31/31/31
f 21/21/21 31/31/31 22/22/22
f 22/22/22 31/31/31 23/23/23
f 23/23/23 31/31/31 32/32/32
f 23/23/23 32/32/32 33/33/33
f 23/23/23 33/33/33 24/24/24
f 24/24/24 33/33/33 25/25/25
f 25/25/25 33/33/33 34/34/34
f 25/25/25 34/34/34 35/35/35
f 25/25/25 35/35/35 26/26/26
f 26/26/26 35/35/35 27/27/27
f 27/27/27 35/35/35 36/36/36
f 28/28/28 37/37/37 29/29/29
f 29/29/29 37/37/37 38/38/38
f 29/29/29 38/38/38 39/39/39
f 29/29/29 39/39/39 30/30/30
f 30/30/30 39/39/39 31/31/31
f 31/31/31 39/39/39 40/40/40
f 31/31/31 40/40/40 41/41/41
f 31/31/31 41/41/41 32/32/32
f 32/32/32 41/41/41 33/33/33
f 33/33/33 41/41/41 42/42/42
f 33/33/33 42/42/42 43/43/43
f 33/33/33 43/43/43 34/34/34
f 34/34/34 43/43/43 35/35/35
f 35/35/35 43/43/43 44/44/44
f 35/35/35 44/44/44 45/45/45
f 35/35/35 45/45/45 36/36/36
f 37/37/37 46/46/46 47/47/47
f 37/37/37 47/47/47 38/38/38
f 38/38/38 47/47/47 39/39/39
f 39/39/39 47/47/47 48/48/48
f 39/39/39 48/48/48 49/49/49
f 39/39/39 49/49/49 40/40/40
f 40/40/40 49/49/49 41/41/41
f 41/41/41 49/49/49 50/50/50
f 41/41/41 50/50/50 51/51/51
f 41/41/41 51/51/51 42/42/42
f 42/42/42 51/51/51 43/43/43
f 43/43/43 51/51/51 52/52/52
f 43/43/43 52/52/52 53/53/53
f 43/43/43 53/53/53 44/44/44
f 44/44/44 53/53/53 45/45/45
f 45/45/45 53/53/53 54/54/54
f 46/46/46 55/55/55 47/47/47
f 47/47/47 55/55/55 56/56/56
f 47/47/47 56/56/56 57/57/57
f 47/47/47 57/57/57 48/48/48
f 48/48/48 57/57/57 49/49/49
f 49/49/49 57/57/57 58/58/58
f 49/49/49 58/58/58 59/59/59
f 49/49/49 59/59/59 50/50/50
f 50/50/50 59/59/59 51/51/51
f 51/51/51 59/59/59 60/60/60
f 51/51/51 60/60/60 61/61/61
f 51/51/51 61/61/61 52/52/52
f 52/52/52 61/61/61 53/53/53
f 53/53/53 61/61/61 62/62/62
f 53/53/53 62/62/62 63/63/63
f 53/53/53 63/63/63 54/54/54
f 55/55/55 64/64/64 65/65/65
f 55/55/55 65/65/65 56/56/56
f 56/56/56 65/65/65 57/57/57
f 57/57/57 65/65/65 66/66/66
f 57/57/57 66/66/66 67/67/67
f 57/57/57 67/67/67 58/58/58
f 58/58/58 67/67/67 59/59/59
f 59/59/59 67/67/67 68/68/68
f 59/59/59 68/68/68 69/69/69
f 59/59/59 69/69/69 60/60/60
f 60/60/60 69/69/69 61/61/61
f 61/61/61 69/69/69 70/70/70
f 61/61/61 70/70/70 71/71/71
f 61/61/61 71/71/71 62/62/62
f 62/62/62 71/71/71 63/63/63
f 63/63/63 71/71/71 72/72/72
f 64/64/64 73/73/73 65/65/65
f 65/65/65 73/73/73 74/74/74
f 65/65/65 74/74/74 75/75/75
f 65/65/65 75/75/75 66/66/66
f 66/66/66 75/75/75 67/67/67
f 67/67/67 75/75/75 76/76/76
f 67/67/67 76/76/76 77/77/77
f 67/67/67 77/77/77 68/68/68
f 68/68/68 77/77/77 69/69/69
f 69/69/69 77/77/77 78/78/78
f 69/69/69 78/78/78 79/79/79
f 69/69/69 79/79/79 70/70/70
f 70/70/70 79/79/79 71/71/71
f 71/71/71 79/79/79 80/80/80
f 71/71/71 80/80/80 81/81/81
f 71/71/71 81/81/81 72/72/72
