# Generated by tools/generate_island.py. Do not edit by hand.
o terrain_lod1_6_2

v 768.000 -9.862 256.000 0.422 0.389 0.224
v 768.000 -10.106 264.000 0.396 0.362 0.207
v 776.000 -10.206 264.000 0.414 0.381 0.219
v 776.000 -10.332 256.000 0.417 0.384 0.221
v 784.000 -10.460 256.000 0.412 0.378 0.217
v 784.000 -10.656 264.000 0.418 0.385 0.221
v 792.000 -10.800 264.000 0.441 0.409 0.237
v 792.000 -10.596 256.000 0.440 0.407 0.236
v 800.000 -10.800 256.000 0.445 0.412 0.239
v 768.000 -10.360 272.000 0.416 0.383 0.220
v 776.000 -10.248 272.000 0.413 0.380 0.218
v 784.000 -10.559 272.000 0.411 0.378 0.217
v 792.000 -10.800 272.000 0.434 0.401 0.232
v 768.000 -10.006 280.000 0.421 0.388 0.223
v 776.000 -10.288 280.000 0.404 0.371 0.212
v 784.000 -10.474 280.000 0.429 0.396 0.229
v 792.000 -10.800 280.000 0.449 0.417 0.242
v 768.000 -9.915 288.000 0.431 0.398 0.230
v 776.000 -10.441 288.000 0.412 0.379 0.218
v 784.000 -10.800 288.000 0.446 0.414 0.240
v 768.000 -10.345 296.000 0.421 0.388 0.223
v 776.000 -10.610 296.000 0.443 0.411 0.238
v 784.000 -10.800 296.000 0.458 0.426 0.248
v 768.000 -10.327 304.000 0.411 0.378 0.217
v 776.000 -10.724 304.000 0.452 0.420 0.244
v 784.000 -10.800 304.000 0.471 0.439 0.256
v 768.000 -10.413 312.000 0.451 0.419 0.243
v 776.000 -10.800 312.000 0.468 0.436 0.254
v 768.000 -10.800 320.000 0.453 0.421 0.244

vt 0.900000 0.366667
vt 0.900000 0.362500
vt 0.904167 0.362500
vt 0.904167 0.366667
vt 0.908333 0.366667
vt 0.908333 0.362500
vt 0.912500 0.362500
vt 0.912500 0.366667
vt 0.916667 0.366667
vt 0.900000 0.358333
vt 0.904167 0.358333
vt 0.908333 0.358333
vt 0.912500 0.358333
vt 0.900000 0.354167
vt 0.904167 0.354167
vt 0.908333 0.354167
vt 0.912500 0.354167
vt 0.900000 0.350000
vt 0.904167 0.350000
vt 0.908333 0.350000
vt 0.900000 0.345833
vt 0.904167 0.345833
vt 0.908333 0.345833
vt 0.900000 0.341667
vt 0.904167 0.341667
vt 0.908333 0.341667
vt 0.900000 0.337500
vt 0.904167 0.337500
vt 0.900000 0.333333

vn 0.03559 0.99934 0.00742
vn 0.01245 0.99944 0.03111
vn 0.02963 0.99954 0.00672
vn 0.03734 0.99918 -0.01572
vn 0.02680 0.99953 0.01473
vn 0.03709 0.99929 0.00620
vn 0.02170 0.99968 0.01267
vn 0.02126 0.99945 0.02547
vn 0.02547 0.99935 0.02547
vn 0.00497 0.99999 -0.00059
vn 0.01246 0.99991 0.00510
vn 0.03450 0.99940 -0.00443
vn 0.03011 0.99955 0.00000
vn 0.03519 0.99899 -0.02776
vn 0.03155 0.99950 0.00282
vn 0.03199 0.99937 0.01505
vn 0.03719 0.99926 0.01003
vn 0.04985 0.99854 0.02062
vn 0.05521 0.99827 0.02008
vn 0.03550 0.99907 0.02433
vn 0.03306 0.99912 0.02572
vn 0.03541 0.99926 0.01528
vn 0.02379 0.99972 0.00000
vn 0.04513 0.99895 0.00806
vn 0.02955 0.99949 0.01189
vn 0.01428 0.99987 0.00793
vn 0.04832 0.99840 0.02951
vn 0.03894 0.99905 0.01952
vn 0.04829 0.99767 0.04829

f 1/1/1 2/2/2 3/3/3
f 1/1/1 3/3/3 4/4/4
f 4/4/4 3/3/3 5/5/5
f 5/5/5 3/3/3 6/6/6
f 5/5/5 6/6/6 7/7/7
f 5/5/5 7/7/7 8/8/8
f 8/8/8 7/7/7 9/9/9
f 2/2/2 10/10/10 3/3/3
f 3/3/3 10/10/10 11/11/11
f 3/3/3 11/11/11 12/12/12
f 3/3/3 12/12/12 6/6/6
f 6/6/6 12/12/12 7/7/7
f 7/7/7 12/12/12 13/13/13
f 10/10/10 14/14/14 15/15/15
f 10/10/10 15/15/15 11/11/11
f 11/11/11 15/15/15 12/12/12
f 12/12/12 15/15/15 16/16/16
f 12/12/12 16/16/16 17/17/17
f 12/12/12 17/17/17 13/13/13
f 14/14/14 18/18/18 15/15/15
f 15/15/15 18/18/18 19/19/19
f 15/15/15 19/19/19 20/20/20
f 15/15/15 20/20/20 16/16/16
f 16/16/16 20/20/20 17/17/17
f 18/18/18 21/21/21 22/22/22
f 18/18/18 22/22/22 19/19/19
f 19/19/19 22/22/22 20/20/20
f 20/20/20 22/22/22 23/23/23
f 21/21/21 24/24/24 22/22/22
f 22/22/22 24/24/24 25/25/25
f 22/22/22 25/25/25 26/26/26
f 22/22/22 26/26/26 23/23/23
f 24/24/24 27/27/27 28/28/28
f 24/24/24 28/28/28 25/25/25
f 25/25/25 28/28/28 26/26/26
f 27/27/27 29/29/29 28/28/28
