# Generated by tools/generate_island.py. Do not edit by hand.
o terrain_lod2_-4_-2

v -512.000 -4.421 -256.000 0.442 0.410 0.237
v -512.000 -4.227 -240.000 0.473 0.442 0.258
v -496.000 -3.402 -240.000 0.480 0.449 0.262
v -496.000 -3.566 -256.000 0.493 0.462 0.271
v -480.000 -2.315 -256.000 0.494 0.463 0.271
v -480.000 -2.733 -240.000 0.469 0.438 0.255
v -464.000 -2.343 -240.000 0.477 0.446 0.260
v -464.000 -2.291 -256.000 0.442 0.410 0.237
v -448.000 -2.159 -256.000 0.391 0.357 0.204
v -448.000 -1.445 -240.000 0.452 0.420 0.244
v -432.000 -1.250 -240.000 0.463 0.432 0.251
v -432.000 -1.292 -256.000 0.449 0.417 0.242
v -416.000 -0.761 -256.000 0.547 0.517 0.306
v -416.000 -1.521 -240.000 0.500 0.470 0.275
v -400.000 -0.629 -240.000 0.445 0.413 0.239
v -400.000 -0.136 -256.000 0.477 0.446 0.260
v -384.000 -0.094 -256.000 0.484 0.453 0.265
v -384.000 -0.157 -240.000 0.465 0.433 0.252
v -512.000 -3.831 -224.000 0.499 0.468 0.275
v -496.000 -2.639 -224.000 0.514 0.483 0.284
v -480.000 -2.562 -224.000 0.493 0.462 0.270
v -464.000 -2.594 -224.000 0.443 0.411 0.238
v -448.000 -1.905 -224.000 0.465 0.433 0.252
v -432.000 -1.555 -224.000 0.448 0.415 0.241
v -416.000 -1.301 -224.000 0.434 0.401 0.232
v -400.000 -0.886 -224.000 0.458 0.426 0.248
v -384.000 -1.086 -224.000 0.463 0.431 0.251
v -512.000 -3.411 -208.000 0.486 0.455 0.266
v -496.000 -3.008 -208.000 0.493 0.462 0.271
v -480.000 -2.796 -208.000 0.457 0.425 0.247
v -464.000 -1.973 -208.000 0.429 0.396 0.229
v -448.000 -1.823 -208.000 0.428 0.395 0.228
v -432.000 -2.203 -208.000 0.440 0.408 0.236
v -416.000 -1.596 -208.000 0.432 0.399 0.231
v -400.000 -1.147 -208.000 0.487 0.456 0.267
v -384.000 -1.011 -208.000 0.478 0.446 0.261
v -512.000 -2.920 -192.000 0.468 0.436 0.254
v -496.000 -2.903 -192.000 0.427 0.394 0.227
v -480.000 -2.628 -192.000 0.449 0.417 0.242
v -464.000 -1.763 -192.000 0.450 0.418 0.243
v -448.000 -2.020 -192.000 0.415 0.381 0.219
v -432.000 -2.035 -192.000 0.435 0.402 0.232
v -416.000 -1.273 -192.000 0.514 0.484 0.284
v -400.000 -1.297 -192.000 0.530 0.500 0.295
v -384.000 -0.944 -192.000 0.549 0.520 0.307
v -512.000 -2.624 -176.000 0.435 0.403 0.233
v -496.000 -2.781 -176.000 0.398 0.364 0.208
v -480.000 -2.266 -176.000 0.433 0.401 0.231
v -464.000 -1.848 -176.000 0.447 0.415 0.241
v -448.000 -1.922 -176.000 0.392 0.358 0.204
v -432.000 -1.527 -176.000 0.428 0.395 0.228
v -416.000 -1.369 -176.000 0.548 0.519 0.307
v -400.000 -1.078 -176.000 0.555 0.526 0.311
v -384.000 -0.302 -176.000 0.570 0.541 0.321
v -512.000 -2.791 -160.000 0.434 0.402 0.232
v -496.000 -2.068 -160.000 0.384 0.350 0.199
v -480.000 -1.513 -160.000 0.392 0.358 0.204
v -464.000 -1.959 -160.000 0.361 0.326 0.184
v -448.000 -1.876 -160.000 0.366 0.331 0.187
v -432.000 -1.260 -160.000 0.411 0.378 0.217
v -416.000 -0.892 -160.000 0.557 0.528 0.313
v -400.000 0.062 -160.000 0.581 0.553 0.328
v -384.000 0.491 -160.000 0.556 0.527 0.312
v -512.000 -2.342 -144.000 0.436 0.404 0.233
v -496.000 -1.691 -144.000 0.445 0.412 0.239
v -480.000 -1.378 -144.000 0.430 0.398 0.229
v -464.000 -1.212 -144.000 0.428 0.395 0.228
v -448.000 -0.283 -144.000 0.437 0.404 0.234
v -432.000 -0.453 -144.000 0.469 0.438 0.255
v -416.000 -0.637 -144.000 0.533 0.504 0.297
v -400.000 0.542 -144.000 0.537 0.508 0.300
v -384.000 1.371 -144.000 0.531 0.502 0.296
v -512.000 -1.637 -128.000 0.452 0.420 0.244
v -496.000 -0.904 -128.000 0.464 0.432 0.252
v -480.000 -0.993 -128.000 0.497 0.466 0.273
v -464.000 -0.447 -128.000 0.498 0.468 0.274
v -448.000 0.329 -128.000 0.507 0.477 0.280
v -432.000 0.125 -128.000 0.507 0.476 0.280
v -416.000 0.474 -128.000 0.462 0.430 0.250
v -400.000 0.314 -128.000 0.485 0.454 0.265
v -384.000 0.378 -128.000 0.498 0.467 0.274

vt 0.233333 0.633333
vt 0.233333 0.625000
vt 0.241667 0.625000
vt 0.241667 0.633333
vt 0.250000 0.633333
vt 0.250000 0.625000
vt 0.258333 0.625000
vt 0.258333 0.633333
vt 0.266667 0.633333
vt 0.266667 0.625000
vt 0.275000 0.625000
vt 0.275000 0.633333
vt 0.283333 0.633333
vt 0.283333 0.625000
vt 0.291667 0.625000
vt 0.291667 0.633333
vt 0.300000 0.633333
vt 0.300000 0.625000
vt 0.233333 0.616667
vt 0.241667 0.616667
vt 0.250000 0.616667
vt 0.258333 0.616667
vt 0.266667 0.616667
vt 0.275000 0.616667
vt 0.283333 0.616667
vt 0.291667 0.616667
vt 0.300000 0.616667
vt 0.233333 0.608333
vt 0.241667 0.608333
vt 0.250000 0.608333
vt 0.258333 0.608333
vt 0.266667 0.608333
vt 0.275000 0.608333
vt 0.283333 0.608333
vt 0.291667 0.608333
vt 0.300000 0.608333
vt 0.233333 0.600000
vt 0.241667 0.600000
vt 0.250000 0.600000
vt 0.258333 0.600000
vt 0.266667 0.600000
vt 0.275000 0.600000
vt 0.283333 0.600000
vt 0.291667 0.600000
vt 0.300000 0.600000
vt 0.233333 0.591667
vt 0.241667 0.591667
vt 0.250000 0.591667
vt 0.258333 0.591667
vt 0.266667 0.591667
vt 0.275000 0.591667
vt 0.283333 0.591667
vt 0.291667 0.591667
vt 0.300000 0.591667
vt 0.233333 0.583333
vt 0.241667 0.583333
vt 0.250000 0.583333
vt 0.258333 0.583333
vt 0.266667 0.583333
vt 0.275000 0.583333
vt 0.283333 0.583333
vt 0.291667 0.583333
vt 0.300000 0.583333
vt 0.233333 0.575000
vt 0.241667 0.575000
vt 0.250000 0.575000
vt 0.258333 0.575000
vt 0.266667 0.575000
vt 0.275000 0.575000
vt 0.283333 0.575000
vt 0.291667 0.575000
vt 0.300000 0.575000
vt 0.233333 0.566667
vt 0.241667 0.566667
vt 0.250000 0.566667
vt 0.258333 0.566667
vt 0.266667 0.566667
vt 0.275000 0.566667
vt 0.283333 0.566667
vt 0.291667 0.566667
vt 0.300000 0.566667

vn -0.05240 0.99856 -0.01117
vn -0.05143 0.99851 -0.01842
vn -0.04963 0.99862 -0.01715
vn -0.06567 0.99779 -0.01019
vn -0.03645 0.99927 0.01131
vn -0.03309 0.99942 0.00772
vn -0.02647 0.99964 0.00468
vn -0.00489 0.99998 0.00325
vn -0.03267 0.99922 -0.02214
vn -0.03415 0.99939 -0.00791
vn -0.01445 0.99988 0.00634
vn -0.04365 0.99904 -0.00267
vn -0.02774 0.99914 0.03080
vn -0.01937 0.99967 0.01688
vn -0.02818 0.99932 0.02368
vn -0.02082 0.99931 0.03084
vn -0.01606 0.99972 0.01741
vn -0.02948 0.99909 0.03097
vn -0.05633 0.99823 -0.01887
vn -0.03960 0.99914 -0.01231
vn -0.01706 0.99984 -0.00499
vn -0.02053 0.99972 -0.01157
vn -0.02297 0.99968 0.01045
vn -0.01888 0.99938 0.02978
vn -0.02354 0.99964 0.01266
vn -0.00672 0.99985 0.01618
vn -0.00325 0.99977 0.02143
vn -0.02517 0.99928 -0.02844
vn -0.02180 0.99976 -0.00247
vn -0.03234 0.99947 0.00204
vn -0.02508 0.99962 -0.01157
vn 0.00720 0.99997 0.00358
vn -0.01409 0.99987 0.00818
vn -0.03298 0.99946 -0.00086
vn -0.01339 0.99990 0.00510
vn -0.00850 0.99995 -0.00444
vn -0.00436 0.99986 -0.01585
vn -0.00913 0.99993 -0.00710
vn -0.03317 0.99939 -0.01101
vn -0.01900 0.99981 -0.00388
vn 0.00353 0.99998 -0.00469
vn -0.02331 0.99951 -0.02111
vn -0.02327 0.99969 -0.00936
vn -0.01030 0.99994 -0.00216
vn -0.02528 0.99961 -0.01216
vn 0.00980 0.99994 -0.00402
vn -0.01785 0.99958 -0.02276
vn -0.02911 0.99897 -0.03479
vn -0.00729 0.99995 -0.00677
vn -0.01004 0.99994 -0.00450
vn -0.02215 0.99962 -0.01620
vn -0.01403 0.99983 -0.01192
vn -0.03002 0.99892 -0.03539
vn -0.04841 0.99783 -0.04473
vn -0.03033 0.99931 -0.02143
vn -0.03989 0.99862 -0.03403
vn -0.01271 0.99954 -0.02736
vn 0.01132 0.99974 -0.01988
vn -0.01935 0.99905 -0.03895
vn -0.03072 0.99897 -0.03354
vn -0.03190 0.99896 -0.03247
vn -0.04311 0.99779 -0.05053
vn -0.03840 0.99794 -0.05136
vn -0.04067 0.99852 -0.03602
vn -0.03006 0.99906 -0.03123
vn -0.01495 0.99976 -0.01626
vn -0.02457 0.99869 -0.04485
vn -0.02366 0.99736 -0.06870
vn -0.00329 0.99877 -0.04947
vn -0.03106 0.99861 -0.04262
vn -0.04139 0.99905 -0.01372
vn -0.05173 0.99866 0.00350
vn -0.04318 0.99798 -0.04652
vn -0.02010 0.99859 -0.04908
vn -0.01461 0.99924 -0.03624
vn -0.04122 0.99801 -0.04772
vn -0.02078 0.99898 -0.04004
vn -0.00454 0.99934 -0.03609
vn -0.01849 0.99902 -0.04014
vn 0.00299 0.99989 0.01426
vn -0.02787 0.99888 0.03811

f 1/1/1 2/2/2 3/3/3
f 1/1/1 3/3/3 4/4/4
f 4/4/4 3/3/3 5/5/5
f 5/5/5 3/3/3 6/6/6
f 5/5/5 6/6/6 7/7/7
f 5/5/5 7/7/7 8/8/8
f 8/8/8 7/7/7 9/9/9
f 9/9/9 7/7/7 10/10/10
f 9/9/9 10/10/10 11/11/11
f 9/9/9 11/11/11 12/12/12
f 12/12/12 11/11/11 13/13/13
f 13/13/13 11/11/11 14/14/14
f 13/13/13 14/14/14 15/15/15
f 13/13/13 15/15/15 16/16/16
f 16/16/16 15/15/15 17/17/17
f 17/17/17 15/15/15 18/18/18
f 2/2/2 19/19/19 3/3/3
f 3/3/3 19/19/19 20/20/20
f 3/3/3 20/20/20 21/21/21
f 3/3/3 21/21/21 6/6/6
f 6/6/6 21/21/21 7/7/7
f 7/7/7 21/21/21 22/22/22
f 7/7/7 22/22/22 23/23/23
f 7/7/7 23/23/23 10/10/10
f 10/10/10 23/23/23 11/11/11
f 11/11/11 23/23/23 24/24/24
f 11/11/11 24/24/24 25/25/25
f 11/11/11 25/25/25 14/14/14
f 14/14/14 25/25/25 15/15/15
f 15/15/15 25/25/25 26/26/26
f 15/15/15 26/26/26 27/27/27
f 15/15/15 27/27/27 18/18/18
f 19/19/19 28/28/28 29/29/29
f 19/19/19 29/29/29 20/20/20
f 20/20/20 29/29/29 21/21/21
f 21/21/21 29/29/29 30/30/30
f 21/21/21 30/30/30 31/31/31
f 21/21/21 31/31/31 22/22/22
f 22/22/22 31/31/31 23/23/23
f 23/23/23 31/31/31 32/32/32
f 23/23/23 32/32/32 33/33/33
f 23/23/23 33/33/33 24/24/24
f 24/24/24 33/33/33 25/25/25
f 25/25/25 33/33/33 34/34/34
f 25/25/25 34/34/34 35/35/35
f 25/25/25 35/35/35 26/26/26
f 26/26/26 35/35/35 27/27/27
f 27/27/27 35/35/35 36/36/36
f 28/28/28 37/37/37 29/29/29
f 29/29/29 37/37/37 38/38/38
f 29/29/29 38/38/38 39/39/39
f 29/29/29 39/39/39 30/30/30
f 30/30/30 39/39/39 31/31/31
f 31/31/31 39/39/39 40/40/40
f 31/31/31 40/40/40 41/41/41
f 31/31/31 41/41/41 32/32/32
f 32/32/32 41/41/41 33/33/33
f 33/33/33 41/41/41 42/42/42
f 33/33/33 42/42/42 43/43/43
f 33/33/33 43/43/43 34/34/34
f 34/34/34 43/43/43 35/35/35
f 35/35/35 43/43/43 44/44/44
f 35/35/35 44/44/44 45/45/45
f 35/35/35 45/45/45 36/36/36
f 37/37/37 46/46/46 47/47/47
f 37/37/37 47/47/47 38/38/38
f 38/38/38 47/47/47 39/39/39
f 39/39/39 47/47/47 48/48/48
f 39/39/39 48/48/48 49/49/49
f 39/39/39 49/49/49 40/40/40
f 40/40/40 49/49/49 41/41/41
f 41/41/41 49/49/49 50/50/50
f 41/41/41 50/50/50 51/51/51
f 41/41/41 51/51/51 42/42/42
f 42/42/42 51/51/51 43/43/43
f 43/43/43 51/51/51 52/52/52
f 43/43/43 52/52/52 53/53/53
f 43/43/43 53/53/53 44/44/44
f 44/44/44 53/53/53 45/45/45
f 45/45/45 53/53/53 54/54/54
f 46/46/46 55/55/55 47/47/47
f 47/47/47 55/55/55 56/56/56
f 47/47/47 56/56/56 57/57/57
f 47/47/47 57/57/57 48/48/48
f 48/48/48 57/57/57 49/49/49
f 49/49/49 57/57/57 58/58/58
f 49/49/49 58/58/58 59/59/59
f 49/49/49 59/59/59 50/50/50
f 50/50/50 59/59/59 51/51/51
f 51/51/51 59/59/59 60/60/60
f 51/51/51 60/60/60 61/61/61
f 51/51/51 61/61/61 52/52/52
f 52/52/52 61/61/61 53/53/53
f 53/53/53 61/61/61 62/62/62
f 53/53/53 62/62/62 63/63/63
f 53/53/53 63/63/63 54/54/54
f 55/55/55 64/64/64 65/65/65
f 55/55/55 65/65/65 56/56/56
f 56/56/56 65/65/65 57/57/57
f 57/57/57 65/65/65 66/66/66
f 57/57/57 66/66/66 67/67/67
f 57/57/57 67/67/67 58/58/58
f 58/58/58 67/67/67 59/59/59
f 59/59/59 67/67/67 68/68/68
f 59/59/59 68/68/68 69/69/69
f 59/59/59 69/69/69 60/60/60
f 60/60/60 69/69/69 61/61/61
f 61/61/61 69/69/69 70/70/70
f 61/61/61 70/70/70 71/71/71
f 61/61/61 71/71/71 62/62/62
f 62/62/62 71/71/71 63/63/63
f 63/63/63 71/71/71 72/72/72
f 64/64/64 73/73/73 65/65/65
f 65/65/65 73/73/73 74/74/74
f 65/65/65 74/74/74 75/75/75
f 65/65/65 75/75/75 66/66/66
f 66/66/66 75/75/75 67/67/67
f 67/67/67 75/75/75 76/76/76
f 67/67/67 76/76/76 77/77/77
f 67/67/67 77/77/77 68/68/68
f 68/68/68 77/77/77 69/69/69
f 69/69/69 77/77/77 78/78/78
f 69/69/69 78/78/78 79/79/79
f 69/69/69 79/79/79 70/70/70
f 70/70/70 79/79/79 71/71/71
f 71/71/71 79/79/79 80/80/80
f 71/71/71 80/80/80 81/81/81
f 71/71/71 81/81/81 72/72/72
