# Generated by tools/generate_island.py. Do not edit by hand.
o terrain_lod2_-3_1

v -192.000 -8.000 64.000 0.469 0.438 0.255
v -192.000 -8.000 72.000 0.466 0.435 0.253
v -184.000 -8.000 72.000 0.436 0.403 0.233
v -184.000 -8.000 64.000 0.442 0.410 0.237
v -176.000 -8.000 64.000 0.415 0.382 0.219
v -176.000 -8.000 72.000 0.418 0.385 0.222
v -168.000 -8.000 72.000 0.421 0.388 0.223
v -168.000 -8.000 64.000 0.395 0.361 0.206
v -160.000 -8.000 64.000 0.376 0.342 0.194
v -160.000 -8.000 72.000 0.399 0.365 0.209
v -152.000 -8.000 72.000 0.387 0.353 0.201
v -152.000 -7.259 64.000 0.368 0.334 0.189
v -144.000 -6.053 64.000 0.379 0.345 0.196
v -144.000 -6.833 72.000 0.375 0.341 0.193
v -136.000 -5.180 72.000 0.400 0.366 0.209
v -136.000 -4.596 64.000 0.368 0.334 0.189
v -128.000 -3.518 64.000 0.377 0.342 0.194
v -128.000 -3.855 72.000 0.408 0.375 0.215
v -192.000 -8.000 80.000 0.440 0.408 0.236
v -184.000 -8.000 80.000 0.446 0.414 0.240
v -176.000 -8.000 80.000 0.436 0.403 0.233
v -168.000 -8.000 80.000 0.436 0.403 0.233
v -160.000 -8.000 80.000 0.447 0.415 0.240
v -152.000 -8.000 80.000 0.440 0.407 0.236
v -144.000 -7.320 80.000 0.420 0.387 0.223
v -136.000 -5.696 80.000 0.438 0.406 0.235
v -128.000 -4.012 80.000 0.453 0.421 0.244
v -192.000 -8.000 88.000 0.467 0.436 0.254
v -184.000 -8.000 88.000 0.458 0.426 0.248
v -176.000 -8.000 88.000 0.466 0.434 0.253
v -168.000 -8.000 88.000 0.460 0.428 0.249
v -160.000 -8.000 88.000 0.446 0.414 0.240
v -152.000 -8.000 88.000 0.449 0.416 0.241
v -144.000 -7.710 88.000 0.444 0.411 0.238
v -136.000 -6.226 88.000 0.438 0.406 0.235
v -128.000 -4.899 88.000 0.445 0.413 0.239
v -192.000 -8.000 96.000 0.506 0.475 0.279
v -184.000 -8.000 96.000 0.483 0.451 0.264
v -176.000 -8.000 96.000 0.483 0.452 0.264
v -168.000 -8.000 96.000 0.486 0.455 0.266
v -160.000 -8.000 96.000 0.461 0.429 0.250
v -152.000 -8.000 96.000 0.435 0.403 0.233
v -144.000 -8.000 96.000 0.435 0.402 0.233
v -136.000 -7.185 96.000 0.420 0.387 0.223
v -128.000 -6.296 96.000 0.421 0.388 0.223
v -192.000 -8.000 104.000 0.528 0.498 0.294
v -184.000 -8.000 104.000 0.535 0.506 0.298
v -176.000 -8.000 104.000 0.540 0.510 0.301
v -168.000 -8.000 104.000 0.517 0.487 0.287
v -160.000 -8.000 104.000 0.482 0.451 0.263
v -152.000 -8.000 104.000 0.432 0.399 0.230
v -144.000 -8.000 104.000 0.428 0.396 0.228
v -136.000 -8.000 104.000 0.382 0.348 0.198
v -128.000 -7.294 104.000 0.375 0.341 0.193
v -192.000 -8.000 112.000 0.529 0.500 0.295
v -184.000 -8.000 112.000 0.530 0.501 0.295
v -176.000 -8.000 112.000 0.549 0.520 0.308
v -168.000 -8.000 112.000 0.533 0.503 0.297
v -160.000 -8.000 112.000 0.486 0.455 0.266
v -152.000 -8.000 112.000 0.431 0.399 0.230
v -144.000 -8.000 112.000 0.417 0.384 0.221
v -136.000 -8.000 112.000 0.380 0.346 0.196
v -128.000 -8.000 112.000 0.366 0.331 0.187
v -192.000 -8.000 120.000 0.505 0.475 0.279
v -184.000 -8.000 120.000 0.520 0.490 0.289
v -176.000 -8.000 120.000 0.528 0.498 0.294
v -168.000 -8.000 120.000 0.531 0.501 0.296
v -160.000 -8.000 120.000 0.484 0.453 0.265
v -152.000 -8.000 120.000 0.434 0.402 0.232
v -144.000 -8.000 120.000 0.405 0.372 0.213
v -136.000 -8.000 120.000 0.370 0.335 0.190
v -128.000 -8.000 120.000 0.361 0.326 0.184
v -192.000 -8.000 128.000 0.504 0.474 0.278
v -184.000 -8.000 128.000 0.513 0.483 0.284
v -176.000 -8.000 128.000 0.516 0.486 0.286
v -168.000 -8.000 128.000 0.513 0.483 0.284
v -160.000 -8.000 128.000 0.491 0.460 0.270
v -152.000 -8.000 128.000 0.457 0.425 0.247
v -144.000 -8.000 128.000 0.412 0.378 0.217
v -136.000 -8.000 128.000 0.396 0.362 0.207
v -128.000 -8.000 128.000 0.385 0.350 0.199

vt 0.100000 0.366667
vt 0.100000 0.350000
vt 0.116667 0.350000
vt 0.116667 0.366667
vt 0.133333 0.366667
vt 0.133333 0.350000
vt 0.150000 0.350000
vt 0.150000 0.366667
vt 0.166667 0.366667
vt 0.166667 0.350000
vt 0.183333 0.350000
vt 0.183333 0.366667
vt 0.200000 0.366667
vt 0.200000 0.350000
vt 0.216667 0.350000
vt 0.216667 0.366667
vt 0.233333 0.366667
vt 0.233333 0.350000
vt 0.100000 0.333333
vt 0.116667 0.333333
vt 0.133333 0.333333
vt 0.150000 0.333333
vt 0.166667 0.333333
vt 0.183333 0.333333
vt 0.200000 0.333333
vt 0.216667 0.333333
vt 0.233333 0.333333
vt 0.100000 0.316667
vt 0.116667 0.316667
vt 0.133333 0.316667
vt 0.150000 0.316667
vt 0.166667 0.316667
vt 0.183333 0.316667
vt 0.200000 0.316667
vt 0.216667 0.316667
vt 0.233333 0.316667
vt 0.100000 0.300000
vt 0.116667 0.300000
vt 0.133333 0.300000
vt 0.150000 0.300000
vt 0.166667 0.300000
vt 0.183333 0.300000
vt 0.200000 0.300000
vt 0.216667 0.300000
vt 0.233333 0.300000
vt 0.100000 0.283333
vt 0.116667 0.283333
vt 0.133333 0.283333
vt 0.150000 0.283333
vt 0.166667 0.283333
vt 0.183333 0.283333
vt 0.200000 0.283333
vt 0.216667 0.283333
vt 0.233333 0.283333
vt 0.100000 0.266667
vt 0.116667 0.266667
vt 0.133333 0.266667
vt 0.150000 0.266667
vt 0.166667 0.266667
vt 0.183333 0.266667
vt 0.200000 0.266667
vt 0.216667 0.266667
vt 0.233333 0.266667
vt 0.100000 0.250000
vt 0.116667 0.250000
vt 0.133333 0.250000
vt 0.150000 0.250000
vt 0.166667 0.250000
vt 0.183333 0.250000
vt 0.200000 0.250000
vt 0.216667 0.250000
vt 0.233333 0.250000
vt 0.100000 0.233333
vt 0.116667 0.233333
vt 0.133333 0.233333
vt 0.150000 0.233333
vt 0.166667 0.233333
vt 0.183333 0.233333
vt 0.200000 0.233333
vt 0.216667 0.233333
vt 0.233333 0.233333

vn 0.00000 1.00000 0.00000
vn 0.00000 1.00000 0.00000
vn 0.00000 1.00000 0.00000
vn 0.00000 1.00000 0.00000
vn 0.00000 1.00000 0.00000
vn 0.00000 1.00000 0.00000
vn 0.00000 1.00000 0.00000
vn 0.00000 1.00000 0.00000
vn -0.02313 0.99946 0.02313
vn 0.00000 1.00000 0.00000
vn -0.07722 0.99610 0.04276
vn -0.12026 0.98851 0.09152
vn -0.16824 0.98177 0.08847
vn -0.17306 0.98184 0.07770
vn -0.18095 0.98161 0.06074
vn -0.15611 0.98512 0.07192
vn -0.14823 0.98732 0.05687
vn -0.16324 0.98612 0.03045
vn 0.00000 1.00000 0.00000
vn 0.00000 1.00000 0.00000
vn 0.00000 1.00000 0.00000
vn 0.00000 1.00000 0.00000
vn 0.00000 1.00000 0.00000
vn -0.04248 0.99910 0.00000
vn -0.14219 0.98889 0.04329
vn -0.20203 0.97729 0.06392
vn -0.18447 0.98075 0.06406
vn 0.00000 1.00000 0.00000
vn 0.00000 1.00000 0.00000
vn 0.00000 1.00000 0.00000
vn 0.00000 1.00000 0.00000
vn 0.00000 1.00000 0.00000
vn -0.01968 0.99975 0.01063
vn -0.11008 0.99302 0.04222
vn -0.16323 0.98236 0.09121
vn -0.16206 0.97688 0.13944
vn 0.00000 1.00000 0.00000
vn 0.00000 1.00000 0.00000
vn 0.00000 1.00000 0.00000
vn 0.00000 1.00000 0.00000
vn 0.00000 1.00000 0.00000
vn 0.00000 1.00000 0.00000
vn -0.05308 0.99792 0.03669
vn -0.10527 0.98839 0.10957
vn -0.11729 0.98478 0.12828
vn 0.00000 1.00000 0.00000
vn 0.00000 1.00000 0.00000
vn 0.00000 1.00000 0.00000
vn 0.00000 1.00000 0.00000
vn 0.00000 1.00000 0.00000
vn 0.00000 1.00000 0.00000
vn 0.00000 1.00000 0.00000
vn -0.04857 0.99747 0.05197
vn -0.08744 0.99057 0.10550
vn 0.00000 1.00000 0.00000
vn 0.00000 1.00000 0.00000
vn 0.00000 1.00000 0.00000
vn 0.00000 1.00000 0.00000
vn 0.00000 1.00000 0.00000
vn 0.00000 1.00000 0.00000
vn 0.00000 1.00000 0.00000
vn 0.00000 1.00000 0.00000
vn -0.02206 0.99951 0.02206
vn 0.00000 1.00000 0.00000
vn 0.00000 1.00000 0.00000
vn 0.00000 1.00000 0.00000
vn 0.00000 1.00000 0.00000
vn 0.00000 1.00000 0.00000
vn 0.00000 1.00000 0.00000
vn 0.00000 1.00000 0.00000
vn 0.00000 1.00000 0.00000
vn 0.00000 1.00000 0.00000
vn 0.00000 1.00000 0.00000
vn 0.00000 1.00000 0.00000
vn 0.00000 1.00000 0.00000
vn 0.00000 1.00000 0.00000
vn 0.00000 1.00000 0.00000
vn 0.00000 1.00000 0.00000
vn 0.00000 1.00000 0.00000
vn 0.00000 1.00000 0.00000
vn 0.00000 1.00000 0.00000

f 1/1/1 2/2/2 3/3/3
f 1/1/1 3/3/3 4/4/4
f 4/4/4 3/3/3 5/5/5
f 5/5/5 3/3/3 6/6/6
f 5/5/5 6/6/6 7/7/7
f 5/5/5 7/7/7 8/8/8
f 8/8/8 7/7/7 9/9/9
f 9/9/9 7/7/7 10/10/10
f 9/9/9 10/10/10 11/11/11
f 9/9/9 11/11/11 12/12/12
f 12/12/12 11/11/11 13/13/13
f 13/13/13 11/11/11 14/14/14
f 13/13/13 14/14/14 15/15/15
f 13/13/13 15/15/15 16/16/16
f 16/16/16 15/15/15 17/17/17
f 17/17/17 15/15/15 18/18/18
f 2/2/2 19/19/19 3/3/3
f 3/3/3 19/19/19 20/20/20
f 3/3/3 20/20/20 21/21/21
f 3/3/3 21/21/21 6/6/6
f 6/6/6 21/21/21 7/7/7
f 7/7/7 21/21/21 22/22/22
f 7/7/7 22/22/22 23/23/23
f 7/7/7 23/23/23 10/10/10
f 10/10/10 23/23/23 11/11/11
f 11/11/11 23/23/23 24/24/24
f 11/11/11 24/24/24 25/25/25
f 11/11/11 25/25/25 14/14/14
f 14/14/14 25/25/25 15/15/15
f 15/15/15 25/25/25 26/26/26
f 15/15/15 26/26/26 27/27/27
f 15/15/15 27/27/27 18/18/18
f 19/19/19 28/28/28 29/29/29
f 19/19/19 29/29/29 20/20/20
f 20/20/20 29/29/29 21/21/21
f 21/21/21 29/29/29 30/30/30
f 21/21/21 30/30/30 31/31/31
f 21/21/21 31/31/31 22/22/22
f 22/22/22 31/31/31 23/23/23
f 23/23/23 31/31/31 32/32/32
f 23/23/23 32/32/32 33/33/33
f 23/23/23 33/33/33 24/24/24
f 24/24/24 33/33/33 25/25/25
f 25/25/25 33/33/33 34/34/34
f 25/25/25 34/34/34 35/35/35
f 25/25/25 35/35/35 26/26/26
f 26/26/26 35/35/35 27/27/27
f 27/27/27 35/35/35 36/36/36
f 28/28/28 37/37/37 29/29/29
f 29/29/29 37/37/37 38/38/38
f 29/29/29 38/38/38 39/39/39
f 29/29/29 39/39/39 30/30/30
f 30/30/30 39/39/39 31/31/31
f 31/31/31 39/39/39 40/40/40
f 31/31/31 40/40/40 41/41/41
f 31/31/31 41/41/41 32/32/32
f 32/32/32 41/41/41 33/33/33
f 33/33/33 41/41/41 42/42/42
f 33/33/33 42/42/42 43/43/43
f 33/33/33 43/43/43 34/34/34
f 34/34/34 43/43/43 35/35/35
f 35/35/35 43/43/43 44/44/44
f 35/35/35 44/44/44 45/45/45
f 35/35/35 45/45/45 36/36/36
f 37/37/37 46/46/46 47/47/47
f 37/37/37 47/47/47 38/38/38
f 38/38/38 47/47/47 39/39/39
f 39/39/39 47/47/47 48/48/48
f 39/39/39 48/48/48 49/49/49
f 39/39/39 49/49/49 40/40/40
f 40/40/40 49/49/49 41/41/41
f 41/41/41 49/49/49 50/50/50
f 41/41/41 50/50/50 51/51/51
f 41/41/41 51/51/51 42/42/42
f 42/42/42 51/51/51 43/43/43
f 43/43/43 51/51/51 52/52/52
f 43/43/43 52/52/52 53/53/53
f 43/43/43 53/53/53 44/44/44
f 44/44/44 53/53/53 45/45/45
f 45/45/45 53/53/53 54/54/54
f 46/46/46 55/55/55 47/47/47
f 47/47/47 55/55/55 56/56/56
f 47/47/47 56/56/56 57/57/57
f 47/47/47 57/57/57 48/48/48
f 48/48/48 57/57/57 49/49/49
f 49/49/49 57/57/57 58/58/58
f 49/49/49 58/58/58 59/59/59
f 49/49/49 59/59/59 50/50/50
f 50/50/50 59/59/59 51/51/51
f 51/51/51 59/59/59 60/60/60
f 51/51/51 60/60/60 61/61/61
f 51/51/51 61/61/61 52/52/52
f 52/52/52 61/61/61 53/53/53
f 53/53/53 61/61/61 62/62/62
f 53/53/53 62/62/62 63/63/63
f 53/53/53 63/63/63 54/54/54
f 55/55/55 64/64/64 65/65/65
f 55/55/55 65/65/65 56/56/56
f 56/56/56 65/65/65 57/57/57
f 57/57/57 65/65/65 66/66/66
f 57/57/57 66/66/66 67/67/67
f 57/57/57 67/67/67 58/58/58
f 58/58/58 67/67/67 59/59/59
f 59/59/59 67/67/67 68/68/68
f 59/59/59 68/68/68 69/69/69
f 59/59/59 69/69/69 60/60/60
f 60/60/60 69/69/69 61/61/61
f 61/61/61 69/69/69 70/70/70
f 61/61/61 70/70/70 71/71/71
f 61/61/61 71/71/71 62/62/62
f 62/62/62 71/71/71 63/63/63
f 63/63/63 71/71/71 72/72/72
f 64/64/64 73/73/73 65/65/65
f 65/65/65 73/73/73 74/74/74
f 65/65/65 74/74/74 75/75/75
f 65/65/65 75/75/75 66/66/66
f 66/66/66 75/75/75 67/67/67
f 67/67/67 75/75/75 76/76/76
f 67/67/67 76/76/76 77/77/77
f 67/67/67 77/77/77 68/68/68
f 68/68/68 77/77/77 69/69/69
f 69/69/69 77/77/77 78/78/78
f 69/69/69 78/78/78 79/79/79
f 69/69/69 79/79/79 70/70/70
f 70/70/70 79/79/79 71/71/71
f 71/71/71 79/79/79 80/80/80
f 71/71/71 80/80/80 81/81/81
f 71/71/71 81/81/81 72/72/72
