# Generated by tools/generate_island.py. Do not edit by hand.
o terrain_lod2_2_-2

v 128.000 -3.726 -128.000 0.425 0.392 0.226
v 128.000 -3.370 -120.000 0.402 0.368 0.211
v 136.000 -4.120 -120.000 0.428 0.395 0.228
v 136.000 -4.731 -128.000 0.417 0.384 0.221
v 144.000 -5.722 -128.000 0.406 0.373 0.214
v 144.000 -5.320 -120.000 0.438 0.406 0.235
v 152.000 -5.681 -120.000 0.431 0.398 0.230
v 152.000 -6.665 -128.000 0.412 0.378 0.217
v 160.000 -7.623 -128.000 0.423 0.390 0.224
v 160.000 -6.232 -120.000 0.431 0.398 0.230
v 168.000 -6.728 -120.000 0.428 0.396 0.228
v 168.000 -7.869 -128.000 0.406 0.373 0.214
v 176.000 -8.000 -128.000 0.439 0.407 0.235
v 176.000 -7.138 -120.000 0.430 0.397 0.229
v 184.000 -8.000 -120.000 0.470 0.439 0.256
v 184.000 -8.000 -128.000 0.445 0.413 0.239
v 192.000 -8.000 -128.000 0.484 0.453 0.265
v 192.000 -8.000 -120.000 0.498 0.468 0.274
v 128.000 -2.899 -112.000 0.383 0.349 0.199
v 136.000 -3.670 -112.000 0.413 0.379 0.218
v 144.000 -4.774 -112.000 0.459 0.427 0.248
v 152.000 -5.437 -112.000 0.443 0.411 0.238
v 160.000 -5.529 -112.000 0.425 0.392 0.226
v 168.000 -6.177 -112.000 0.434 0.402 0.232
v 176.000 -6.452 -112.000 0.447 0.415 0.241
v 184.000 -7.301 -112.000 0.474 0.443 0.259
v 192.000 -8.000 -112.000 0.505 0.475 0.279
v 128.000 -2.444 -104.000 0.376 0.342 0.194
v 136.000 -3.469 -104.000 0.409 0.376 0.215
v 144.000 -4.391 -104.000 0.437 0.405 0.234
v 152.000 -5.674 -104.000 0.458 0.426 0.247
v 160.000 -5.823 -104.000 0.451 0.419 0.243
v 168.000 -5.711 -104.000 0.447 0.415 0.241
v 176.000 -6.049 -104.000 0.440 0.408 0.236
v 184.000 -6.251 -104.000 0.462 0.430 0.250
v 192.000 -7.050 -104.000 0.497 0.466 0.273
v 128.000 -1.709 -96.000 0.384 0.350 0.199
v 136.000 -1.749 -96.000 0.411 0.378 0.217
v 144.000 -2.790 -96.000 0.434 0.402 0.232
v 152.000 -4.449 -96.000 0.460 0.429 0.249
v 160.000 -5.224 -96.000 0.459 0.427 0.248
v 168.000 -5.071 -96.000 0.453 0.421 0.244
v 176.000 -5.411 -96.000 0.449 0.417 0.242
v 184.000 -5.698 -96.000 0.464 0.433 0.252
v 192.000 -6.098 -96.000 0.494 0.463 0.271
v 128.000 -0.877 -88.000 0.410 0.376 0.216
v 136.000 0.044 -88.000 0.436 0.403 0.233
v 144.000 -0.884 -88.000 0.472 0.441 0.257
v 152.000 -2.466 -88.000 0.447 0.415 0.241
v 160.000 -3.510 -88.000 0.440 0.408 0.236
v 168.000 -4.189 -88.000 0.462 0.431 0.251
v 176.000 -4.483 -88.000 0.461 0.429 0.250
v 184.000 -5.154 -88.000 0.473 0.441 0.257
v 192.000 -5.329 -88.000 0.494 0.464 0.272
v 128.000 -1.505 -80.000 0.423 0.390 0.225
v 136.000 0.010 -80.000 0.435 0.402 0.232
v 144.000 -0.355 -80.000 0.479 0.448 0.262
v 152.000 -1.450 -80.000 0.453 0.421 0.245
v 160.000 -2.114 -80.000 0.439 0.406 0.235
v 168.000 -3.196 -80.000 0.434 0.401 0.232
v 176.000 -3.653 -80.000 0.444 0.412 0.238
v 184.000 -4.278 -80.000 0.453 0.421 0.244
v 192.000 -4.891 -80.000 0.480 0.449 0.262
v 128.000 -0.878 -72.000 0.424 0.391 0.225
v 136.000 -0.344 -72.000 0.454 0.422 0.245
v 144.000 -0.280 -72.000 0.474 0.443 0.258
v 152.000 -0.942 -72.000 0.464 0.432 0.251
v 160.000 -1.513 -72.000 0.443 0.411 0.238
v 168.000 -2.404 -72.000 0.431 0.398 0.230
v 176.000 -3.278 -72.000 0.436 0.404 0.233
v 184.000 -3.689 -72.000 0.445 0.412 0.239
v 192.000 -4.745 -72.000 0.469 0.437 0.255
v 128.000 0.589 -64.000 0.414 0.381 0.219
v 136.000 0.093 -64.000 0.421 0.388 0.223
v 144.000 -0.219 -64.000 0.419 0.386 0.222
v 152.000 -0.942 -64.000 0.437 0.405 0.234
v 160.000 -1.885 -64.000 0.432 0.399 0.230
v 168.000 -2.385 -64.000 0.456 0.424 0.246
v 176.000 -3.144 -64.000 0.442 0.410 0.237
v 184.000 -3.612 -64.000 0.458 0.426 0.248
v 192.000 -4.392 -64.000 0.488 0.457 0.267

vt 0.700000 0.700000
vt 0.700000 0.687500
vt 0.712500 0.687500
vt 0.712500 0.700000
vt 0.725000 0.700000
vt 0.725000 0.687500
vt 0.737500 0.687500
vt 0.737500 0.700000
vt 0.750000 0.700000
vt 0.750000 0.687500
vt 0.762500 0.687500
vt 0.762500 0.700000
vt 0.775000 0.700000
vt 0.775000 0.687500
vt 0.787500 0.687500
vt 0.787500 0.700000
vt 0.800000 0.700000
vt 0.800000 0.687500
vt 0.700000 0.675000
vt 0.712500 0.675000
vt 0.725000 0.675000
vt 0.737500 0.675000
vt 0.750000 0.675000
vt 0.762500 0.675000
vt 0.775000 0.675000
vt 0.787500 0.675000
vt 0.800000 0.675000
vt 0.700000 0.662500
vt 0.712500 0.662500
vt 0.725000 0.662500
vt 0.737500 0.662500
vt 0.750000 0.662500
vt 0.762500 0.662500
vt 0.775000 0.662500
vt 0.787500 0.662500
vt 0.800000 0.662500
vt 0.700000 0.650000
vt 0.712500 0.650000
vt 0.725000 0.650000
vt 0.737500 0.650000
vt 0.750000 0.650000
vt 0.762500 0.650000
vt 0.775000 0.650000
vt 0.787500 0.650000
vt 0.800000 0.650000
vt 0.700000 0.637500
vt 0.712500 0.637500
vt 0.725000 0.637500
vt 0.737500 0.637500
vt 0.750000 0.637500
vt 0.762500 0.637500
vt 0.775000 0.637500
vt 0.787500 0.637500
vt 0.800000 0.637500
vt 0.700000 0.625000
vt 0.712500 0.625000
vt 0.725000 0.625000
vt 0.737500 0.625000
vt 0.750000 0.625000
vt 0.762500 0.625000
vt 0.775000 0.625000
vt 0.787500 0.625000
vt 0.800000 0.625000
vt 0.700000 0.612500
vt 0.712500 0.612500
vt 0.725000 0.612500
vt 0.737500 0.612500
vt 0.750000 0.612500
vt 0.762500 0.612500
vt 0.775000 0.612500
vt 0.787500 0.612500
vt 0.800000 0.612500
vt 0.700000 0.600000
vt 0.712500 0.600000
vt 0.725000 0.600000
vt 0.737500 0.600000
vt 0.750000 0.600000
vt 0.762500 0.600000
vt 0.775000 0.600000
vt 0.787500 0.600000
vt 0.800000 0.600000

vn 0.10887 0.99225 -0.05995
vn 0.09323 0.99432 -0.05140
vn 0.12033 0.99090 -0.06034
vn 0.12344 0.98947 -0.07557
vn 0.10826 0.99134 -0.07433
vn 0.09690 0.99355 -0.05884
vn 0.06957 0.99391 -0.08541
vn 0.11713 0.98568 -0.12132
vn 0.06938 0.98606 -0.15123
vn 0.06478 0.98946 -0.12954
vn 0.04826 0.99287 -0.10900
vn 0.02330 0.98971 -0.14115
vn 0.04361 0.99507 -0.08910
vn 0.07886 0.99225 -0.09598
vn 0.05101 0.99764 -0.04591
vn 0.00000 1.00000 0.00000
vn 0.00000 1.00000 0.00000
vn 0.00000 1.00000 0.00000
vn 0.10303 0.99347 -0.04898
vn 0.11634 0.99239 -0.04037
vn 0.11321 0.99280 -0.03902
vn 0.04709 0.99889 -0.00044
vn 0.04004 0.99878 -0.02876
vn 0.05751 0.99633 -0.06338
vn 0.06312 0.99504 -0.07687
vn 0.09572 0.98951 -0.10818
vn 0.06825 0.99414 -0.08385
vn 0.12685 0.98919 -0.07356
vn 0.10583 0.98846 -0.10837
vn 0.13546 0.98325 -0.12197
vn 0.09395 0.99337 -0.06620
vn 0.00230 0.99982 -0.01902
vn 0.02436 0.99816 -0.05551
vn 0.03368 0.99732 -0.06490
vn 0.06576 0.99326 -0.09544
vn 0.09873 0.98816 -0.11745
vn 0.00570 0.98762 -0.15679
vn 0.06583 0.97461 -0.21403
vn 0.15269 0.96627 -0.20738
vn 0.14756 0.96975 -0.19444
vn 0.04639 0.98842 -0.14449
vn 0.01162 0.99544 -0.09466
vn 0.04292 0.99507 -0.08940
vn 0.04281 0.99675 -0.06831
vn 0.05516 0.99463 -0.08758
vn -0.11440 0.99335 -0.01264
vn -0.00087 0.99541 -0.09574
vn 0.15325 0.97694 -0.14868
vn 0.14374 0.97390 -0.17565
vn 0.10514 0.97618 -0.18978
vn 0.05676 0.98946 -0.13323
vn 0.05987 0.99223 -0.10904
vn 0.05620 0.99434 -0.09019
vn 0.02176 0.99693 -0.07522
vn -0.13879 0.99025 0.01205
vn -0.07171 0.99713 0.02421
vn 0.09369 0.99493 -0.03644
vn 0.10879 0.98958 -0.09427
vn 0.10311 0.98825 -0.11278
vn 0.09516 0.98933 -0.11036
vn 0.06854 0.99377 -0.08789
vn 0.07684 0.99289 -0.09095
vn 0.07640 0.99504 -0.06372
vn -0.06602 0.98938 -0.12951
vn -0.02402 0.99901 -0.03741
vn 0.03730 0.99927 -0.00846
vn 0.09164 0.99556 -0.02147
vn 0.09102 0.99575 -0.01422
vn 0.09832 0.99448 -0.03666
vn 0.07999 0.99629 -0.03171
vn 0.08436 0.99577 -0.03642
vn 0.13090 0.99091 -0.03088
vn -0.00233 0.99299 -0.11819
vn 0.05038 0.99724 -0.05449
vn 0.05093 0.99855 -0.01741
vn 0.10356 0.99462 0.00008
vn 0.09041 0.99565 0.02260
vn 0.07840 0.99692 -0.00233
vn 0.07822 0.99687 -0.01137
vn 0.07782 0.99692 -0.00958
vn 0.11405 0.99312 -0.02668

f 1/1/1 2/2/2 3/3/3
f 1/1/1 3/3/3 4/4/4
f 4/4/4 3/3/3 5/5/5
f 5/5/5 3/3/3 6/6/6
f 5/5/5 6/6/6 7/7/7
f 5/5/5 7/7/7 8/8/8
f 8/8/8 7/7/7 9/9/9
f 9/9/9 7/7/7 10/10/10
f 9/9/9 10/10/10 11/11/11
f 9/9/9 11/11/11 12/12/12
f 12/12/12 11/11/11 13/13/13
f 13/13/13 11/11/11 14/14/14
f 13/13/13 14/14/14 15/15/15
f 13/13/13 15/15/15 16/16/16
f 16/16/16 15/15/15 17/17/17
f 17/17/17 15/15/15 18/18/18
f 2/2/2 19/19/19 3/3/3
f 3/3/3 19/19/19 20/20/20
f 3/3/3 20/20/20 21/21/21
f 3/3/3 21/21/21 6/6/6
f 6/6/6 21/21/21 7/7/7
f 7/7/7 21/21/21 22/22/22
f 7/7/7 22/22/22 23/23/23
f 7/7/7 23/23/23 10/10/10
f 10/10/10 23/23/23 11/11/11
f 11/11/11 23/23/23 24/24/24
f 11/11/11 24/24/24 25/25/25
f 11/11/11 25/25/25 14/14/14
f 14/14/14 25/25/25 15/15/15
f 15/15/15 25/25/25 26/26/26
f 15/15/15 26/26/26 27/27/27
f 15/15/15 27/27/27 18/18/18
f 19/19/19 28/28/28 29/29/29
f 19/19/19 29/29/29 20/20/20
f 20/20/20 29/29/29 21/21/21
f 21/21/21 29/29/29 30/30/30
f 21/21/21 30/30/30 31/31/31
f 21/21/21 31/31/31 22/22/22
f 22/22/22 31/31/31 23/23/23
f 23/23/23 31/31/31 32/32/32
f 23/23/23 32/32/32 33/33/33
f 23/23/23 33/33/33 24/24/24
f 24/24/24 33/33/33 25/25/25
f 25/25/25 33/33/33 34/34/34
f 25/25/25 34/34/34 35/35/35
f 25/25/25 35/35/35 26/26/26
f 26/26/26 35/35/35 27/27/27
f 27/27/27 35/35/35 36/36/36
f 28/28/28 37/37/37 29/29/29
f 29/29/29 37/37/37 38/38/38
f 29/29/29 38/38/38 39/39/39
f 29/29/29 39/39/39 30/30/30
f 30/30/30 39/39/39 31/31/31
f 31/31/31 39/39/39 40/40/40
f 31/31/31 40/40/40 41/41/41
f 31/31/31 41/41/41 32/32/32
f 32/32/32 41/41/41 33/33/33
f 33/33/33 41/41/41 42/42/42
f 33/33/33 42/42/42 43/43/43
f 33/33/33 43/43/43 34/34/34
f 34/34/34 43/43/43 35/35/35
f 35/35/35 43/43/43 44/44/44
f 35/35/35 44/44/44 45/45/45
f 35/35/35 45/45/45 36/36/36
f 37/37/37 46/46/46 47/47/47
f 37/37/37 47/47/47 38/38/38
f 38/38/38 47/47/47 39/39/39
f 39/39/39 47/47/47 48/48/48
f 39/39/39 48/48/48 49/49/49
f 39/39/39 49/49/49 40/40/40
f 40/40/40 49/49/49 41/41/41
f 41/41/41 49/49/49 50/50/50
f 41/41/41 50/50/50 51/51/51
f 41/41/41 51/51/51 42/42/42
f 42/42/42 51/51/51 43/43/43
f 43/43/43 51/51/51 52/52/52
f 43/43/43 52/52/52 53/53/53
f 43/43/43 53/53/53 44/44/44
f 44/44/44 53/53/53 45/45/45
f 45/45/45 53/53/53 54/54/54
f 46/46/46 55/55/55 47/47/47
f 47/47/47 55/55/55 56/56/56
f 47/47/47 56/56/56 57/57/57
f 47/47/47 57/57/57 48/48/48
f 48/48/48 57/57/57 49/49/49
f 49/49/49 57/57/57 58/58/58
f 49/49/49 58/58/58 59/59/59
f 49/49/49 59/59/59 50/50/50
f 50/50/50 59/59/59 51/51/51
f 51/51/51 59/59/59 60/60/60
f 51/51/51 60/60/60 61/61/61
f 51/51/51 61/61/61 52/52/52
f 52/52/52 61/61/61 53/53/53
f 53/53/53 61/61/61 62/62/62
f 53/53/53 62/62/62 63/63/63
f 53/53/53 63/63/63 54/54/54
f 55/55/55 64/64/64 65/65/65
f 55/55/55 65/65/65 56/56/56
f 56/56/56 65/65/65 57/57/57
f 57/57/57 65/65/65 66/66/66
f 57/57/57 66/66/66 67/67/67
f 57/57/57 67/67/67 58/58/58
f 58/58/58 67/67/67 59/59/59
f 59/59/59 67/67/67 68/68/68
f 59/59/59 68/68/68 69/69/69
f 59/59/59 69/69/69 60/60/60
f 60/60/60 69/69/69 61/61/61
f 61/61/61 69/69/69 70/70/70
f 61/61/61 70/70/70 71/71/71
f 61/61/61 71/71/71 62/62/62
f 62/62/62 71/71/71 63/63/63
f 63/63/63 71/71/71 72/72/72
f 64/64/64 73/73/73 65/65/65
f 65/65/65 73/73/73 74/74/74
f 65/65/65 74/74/74 75/75/75
f 65/65/65 75/75/75 66/66/66
f 66/66/66 75/75/75 67/67/67
f 67/67/67 75/75/75 76/76/76
f 67/67/67 76/76/76 77/77/77
f 67/67/67 77/77/77 68/68/68
f 68/68/68 77/77/77 69/69/69
f 69/69/69 77/77/77 78/78/78
f 69/69/69 78/78/78 79/79/79
f 69/69/69 79/79/79 70/70/70
f 70/70/70 79/79/79 71/71/71
f 71/71/71 79/79/79 80/80/80
f 71/71/71 80/80/80 81/81/81
f 71/71/71 81/81/81 72/72/72
