# Generated by tools/generate_island.py. Do not edit by hand.
o terrain_lod2_2_0

v 256.000 -0.926 0.000 0.373 0.351 0.207
v 256.000 -1.081 16.000 0.356 0.334 0.196
v 272.000 -1.222 16.000 0.367 0.345 0.203
v 272.000 0.154 0.000 0.347 0.325 0.190
v 288.000 0.866 0.000 0.318 0.295 0.171
v 288.000 -0.465 16.000 0.349 0.326 0.191
v 304.000 0.795 16.000 0.316 0.293 0.169
v 304.000 0.707 0.000 0.280 0.253 0.143
v 320.000 -0.758 0.000 0.318 0.287 0.162
v 320.000 0.951 16.000 0.098 0.234 0.056
v 336.000 0.595 16.000 0.408 0.378 0.219
v 336.000 -0.781 0.000 0.433 0.401 0.232
v 352.000 0.999 0.000 0.206 0.289 0.105
v 352.000 0.857 16.000 0.420 0.388 0.224
v 368.000 0.564 16.000 0.464 0.432 0.252
v 368.000 0.497 0.000 0.506 0.476 0.279
v 384.000 1.761 0.000 0.278 0.345 0.129
v 384.000 1.845 16.000 0.175 0.325 0.166
v 256.000 -0.662 32.000 0.379 0.358 0.211
v 272.000 0.039 32.000 0.374 0.352 0.208
v 288.000 -1.106 32.000 0.385 0.364 0.215
v 304.000 0.134 32.000 0.380 0.359 0.212
v 320.000 2.035 32.000 0.146 0.285 0.068
v 336.000 2.078 32.000 0.107 0.219 0.115
v 352.000 1.168 32.000 0.138 0.266 0.137
v 368.000 1.986 32.000 0.139 0.275 0.143
v 384.000 2.153 32.000 0.162 0.308 0.159
v 256.000 1.283 48.000 0.172 0.314 0.075
v 272.000 -1.100 48.000 0.402 0.381 0.226
v 288.000 -0.934 48.000 0.396 0.375 0.222
v 304.000 -0.872 48.000 0.414 0.393 0.234
v 320.000 1.345 48.000 0.177 0.321 0.077
v 336.000 2.410 48.000 0.152 0.292 0.070
v 352.000 1.154 48.000 0.123 0.238 0.123
v 368.000 0.567 48.000 0.409 0.380 0.220
v 384.000 0.455 48.000 0.432 0.399 0.231
v 256.000 2.208 64.000 0.178 0.323 0.077
v 272.000 -0.645 64.000 0.396 0.375 0.222
v 288.000 -0.199 64.000 0.380 0.359 0.211
v 304.000 -1.102 64.000 0.421 0.401 0.238
v 320.000 -0.413 64.000 0.420 0.400 0.238
v 336.000 0.823 64.000 0.362 0.340 0.199
v 352.000 -0.001 64.000 0.367 0.344 0.201
v 368.000 -0.610 64.000 0.394 0.366 0.213
v 384.000 -1.362 64.000 0.418 0.386 0.223
v 256.000 1.757 80.000 0.162 0.304 0.073
v 272.000 1.371 80.000 0.135 0.269 0.064
v 288.000 -1.119 80.000 0.349 0.327 0.191
v 304.000 -1.780 80.000 0.416 0.395 0.235
v 320.000 -0.887 80.000 0.418 0.398 0.237
v 336.000 0.756 80.000 0.364 0.342 0.201
v 352.000 0.226 80.000 0.409 0.387 0.229
v 368.000 -0.673 80.000 0.431 0.404 0.237
v 384.000 -1.047 80.000 0.479 0.449 0.263
v 256.000 0.988 96.000 0.134 0.275 0.066
v 272.000 1.370 96.000 0.111 0.240 0.057
v 288.000 -0.687 96.000 0.350 0.327 0.192
v 304.000 -0.181 96.000 0.397 0.376 0.223
v 320.000 0.657 96.000 0.416 0.396 0.235
v 336.000 1.515 96.000 0.154 0.293 0.070
v 352.000 1.238 96.000 0.142 0.261 0.133
v 368.000 1.557 96.000 0.165 0.301 0.153
v 384.000 1.343 96.000 0.174 0.322 0.164
v 256.000 0.591 112.000 0.359 0.332 0.192
v 272.000 -0.204 112.000 0.319 0.295 0.170
v 288.000 0.625 112.000 0.339 0.316 0.184
v 304.000 -1.138 112.000 0.358 0.336 0.197
v 320.000 1.200 112.000 0.167 0.309 0.074
v 336.000 2.241 112.000 0.168 0.313 0.075
v 352.000 0.563 112.000 0.434 0.408 0.240
v 368.000 0.533 112.000 0.489 0.460 0.271
v 384.000 0.980 112.000 0.176 0.326 0.166
v 256.000 -0.860 128.000 0.383 0.354 0.204
v 272.000 0.192 128.000 0.354 0.330 0.192
v 288.000 0.688 128.000 0.366 0.344 0.202
v 304.000 -0.694 128.000 0.373 0.351 0.207
v 320.000 -0.255 128.000 0.390 0.369 0.218
v 336.000 0.903 128.000 0.166 0.307 0.074
v 352.000 1.383 128.000 0.138 0.256 0.131
v 368.000 1.210 128.000 0.155 0.291 0.150
v 384.000 1.194 128.000 0.177 0.327 0.167

vt 0.633333 0.500000
vt 0.633333 0.491667
vt 0.641667 0.491667
vt 0.641667 0.500000
vt 0.650000 0.500000
vt 0.650000 0.491667
vt 0.658333 0.491667
vt 0.658333 0.500000
vt 0.666667 0.500000
vt 0.666667 0.491667
vt 0.675000 0.491667
vt 0.675000 0.500000
vt 0.683333 0.500000
vt 0.683333 0.491667
vt 0.691667 0.491667
vt 0.691667 0.500000
vt 0.700000 0.500000
vt 0.700000 0.491667
vt 0.633333 0.483333
vt 0.641667 0.483333
vt 0.650000 0.483333
vt 0.658333 0.483333
vt 0.666667 0.483333
vt 0.675000 0.483333
vt 0.683333 0.483333
vt 0.691667 0.483333
vt 0.700000 0.483333
vt 0.633333 0.475000
vt 0.641667 0.475000
vt 0.650000 0.475000
vt 0.658333 0.475000
vt 0.666667 0.475000
vt 0.675000 0.475000
vt 0.683333 0.475000
vt 0.691667 0.475000
vt 0.700000 0.475000
vt 0.633333 0.466667
vt 0.641667 0.466667
vt 0.650000 0.466667
vt 0.658333 0.466667
vt 0.666667 0.466667
vt 0.675000 0.466667
vt 0.683333 0.466667
vt 0.691667 0.466667
vt 0.700000 0.466667
vt 0.633333 0.458333
vt 0.641667 0.458333
vt 0.650000 0.458333
vt 0.658333 0.458333
vt 0.666667 0.458333
vt 0.675000 0.458333
vt 0.683333 0.458333
vt 0.691667 0.458333
vt 0.700000 0.458333
vt 0.633333 0.450000
vt 0.641667 0.450000
vt 0.650000 0.450000
vt 0.658333 0.450000
vt 0.666667 0.450000
vt 0.675000 0.450000
vt 0.683333 0.450000
vt 0.691667 0.450000
vt 0.700000 0.450000
vt 0.633333 0.441667
vt 0.641667 0.441667
vt 0.650000 0.441667
vt 0.658333 0.441667
vt 0.666667 0.441667
vt 0.675000 0.441667
vt 0.683333 0.441667
vt 0.691667 0.441667
vt 0.700000 0.441667
vt 0.633333 0.433333
vt 0.641667 0.433333
vt 0.650000 0.433333
vt 0.658333 0.433333
vt 0.666667 0.433333
vt 0.675000 0.433333
vt 0.683333 0.433333
vt 0.691667 0.433333
vt 0.700000 0.433333

vn -0.02929 0.99843 0.04775
vn 0.00883 0.99993 -0.00826
vn -0.02015 0.99968 0.01514
vn -0.05571 0.99478 0.08555
vn -0.04005 0.99730 0.06154
vn -0.06280 0.99614 0.06139
vn -0.03394 0.99942 0.00253
vn 0.05068 0.99870 -0.00552
vn 0.02630 0.99676 -0.07601
vn 0.00624 0.99619 -0.08693
vn -0.00547 0.99769 -0.06766
vn -0.05460 0.99484 -0.08555
vn -0.01949 0.99965 -0.01812
vn 0.00095 0.99999 -0.00528
vn -0.02907 0.99920 -0.02762
vn -0.02383 0.99971 -0.00419
vn -0.07927 0.99684 -0.00471
vn -0.07979 0.99674 -0.01219
vn 0.01754 0.99909 -0.03881
vn 0.01387 0.99990 -0.00381
vn -0.01903 0.99963 0.01939
vn -0.09755 0.99388 0.05177
vn -0.05435 0.99849 -0.00731
vn 0.02705 0.99803 -0.05660
vn 0.01606 0.99969 -0.01883
vn -0.03077 0.99953 -0.00008
vn -0.02344 0.99949 0.02168
vn 0.14675 0.98522 -0.08837
vn 0.05681 0.99821 -0.01878
vn -0.00713 0.99957 -0.02832
vn -0.05834 0.99781 0.03129
vn -0.10171 0.99192 0.07589
vn 0.00654 0.99883 0.04782
vn 0.05744 0.99768 0.03643
vn 0.01382 0.99694 0.07693
vn 0.00699 0.99400 0.10918
vn 0.13117 0.99031 -0.04555
vn 0.07480 0.99424 -0.07676
vn 0.02995 0.99951 -0.00930
vn 0.00670 0.99957 0.02838
vn -0.07519 0.99567 0.05466
vn -0.01287 0.99859 0.05159
vn 0.04786 0.99817 0.03703
vn 0.04247 0.99835 0.03871
vn 0.03105 0.99860 0.04278
vn 0.02411 0.99898 0.03810
vn 0.07659 0.99690 -0.01809
vn 0.09797 0.99507 0.01517
vn -0.01245 0.99974 -0.01894
vn -0.07896 0.99632 -0.03334
vn -0.02514 0.99927 -0.02884
vn 0.04460 0.99826 -0.03866
vn 0.02963 0.99748 -0.06452
vn 0.02323 0.99618 -0.08420
vn 0.00651 0.99906 0.04278
vn 0.05220 0.99743 0.04908
vn 0.05604 0.99823 -0.01993
vn -0.04196 0.99892 -0.02004
vn -0.07242 0.99617 -0.04904
vn -0.01814 0.99876 -0.04634
vn 0.02383 0.99937 -0.02627
vn -0.00325 0.99928 -0.03769
vn 0.00555 0.99871 -0.05046
vn 0.04955 0.99711 0.05758
vn 0.00046 0.99976 0.02211
vn 0.02915 0.99865 -0.04289
vn -0.01212 0.99992 0.00441
vn -0.10497 0.99407 0.02835
vn -0.00738 0.99985 0.01556
vn 0.05328 0.99857 -0.00452
vn -0.00585 0.99997 0.00546
vn -0.02791 0.99960 0.00465
vn -0.00802 0.99942 0.03297
vn -0.04829 0.99853 -0.02470
vn 0.02842 0.99948 -0.01507
vn 0.02944 0.99918 -0.02775
vn -0.07738 0.99524 0.05918
vn -0.05097 0.99523 0.08323
vn 0.02188 0.99964 -0.01529
vn 0.00592 0.99909 -0.04222
vn -0.01346 0.99952 -0.02779

f 1/1/1 2/2/2 3/3/3
f 1/1/1 3/3/3 4/4/4
f 4/4/4 3/3/3 5/5/5
f 5/5/5 3/3/3 6/6/6
f 5/5/5 6/6/6 7/7/7
f 5/5/5 7/7/7 8/8/8
f 8/8/8 7/7/7 9/9/9
f 9/9/9 7/7/7 10/10/10
f 9/9/9 10/10/10 11/11/11
f 9/9/9 11/11/11 12/12/12
f 12/12/12 11/11/11 13/13/13
f 13/13/13 11/11/11 14/14/14
f 13/13/13 14/14/14 15/15/15
f 13/13/13 15/15/15 16/16/16
f 16/16/16 15/15/15 17/17/17
f 17/17/17 15/15/15 18/18/18
f 2/2/2 19/19/19 3/3/3
f 3/3/3 19/19/19 20/20/20
f 3/3/3 20/20/20 21/21/21
f 3/3/3 21/21/21 6/6/6
f 6/6/6 21/21/21 7/7/7
f 7/7/7 21/21/21 22/22/22
f 7/7/7 22/22/22 23/23/23
f 7/7/7 23/23/23 10/10/10
f 10/10/10 23/23/23 11/11/11
f 11/11/11 23/23/23 24/24/24
f 11/11/11 24/24/24 25/25/25
f 11/11/11 25/25/25 14/14/14
f 14/14/14 25/25/25 15/15/15
f 15/15/15 25/25/25 26/26/26
f 15/15/15 26/26/26 27/27/27
f 15/15/15 27/27/27 18/18/18
f 19/19/19 28/28/28 29/29/29
f 19/19/19 29/29/29 20/20/20
f 20/20/20 29/29/29 21/21/21
f 21/21/21 29/29/29 30/30/30
f 21/21/21 30/30/30 31/31/31
f 21/21/21 31/31/31 22/22/22
f 22/22/22 31/31/31 23/23/23
f 23/23/23 31/31/31 32/32/32
f 23/23/23 32/32/32 33/33/33
f 23/23/23 33/33/33 24/24/24
f 24/24/24 33/33/33 25/25/25
f 25/25/25 33/33/33 34/34/34
f 25/25/25 34/34/34 35/35/35
f 25/25/25 35/35/35 26/26/26
f 26/26/26 35/35/35 27/27/27
f 27/27/27 35/35/35 36/36/36
f 28/28/28 37/37/37 29/29/29
f 29/29/29 37/37/37 38/38/38
f 29/29/29 38/38/38 39/39/39
f 29/29/29 39/39/39 30/30/30
f 30/30/30 39/39/39 31/31/31
f 31/31/31 39/39/39 40/40/40
f 31/31/31 40/40/40 41/41/41
f 31/31/31 41/41/41 32/32/32
f 32/32/32 41/41/41 33/33/33
f 33/33/33 41/41/41 42/42/42
f 33/33/33 42/42/42 43/43/43
f 33/33/33 43/43/43 34/34/34
f 34/34/34 43/43/43 35/35/35
f 35/35/35 43/43/43 44/44/44
f 35/35/35 44/44/44 45/45/45
f 35/35/35 45/45/45 36/36/36
f 37/37/37 46/46/46 47/47/47
f 37/37/37 47/47/47 38/38/38
f 38/38/38 47/47/47 39/39/39
f 39/39/39 47/47/47 48/48/48
f 39/39/39 48/48/48 49/49/49
f 39/39/39 49/49/49 40/40/40
f 40/40/40 49/49/49 41/41/41
f 41/41/41 49/49/49 50/50/50
f 41/41/41 50/50/50 51/51/51
f 41/41/41 51/51/51 42/42/42
f 42/42/42 51/51/51 43/43/43
f 43/43/43 51/51/51 52/52/52
f 43/43/43 52/52/52 53/53/53
f 43/43/43 53/53/53 44/44/44
f 44/44/44 53/53/53 45/45/45
f 45/45/45 53/53/53 54/54/54
f 46/46/46 55/55/55 47/47/47
f 47/47/47 55/55/55 56/56/56
f 47/47/47 56/56/56 57/57/57
f 47/47/47 57/57/57 48/48/48
f 48/48/48 57/57/57 49/49/49
f 49/49/49 57/57/57 58/58/58
f 49/49/49 58/58/58 59/59/59
f 49/49/49 59/59/59 50/50/50
f 50/50/50 59/59/59 51/51/51
f 51/51/51 59/59/59 60/60/60
f 51/51/51 60/60/60 61/61/61
f 51/51/51 61/61/61 52/52/52
f 52/52/52 61/61/61 53/53/53
f 53/53/53 61/61/61 62/62/62
f 53/53/53 62/62/62 63/63/63
f 53/53/53 63/63/63 54/54/54
f 55/55/55 64/64/64 65/65/65
f 55/55/55 65/65/65 56/56/56
f 56/56/56 65/65/65 57/57/57
f 57/57/57 65/65/65 66/66/66
f 57/57/57 66/66/66 67/67/67
f 57/57/57 67/67/67 58/58/58
f 58/58/58 67/67/67 59/59/59
f 59/59/59 67/67/67 68/68/68
f 59/59/59 68/68/68 69/69/69
f 59/59/59 69/69/69 60/60/60
f 60/60/60 69/69/69 61/61/61
f 61/61/61 69/69/69 70/70/70
f 61/61/61 70/70/70 71/71/71
f 61/61/61 71/71/71 62/62/62
f 62/62/62 71/71/71 63/63/63
f 63/63/63 71/71/71 72/72/72
f 64/64/64 73/73/73 65/65/65
f 65/65/65 73/73/73 74/74/74
f 65/65/65 74/74/74 75/75/75
f 65/65/65 75/75/75 66/66/66
f 66/66/66 75/75/75 67/67/67
f 67/67/67 75/75/75 76/76/76
f 67/67/67 76/76/76 77/77/77
f 67/67/67 77/77/77 68/68/68
f 68/68/68 77/77/77 69/69/69
f 69/69/69 77/77/77 78/78/78
f 69/69/69 78/78/78 79/79/79
f 69/69/69 79/79/79 70/70/70
f 70/70/70 79/79/79 71/71/71
f 71/71/71 79/79/79 80/80/80
f 71/71/71 80/80/80 81/81/81
f 71/71/71 81/81/81 72/72/72
