# Generated by tools/generate_island.py. Do not edit by hand.
o terrain_lod2_-7_1

v -816.000 -10.800 128.000 0.532 0.503 0.297
v -816.000 -10.800 144.000 0.458 0.426 0.248
v -800.000 -10.330 128.000 0.525 0.496 0.292
v -800.000 -10.034 144.000 0.490 0.459 0.269
v -784.000 -9.263 144.000 0.471 0.440 0.256
v -784.000 -8.910 128.000 0.526 0.496 0.292
v -768.000 -8.143 128.000 0.486 0.455 0.266
v -768.000 -9.083 144.000 0.476 0.444 0.259
v -816.000 -10.800 160.000 0.384 0.350 0.199
v -800.000 -10.700 160.000 0.409 0.376 0.216
v -784.000 -9.946 160.000 0.411 0.378 0.217
v -768.000 -9.010 160.000 0.434 0.401 0.232
v -816.000 -10.800 176.000 0.417 0.384 0.221
v -800.000 -10.693 176.000 0.405 0.371 0.213
v -784.000 -10.361 176.000 0.421 0.388 0.223
v -768.000 -9.261 176.000 0.473 0.442 0.258
v -800.000 -10.800 192.000 0.490 0.459 0.269
v -784.000 -10.361 192.000 0.510 0.480 0.282
v -768.000 -9.116 192.000 0.481 0.450 0.263
v -800.000 -10.800 208.000 0.506 0.475 0.279
v -784.000 -10.476 208.000 0.525 0.496 0.292
v -768.000 -9.726 208.000 0.544 0.515 0.304
v -800.000 -10.800 224.000 0.517 0.487 0.286
v -784.000 -10.800 224.000 0.500 0.469 0.275
v -768.000 -10.354 224.000 0.581 0.552 0.328
v -784.000 -10.800 240.000 0.556 0.527 0.312
v -768.000 -10.800 240.000 0.585 0.557 0.331

vt 0.075000 0.433333
vt 0.075000 0.425000
vt 0.083333 0.433333
vt 0.083333 0.425000
vt 0.091667 0.425000
vt 0.091667 0.433333
vt 0.100000 0.433333
vt 0.100000 0.425000
vt 0.075000 0.416667
vt 0.083333 0.416667
vt 0.091667 0.416667
vt 0.100000 0.416667
vt 0.075000 0.408333
vt 0.083333 0.408333
vt 0.091667 0.408333
vt 0.100000 0.408333
vt 0.083333 0.400000
vt 0.091667 0.400000
vt 0.100000 0.400000
vt 0.083333 0.391667
vt 0.091667 0.391667
vt 0.100000 0.391667
vt 0.083333 0.383333
vt 0.091667 0.383333
vt 0.100000 0.383333
vt 0.091667 0.375000
vt 0.100000 0.375000

vn -0.02935 0.99957 0.00000
vn -0.03283 0.99944 0.00577
vn -0.05347 0.99856 -0.00375
vn -0.04797 0.99878 0.01154
vn -0.04508 0.99865 0.02582
vn -0.06818 0.99743 0.02202
vn -0.02955 0.99875 0.04037
vn -0.01124 0.99957 0.02708
vn -0.00625 0.99998 0.00000
vn -0.02876 0.99941 0.01887
vn -0.05271 0.99802 0.03425
vn -0.04919 0.99859 0.01991
vn -0.00655 0.99998 0.00208
vn -0.01371 0.99990 0.00312
vn -0.04866 0.99878 0.00808
vn -0.06859 0.99764 0.00332
vn -0.02051 0.99978 0.00412
vn -0.05254 0.99861 0.00359
vn -0.06764 0.99767 0.00904
vn -0.02022 0.99980 0.00000
vn -0.03339 0.99931 0.01653
vn -0.04680 0.99816 0.03862
vn -0.01011 0.99990 0.01011
vn -0.01856 0.99974 0.01348
vn -0.02563 0.99943 0.02182
vn -0.01392 0.99981 0.01392
vn 0.00000 0.99961 0.02784

f 1/1/1 2/2/2 3/3/3
f 3/3/3 2/2/2 4/4/4
f 3/3/3 4/4/4 5/5/5
f 3/3/3 5/5/5 6/6/6
f 6/6/6 5/5/5 7/7/7
f 7/7/7 5/5/5 8/8/8
f 2/2/2 9/9/9 10/10/10
f 2/2/2 10/10/10 4/4/4
f 4/4/4 10/10/10 5/5/5
f 5/5/5 10/10/10 11/11/11
f 5/5/5 11/11/11 12/12/12
f 5/5/5 12/12/12 8/8/8
f 9/9/9 13/13/13 10/10/10
f 10/10/10 13/13/13 14/14/14
f 10/10/10 14/14/14 15/15/15
f 10/10/10 15/15/15 11/11/11
f 11/11/11 15/15/15 12/12/12
f 12/12/12 15/15/15 16/16/16
f 13/13/13 17/17/17 14/14/14
f 14/14/14 17/17/17 15/15/15
f 15/15/15 17/17/17 18/18/18
f 15/15/15 18/18/18 19/19/19
f 15/15/15 19/19/19 16/16/16
f 17/17/17 20/20/20 21/21/21
f 17/17/17 21/21/21 18/18/18
f 18/18/18 21/21/21 19/19/19
f 19/19/19 21/21/21 22/22/22
f 20/20/20 23/23/23 21/21/21
f 21/21/21 23/23/23 24/24/24
f 21/21/21 24/24/24 25/25/25
f 21/21/21 25/25/25 22/22/22
f 24/24/24 26/26/26 25/25/25
f 25/25/25 26/26/26 27/27/27
