# Generated by tools/generate_island.py. Do not edit by hand.
o terrain_lod2_-2_-2

v -128.000 -1.888 -128.000 0.455 0.423 0.245
v -128.000 -1.122 -120.000 0.466 0.434 0.253
v -120.000 -0.999 -120.000 0.474 0.443 0.258
v -120.000 -1.496 -128.000 0.473 0.442 0.258
v -112.000 -1.096 -128.000 0.471 0.439 0.256
v -112.000 -0.701 -120.000 0.496 0.465 0.273
v -104.000 -0.731 -120.000 0.505 0.474 0.279
v -104.000 -1.104 -128.000 0.492 0.461 0.270
v -96.000 -0.844 -128.000 0.515 0.485 0.285
v -96.000 -0.687 -120.000 0.514 0.484 0.284
v -88.000 -0.182 -120.000 0.487 0.456 0.267
v -88.000 -0.773 -128.000 0.503 0.473 0.278
v -80.000 -0.257 -128.000 0.456 0.424 0.246
v -80.000 0.207 -120.000 0.461 0.429 0.250
v -72.000 0.705 -120.000 0.422 0.389 0.224
v -72.000 0.171 -128.000 0.423 0.390 0.225
v -64.000 -0.196 -128.000 0.418 0.385 0.221
v -64.000 0.506 -120.000 0.418 0.385 0.221
v -128.000 -0.764 -112.000 0.478 0.447 0.261
v -120.000 -0.348 -112.000 0.485 0.454 0.266
v -112.000 -0.283 -112.000 0.492 0.461 0.270
v -104.000 0.197 -112.000 0.497 0.466 0.273
v -96.000 0.113 -112.000 0.496 0.465 0.273
v -88.000 0.313 -112.000 0.482 0.451 0.263
v -80.000 0.771 -112.000 0.474 0.442 0.258
v -72.000 0.889 -112.000 0.438 0.405 0.234
v -64.000 1.101 -112.000 0.425 0.392 0.226
v -128.000 -0.306 -104.000 0.520 0.490 0.288
v -120.000 0.864 -104.000 0.515 0.485 0.285
v -112.000 0.750 -104.000 0.512 0.482 0.283
v -104.000 0.750 -104.000 0.509 0.479 0.281
v -96.000 0.976 -104.000 0.487 0.456 0.267
v -88.000 1.075 -104.000 0.475 0.443 0.259
v -80.000 1.405 -104.000 0.211 0.293 0.107
v -72.000 1.115 -104.000 0.434 0.402 0.232
v -64.000 1.257 -104.000 0.187 0.274 0.099
v -128.000 -0.113 -96.000 0.540 0.511 0.302
v -120.000 0.749 -96.000 0.521 0.492 0.290
v -112.000 1.013 -96.000 0.517 0.487 0.287
v -104.000 0.879 -96.000 0.509 0.479 0.282
v -96.000 1.759 -96.000 0.247 0.321 0.119
v -88.000 1.960 -96.000 0.240 0.315 0.117
v -80.000 2.695 -96.000 0.227 0.305 0.112
v -72.000 2.048 -96.000 0.199 0.284 0.103
v -64.000 1.578 -96.000 0.188 0.275 0.099
v -128.000 -0.111 -88.000 0.540 0.510 0.301
v -120.000 0.372 -88.000 0.531 0.501 0.296
v -112.000 1.252 -88.000 0.267 0.337 0.126
v -104.000 1.711 -88.000 0.281 0.347 0.130
v -96.000 2.972 -88.000 0.279 0.346 0.130
v -88.000 3.384 -88.000 0.270 0.339 0.127
v -80.000 3.337 -88.000 0.241 0.317 0.117
v -72.000 3.237 -88.000 0.217 0.298 0.109
v -64.000 1.354 -88.000 0.199 0.284 0.103
v -128.000 0.049 -80.000 0.512 0.481 0.283
v -120.000 0.245 -80.000 0.520 0.490 0.289
v -112.000 0.667 -80.000 0.538 0.508 0.300
v -104.000 1.833 -80.000 0.292 0.356 0.134
v -96.000 3.027 -80.000 0.288 0.353 0.133
v -88.000 3.225 -80.000 0.280 0.347 0.130
v -80.000 3.065 -80.000 0.253 0.326 0.121
v -72.000 2.805 -80.000 0.225 0.304 0.112
v -64.000 1.746 -80.000 0.213 0.295 0.108
v -128.000 -0.953 -72.000 0.496 0.465 0.273
v -120.000 -0.172 -72.000 0.520 0.490 0.289
v -112.000 0.538 -72.000 0.538 0.508 0.300
v -104.000 1.873 -72.000 0.276 0.343 0.129
v -96.000 3.117 -72.000 0.274 0.342 0.128
v -88.000 2.129 -72.000 0.275 0.343 0.128
v -80.000 2.736 -72.000 0.242 0.317 0.117
v -72.000 2.663 -72.000 0.236 0.312 0.115
v -64.000 2.795 -72.000 0.220 0.300 0.110
v -128.000 -1.524 -64.000 0.514 0.484 0.285
v -120.000 -0.438 -64.000 0.522 0.492 0.290
v -112.000 1.402 -64.000 0.272 0.340 0.127
v -104.000 2.752 -64.000 0.261 0.332 0.124
v -96.000 3.119 -64.000 0.257 0.329 0.122
v -88.000 1.945 -64.000 0.260 0.331 0.123
v -80.000 1.903 -64.000 0.254 0.326 0.121
v -72.000 2.244 -64.000 0.250 0.323 0.120
v -64.000 3.698 -64.000 0.238 0.314 0.116

vt 0.300000 0.700000
vt 0.300000 0.687500
vt 0.312500 0.687500
vt 0.312500 0.700000
vt 0.325000 0.700000
vt 0.325000 0.687500
vt 0.337500 0.687500
vt 0.337500 0.700000
vt 0.350000 0.700000
vt 0.350000 0.687500
vt 0.362500 0.687500
vt 0.362500 0.700000
vt 0.375000 0.700000
vt 0.375000 0.687500
vt 0.387500 0.687500
vt 0.387500 0.700000
vt 0.400000 0.700000
vt 0.400000 0.687500
vt 0.300000 0.675000
vt 0.312500 0.675000
vt 0.325000 0.675000
vt 0.337500 0.675000
vt 0.350000 0.675000
vt 0.362500 0.675000
vt 0.375000 0.675000
vt 0.387500 0.675000
vt 0.400000 0.675000
vt 0.300000 0.662500
vt 0.312500 0.662500
vt 0.325000 0.662500
vt 0.337500 0.662500
vt 0.350000 0.662500
vt 0.362500 0.662500
vt 0.375000 0.662500
vt 0.387500 0.662500
vt 0.400000 0.662500
vt 0.300000 0.650000
vt 0.312500 0.650000
vt 0.325000 0.650000
vt 0.337500 0.650000
vt 0.350000 0.650000
vt 0.362500 0.650000
vt 0.375000 0.650000
vt 0.387500 0.650000
vt 0.400000 0.650000
vt 0.300000 0.637500
vt 0.312500 0.637500
vt 0.325000 0.637500
vt 0.337500 0.637500
vt 0.350000 0.637500
vt 0.362500 0.637500
vt 0.375000 0.637500
vt 0.387500 0.637500
vt 0.400000 0.637500
vt 0.300000 0.625000
vt 0.312500 0.625000
vt 0.325000 0.625000
vt 0.337500 0.625000
vt 0.350000 0.625000
vt 0.362500 0.625000
vt 0.375000 0.625000
vt 0.387500 0.625000
vt 0.400000 0.625000
vt 0.300000 0.612500
vt 0.312500 0.612500
vt 0.325000 0.612500
vt 0.337500 0.612500
vt 0.350000 0.612500
vt 0.362500 0.612500
vt 0.375000 0.612500
vt 0.387500 0.612500
vt 0.400000 0.612500
vt 0.300000 0.600000
vt 0.312500 0.600000
vt 0.325000 0.600000
vt 0.337500 0.600000
vt 0.350000 0.600000
vt 0.362500 0.600000
vt 0.375000 0.600000
vt 0.387500 0.600000
vt 0.400000 0.600000

vn -0.03203 0.99639 -0.07863
vn -0.01529 0.99742 -0.07009
vn -0.03294 0.99728 -0.06598
vn -0.04934 0.99686 -0.06190
vn -0.02062 0.99845 -0.05178
vn -0.01678 0.99857 -0.05076
vn -0.01053 0.99762 -0.06817
vn -0.01572 0.99879 -0.04663
vn -0.02747 0.99883 -0.03989
vn -0.03422 0.99763 -0.05971
vn -0.04728 0.99678 -0.06473
vn -0.03660 0.99661 -0.07363
vn -0.05699 0.99633 -0.06393
vn -0.05523 0.99642 -0.06401
vn -0.01541 0.99816 -0.05867
vn -0.00375 0.99777 -0.06666
vn 0.03525 0.99640 -0.07705
vn 0.02476 0.99642 -0.08080
vn -0.06600 0.99434 -0.08328
vn -0.02984 0.99284 -0.11565
vn -0.01935 0.99508 -0.09713
vn -0.02464 0.99544 -0.09213
vn -0.01718 0.99539 -0.09432
vn -0.04096 0.99609 -0.07823
vn -0.03242 0.99747 -0.06329
vn -0.02060 0.99946 -0.02562
vn -0.01146 0.99928 -0.03624
vn -0.14461 0.98867 -0.04018
vn -0.05789 0.99624 -0.06445
vn 0.00710 0.99671 -0.08074
vn -0.02484 0.99744 -0.06711
vn -0.02017 0.99455 -0.10230
vn -0.03804 0.99358 -0.10655
vn -0.00251 0.99285 -0.11934
vn 0.01687 0.99715 -0.07352
vn -0.01766 0.99940 -0.02978
vn -0.10496 0.99443 0.00925
vn -0.07021 0.99706 0.03071
vn -0.02319 0.99947 -0.02299
vn -0.04648 0.99712 -0.05987
vn -0.06443 0.99156 -0.11249
vn -0.05776 0.98810 -0.14258
vn -0.00109 0.99171 -0.12853
vn 0.06902 0.98896 -0.13114
vn 0.08333 0.99414 -0.06893
vn -0.06015 0.99814 -0.01013
vn -0.06967 0.99740 0.01857
vn -0.08340 0.99628 0.02156
vn -0.10163 0.99385 -0.04394
vn -0.10365 0.99150 -0.07858
vn -0.02655 0.99753 -0.06497
vn 0.00916 0.99969 -0.02317
vn 0.09947 0.99453 -0.03190
vn 0.22912 0.97334 -0.01026
vn -0.05164 0.99773 0.04319
vn -0.03857 0.99868 0.03390
vn -0.10192 0.99440 0.02811
vn -0.14592 0.98925 -0.01003
vn -0.07342 0.99722 0.01249
vn -0.00238 0.99694 0.07814
vn 0.00706 0.99886 0.04727
vn 0.08211 0.99598 0.03570
vn 0.11996 0.99241 -0.02692
vn -0.09673 0.99054 0.09738
vn -0.10139 0.99426 0.03425
vn -0.12663 0.99090 -0.04554
vn -0.14268 0.98891 -0.04119
vn -0.01602 0.99986 -0.00576
vn 0.03024 0.99794 0.05660
vn -0.03327 0.99682 0.07244
vn -0.00929 0.99994 0.00520
vn -0.01638 0.99251 -0.12104
vn -0.11575 0.99192 0.05193
vn -0.17981 0.98316 0.03276
vn -0.16103 0.98432 -0.07200
vn -0.10607 0.98841 -0.10861
vn 0.01720 0.99961 -0.02187
vn 0.07580 0.99686 0.02297
vn -0.02596 0.99716 0.07075
vn -0.11134 0.99242 0.05201
vn -0.09856 0.99468 -0.03003

f 1/1/1 2/2/2 3/3/3
f 1/1/1 3/3/3 4/4/4
f 4/4/4 3/3/3 5/5/5
f 5/5/5 3/3/3 6/6/6
f 5/5/5 6/6/6 7/7/7
f 5/5/5 7/7/7 8/8/8
f 8/8/8 7/7/7 9/9/9
f 9/9/9 7/7/7 10/10/10
f 9/9/9 10/10/10 11/11/11
f 9/9/9 11/11/11 12/12/12
f 12/12/12 11/11/11 13/13/13
f 13/13/13 11/11/11 14/14/14
f 13/13/13 14/14/14 15/15/15
f 13/13/13 15/15/15 16/16/16
f 16/16/16 15/15/15 17/17/17
f 17/17/17 15/15/15 18/18/18
f 2/2/2 19/19/19 3/3/3
f 3/3/3 19/19/19 20/20/20
f 3/3/3 20/20/20 21/21/21
f 3/3/3 21/21/21 6/6/6
f 6/6/6 21/21/21 7/7/7
f 7/7/7 21/21/21 22/22/22
f 7/7/7 22/22/22 23/23/23
f 7/7/7 23/23/23 10/10/10
f 10/10/10 23/23/23 11/11/11
f 11/11/11 23/23/23 24/24/24
f 11/11/11 24/24/24 25/25/25
f 11/11/11 25/25/25 14/14/14
f 14/14/14 25/25/25 15/15/15
f 15/15/15 25/25/25 26/26/26
f 15/15/15 26/26/26 27/27/27
f 15/15/15 27/27/27 18/18/18
f 19/19/19 28/28/28 29/29/29
f 19/19/19 29/29/29 20/20/20
f 20/20/20 29/29/29 21/21/21
f 21/21/21 29/29/29 30/30/30
f 21/21/21 30/30/30 31/31/31
f 21/21/21 31/31/31 22/22/22
f 22/22/22 31/31/31 23/23/23
f 23/23/23 31/31/31 32/32/32
f 23/23/23 32/32/32 33/33/33
f 23/23/23 33/33/33 24/24/24
f 24/24/24 33/33/33 25/25/25
f 25/25/25 33/33/33 34/34/34
f 25/25/25 34/34/34 35/35/35
f 25/25/25 35/35/35 26/26/26
f 26/26/26 35/35/35 27/27/27
f 27/27/27 35/35/35 36/36/36
f 28/28/28 37/37/37 29/29/29
f 29/29/29 37/37/37 38/38/38
f 29/29/29 38/38/38 39/39/39
f 29/29/29 39/39/39 30/30/30
f 30/30/30 39/39/39 31/31/31
f 31/31/31 39/39/39 40/40/40
f 31/31/31 40/40/40 41/41/41
f 31/31/31 41/41/41 32/32/32
f 32/32/32 41/41/41 33/33/33
f 33/33/33 41/41/41 42/42/42
f 33/33/33 42/42/42 43/43/43
f 33/33/33 43/43/43 34/34/34
f 34/34/34 43/43/43 35/35/35
f 35/35/35 43/43/43 44/44/44
f 35/35/35 44/44/44 45/45/45
f 35/35/35 45/45/45 36/36/36
f 37/37/37 46/46/46 47/47/47
f 37/37/37 47/47/47 38/38/38
f 38/38/38 47/47/47 39/39/39
f 39/39/39 47/47/47 48/48/48
f 39/39/39 48/48/48 49/49/49
f 39/39/39 49/49/49 40/40/40
f 40/40/40 49/49/49 41/41/41
f 41/41/41 49/49/49 50/50/50
f 41/41/41 50/50/50 51/51/51
f 41/41/41 51/51/51 42/42/42
f 42/42/42 51/51/51 43/43/43
f 43/43/43 51/51/51 52/52/52
f 43/43/43 52/52/52 53/53/53
f 43/43/43 53/53/53 44/44/44
f 44/44/44 53/53/53 45/45/45
f 45/45/45 53/53/53 54/54/54
f 46/46/46 55/55/55 47/47/47
f 47/47/47 55/55/55 56/56/56
f 47/47/47 56/56/56 57/57/57
f 47/47/47 57/57/57 48/48/48
f 48/48/48 57/57/57 49/49/49
f 49/49/49 57/57/57 58/58/58
f 49/49/49 58/58/58 59/59/59
f 49/49/49 59/59/59 50/50/50
f 50/50/50 59/59/59 51/51/51
f 51/51/51 59/59/59 60/60/60
f 51/51/51 60/60/60 61/61/61
f 51/51/51 61/61/61 52/52/52
f 52/52/52 61/61/61 53/53/53
f 53/53/53 61/61/61 62/62/62
f 53/53/53 62/62/62 63/63/63
f 53/53/53 63/63/63 54/54/54
f 55/55/55 64/64/64 65/65/65
f 55/55/55 65/65/65 56/56/56
f 56/56/56 65/65/65 57/57/57
f 57/57/57 65/65/65 66/66/66
f 57/57/57 66/66/66 67/67/67
f 57/57/57 67/67/67 58/58/58
f 58/58/58 67/67/67 59/59/59
f 59/59/59 67/67/67 68/68/68
f 59/59/59 68/68/68 69/69/69
f 59/59/59 69/69/69 60/60/60
f 60/60/60 69/69/69 61/61/61
f 61/61/61 69/69/69 70/70/70
f 61/61/61 70/70/70 71/71/71
f 61/61/61 71/71/71 62/62/62
f 62/62/62 71/71/71 63/63/63
f 63/63/63 71/71/71 72/72/72
f 64/64/64 73/73/73 65/65/65
f 65/65/65 73/73/73 74/74/74
f 65/65/65 74/74/74 75/75/75
f 65/65/65 75/75/75 66/66/66
f 66/66/66 75/75/75 67/67/67
f 67/67/67 75/75/75 76/76/76
f 67/67/67 76/76/76 77/77/77
f 67/67/67 77/77/77 68/68/68
f 68/68/68 77/77/77 69/69/69
f 69/69/69 77/77/77 78/78/78
f 69/69/69 78/78/78 79/79/79
f 69/69/69 79/79/79 70/70/70
f 70/70/70 79/79/79 71/71/71
f 71/71/71 79/79/79 80/80/80
f 71/71/71 80/80/80 81/81/81
f 71/71/71 81/81/81 72/72/72
