# Generated by tools/generate_island.py. Do not edit by hand.
o terrain_lod2_6_-1

v 768.000 -10.800 -80.000 0.580 0.552 0.328
v 768.000 -10.305 -64.000 0.585 0.557 0.331
v 784.000 -10.800 -80.000 0.532 0.502 0.296
v 784.000 -10.800 -64.000 0.544 0.515 0.304
v 768.000 -9.738 -48.000 0.546 0.517 0.305
v 784.000 -10.800 -48.000 0.535 0.506 0.298
v 768.000 -9.700 -32.000 0.503 0.472 0.277
v 784.000 -10.793 -32.000 0.517 0.487 0.287
v 768.000 -9.230 -16.000 0.450 0.418 0.242
v 784.000 -9.837 -16.000 0.496 0.465 0.273
v 800.000 -10.800 -32.000 0.503 0.473 0.278
v 800.000 -10.687 -16.000 0.494 0.463 0.271
v 816.000 -10.800 -16.000 0.467 0.436 0.254
v 768.000 -8.994 0.000 0.427 0.394 0.228
v 784.000 -9.425 0.000 0.486 0.455 0.266
v 800.000 -10.343 0.000 0.525 0.495 0.292
v 816.000 -10.800 0.000 0.575 0.547 0.325

vt 0.900000 0.541667
vt 0.900000 0.533333
vt 0.908333 0.541667
vt 0.908333 0.533333
vt 0.900000 0.525000
vt 0.908333 0.525000
vt 0.900000 0.516667
vt 0.908333 0.516667
vt 0.900000 0.508333
vt 0.908333 0.508333
vt 0.916667 0.516667
vt 0.916667 0.508333
vt 0.925000 0.508333
vt 0.900000 0.500000
vt 0.908333 0.500000
vt 0.916667 0.500000
vt 0.925000 0.500000

vn 0.00000 0.99952 -0.03092
vn 0.03204 0.99935 -0.01658
vn 0.01546 0.99976 -0.01546
vn 0.03092 0.99952 0.00000
vn 0.06621 0.99763 -0.01886
vn 0.05790 0.99828 -0.00954
vn 0.06011 0.99793 -0.02295
vn 0.04561 0.99816 -0.03992
vn 0.03789 0.99904 -0.02203
vn 0.04185 0.99866 -0.03042
vn 0.02020 0.99949 -0.02462
vn 0.03009 0.99945 -0.01427
vn 0.01422 0.99985 -0.00952
vn 0.03240 0.99927 -0.02021
vn 0.04210 0.99878 -0.02570
vn 0.03651 0.99919 -0.01717
vn 0.02854 0.99959 0.00000

f 1/1/1 2/2/2 3/3/3
f 3/3/3 2/2/2 4/4/4
f 2/2/2 5/5/5 6/6/6
f 2/2/2 6/6/6 4/4/4
f 5/5/5 7/7/7 6/6/6
f 6/6/6 7/7/7 8/8/8
f 7/7/7 9/9/9 10/10/10
f 7/7/7 10/10/10 8/8/8
f 8/8/8 10/10/10 11/11/11
f 11/11/11 10/10/10 12/12/12
f 11/11/11 12/12/12 13/13/13
f 9/9/9 14/14/14 10/10/10
f 10/10/10 14/14/14 15/15/15
f 10/10/10 15/15/15 16/16/16
f 10/10/10 16/16/16 12/12/12
f 12/12/12 16/16/16 13/13/13
f 13/13/13 16/16/16 17/17/17
