# Generated by tools/generate_island.py. Do not edit by hand.
o terrain_lod1_-7_0

v -792.000 -10.800 0.000 0.524 0.494 0.291
v -792.000 -10.800 8.000 0.518 0.488 0.287
v -784.000 -10.665 0.000 0.514 0.484 0.285
v -784.000 -10.608 8.000 0.514 0.484 0.285
v -776.000 -10.005 8.000 0.512 0.482 0.283
v -776.000 -10.333 0.000 0.522 0.493 0.290
v -768.000 -9.414 0.000 0.519 0.489 0.288
v -768.000 -9.526 8.000 0.508 0.478 0.281
v -792.000 -10.800 16.000 0.535 0.505 0.298
v -784.000 -10.457 16.000 0.521 0.491 0.289
v -776.000 -9.457 16.000 0.487 0.456 0.267
v -768.000 -9.133 16.000 0.509 0.478 0.281
v -800.000 -10.800 16.000 0.543 0.514 0.304
v -800.000 -10.800 24.000 0.518 0.488 0.287
v -792.000 -10.648 24.000 0.511 0.480 0.282
v -784.000 -10.081 24.000 0.525 0.495 0.292
v -776.000 -9.357 24.000 0.519 0.489 0.288
v -768.000 -8.900 24.000 0.505 0.475 0.279
v -800.000 -10.800 32.000 0.499 0.468 0.275
v -792.000 -10.652 32.000 0.507 0.476 0.280
v -784.000 -9.752 32.000 0.514 0.483 0.284
v -776.000 -9.507 32.000 0.533 0.504 0.297
v -768.000 -8.893 32.000 0.523 0.493 0.291
v -800.000 -10.800 40.000 0.504 0.474 0.278
v -792.000 -10.421 40.000 0.510 0.480 0.282
v -784.000 -9.512 40.000 0.534 0.504 0.298
v -776.000 -9.108 40.000 0.551 0.522 0.309
v -768.000 -8.848 40.000 0.534 0.504 0.298
v -808.000 -10.800 40.000 0.501 0.471 0.276
v -808.000 -10.800 48.000 0.498 0.467 0.274
v -800.000 -10.451 48.000 0.505 0.475 0.279
v -792.000 -9.863 48.000 0.512 0.482 0.283
v -784.000 -9.441 48.000 0.522 0.492 0.290
v -776.000 -8.931 48.000 0.533 0.504 0.297
v -768.000 -9.045 48.000 0.546 0.516 0.305
v -808.000 -10.800 56.000 0.510 0.480 0.282
v -800.000 -10.393 56.000 0.499 0.469 0.275
v -792.000 -9.675 56.000 0.536 0.507 0.299
v -784.000 -9.532 56.000 0.534 0.505 0.298
v -776.000 -9.192 56.000 0.519 0.489 0.288
v -768.000 -8.851 56.000 0.552 0.523 0.310
v -808.000 -10.800 64.000 0.522 0.492 0.290
v -800.000 -10.276 64.000 0.523 0.493 0.291
v -792.000 -9.643 64.000 0.541 0.512 0.302
v -784.000 -9.202 64.000 0.546 0.516 0.305
v -776.000 -9.118 64.000 0.555 0.526 0.311
v -768.000 -8.386 64.000 0.564 0.535 0.317
v -816.000 -10.800 64.000 0.521 0.491 0.289
v -816.000 -10.800 72.000 0.515 0.485 0.285
v -808.000 -10.634 72.000 0.532 0.503 0.297
v -800.000 -9.774 72.000 0.545 0.515 0.305
v -792.000 -9.596 72.000 0.568 0.540 0.320
v -784.000 -9.035 72.000 0.566 0.537 0.319
v -776.000 -8.921 72.000 0.562 0.533 0.316
v -768.000 -8.508 72.000 0.558 0.529 0.313
v -816.000 -10.800 80.000 0.508 0.478 0.281
v -808.000 -10.516 80.000 0.514 0.483 0.284
v -800.000 -9.780 80.000 0.559 0.530 0.314
v -792.000 -9.691 80.000 0.585 0.557 0.331
v -784.000 -9.381 80.000 0.575 0.546 0.324
v -776.000 -8.694 80.000 0.531 0.501 0.296
v -768.000 -8.374 80.000 0.513 0.483 0.284
v -816.000 -10.800 88.000 0.523 0.493 0.291
v -808.000 -10.401 88.000 0.529 0.500 0.295
v -800.000 -10.032 88.000 0.561 0.532 0.316
v -792.000 -9.507 88.000 0.585 0.557 0.331
v -784.000 -9.263 88.000 0.570 0.542 0.322
v -776.000 -8.448 88.000 0.536 0.506 0.299
v -768.000 -7.897 88.000 0.501 0.470 0.276
v -816.000 -10.800 96.000 0.546 0.517 0.306
v -808.000 -9.961 96.000 0.550 0.521 0.308
v -800.000 -9.857 96.000 0.567 0.539 0.320
v -792.000 -9.511 96.000 0.574 0.545 0.324
v -784.000 -9.040 96.000 0.548 0.519 0.307
v -776.000 -8.533 96.000 0.516 0.486 0.286
v -768.000 -7.892 96.000 0.466 0.434 0.253
v -824.000 -10.800 104.000 0.525 0.496 0.292
v -816.000 -10.673 104.000 0.574 0.546 0.324
v -808.000 -10.107 104.000 0.566 0.537 0.319
v -800.000 -9.806 104.000 0.545 0.516 0.305
v -792.000 -9.805 104.000 0.566 0.537 0.319
v -784.000 -8.996 104.000 0.552 0.523 0.309
v -776.000 -8.449 104.000 0.526 0.496 0.292
v -768.000 -7.932 104.000 0.443 0.411 0.238
v -824.000 -10.800 112.000 0.538 0.508 0.300
v -816.000 -10.751 112.000 0.585 0.557 0.331
v -808.000 -10.496 112.000 0.580 0.552 0.328
v -800.000 -9.926 112.000 0.559 0.531 0.314
v -792.000 -9.597 112.000 0.551 0.522 0.309
v -784.000 -8.870 112.000 0.550 0.521 0.308
v -776.000 -8.065 112.000 0.504 0.473 0.278
v -768.000 -7.992 112.000 0.443 0.411 0.238
v -824.000 -10.800 120.000 0.521 0.491 0.289
v -816.000 -10.800 120.000 0.578 0.549 0.326
v -808.000 -10.418 120.000 0.567 0.538 0.319
v -800.000 -9.974 120.000 0.545 0.515 0.305
v -792.000 -9.261 120.000 0.540 0.511 0.302
v -784.000 -8.905 120.000 0.535 0.505 0.298
v -776.000 -8.238 120.000 0.514 0.484 0.285
v -768.000 -8.156 120.000 0.478 0.446 0.261
v -816.000 -10.800 128.000 0.532 0.503 0.297
v -808.000 -10.632 128.000 0.524 0.495 0.291
v -800.000 -10.330 128.000 0.525 0.496 0.292
v -792.000 -9.523 128.000 0.522 0.492 0.290
v -784.000 -8.910 128.000 0.526 0.496 0.292
v -776.000 -8.676 128.000 0.528 0.499 0.294
v -768.000 -8.143 128.000 0.486 0.455 0.266

vt 0.087500 0.500000
vt 0.087500 0.495833
vt 0.091667 0.500000
vt 0.091667 0.495833
vt 0.095833 0.495833
vt 0.095833 0.500000
vt 0.100000 0.500000
vt 0.100000 0.495833
vt 0.087500 0.491667
vt 0.091667 0.491667
vt 0.095833 0.491667
vt 0.100000 0.491667
vt 0.083333 0.491667
vt 0.083333 0.487500
vt 0.087500 0.487500
vt 0.091667 0.487500
vt 0.095833 0.487500
vt 0.100000 0.487500
vt 0.083333 0.483333
vt 0.087500 0.483333
vt 0.091667 0.483333
vt 0.095833 0.483333
vt 0.100000 0.483333
vt 0.083333 0.479167
vt 0.087500 0.479167
vt 0.091667 0.479167
vt 0.095833 0.479167
vt 0.100000 0.479167
vt 0.079167 0.479167
vt 0.079167 0.475000
vt 0.083333 0.475000
vt 0.087500 0.475000
vt 0.091667 0.475000
vt 0.095833 0.475000
vt 0.100000 0.475000
vt 0.079167 0.470833
vt 0.083333 0.470833
vt 0.087500 0.470833
vt 0.091667 0.470833
vt 0.095833 0.470833
vt 0.100000 0.470833
vt 0.079167 0.466667
vt 0.083333 0.466667
vt 0.087500 0.466667
vt 0.091667 0.466667
vt 0.095833 0.466667
vt 0.100000 0.466667
vt 0.075000 0.466667
vt 0.075000 0.462500
vt 0.079167 0.462500
vt 0.083333 0.462500
vt 0.087500 0.462500
vt 0.091667 0.462500
vt 0.095833 0.462500
vt 0.100000 0.462500
vt 0.075000 0.458333
vt 0.079167 0.458333
vt 0.083333 0.458333
vt 0.087500 0.458333
vt 0.091667 0.458333
vt 0.095833 0.458333
vt 0.100000 0.458333
vt 0.075000 0.454167
vt 0.079167 0.454167
vt 0.083333 0.454167
vt 0.087500 0.454167
vt 0.091667 0.454167
vt 0.095833 0.454167
vt 0.100000 0.454167
vt 0.075000 0.450000
vt 0.079167 0.450000
vt 0.083333 0.450000
vt 0.087500 0.450000
vt 0.091667 0.450000
vt 0.095833 0.450000
vt 0.100000 0.450000
vt 0.070833 0.445833
vt 0.075000 0.445833
vt 0.079167 0.445833
vt 0.083333 0.445833
vt 0.087500 0.445833
vt 0.091667 0.445833
vt 0.095833 0.445833
vt 0.100000 0.445833
vt 0.070833 0.441667
vt 0.075000 0.441667
vt 0.079167 0.441667
vt 0.083333 0.441667
vt 0.087500 0.441667
vt 0.091667 0.441667
vt 0.095833 0.441667
vt 0.100000 0.441667
vt 0.070833 0.437500
vt 0.075000 0.437500
vt 0.079167 0.437500
vt 0.083333 0.437500
vt 0.087500 0.437500
vt 0.091667 0.437500
vt 0.095833 0.437500
vt 0.100000 0.437500
vt 0.075000 0.433333
vt 0.079167 0.433333
vt 0.083333 0.433333
vt 0.087500 0.433333
vt 0.091667 0.433333
vt 0.095833 0.433333
vt 0.100000 0.433333

vn -0.01692 0.99986 0.00000
vn -0.02693 0.99962 -0.00649
vn -0.03939 0.99913 -0.01376
vn -0.04962 0.99868 -0.01298
vn -0.07381 0.99666 -0.03491
vn -0.07785 0.99613 -0.04088
vn -0.08707 0.99611 -0.01351
vn -0.05981 0.99806 -0.01756
vn -0.02859 0.99951 -0.01267
vn -0.07432 0.99682 -0.02888
vn -0.08240 0.99578 -0.04035
vn -0.04943 0.99799 -0.03972
vn -0.00951 0.99991 -0.00951
vn -0.01901 0.99982 0.00000
vn -0.04414 0.99890 -0.01562
vn -0.08036 0.99580 -0.04386
vn -0.07084 0.99740 -0.01317
vn -0.05695 0.99826 -0.01498
vn -0.02586 0.99964 -0.00710
vn -0.06535 0.99776 -0.01418
vn -0.07621 0.99677 -0.02516
vn -0.05363 0.99844 -0.01551
vn -0.06069 0.99811 -0.00939
vn -0.03159 0.99908 -0.02905
vn -0.07219 0.99678 -0.03485
vn -0.08173 0.99647 -0.01940
vn -0.04032 0.99898 -0.02046
vn -0.03254 0.99943 0.00950
vn -0.02180 0.99952 -0.02180
vn -0.04358 0.99905 0.00000
vn -0.05268 0.99831 -0.02432
vn -0.06296 0.99693 -0.04644
vn -0.05709 0.99832 -0.00968
vn -0.02474 0.99968 0.00522
vn -0.01172 0.99993 0.00270
vn -0.05263 0.99860 -0.00546
vn -0.07012 0.99748 -0.01090
vn -0.05937 0.99815 -0.01333
vn -0.03020 0.99943 -0.01491
vn -0.04020 0.99916 -0.00818
vn -0.04256 0.99825 -0.04108
vn -0.04360 0.99895 -0.01385
vn -0.06977 0.99730 -0.02312
vn -0.06699 0.99774 -0.00494
vn -0.03448 0.99918 -0.02099
vn -0.05091 0.99856 -0.01692
vn -0.06910 0.99743 -0.01912
vn -0.01040 0.99989 -0.01040
vn -0.02079 0.99978 0.00000
vn -0.05610 0.99829 -0.01661
vn -0.06469 0.99743 -0.03095
vn -0.04605 0.99893 -0.00345
vn -0.04217 0.99905 0.01121
vn -0.04491 0.99893 -0.01064
vn -0.05148 0.99867 -0.00079
vn -0.03542 0.99935 -0.00727
vn -0.06364 0.99787 -0.01452
vn -0.05588 0.99843 0.00303
vn -0.02488 0.99967 -0.00557
vn -0.05815 0.99831 -0.00165
vn -0.06284 0.99759 -0.02946
vn -0.05002 0.99818 -0.03380
vn -0.04984 0.99876 0.00000
vn -0.05458 0.99838 -0.01610
vn -0.05579 0.99843 0.00484
vn -0.04299 0.99903 -0.00972
vn -0.06601 0.99759 -0.02130
vn -0.07612 0.99694 -0.01781
vn -0.06867 0.99719 -0.02999
vn -0.06909 0.99752 -0.01369
vn -0.05881 0.99810 -0.01833
vn -0.03273 0.99944 -0.00698
vn -0.05101 0.99852 0.01860
vn -0.06813 0.99767 -0.00366
vn -0.07153 0.99744 0.00005
vn -0.07321 0.99732 0.00111
vn -0.01265 0.99992 -0.00202
vn -0.04328 0.99906 -0.00303
vn -0.05460 0.99836 0.01702
vn -0.01888 0.99981 0.00431
vn -0.05451 0.99851 0.00110
vn -0.08444 0.99637 -0.01057
vn -0.06476 0.99778 -0.01569
vn -0.06444 0.99790 0.00620
vn -0.00607 0.99998 0.00000
vn -0.02628 0.99962 0.00884
vn -0.05150 0.99848 0.01942
vn -0.05085 0.99871 0.00160
vn -0.06583 0.99725 -0.03391
vn -0.08472 0.99630 -0.01459
vn -0.05480 0.99841 -0.01316
vn -0.02330 0.99973 0.00040
vn -0.00304 0.99999 0.00304
vn -0.03180 0.99949 0.00405
vn -0.04599 0.99888 0.01130
vn -0.07212 0.99708 0.02518
vn -0.07191 0.99740 0.00461
vn -0.06380 0.99796 0.00249
vn -0.04905 0.99855 0.02203
vn -0.01027 0.99990 0.00945
vn -0.03435 0.99932 0.01335
vn -0.02934 0.99921 0.02669
vn -0.07060 0.99682 0.03701
vn -0.08837 0.99555 0.03258
vn -0.05832 0.99805 0.02213
vn -0.04781 0.99736 0.05457
vn -0.03838 0.99891 0.02653

f 1/1/1 2/2/2 3/3/3
f 3/3/3 2/2/2 4/4/4
f 3/3/3 4/4/4 5/5/5
f 3/3/3 5/5/5 6/6/6
f 6/6/6 5/5/5 7/7/7
f 7/7/7 5/5/5 8/8/8
f 2/2/2 9/9/9 10/10/10
f 2/2/2 10/10/10 4/4/4
f 4/4/4 10/10/10 5/5/5
f 5/5/5 10/10/10 11/11/11
f 5/5/5 11/11/11 12/12/12
f 5/5/5 12/12/12 8/8/8
f 13/13/13 14/14/14 15/15/15
f 13/13/13 15/15/15 9/9/9
f 9/9/9 15/15/15 10/10/10
f 10/10/10 15/15/15 16/16/16
f 10/10/10 16/16/16 17/17/17
f 10/10/10 17/17/17 11/11/11
f 11/11/11 17/17/17 12/12/12
f 12/12/12 17/17/17 18/18/18
f 14/14/14 19/19/19 15/15/15
f 15/15/15 19/19/19 20/20/20
f 15/15/15 20/20/20 21/21/21
f 15/15/15 21/21/21 16/16/16
f 16/16/16 21/21/21 17/17/17
f 17/17/17 21/21/21 22/22/22
f 17/17/17 22/22/22 23/23/23
f 17/17/17 23/23/23 18/18/18
f 19/19/19 24/24/24 25/25/25
f 19/19/19 25/25/25 20/20/20
f 20/20/20 25/25/25 21/21/21
f 21/21/21 25/25/25 26/26/26
f 21/21/21 26/26/26 27/27/27
f 21/21/21 27/27/27 22/22/22
f 22/22/22 27/27/27 23/23/23
f 23/23/23 27/27/27 28/28/28
f 29/29/29 30/30/30 31/31/31
f 29/29/29 31/31/31 24/24/24
f 24/24/24 31/31/31 25/25/25
f 25/25/25 31/31/31 32/32/32
f 25/25/25 32/32/32 33/33/33
f 25/25/25 33/33/33 26/26/26
f 26/26/26 33/33/33 27/27/27
f 27/27/27 33/33/33 34/34/34
f 27/27/27 34/34/34 35/35/35
f 27/27/27 35/35/35 28/28/28
f 30/30/30 36/36/36 31/31/31
f 31/31/31 36/36/36 37/37/37
f 31/31/31 37/37/37 38/38/38
f 31/31/31 38/38/38 32/32/32
f 32/32/32 38/38/38 33/33/33
f 33/33/33 38/38/38 39/39/39
f 33/33/33 39/39/39 40/40/40
f 33/33/33 40/40/40 34/34/34
f 34/34/34 40/40/40 35/35/35
f 35/35/35 40/40/40 41/41/41
f 36/36/36 42/42/42 43/43/43
f 36/36/36 43/43/43 37/37/37
f 37/37/37 43/43/43 38/38/38
f 38/38/38 43/43/43 44/44/44
f 38/38/38 44/44/44 45/45/45
f 38/38/38 45/45/45 39/39/39
f 39/39/39 45/45/45 40/40/40
f 40/40/40 45/45/45 46/46/46
f 40/40/40 46/46/46 47/47/47
f 40/40/40 47/47/47 41/41/41
f 48/48/48 49/49/49 50/50/50
f 48/48/48 50/50/50 42/42/42
f 42/42/42 50/50/50 43/43/43
f 43/43/43 50/50/50 51/51/51
f 43/43/43 51/51/51 52/52/52
f 43/43/43 52/52/52 44/44/44
f 44/44/44 52/52/52 45/45/45
f 45/45/45 52/52/52 53/53/53
f 45/45/45 53/53/53 54/54/54
f 45/45/45 54/54/54 46/46/46
f 46/46/46 54/54/54 47/47/47
f 47/47/47 54/54/54 55/55/55
f 49/49/49 56/56/56 50/50/50
f 50/50/50 56/56/56 57/57/57
f 50/50/50 57/57/57 58/58/58
f 50/50/50 58/58/58 51/51/51
f 51/51/51 58/58/58 52/52/52
f 52/52/52 58/58/58 59/59/59
f 52/52/52 59/59/59 60/60/60
f 52/52/52 60/60/60 53/53/53
f 53/53/53 60/60/60 54/54/54
f 54/54/54 60/60/60 61/61/61
f 54/54/54 61/61/61 62/62/62
f 54/54/54 62/62/62 55/55/55
f 56/56/56 63/63/63 64/64/64
f 56/56/56 64/64/64 57/57/57
f 57/57/57 64/64/64 58/58/58
f 58/58/58 64/64/64 65/65/65
f 58/58/58 65/65/65 66/66/66
f 58/58/58 66/66/66 59/59/59
f 59/59/59 66/66/66 60/60/60
f 60/60/60 66/66/66 67/67/67
f 60/60/60 67/67/67 68/68/68
f 60/60/60 68/68/68 61/61/61
f 61/61/61 68/68/68 62/62/62
f 62/62/62 68/68/68 69/69/69
f 63/63/63 70/70/70 64/64/64
f 64/64/64 70/70/70 71/71/71
f 64/64/64 71/71/71 72/72/72
f 64/64/64 72/72/72 65/65/65
f 65/65/65 72/72/72 66/66/66
f 66/66/66 72/72/72 73/73/73
f 66/66/66 73/73/73 74/74/74
f 66/66/66 74/74/74 67/67/67
f 67/67/67 74/74/74 68/68/68
f 68/68/68 74/74/74 75/75/75
f 68/68/68 75/75/75 76/76/76
f 68/68/68 76/76/76 69/69/69
f 70/70/70 77/77/77 78/78/78
f 70/70/70 78/78/78 79/79/79
f 70/70/70 79/79/79 71/71/71
f 71/71/71 79/79/79 72/72/72
f 72/72/72 79/79/79 80/80/80
f 72/72/72 80/80/80 81/81/81
f 72/72/72 81/81/81 73/73/73
f 73/73/73 81/81/81 74/74/74
f 74/74/74 81/81/81 82/82/82
f 74/74/74 82/82/82 83/83/83
f 74/74/74 83/83/83 75/75/75
f 75/75/75 83/83/83 76/76/76
f 76/76/76 83/83/83 84/84/84
f 77/77/77 85/85/85 86/86/86
f 77/77/77 86/86/86 78/78/78
f 78/78/78 86/86/86 79/79/79
f 79/79/79 86/86/86 87/87/87
f 79/79/79 87/87/87 88/88/88
f 79/79/79 88/88/88 80/80/80
f 80/80/80 88/88/88 81/81/81
f 81/81/81 88/88/88 89/89/89
f 81/81/81 89/89/89 90/90/90
f 81/81/81 90/90/90 82/82/82
f 82/82/82 90/90/90 83/83/83
f 83/83/83 90/90/90 91/91/91
f 83/83/83 91/91/91 92/92/92
f 83/83/83 92/92/92 84/84/84
f 85/85/85 93/93/93 86/86/86
f 86/86/86 93/93/93 94/94/94
f 86/86/86 94/94/94 95/95/95
f 86/86/86 95/95/95 87/87/87
f 87/87/87 95/95/95 88/88/88
f 88/88/88 95/95/95 96/96/96
f 88/88/88 96/96/96 97/97/97
f 88/88/88 97/97/97 89/89/89
f 89/89/89 97/97/97 90/90/90
f 90/90/90 97/97/97 98/98/98
f 90/90/90 98/98/98 99/99/99
f 90/90/90 99/99/99 91/91/91
f 91/91/91 99/99/99 92/92/92
f 92/92/92 99/99/99 100/100/100
f 94/94/94 101/101/101 95/95/95
f 95/95/95 101/101/101 102/102/102
f 95/95/95 102/102/102 103/103/103
f 95/95/95 103/103/103 96/96/96
f 96/96/96 103/103/103 97/97/97
f 97/97/97 103/103/103 104/104/104
f 97/97/97 104/104/104 105/105/105
f 97/97/97 105/105/105 98/98/98
f 98/98/98 105/105/105 99/99/99
f 99/99/99 105/105/105 106/106/106
f 99/99/99 106/106/106 107/107/107
f 99/99/99 107/107/107 100/100/100
