# Generated by tools/generate_island.py. Do not edit by hand.
o terrain_lod1_-7_-1

v -776.000 -10.800 -40.000 0.487 0.456 0.267
v -776.000 -10.800 -32.000 0.492 0.462 0.270
v -768.000 -10.714 -32.000 0.506 0.476 0.279
v -768.000 -10.800 -40.000 0.482 0.450 0.263
v -776.000 -10.800 -24.000 0.494 0.463 0.271
v -768.000 -10.632 -24.000 0.500 0.469 0.275
v -776.000 -10.800 -16.000 0.489 0.459 0.268
v -768.000 -10.445 -16.000 0.514 0.484 0.285
v -784.000 -10.800 -16.000 0.507 0.477 0.280
v -784.000 -10.800 -8.000 0.513 0.483 0.284
v -776.000 -10.582 -8.000 0.505 0.474 0.278
v -768.000 -9.741 -8.000 0.518 0.488 0.287
v -792.000 -10.800 -8.000 0.523 0.493 0.291
v -792.000 -10.800 0.000 0.524 0.494 0.291
v -784.000 -10.665 0.000 0.514 0.484 0.285
v -776.000 -10.333 0.000 0.522 0.493 0.290
v -768.000 -9.414 0.000 0.519 0.489 0.288

vt 0.095833 0.520833
vt 0.095833 0.516667
vt 0.100000 0.516667
vt 0.100000 0.520833
vt 0.095833 0.512500
vt 0.100000 0.512500
vt 0.095833 0.508333
vt 0.100000 0.508333
vt 0.091667 0.508333
vt 0.091667 0.504167
vt 0.095833 0.504167
vt 0.100000 0.504167
vt 0.087500 0.504167
vt 0.087500 0.500000
vt 0.091667 0.500000
vt 0.095833 0.500000
vt 0.100000 0.500000

vn -0.00539 0.99997 -0.00539
vn -0.01077 0.99994 0.00000
vn -0.01065 0.99993 -0.00526
vn 0.00000 0.99994 -0.01077
vn -0.02431 0.99967 -0.00841
vn -0.02103 0.99964 -0.01682
vn -0.02961 0.99940 -0.01814
vn -0.05366 0.99796 -0.03457
vn -0.01361 0.99981 -0.01361
vn -0.01815 0.99977 -0.01128
vn -0.05806 0.99778 -0.03272
vn -0.10436 0.99248 -0.06391
vn -0.00846 0.99993 -0.00846
vn -0.01692 0.99986 0.00000
vn -0.02138 0.99964 -0.01623
vn -0.07787 0.99648 -0.03099
vn -0.10929 0.99337 -0.03573

f 1/1/1 2/2/2 3/3/3
f 1/1/1 3/3/3 4/4/4
f 2/2/2 5/5/5 3/3/3
f 3/3/3 5/5/5 6/6/6
f 5/5/5 7/7/7 8/8/8
f 5/5/5 8/8/8 6/6/6
f 9/9/9 10/10/10 11/11/11
f 9/9/9 11/11/11 7/7/7
f 7/7/7 11/11/11 8/8/8
f 8/8/8 11/11/11 12/12/12
f 13/13/13 14/14/14 15/15/15
f 13/13/13 15/15/15 10/10/10
f 10/10/10 15/15/15 11/11/11
f 11/11/11 15/15/15 16/16/16
f 11/11/11 16/16/16 17/17/17
f 11/11/11 17/17/17 12/12/12
