# Generated by tools/generate_island.py. Do not edit by hand.
o terrain_lod2_3_-4

v 192.000 -8.000 -240.000 0.440 0.408 0.236
v 192.000 -8.000 -232.000 0.464 0.432 0.251
v 200.000 -8.000 -232.000 0.467 0.435 0.254
v 200.000 -8.000 -240.000 0.460 0.428 0.249
v 208.000 -8.000 -240.000 0.460 0.428 0.249
v 208.000 -8.000 -232.000 0.480 0.448 0.262
v 216.000 -8.000 -232.000 0.481 0.450 0.263
v 216.000 -8.000 -240.000 0.463 0.431 0.251
v 224.000 -8.000 -240.000 0.459 0.427 0.248
v 224.000 -8.000 -232.000 0.467 0.436 0.254
v 232.000 -8.000 -232.000 0.424 0.392 0.226
v 232.000 -8.000 -240.000 0.456 0.424 0.246
v 240.000 -8.000 -240.000 0.469 0.437 0.255
v 240.000 -8.000 -232.000 0.462 0.431 0.251
v 192.000 -8.000 -224.000 0.459 0.427 0.248
v 200.000 -8.000 -224.000 0.489 0.458 0.268
v 208.000 -8.000 -224.000 0.509 0.478 0.281
v 216.000 -8.000 -224.000 0.503 0.472 0.277
v 224.000 -8.000 -224.000 0.485 0.454 0.265
v 232.000 -8.000 -224.000 0.456 0.424 0.246
v 240.000 -8.000 -224.000 0.470 0.438 0.255
v 192.000 -8.000 -216.000 0.444 0.412 0.238
v 200.000 -8.000 -216.000 0.497 0.466 0.273
v 208.000 -8.000 -216.000 0.526 0.496 0.293
v 216.000 -8.000 -216.000 0.511 0.481 0.283
v 224.000 -8.000 -216.000 0.504 0.474 0.278
v 232.000 -8.000 -216.000 0.506 0.475 0.279
v 240.000 -8.000 -216.000 0.476 0.445 0.260
v 192.000 -8.000 -208.000 0.427 0.394 0.227
v 200.000 -8.000 -208.000 0.468 0.436 0.254
v 208.000 -8.000 -208.000 0.492 0.461 0.270
v 216.000 -8.000 -208.000 0.495 0.464 0.272
v 224.000 -8.000 -208.000 0.509 0.479 0.282
v 232.000 -8.000 -208.000 0.530 0.500 0.295
v 240.000 -8.000 -208.000 0.488 0.457 0.268
v 192.000 -8.000 -200.000 0.421 0.388 0.224
v 200.000 -8.000 -200.000 0.436 0.403 0.233
v 208.000 -8.000 -200.000 0.447 0.414 0.240
v 216.000 -8.000 -200.000 0.483 0.452 0.264
v 224.000 -8.000 -200.000 0.507 0.477 0.280
v 232.000 -8.000 -200.000 0.524 0.494 0.291
v 240.000 -8.000 -200.000 0.494 0.463 0.271
v 192.000 -8.000 -192.000 0.423 0.390 0.225
v 200.000 -8.000 -192.000 0.429 0.397 0.229
v 208.000 -8.000 -192.000 0.430 0.397 0.229
v 216.000 -8.000 -192.000 0.456 0.424 0.246
v 224.000 -8.000 -192.000 0.475 0.443 0.259
v 232.000 -8.000 -192.000 0.498 0.467 0.274
v 240.000 -8.000 -192.000 0.479 0.448 0.262

vt 0.900000 1.000000
vt 0.900000 0.983333
vt 0.916667 0.983333
vt 0.916667 1.000000
vt 0.933333 1.000000
vt 0.933333 0.983333
vt 0.950000 0.983333
vt 0.950000 1.000000
vt 0.966667 1.000000
vt 0.966667 0.983333
vt 0.983333 0.983333
vt 0.983333 1.000000
vt 1.000000 1.000000
vt 1.000000 0.983333
vt 0.900000 0.966667
vt 0.916667 0.966667
vt 0.933333 0.966667
vt 0.950000 0.966667
vt 0.966667 0.966667
vt 0.983333 0.966667
vt 1.000000 0.966667
vt 0.900000 0.950000
vt 0.916667 0.950000
vt 0.933333 0.950000
vt 0.950000 0.950000
vt 0.966667 0.950000
vt 0.983333 0.950000
vt 1.000000 0.950000
vt 0.900000 0.933333
vt 0.916667 0.933333
vt 0.933333 0.933333
vt 0.950000 0.933333
vt 0.966667 0.933333
vt 0.983333 0.933333
vt 1.000000 0.933333
vt 0.900000 0.916667
vt 0.916667 0.916667
vt 0.933333 0.916667
vt 0.950000 0.916667
vt 0.966667 0.916667
vt 0.983333 0.916667
vt 1.000000 0.916667
vt 0.900000 0.900000
vt 0.916667 0.900000
vt 0.933333 0.900000
vt 0.950000 0.900000
vt 0.966667 0.900000
vt 0.983333 0.900000
vt 1.000000 0.900000

vn 0.00000 1.00000 0.00000
vn 0.00000 1.00000 0.00000
vn 0.00000 1.00000 0.00000
vn 0.00000 1.00000 0.00000
vn 0.00000 1.00000 0.00000
vn 0.00000 1.00000 0.00000
vn 0.00000 1.00000 0.00000
vn 0.00000 1.00000 0.00000
vn 0.00000 1.00000 0.00000
vn 0.00000 1.00000 0.00000
vn 0.00000 1.00000 0.00000
vn 0.00000 1.00000 0.00000
vn 0.00000 1.00000 0.00000
vn 0.00000 1.00000 0.00000
vn 0.00000 1.00000 0.00000
vn 0.00000 1.00000 0.00000
vn 0.00000 1.00000 0.00000
vn 0.00000 1.00000 0.00000
vn 0.00000 1.00000 0.00000
vn 0.00000 1.00000 0.00000
vn 0.00000 1.00000 0.00000
vn 0.00000 1.00000 0.00000
vn 0.00000 1.00000 0.00000
vn 0.00000 1.00000 0.00000
vn 0.00000 1.00000 0.00000
vn 0.00000 1.00000 0.00000
vn 0.00000 1.00000 0.00000
vn 0.00000 1.00000 0.00000
vn 0.00000 1.00000 0.00000
vn 0.00000 1.00000 0.00000
vn 0.00000 1.00000 0.00000
vn 0.00000 1.00000 0.00000
vn 0.00000 1.00000 0.00000
vn 0.00000 1.00000 0.00000
vn 0.00000 1.00000 0.00000
vn 0.00000 1.00000 0.00000
vn 0.00000 1.00000 0.00000
vn 0.00000 1.00000 0.00000
vn 0.00000 1.00000 0.00000
vn 0.00000 1.00000 0.00000
vn 0.00000 1.00000 0.00000
vn 0.00000 1.00000 0.00000
vn 0.00000 1.00000 0.00000
vn 0.00000 1.00000 0.00000
vn 0.00000 1.00000 0.00000
vn 0.00000 1.00000 0.00000
vn 0.00000 1.00000 0.00000
vn 0.00000 1.00000 0.00000
vn 0.00000 1.00000 0.00000

f 1/1/1 2/2/2 3/3/3
f 1/1/1 3/3/3 4/4/4
f 4/4/4 3/3/3 5/5/5
f 5/5/5 3/3/3 6/6/6
f 5/5/5 6/6/6 7/7/7
f 5/5/5 7/7/7 8/8/8
f 8/8/8 7/7/7 9/9/9
f 9/9/9 7/7/7 10/10/10
f 9/9/9 10/10/10 11/11/11
f 9/9/9 11/11/11 12/12/12
f 12/12/12 11/11/11 13/13/13
f 13/13/13 11/11/11 14/14/14
f 2/2/2 15/15/15 3/3/3
f 3/3/3 15/15/15 16/16/16
f 3/3/3 16/16/16 17/17/17
f 3/3/3 17/17/17 6/6/6
f 6/6/6 17/17/17 7/7/7
f 7/7/7 17/17/17 18/18/18
f 7/7/7 18/18/18 19/19/19
f 7/7/7 19/19/19 10/10/10
f 10/10/10 19/19/19 11/11/11
f 11/11/11 19/19/19 20/20/20
f 11/11/11 20/20/20 21/21/21
f 11/11/11 21/21/21 14/14/14
f 15/15/15 22/22/22 23/23/23
f 15/15/15 23/23/23 16/16/16
f 16/16/16 23/23/23 17/17/17
f 17/17/17 23/23/23 24/24/24
f 17/17/17 24/24/24 25/25/25
f 17/17/17 25/25/25 18/18/18
f 18/18/18 25/25/25 19/19/19
f 19/19/19 25/25/25 26/26/26
f 19/19/19 26/26/26 27/27/27
f 19/19/19 27/27/27 20/20/20
f 20/20/20 27/27/27 21/21/21
f 21/21/21 27/27/27 28/28/28
f 22/22/22 29/29/29 23/23/23
f 23/23/23 29/29/29 30/30/30
f 23/23/23 30/30/30 31/31/31
f 23/23/23 31/31/31 24/24/24
f 24/24/24 31/31/31 25/25/25
f 25/25/25 31/31/31 32/32/32
f 25/25/25 32/32/32 33/33/33
f 25/25/25 33/33/33 26/26/26
f 26/26/26 33/33/33 27/27/27
f 27/27/27 33/33/33 34/34/34
f 27/27/27 34/34/34 35/35/35
f 27/27/27 35/35/35 28/28/28
f 29/29/29 36/36/36 37/37/37
f 29/29/29 37/37/37 30/30/30
f 30/30/30 37/37/37 31/31/31
f 31/31/31 37/37/37 38/38/38
f 31/31/31 38/38/38 39/39/39
f 31/31/31 39/39/39 32/32/32
f 32/32/32 39/39/39 33/33/33
f 33/33/33 39/39/39 40/40/40
f 33/33/33 40/40/40 41/41/41
f 33/33/33 41/41/41 34/34/34
f 34/34/34 41/41/41 35/35/35
f 35/35/35 41/41/41 42/42/42
f 36/36/36 43/43/43 37/37/37
f 37/37/37 43/43/43 44/44/44
f 37/37/37 44/44/44 45/45/45
f 37/37/37 45/45/45 38/38/38
f 38/38/38 45/45/45 39/39/39
f 39/39/39 45/45/45 46/46/46
f 39/39/39 46/46/46 47/47/47
f 39/39/39 47/47/47 40/40/40
f 40/40/40 47/47/47 41/41/41
f 41/41/41 47/47/47 48/48/48
f 41/41/41 48/48/48 49/49/49
f 41/41/41 49/49/49 42/42/42
