# Generated by tools/generate_island.py. Do not edit by hand.
o terrain_lod1_4_4

v 512.000 -10.401 512.000 0.518 0.488 0.287
v 512.000 -10.605 520.000 0.508 0.478 0.281
v 520.000 -10.800 520.000 0.564 0.535 0.317
v 520.000 -10.537 512.000 0.522 0.492 0.290
v 528.000 -10.800 512.000 0.581 0.553 0.329
v 512.000 -10.800 528.000 0.500 0.470 0.275

vt 0.766667 0.233333
vt 0.766667 0.229167
vt 0.770833 0.229167
vt 0.770833 0.233333
vt 0.775000 0.233333
vt 0.766667 0.225000

vn 0.02067 0.99936 0.02913
vn 0.02436 0.99939 0.02490
vn 0.02463 0.99928 0.02886
vn 0.02490 0.99915 0.03281
vn 0.03281 0.99892 0.03281
vn 0.02436 0.99941 0.02436

f 1/1/1 2/2/2 3/3/3
f 1/1/1 3/3/3 4/4/4
f 4/4/4 3/3/3 5/5/5
f 2/2/2 6/6/6 3/3/3
