# Generated by tools/generate_island.py. Do not edit by hand.
o terrain_lod2_-2_3

v -256.000 -0.504 384.000 0.388 0.354 0.202
v -256.000 0.180 400.000 0.466 0.435 0.253
v -240.000 -0.074 400.000 0.430 0.397 0.229
v -240.000 -0.314 384.000 0.421 0.388 0.224
v -224.000 -0.212 384.000 0.453 0.421 0.245
v -224.000 -0.774 400.000 0.430 0.397 0.229
v -208.000 -0.469 400.000 0.446 0.414 0.240
v -208.000 0.085 384.000 0.497 0.466 0.273
v -192.000 1.216 384.000 0.511 0.481 0.283
v -192.000 -0.261 400.000 0.484 0.453 0.265
v -176.000 -0.012 400.000 0.456 0.424 0.246
v -176.000 0.300 384.000 0.487 0.456 0.267
v -160.000 0.164 384.000 0.472 0.441 0.257
v -160.000 0.373 400.000 0.462 0.430 0.250
v -144.000 -0.320 400.000 0.440 0.408 0.236
v -144.000 0.855 384.000 0.467 0.436 0.254
v -128.000 0.214 384.000 0.450 0.418 0.242
v -128.000 -0.719 400.000 0.417 0.384 0.221
v -256.000 -0.478 416.000 0.487 0.456 0.267
v -240.000 -0.609 416.000 0.486 0.455 0.266
v -224.000 -0.203 416.000 0.431 0.398 0.230
v -208.000 -0.391 416.000 0.458 0.427 0.248
v -192.000 -0.823 416.000 0.446 0.414 0.240
v -176.000 -0.711 416.000 0.422 0.389 0.224
v -160.000 -0.487 416.000 0.444 0.412 0.238
v -144.000 -0.681 416.000 0.450 0.418 0.242
v -128.000 -0.647 416.000 0.419 0.386 0.222
v -256.000 -0.906 432.000 0.508 0.478 0.281
v -240.000 -0.792 432.000 0.511 0.481 0.283
v -224.000 -0.326 432.000 0.493 0.462 0.271
v -208.000 -0.539 432.000 0.476 0.445 0.260
v -192.000 -0.855 432.000 0.437 0.404 0.234
v -176.000 -0.785 432.000 0.393 0.359 0.205
v -160.000 -1.429 432.000 0.405 0.371 0.213
v -144.000 -1.618 432.000 0.447 0.415 0.240
v -128.000 -0.870 432.000 0.471 0.440 0.256
v -256.000 -1.423 448.000 0.523 0.493 0.291
v -240.000 -0.783 448.000 0.585 0.557 0.331
v -224.000 -0.347 448.000 0.579 0.551 0.328
v -208.000 -0.808 448.000 0.512 0.482 0.283
v -192.000 -1.070 448.000 0.429 0.397 0.229
v -176.000 -1.320 448.000 0.366 0.332 0.187
v -160.000 -1.906 448.000 0.412 0.379 0.218
v -144.000 -1.521 448.000 0.472 0.440 0.257
v -128.000 -1.258 448.000 0.493 0.462 0.271
v -256.000 -1.638 464.000 0.566 0.537 0.319
v -240.000 -0.787 464.000 0.585 0.557 0.331
v -224.000 -1.074 464.000 0.585 0.557 0.331
v -208.000 -1.419 464.000 0.498 0.467 0.274
v -192.000 -1.323 464.000 0.435 0.402 0.232
v -176.000 -1.737 464.000 0.399 0.366 0.209
v -160.000 -2.034 464.000 0.448 0.416 0.241
v -144.000 -1.754 464.000 0.513 0.483 0.284
v -128.000 -2.233 464.000 0.510 0.480 0.282
v -256.000 -2.007 480.000 0.549 0.520 0.308
v -240.000 -1.833 480.000 0.585 0.557 0.331
v -224.000 -1.753 480.000 0.585 0.557 0.331
v -208.000 -1.355 480.000 0.533 0.504 0.297
v -192.000 -1.627 480.000 0.507 0.477 0.280
v -176.000 -2.576 480.000 0.448 0.415 0.241
v -160.000 -2.480 480.000 0.450 0.418 0.243
v -144.000 -2.350 480.000 0.489 0.458 0.268
v -128.000 -2.881 480.000 0.523 0.493 0.291
v -256.000 -1.933 496.000 0.543 0.514 0.304
v -240.000 -2.234 496.000 0.557 0.528 0.313
v -224.000 -2.573 496.000 0.580 0.551 0.328
v -208.000 -2.208 496.000 0.537 0.507 0.299
v -192.000 -2.456 496.000 0.554 0.525 0.311
v -176.000 -2.527 496.000 0.480 0.449 0.262
v -160.000 -2.731 496.000 0.472 0.441 0.257
v -144.000 -3.558 496.000 0.517 0.487 0.286
v -128.000 -3.807 496.000 0.547 0.517 0.306
v -256.000 -2.899 512.000 0.585 0.557 0.331
v -240.000 -2.997 512.000 0.582 0.554 0.329
v -224.000 -2.675 512.000 0.521 0.491 0.289
v -208.000 -2.856 512.000 0.571 0.543 0.322
v -192.000 -3.339 512.000 0.551 0.522 0.309
v -176.000 -3.340 512.000 0.484 0.453 0.265
v -160.000 -3.632 512.000 0.491 0.460 0.269
v -144.000 -4.171 512.000 0.546 0.517 0.306
v -128.000 -4.188 512.000 0.509 0.479 0.281

vt 0.366667 0.300000
vt 0.366667 0.291667
vt 0.375000 0.291667
vt 0.375000 0.300000
vt 0.383333 0.300000
vt 0.383333 0.291667
vt 0.391667 0.291667
vt 0.391667 0.300000
vt 0.400000 0.300000
vt 0.400000 0.291667
vt 0.408333 0.291667
vt 0.408333 0.300000
vt 0.416667 0.300000
vt 0.416667 0.291667
vt 0.425000 0.291667
vt 0.425000 0.300000
vt 0.433333 0.300000
vt 0.433333 0.291667
vt 0.366667 0.283333
vt 0.375000 0.283333
vt 0.383333 0.283333
vt 0.391667 0.283333
vt 0.400000 0.283333
vt 0.408333 0.283333
vt 0.416667 0.283333
vt 0.425000 0.283333
vt 0.433333 0.283333
vt 0.366667 0.275000
vt 0.375000 0.275000
vt 0.383333 0.275000
vt 0.391667 0.275000
vt 0.400000 0.275000
vt 0.408333 0.275000
vt 0.416667 0.275000
vt 0.425000 0.275000
vt 0.433333 0.275000
vt 0.366667 0.266667
vt 0.375000 0.266667
vt 0.383333 0.266667
vt 0.391667 0.266667
vt 0.400000 0.266667
vt 0.408333 0.266667
vt 0.416667 0.266667
vt 0.425000 0.266667
vt 0.433333 0.266667
vt 0.366667 0.258333
vt 0.375000 0.258333
vt 0.383333 0.258333
vt 0.391667 0.258333
vt 0.400000 0.258333
vt 0.408333 0.258333
vt 0.416667 0.258333
vt 0.425000 0.258333
vt 0.433333 0.258333
vt 0.366667 0.250000
vt 0.375000 0.250000
vt 0.383333 0.250000
vt 0.391667 0.250000
vt 0.400000 0.250000
vt 0.408333 0.250000
vt 0.416667 0.250000
vt 0.425000 0.250000
vt 0.433333 0.250000
vt 0.366667 0.241667
vt 0.375000 0.241667
vt 0.383333 0.241667
vt 0.391667 0.241667
vt 0.400000 0.241667
vt 0.408333 0.241667
vt 0.416667 0.241667
vt 0.425000 0.241667
vt 0.433333 0.241667
vt 0.366667 0.233333
vt 0.375000 0.233333
vt 0.383333 0.233333
vt 0.391667 0.233333
vt 0.400000 0.233333
vt 0.408333 0.233333
vt 0.416667 0.233333
vt 0.425000 0.233333
vt 0.433333 0.233333

vn 0.00196 0.99958 -0.02885
vn 0.01582 0.99987 -0.00079
vn 0.01047 0.99994 0.00435
vn -0.00913 0.99985 -0.01500
vn -0.00004 0.99975 0.02248
vn 0.01236 0.99992 -0.00027
vn -0.01433 0.99963 0.02328
vn -0.04455 0.99841 0.03456
vn -0.01049 0.99817 0.05957
vn -0.01427 0.99787 0.06358
vn -0.00431 0.99931 0.03679
vn 0.03285 0.99927 0.01944
vn -0.00385 0.99985 0.01669
vn 0.00964 0.99975 0.02036
vn 0.01791 0.99920 0.03579
vn -0.00154 0.99731 0.07326
vn 0.03242 0.99731 0.06569
vn 0.02490 0.99933 0.02688
vn 0.00625 0.99958 0.02817
vn -0.00860 0.99971 0.02244
vn -0.00229 1.00000 -0.00084
vn 0.01936 0.99981 0.00218
vn 0.00335 0.99987 0.01586
vn -0.01048 0.99965 0.02416
vn 0.00844 0.99898 0.04429
vn 0.00498 0.99917 0.04053
vn -0.00652 0.99972 0.02263
vn -0.00710 0.99954 0.02949
vn -0.01960 0.99974 0.01122
vn -0.00791 0.99996 0.00449
vn 0.01874 0.99978 0.00957
vn 0.00769 0.99994 0.00772
vn 0.01288 0.99966 0.02253
vn 0.02600 0.99868 0.04427
vn -0.01254 0.99950 0.02897
vn -0.04672 0.99873 0.01908
vn -0.03503 0.99932 0.01136
vn -0.03359 0.99944 -0.00016
vn 0.00334 0.99982 0.01851
vn 0.02258 0.99937 0.02747
vn 0.01241 0.99969 0.02162
vn 0.02610 0.99922 0.02972
vn 0.00978 0.99979 0.01796
vn -0.02023 0.99979 0.00426
vn -0.01242 0.99965 0.02342
vn -0.05313 0.99842 0.01822
vn -0.01918 0.99931 0.03193
vn 0.01972 0.99884 0.04388
vn 0.00854 0.99968 0.02387
vn 0.00995 0.99980 0.01740
vn 0.02429 0.99930 0.02844
vn 0.00054 0.99984 0.01794
vn 0.00118 0.99955 0.03011
vn 0.02987 0.99827 0.05063
vn -0.01403 0.99953 0.02721
vn -0.00793 0.99895 0.04518
vn -0.00274 0.99916 0.04086
vn -0.00394 0.99969 0.02465
vn 0.02405 0.99926 0.03003
vn 0.02664 0.99934 0.02467
vn 0.00466 0.99950 0.03114
vn 0.01252 0.99834 0.05627
vn 0.02792 0.99822 0.05268
vn 0.01878 0.99944 0.02786
vn 0.00627 0.99946 0.03235
vn -0.00083 0.99958 0.02882
vn 0.00237 0.99903 0.04401
vn 0.00996 0.99852 0.05342
vn 0.01324 0.99932 0.03428
vn 0.03219 0.99884 0.03595
vn 0.02426 0.99857 0.04758
vn 0.01556 0.99905 0.04079
vn 0.01246 0.99847 0.05394
vn -0.00697 0.99884 0.04765
vn -0.00261 0.99968 0.02525
vn 0.02071 0.99896 0.04052
vn 0.01252 0.99865 0.05035
vn 0.00914 0.99867 0.05073
vn 0.02905 0.99831 0.05033
vn 0.01736 0.99912 0.03825
vn 0.00832 0.99948 0.03102

f 1/1/1 2/2/2 3/3/3
f 1/1/1 3/3/3 4/4/4
f 4/4/4 3/3/3 5/5/5
f 5/5/5 3/3/3 6/6/6
f 5/5/5 6/6/6 7/7/7
f 5/5/5 7/7/7 8/8/8
f 8/8/8 7/7/7 9/9/9
f 9/9/9 7/7/7 10/10/10
f 9/9/9 10/10/10 11/11/11
f 9/9/9 11/11/11 12/12/12
f 12/12/12 11/11/11 13/13/13
f 13/13/13 11/11/11 14/14/14
f 13/13/13 14/14/14 15/15/15
f 13/13/13 15/15/15 16/16/16
f 16/16/16 15/15/15 17/17/17
f 17/17/17 15/15/15 18/18/18
f 2/2/2 19/19/19 3/3/3
f 3/3/3 19/19/19 20/20/20
f 3/3/3 20/20/20 21/21/21
f 3/3/3 21/21/21 6/6/6
f 6/6/6 21/21/21 7/7/7
f 7/7/7 21/21/21 22/22/22
f 7/7/7 22/22/22 23/23/23
f 7/7/7 23/23/23 10/10/10
f 10/10/10 23/23/23 11/11/11
f 11/11/11 23/23/23 24/24/24
f 11/11/11 24/24/24 25/25/25
f 11/11/11 25/25/25 14/14/14
f 14/14/14 25/25/25 15/15/15
f 15/15/15 25/25/25 26/26/26
f 15/15/15 26/26/26 27/27/27
f 15/15/15 27/27/27 18/18/18
f 19/19/19 28/28/28 29/29/29
f 19/19/19 29/29/29 20/20/20
f 20/20/20 29/29/29 21/21/21
f 21/21/21 29/29/29 30/30/30
f 21/21/21 30/30/30 31/31/31
f 21/21/21 31/31/31 22/22/22
f 22/22/22 31/31/31 23/23/23
f 23/23/23 31/31/31 32/32/32
f 23/23/23 32/32/32 33/33/33
f 23/23/23 33/33/33 24/24/24
f 24/24/24 33/33/33 25/25/25
f 25/25/25 33/33/33 34/34/34
f 25/25/25 34/34/34 35/35/35
f 25/25/25 35/35/35 26/26/26
f 26/26/26 35/35/35 27/27/27
f 27/27/27 35/35/35 36/36/36
f 28/28/28 37/37/37 29/29/29
f 29/29/29 37/37/37 38/38/38
f 29/29/29 38/38/38 39/39/39
f 29/29/29 39/39/39 30/30/30
f 30/30/30 39/39/39 31/31/31
f 31/31/31 39/39/39 40/40/40
f 31/31/31 40/40/40 41/41/41
f 31/31/31 41/41/41 32/32/32
f 32/32/32 41/41/41 33/33/33
f 33/33/33 41/41/41 42/42/42
f 33/33/33 42/42/42 43/43/43
f 33/33/33 43/43/43 34/34/34
f 34/34/34 43/43/43 35/35/35
f 35/35/35 43/43/43 44/44/44
f 35/35/35 44/44/44 45/45/45
f 35/35/35 45/45/45 36/36/36
f 37/37/37 46/46/46 47/47/47
f 37/37/37 47/47/47 38/38/38
f 38/38/38 47/47/47 39/39/39
f 39/39/39 47/47/47 48/48/48
f 39/39/39 48/48/48 49/49/49
f 39/39/39 49/49/49 40/40/40
f 40/40/40 49/49/49 41/41/41
f 41/41/41 49/49/49 50/50/50
f 41/41/41 50/50/50 51/51/51
f 41/41/41 51/51/51 42/42/42
f 42/42/42 51/51/51 43/43/43
f 43/43/43 51/51/51 52/52/52
f 43/43/43 52/52/52 53/53/53
f 43/43/43 53/53/53 44/44/44
f 44/44/44 53/53/53 45/45/45
f 45/45/45 53/53/53 54/54/54
f 46/46/46 55/55/55 47/47/47
f 47/47/47 55/55/55 56/56/56
f 47/47/47 56/56/56 57/57/57
f 47/47/47 57/57/57 48/48/48
f 48/48/48 57/57/57 49/49/49
f 49/49/49 57/57/57 58/58/58
f 49/49/49 58/58/58 59/59/59
f 49/49/49 59/59/59 50/50/50
f 50/50/50 59/59/59 51/51/51
f 51/51/51 59/59/59 60/60/60
f 51/51/51 60/60/60 61/61/61
f 51/51/51 61/61/61 52/52/52
f 52/52/52 61/61/61 53/53/53
f 53/53/53 61/61/61 62/62/62
f 53/53/53 62/62/62 63/63/63
f 53/53/53 63/63/63 54/54/54
f 55/55/55 64/64/64 65/65/65
f 55/55/55 65/65/65 56/56/56
f 56/56/56 65/65/65 57/57/57
f 57/57/57 65/65/65 66/66/66
f 57/57/57 66/66/66 67/67/67
f 57/57/57 67/67/67 58/58/58
f 58/58/58 67/67/67 59/59/59
f 59/59/59 67/67/67 68/68/68
f 59/59/59 68/68/68 69/69/69
f 59/59/59 69/69/69 60/60/60
f 60/60/60 69/69/69 61/61/61
f 61/61/61 69/69/69 70/70/70
f 61/61/61 70/70/70 71/71/71
f 61/61/61 71/71/71 62/62/62
f 62/62/62 71/71/71 63/63/63
f 63/63/63 71/71/71 72/72/72
f 64/64/64 73/73/73 65/65/65
f 65/65/65 73/73/73 74/74/74
f 65/65/65 74/74/74 75/75/75
f 65/65/65 75/75/75 66/66/66
f 66/66/66 75/75/75 67/67/67
f 67/67/67 75/75/75 76/76/76
f 67/67/67 76/76/76 77/77/77
f 67/67/67 77/77/77 68/68/68
f 68/68/68 77/77/77 69/69/69
f 69/69/69 77/77/77 78/78/78
f 69/69/69 78/78/78 79/79/79
f 69/69/69 79/79/79 70/70/70
f 70/70/70 79/79/79 71/71/71
f 71/71/71 79/79/79 80/80/80
f 71/71/71 80/80/80 81/81/81
f 71/71/71 81/81/81 72/72/72
