# Generated by tools/generate_island.py. Do not edit by hand.
o terrain_lod2_-2_0

v -256.000 1.748 0.000 0.279 0.346 0.130
v -256.000 0.089 16.000 0.517 0.487 0.287
v -240.000 0.903 16.000 0.245 0.319 0.118
v -240.000 1.773 0.000 0.246 0.320 0.119
v -224.000 1.862 0.000 0.238 0.314 0.116
v -224.000 2.205 16.000 0.243 0.318 0.118
v -208.000 1.948 16.000 0.215 0.296 0.108
v -208.000 0.635 0.000 0.449 0.417 0.242
v -192.000 1.147 0.000 0.212 0.294 0.107
v -192.000 2.698 16.000 0.220 0.300 0.110
v -176.000 2.436 16.000 0.241 0.316 0.117
v -176.000 2.133 0.000 0.221 0.301 0.110
v -160.000 2.534 0.000 0.217 0.298 0.109
v -160.000 2.509 16.000 0.206 0.289 0.105
v -144.000 6.230 16.000 0.191 0.278 0.100
v -144.000 6.132 0.000 0.240 0.316 0.117
v -128.000 11.011 0.000 0.255 0.239 0.218
v -128.000 8.576 16.000 0.300 0.324 0.241
v -256.000 0.498 32.000 0.489 0.458 0.268
v -240.000 0.665 32.000 0.463 0.431 0.251
v -224.000 -0.114 32.000 0.455 0.423 0.246
v -208.000 0.711 32.000 0.463 0.432 0.251
v -192.000 1.774 32.000 0.227 0.305 0.112
v -176.000 2.429 32.000 0.199 0.284 0.103
v -160.000 3.849 32.000 0.177 0.267 0.096
v -144.000 4.425 32.000 0.163 0.256 0.091
v -128.000 6.748 32.000 0.161 0.254 0.090
v -256.000 0.157 48.000 0.429 0.396 0.229
v -240.000 -0.385 48.000 0.441 0.409 0.237
v -224.000 0.036 48.000 0.439 0.407 0.235
v -208.000 0.991 48.000 0.227 0.305 0.112
v -192.000 2.010 48.000 0.221 0.301 0.110
v -176.000 2.141 48.000 0.181 0.270 0.097
v -160.000 2.306 48.000 0.151 0.246 0.087
v -144.000 2.697 48.000 0.150 0.246 0.087
v -128.000 6.190 48.000 0.134 0.233 0.081
v -256.000 -0.016 64.000 0.397 0.363 0.207
v -240.000 -0.353 64.000 0.434 0.402 0.232
v -224.000 1.478 64.000 0.192 0.278 0.101
v -208.000 1.992 64.000 0.230 0.308 0.113
v -192.000 1.952 64.000 0.217 0.298 0.109
v -176.000 2.469 64.000 0.173 0.263 0.094
v -160.000 2.523 64.000 0.142 0.239 0.084
v -144.000 2.417 64.000 0.144 0.241 0.085
v -128.000 4.251 64.000 0.143 0.240 0.084
v -256.000 -0.061 80.000 0.395 0.361 0.206
v -240.000 -0.276 80.000 0.414 0.380 0.218
v -224.000 0.350 80.000 0.428 0.395 0.228
v -208.000 -0.232 80.000 0.429 0.396 0.228
v -192.000 1.344 80.000 0.194 0.280 0.101
v -176.000 1.653 80.000 0.190 0.277 0.100
v -160.000 1.456 80.000 0.199 0.284 0.103
v -144.000 2.705 80.000 0.177 0.267 0.096
v -128.000 4.278 80.000 0.204 0.287 0.105
v -256.000 -0.666 96.000 0.377 0.342 0.194
v -240.000 -0.086 96.000 0.372 0.338 0.191
v -224.000 -0.321 96.000 0.416 0.383 0.220
v -208.000 -0.779 96.000 0.455 0.423 0.246
v -192.000 1.687 96.000 0.246 0.321 0.119
v -176.000 2.139 96.000 0.228 0.306 0.113
v -160.000 2.137 96.000 0.211 0.293 0.107
v -144.000 2.676 96.000 0.189 0.276 0.100
v -128.000 2.286 96.000 0.178 0.267 0.096
v -256.000 -0.205 112.000 0.361 0.326 0.184
v -240.000 0.236 112.000 0.367 0.333 0.188
v -224.000 -1.008 112.000 0.372 0.338 0.191
v -208.000 -0.459 112.000 0.455 0.423 0.246
v -192.000 1.329 112.000 0.265 0.335 0.125
v -176.000 1.983 112.000 0.281 0.348 0.130
v -160.000 1.997 112.000 0.230 0.308 0.113
v -144.000 1.990 112.000 0.175 0.265 0.095
v -128.000 1.460 112.000 0.134 0.233 0.081
v -256.000 0.738 128.000 0.414 0.381 0.219
v -240.000 1.459 128.000 0.137 0.235 0.082
v -224.000 -0.633 128.000 0.393 0.359 0.205
v -208.000 0.268 128.000 0.442 0.409 0.237
v -192.000 1.368 128.000 0.245 0.319 0.118
v -176.000 1.705 128.000 0.255 0.327 0.122
v -160.000 1.743 128.000 0.235 0.311 0.115
v -144.000 1.487 128.000 0.171 0.262 0.094
v -128.000 -0.081 128.000 0.385 0.350 0.199

vt 0.366667 0.500000
vt 0.366667 0.491667
vt 0.375000 0.491667
vt 0.375000 0.500000
vt 0.383333 0.500000
vt 0.383333 0.491667
vt 0.391667 0.491667
vt 0.391667 0.500000
vt 0.400000 0.500000
vt 0.400000 0.491667
vt 0.408333 0.491667
vt 0.408333 0.500000
vt 0.416667 0.500000
vt 0.416667 0.491667
vt 0.425000 0.491667
vt 0.425000 0.500000
vt 0.433333 0.500000
vt 0.433333 0.491667
vt 0.366667 0.483333
vt 0.375000 0.483333
vt 0.383333 0.483333
vt 0.391667 0.483333
vt 0.400000 0.483333
vt 0.408333 0.483333
vt 0.416667 0.483333
vt 0.425000 0.483333
vt 0.433333 0.483333
vt 0.366667 0.475000
vt 0.375000 0.475000
vt 0.383333 0.475000
vt 0.391667 0.475000
vt 0.400000 0.475000
vt 0.408333 0.475000
vt 0.416667 0.475000
vt 0.425000 0.475000
vt 0.433333 0.475000
vt 0.366667 0.466667
vt 0.375000 0.466667
vt 0.383333 0.466667
vt 0.391667 0.466667
vt 0.400000 0.466667
vt 0.408333 0.466667
vt 0.416667 0.466667
vt 0.425000 0.466667
vt 0.433333 0.466667
vt 0.366667 0.458333
vt 0.375000 0.458333
vt 0.383333 0.458333
vt 0.391667 0.458333
vt 0.400000 0.458333
vt 0.408333 0.458333
vt 0.416667 0.458333
vt 0.425000 0.458333
vt 0.433333 0.458333
vt 0.366667 0.450000
vt 0.375000 0.450000
vt 0.383333 0.450000
vt 0.391667 0.450000
vt 0.400000 0.450000
vt 0.408333 0.450000
vt 0.416667 0.450000
vt 0.425000 0.450000
vt 0.433333 0.450000
vt 0.366667 0.441667
vt 0.375000 0.441667
vt 0.383333 0.441667
vt 0.391667 0.441667
vt 0.400000 0.441667
vt 0.408333 0.441667
vt 0.416667 0.441667
vt 0.425000 0.441667
vt 0.433333 0.441667
vt 0.366667 0.433333
vt 0.375000 0.433333
vt 0.383333 0.433333
vt 0.391667 0.433333
vt 0.400000 0.433333
vt 0.408333 0.433333
vt 0.416667 0.433333
vt 0.425000 0.433333
vt 0.433333 0.433333

vn -0.02612 0.99655 0.07876
vn -0.05077 0.99795 0.03897
vn -0.02913 0.99867 0.04246
vn -0.00356 0.99852 0.05428
vn 0.00145 0.99984 -0.01763
vn -0.03257 0.99757 0.06160
vn -0.01687 0.99981 0.00935
vn 0.02226 0.99640 -0.08175
vn -0.03093 0.99682 -0.07346
vn -0.01524 0.99969 -0.01959
vn -0.02409 0.99951 -0.01978
vn -0.04329 0.99888 -0.01890
vn -0.12088 0.99265 -0.00545
vn -0.11766 0.99222 -0.04076
vn -0.18042 0.98238 0.04884
vn -0.25607 0.96664 -0.00593
vn -0.21968 0.97298 0.07107
vn -0.14381 0.98094 0.13070
vn -0.00945 0.99977 0.01906
vn 0.01912 0.99901 0.04020
vn -0.01960 0.99849 0.05135
vn -0.05888 0.99782 0.02984
vn -0.03960 0.99901 0.02051
vn -0.06469 0.99786 0.00920
vn -0.06501 0.99734 0.03301
vn -0.08968 0.98995 0.10931
vn -0.16100 0.98276 0.09089
vn 0.03381 0.99930 0.01605
vn -0.00500 0.99996 0.00748
vn -0.04289 0.99785 -0.04965
vn -0.04921 0.99822 -0.03379
vn -0.03591 0.99934 -0.00555
vn -0.02528 0.99965 0.00834
vn -0.01736 0.99899 0.04139
vn -0.09622 0.99350 0.06083
vn -0.21272 0.97415 0.07599
vn 0.02238 0.99975 0.00170
vn -0.04663 0.99891 -0.00338
vn -0.04769 0.99886 0.00379
vn -0.01480 0.99916 0.03816
vn -0.03112 0.99923 0.02374
vn -0.01783 0.99972 0.01524
vn -0.01176 0.99979 0.01702
vn -0.05394 0.99854 -0.00025
vn -0.13517 0.99038 0.02948
vn 0.01349 0.99970 0.02031
vn -0.02077 0.99967 0.01496
vn -0.00140 0.99842 0.05614
vn -0.03484 0.99763 0.05929
vn -0.05878 0.99824 0.00826
vn -0.00971 0.99990 0.01023
vn -0.03285 0.99939 0.01205
vn -0.05866 0.99818 0.01430
vn -0.09766 0.99335 0.06100
vn -0.02163 0.99975 -0.00576
vn -0.01077 0.99981 -0.01602
vn 0.01591 0.99969 0.01898
vn -0.06264 0.99801 0.00708
vn -0.07916 0.99686 -0.00056
vn -0.01405 0.99985 -0.01032
vn -0.01665 0.99985 -0.00545
vn -0.00466 0.99974 0.02234
vn -0.00411 0.99847 0.05511
vn -0.02751 0.99866 -0.04382
vn 0.02055 0.99926 -0.03265
vn 0.02171 0.99972 0.00973
vn -0.06767 0.99764 -0.01141
vn -0.07608 0.99705 0.00994
vn -0.01687 0.99978 0.01236
vn -0.00020 0.99992 0.01233
vn 0.02144 0.99896 0.04013
vn 0.03296 0.99673 0.07374
vn -0.03618 0.99706 -0.06748
vn 0.04268 0.99618 -0.07612
vn 0.02943 0.99868 -0.04212
vn -0.06234 0.99703 -0.04526
vn -0.06049 0.99813 -0.00822
vn -0.01169 0.99978 0.01741
vn 0.00331 0.99979 0.02015
vn 0.05687 0.99789 0.03137
vn 0.06526 0.99584 0.06363

f 1/1/1 2/2/2 3/3/3
f 1/1/1 3/3/3 4/4/4
f 4/4/4 3/3/3 5/5/5
f 5/5/5 3/3/3 6/6/6
f 5/5/5 6/6/6 7/7/7
f 5/5/5 7/7/7 8/8/8
f 8/8/8 7/7/7 9/9/9
f 9/9/9 7/7/7 10/10/10
f 9/9/9 10/10/10 11/11/11
f 9/9/9 11/11/11 12/12/12
f 12/12/12 11/11/11 13/13/13
f 13/13/13 11/11/11 14/14/14
f 13/13/13 14/14/14 15/15/15
f 13/13/13 15/15/15 16/16/16
f 16/16/16 15/15/15 17/17/17
f 17/17/17 15/15/15 18/18/18
f 2/2/2 19/19/19 3/3/3
f 3/3/3 19/19/19 20/20/20
f 3/3/3 20/20/20 21/21/21
f 3/3/3 21/21/21 6/6/6
f 6/6/6 21/21/21 7/7/7
f 7/7/7 21/21/21 22/22/22
f 7/7/7 22/22/22 23/23/23
f 7/7/7 23/23/23 10/10/10
f 10/10/10 23/23/23 11/11/11
f 11/11/11 23/23/23 24/24/24
f 11/11/11 24/24/24 25/25/25
f 11/11/11 25/25/25 14/14/14
f 14/14/14 25/25/25 15/15/15
f 15/15/15 25/25/25 26/26/26
f 15/15/15 26/26/26 27/27/27
f 15/15/15 27/27/27 18/18/18
f 19/19/19 28/28/28 29/29/29
f 19/19/19 29/29/29 20/20/20
f 20/20/20 29/29/29 21/21/21
f 21/21/21 29/29/29 30/30/30
f 21/21/21 30/30/30 31/31/31
f 21/21/21 31/31/31 22/22/22
f 22/22/22 31/31/31 23/23/23
f 23/23/23 31/31/31 32/32/32
f 23/23/23 32/32/32 33/33/33
f 23/23/23 33/33/33 24/24/24
f 24/24/24 33/33/33 25/25/25
f 25/25/25 33/33/33 34/34/34
f 25/25/25 34/34/34 35/35/35
f 25/25/25 35/35/35 26/26/26
f 26/26/26 35/35/35 27/27/27
f 27/27/27 35/35/35 36/36/36
f 28/28/28 37/37/37 29/29/29
f 29/29/29 37/37/37 38/38/38
f 29/29/29 38/38/38 39/39/39
f 29/29/29 39/39/39 30/30/30
f 30/30/30 39/39/39 31/31/31
f 31/31/31 39/39/39 40/40/40
f 31/31/31 40/40/40 41/41/41
f 31/31/31 41/41/41 32/32/32
f 32/32/32 41/41/41 33/33/33
f 33/33/33 41/41/41 42/42/42
f 33/33/33 42/42/42 43/43/43
f 33/33/33 43/43/43 34/34/34
f 34/34/34 43/43/43 35/35/35
f 35/35/35 43/43/43 44/44/44
f 35/35/35 44/44/44 45/45/45
f 35/35/35 45/45/45 36/36/36
f 37/37/37 46/46/46 47/47/47
f 37/37/37 47/47/47 38/38/38
f 38/38/38 47/47/47 39/39/39
f 39/39/39 47/47/47 48/48/48
f 39/39/39 48/48/48 49/49/49
f 39/39/39 49/49/49 40/40/40
f 40/40/40 49/49/49 41/41/41
f 41/41/41 49/49/49 50/50/50
f 41/41/41 50/50/50 51/51/51
f 41/41/41 51/51/51 42/42/42
f 42/42/42 51/51/51 43/43/43
f 43/43/43 51/51/51 52/52/52
f 43/43/43 52/52/52 53/53/53
f 43/43/43 53/53/53 44/44/44
f 44/44/44 53/53/53 45/45/45
f 45/45/45 53/53/53 54/54/54
f 46/46/46 55/55/55 47/47/47
f 47/47/47 55/55/55 56/56/56
f 47/47/47 56/56/56 57/57/57
f 47/47/47 57/57/57 48/48/48
f 48/48/48 57/57/57 49/49/49
f 49/49/49 57/57/57 58/58/58
f 49/49/49 58/58/58 59/59/59
f 49/49/49 59/59/59 50/50/50
f 50/50/50 59/59/59 51/51/51
f 51/51/51 59/59/59 60/60/60
f 51/51/51 60/60/60 61/61/61
f 51/51/51 61/61/61 52/52/52
f 52/52/52 61/61/61 53/53/53
f 53/53/53 61/61/61 62/62/62
f 53/53/53 62/62/62 63/63/63
f 53/53/53 63/63/63 54/54/54
f 55/55/55 64/64/64 65/65/65
f 55/55/55 65/65/65 56/56/56
f 56/56/56 65/65/65 57/57/57
f 57/57/57 65/65/65 66/66/66
f 57/57/57 66/66/66 67/67/67
f 57/57/57 67/67/67 58/58/58
f 58/58/58 67/67/67 59/59/59
f 59/59/59 67/67/67 68/68/68
f 59/59/59 68/68/68 69/69/69
f 59/59/59 69/69/69 60/60/60
f 60/60/60 69/69/69 61/61/61
f 61/61/61 69/69/69 70/70/70
f 61/61/61 70/70/70 71/71/71
f 61/61/61 71/71/71 62/62/62
f 62/62/62 71/71/71 63/63/63
f 63/63/63 71/71/71 72/72/72
f 64/64/64 73/73/73 65/65/65
f 65/65/65 73/73/73 74/74/74
f 65/65/65 74/74/74 75/75/75
f 65/65/65 75/75/75 66/66/66
f 66/66/66 75/75/75 67/67/67
f 67/67/67 75/75/75 76/76/76
f 67/67/67 76/76/76 77/77/77
f 67/67/67 77/77/77 68/68/68
f 68/68/68 77/77/77 69/69/69
f 69/69/69 77/77/77 78/78/78
f 69/69/69 78/78/78 79/79/79
f 69/69/69 79/79/79 70/70/70
f 70/70/70 79/79/79 71/71/71
f 71/71/71 79/79/79 80/80/80
f 71/71/71 80/80/80 81/81/81
f 71/71/71 81/81/81 72/72/72
