# Generated by tools/generate_island.py. Do not edit by hand.
o terrain_lod2_-8_1

v -960.000 -10.800 128.000 0.404 0.371 0.212
v -960.000 -10.800 144.000 0.384 0.350 0.199
v -944.000 -10.800 144.000 0.404 0.371 0.212
v -944.000 -10.800 128.000 0.404 0.370 0.212
v -928.000 -10.800 128.000 0.392 0.358 0.204
v -928.000 -10.800 144.000 0.408 0.375 0.215
v -912.000 -10.800 144.000 0.386 0.352 0.201
v -912.000 -10.800 128.000 0.412 0.379 0.218
v -896.000 -10.800 128.000 0.429 0.396 0.228
v -896.000 -10.800 144.000 0.415 0.382 0.219
v -960.000 -10.800 160.000 0.424 0.391 0.225
v -944.000 -10.800 160.000 0.435 0.403 0.233
v -928.000 -10.800 160.000 0.379 0.345 0.196
v -912.000 -10.800 160.000 0.376 0.342 0.194
v -896.000 -10.800 160.000 0.427 0.394 0.227
v -960.000 -10.800 176.000 0.423 0.390 0.225
v -944.000 -10.800 176.000 0.414 0.381 0.219
v -928.000 -10.800 176.000 0.372 0.338 0.191
v -912.000 -10.800 176.000 0.375 0.341 0.193
v -896.000 -10.800 176.000 0.385 0.351 0.200
v -960.000 -10.800 192.000 0.462 0.430 0.250
v -944.000 -10.800 192.000 0.449 0.417 0.242
v -928.000 -10.800 192.000 0.435 0.403 0.233
v -912.000 -10.800 192.000 0.428 0.395 0.228
v -896.000 -10.800 192.000 0.373 0.339 0.192
v -960.000 -10.800 208.000 0.484 0.453 0.265
v -944.000 -10.800 208.000 0.505 0.475 0.279
v -928.000 -10.800 208.000 0.497 0.466 0.273
v -912.000 -10.800 208.000 0.492 0.461 0.270
v -896.000 -10.800 208.000 0.509 0.479 0.282
v -960.000 -10.800 224.000 0.507 0.476 0.280
v -944.000 -10.800 224.000 0.513 0.483 0.284
v -928.000 -10.800 224.000 0.553 0.524 0.310
v -912.000 -10.800 224.000 0.561 0.532 0.316
v -896.000 -10.800 224.000 0.547 0.518 0.307
v -960.000 -10.800 240.000 0.536 0.507 0.299
v -944.000 -10.800 240.000 0.497 0.466 0.273
v -928.000 -10.800 240.000 0.538 0.508 0.300
v -912.000 -10.800 240.000 0.556 0.527 0.312
v -896.000 -10.800 240.000 0.551 0.522 0.309
v -960.000 -10.800 256.000 0.526 0.496 0.292
v -944.000 -10.800 256.000 0.517 0.487 0.287
v -928.000 -10.800 256.000 0.485 0.454 0.265
v -912.000 -10.800 256.000 0.471 0.439 0.256
v -896.000 -10.800 256.000 0.463 0.431 0.251

vt 0.000000 0.433333
vt 0.000000 0.425000
vt 0.008333 0.425000
vt 0.008333 0.433333
vt 0.016667 0.433333
vt 0.016667 0.425000
vt 0.025000 0.425000
vt 0.025000 0.433333
vt 0.033333 0.433333
vt 0.033333 0.425000
vt 0.000000 0.416667
vt 0.008333 0.416667
vt 0.016667 0.416667
vt 0.025000 0.416667
vt 0.033333 0.416667
vt 0.000000 0.408333
vt 0.008333 0.408333
vt 0.016667 0.408333
vt 0.025000 0.408333
vt 0.033333 0.408333
vt 0.000000 0.400000
vt 0.008333 0.400000
vt 0.016667 0.400000
vt 0.025000 0.400000
vt 0.033333 0.400000
vt 0.000000 0.391667
vt 0.008333 0.391667
vt 0.016667 0.391667
vt 0.025000 0.391667
vt 0.033333 0.391667
vt 0.000000 0.383333
vt 0.008333 0.383333
vt 0.016667 0.383333
vt 0.025000 0.383333
vt 0.033333 0.383333
vt 0.000000 0.375000
vt 0.008333 0.375000
vt 0.016667 0.375000
vt 0.025000 0.375000
vt 0.033333 0.375000
vt 0.000000 0.366667
vt 0.008333 0.366667
vt 0.016667 0.366667
vt 0.025000 0.366667
vt 0.033333 0.366667

vn 0.00000 1.00000 0.00000
vn 0.00000 1.00000 0.00000
vn 0.00000 1.00000 0.00000
vn 0.00000 1.00000 0.00000
vn 0.00000 1.00000 0.00000
vn 0.00000 1.00000 0.00000
vn 0.00000 1.00000 0.00000
vn 0.00000 1.00000 0.00000
vn 0.00000 1.00000 0.00000
vn 0.00000 1.00000 0.00000
vn 0.00000 1.00000 0.00000
vn 0.00000 1.00000 0.00000
vn 0.00000 1.00000 0.00000
vn 0.00000 1.00000 0.00000
vn 0.00000 1.00000 0.00000
vn 0.00000 1.00000 0.00000
vn 0.00000 1.00000 0.00000
vn 0.00000 1.00000 0.00000
vn 0.00000 1.00000 0.00000
vn 0.00000 1.00000 0.00000
vn 0.00000 1.00000 0.00000
vn 0.00000 1.00000 0.00000
vn 0.00000 1.00000 0.00000
vn 0.00000 1.00000 0.00000
vn 0.00000 1.00000 0.00000
vn 0.00000 1.00000 0.00000
vn 0.00000 1.00000 0.00000
vn 0.00000 1.00000 0.00000
vn 0.00000 1.00000 0.00000
vn 0.00000 1.00000 0.00000
vn 0.00000 1.00000 0.00000
vn 0.00000 1.00000 0.00000
vn 0.00000 1.00000 0.00000
vn 0.00000 1.00000 0.00000
vn 0.00000 1.00000 0.00000
vn 0.00000 1.00000 0.00000
vn 0.00000 1.00000 0.00000
vn 0.00000 1.00000 0.00000
vn 0.00000 1.00000 0.00000
vn 0.00000 1.00000 0.00000
vn 0.00000 1.00000 0.00000
vn 0.00000 1.00000 0.00000
vn 0.00000 1.00000 0.00000
vn 0.00000 1.00000 0.00000
vn 0.00000 1.00000 0.00000

f 1/1/1 2/2/2 3/3/3
f 1/1/1 3/3/3 4/4/4
f 4/4/4 3/3/3 5/5/5
f 5/5/5 3/3/3 6/6/6
f 5/5/5 6/6/6 7/7/7
f 5/5/5 7/7/7 8/8/8
f 8/8/8 7/7/7 9/9/9
f 9/9/9 7/7/7 10/10/10
f 2/2/2 11/11/11 3/3/3
f 3/3/3 11/11/11 12/12/12
f 3/3/3 12/12/12 13/13/13
f 3/3/3 13/13/13 6/6/6
f 6/6/6 13/13/13 7/7/7
f 7/7/7 13/13/13 14/14/14
f 7/7/7 14/14/14 15/15/15
f 7/7/7 15/15/15 10/10/10
f 11/11/11 16/16/16 17/17/17
f 11/11/11 17/17/17 12/12/12
f 12/12/12 17/17/17 13/13/13
f 13/13/13 17/17/17 18/18/18
f 13/13/13 18/18/18 19/19/19
f 13/13/13 19/19/19 14/14/14
f 14/14/14 19/19/19 15/15/15
f 15/15/15 19/19/19 20/20/20
f 16/16/16 21/21/21 17/17/17
f 17/17/17 21/21/21 22/22/22
f 17/17/17 22/22/22 23/23/23
f 17/17/17 23/23/23 18/18/18
f 18/18/18 23/23/23 19/19/19
f 19/19/19 23/23/23 24/24/24
f 19/19/19 24/24/24 25/25/25
f 19/19/19 25/25/25 20/20/20
f 21/21/21 26/26/26 27/27/27
f 21/21/21 27/27/27 22/22/22
f 22/22/22 27/27/27 23/23/23
f 23/23/23 27/27/27 28/28/28
f 23/23/23 28/28/28 29/29/29
f 23/23/23 29/29/29 24/24/24
f 24/24/24 29/29/29 25/25/25
f 25/25/25 29/29/29 30/30/30
f 26/26/26 31/31/31 27/27/27
f 27/27/27 31/31/31 32/32/32
f 27/27/27 32/32/32 33/33/33
f 27/27/27 33/33/33 28/28/28
f 28/28/28 33/33/33 29/29/29
f 29/29/29 33/33/33 34/34/34
f 29/29/29 34/34/34 35/35/35
f 29/29/29 35/35/35 30/30/30
f 31/31/31 36/36/36 37/37/37
f 31/31/31 37/37/37 32/32/32
f 32/32/32 37/37/37 33/33/33
f 33/33/33 37/37/37 38/38/38
f 33/33/33 38/38/38 39/39/39
f 33/33/33 39/39/39 34/34/34
f 34/34/34 39/39/39 35/35/35
f 35/35/35 39/39/39 40/40/40
f 36/36/36 41/41/41 37/37/37
f 37/37/37 41/41/41 42/42/42
f 37/37/37 42/42/42 43/43/43
f 37/37/37 43/43/43 38/38/38
f 38/38/38 43/43/43 39/39/39
f 39/39/39 43/43/43 44/44/44
f 39/39/39 44/44/44 45/45/45
f 39/39/39 45/45/45 40/40/40
