# Generated by tools/generate_island.py. Do not edit by hand.
o terrain_lod2_3_2

v 384.000 -1.699 256.000 0.376 0.354 0.209
v 384.000 -3.536 272.000 0.333 0.311 0.181
v 400.000 -0.308 272.000 0.334 0.312 0.181
v 400.000 0.287 256.000 0.334 0.311 0.181
v 416.000 -0.754 256.000 0.370 0.344 0.200
v 416.000 -0.814 272.000 0.363 0.338 0.197
v 432.000 -1.120 272.000 0.418 0.388 0.225
v 432.000 -1.434 256.000 0.416 0.386 0.223
v 448.000 -1.235 256.000 0.445 0.413 0.239
v 448.000 -1.444 272.000 0.463 0.431 0.251
v 464.000 -2.290 272.000 0.471 0.439 0.256
v 464.000 -1.628 256.000 0.463 0.431 0.251
v 480.000 -2.567 256.000 0.459 0.428 0.249
v 480.000 -2.251 272.000 0.462 0.431 0.251
v 496.000 -2.171 272.000 0.424 0.391 0.226
v 496.000 -2.862 256.000 0.437 0.405 0.234
v 512.000 -3.199 256.000 0.455 0.423 0.246
v 512.000 -3.101 272.000 0.405 0.372 0.213
v 384.000 -0.965 288.000 0.347 0.324 0.190
v 400.000 -0.800 288.000 0.324 0.301 0.175
v 416.000 -1.523 288.000 0.350 0.323 0.187
v 432.000 -1.159 288.000 0.429 0.399 0.232
v 448.000 -1.423 288.000 0.439 0.407 0.236
v 464.000 -2.102 288.000 0.436 0.404 0.234
v 480.000 -2.203 288.000 0.443 0.411 0.238
v 496.000 -2.715 288.000 0.458 0.426 0.247
v 512.000 -2.961 288.000 0.440 0.407 0.236
v 384.000 -0.246 304.000 0.372 0.350 0.205
v 400.000 -0.913 304.000 0.395 0.371 0.218
v 416.000 -1.114 304.000 0.396 0.367 0.213
v 432.000 -1.289 304.000 0.454 0.423 0.246
v 448.000 -2.024 304.000 0.453 0.421 0.244
v 464.000 -2.075 304.000 0.435 0.402 0.232
v 480.000 -2.079 304.000 0.401 0.368 0.210
v 496.000 -2.864 304.000 0.492 0.461 0.270
v 512.000 -2.905 304.000 0.501 0.471 0.276
v 384.000 -0.775 320.000 0.445 0.419 0.246
v 400.000 -1.115 320.000 0.448 0.420 0.246
v 416.000 -1.223 320.000 0.441 0.409 0.238
v 432.000 -1.807 320.000 0.467 0.435 0.254
v 448.000 -2.155 320.000 0.511 0.480 0.282
v 464.000 -1.779 320.000 0.498 0.467 0.274
v 480.000 -2.302 320.000 0.457 0.426 0.247
v 496.000 -3.129 320.000 0.448 0.416 0.241
v 512.000 -3.039 320.000 0.479 0.447 0.261
v 384.000 -1.456 336.000 0.524 0.495 0.292
v 400.000 -1.298 336.000 0.509 0.479 0.282
v 416.000 -1.299 336.000 0.497 0.466 0.273
v 432.000 -2.057 336.000 0.468 0.436 0.254
v 448.000 -2.271 336.000 0.504 0.474 0.278
v 464.000 -2.628 336.000 0.497 0.466 0.273
v 480.000 -3.292 336.000 0.492 0.461 0.270
v 496.000 -3.104 336.000 0.452 0.420 0.244
v 512.000 -3.255 336.000 0.471 0.439 0.256
v 384.000 -1.031 352.000 0.577 0.549 0.326
v 400.000 -0.947 352.000 0.526 0.496 0.293
v 416.000 -2.179 352.000 0.508 0.478 0.281
v 432.000 -2.726 352.000 0.456 0.424 0.247
v 448.000 -2.426 352.000 0.459 0.428 0.249
v 464.000 -2.972 352.000 0.452 0.420 0.244
v 480.000 -3.590 352.000 0.455 0.423 0.246
v 496.000 -3.757 352.000 0.474 0.443 0.258
v 512.000 -4.284 352.000 0.462 0.430 0.250
v 384.000 -1.602 368.000 0.511 0.480 0.282
v 400.000 -1.758 368.000 0.505 0.474 0.278
v 416.000 -2.384 368.000 0.499 0.468 0.275
v 432.000 -2.534 368.000 0.491 0.460 0.269
v 448.000 -3.045 368.000 0.470 0.439 0.256
v 464.000 -3.978 368.000 0.487 0.456 0.267
v 480.000 -3.781 368.000 0.488 0.457 0.267
v 496.000 -3.793 368.000 0.504 0.474 0.278
v 512.000 -4.745 368.000 0.499 0.469 0.275
v 384.000 -1.395 384.000 0.525 0.495 0.292
v 400.000 -2.231 384.000 0.512 0.481 0.283
v 416.000 -2.848 384.000 0.518 0.488 0.287
v 432.000 -2.752 384.000 0.482 0.451 0.264
v 448.000 -3.639 384.000 0.467 0.435 0.253
v 464.000 -4.053 384.000 0.493 0.462 0.271
v 480.000 -4.039 384.000 0.515 0.485 0.285
v 496.000 -4.747 384.000 0.531 0.502 0.296
v 512.000 -5.366 384.000 0.475 0.443 0.259

vt 0.700000 0.366667
vt 0.700000 0.358333
vt 0.708333 0.358333
vt 0.708333 0.366667
vt 0.716667 0.366667
vt 0.716667 0.358333
vt 0.725000 0.358333
vt 0.725000 0.366667
vt 0.733333 0.366667
vt 0.733333 0.358333
vt 0.741667 0.358333
vt 0.741667 0.366667
vt 0.750000 0.366667
vt 0.750000 0.358333
vt 0.758333 0.358333
vt 0.758333 0.366667
vt 0.766667 0.366667
vt 0.766667 0.358333
vt 0.700000 0.350000
vt 0.708333 0.350000
vt 0.716667 0.350000
vt 0.725000 0.350000
vt 0.733333 0.350000
vt 0.741667 0.350000
vt 0.750000 0.350000
vt 0.758333 0.350000
vt 0.766667 0.350000
vt 0.700000 0.341667
vt 0.708333 0.341667
vt 0.716667 0.341667
vt 0.725000 0.341667
vt 0.733333 0.341667
vt 0.741667 0.341667
vt 0.750000 0.341667
vt 0.758333 0.341667
vt 0.766667 0.341667
vt 0.700000 0.333333
vt 0.708333 0.333333
vt 0.716667 0.333333
vt 0.725000 0.333333
vt 0.733333 0.333333
vt 0.741667 0.333333
vt 0.750000 0.333333
vt 0.758333 0.333333
vt 0.766667 0.333333
vt 0.700000 0.325000
vt 0.708333 0.325000
vt 0.716667 0.325000
vt 0.725000 0.325000
vt 0.733333 0.325000
vt 0.741667 0.325000
vt 0.750000 0.325000
vt 0.758333 0.325000
vt 0.766667 0.325000
vt 0.700000 0.316667
vt 0.708333 0.316667
vt 0.716667 0.316667
vt 0.725000 0.316667
vt 0.733333 0.316667
vt 0.741667 0.316667
vt 0.750000 0.316667
vt 0.758333 0.316667
vt 0.766667 0.316667
vt 0.700000 0.308333
vt 0.708333 0.308333
vt 0.716667 0.308333
vt 0.725000 0.308333
vt 0.733333 0.308333
vt 0.741667 0.308333
vt 0.750000 0.308333
vt 0.758333 0.308333
vt 0.766667 0.308333
vt 0.700000 0.300000
vt 0.708333 0.300000
vt 0.716667 0.300000
vt 0.725000 0.300000
vt 0.733333 0.300000
vt 0.741667 0.300000
vt 0.750000 0.300000
vt 0.758333 0.300000
vt 0.766667 0.300000

vn -0.16038 0.98422 0.07481
vn -0.19776 0.97999 -0.02247
vn -0.04552 0.99881 0.01723
vn -0.02950 0.99888 0.03712
vn 0.03954 0.99920 0.00624
vn 0.02535 0.99939 0.02402
vn 0.01283 0.99991 0.00318
vn 0.01504 0.99969 -0.01965
vn 0.02131 0.99970 0.01195
vn 0.03655 0.99931 0.00586
vn 0.02910 0.99956 0.00603
vn 0.04154 0.99828 0.04131
vn 0.01741 0.99980 -0.01031
vn -0.00372 0.99993 -0.01138
vn 0.02414 0.99968 -0.00700
vn 0.01974 0.99887 -0.04313
vn 0.03958 0.99891 -0.02463
vn 0.05804 0.99829 -0.00744
vn -0.04512 0.99810 -0.04187
vn 0.01742 0.99967 0.01892
vn 0.01489 0.99983 0.01074
vn -0.00312 0.99998 0.00528
vn 0.03001 0.99951 0.00871
vn 0.02436 0.99968 -0.00671
vn 0.01481 0.99989 0.00104
vn 0.02368 0.99949 0.02165
vn 0.02285 0.99971 0.00776
vn 0.04164 0.99911 -0.00594
vn 0.02140 0.99977 0.00110
vn 0.01173 0.99989 -0.00938
vn 0.02072 0.99969 0.01349
vn 0.02457 0.99944 0.02286
vn 0.00808 0.99997 0.00144
vn 0.02465 0.99969 0.00308
vn 0.02459 0.99967 0.00784
vn 0.00254 0.99999 0.00245
vn 0.01857 0.99952 0.02489
vn 0.01398 0.99983 0.01202
vn 0.01967 0.99974 0.01190
vn 0.02911 0.99929 0.02399
vn 0.01017 0.99985 0.01417
vn 0.00458 0.99984 0.01726
vn 0.03095 0.99920 0.02514
vn 0.02305 0.99971 0.00750
vn 0.00019 0.99996 0.00921
vn -0.00987 0.99992 0.00800
vn 0.01001 0.99993 0.00684
vn 0.02370 0.99927 0.02985
vn 0.02438 0.99942 0.02393
vn 0.01783 0.99981 0.00848
vn 0.02618 0.99918 0.03079
vn 0.01488 0.99908 0.04022
vn 0.01059 0.99951 0.02959
vn 0.00940 0.99920 0.03886
vn -0.00267 0.99995 0.00947
vn 0.03583 0.99925 0.01435
vn 0.03975 0.99892 0.02424
vn 0.00773 0.99986 0.01489
vn 0.01957 0.99946 0.02635
vn 0.03630 0.99845 0.04213
vn 0.01455 0.99962 0.02356
vn 0.02168 0.99953 0.02153
vn 0.03364 0.99885 0.03402
vn 0.00969 0.99989 0.01136
vn 0.03250 0.99908 0.02810
vn 0.02424 0.99949 0.02089
vn 0.01843 0.99972 0.01510
vn 0.04506 0.99827 0.03783
vn 0.02371 0.99927 0.02986
vn -0.00577 0.99988 0.01404
vn 0.03083 0.99915 0.02741
vn 0.05937 0.99767 0.03374
vn 0.03096 0.99949 0.00831
vn 0.04533 0.99854 0.02954
vn 0.02026 0.99948 0.02528
vn 0.02472 0.99960 0.01365
vn 0.04285 0.99881 0.02312
vn 0.01251 0.99991 0.00470
vn 0.00796 0.99968 0.02413
vn 0.04136 0.99737 0.05947
vn 0.04897 0.99759 0.04909

f 1/1/1 2/2/2 3/3/3
f 1/1/1 3/3/3 4/4/4
f 4/4/4 3/3/3 5/5/5
f 5/5/5 3/3/3 6/6/6
f 5/5/5 6/6/6 7/7/7
f 5/5/5 7/7/7 8/8/8
f 8/8/8 7/7/7 9/9/9
f 9/9/9 7/7/7 10/10/10
f 9/9/9 10/10/10 11/11/11
f 9/9/9 11/11/11 12/12/12
f 12/12/12 11/11/11 13/13/13
f 13/13/13 11/11/11 14/14/14
f 13/13/13 14/14/14 15/15/15
f 13/13/13 15/15/15 16/16/16
f 16/16/16 15/15/15 17/17/17
f 17/17/17 15/15/15 18/18/18
f 2/2/2 19/19/19 3/3/3
f 3/3/3 19/19/19 20/20/20
f 3/3/3 20/20/20 21/21/21
f 3/3/3 21/21/21 6/6/6
f 6/6/6 21/21/21 7/7/7
f 7/7/7 21/21/21 22/22/22
f 7/7/7 22/22/22 23/23/23
f 7/7/7 23/23/23 10/10/10
f 10/10/10 23/23/23 11/11/11
f 11/11/11 23/23/23 24/24/24
f 11/11/11 24/24/24 25/25/25
f 11/11/11 25/25/25 14/14/14
f 14/14/14 25/25/25 15/15/15
f 15/15/15 25/25/25 26/26/26
f 15/15/15 26/26/26 27/27/27
f 15/15/15 27/27/27 18/18/18
f 19/19/19 28/28/28 29/29/29
f 19/19/19 29/29/29 20/20/20
f 20/20/20 29/29/29 21/21/21
f 21/21/21 29/29/29 30/30/30
f 21/21/21 30/30/30 31/31/31
f 21/21/21 31/31/31 22/22/22
f 22/22/22 31/31/31 23/23/23
f 23/23/23 31/31/31 32/32/32
f 23/23/23 32/32/32 33/33/33
f 23/23/23 33/33/33 24/24/24
f 24/24/24 33/33/33 25/25/25
f 25/25/25 33/33/33 34/34/34
f 25/25/25 34/34/34 35/35/35
f 25/25/25 35/35/35 26/26/26
f 26/26/26 35/35/35 27/27/27
f 27/27/27 35/35/35 36/36/36
f 28/28/28 37/37/37 29/29/29
f 29/29/29 37/37/37 38/38/38
f 29/29/29 38/38/38 39/39/39
f 29/29/29 39/39/39 30/30/30
f 30/30/30 39/39/39 31/31/31
f 31/31/31 39/39/39 40/40/40
f 31/31/31 40/40/40 41/41/41
f 31/31/31 41/41/41 32/32/32
f 32/32/32 41/41/41 33/33/33
f 33/33/33 41/41/41 42/42/42
f 33/33/33 42/42/42 43/43/43
f 33/33/33 43/43/43 34/34/34
f 34/34/34 43/43/43 35/35/35
f 35/35/35 43/43/43 44/44/44
f 35/35/35 44/44/44 45/45/45
f 35/35/35 45/45/45 36/36/36
f 37/37/37 46/46/46 47/47/47
f 37/37/37 47/47/47 38/38/38
f 38/38/38 47/47/47 39/39/39
f 39/39/39 47/47/47 48/48/48
f 39/39/39 48/48/48 49/49/49
f 39/39/39 49/49/49 40/40/40
f 40/40/40 49/49/49 41/41/41
f 41/41/41 49/49/49 50/50/50
f 41/41/41 50/50/50 51/51/51
f 41/41/41 51/51/51 42/42/42
f 42/42/42 51/51/51 43/43/43
f 43/43/43 51/51/51 52/52/52
f 43/43/43 52/52/52 53/53/53
f 43/43/43 53/53/53 44/44/44
f 44/44/44 53/53/53 45/45/45
f 45/45/45 53/53/53 54/54/54
f 46/46/46 55/55/55 47/47/47
f 47/47/47 55/55/55 56/56/56
f 47/47/47 56/56/56 57/57/57
f 47/47/47 57/57/57 48/48/48
f 48/48/48 57/57/57 49/49/49
f 49/49/49 57/57/57 58/58/58
f 49/49/49 58/58/58 59/59/59
f 49/49/49 59/59/59 50/50/50
f 50/50/50 59/59/59 51/51/51
f 51/51/51 59/59/59 60/60/60
f 51/51/51 60/60/60 61/61/61
f 51/51/51 61/61/61 52/52/52
f 52/52/52 61/61/61 53/53/53
f 53/53/53 61/61/61 62/62/62
f 53/53/53 62/62/62 63/63/63
f 53/53/53 63/63/63 54/54/54
f 55/55/55 64/64/64 65/65/65
f 55/55/55 65/65/65 56/56/56
f 56/56/56 65/65/65 57/57/57
f 57/57/57 65/65/65 66/66/66
f 57/57/57 66/66/66 67/67/67
f 57/57/57 67/67/67 58/58/58
f 58/58/58 67/67/67 59/59/59
f 59/59/59 67/67/67 68/68/68
f 59/59/59 68/68/68 69/69/69
f 59/59/59 69/69/69 60/60/60
f 60/60/60 69/69/69 61/61/61
f 61/61/61 69/69/69 70/70/70
f 61/61/61 70/70/70 71/71/71
f 61/61/61 71/71/71 62/62/62
f 62/62/62 71/71/71 63/63/63
f 63/63/63 71/71/71 72/72/72
f 64/64/64 73/73/73 65/65/65
f 65/65/65 73/73/73 74/74/74
f 65/65/65 74/74/74 75/75/75
f 65/65/65 75/75/75 66/66/66
f 66/66/66 75/75/75 67/67/67
f 67/67/67 75/75/75 76/76/76
f 67/67/67 76/76/76 77/77/77
f 67/67/67 77/77/77 68/68/68
f 68/68/68 77/77/77 69/69/69
f 69/69/69 77/77/77 78/78/78
f 69/69/69 78/78/78 79/79/79
f 69/69/69 79/79/79 70/70/70
f 70/70/70 79/79/79 71/71/71
f 71/71/71 79/79/79 80/80/80
f 71/71/71 80/80/80 81/81/81
f 71/71/71 81/81/81 72/72/72
