# Generated by tools/generate_island.py. Do not edit by hand.
o terrain_lod2_-3_-2

v -192.000 -7.652 -128.000 0.459 0.427 0.248
v -192.000 -7.857 -120.000 0.443 0.411 0.238
v -184.000 -6.764 -120.000 0.440 0.408 0.236
v -184.000 -6.863 -128.000 0.472 0.440 0.257
v -176.000 -5.413 -128.000 0.470 0.439 0.256
v -176.000 -5.353 -120.000 0.439 0.407 0.235
v -168.000 -3.797 -120.000 0.458 0.426 0.248
v -168.000 -4.486 -128.000 0.459 0.427 0.249
v -160.000 -3.601 -128.000 0.483 0.452 0.264
v -160.000 -3.191 -120.000 0.454 0.422 0.245
v -152.000 -2.484 -120.000 0.474 0.443 0.259
v -152.000 -2.987 -128.000 0.502 0.471 0.277
v -144.000 -2.906 -128.000 0.521 0.491 0.289
v -144.000 -2.308 -120.000 0.501 0.471 0.276
v -136.000 -1.840 -120.000 0.493 0.462 0.271
v -136.000 -2.252 -128.000 0.492 0.461 0.270
v -128.000 -1.888 -128.000 0.455 0.423 0.245
v -128.000 -1.122 -120.000 0.466 0.434 0.253
v -192.000 -8.000 -112.000 0.416 0.383 0.220
v -184.000 -6.316 -112.000 0.434 0.401 0.232
v -176.000 -5.061 -112.000 0.447 0.415 0.240
v -168.000 -3.511 -112.000 0.452 0.420 0.244
v -160.000 -2.833 -112.000 0.439 0.407 0.235
v -152.000 -2.526 -112.000 0.448 0.416 0.241
v -144.000 -1.953 -112.000 0.464 0.432 0.252
v -136.000 -1.629 -112.000 0.482 0.451 0.263
v -128.000 -0.764 -112.000 0.478 0.447 0.261
v -192.000 -8.000 -104.000 0.413 0.380 0.218
v -184.000 -6.242 -104.000 0.423 0.391 0.225
v -176.000 -4.847 -104.000 0.432 0.400 0.231
v -168.000 -3.900 -104.000 0.424 0.392 0.226
v -160.000 -2.926 -104.000 0.442 0.409 0.237
v -152.000 -2.521 -104.000 0.444 0.412 0.239
v -144.000 -1.656 -104.000 0.447 0.415 0.240
v -136.000 -0.902 -104.000 0.483 0.451 0.264
v -128.000 -0.306 -104.000 0.520 0.490 0.288
v -192.000 -7.723 -96.000 0.440 0.408 0.236
v -184.000 -6.271 -96.000 0.433 0.401 0.231
v -176.000 -4.717 -96.000 0.444 0.412 0.239
v -168.000 -3.914 -96.000 0.449 0.417 0.242
v -160.000 -2.984 -96.000 0.455 0.423 0.246
v -152.000 -2.132 -96.000 0.448 0.416 0.241
v -144.000 -1.465 -96.000 0.458 0.426 0.248
v -136.000 -0.501 -96.000 0.498 0.468 0.274
v -128.000 -0.113 -96.000 0.540 0.511 0.302
v -192.000 -7.062 -88.000 0.488 0.458 0.268
v -184.000 -5.784 -88.000 0.460 0.428 0.249
v -176.000 -4.572 -88.000 0.443 0.410 0.238
v -168.000 -3.655 -88.000 0.449 0.417 0.242
v -160.000 -3.157 -88.000 0.442 0.410 0.237
v -152.000 -2.069 -88.000 0.450 0.418 0.242
v -144.000 -1.328 -88.000 0.446 0.414 0.240
v -136.000 -0.726 -88.000 0.491 0.460 0.269
v -128.000 -0.111 -88.000 0.540 0.510 0.301
v -192.000 -6.481 -80.000 0.506 0.475 0.279
v -184.000 -5.238 -80.000 0.507 0.477 0.280
v -176.000 -4.626 -80.000 0.490 0.459 0.269
v -168.000 -3.656 -80.000 0.478 0.447 0.261
v -160.000 -3.029 -80.000 0.478 0.446 0.261
v -152.000 -2.092 -80.000 0.470 0.439 0.256
v -144.000 -0.958 -80.000 0.463 0.431 0.251
v -136.000 -0.610 -80.000 0.481 0.450 0.263
v -128.000 0.049 -80.000 0.512 0.481 0.283
v -192.000 -5.991 -72.000 0.511 0.481 0.283
v -184.000 -4.871 -72.000 0.528 0.498 0.294
v -176.000 -4.219 -72.000 0.521 0.491 0.289
v -168.000 -3.530 -72.000 0.491 0.460 0.270
v -160.000 -2.438 -72.000 0.496 0.465 0.273
v -152.000 -1.845 -72.000 0.491 0.460 0.269
v -144.000 -1.053 -72.000 0.477 0.446 0.260
v -136.000 -0.974 -72.000 0.491 0.460 0.269
v -128.000 -0.953 -72.000 0.496 0.465 0.273
v -192.000 -5.007 -64.000 0.519 0.489 0.288
v -184.000 -4.348 -64.000 0.521 0.491 0.289
v -176.000 -3.412 -64.000 0.538 0.509 0.301
v -168.000 -2.907 -64.000 0.506 0.476 0.279
v -160.000 -2.061 -64.000 0.517 0.487 0.286
v -152.000 -1.480 -64.000 0.490 0.459 0.269
v -144.000 -1.416 -64.000 0.459 0.428 0.249
v -136.000 -1.367 -64.000 0.484 0.452 0.265
v -128.000 -1.524 -64.000 0.514 0.484 0.285

vt 0.200000 0.700000
vt 0.200000 0.687500
vt 0.212500 0.687500
vt 0.212500 0.700000
vt 0.225000 0.700000
vt 0.225000 0.687500
vt 0.237500 0.687500
vt 0.237500 0.700000
vt 0.250000 0.700000
vt 0.250000 0.687500
vt 0.262500 0.687500
vt 0.262500 0.700000
vt 0.275000 0.700000
vt 0.275000 0.687500
vt 0.287500 0.687500
vt 0.287500 0.700000
vt 0.300000 0.700000
vt 0.300000 0.687500
vt 0.200000 0.675000
vt 0.212500 0.675000
vt 0.225000 0.675000
vt 0.237500 0.675000
vt 0.250000 0.675000
vt 0.262500 0.675000
vt 0.275000 0.675000
vt 0.287500 0.675000
vt 0.300000 0.675000
vt 0.200000 0.662500
vt 0.212500 0.662500
vt 0.225000 0.662500
vt 0.237500 0.662500
vt 0.250000 0.662500
vt 0.262500 0.662500
vt 0.275000 0.662500
vt 0.287500 0.662500
vt 0.300000 0.662500
vt 0.200000 0.650000
vt 0.212500 0.650000
vt 0.225000 0.650000
vt 0.237500 0.650000
vt 0.250000 0.650000
vt 0.262500 0.650000
vt 0.275000 0.650000
vt 0.287500 0.650000
vt 0.300000 0.650000
vt 0.200000 0.637500
vt 0.212500 0.637500
vt 0.225000 0.637500
vt 0.237500 0.637500
vt 0.250000 0.637500
vt 0.262500 0.637500
vt 0.275000 0.637500
vt 0.287500 0.637500
vt 0.300000 0.637500
vt 0.200000 0.625000
vt 0.212500 0.625000
vt 0.225000 0.625000
vt 0.237500 0.625000
vt 0.250000 0.625000
vt 0.262500 0.625000
vt 0.275000 0.625000
vt 0.287500 0.625000
vt 0.300000 0.625000
vt 0.200000 0.612500
vt 0.212500 0.612500
vt 0.225000 0.612500
vt 0.237500 0.612500
vt 0.250000 0.612500
vt 0.262500 0.612500
vt 0.275000 0.612500
vt 0.287500 0.612500
vt 0.300000 0.612500
vt 0.200000 0.600000
vt 0.212500 0.600000
vt 0.225000 0.600000
vt 0.237500 0.600000
vt 0.250000 0.600000
vt 0.262500 0.600000
vt 0.275000 0.600000
vt 0.287500 0.600000
vt 0.300000 0.600000

vn -0.11674 0.99314 0.00660
vn -0.13527 0.99057 0.02157
vn -0.15716 0.98743 -0.01695
vn -0.13856 0.99028 -0.01225
vn -0.16468 0.98595 -0.02800
vn -0.18232 0.98300 -0.02161
vn -0.12941 0.99045 -0.04752
vn -0.11212 0.99003 -0.08532
vn -0.08734 0.99422 -0.06249
vn -0.08166 0.99552 -0.04776
vn -0.05211 0.99779 -0.04122
vn -0.04332 0.99709 -0.06271
vn -0.04298 0.99691 -0.06575
vn -0.04017 0.99743 -0.05940
vn -0.07127 0.99611 -0.05173
vn -0.06340 0.99667 -0.05136
vn -0.06731 0.99504 -0.07327
vn -0.08917 0.99357 -0.06982
vn -0.19078 0.98156 -0.01164
vn -0.18057 0.98304 -0.03211
vn -0.16813 0.98552 -0.02204
vn -0.13790 0.99043 0.00641
vn -0.07264 0.99734 -0.00609
vn -0.05495 0.99849 0.00229
vn -0.06322 0.99741 -0.03437
vn -0.07400 0.99555 -0.05834
vn -0.09461 0.99402 -0.05448
vn -0.21463 0.97655 -0.01688
vn -0.18802 0.98211 -0.01090
vn -0.14477 0.98924 -0.02127
vn -0.12102 0.99261 0.00951
vn -0.08588 0.99626 0.00937
vn -0.07694 0.99688 -0.01752
vn -0.10061 0.99446 -0.03032
vn -0.08150 0.99527 -0.05279
vn -0.07431 0.99641 -0.04050
vn -0.18240 0.98229 -0.04285
vn -0.18460 0.98241 -0.02812
vn -0.14201 0.98968 -0.01937
vn -0.10769 0.99407 -0.01525
vn -0.10149 0.99483 -0.00365
vn -0.09446 0.99513 -0.02812
vn -0.09678 0.99511 -0.01998
vn -0.08418 0.99639 -0.01100
vn -0.06196 0.99801 -0.01159
vn -0.15729 0.98459 -0.07645
vn -0.15177 0.98703 -0.05242
vn -0.13190 0.99125 -0.00563
vn -0.09582 0.99536 -0.00874
vn -0.09862 0.99512 0.00279
vn -0.11252 0.99361 -0.00841
vn -0.08362 0.99600 -0.03153
vn -0.07469 0.99718 -0.00701
vn -0.07667 0.99700 -0.01012
vn -0.15061 0.98670 -0.06116
vn -0.11498 0.99176 -0.05656
vn -0.10305 0.99431 -0.02710
vn -0.09935 0.99502 -0.00776
vn -0.09946 0.99465 -0.02778
vn -0.12830 0.99164 -0.01391
vn -0.08063 0.99671 -0.00819
vn -0.06284 0.99790 0.01547
vn -0.06094 0.99756 0.03399
vn -0.13804 0.98625 -0.09085
vn -0.10839 0.99170 -0.06922
vn -0.08330 0.99367 -0.07540
vn -0.10104 0.99324 -0.05713
vn -0.10457 0.99270 -0.06006
vn -0.08535 0.99599 -0.02697
vn -0.05432 0.99812 0.02856
vn -0.01716 0.99832 0.05529
vn -0.00263 0.99520 0.09784
vn -0.11001 0.98955 -0.09321
vn -0.09899 0.99297 -0.06494
vn -0.08632 0.99258 -0.08559
vn -0.08391 0.99346 -0.07740
vn -0.09664 0.99385 -0.05411
vn -0.04019 0.99816 -0.04545
vn -0.03073 0.99925 0.02360
vn 0.00672 0.99877 0.04908
vn 0.00847 0.99815 0.06015

f 1/1/1 2/2/2 3/3/3
f 1/1/1 3/3/3 4/4/4
f 4/4/4 3/3/3 5/5/5
f 5/5/5 3/3/3 6/6/6
f 5/5/5 6/6/6 7/7/7
f 5/5/5 7/7/7 8/8/8
f 8/8/8 7/7/7 9/9/9
f 9/9/9 7/7/7 10/10/10
f 9/9/9 10/10/10 11/11/11
f 9/9/9 11/11/11 12/12/12
f 12/12/12 11/11/11 13/13/13
f 13/13/13 11/11/11 14/14/14
f 13/13/13 14/14/14 15/15/15
f 13/13/13 15/15/15 16/16/16
f 16/16/16 15/15/15 17/17/17
f 17/17/17 15/15/15 18/18/18
f 2/2/2 19/19/19 3/3/3
f 3/3/3 19/19/19 20/20/20
f 3/3/3 20/20/20 21/21/21
f 3/3/3 21/21/21 6/6/6
f 6/6/6 21/21/21 7/7/7
f 7/7/7 21/21/21 22/22/22
f 7/7/7 22/22/22 23/23/23
f 7/7/7 23/23/23 10/10/10
f 10/10/10 23/23/23 11/11/11
f 11/11/11 23/23/23 24/24/24
f 11/11/11 24/24/24 25/25/25
f 11/11/11 25/25/25 14/14/14
f 14/14/14 25/25/25 15/15/15
f 15/15/15 25/25/25 26/26/26
f 15/15/15 26/26/26 27/27/27
f 15/15/15 27/27/27 18/18/18
f 19/19/19 28/28/28 29/29/29
f 19/19/19 29/29/29 20/20/20
f 20/20/20 29/29/29 21/21/21
f 21/21/21 29/29/29 30/30/30
f 21/21/21 30/30/30 31/31/31
f 21/21/21 31/31/31 22/22/22
f 22/22/22 31/31/31 23/23/23
f 23/23/23 31/31/31 32/32/32
f 23/23/23 32/32/32 33/33/33
f 23/23/23 33/33/33 24/24/24
f 24/24/24 33/33/33 25/25/25
f 25/25/25 33/33/33 34/34/34
f 25/25/25 34/34/34 35/35/35
f 25/25/25 35/35/35 26/26/26
f 26/26/26 35/35/35 27/27/27
f 27/27/27 35/35/35 36/36/36
f 28/28/28 37/37/37 29/29/29
f 29/29/29 37/37/37 38/38/38
f 29/29/29 38/38/38 39/39/39
f 29/29/29 39/39/39 30/30/30
f 30/30/30 39/39/39 31/31/31
f 31/31/31 39/39/39 40/40/40
f 31/31/31 40/40/40 41/41/41
f 31/31/31 41/41/41 32/32/32
f 32/32/32 41/41/41 33/33/33
f 33/33/33 41/41/41 42/42/42
f 33/33/33 42/42/42 43/43/43
f 33/33/33 43/43/43 34/34/34
f 34/34/34 43/43/43 35/35/35
f 35/35/35 43/43/43 44/44/44
f 35/35/35 44/44/44 45/45/45
f 35/35/35 45/45/45 36/36/36
f 37/37/37 46/46/46 47/47/47
f 37/37/37 47/47/47 38/38/38
f 38/38/38 47/47/47 39/39/39
f 39/39/39 47/47/47 48/48/48
f 39/39/39 48/48/48 49/49/49
f 39/39/39 49/49/49 40/40/40
f 40/40/40 49/49/49 41/41/41
f 41/41/41 49/49/49 50/50/50
f 41/41/41 50/50/50 51/51/51
f 41/41/41 51/51/51 42/42/42
f 42/42/42 51/51/51 43/43/43
f 43/43/43 51/51/51 52/52/52
f 43/43/43 52/52/52 53/53/53
f 43/43/43 53/53/53 44/44/44
f 44/44/44 53/53/53 45/45/45
f 45/45/45 53/53/53 54/54/54
f 46/46/46 55/55/55 47/47/47
f 47/47/47 55/55/55 56/56/56
f 47/47/47 56/56/56 57/57/57
f 47/47/47 57/57/57 48/48/48
f 48/48/48 57/57/57 49/49/49
f 49/49/49 57/57/57 58/58/58
f 49/49/49 58/58/58 59/59/59
f 49/49/49 59/59/59 50/50/50
f 50/50/50 59/59/59 51/51/51
f 51/51/51 59/59/59 60/60/60
f 51/51/51 60/60/60 61/61/61
f 51/51/51 61/61/61 52/52/52
f 52/52/52 61/61/61 53/53/53
f 53/53/53 61/61/61 62/62/62
f 53/53/53 62/62/62 63/63/63
f 53/53/53 63/63/63 54/54/54
f 55/55/55 64/64/64 65/65/65
f 55/55/55 65/65/65 56/56/56
f 56/56/56 65/65/65 57/57/57
f 57/57/57 65/65/65 66/66/66
f 57/57/57 66/66/66 67/67/67
f 57/57/57 67/67/67 58/58/58
f 58/58/58 67/67/67 59/59/59
f 59/59/59 67/67/67 68/68/68
f 59/59/59 68/68/68 69/69/69
f 59/59/59 69/69/69 60/60/60
f 60/60/60 69/69/69 61/61/61
f 61/61/61 69/69/69 70/70/70
f 61/61/61 70/70/70 71/71/71
f 61/61/61 71/71/71 62/62/62
f 62/62/62 71/71/71 63/63/63
f 63/63/63 71/71/71 72/72/72
f 64/64/64 73/73/73 65/65/65
f 65/65/65 73/73/73 74/74/74
f 65/65/65 74/74/74 75/75/75
f 65/65/65 75/75/75 66/66/66
f 66/66/66 75/75/75 67/67/67
f 67/67/67 75/75/75 76/76/76
f 67/67/67 76/76/76 77/77/77
f 67/67/67 77/77/77 68/68/68
f 68/68/68 77/77/77 69/69/69
f 69/69/69 77/77/77 78/78/78
f 69/69/69 78/78/78 79/79/79
f 69/69/69 79/79/79 70/70/70
f 70/70/70 79/79/79 71/71/71
f 71/71/71 79/79/79 80/80/80
f 71/71/71 80/80/80 81/81/81
f 71/71/71 81/81/81 72/72/72
