# Generated by tools/generate_island.py. Do not edit by hand.
o terrain_lod2_7_-6

v 896.000 -10.800 -768.000 0.473 0.442 0.258
v 896.000 -10.800 -752.000 0.386 0.352 0.201
v 912.000 -10.800 -752.000 0.452 0.420 0.244
v 912.000 -10.800 -768.000 0.499 0.469 0.275
v 928.000 -10.800 -768.000 0.546 0.517 0.306
v 928.000 -10.800 -752.000 0.492 0.461 0.270
v 944.000 -10.800 -752.000 0.507 0.477 0.280
v 944.000 -10.800 -768.000 0.555 0.527 0.312
v 960.000 -10.800 -768.000 0.537 0.507 0.300
v 960.000 -10.800 -752.000 0.490 0.459 0.269
v 896.000 -10.800 -736.000 0.403 0.369 0.211
v 912.000 -10.800 -736.000 0.425 0.392 0.226
v 928.000 -10.800 -736.000 0.421 0.388 0.223
v 944.000 -10.800 -736.000 0.415 0.381 0.219
v 960.000 -10.800 -736.000 0.462 0.430 0.250
v 896.000 -10.800 -720.000 0.462 0.430 0.250
v 912.000 -10.800 -720.000 0.416 0.383 0.220
v 928.000 -10.800 -720.000 0.388 0.354 0.202
v 944.000 -10.800 -720.000 0.414 0.381 0.219
v 960.000 -10.800 -720.000 0.447 0.415 0.241
v 896.000 -10.800 -704.000 0.427 0.394 0.227
v 912.000 -10.800 -704.000 0.402 0.368 0.211
v 928.000 -10.800 -704.000 0.419 0.386 0.222
v 944.000 -10.800 -704.000 0.424 0.391 0.225
v 960.000 -10.800 -704.000 0.444 0.412 0.239
v 896.000 -10.800 -688.000 0.423 0.390 0.225
v 912.000 -10.800 -688.000 0.397 0.363 0.207
v 928.000 -10.800 -688.000 0.415 0.382 0.219
v 944.000 -10.800 -688.000 0.438 0.405 0.234
v 960.000 -10.800 -688.000 0.479 0.447 0.261
v 896.000 -10.800 -672.000 0.396 0.362 0.207
v 912.000 -10.800 -672.000 0.362 0.327 0.185
v 928.000 -10.800 -672.000 0.378 0.344 0.195
v 944.000 -10.800 -672.000 0.423 0.390 0.224
v 960.000 -10.800 -672.000 0.455 0.423 0.246
v 896.000 -10.800 -656.000 0.394 0.360 0.206
v 912.000 -10.800 -656.000 0.399 0.365 0.209
v 928.000 -10.800 -656.000 0.413 0.380 0.218
v 944.000 -10.800 -656.000 0.413 0.380 0.218
v 960.000 -10.800 -656.000 0.431 0.399 0.230
v 896.000 -10.800 -640.000 0.497 0.467 0.274
v 912.000 -10.800 -640.000 0.475 0.443 0.259
v 928.000 -10.800 -640.000 0.465 0.434 0.252
v 944.000 -10.800 -640.000 0.456 0.424 0.247
v 960.000 -10.800 -640.000 0.474 0.442 0.258

vt 0.966667 0.900000
vt 0.966667 0.891667
vt 0.975000 0.891667
vt 0.975000 0.900000
vt 0.983333 0.900000
vt 0.983333 0.891667
vt 0.991667 0.891667
vt 0.991667 0.900000
vt 1.000000 0.900000
vt 1.000000 0.891667
vt 0.966667 0.883333
vt 0.975000 0.883333
vt 0.983333 0.883333
vt 0.991667 0.883333
vt 1.000000 0.883333
vt 0.966667 0.875000
vt 0.975000 0.875000
vt 0.983333 0.875000
vt 0.991667 0.875000
vt 1.000000 0.875000
vt 0.966667 0.866667
vt 0.975000 0.866667
vt 0.983333 0.866667
vt 0.991667 0.866667
vt 1.000000 0.866667
vt 0.966667 0.858333
vt 0.975000 0.858333
vt 0.983333 0.858333
vt 0.991667 0.858333
vt 1.000000 0.858333
vt 0.966667 0.850000
vt 0.975000 0.850000
vt 0.983333 0.850000
vt 0.991667 0.850000
vt 1.000000 0.850000
vt 0.966667 0.841667
vt 0.975000 0.841667
vt 0.983333 0.841667
vt 0.991667 0.841667
vt 1.000000 0.841667
vt 0.966667 0.833333
vt 0.975000 0.833333
vt 0.983333 0.833333
vt 0.991667 0.833333
vt 1.000000 0.833333

vn 0.00000 1.00000 0.00000
vn 0.00000 1.00000 0.00000
vn 0.00000 1.00000 0.00000
vn 0.00000 1.00000 0.00000
vn 0.00000 1.00000 0.00000
vn 0.00000 1.00000 0.00000
vn 0.00000 1.00000 0.00000
vn 0.00000 1.00000 0.00000
vn 0.00000 1.00000 0.00000
vn 0.00000 1.00000 0.00000
vn 0.00000 1.00000 0.00000
vn 0.00000 1.00000 0.00000
vn 0.00000 1.00000 0.00000
vn 0.00000 1.00000 0.00000
vn 0.00000 1.00000 0.00000
vn 0.00000 1.00000 0.00000
vn 0.00000 1.00000 0.00000
vn 0.00000 1.00000 0.00000
vn 0.00000 1.00000 0.00000
vn 0.00000 1.00000 0.00000
vn 0.00000 1.00000 0.00000
vn 0.00000 1.00000 0.00000
vn 0.00000 1.00000 0.00000
vn 0.00000 1.00000 0.00000
vn 0.00000 1.00000 0.00000
vn 0.00000 1.00000 0.00000
vn 0.00000 1.00000 0.00000
vn 0.00000 1.00000 0.00000
vn 0.00000 1.00000 0.00000
vn 0.00000 1.00000 0.00000
vn 0.00000 1.00000 0.00000
vn 0.00000 1.00000 0.00000
vn 0.00000 1.00000 0.00000
vn 0.00000 1.00000 0.00000
vn 0.00000 1.00000 0.00000
vn 0.00000 1.00000 0.00000
vn 0.00000 1.00000 0.00000
vn 0.00000 1.00000 0.00000
vn 0.00000 1.00000 0.00000
vn 0.00000 1.00000 0.00000
vn 0.00000 1.00000 0.00000
vn 0.00000 1.00000 0.00000
vn 0.00000 1.00000 0.00000
vn 0.00000 1.00000 0.00000
vn 0.00000 1.00000 0.00000

f 1/1/1 2/2/2 3/3/3
f 1/1/1 3/3/3 4/4/4
f 4/4/4 3/3/3 5/5/5
f 5/5/5 3/3/3 6/6/6
f 5/5/5 6/6/6 7/7/7
f 5/5/5 7/7/7 8/8/8
f 8/8/8 7/7/7 9/9/9
f 9/9/9 7/7/7 10/10/10
f 2/2/2 11/11/11 3/3/3
f 3/3/3 11/11/11 12/12/12
f 3/3/3 12/12/12 13/13/13
f 3/3/3 13/13/13 6/6/6
f 6/6/6 13/13/13 7/7/7
f 7/7/7 13/13/13 14/14/14
f 7/7/7 14/14/14 15/15/15
f 7/7/7 15/15/15 10/10/10
f 11/11/11 16/16/16 17/17/17
f 11/11/11 17/17/17 12/12/12
f 12/12/12 17/17/17 13/13/13
f 13/13/13 17/17/17 18/18/18
f 13/13/13 18/18/18 19/19/19
f 13/13/13 19/19/19 14/14/14
f 14/14/14 19/19/19 15/15/15
f 15/15/15 19/19/19 20/20/20
f 16/16/16 21/21/21 17/17/17
f 17/17/17 21/21/21 22/22/22
f 17/17/17 22/22/22 23/23/23
f 17/17/17 23/23/23 18/18/18
f 18/18/18 23/23/23 19/19/19
f 19/19/19 23/23/23 24/24/24
f 19/19/19 24/24/24 25/25/25
f 19/19/19 25/25/25 20/20/20
f 21/21/21 26/26/26 27/27/27
f 21/21/21 27/27/27 22/22/22
f 22/22/22 27/27/27 23/23/23
f 23/23/23 27/27/27 28/28/28
f 23/23/23 28/28/28 29/29/29
f 23/23/23 29/29/29 24/24/24
f 24/24/24 29/29/29 25/25/25
f 25/25/25 29/29/29 30/30/30
f 26/26/26 31/31/31 27/27/27
f 27/27/27 31/31/31 32/32/32
f 27/27/27 32/32/32 33/33/33
f 27/27/27 33/33/33 28/28/28
f 28/28/28 33/33/33 29/29/29
f 29/29/29 33/33/33 34/34/34
f 29/29/29 34/34/34 35/35/35
f 29/29/29 35/35/35 30/30/30
f 31/31/31 36/36/36 37/37/37
f 31/31/31 37/37/37 32/32/32
f 32/32/32 37/37/37 33/33/33
f 33/33/33 37/37/37 38/38/38
f 33/33/33 38/38/38 39/39/39
f 33/33/33 39/39/39 34/34/34
f 34/34/34 39/39/39 35/35/35
f 35/35/35 39/39/39 40/40/40
f 36/36/36 41/41/41 37/37/37
f 37/37/37 41/41/41 42/42/42
f 37/37/37 42/42/42 43/43/43
f 37/37/37 43/43/43 38/38/38
f 38/38/38 43/43/43 39/39/39
f 39/39/39 43/43/43 44/44/44
f 39/39/39 44/44/44 45/45/45
f 39/39/39 45/45/45 40/40/40
