# Generated by tools/generate_island.py. Do not edit by hand.
o terrain_lod2_0_-1

v 0.000 1.627 -64.000 0.073 0.166 0.089
v 0.000 2.703 -56.000 0.068 0.159 0.086
v 8.000 3.089 -56.000 0.073 0.166 0.089
v 8.000 1.991 -64.000 0.072 0.164 0.089
v 16.000 2.839 -64.000 0.073 0.165 0.089
v 16.000 3.317 -56.000 0.077 0.171 0.092
v 24.000 4.542 -56.000 0.109 0.191 0.065
v 24.000 4.638 -64.000 0.081 0.175 0.093
v 32.000 6.660 -64.000 0.088 0.184 0.097
v 32.000 6.537 -56.000 0.194 0.242 0.171
v 40.000 7.974 -56.000 0.209 0.257 0.182
v 40.000 9.462 -64.000 0.092 0.190 0.100
v 48.000 9.791 -64.000 0.100 0.200 0.104
v 48.000 8.229 -56.000 0.208 0.255 0.181
v 56.000 6.632 -56.000 0.104 0.205 0.107
v 56.000 5.075 -64.000 0.100 0.200 0.105
v 64.000 -0.146 -64.000 0.310 0.286 0.165
v 64.000 3.465 -56.000 0.106 0.208 0.108
v 0.000 4.690 -48.000 0.072 0.165 0.089
v 8.000 4.595 -48.000 0.102 0.190 0.064
v 16.000 3.464 -48.000 0.125 0.220 0.075
v 24.000 3.333 -48.000 0.141 0.238 0.082
v 32.000 3.489 -48.000 0.139 0.234 0.080
v 40.000 3.458 -48.000 0.165 0.260 0.091
v 48.000 3.414 -48.000 0.156 0.249 0.087
v 56.000 3.313 -48.000 0.103 0.206 0.108
v 64.000 1.964 -48.000 0.108 0.211 0.109
v 0.000 9.295 -40.000 0.116 0.120 0.106
v 8.000 7.757 -40.000 0.201 0.262 0.184
v 16.000 4.957 -40.000 0.125 0.217 0.074
v 24.000 4.579 -40.000 0.097 0.203 0.107
v 32.000 2.741 -40.000 0.095 0.198 0.105
v 40.000 1.743 -40.000 0.106 0.216 0.113
v 48.000 1.507 -40.000 0.159 0.250 0.087
v 56.000 0.968 -40.000 0.391 0.363 0.211
v 64.000 1.235 -40.000 0.112 0.216 0.112
v 0.000 15.492 -32.000 0.143 0.149 0.131
v 8.000 14.164 -32.000 0.155 0.162 0.142
v 16.000 3.415 -32.000 0.105 0.213 0.111
v 24.000 3.253 -32.000 0.090 0.188 0.099
v 32.000 3.100 -32.000 0.095 0.194 0.102
v 40.000 1.142 -32.000 0.320 0.296 0.172
v 48.000 1.494 -32.000 0.108 0.217 0.114
v 56.000 0.625 -32.000 0.326 0.302 0.175
v 64.000 0.532 -32.000 0.337 0.314 0.183
v 0.000 25.459 -24.000 0.164 0.172 0.150
v 8.000 23.705 -24.000 0.157 0.164 0.143
v 16.000 3.293 -24.000 0.101 0.204 0.107
v 24.000 3.037 -24.000 0.098 0.197 0.103
v 32.000 2.750 -24.000 0.095 0.194 0.102
v 40.000 2.667 -24.000 0.102 0.202 0.106
v 48.000 2.987 -24.000 0.095 0.194 0.102
v 56.000 0.758 -24.000 0.308 0.284 0.164
v 64.000 -0.314 -24.000 0.299 0.275 0.158
v 0.000 35.358 -16.000 0.223 0.209 0.191
v 8.000 33.785 -16.000 0.171 0.178 0.156
v 16.000 4.706 -16.000 0.105 0.212 0.111
v 24.000 3.253 -16.000 0.095 0.194 0.102
v 32.000 3.092 -16.000 0.090 0.187 0.099
v 40.000 1.997 -16.000 0.090 0.187 0.099
v 48.000 1.087 -16.000 0.291 0.267 0.153
v 56.000 3.505 -16.000 0.085 0.181 0.096
v 64.000 3.299 -16.000 0.093 0.191 0.101
v 0.000 24.214 -8.000 0.251 0.235 0.214
v 8.000 28.868 -8.000 0.192 0.200 0.175
v 16.000 32.039 -8.000 0.153 0.160 0.140
v 24.000 22.409 -8.000 0.119 0.124 0.109
v 32.000 12.759 -8.000 0.125 0.130 0.114
v 40.000 7.873 -8.000 0.095 0.198 0.104
v 48.000 4.546 -8.000 0.088 0.186 0.099
v 56.000 2.794 -8.000 0.116 0.200 0.068
v 64.000 2.738 -8.000 0.154 0.245 0.085
v 0.000 13.007 0.000 0.257 0.241 0.219
v 8.000 22.606 0.000 0.223 0.209 0.191
v 16.000 30.396 0.000 0.166 0.173 0.152
v 24.000 22.258 0.000 0.149 0.155 0.136
v 32.000 12.866 0.000 0.158 0.164 0.144
v 40.000 6.482 0.000 0.210 0.266 0.188
v 48.000 3.215 0.000 0.147 0.243 0.084
v 56.000 1.685 0.000 0.164 0.264 0.091
v 64.000 1.876 0.000 0.206 0.289 0.105

vt 0.500000 0.633333
vt 0.500000 0.616667
vt 0.516667 0.616667
vt 0.516667 0.633333
vt 0.533333 0.633333
vt 0.533333 0.616667
vt 0.550000 0.616667
vt 0.550000 0.633333
vt 0.566667 0.633333
vt 0.566667 0.616667
vt 0.583333 0.616667
vt 0.583333 0.633333
vt 0.600000 0.633333
vt 0.600000 0.616667
vt 0.616667 0.616667
vt 0.616667 0.633333
vt 0.633333 0.633333
vt 0.633333 0.616667
vt 0.500000 0.600000
vt 0.516667 0.600000
vt 0.533333 0.600000
vt 0.550000 0.600000
vt 0.566667 0.600000
vt 0.583333 0.600000
vt 0.600000 0.600000
vt 0.616667 0.600000
vt 0.633333 0.600000
vt 0.500000 0.583333
vt 0.516667 0.583333
vt 0.533333 0.583333
vt 0.550000 0.583333
vt 0.566667 0.583333
vt 0.583333 0.583333
vt 0.600000 0.583333
vt 0.616667 0.583333
vt 0.633333 0.583333
vt 0.500000 0.566667
vt 0.516667 0.566667
vt 0.533333 0.566667
vt 0.550000 0.566667
vt 0.566667 0.566667
vt 0.583333 0.566667
vt 0.600000 0.566667
vt 0.616667 0.566667
vt 0.633333 0.566667
vt 0.500000 0.550000
vt 0.516667 0.550000
vt 0.533333 0.550000
vt 0.550000 0.550000
vt 0.566667 0.550000
vt 0.583333 0.550000
vt 0.600000 0.550000
vt 0.616667 0.550000
vt 0.633333 0.550000
vt 0.500000 0.533333
vt 0.516667 0.533333
vt 0.533333 0.533333
vt 0.550000 0.533333
vt 0.566667 0.533333
vt 0.583333 0.533333
vt 0.600000 0.533333
vt 0.616667 0.533333
vt 0.633333 0.533333
vt 0.500000 0.516667
vt 0.516667 0.516667
vt 0.533333 0.516667
vt 0.550000 0.516667
vt 0.566667 0.516667
vt 0.583333 0.516667
vt 0.600000 0.516667
vt 0.616667 0.516667
vt 0.633333 0.516667
vt 0.500000 0.500000
vt 0.516667 0.500000
vt 0.533333 0.500000
vt 0.550000 0.500000
vt 0.566667 0.500000
vt 0.583333 0.500000
vt 0.600000 0.500000
vt 0.616667 0.500000
vt 0.633333 0.500000

vn -0.04641 0.98983 -0.13448
vn -0.04732 0.98106 -0.18783
vn -0.01882 0.99030 -0.13766
vn -0.07488 0.98794 -0.13555
vn -0.12685 0.99007 -0.06058
vn -0.09039 0.99515 -0.03886
vn -0.15814 0.98423 0.07928
vn -0.23224 0.97259 0.01165
vn -0.24944 0.96681 0.05532
vn -0.20589 0.95990 0.19025
vn -0.09495 0.94341 0.31775
vn -0.18892 0.96543 0.17960
vn 0.17544 0.98004 0.09355
vn 0.07766 0.92612 0.36914
vn 0.30858 0.94422 0.11497
vn 0.52053 0.83812 -0.16311
vn 0.44643 0.85150 -0.27504
vn 0.36536 0.92288 -0.12170
vn 0.03952 0.94257 -0.33167
vn 0.07335 0.95739 -0.27932
vn 0.06572 0.99016 -0.12351
vn -0.00154 1.00000 -0.00232
vn -0.01291 0.97750 0.21053
vn 0.00438 0.93182 0.36289
vn 0.03497 0.92920 0.36791
vn 0.08511 0.93925 0.33252
vn 0.16742 0.95719 0.23613
vn 0.15737 0.81846 -0.55259
vn 0.29712 0.86514 -0.40405
vn 0.19481 0.98084 0.00302
vn 0.07356 0.99725 0.00935
vn 0.17450 0.98437 0.02395
vn 0.06432 0.99211 0.10761
vn 0.04804 0.99174 0.11896
vn 0.04570 0.98980 0.13496
vn -0.03333 0.99547 0.08905
vn 0.13013 0.69987 -0.70232
vn 0.47147 0.62460 -0.62257
vn 0.57516 0.80605 -0.13954
vn 0.01962 0.99519 0.09594
vn 0.11528 0.99329 0.00931
vn 0.09966 0.99336 -0.05742
vn 0.05792 0.99668 -0.05723
vn 0.06000 0.99811 0.01309
vn 0.03084 0.99802 0.05488
vn 0.13625 0.62141 -0.77155
vn 0.70330 0.51701 -0.48793
vn 0.78978 0.61140 -0.04933
vn 0.04705 0.99869 -0.02003
vn 0.02307 0.99973 0.00046
vn 0.04894 0.99860 -0.02022
vn 0.11848 0.99264 0.02526
vn 0.08269 0.98865 -0.12542
vn 0.13091 0.97690 -0.16892
vn 0.00764 0.99255 -0.12156
vn 0.87677 0.45766 -0.14770
vn 0.64662 0.46924 -0.60142
vn 0.06409 0.63550 -0.76944
vn 0.21790 0.80075 -0.55797
vn 0.11833 0.94425 -0.30724
vn 0.06118 0.98530 -0.15950
vn -0.13587 0.98280 -0.12510
vn 0.04744 0.98648 -0.15689
vn -0.32073 0.55132 0.77018
vn -0.03572 0.95796 0.28468
vn 0.20873 0.51702 -0.83013
vn 0.50955 0.56515 -0.64881
vn 0.61270 0.67444 -0.41198
vn 0.38501 0.87744 -0.28614
vn 0.30017 0.94556 -0.12576
vn 0.04276 0.99804 0.04577
vn 0.00696 0.99604 0.08860
vn -0.51556 0.57873 0.63187
vn -0.65021 0.59828 0.46828
vn 0.19950 0.93776 0.28425
vn 0.73854 0.67409 0.01268
vn 0.68738 0.72567 0.03014
vn 0.51085 0.84695 0.14735
vn 0.29146 0.94437 0.15235
vn 0.08264 0.98713 0.13692
vn -0.00839 0.99245 0.12233

f 1/1/1 2/2/2 3/3/3
f 1/1/1 3/3/3 4/4/4
f 4/4/4 3/3/3 5/5/5
f 5/5/5 3/3/3 6/6/6
f 5/5/5 6/6/6 7/7/7
f 5/5/5 7/7/7 8/8/8
f 8/8/8 7/7/7 9/9/9
f 9/9/9 7/7/7 10/10/10
f 9/9/9 10/10/10 11/11/11
f 9/9/9 11/11/11 12/12/12
f 12/12/12 11/11/11 13/13/13
f 13/13/13 11/11/11 14/14/14
f 13/13/13 14/14/14 15/15/15
f 13/13/13 15/15/15 16/16/16
f 16/16/16 15/15/15 17/17/17
f 17/17/17 15/15/15 18/18/18
f 2/2/2 19/19/19 3/3/3
f 3/3/3 19/19/19 20/20/20
f 3/3/3 20/20/20 21/21/21
f 3/3/3 21/21/21 6/6/6
f 6/6/6 21/21/21 7/7/7
f 7/7/7 21/21/21 22/22/22
f 7/7/7 22/22/22 23/23/23
f 7/7/7 23/23/23 10/10/10
f 10/10/10 23/23/23 11/11/11
f 11/11/11 23/23/23 24/24/24
f 11/11/11 24/24/24 25/25/25
f 11/11/11 25/25/25 14/14/14
f 14/14/14 25/25/25 15/15/15
f 15/15/15 25/25/25 26/26/26
f 15/15/15 26/26/26 27/27/27
f 15/15/15 27/27/27 18/18/18
f 19/19/19 28/28/28 29/29/29
f 19/19/19 29/29/29 20/20/20
f 20/20/20 29/29/29 21/21/21
f 21/21/21 29/29/29 30/30/30
f 21/21/21 30/30/30 31/31/31
f 21/21/21 31/31/31 22/22/22
f 22/22/22 31/31/31 23/23/23
f 23/23/23 31/31/31 32/32/32
f 23/23/23 32/32/32 33/33/33
f 23/23/23 33/33/33 24/24/24
f 24/24/24 33/33/33 25/25/25
f 25/25/25 33/33/33 34/34/34
f 25/25/25 34/34/34 35/35/35
f 25/25/25 35/35/35 26/26/26
f 26/26/26 35/35/35 27/27/27
f 27/27/27 35/35/35 36/36/36
f 28/28/28 37/37/37 29/29/29
f 29/29/29 37/37/37 38/38/38
f 29/29/29 38/38/38 39/39/39
f 29/29/29 39/39/39 30/30/30
f 30/30/30 39/39/39 31/31/31
f 31/31/31 39/39/39 40/40/40
f 31/31/31 40/40/40 41/41/41
f 31/31/31 41/41/41 32/32/32
f 32/32/32 41/41/41 33/33/33
f 33/33/33 41/41/41 42/42/42
f 33/33/33 42/42/42 43/43/43
f 33/33/33 43/43/43 34/34/34
f 34/34/34 43/43/43 35/35/35
f 35/35/35 43/43/43 44/44/44
f 35/35/35 44/44/44 45/45/45
f 35/35/35 45/45/45 36/36/36
f 37/37/37 46/46/46 47/47/47
f 37/37/37 47/47/47 38/38/38
f 38/38/38 47/47/47 39/39/39
f 39/39/39 47/47/47 48/48/48
f 39/39/39 48/48/48 49/49/49
f 39/39/39 49/49/49 40/40/40
f 40/40/40 49/49/49 41/41/41
f 41/41/41 49/49/49 50/50/50
f 41/41/41 50/50/50 51/51/51
f 41/41/41 51/51/51 42/42/42
f 42/42/42 51/51/51 43/43/43
f 43/43/43 51/51/51 52/52/52
f 43/43/43 52/52/52 53/53/53
f 43/43/43 53/53/53 44/44/44
f 44/44/44 53/53/53 45/45/45
f 45/45/45 53/53/53 54/54/54
f 46/46/46 55/55/55 47/47/47
f 47/47/47 55/55/55 56/56/56
f 47/47/47 56/56/56 57/57/57
f 47/47/47 57/57/57 48/48/48
f 48/48/48 57/57/57 49/49/49
f 49/49/49 57/57/57 58/58/58
f 49/49/49 58/58/58 59/59/59
f 49/49/49 59/59/59 50/50/50
f 50/50/50 59/59/59 51/51/51
f 51/51/51 59/59/59 60/60/60
f 51/51/51 60/60/60 61/61/61
f 51/51/51 61/61/61 52/52/52
f 52/52/52 61/61/61 53/53/53
f 53/53/53 61/61/61 62/62/62
f 53/53/53 62/62/62 63/63/63
f 53/53/53 63/63/63 54/54/54
f 55/55/55 64/64/64 65/65/65
f 55/55/55 65/65/65 56/56/56
f 56/56/56 65/65/65 57/57/57
f 57/57/57 65/65/65 66/66/66
f 57/57/57 66/66/66 67/67/67
f 57/57/57 67/67/67 58/58/58
f 58/58/58 67/67/67 59/59/59
f 59/59/59 67/67/67 68/68/68
f 59/59/59 68/68/68 69/69/69
f 59/59/59 69/69/69 60/60/60
f 60/60/60 69/69/69 61/61/61
f 61/61/61 69/69/69 70/70/70
f 61/61/61 70/70/70 71/71/71
f 61/61/61 71/71/71 62/62/62
f 62/62/62 71/71/71 63/63/63
f 63/63/63 71/71/71 72/72/72
f 64/64/64 73/73/73 65/65/65
f 65/65/65 73/73/73 74/74/74
f 65/65/65 74/74/74 75/75/75
f 65/65/65 75/75/75 66/66/66
f 66/66/66 75/75/75 67/67/67
f 67/67/67 75/75/75 76/76/76
f 67/67/67 76/76/76 77/77/77
f 67/67/67 77/77/77 68/68/68
f 68/68/68 77/77/77 69/69/69
f 69/69/69 77/77/77 78/78/78
f 69/69/69 78/78/78 79/79/79
f 69/69/69 79/79/79 70/70/70
f 70/70/70 79/79/79 71/71/71
f 71/71/71 79/79/79 80/80/80
f 71/71/71 80/80/80 81/81/81
f 71/71/71 81/81/81 72/72/72
