# Generated by tools/generate_island.py. Do not edit by hand.
o terrain_lod2_-4_3

v -512.000 -3.863 384.000 0.563 0.534 0.317
v -512.000 -4.608 400.000 0.547 0.518 0.306
v -496.000 -3.399 400.000 0.538 0.509 0.300
v -496.000 -3.366 384.000 0.542 0.513 0.303
v -480.000 -2.972 384.000 0.557 0.528 0.313
v -480.000 -3.208 400.000 0.544 0.515 0.305
v -464.000 -3.224 400.000 0.552 0.523 0.309
v -464.000 -2.939 384.000 0.555 0.526 0.312
v -448.000 -2.008 384.000 0.525 0.495 0.292
v -448.000 -2.502 400.000 0.568 0.540 0.320
v -432.000 -2.385 400.000 0.498 0.467 0.274
v -432.000 -1.660 384.000 0.488 0.457 0.267
v -416.000 -2.203 384.000 0.434 0.401 0.232
v -416.000 -2.175 400.000 0.457 0.425 0.247
v -400.000 -1.557 400.000 0.435 0.403 0.233
v -400.000 -2.001 384.000 0.458 0.426 0.248
v -384.000 -1.299 384.000 0.453 0.421 0.244
v -384.000 -1.998 400.000 0.452 0.420 0.244
v -512.000 -4.775 416.000 0.491 0.460 0.269
v -496.000 -4.401 416.000 0.493 0.462 0.271
v -480.000 -4.361 416.000 0.521 0.491 0.289
v -464.000 -3.393 416.000 0.564 0.535 0.317
v -448.000 -2.690 416.000 0.520 0.490 0.288
v -432.000 -3.051 416.000 0.512 0.481 0.283
v -416.000 -2.669 416.000 0.441 0.409 0.237
v -400.000 -2.403 416.000 0.426 0.393 0.227
v -384.000 -2.422 416.000 0.432 0.400 0.231
v -512.000 -5.202 432.000 0.480 0.448 0.262
v -496.000 -4.988 432.000 0.511 0.480 0.282
v -480.000 -4.484 432.000 0.497 0.466 0.273
v -464.000 -3.698 432.000 0.518 0.488 0.287
v -448.000 -3.667 432.000 0.498 0.467 0.274
v -432.000 -3.512 432.000 0.458 0.426 0.248
v -416.000 -2.841 432.000 0.421 0.388 0.223
v -400.000 -2.938 432.000 0.385 0.350 0.199
v -384.000 -2.959 432.000 0.391 0.357 0.204
v -512.000 -5.631 448.000 0.470 0.438 0.255
v -496.000 -5.711 448.000 0.495 0.464 0.272
v -480.000 -4.908 448.000 0.525 0.495 0.292
v -464.000 -4.217 448.000 0.527 0.497 0.293
v -448.000 -4.157 448.000 0.520 0.490 0.289
v -432.000 -3.473 448.000 0.468 0.437 0.255
v -416.000 -3.239 448.000 0.433 0.401 0.231
v -400.000 -3.629 448.000 0.454 0.422 0.245
v -384.000 -2.933 448.000 0.430 0.397 0.229
v -512.000 -6.851 464.000 0.479 0.448 0.262
v -496.000 -6.257 464.000 0.479 0.448 0.262
v -480.000 -5.092 464.000 0.546 0.517 0.306
v -464.000 -4.820 464.000 0.555 0.526 0.312
v -448.000 -4.640 464.000 0.566 0.538 0.319
v -432.000 -3.938 464.000 0.517 0.487 0.286
v -416.000 -3.978 464.000 0.434 0.402 0.232
v -400.000 -3.833 464.000 0.468 0.436 0.254
v -384.000 -2.968 464.000 0.460 0.429 0.249
v -512.000 -7.349 480.000 0.426 0.393 0.226
v -496.000 -6.628 480.000 0.484 0.452 0.265
v -480.000 -6.097 480.000 0.520 0.490 0.288
v -464.000 -5.804 480.000 0.535 0.505 0.298
v -448.000 -4.687 480.000 0.554 0.525 0.311
v -432.000 -4.194 480.000 0.520 0.490 0.288
v -416.000 -4.808 480.000 0.433 0.400 0.231
v -400.000 -4.425 480.000 0.478 0.447 0.261
v -384.000 -3.585 480.000 0.509 0.478 0.281
v -512.000 -8.194 496.000 0.412 0.378 0.217
v -496.000 -7.060 496.000 0.460 0.428 0.249
v -480.000 -6.770 496.000 0.479 0.448 0.262
v -464.000 -6.392 496.000 0.545 0.516 0.305
v -448.000 -5.514 496.000 0.542 0.512 0.303
v -432.000 -5.347 496.000 0.529 0.499 0.294
v -416.000 -4.956 496.000 0.433 0.400 0.231
v -400.000 -4.437 496.000 0.498 0.467 0.274
v -384.000 -4.497 496.000 0.487 0.456 0.267
v -512.000 -8.263 512.000 0.455 0.423 0.246
v -496.000 -7.875 512.000 0.454 0.422 0.245
v -480.000 -7.706 512.000 0.470 0.439 0.256
v -464.000 -6.828 512.000 0.501 0.470 0.276
v -448.000 -6.233 512.000 0.557 0.529 0.313
v -432.000 -6.023 512.000 0.518 0.488 0.287
v -416.000 -5.467 512.000 0.459 0.427 0.248
v -400.000 -5.366 512.000 0.433 0.400 0.231
v -384.000 -5.316 512.000 0.475 0.443 0.259

vt 0.233333 0.300000
vt 0.233333 0.291667
vt 0.241667 0.291667
vt 0.241667 0.300000
vt 0.250000 0.300000
vt 0.250000 0.291667
vt 0.258333 0.291667
vt 0.258333 0.300000
vt 0.266667 0.300000
vt 0.266667 0.291667
vt 0.275000 0.291667
vt 0.275000 0.300000
vt 0.283333 0.300000
vt 0.283333 0.291667
vt 0.291667 0.291667
vt 0.291667 0.300000
vt 0.300000 0.300000
vt 0.300000 0.291667
vt 0.233333 0.283333
vt 0.241667 0.283333
vt 0.250000 0.283333
vt 0.258333 0.283333
vt 0.266667 0.283333
vt 0.275000 0.283333
vt 0.283333 0.283333
vt 0.291667 0.283333
vt 0.300000 0.283333
vt 0.233333 0.275000
vt 0.241667 0.275000
vt 0.250000 0.275000
vt 0.258333 0.275000
vt 0.266667 0.275000
vt 0.275000 0.275000
vt 0.283333 0.275000
vt 0.291667 0.275000
vt 0.300000 0.275000
vt 0.233333 0.266667
vt 0.241667 0.266667
vt 0.250000 0.266667
vt 0.258333 0.266667
vt 0.266667 0.266667
vt 0.275000 0.266667
vt 0.283333 0.266667
vt 0.291667 0.266667
vt 0.300000 0.266667
vt 0.233333 0.258333
vt 0.241667 0.258333
vt 0.250000 0.258333
vt 0.258333 0.258333
vt 0.266667 0.258333
vt 0.275000 0.258333
vt 0.283333 0.258333
vt 0.291667 0.258333
vt 0.300000 0.258333
vt 0.233333 0.250000
vt 0.241667 0.250000
vt 0.250000 0.250000
vt 0.258333 0.250000
vt 0.266667 0.250000
vt 0.275000 0.250000
vt 0.283333 0.250000
vt 0.291667 0.250000
vt 0.300000 0.250000
vt 0.233333 0.241667
vt 0.241667 0.241667
vt 0.250000 0.241667
vt 0.258333 0.241667
vt 0.266667 0.241667
vt 0.275000 0.241667
vt 0.283333 0.241667
vt 0.291667 0.241667
vt 0.300000 0.241667
vt 0.233333 0.233333
vt 0.241667 0.233333
vt 0.250000 0.233333
vt 0.258333 0.233333
vt 0.266667 0.233333
vt 0.275000 0.233333
vt 0.283333 0.233333
vt 0.291667 0.233333
vt 0.300000 0.233333

vn -0.05322 0.99829 0.02427
vn -0.07534 0.99675 0.02842
vn -0.03203 0.99890 0.03410
vn -0.02781 0.99961 0.00203
vn -0.00940 0.99988 0.01231
vn -0.00546 0.99904 0.04335
vn -0.03160 0.99923 0.02325
vn -0.03013 0.99939 0.01776
vn -0.03305 0.99897 0.03120
vn -0.02618 0.99943 0.02129
vn -0.00375 0.99952 0.03068
vn 0.00611 0.99895 0.04530
vn -0.00760 0.99996 0.00350
vn -0.02586 0.99956 0.01455
vn -0.01175 0.99976 0.01869
vn -0.02825 0.99922 -0.02771
vn -0.00817 0.99993 0.00801
vn 0.02754 0.99901 0.03508
vn -0.03392 0.99884 0.03408
vn -0.01292 0.99869 0.04959
vn -0.02715 0.99898 0.03602
vn -0.05216 0.99853 0.01480
vn -0.01335 0.99944 0.03070
vn -0.00064 0.99938 0.03519
vn -0.02106 0.99933 0.02999
vn -0.00771 0.99904 0.04311
vn 0.00780 0.99930 0.03655
vn -0.01341 0.99955 0.02673
vn -0.02009 0.99930 0.03140
vn -0.04027 0.99904 0.01707
vn -0.03165 0.99909 0.02859
vn -0.00580 0.99893 0.04582
vn -0.02024 0.99954 0.02251
vn -0.01792 0.99968 0.01779
vn -0.00249 0.99962 0.02758
vn 0.00126 0.99987 0.01596
vn -0.01014 0.99891 0.04554
vn -0.02257 0.99896 0.03961
vn -0.04457 0.99861 0.02815
vn -0.02343 0.99911 0.03504
vn -0.01996 0.99943 0.02728
vn -0.02869 0.99950 0.01330
vn -0.00287 0.99960 0.02807
vn -0.00955 0.99956 0.02795
vn -0.03493 0.99929 0.01412
vn -0.03708 0.99788 0.05357
vn -0.04284 0.99840 0.03699
vn -0.04481 0.99831 0.03710
vn -0.02392 0.99898 0.03819
vn -0.02755 0.99948 0.01655
vn -0.01657 0.99948 0.02765
vn -0.00327 0.99879 0.04898
vn -0.02770 0.99917 0.02976
vn -0.05400 0.99833 0.02035
vn -0.04945 0.99822 0.03347
vn -0.03908 0.99892 0.02507
vn -0.02927 0.99857 0.04471
vn -0.04396 0.99783 0.04901
vn -0.04016 0.99851 0.03689
vn 0.00377 0.99902 0.04399
vn -0.00432 0.99951 0.03099
vn -0.03818 0.99909 0.01886
vn -0.03877 0.99869 0.03329
vn -0.07066 0.99709 0.02850
vn -0.03632 0.99857 0.03915
vn -0.02084 0.99852 0.05022
vn -0.04208 0.99829 0.04058
vn -0.03259 0.99830 0.04823
vn -0.01375 0.99886 0.04576
vn -0.02841 0.99938 0.02058
vn -0.01788 0.99928 0.03336
vn 0.00374 0.99853 0.05401
vn -0.04749 0.99849 0.02762
vn -0.01738 0.99855 0.05089
vn -0.02676 0.99845 0.04874
vn -0.04597 0.99857 0.02722
vn -0.02886 0.99879 0.03979
vn -0.02392 0.99882 0.04218
vn -0.02445 0.99886 0.04099
vn -0.00470 0.99831 0.05794
vn 0.00031 0.99851 0.05452

f 1/1/1 2/2/2 3/3/3
f 1/1/1 3/3/3 4/4/4
f 4/4/4 3/3/3 5/5/5
f 5/5/5 3/3/3 6/6/6
f 5/5/5 6/6/6 7/7/7
f 5/5/5 7/7/7 8/8/8
f 8/8/8 7/7/7 9/9/9
f 9/9/9 7/7/7 10/10/10
f 9/9/9 10/10/10 11/11/11
f 9/9/9 11/11/11 12/12/12
f 12/12/12 11/11/11 13/13/13
f 13/13/13 11/11/11 14/14/14
f 13/13/13 14/14/14 15/15/15
f 13/13/13 15/15/15 16/16/16
f 16/16/16 15/15/15 17/17/17
f 17/17/17 15/15/15 18/18/18
f 2/2/2 19/19/19 3/3/3
f 3/3/3 19/19/19 20/20/20
f 3/3/3 20/20/20 21/21/21
f 3/3/3 21/21/21 6/6/6
f 6/6/6 21/21/21 7/7/7
f 7/7/7 21/21/21 22/22/22
f 7/7/7 22/22/22 23/23/23
f 7/7/7 23/23/23 10/10/10
f 10/10/10 23/23/23 11/11/11
f 11/11/11 23/23/23 24/24/24
f 11/11/11 24/24/24 25/25/25
f 11/11/11 25/25/25 14/14/14
f 14/14/14 25/25/25 15/15/15
f 15/15/15 25/25/25 26/26/26
f 15/15/15 26/26/26 27/27/27
f 15/15/15 27/27/27 18/18/18
f 19/19/19 28/28/28 29/29/29
f 19/19/19 29/29/29 20/20/20
f 20/20/20 29/29/29 21/21/21
f 21/21/21 29/29/29 30/30/30
f 21/21/21 30/30/30 31/31/31
f 21/21/21 31/31/31 22/22/22
f 22/22/22 31/31/31 23/23/23
f 23/23/23 31/31/31 32/32/32
f 23/23/23 32/32/32 33/33/33
f 23/23/23 33/33/33 24/24/24
f 24/24/24 33/33/33 25/25/25
f 25/25/25 33/33/33 34/34/34
f 25/25/25 34/34/34 35/35/35
f 25/25/25 35/35/35 26/26/26
f 26/26/26 35/35/35 27/27/27
f 27/27/27 35/35/35 36/36/36
f 28/28/28 37/37/37 29/29/29
f 29/29/29 37/37/37 38/38/38
f 29/29/29 38/38/38 39/39/39
f 29/29/29 39/39/39 30/30/30
f 30/30/30 39/39/39 31/31/31
f 31/31/31 39/39/39 40/40/40
f 31/31/31 40/40/40 41/41/41
f 31/31/31 41/41/41 32/32/32
f 32/32/32 41/41/41 33/33/33
f 33/33/33 41/41/41 42/42/42
f 33/33/33 42/42/42 43/43/43
f 33/33/33 43/43/43 34/34/34
f 34/34/34 43/43/43 35/35/35
f 35/35/35 43/43/43 44/44/44
f 35/35/35 44/44/44 45/45/45
f 35/35/35 45/45/45 36/36/36
f 37/37/37 46/46/46 47/47/47
f 37/37/37 47/47/47 38/38/38
f 38/38/38 47/47/47 39/39/39
f 39/39/39 47/47/47 48/48/48
f 39/39/39 48/48/48 49/49/49
f 39/39/39 49/49/49 40/40/40
f 40/40/40 49/49/49 41/41/41
f 41/41/41 49/49/49 50/50/50
f 41/41/41 50/50/50 51/51/51
f 41/41/41 51/51/51 42/42/42
f 42/42/42 51/51/51 43/43/43
f 43/43/43 51/51/51 52/52/52
f 43/43/43 52/52/52 53/53/53
f 43/43/43 53/53/53 44/44/44
f 44/44/44 53/53/53 45/45/45
f 45/45/45 53/53/53 54/54/54
f 46/46/46 55/55/55 47/47/47
f 47/47/47 55/55/55 56/56/56
f 47/47/47 56/56/56 57/57/57
f 47/47/47 57/57/57 48/48/48
f 48/48/48 57/57/57 49/49/49
f 49/49/49 57/57/57 58/58/58
f 49/49/49 58/58/58 59/59/59
f 49/49/49 59/59/59 50/50/50
f 50/50/50 59/59/59 51/51/51
f 51/51/51 59/59/59 60/60/60
f 51/51/51 60/60/60 61/61/61
f 51/51/51 61/61/61 52/52/52
f 52/52/52 61/61/61 53/53/53
f 53/53/53 61/61/61 62/62/62
f 53/53/53 62/62/62 63/63/63
f 53/53/53 63/63/63 54/54/54
f 55/55/55 64/64/64 65/65/65
f 55/55/55 65/65/65 56/56/56
f 56/56/56 65/65/65 57/57/57
f 57/57/57 65/65/65 66/66/66
f 57/57/57 66/66/66 67/67/67
f 57/57/57 67/67/67 58/58/58
f 58/58/58 67/67/67 59/59/59
f 59/59/59 67/67/67 68/68/68
f 59/59/59 68/68/68 69/69/69
f 59/59/59 69/69/69 60/60/60
f 60/60/60 69/69/69 61/61/61
f 61/61/61 69/69/69 70/70/70
f 61/61/61 70/70/70 71/71/71
f 61/61/61 71/71/71 62/62/62
f 62/62/62 71/71/71 63/63/63
f 63/63/63 71/71/71 72/72/72
f 64/64/64 73/73/73 65/65/65
f 65/65/65 73/73/73 74/74/74
f 65/65/65 74/74/74 75/75/75
f 65/65/65 75/75/75 66/66/66
f 66/66/66 75/75/75 67/67/67
f 67/67/67 75/75/75 76/76/76
f 67/67/67 76/76/76 77/77/77
f 67/67/67 77/77/77 68/68/68
f 68/68/68 77/77/77 69/69/69
f 69/69/69 77/77/77 78/78/78
f 69/69/69 78/78/78 79/79/79
f 69/69/69 79/79/79 70/70/70
f 70/70/70 79/79/79 71/71/71
f 71/71/71 79/79/79 80/80/80
f 71/71/71 80/80/80 81/81/81
f 71/71/71 81/81/81 72/72/72
