# Generated by tools/generate_island.py. Do not edit by hand.
o terrain_lod2_-6_2

v -768.000 -10.800 256.000 0.557 0.528 0.313
v -768.000 -10.800 272.000 0.541 0.512 0.303
v -752.000 -10.800 272.000 0.534 0.504 0.298
v -752.000 -10.407 256.000 0.578 0.550 0.327
v -736.000 -10.115 256.000 0.569 0.540 0.321
v -736.000 -10.800 272.000 0.508 0.478 0.281
v -720.000 -9.591 272.000 0.533 0.503 0.297
v -720.000 -9.274 256.000 0.562 0.533 0.316
v -704.000 -7.965 256.000 0.544 0.515 0.305
v -704.000 -8.886 272.000 0.559 0.531 0.314
v -688.000 -8.380 272.000 0.542 0.513 0.303
v -688.000 -7.758 256.000 0.464 0.432 0.252
v -672.000 -7.264 256.000 0.446 0.414 0.240
v -672.000 -7.339 272.000 0.517 0.487 0.287
v -656.000 -6.920 272.000 0.420 0.387 0.223
v -656.000 -6.523 256.000 0.439 0.407 0.235
v -640.000 -6.475 256.000 0.418 0.385 0.221
v -640.000 -6.949 272.000 0.409 0.375 0.215
v -768.000 -10.800 288.000 0.542 0.512 0.303
v -752.000 -10.800 288.000 0.496 0.465 0.273
v -736.000 -10.800 288.000 0.484 0.453 0.265
v -720.000 -10.329 288.000 0.508 0.478 0.281
v -704.000 -9.875 288.000 0.546 0.517 0.306
v -688.000 -8.734 288.000 0.549 0.520 0.308
v -672.000 -7.531 288.000 0.532 0.502 0.296
v -656.000 -7.550 288.000 0.478 0.447 0.261
v -640.000 -7.057 288.000 0.423 0.390 0.224
v -768.000 -10.800 304.000 0.507 0.476 0.280
v -752.000 -10.800 304.000 0.486 0.455 0.266
v -736.000 -10.800 304.000 0.470 0.439 0.256
v -720.000 -10.800 304.000 0.514 0.483 0.284
v -704.000 -10.221 304.000 0.529 0.499 0.294
v -688.000 -9.207 304.000 0.549 0.520 0.308
v -672.000 -8.693 304.000 0.512 0.482 0.283
v -656.000 -8.076 304.000 0.481 0.450 0.263
v -640.000 -6.819 304.000 0.439 0.406 0.235
v -768.000 -10.800 320.000 0.465 0.433 0.252
v -752.000 -10.800 320.000 0.484 0.453 0.265
v -736.000 -10.800 320.000 0.491 0.460 0.270
v -720.000 -10.800 320.000 0.501 0.470 0.276
v -704.000 -10.798 320.000 0.500 0.469 0.275
v -688.000 -9.519 320.000 0.520 0.490 0.288
v -672.000 -9.073 320.000 0.533 0.503 0.297
v -656.000 -8.299 320.000 0.533 0.503 0.297
v -640.000 -7.411 320.000 0.539 0.509 0.301
v -768.000 -10.800 336.000 0.437 0.404 0.234
v -752.000 -10.800 336.000 0.478 0.446 0.261
v -736.000 -10.800 336.000 0.463 0.431 0.251
v -720.000 -10.800 336.000 0.478 0.447 0.261
v -704.000 -10.800 336.000 0.515 0.485 0.286
v -688.000 -10.330 336.000 0.494 0.463 0.271
v -672.000 -9.754 336.000 0.509 0.479 0.281
v -656.000 -8.348 336.000 0.501 0.471 0.276
v -640.000 -7.824 336.000 0.547 0.518 0.306
v -768.000 -10.800 352.000 0.435 0.403 0.233
v -752.000 -10.800 352.000 0.452 0.420 0.244
v -736.000 -10.800 352.000 0.421 0.388 0.223
v -720.000 -10.800 352.000 0.513 0.483 0.284
v -704.000 -10.800 352.000 0.540 0.510 0.302
v -688.000 -10.800 352.000 0.517 0.487 0.286
v -672.000 -9.778 352.000 0.497 0.466 0.274
v -656.000 -8.887 352.000 0.479 0.448 0.262
v -640.000 -8.687 352.000 0.469 0.438 0.255
v -768.000 -10.800 368.000 0.437 0.404 0.234
v -752.000 -10.800 368.000 0.386 0.352 0.200
v -736.000 -10.800 368.000 0.437 0.405 0.234
v -720.000 -10.800 368.000 0.460 0.429 0.249
v -704.000 -10.800 368.000 0.528 0.499 0.294
v -688.000 -10.800 368.000 0.483 0.451 0.264
v -672.000 -10.210 368.000 0.495 0.465 0.272
v -656.000 -9.632 368.000 0.502 0.471 0.277
v -640.000 -8.855 368.000 0.456 0.424 0.247
v -768.000 -10.800 384.000 0.440 0.408 0.236
v -752.000 -10.800 384.000 0.377 0.343 0.194
v -736.000 -10.800 384.000 0.375 0.341 0.193
v -720.000 -10.800 384.000 0.419 0.386 0.222
v -704.000 -10.800 384.000 0.495 0.464 0.272
v -688.000 -10.800 384.000 0.518 0.488 0.288
v -672.000 -10.379 384.000 0.524 0.495 0.291
v -656.000 -10.098 384.000 0.477 0.446 0.261
v -640.000 -9.262 384.000 0.464 0.432 0.252

vt 0.100000 0.366667
vt 0.100000 0.358333
vt 0.108333 0.358333
vt 0.108333 0.366667
vt 0.116667 0.366667
vt 0.116667 0.358333
vt 0.125000 0.358333
vt 0.125000 0.366667
vt 0.133333 0.366667
vt 0.133333 0.358333
vt 0.141667 0.358333
vt 0.141667 0.366667
vt 0.150000 0.366667
vt 0.150000 0.358333
vt 0.158333 0.358333
vt 0.158333 0.366667
vt 0.166667 0.366667
vt 0.166667 0.358333
vt 0.100000 0.350000
vt 0.108333 0.350000
vt 0.116667 0.350000
vt 0.125000 0.350000
vt 0.133333 0.350000
vt 0.141667 0.350000
vt 0.150000 0.350000
vt 0.158333 0.350000
vt 0.166667 0.350000
vt 0.100000 0.341667
vt 0.108333 0.341667
vt 0.116667 0.341667
vt 0.125000 0.341667
vt 0.133333 0.341667
vt 0.141667 0.341667
vt 0.150000 0.341667
vt 0.158333 0.341667
vt 0.166667 0.341667
vt 0.100000 0.333333
vt 0.108333 0.333333
vt 0.116667 0.333333
vt 0.125000 0.333333
vt 0.133333 0.333333
vt 0.141667 0.333333
vt 0.150000 0.333333
vt 0.158333 0.333333
vt 0.166667 0.333333
vt 0.100000 0.325000
vt 0.108333 0.325000
vt 0.116667 0.325000
vt 0.125000 0.325000
vt 0.133333 0.325000
vt 0.141667 0.325000
vt 0.150000 0.325000
vt 0.158333 0.325000
vt 0.166667 0.325000
vt 0.100000 0.316667
vt 0.108333 0.316667
vt 0.116667 0.316667
vt 0.125000 0.316667
vt 0.133333 0.316667
vt 0.141667 0.316667
vt 0.150000 0.316667
vt 0.158333 0.316667
vt 0.166667 0.316667
vt 0.100000 0.308333
vt 0.108333 0.308333
vt 0.116667 0.308333
vt 0.125000 0.308333
vt 0.133333 0.308333
vt 0.141667 0.308333
vt 0.150000 0.308333
vt 0.158333 0.308333
vt 0.166667 0.308333
vt 0.100000 0.300000
vt 0.108333 0.300000
vt 0.116667 0.300000
vt 0.125000 0.300000
vt 0.133333 0.300000
vt 0.141667 0.300000
vt 0.150000 0.300000
vt 0.158333 0.300000
vt 0.166667 0.300000

vn -0.01228 0.99985 0.01228
vn 0.00000 1.00000 0.00000
vn -0.00535 0.99992 0.01149
vn -0.02138 0.99947 0.02455
vn -0.03655 0.99881 0.03244
vn -0.03776 0.99906 0.02137
vn -0.05382 0.99788 0.03668
vn -0.06704 0.99756 0.01973
vn -0.04253 0.99815 0.04337
vn -0.03773 0.99751 0.05953
vn -0.04789 0.99833 0.03220
vn -0.02190 0.99901 0.03885
vn -0.04207 0.99895 0.01828
vn -0.04557 0.99893 0.00833
vn -0.01595 0.99962 0.02268
vn -0.02464 0.99939 0.02486
vn -0.00059 0.99963 0.02725
vn 0.00179 0.99983 0.01820
vn 0.00000 1.00000 0.00000
vn 0.00000 1.00000 0.00000
vn -0.01680 0.99981 0.00945
vn -0.02888 0.99887 0.03775
vn -0.04675 0.99823 0.03670
vn -0.07304 0.99700 0.02577
vn -0.03868 0.99858 0.03659
vn -0.01478 0.99924 0.03607
vn -0.03456 0.99927 0.01601
vn 0.00000 1.00000 0.00000
vn 0.00000 1.00000 0.00000
vn 0.00000 1.00000 0.00000
vn -0.01629 0.99976 0.01456
vn -0.04969 0.99835 0.02880
vn -0.05554 0.99796 0.03147
vn -0.03530 0.99822 0.04813
vn -0.04590 0.99860 0.02648
vn -0.07829 0.99687 0.01102
vn 0.00000 1.00000 0.00000
vn 0.00000 1.00000 0.00000
vn 0.00000 1.00000 0.00000
vn -0.00006 1.00000 0.00000
vn -0.03610 0.99919 0.01781
vn -0.05378 0.99794 0.03502
vn -0.04334 0.99868 0.02745
vn -0.05187 0.99862 0.00850
vn -0.05547 0.99826 0.01992
vn 0.00000 1.00000 0.00000
vn 0.00000 1.00000 0.00000
vn 0.00000 1.00000 0.00000
vn -0.00002 1.00000 0.00002
vn -0.01468 0.99989 0.00006
vn -0.03776 0.99896 0.02550
vn -0.06181 0.99785 0.02196
vn -0.05159 0.99837 0.02462
vn -0.03270 0.99867 0.03981
vn 0.00000 1.00000 0.00000
vn 0.00000 1.00000 0.00000
vn 0.00000 1.00000 0.00000
vn 0.00000 1.00000 0.00000
vn -0.00367 0.99999 0.00367
vn -0.03193 0.99938 0.01467
vn -0.05440 0.99830 0.02079
vn -0.03404 0.99862 0.04007
vn -0.02657 0.99899 0.03613
vn 0.00000 1.00000 0.00000
vn 0.00000 1.00000 0.00000
vn 0.00000 1.00000 0.00000
vn 0.00000 1.00000 0.00000
vn 0.00000 1.00000 0.00000
vn -0.02049 0.99978 0.00470
vn -0.03647 0.99916 0.01878
vn -0.03838 0.99887 0.02808
vn -0.04849 0.99866 0.01794
vn 0.00000 1.00000 0.00000
vn 0.00000 1.00000 0.00000
vn 0.00000 1.00000 0.00000
vn 0.00000 1.00000 0.00000
vn 0.00000 1.00000 0.00000
vn -0.01316 0.99991 0.00000
vn -0.02920 0.99949 0.01256
vn -0.03488 0.99897 0.02912
vn -0.05034 0.99836 0.02723

f 1/1/1 2/2/2 3/3/3
f 1/1/1 3/3/3 4/4/4
f 4/4/4 3/3/3 5/5/5
f 5/5/5 3/3/3 6/6/6
f 5/5/5 6/6/6 7/7/7
f 5/5/5 7/7/7 8/8/8
f 8/8/8 7/7/7 9/9/9
f 9/9/9 7/7/7 10/10/10
f 9/9/9 10/10/10 11/11/11
f 9/9/9 11/11/11 12/12/12
f 12/12/12 11/11/11 13/13/13
f 13/13/13 11/11/11 14/14/14
f 13/13/13 14/14/14 15/15/15
f 13/13/13 15/15/15 16/16/16
f 16/16/16 15/15/15 17/17/17
f 17/17/17 15/15/15 18/18/18
f 2/2/2 19/19/19 3/3/3
f 3/3/3 19/19/19 20/20/20
f 3/3/3 20/20/20 21/21/21
f 3/3/3 21/21/21 6/6/6
f 6/6/6 21/21/21 7/7/7
f 7/7/7 21/21/21 22/22/22
f 7/7/7 22/22/22 23/23/23
f 7/7/7 23/23/23 10/10/10
f 10/10/10 23/23/23 11/11/11
f 11/11/11 23/23/23 24/24/24
f 11/11/11 24/24/24 25/25/25
f 11/11/11 25/25/25 14/14/14
f 14/14/14 25/25/25 15/15/15
f 15/15/15 25/25/25 26/26/26
f 15/15/15 26/26/26 27/27/27
f 15/15/15 27/27/27 18/18/18
f 19/19/19 28/28/28 29/29/29
f 19/19/19 29/29/29 20/20/20
f 20/20/20 29/29/29 21/21/21
f 21/21/21 29/29/29 30/30/30
f 21/21/21 30/30/30 31/31/31
f 21/21/21 31/31/31 22/22/22
f 22/22/22 31/31/31 23/23/23
f 23/23/23 31/31/31 32/32/32
f 23/23/23 32/32/32 33/33/33
f 23/23/23 33/33/33 24/24/24
f 24/24/24 33/33/33 25/25/25
f 25/25/25 33/33/33 34/34/34
f 25/25/25 34/34/34 35/35/35
f 25/25/25 35/35/35 26/26/26
f 26/26/26 35/35/35 27/27/27
f 27/27/27 35/35/35 36/36/36
f 28/28/28 37/37/37 29/29/29
f 29/29/29 37/37/37 38/38/38
f 29/29/29 38/38/38 39/39/39
f 29/29/29 39/39/39 30/30/30
f 30/30/30 39/39/39 31/31/31
f 31/31/31 39/39/39 40/40/40
f 31/31/31 40/40/40 41/41/41
f 31/31/31 41/41/41 32/32/32
f 32/32/32 41/41/41 33/33/33
f 33/33/33 41/41/41 42/42/42
f 33/33/33 42/42/42 43/43/43
f 33/33/33 43/43/43 34/34/34
f 34/34/34 43/43/43 35/35/35
f 35/35/35 43/43/43 44/44/44
f 35/35/35 44/44/44 45/45/45
f 35/35/35 45/45/45 36/36/36
f 37/37/37 46/46/46 47/47/47
f 37/37/37 47/47/47 38/38/38
f 38/38/38 47/47/47 39/39/39
f 39/39/39 47/47/47 48/48/48
f 39/39/39 48/48/48 49/49/49
f 39/39/39 49/49/49 40/40/40
f 40/40/40 49/49/49 41/41/41
f 41/41/41 49/49/49 50/50/50
f 41/41/41 50/50/50 51/51/51
f 41/41/41 51/51/51 42/42/42
f 42/42/42 51/51/51 43/43/43
f 43/43/43 51/51/51 52/52/52
f 43/43/43 52/52/52 53/53/53
f 43/43/43 53/53/53 44/44/44
f 44/44/44 53/53/53 45/45/45
f 45/45/45 53/53/53 54/54/54
f 46/46/46 55/55/55 47/47/47
f 47/47/47 55/55/55 56/56/56
f 47/47/47 56/56/56 57/57/57
f 47/47/47 57/57/57 48/48/48
f 48/48/48 57/57/57 49/49/49
f 49/49/49 57/57/57 58/58/58
f 49/49/49 58/58/58 59/59/59
f 49/49/49 59/59/59 50/50/50
f 50/50/50 59/59/59 51/51/51
f 51/51/51 59/59/59 60/60/60
f 51/51/51 60/60/60 61/61/61
f 51/51/51 61/61/61 52/52/52
f 52/52/52 61/61/61 53/53/53
f 53/53/53 61/61/61 62/62/62
f 53/53/53 62/62/62 63/63/63
f 53/53/53 63/63/63 54/54/54
f 55/55/55 64/64/64 65/65/65
f 55/55/55 65/65/65 56/56/56
f 56/56/56 65/65/65 57/57/57
f 57/57/57 65/65/65 66/66/66
f 57/57/57 66/66/66 67/67/67
f 57/57/57 67/67/67 58/58/58
f 58/58/58 67/67/67 59/59/59
f 59/59/59 67/67/67 68/68/68
f 59/59/59 68/68/68 69/69/69
f 59/59/59 69/69/69 60/60/60
f 60/60/60 69/69/69 61/61/61
f 61/61/61 69/69/69 70/70/70
f 61/61/61 70/70/70 71/71/71
f 61/61/61 71/71/71 62/62/62
f 62/62/62 71/71/71 63/63/63
f 63/63/63 71/71/71 72/72/72
f 64/64/64 73/73/73 65/65/65
f 65/65/65 73/73/73 74/74/74
f 65/65/65 74/74/74 75/75/75
f 65/65/65 75/75/75 66/66/66
f 66/66/66 75/75/75 67/67/67
f 67/67/67 75/75/75 76/76/76
f 67/67/67 76/76/76 77/77/77
f 67/67/67 77/77/77 68/68/68
f 68/68/68 77/77/77 69/69/69
f 69/69/69 77/77/77 78/78/78
f 69/69/69 78/78/78 79/79/79
f 69/69/69 79/79/79 70/70/70
f 70/70/70 79/79/79 71/71/71
f 71/71/71 79/79/79 80/80/80
f 71/71/71 80/80/80 81/81/81
f 71/71/71 81/81/81 72/72/72
