# Generated by tools/generate_island.py. Do not edit by hand.
o terrain_lod2_-2_1

v -256.000 0.738 128.000 0.414 0.381 0.219
v -256.000 1.546 144.000 0.479 0.448 0.262
v -240.000 0.897 144.000 0.465 0.433 0.252
v -240.000 1.459 128.000 0.370 0.335 0.190
v -224.000 -0.633 128.000 0.393 0.359 0.205
v -224.000 2.073 144.000 0.193 0.279 0.101
v -208.000 2.178 144.000 0.206 0.289 0.105
v -208.000 0.268 128.000 0.442 0.409 0.237
v -192.000 1.368 128.000 0.504 0.474 0.278
v -192.000 1.616 144.000 0.460 0.428 0.249
v -176.000 1.592 144.000 0.449 0.417 0.242
v -176.000 1.705 128.000 0.255 0.327 0.122
v -160.000 1.743 128.000 0.235 0.311 0.115
v -160.000 1.895 144.000 0.200 0.285 0.103
v -144.000 0.506 144.000 0.430 0.397 0.229
v -144.000 1.487 128.000 0.412 0.378 0.217
v -128.000 -0.081 128.000 0.385 0.350 0.199
v -128.000 0.913 144.000 0.389 0.355 0.203
v -256.000 1.989 160.000 0.305 0.366 0.138
v -240.000 2.163 160.000 0.300 0.363 0.137
v -224.000 2.295 160.000 0.292 0.356 0.134
v -208.000 1.955 160.000 0.219 0.299 0.110
v -192.000 -0.106 160.000 0.380 0.346 0.196
v -176.000 0.196 160.000 0.389 0.355 0.202
v -160.000 0.291 160.000 0.361 0.326 0.184
v -144.000 -0.222 160.000 0.368 0.333 0.188
v -128.000 0.467 160.000 0.427 0.394 0.227
v -256.000 1.742 176.000 0.308 0.369 0.139
v -240.000 2.019 176.000 0.310 0.370 0.140
v -224.000 2.415 176.000 0.310 0.370 0.140
v -208.000 1.700 176.000 0.225 0.304 0.112
v -192.000 0.597 176.000 0.396 0.362 0.207
v -176.000 0.789 176.000 0.364 0.330 0.186
v -160.000 -0.282 176.000 0.366 0.332 0.187
v -144.000 -0.707 176.000 0.361 0.326 0.184
v -128.000 0.059 176.000 0.431 0.398 0.230
v -256.000 1.132 192.000 0.564 0.535 0.317
v -240.000 2.519 192.000 0.307 0.367 0.139
v -224.000 1.979 192.000 0.304 0.365 0.138
v -208.000 1.356 192.000 0.476 0.445 0.260
v -192.000 1.376 192.000 0.433 0.401 0.231
v -176.000 0.897 192.000 0.474 0.443 0.258
v -160.000 0.936 192.000 0.443 0.411 0.238
v -144.000 0.759 192.000 0.440 0.408 0.236
v -128.000 0.597 192.000 0.440 0.408 0.236
v -256.000 -0.455 208.000 0.472 0.440 0.257
v -240.000 1.790 208.000 0.255 0.327 0.122
v -224.000 0.969 208.000 0.514 0.484 0.284
v -208.000 0.939 208.000 0.476 0.445 0.259
v -192.000 1.862 208.000 0.207 0.290 0.106
v -176.000 0.391 208.000 0.481 0.449 0.263
v -160.000 0.352 208.000 0.488 0.457 0.268
v -144.000 1.587 208.000 0.511 0.480 0.282
v -128.000 1.381 208.000 0.544 0.515 0.304
v -256.000 1.652 224.000 0.207 0.290 0.106
v -240.000 1.625 224.000 0.244 0.319 0.118
v -224.000 1.919 224.000 0.267 0.337 0.126
v -208.000 2.053 224.000 0.237 0.313 0.116
v -192.000 2.022 224.000 0.253 0.325 0.121
v -176.000 1.511 224.000 0.488 0.457 0.267
v -160.000 1.859 224.000 0.250 0.324 0.120
v -144.000 1.509 224.000 0.550 0.521 0.308
v -128.000 1.976 224.000 0.310 0.370 0.140
v -256.000 0.525 240.000 0.415 0.382 0.219
v -240.000 0.129 240.000 0.481 0.450 0.263
v -224.000 2.017 240.000 0.249 0.322 0.120
v -208.000 2.200 240.000 0.223 0.302 0.111
v -192.000 1.269 240.000 0.520 0.490 0.289
v -176.000 2.317 240.000 0.255 0.327 0.122
v -160.000 1.796 240.000 0.267 0.336 0.126
v -144.000 2.448 240.000 0.307 0.368 0.139
v -128.000 3.792 240.000 0.308 0.369 0.139
v -256.000 0.078 256.000 0.479 0.448 0.262
v -240.000 1.448 256.000 0.474 0.443 0.258
v -224.000 2.246 256.000 0.238 0.314 0.116
v -208.000 1.422 256.000 0.455 0.423 0.246
v -192.000 0.638 256.000 0.437 0.405 0.234
v -176.000 0.921 256.000 0.460 0.428 0.249
v -160.000 1.289 256.000 0.486 0.455 0.266
v -144.000 2.334 256.000 0.253 0.326 0.121
v -128.000 2.178 256.000 0.282 0.348 0.131

vt 0.366667 0.433333
vt 0.366667 0.425000
vt 0.375000 0.425000
vt 0.375000 0.433333
vt 0.383333 0.433333
vt 0.383333 0.425000
vt 0.391667 0.425000
vt 0.391667 0.433333
vt 0.400000 0.433333
vt 0.400000 0.425000
vt 0.408333 0.425000
vt 0.408333 0.433333
vt 0.416667 0.433333
vt 0.416667 0.425000
vt 0.425000 0.425000
vt 0.425000 0.433333
vt 0.433333 0.433333
vt 0.433333 0.425000
vt 0.366667 0.416667
vt 0.375000 0.416667
vt 0.383333 0.416667
vt 0.391667 0.416667
vt 0.400000 0.416667
vt 0.408333 0.416667
vt 0.416667 0.416667
vt 0.425000 0.416667
vt 0.433333 0.416667
vt 0.366667 0.408333
vt 0.375000 0.408333
vt 0.383333 0.408333
vt 0.391667 0.408333
vt 0.400000 0.408333
vt 0.408333 0.408333
vt 0.416667 0.408333
vt 0.425000 0.408333
vt 0.433333 0.408333
vt 0.366667 0.400000
vt 0.375000 0.400000
vt 0.383333 0.400000
vt 0.391667 0.400000
vt 0.400000 0.400000
vt 0.408333 0.400000
vt 0.416667 0.400000
vt 0.425000 0.400000
vt 0.433333 0.400000
vt 0.366667 0.391667
vt 0.375000 0.391667
vt 0.383333 0.391667
vt 0.391667 0.391667
vt 0.400000 0.391667
vt 0.408333 0.391667
vt 0.416667 0.391667
vt 0.425000 0.391667
vt 0.433333 0.391667
vt 0.366667 0.383333
vt 0.375000 0.383333
vt 0.383333 0.383333
vt 0.391667 0.383333
vt 0.400000 0.383333
vt 0.408333 0.383333
vt 0.416667 0.383333
vt 0.425000 0.383333
vt 0.433333 0.383333
vt 0.366667 0.375000
vt 0.375000 0.375000
vt 0.383333 0.375000
vt 0.391667 0.375000
vt 0.400000 0.375000
vt 0.408333 0.375000
vt 0.416667 0.375000
vt 0.425000 0.375000
vt 0.433333 0.375000
vt 0.366667 0.366667
vt 0.375000 0.366667
vt 0.383333 0.366667
vt 0.391667 0.366667
vt 0.400000 0.366667
vt 0.408333 0.366667
vt 0.416667 0.366667
vt 0.425000 0.366667
vt 0.433333 0.366667

vn -0.00224 0.99997 -0.00767
vn 0.04048 0.99842 -0.03902
vn 0.00008 0.99905 -0.04361
vn 0.04278 0.99847 0.03507
vn -0.00140 0.99447 -0.10503
vn -0.03984 0.99505 -0.09103
vn 0.01025 0.99924 -0.03770
vn -0.06197 0.99104 -0.11834
vn -0.01329 0.99927 -0.03581
vn 0.01829 0.99877 0.04600
vn -0.01038 0.99887 0.04637
vn -0.01169 0.99991 0.00703
vn 0.02037 0.99972 0.01229
vn 0.03388 0.99840 0.04528
vn 0.02819 0.99903 0.03372
vn 0.05679 0.99652 0.06107
vn 0.03625 0.99934 -0.00044
vn -0.02544 0.99953 -0.01712
vn 0.00036 0.99979 -0.02059
vn -0.00955 0.99934 -0.03503
vn -0.00427 0.99994 -0.01037
vn 0.07480 0.99709 0.01490
vn 0.03914 0.99890 0.02590
vn -0.01240 0.99961 0.02509
vn 0.02666 0.99841 0.04970
vn -0.00548 0.99927 0.03788
vn -0.03980 0.99869 0.03226
vn -0.01728 0.99949 0.02676
vn -0.01951 0.99980 0.00361
vn 0.00995 0.99990 0.00988
vn 0.05179 0.99866 0.00027
vn 0.02843 0.99853 -0.04622
vn 0.01407 0.99952 -0.02755
vn 0.04668 0.99871 -0.02013
vn -0.00405 0.99976 -0.02138
vn -0.04780 0.99885 -0.00405
vn -0.08240 0.99588 0.03775
vn -0.02644 0.99962 0.00714
vn 0.02728 0.99917 0.03029
vn 0.01884 0.99954 0.02376
vn 0.01856 0.99977 -0.01070
vn 0.01372 0.99983 0.01244
vn 0.00450 0.99968 -0.02471
vn 0.01059 0.99739 -0.07148
vn -0.00365 0.99840 -0.05639
vn -0.13897 0.99017 -0.01608
vn -0.03094 0.99947 0.01037
vn 0.02658 0.99964 0.00186
vn -0.01003 0.99983 -0.01548
vn 0.01712 0.99965 -0.02020
vn 0.02828 0.99936 -0.02183
vn -0.03732 0.99889 -0.02880
vn -0.01433 0.99946 -0.02967
vn 0.01286 0.99899 -0.04305
vn -0.02802 0.99955 0.01063
vn -0.00833 0.99862 0.05185
vn -0.01623 0.99978 -0.01323
vn -0.00322 0.99922 -0.03937
vn 0.01184 0.99981 -0.01564
vn 0.00509 0.99818 -0.06008
vn -0.01032 0.99897 -0.04430
vn -0.00365 0.99963 -0.02692
vn -0.03230 0.99817 -0.05104
vn 0.02476 0.99849 0.04910
vn -0.04228 0.99903 0.01248
vn -0.06459 0.99786 -0.01020
vn 0.02343 0.99956 0.01812
vn -0.00366 0.99906 0.04321
vn -0.01204 0.99963 0.02447
vn -0.00410 0.99983 0.01781
vn -0.03900 0.99919 -0.01001
vn -0.08366 0.99647 -0.00629
vn -0.03038 0.99917 -0.02725
vn -0.06735 0.99435 -0.08201
vn -0.03193 0.99937 -0.01561
vn 0.05012 0.99756 0.04852
vn 0.00598 0.99854 0.05361
vn -0.02026 0.99601 0.08691
vn -0.02410 0.99893 0.03940
vn -0.02776 0.99959 0.00714
vn -0.03702 0.99786 0.05389

f 1/1/1 2/2/2 3/3/3
f 1/1/1 3/3/3 4/4/4
f 4/4/4 3/3/3 5/5/5
f 5/5/5 3/3/3 6/6/6
f 5/5/5 6/6/6 7/7/7
f 5/5/5 7/7/7 8/8/8
f 8/8/8 7/7/7 9/9/9
f 9/9/9 7/7/7 10/10/10
f 9/9/9 10/10/10 11/11/11
f 9/9/9 11/11/11 12/12/12
f 12/12/12 11/11/11 13/13/13
f 13/13/13 11/11/11 14/14/14
f 13/13/13 14/14/14 15/15/15
f 13/13/13 15/15/15 16/16/16
f 16/16/16 15/15/15 17/17/17
f 17/17/17 15/15/15 18/18/18
f 2/2/2 19/19/19 3/3/3
f 3/3/3 19/19/19 20/20/20
f 3/3/3 20/20/20 21/21/21
f 3/3/3 21/21/21 6/6/6
f 6/6/6 21/21/21 7/7/7
f 7/7/7 21/21/21 22/22/22
f 7/7/7 22/22/22 23/23/23
f 7/7/7 23/23/23 10/10/10
f 10/10/10 23/23/23 11/11/11
f 11/11/11 23/23/23 24/24/24
f 11/11/11 24/24/24 25/25/25
f 11/11/11 25/25/25 14/14/14
f 14/14/14 25/25/25 15/15/15
f 15/15/15 25/25/25 26/26/26
f 15/15/15 26/26/26 27/27/27
f 15/15/15 27/27/27 18/18/18
f 19/19/19 28/28/28 29/29/29
f 19/19/19 29/29/29 20/20/20
f 20/20/20 29/29/29 21/21/21
f 21/21/21 29/29/29 30/30/30
f 21/21/21 30/30/30 31/31/31
f 21/21/21 31/31/31 22/22/22
f 22/22/22 31/31/31 23/23/23
f 23/23/23 31/31/31 32/32/32
f 23/23/23 32/32/32 33/33/33
f 23/23/23 33/33/33 24/24/24
f 24/24/24 33/33/33 25/25/25
f 25/25/25 33/33/33 34/34/34
f 25/25/25 34/34/34 35/35/35
f 25/25/25 35/35/35 26/26/26
f 26/26/26 35/35/35 27/27/27
f 27/27/27 35/35/35 36/36/36
f 28/28/28 37/37/37 29/29/29
f 29/29/29 37/37/37 38/38/38
f 29/29/29 38/38/38 39/39/39
f 29/29/29 39/39/39 30/30/30
f 30/30/30 39/39/39 31/31/31
f 31/31/31 39/39/39 40/40/40
f 31/31/31 40/40/40 41/41/41
f 31/31/31 41/41/41 32/32/32
f 32/32/32 41/41/41 33/33/33
f 33/33/33 41/41/41 42/42/42
f 33/33/33 42/42/42 43/43/43
f 33/33/33 43/43/43 34/34/34
f 34/34/34 43/43/43 35/35/35
f 35/35/35 43/43/43 44/44/44
f 35/35/35 44/44/44 45/45/45
f 35/35/35 45/45/45 36/36/36
f 37/37/37 46/46/46 47/47/47
f 37/37/37 47/47/47 38/38/38
f 38/38/38 47/47/47 39/39/39
f 39/39/39 47/47/47 48/48/48
f 39/39/39 48/48/48 49/49/49
f 39/39/39 49/49/49 40/40/40
f 40/40/40 49/49/49 41/41/41
f 41/41/41 49/49/49 50/50/50
f 41/41/41 50/50/50 51/51/51
f 41/41/41 51/51/51 42/42/42
f 42/42/42 51/51/51 43/43/43
f 43/43/43 51/51/51 52/52/52
f 43/43/43 52/52/52 53/53/53
f 43/43/43 53/53/53 44/44/44
f 44/44/44 53/53/53 45/45/45
f 45/45/45 53/53/53 54/54/54
f 46/46/46 55/55/55 47/47/47
f 47/47/47 55/55/55 56/56/56
f 47/47/47 56/56/56 57/57/57
f 47/47/47 57/57/57 48/48/48
f 48/48/48 57/57/57 49/49/49
f 49/49/49 57/57/57 58/58/58
f 49/49/49 58/58/58 59/59/59
f 49/49/49 59/59/59 50/50/50
f 50/50/50 59/59/59 51/51/51
f 51/51/51 59/59/59 60/60/60
f 51/51/51 60/60/60 61/61/61
f 51/51/51 61/61/61 52/52/52
f 52/52/52 61/61/61 53/53/53
f 53/53/53 61/61/61 62/62/62
f 53/53/53 62/62/62 63/63/63
f 53/53/53 63/63/63 54/54/54
f 55/55/55 64/64/64 65/65/65
f 55/55/55 65/65/65 56/56/56
f 56/56/56 65/65/65 57/57/57
f 57/57/57 65/65/65 66/66/66
f 57/57/57 66/66/66 67/67/67
f 57/57/57 67/67/67 58/58/58
f 58/58/58 67/67/67 59/59/59
f 59/59/59 67/67/67 68/68/68
f 59/59/59 68/68/68 69/69/69
f 59/59/59 69/69/69 60/60/60
f 60/60/60 69/69/69 61/61/61
f 61/61/61 69/69/69 70/70/70
f 61/61/61 70/70/70 71/71/71
f 61/61/61 71/71/71 62/62/62
f 62/62/62 71/71/71 63/63/63
f 63/63/63 71/71/71 72/72/72
f 64/64/64 73/73/73 65/65/65
f 65/65/65 73/73/73 74/74/74
f 65/65/65 74/74/74 75/75/75
f 65/65/65 75/75/75 66/66/66
f 66/66/66 75/75/75 67/67/67
f 67/67/67 75/75/75 76/76/76
f 67/67/67 76/76/76 77/77/77
f 67/67/67 77/77/77 68/68/68
f 68/68/68 77/77/77 69/69/69
f 69/69/69 77/77/77 78/78/78
f 69/69/69 78/78/78 79/79/79
f 69/69/69 79/79/79 70/70/70
f 70/70/70 79/79/79 71/71/71
f 71/71/71 79/79/79 80/80/80
f 71/71/71 80/80/80 81/81/81
f 71/71/71 81/81/81 72/72/72
