# Generated by tools/generate_island.py. Do not edit by hand.
o terrain_lod2_-1_1

v -128.000 -0.081 128.000 0.385 0.350 0.199
v -128.000 0.913 144.000 0.153 0.248 0.088
v -112.000 1.192 144.000 0.154 0.249 0.088
v -112.000 0.873 128.000 0.393 0.360 0.205
v -96.000 1.471 128.000 0.136 0.235 0.082
v -96.000 0.628 144.000 0.361 0.326 0.184
v -80.000 0.766 144.000 0.361 0.326 0.184
v -80.000 2.242 128.000 0.170 0.261 0.093
v -64.000 4.487 128.000 0.193 0.279 0.101
v -64.000 3.903 144.000 0.158 0.251 0.089
v -48.000 3.844 144.000 0.182 0.270 0.097
v -48.000 6.592 128.000 0.199 0.284 0.103
v -32.000 5.801 128.000 0.210 0.292 0.107
v -32.000 4.136 144.000 0.209 0.291 0.106
v -16.000 6.120 144.000 0.220 0.300 0.110
v -16.000 8.457 128.000 0.326 0.343 0.257
v 0.000 8.324 128.000 0.347 0.358 0.269
v 0.000 4.633 144.000 0.225 0.304 0.112
v -128.000 0.467 160.000 0.427 0.394 0.227
v -112.000 1.923 160.000 0.186 0.274 0.099
v -96.000 2.140 160.000 0.189 0.276 0.100
v -80.000 2.485 160.000 0.174 0.264 0.095
v -64.000 1.901 160.000 0.131 0.231 0.080
v -48.000 0.967 160.000 0.166 0.258 0.092
v -32.000 2.010 160.000 0.186 0.274 0.099
v -16.000 2.526 160.000 0.210 0.293 0.107
v 0.000 4.100 160.000 0.218 0.298 0.109
v -128.000 0.059 176.000 0.431 0.398 0.230
v -112.000 0.278 176.000 0.428 0.395 0.228
v -96.000 1.464 176.000 0.191 0.277 0.100
v -80.000 1.633 176.000 0.162 0.255 0.091
v -64.000 1.012 176.000 0.149 0.245 0.086
v -48.000 0.491 176.000 0.416 0.383 0.220
v -32.000 1.780 176.000 0.192 0.278 0.101
v -16.000 1.468 176.000 0.197 0.282 0.102
v 0.000 1.264 176.000 0.207 0.290 0.106
v -128.000 0.597 192.000 0.440 0.408 0.236
v -112.000 0.410 192.000 0.450 0.417 0.242
v -96.000 2.080 192.000 0.213 0.295 0.108
v -80.000 1.834 192.000 0.196 0.281 0.102
v -64.000 1.197 192.000 0.180 0.269 0.097
v -48.000 1.586 192.000 0.193 0.279 0.101
v -32.000 1.696 192.000 0.187 0.274 0.099
v -16.000 1.205 192.000 0.132 0.231 0.081
v 0.000 0.220 192.000 0.371 0.337 0.191
v -128.000 1.381 208.000 0.277 0.344 0.129
v -112.000 2.268 208.000 0.264 0.334 0.125
v -96.000 2.682 208.000 0.238 0.314 0.116
v -80.000 1.601 208.000 0.230 0.308 0.113
v -64.000 1.758 208.000 0.248 0.322 0.119
v -48.000 2.138 208.000 0.239 0.315 0.116
v -32.000 0.510 208.000 0.431 0.399 0.230
v -16.000 1.416 208.000 0.133 0.232 0.081
v 0.000 -0.448 208.000 0.361 0.326 0.184
v -128.000 1.976 224.000 0.310 0.370 0.140
v -112.000 3.898 224.000 0.310 0.370 0.140
v -96.000 2.682 224.000 0.256 0.328 0.122
v -80.000 1.566 224.000 0.281 0.347 0.130
v -64.000 2.535 224.000 0.289 0.354 0.133
v -48.000 2.416 224.000 0.259 0.331 0.123
v -32.000 1.168 224.000 0.196 0.281 0.102
v -16.000 1.012 224.000 0.133 0.232 0.081
v 0.000 0.028 224.000 0.361 0.326 0.184
v -128.000 3.792 240.000 0.308 0.369 0.139
v -112.000 3.934 240.000 0.310 0.370 0.140
v -96.000 2.373 240.000 0.292 0.356 0.134
v -80.000 2.067 240.000 0.268 0.337 0.126
v -64.000 2.509 240.000 0.300 0.362 0.137
v -48.000 1.694 240.000 0.235 0.311 0.115
v -32.000 1.825 240.000 0.197 0.282 0.102
v -16.000 1.735 240.000 0.162 0.255 0.091
v 0.000 -0.534 240.000 0.416 0.383 0.220
v -128.000 2.178 256.000 0.282 0.348 0.131
v -112.000 1.866 256.000 0.269 0.338 0.126
v -96.000 1.382 256.000 0.257 0.329 0.122
v -80.000 2.061 256.000 0.242 0.317 0.117
v -64.000 1.994 256.000 0.229 0.307 0.113
v -48.000 -0.124 256.000 0.497 0.466 0.273
v -32.000 0.991 256.000 0.224 0.303 0.111
v -16.000 1.957 256.000 0.197 0.282 0.102
v 0.000 0.735 256.000 0.467 0.436 0.254

vt 0.433333 0.433333
vt 0.433333 0.425000
vt 0.441667 0.425000
vt 0.441667 0.433333
vt 0.450000 0.433333
vt 0.450000 0.425000
vt 0.458333 0.425000
vt 0.458333 0.433333
vt 0.466667 0.433333
vt 0.466667 0.425000
vt 0.475000 0.425000
vt 0.475000 0.433333
vt 0.483333 0.433333
vt 0.483333 0.425000
vt 0.491667 0.425000
vt 0.491667 0.433333
vt 0.500000 0.433333
vt 0.500000 0.425000
vt 0.433333 0.416667
vt 0.441667 0.416667
vt 0.450000 0.416667
vt 0.458333 0.416667
vt 0.466667 0.416667
vt 0.475000 0.416667
vt 0.483333 0.416667
vt 0.491667 0.416667
vt 0.500000 0.416667
vt 0.433333 0.408333
vt 0.441667 0.408333
vt 0.450000 0.408333
vt 0.458333 0.408333
vt 0.466667 0.408333
vt 0.475000 0.408333
vt 0.483333 0.408333
vt 0.491667 0.408333
vt 0.500000 0.408333
vt 0.433333 0.400000
vt 0.441667 0.400000
vt 0.450000 0.400000
vt 0.458333 0.400000
vt 0.466667 0.400000
vt 0.475000 0.400000
vt 0.483333 0.400000
vt 0.491667 0.400000
vt 0.500000 0.400000
vt 0.433333 0.391667
vt 0.441667 0.391667
vt 0.450000 0.391667
vt 0.458333 0.391667
vt 0.466667 0.391667
vt 0.475000 0.391667
vt 0.483333 0.391667
vt 0.491667 0.391667
vt 0.500000 0.391667
vt 0.433333 0.383333
vt 0.441667 0.383333
vt 0.450000 0.383333
vt 0.458333 0.383333
vt 0.466667 0.383333
vt 0.475000 0.383333
vt 0.483333 0.383333
vt 0.491667 0.383333
vt 0.500000 0.383333
vt 0.433333 0.375000
vt 0.441667 0.375000
vt 0.450000 0.375000
vt 0.458333 0.375000
vt 0.466667 0.375000
vt 0.475000 0.375000
vt 0.483333 0.375000
vt 0.491667 0.375000
vt 0.500000 0.375000
vt 0.433333 0.366667
vt 0.441667 0.366667
vt 0.450000 0.366667
vt 0.458333 0.366667
vt 0.466667 0.366667
vt 0.475000 0.366667
vt 0.483333 0.366667
vt 0.491667 0.366667
vt 0.500000 0.366667

vn -0.03845 0.99842 -0.04098
vn -0.01739 0.99970 -0.01712
vn -0.02072 0.99945 -0.02590
vn -0.04843 0.99863 -0.01990
vn -0.01473 0.99891 0.04435
vn 0.01329 0.99969 -0.02091
vn -0.07267 0.99729 0.01114
vn -0.09344 0.99142 0.09143
vn -0.11489 0.98987 0.08337
vn -0.09542 0.99220 0.08017
vn -0.01462 0.99055 0.13640
vn -0.04044 0.98476 0.16915
vn -0.06402 0.98943 0.13008
vn -0.07046 0.99059 0.11735
vn -0.04324 0.98723 0.15331
vn -0.07780 0.98650 0.14409
vn 0.04970 0.98150 0.18491
vn 0.09179 0.98721 0.13033
vn -0.05317 0.99820 0.02757
vn -0.05218 0.99823 0.02849
vn -0.01605 0.99979 -0.01270
vn 0.00746 0.99961 -0.02709
vn 0.00858 0.99788 0.06447
vn -0.00339 0.99455 0.10422
vn -0.04947 0.99388 0.09875
vn -0.06450 0.98754 0.14357
vn -0.02256 0.99199 0.12432
vn -0.01371 0.99990 -0.00406
vn -0.04655 0.99865 0.02306
vn -0.04231 0.99910 0.00188
vn 0.01583 0.99974 0.01614
vn 0.03568 0.99912 0.02199
vn -0.01676 0.99986 -0.00171
vn -0.03052 0.99949 0.00982
vn 0.00327 0.99857 0.05335
vn 0.01266 0.99265 0.12037
vn -0.01145 0.99860 -0.05167
vn -0.04620 0.99701 -0.06199
vn -0.02760 0.99903 -0.03429
vn 0.02758 0.99962 0.00100
vn 0.00861 0.99967 -0.02427
vn -0.01557 0.99856 -0.05139
vn 0.00397 0.99996 0.00740
vn 0.04608 0.99894 0.00164
vn 0.06294 0.99764 0.02750
vn -0.05534 0.99754 -0.04299
vn -0.03732 0.99687 -0.06975
vn 0.02083 0.99961 -0.01881
vn 0.02247 0.99969 -0.01097
vn -0.01675 0.99899 -0.04176
vn 0.02628 0.99947 -0.01929
vn 0.02256 0.99961 0.01649
vn 0.03537 0.99934 0.00862
vn 0.11568 0.99327 0.00594
vn -0.07579 0.99511 -0.06339
vn -0.02203 0.99841 -0.05198
vn 0.05613 0.99835 -0.01181
vn 0.00460 0.99988 -0.01455
vn -0.01455 0.99982 -0.01190
vn 0.04268 0.99899 0.01384
vn 0.02724 0.99944 -0.01958
vn 0.03559 0.99932 -0.00998
vn 0.09488 0.99548 -0.00364
vn -0.00892 0.99994 -0.00631
vn 0.02284 0.99893 0.04028
vn 0.05820 0.99748 0.04052
vn -0.00575 0.99996 0.00664
vn 0.01165 0.99979 0.01688
vn 0.02915 0.99855 0.04522
vn -0.00128 0.99998 0.00551
vn 0.04770 0.99868 -0.01889
vn 0.14036 0.98986 -0.02186
vn 0.00525 0.99343 0.11432
vn 0.02465 0.99145 0.12817
vn 0.02606 0.99766 0.06324
vn -0.01914 0.99982 0.00036
vn 0.03990 0.99821 0.04449
vn 0.03113 0.99312 0.11288
vn -0.03310 0.99815 0.05091
vn 0.00801 0.99987 -0.01388
vn 0.10834 0.99304 -0.04625

f 1/1/1 2/2/2 3/3/3
f 1/1/1 3/3/3 4/4/4
f 4/4/4 3/3/3 5/5/5
f 5/5/5 3/3/3 6/6/6
f 5/5/5 6/6/6 7/7/7
f 5/5/5 7/7/7 8/8/8
f 8/8/8 7/7/7 9/9/9
f 9/9/9 7/7/7 10/10/10
f 9/9/9 10/10/10 11/11/11
f 9/9/9 11/11/11 12/12/12
f 12/12/12 11/11/11 13/13/13
f 13/13/13 11/11/11 14/14/14
f 13/13/13 14/14/14 15/15/15
f 13/13/13 15/15/15 16/16/16
f 16/16/16 15/15/15 17/17/17
f 17/17/17 15/15/15 18/18/18
f 2/2/2 19/19/19 3/3/3
f 3/3/3 19/19/19 20/20/20
f 3/3/3 20/20/20 21/21/21
f 3/3/3 21/21/21 6/6/6
f 6/6/6 21/21/21 7/7/7
f 7/7/7 21/21/21 22/22/22
f 7/7/7 22/22/22 23/23/23
f 7/7/7 23/23/23 10/10/10
f 10/10/10 23/23/23 11/11/11
f 11/11/11 23/23/23 24/24/24
f 11/11/11 24/24/24 25/25/25
f 11/11/11 25/25/25 14/14/14
f 14/14/14 25/25/25 15/15/15
f 15/15/15 25/25/25 26/26/26
f 15/15/15 26/26/26 27/27/27
f 15/15/15 27/27/27 18/18/18
f 19/19/19 28/28/28 29/29/29
f 19/19/19 29/29/29 20/20/20
f 20/20/20 29/29/29 21/21/21
f 21/21/21 29/29/29 30/30/30
f 21/21/21 30/30/30 31/31/31
f 21/21/21 31/31/31 22/22/22
f 22/22/22 31/31/31 23/23/23
f 23/23/23 31/31/31 32/32/32
f 23/23/23 32/32/32 33/33/33
f 23/23/23 33/33/33 24/24/24
f 24/24/24 33/33/33 25/25/25
f 25/25/25 33/33/33 34/34/34
f 25/25/25 34/34/34 35/35/35
f 25/25/25 35/35/35 26/26/26
f 26/26/26 35/35/35 27/27/27
f 27/27/27 35/35/35 36/36/36
f 28/28/28 37/37/37 29/29/29
f 29/29/29 37/37/37 38/38/38
f 29/29/29 38/38/38 39/39/39
f 29/29/29 39/39/39 30/30/30
f 30/30/30 39/39/39 31/31/31
f 31/31/31 39/39/39 40/40/40
f 31/31/31 40/40/40 41/41/41
f 31/31/31 41/41/41 32/32/32
f 32/32/32 41/41/41 33/33/33
f 33/33/33 41/41/41 42/42/42
f 33/33/33 42/42/42 43/43/43
f 33/33/33 43/43/43 34/34/34
f 34/34/34 43/43/43 35/35/35
f 35/35/35 43/43/43 44/44/44
f 35/35/35 44/44/44 45/45/45
f 35/35/35 45/45/45 36/36/36
f 37/37/37 46/46/46 47/47/47
f 37/37/37 47/47/47 38/38/38
f 38/38/38 47/47/47 39/39/39
f 39/39/39 47/47/47 48/48/48
f 39/39/39 48/48/48 49/49/49
f 39/39/39 49/49/49 40/40/40
f 40/40/40 49/49/49 41/41/41
f 41/41/41 49/49/49 50/50/50
f 41/41/41 50/50/50 51/51/51
f 41/41/41 51/51/51 42/42/42
f 42/42/42 51/51/51 43/43/43
f 43/43/43 51/51/51 52/52/52
f 43/43/43 52/52/52 53/53/53
f 43/43/43 53/53/53 44/44/44
f 44/44/44 53/53/53 45/45/45
f 45/45/45 53/53/53 54/54/54
f 46/46/46 55/55/55 47/47/47
f 47/47/47 55/55/55 56/56/56
f 47/47/47 56/56/56 57/57/57
f 47/47/47 57/57/57 48/48/48
f 48/48/48 57/57/57 49/49/49
f 49/49/49 57/57/57 58/58/58
f 49/49/49 58/58/58 59/59/59
f 49/49/49 59/59/59 50/50/50
f 50/50/50 59/59/59 51/51/51
f 51/51/51 59/59/59 60/60/60
f 51/51/51 60/60/60 61/61/61
f 51/51/51 61/61/61 52/52/52
f 52/52/52 61/61/61 53/53/53
f 53/53/53 61/61/61 62/62/62
f 53/53/53 62/62/62 63/63/63
f 53/53/53 63/63/63 54/54/54
f 55/55/55 64/64/64 65/65/65
f 55/55/55 65/65/65 56/56/56
f 56/56/56 65/65/65 57/57/57
f 57/57/57 65/65/65 66/66/66
f 57/57/57 66/66/66 67/67/67
f 57/57/57 67/67/67 58/58/58
f 58/58/58 67/67/67 59/59/59
f 59/59/59 67/67/67 68/68/68
f 59/59/59 68/68/68 69/69/69
f 59/59/59 69/69/69 60/60/60
f 60/60/60 69/69/69 61/61/61
f 61/61/61 69/69/69 70/70/70
f 61/61/61 70/70/70 71/71/71
f 61/61/61 71/71/71 62/62/62
f 62/62/62 71/71/71 63/63/63
f 63/63/63 71/71/71 72/72/72
f 64/64/64 73/73/73 65/65/65
f 65/65/65 73/73/73 74/74/74
f 65/65/65 74/74/74 75/75/75
f 65/65/65 75/75/75 66/66/66
f 66/66/66 75/75/75 67/67/67
f 67/67/67 75/75/75 76/76/76
f 67/67/67 76/76/76 77/77/77
f 67/67/67 77/77/77 68/68/68
f 68/68/68 77/77/77 69/69/69
f 69/69/69 77/77/77 78/78/78
f 69/69/69 78/78/78 79/79/79
f 69/69/69 79/79/79 70/70/70
f 70/70/70 79/79/79 71/71/71
f 71/71/71 79/79/79 80/80/80
f 71/71/71 80/80/80 81/81/81
f 71/71/71 81/81/81 72/72/72
