# Generated by tools/generate_island.py. Do not edit by hand.
o terrain_lod2_-1_-2

v -128.000 -0.772 -256.000 0.374 0.339 0.192
v -128.000 -0.244 -240.000 0.398 0.364 0.208
v -112.000 -0.474 -240.000 0.423 0.390 0.225
v -112.000 -0.958 -256.000 0.394 0.360 0.205
v -96.000 0.678 -256.000 0.449 0.417 0.242
v -96.000 0.558 -240.000 0.425 0.392 0.226
v -80.000 1.342 -240.000 0.537 0.508 0.300
v -80.000 1.887 -256.000 0.261 0.332 0.124
v -64.000 2.104 -256.000 0.297 0.360 0.136
v -64.000 2.615 -240.000 0.306 0.367 0.139
v -48.000 2.491 -240.000 0.310 0.370 0.140
v -48.000 2.146 -256.000 0.310 0.370 0.140
v -32.000 2.356 -256.000 0.285 0.350 0.132
v -32.000 2.436 -240.000 0.310 0.370 0.140
v -16.000 2.538 -240.000 0.287 0.352 0.132
v -16.000 2.357 -256.000 0.259 0.330 0.123
v 0.000 2.555 -256.000 0.286 0.351 0.132
v 0.000 2.648 -240.000 0.287 0.352 0.132
v -128.000 -0.977 -224.000 0.400 0.366 0.209
v -112.000 0.394 -224.000 0.411 0.378 0.217
v -96.000 1.289 -224.000 0.454 0.422 0.245
v -80.000 1.208 -224.000 0.531 0.501 0.296
v -64.000 2.542 -224.000 0.310 0.370 0.140
v -48.000 3.808 -224.000 0.296 0.359 0.135
v -32.000 2.599 -224.000 0.281 0.347 0.130
v -16.000 2.372 -224.000 0.245 0.336 0.121
v 0.000 2.308 -224.000 0.238 0.330 0.118
v -128.000 -0.557 -208.000 0.417 0.384 0.221
v -112.000 0.112 -208.000 0.417 0.384 0.221
v -96.000 0.904 -208.000 0.454 0.422 0.245
v -80.000 1.790 -208.000 0.260 0.331 0.123
v -64.000 2.174 -208.000 0.294 0.358 0.135
v -48.000 1.823 -208.000 0.216 0.311 0.111
v -32.000 2.080 -208.000 0.213 0.302 0.108
v -16.000 2.180 -208.000 0.225 0.306 0.110
v 0.000 1.750 -208.000 0.211 0.292 0.105
v -128.000 2.415 -192.000 0.169 0.260 0.093
v -112.000 0.704 -192.000 0.434 0.401 0.232
v -96.000 1.994 -192.000 0.220 0.300 0.110
v -80.000 2.322 -192.000 0.181 0.280 0.098
v -64.000 1.610 -192.000 0.477 0.448 0.263
v -48.000 1.733 -192.000 0.193 0.278 0.099
v -32.000 1.982 -192.000 0.159 0.239 0.084
v -16.000 2.243 -192.000 0.154 0.228 0.081
v 0.000 1.272 -192.000 0.353 0.330 0.193
v -128.000 0.651 -176.000 0.424 0.391 0.225
v -112.000 -0.256 -176.000 0.421 0.388 0.223
v -96.000 2.074 -176.000 0.187 0.286 0.100
v -80.000 2.062 -176.000 0.151 0.246 0.085
v -64.000 2.378 -176.000 0.138 0.222 0.077
v -48.000 1.796 -176.000 0.138 0.213 0.075
v -32.000 1.584 -176.000 0.329 0.306 0.177
v -16.000 1.407 -176.000 0.322 0.299 0.174
v 0.000 1.828 -176.000 0.106 0.181 0.062
v -128.000 0.644 -160.000 0.457 0.425 0.247
v -112.000 0.498 -160.000 0.442 0.409 0.237
v -96.000 2.583 -160.000 0.208 0.302 0.107
v -80.000 2.420 -160.000 0.175 0.258 0.091
v -64.000 3.959 -160.000 0.138 0.211 0.074
v -48.000 2.475 -160.000 0.111 0.186 0.064
v -32.000 1.820 -160.000 0.083 0.179 0.095
v -16.000 -0.733 -160.000 0.319 0.296 0.171
v 0.000 -0.439 -160.000 0.305 0.282 0.162
v -128.000 2.308 -144.000 0.205 0.288 0.105
v -112.000 2.483 -144.000 0.210 0.292 0.107
v -96.000 2.690 -144.000 0.207 0.300 0.107
v -80.000 4.302 -144.000 0.155 0.237 0.083
v -64.000 4.143 -144.000 0.128 0.200 0.070
v -48.000 1.690 -144.000 0.120 0.194 0.067
v -32.000 0.147 -144.000 0.308 0.284 0.164
v -16.000 1.559 -144.000 0.308 0.284 0.164
v 0.000 2.574 -144.000 0.113 0.187 0.064
v -128.000 1.968 -128.000 0.205 0.288 0.105
v -112.000 2.550 -128.000 0.218 0.299 0.109
v -96.000 4.476 -128.000 0.214 0.307 0.109
v -80.000 4.485 -128.000 0.152 0.238 0.083
v -64.000 4.435 -128.000 0.112 0.189 0.065
v -48.000 4.521 -128.000 0.131 0.203 0.071
v -32.000 6.346 -128.000 0.135 0.206 0.072
v -16.000 8.448 -128.000 0.162 0.204 0.144
v 0.000 6.406 -128.000 0.106 0.182 0.062

vt 0.433333 0.633333
vt 0.433333 0.625000
vt 0.441667 0.625000
vt 0.441667 0.633333
vt 0.450000 0.633333
vt 0.450000 0.625000
vt 0.458333 0.625000
vt 0.458333 0.633333
vt 0.466667 0.633333
vt 0.466667 0.625000
vt 0.475000 0.625000
vt 0.475000 0.633333
vt 0.483333 0.633333
vt 0.483333 0.625000
vt 0.491667 0.625000
vt 0.491667 0.633333
vt 0.500000 0.633333
vt 0.500000 0.625000
vt 0.433333 0.616667
vt 0.441667 0.616667
vt 0.450000 0.616667
vt 0.458333 0.616667
vt 0.466667 0.616667
vt 0.475000 0.616667
vt 0.483333 0.616667
vt 0.491667 0.616667
vt 0.500000 0.616667
vt 0.433333 0.608333
vt 0.441667 0.608333
vt 0.450000 0.608333
vt 0.458333 0.608333
vt 0.466667 0.608333
vt 0.475000 0.608333
vt 0.483333 0.608333
vt 0.491667 0.608333
vt 0.500000 0.608333
vt 0.433333 0.600000
vt 0.441667 0.600000
vt 0.450000 0.600000
vt 0.458333 0.600000
vt 0.466667 0.600000
vt 0.475000 0.600000
vt 0.483333 0.600000
vt 0.491667 0.600000
vt 0.500000 0.600000
vt 0.433333 0.591667
vt 0.441667 0.591667
vt 0.450000 0.591667
vt 0.458333 0.591667
vt 0.466667 0.591667
vt 0.475000 0.591667
vt 0.483333 0.591667
vt 0.491667 0.591667
vt 0.500000 0.591667
vt 0.433333 0.583333
vt 0.441667 0.583333
vt 0.450000 0.583333
vt 0.458333 0.583333
vt 0.466667 0.583333
vt 0.475000 0.583333
vt 0.483333 0.583333
vt 0.491667 0.583333
vt 0.500000 0.583333
vt 0.433333 0.575000
vt 0.441667 0.575000
vt 0.450000 0.575000
vt 0.458333 0.575000
vt 0.466667 0.575000
vt 0.475000 0.575000
vt 0.483333 0.575000
vt 0.491667 0.575000
vt 0.500000 0.575000
vt 0.433333 0.566667
vt 0.441667 0.566667
vt 0.450000 0.566667
vt 0.458333 0.566667
vt 0.466667 0.566667
vt 0.475000 0.566667
vt 0.483333 0.566667
vt 0.491667 0.566667
vt 0.500000 0.566667

vn 0.01300 0.99942 -0.03160
vn 0.01437 0.99988 0.00640
vn -0.04151 0.99884 -0.02428
vn -0.04525 0.99852 -0.03021
vn -0.07264 0.99735 0.00470
vn -0.05665 0.99821 -0.01905
vn -0.05299 0.99859 0.00242
vn -0.04448 0.99843 0.03402
vn -0.02199 0.99968 -0.01283
vn -0.03587 0.99926 -0.01367
vn 0.00037 0.99951 -0.03128
vn -0.00787 0.99974 -0.02153
vn -0.00404 0.99993 -0.01073
vn -0.00149 0.99997 -0.00762
vn -0.00260 1.00000 -0.00022
vn -0.00623 0.99992 -0.01132
vn -0.00963 0.99992 -0.00857
vn -0.00687 0.99995 0.00771
vn -0.04964 0.99876 -0.00427
vn -0.07061 0.99734 -0.01827
vn -0.03997 0.99911 -0.01347
vn -0.03912 0.99914 -0.01399
vn -0.04980 0.99872 0.00858
vn -0.00181 0.99978 0.02085
vn 0.01927 0.99972 0.01358
vn 0.00910 0.99990 0.01119
vn 0.00700 0.99978 0.01962
vn -0.04153 0.99357 -0.10531
vn -0.03719 0.99863 -0.03680
vn -0.05235 0.99839 -0.02201
vn -0.02662 0.99952 -0.01563
vn -0.00104 0.99958 0.02909
vn -0.00188 0.99901 0.04448
vn -0.01115 0.99975 0.01930
vn 0.01297 0.99980 0.01494
vn 0.02684 0.99912 0.03234
vn 0.05709 0.99828 -0.01310
vn 0.01315 0.99985 0.01149
vn -0.05640 0.99825 -0.01751
vn 0.01200 0.99989 -0.00852
vn 0.01102 0.99993 -0.00510
vn -0.01161 0.99993 0.00084
vn -0.00770 0.99987 0.01400
vn 0.02215 0.99946 0.02415
vn 0.03043 0.99948 0.01086
vn 0.05648 0.99688 0.05519
vn -0.03409 0.99934 0.01245
vn -0.07225 0.99722 -0.01834
vn -0.01249 0.99962 -0.02447
vn 0.00829 0.99728 -0.07319
vn 0.02619 0.99925 -0.02865
vn 0.01218 0.99991 0.00504
vn 0.01934 0.99795 0.06101
vn -0.02630 0.99823 0.05340
vn 0.01596 0.99752 -0.06852
vn -0.06027 0.99455 -0.08511
vn -0.06216 0.99689 -0.04836
vn -0.04285 0.99664 -0.06975
vn 0.02160 0.99879 -0.04419
vn 0.06668 0.99777 0.00333
vn 0.05410 0.99829 0.02206
vn 0.07043 0.99751 -0.00476
vn -0.03161 0.99940 -0.01402
vn -0.01088 0.99909 -0.04133
vn -0.04061 0.99754 -0.05706
vn -0.05667 0.99665 -0.05897
vn -0.03307 0.99817 -0.05068
vn 0.08136 0.99657 -0.01482
vn 0.06392 0.99545 -0.07072
vn 0.00403 0.99014 -0.14003
vn -0.02020 0.97387 -0.22622
vn -0.06189 0.97600 -0.20878
vn -0.02364 0.99968 0.00854
vn -0.07816 0.99693 -0.00420
vn -0.05846 0.99651 -0.05954
vn 0.00131 0.99993 -0.01142
vn 0.04017 0.99762 -0.05607
vn -0.05871 0.98301 -0.17394
vn -0.05598 0.94367 -0.32611
vn -0.00173 0.91849 -0.39543
vn 0.03042 0.94776 -0.31752

f 1/1/1 2/2/2 3/3/3
f 1/1/1 3/3/3 4/4/4
f 4/4/4 3/3/3 5/5/5
f 5/5/5 3/3/3 6/6/6
f 5/5/5 6/6/6 7/7/7
f 5/5/5 7/7/7 8/8/8
f 8/8/8 7/7/7 9/9/9
f 9/9/9 7/7/7 10/10/10
f 9/9/9 10/10/10 11/11/11
f 9/9/9 11/11/11 12/12/12
f 12/12/12 11/11/11 13/13/13
f 13/13/13 11/11/11 14/14/14
f 13/13/13 14/14/14 15/15/15
f 13/13/13 15/15/15 16/16/16
f 16/16/16 15/15/15 17/17/17
f 17/17/17 15/15/15 18/18/18
f 2/2/2 19/19/19 3/3/3
f 3/3/3 19/19/19 20/20/20
f 3/3/3 20/20/20 21/21/21
f 3/3/3 21/21/21 6/6/6
f 6/6/6 21/21/21 7/7/7
f 7/7/7 21/21/21 22/22/22
f 7/7/7 22/22/22 23/23/23
f 7/7/7 23/23/23 10/10/10
f 10/10/10 23/23/23 11/11/11
f 11/11/11 23/23/23 24/24/24
f 11/11/11 24/24/24 25/25/25
f 11/11/11 25/25/25 14/14/14
f 14/14/14 25/25/25 15/15/15
f 15/15/15 25/25/25 26/26/26
f 15/15/15 26/26/26 27/27/27
f 15/15/15 27/27/27 18/18/18
f 19/19/19 28/28/28 29/29/29
f 19/19/19 29/29/29 20/20/20
f 20/20/20 29/29/29 21/21/21
f 21/21/21 29/29/29 30/30/30
f 21/21/21 30/30/30 31/31/31
f 21/21/21 31/31/31 22/22/22
f 22/22/22 31/31/31 23/23/23
f 23/23/23 31/31/31 32/32/32
f 23/23/23 32/32/32 33/33/33
f 23/23/23 33/33/33 24/24/24
f 24/24/24 33/33/33 25/25/25
f 25/25/25 33/33/33 34/34/34
f 25/25/25 34/34/34 35/35/35
f 25/25/25 35/35/35 26/26/26
f 26/26/26 35/35/35 27/27/27
f 27/27/27 35/35/35 36/36/36
f 28/28/28 37/37/37 29/29/29
f 29/29/29 37/37/37 38/38/38
f 29/29/29 38/38/38 39/39/39
f 29/29/29 39/39/39 30/30/30
f 30/30/30 39/39/39 31/31/31
f 31/31/31 39/39/39 40/40/40
f 31/31/31 40/40/40 41/41/41
f 31/31/31 41/41/41 32/32/32
f 32/32/32 41/41/41 33/33/33
f 33/33/33 41/41/41 42/42/42
f 33/33/33 42/42/42 43/43/43
f 33/33/33 43/43/43 34/34/34
f 34/34/34 43/43/43 35/35/35
f 35/35/35 43/43/43 44/44/44
f 35/35/35 44/44/44 45/45/45
f 35/35/35 45/45/45 36/36/36
f 37/37/37 46/46/46 47/47/47
f 37/37/37 47/47/47 38/38/38
f 38/38/38 47/47/47 39/39/39
f 39/39/39 47/47/47 48/48/48
f 39/39/39 48/48/48 49/49/49
f 39/39/39 49/49/49 40/40/40
f 40/40/40 49/49/49 41/41/41
f 41/41/41 49/49/49 50/50/50
f 41/41/41 50/50/50 51/51/51
f 41/41/41 51/51/51 42/42/42
f 42/42/42 51/51/51 43/43/43
f 43/43/43 51/51/51 52/52/52
f 43/43/43 52/52/52 53/53/53
f 43/43/43 53/53/53 44/44/44
f 44/44/44 53/53/53 45/45/45
f 45/45/45 53/53/53 54/54/54
f 46/46/46 55/55/55 47/47/47
f 47/47/47 55/55/55 56/56/56
f 47/47/47 56/56/56 57/57/57
f 47/47/47 57/57/57 48/48/48
f 48/48/48 57/57/57 49/49/49
f 49/49/49 57/57/57 58/58/58
f 49/49/49 58/58/58 59/59/59
f 49/49/49 59/59/59 50/50/50
f 50/50/50 59/59/59 51/51/51
f 51/51/51 59/59/59 60/60/60
f 51/51/51 60/60/60 61/61/61
f 51/51/51 61/61/61 52/52/52
f 52/52/52 61/61/61 53/53/53
f 53/53/53 61/61/61 62/62/62
f 53/53/53 62/62/62 63/63/63
f 53/53/53 63/63/63 54/54/54
f 55/55/55 64/64/64 65/65/65
f 55/55/55 65/65/65 56/56/56
f 56/56/56 65/65/65 57/57/57
f 57/57/57 65/65/65 66/66/66
f 57/57/57 66/66/66 67/67/67
f 57/57/57 67/67/67 58/58/58
f 58/58/58 67/67/67 59/59/59
f 59/59/59 67/67/67 68/68/68
f 59/59/59 68/68/68 69/69/69
f 59/59/59 69/69/69 60/60/60
f 60/60/60 69/69/69 61/61/61
f 61/61/61 69/69/69 70/70/70
f 61/61/61 70/70/70 71/71/71
f 61/61/61 71/71/71 62/62/62
f 62/62/62 71/71/71 63/63/63
f 63/63/63 71/71/71 72/72/72
f 64/64/64 73/73/73 65/65/65
f 65/65/65 73/73/73 74/74/74
f 65/65/65 74/74/74 75/75/75
f 65/65/65 75/75/75 66/66/66
f 66/66/66 75/75/75 67/67/67
f 67/67/67 75/75/75 76/76/76
f 67/67/67 76/76/76 77/77/77
f 67/67/67 77/77/77 68/68/68
f 68/68/68 77/77/77 69/69/69
f 69/69/69 77/77/77 78/78/78
f 69/69/69 78/78/78 79/79/79
f 69/69/69 79/79/79 70/70/70
f 70/70/70 79/79/79 71/71/71
f 71/71/71 79/79/79 80/80/80
f 71/71/71 80/80/80 81/81/81
f 71/71/71 81/81/81 72/72/72
