# Generated by tools/generate_island.py. Do not edit by hand.
o terrain_lod2_-2_-3

v -256.000 -0.741 -384.000 0.395 0.361 0.206
v -256.000 -0.640 -368.000 0.394 0.360 0.206
v -240.000 -0.568 -368.000 0.361 0.326 0.184
v -240.000 -1.500 -384.000 0.365 0.330 0.186
v -224.000 -0.926 -384.000 0.378 0.343 0.195
v -224.000 -0.542 -368.000 0.361 0.326 0.184
v -208.000 -0.956 -368.000 0.437 0.405 0.234
v -208.000 -0.315 -384.000 0.449 0.416 0.241
v -192.000 0.351 -384.000 0.477 0.446 0.260
v -192.000 0.354 -368.000 0.489 0.458 0.268
v -176.000 1.873 -368.000 0.242 0.317 0.117
v -176.000 0.846 -384.000 0.470 0.438 0.255
v -160.000 1.162 -384.000 0.449 0.417 0.242
v -160.000 1.718 -368.000 0.200 0.285 0.103
v -144.000 0.082 -368.000 0.409 0.376 0.216
v -144.000 -0.454 -384.000 0.375 0.341 0.193
v -128.000 -0.722 -384.000 0.424 0.391 0.225
v -128.000 -0.342 -368.000 0.429 0.396 0.228
v -256.000 -0.914 -352.000 0.437 0.404 0.234
v -240.000 -0.095 -352.000 0.416 0.383 0.220
v -224.000 0.337 -352.000 0.424 0.391 0.225
v -208.000 -0.267 -352.000 0.440 0.408 0.236
v -192.000 0.350 -352.000 0.504 0.473 0.278
v -176.000 1.789 -352.000 0.282 0.348 0.131
v -160.000 2.164 -352.000 0.287 0.352 0.132
v -144.000 2.692 -352.000 0.246 0.321 0.119
v -128.000 1.879 -352.000 0.218 0.299 0.109
v -256.000 -0.011 -336.000 0.452 0.420 0.244
v -240.000 0.393 -336.000 0.433 0.400 0.231
v -224.000 -0.469 -336.000 0.428 0.396 0.228
v -208.000 -0.732 -336.000 0.451 0.419 0.243
v -192.000 1.617 -336.000 0.523 0.493 0.291
v -176.000 1.769 -336.000 0.310 0.370 0.140
v -160.000 2.292 -336.000 0.302 0.364 0.137
v -144.000 2.337 -336.000 0.281 0.348 0.130
v -128.000 2.371 -336.000 0.262 0.333 0.124
v -256.000 4.416 -320.000 0.162 0.255 0.091
v -240.000 3.888 -320.000 0.153 0.248 0.088
v -224.000 0.785 -320.000 0.419 0.386 0.222
v -208.000 0.283 -320.000 0.465 0.433 0.252
v -192.000 1.792 -320.000 0.284 0.350 0.131
v -176.000 1.537 -320.000 0.585 0.557 0.331
v -160.000 2.440 -320.000 0.303 0.364 0.138
v -144.000 2.284 -320.000 0.286 0.351 0.132
v -128.000 2.104 -320.000 0.277 0.344 0.129
v -256.000 1.734 -304.000 0.183 0.271 0.098
v -240.000 1.001 -304.000 0.398 0.364 0.208
v -224.000 0.719 -304.000 0.423 0.390 0.225
v -208.000 0.557 -304.000 0.474 0.443 0.258
v -192.000 1.201 -304.000 0.517 0.487 0.287
v -176.000 2.424 -304.000 0.310 0.370 0.140
v -160.000 4.104 -304.000 0.275 0.343 0.128
v -144.000 2.087 -304.000 0.217 0.298 0.109
v -128.000 0.589 -304.000 0.485 0.454 0.266
v -256.000 0.171 -288.000 0.427 0.394 0.227
v -240.000 -0.823 -288.000 0.396 0.362 0.207
v -224.000 -0.115 -288.000 0.409 0.376 0.216
v -208.000 1.376 -288.000 0.458 0.426 0.247
v -192.000 1.448 -288.000 0.523 0.493 0.291
v -176.000 2.486 -288.000 0.284 0.349 0.131
v -160.000 2.327 -288.000 0.255 0.327 0.122
v -144.000 1.903 -288.000 0.198 0.283 0.103
v -128.000 0.948 -288.000 0.449 0.417 0.242
v -256.000 0.091 -272.000 0.406 0.373 0.214
v -240.000 -0.965 -272.000 0.378 0.343 0.195
v -224.000 0.355 -272.000 0.413 0.379 0.218
v -208.000 -0.664 -272.000 0.440 0.407 0.236
v -192.000 0.958 -272.000 0.510 0.479 0.282
v -176.000 2.109 -272.000 0.276 0.344 0.129
v -160.000 2.136 -272.000 0.240 0.316 0.117
v -144.000 1.568 -272.000 0.404 0.371 0.212
v -128.000 0.961 -272.000 0.411 0.378 0.217
v -256.000 -0.214 -256.000 0.385 0.351 0.200
v -240.000 -0.567 -256.000 0.371 0.336 0.190
v -224.000 -1.008 -256.000 0.434 0.401 0.232
v -208.000 -0.205 -256.000 0.471 0.439 0.256
v -192.000 1.015 -256.000 0.506 0.476 0.279
v -176.000 1.615 -256.000 0.517 0.487 0.286
v -160.000 1.011 -256.000 0.471 0.440 0.256
v -144.000 0.764 -256.000 0.401 0.368 0.210
v -128.000 -0.772 -256.000 0.374 0.339 0.192

vt 0.366667 0.700000
vt 0.366667 0.691667
vt 0.375000 0.691667
vt 0.375000 0.700000
vt 0.383333 0.700000
vt 0.383333 0.691667
vt 0.391667 0.691667
vt 0.391667 0.700000
vt 0.400000 0.700000
vt 0.400000 0.691667
vt 0.408333 0.691667
vt 0.408333 0.700000
vt 0.416667 0.700000
vt 0.416667 0.691667
vt 0.425000 0.691667
vt 0.425000 0.700000
vt 0.433333 0.700000
vt 0.433333 0.691667
vt 0.366667 0.683333
vt 0.375000 0.683333
vt 0.383333 0.683333
vt 0.391667 0.683333
vt 0.400000 0.683333
vt 0.408333 0.683333
vt 0.416667 0.683333
vt 0.425000 0.683333
vt 0.433333 0.683333
vt 0.366667 0.675000
vt 0.375000 0.675000
vt 0.383333 0.675000
vt 0.391667 0.675000
vt 0.400000 0.675000
vt 0.408333 0.675000
vt 0.416667 0.675000
vt 0.425000 0.675000
vt 0.433333 0.675000
vt 0.366667 0.666667
vt 0.375000 0.666667
vt 0.383333 0.666667
vt 0.391667 0.666667
vt 0.400000 0.666667
vt 0.408333 0.666667
vt 0.416667 0.666667
vt 0.425000 0.666667
vt 0.433333 0.666667
vt 0.366667 0.658333
vt 0.375000 0.658333
vt 0.383333 0.658333
vt 0.391667 0.658333
vt 0.400000 0.658333
vt 0.408333 0.658333
vt 0.416667 0.658333
vt 0.425000 0.658333
vt 0.433333 0.658333
vt 0.366667 0.650000
vt 0.375000 0.650000
vt 0.383333 0.650000
vt 0.391667 0.650000
vt 0.400000 0.650000
vt 0.408333 0.650000
vt 0.416667 0.650000
vt 0.425000 0.650000
vt 0.433333 0.650000
vt 0.366667 0.641667
vt 0.375000 0.641667
vt 0.383333 0.641667
vt 0.391667 0.641667
vt 0.400000 0.641667
vt 0.408333 0.641667
vt 0.416667 0.641667
vt 0.425000 0.641667
vt 0.433333 0.641667
vt 0.366667 0.633333
vt 0.375000 0.633333
vt 0.383333 0.633333
vt 0.391667 0.633333
vt 0.400000 0.633333
vt 0.408333 0.633333
vt 0.416667 0.633333
vt 0.425000 0.633333
vt 0.433333 0.633333

vn 0.02145 0.99925 -0.03226
vn -0.00449 0.99998 0.00539
vn -0.00984 0.99949 -0.03046
vn 0.00578 0.99829 -0.05815
vn -0.01244 0.99979 -0.01655
vn 0.01213 0.99915 -0.03944
vn -0.02408 0.99965 -0.01061
vn -0.03985 0.99840 0.04000
vn -0.06223 0.99804 -0.00611
vn -0.08807 0.99611 0.00001
vn -0.04178 0.99887 -0.02254
vn -0.02528 0.99763 -0.06403
vn 0.04820 0.99797 -0.04173
vn 0.05584 0.99795 -0.03124
vn 0.04894 0.99583 -0.07698
vn 0.05873 0.99771 -0.03346
vn 0.02162 0.99936 -0.02861
vn 0.02644 0.99637 -0.08097
vn -0.03300 0.99915 -0.02483
vn -0.03902 0.99879 -0.03000
vn 0.01452 0.99984 -0.01041
vn -0.00043 0.99998 -0.00702
vn -0.07356 0.99708 -0.02063
vn -0.05657 0.99839 0.00324
vn -0.00455 0.99966 -0.02576
vn 0.00889 0.99749 -0.07030
vn 0.03140 0.99651 -0.07737
vn -0.02490 0.98611 -0.16423
vn 0.02560 0.99396 -0.10672
vn 0.03512 0.99928 -0.01401
vn -0.04054 0.99891 -0.02335
vn -0.07783 0.99596 -0.04487
vn -0.02975 0.99951 -0.00947
vn -0.01776 0.99980 -0.00864
vn 0.00361 0.99999 0.00246
vn -0.00212 0.99997 -0.00703
vn 0.02161 0.99909 -0.03672
vn 0.11271 0.99345 -0.01886
vn 0.06838 0.99710 -0.03329
vn -0.03143 0.99870 -0.04021
vn -0.05363 0.99852 -0.00867
vn -0.02025 0.99959 -0.02047
vn -0.01347 0.99941 -0.03146
vn 0.01052 0.99991 0.00782
vn 0.02847 0.99909 0.03173
vn 0.04540 0.99029 0.13136
vn 0.04611 0.99253 0.11297
vn 0.01386 0.99951 0.02813
vn -0.02760 0.99959 -0.00735
vn -0.05826 0.99824 0.01074
vn -0.05719 0.99830 -0.01125
vn 0.01054 0.99994 0.00354
vn 0.06815 0.99755 0.01583
vn 0.09314 0.99500 0.03593
vn 0.05884 0.99668 0.05621
vn 0.00893 0.99808 0.06132
vn -0.03322 0.99898 0.03055
vn -0.04876 0.99808 0.03809
vn -0.05352 0.99844 0.01577
vn -0.02746 0.99957 0.00984
vn 0.01598 0.99918 0.03723
vn 0.04305 0.99894 0.01621
vn 0.06259 0.99804 0.00231
vn 0.06585 0.99776 0.01201
vn 0.00430 0.99997 0.00598
vn -0.00940 0.99957 0.02790
vn -0.03739 0.99869 0.03502
vn -0.08635 0.99617 0.01347
vn -0.02522 0.99931 0.02726
vn 0.01691 0.99901 0.04109
vn 0.04299 0.99822 0.04143
vn 0.03785 0.99784 0.05363
vn 0.04397 0.99903 -0.00293
vn 0.02480 0.99938 -0.02490
vn -0.01035 0.99952 0.02920
vn -0.06308 0.99760 -0.02864
vn -0.07160 0.99743 -0.00123
vn 0.00013 0.99952 0.03087
vn 0.02173 0.99823 0.05533
vn 0.05556 0.99720 0.05008
vn 0.06661 0.99466 0.07883

f 1/1/1 2/2/2 3/3/3
f 1/1/1 3/3/3 4/4/4
f 4/4/4 3/3/3 5/5/5
f 5/5/5 3/3/3 6/6/6
f 5/5/5 6/6/6 7/7/7
f 5/5/5 7/7/7 8/8/8
f 8/8/8 7/7/7 9/9/9
f 9/9/9 7/7/7 10/10/10
f 9/9/9 10/10/10 11/11/11
f 9/9/9 11/11/11 12/12/12
f 12/12/12 11/11/11 13/13/13
f 13/13/13 11/11/11 14/14/14
f 13/13/13 14/14/14 15/15/15
f 13/13/13 15/15/15 16/16/16
f 16/16/16 15/15/15 17/17/17
f 17/17/17 15/15/15 18/18/18
f 2/2/2 19/19/19 3/3/3
f 3/3/3 19/19/19 20/20/20
f 3/3/3 20/20/20 21/21/21
f 3/3/3 21/21/21 6/6/6
f 6/6/6 21/21/21 7/7/7
f 7/7/7 21/21/21 22/22/22
f 7/7/7 22/22/22 23/23/23
f 7/7/7 23/23/23 10/10/10
f 10/10/10 23/23/23 11/11/11
f 11/11/11 23/23/23 24/24/24
f 11/11/11 24/24/24 25/25/25
f 11/11/11 25/25/25 14/14/14
f 14/14/14 25/25/25 15/15/15
f 15/15/15 25/25/25 26/26/26
f 15/15/15 26/26/26 27/27/27
f 15/15/15 27/27/27 18/18/18
f 19/19/19 28/28/28 29/29/29
f 19/19/19 29/29/29 20/20/20
f 20/20/20 29/29/29 21/21/21
f 21/21/21 29/29/29 30/30/30
f 21/21/21 30/30/30 31/31/31
f 21/21/21 31/31/31 22/22/22
f 22/22/22 31/31/31 23/23/23
f 23/23/23 31/31/31 32/32/32
f 23/23/23 32/32/32 33/33/33
f 23/23/23 33/33/33 24/24/24
f 24/24/24 33/33/33 25/25/25
f 25/25/25 33/33/33 34/34/34
f 25/25/25 34/34/34 35/35/35
f 25/25/25 35/35/35 26/26/26
f 26/26/26 35/35/35 27/27/27
f 27/27/27 35/35/35 36/36/36
f 28/28/28 37/37/37 29/29/29
f 29/29/29 37/37/37 38/38/38
f 29/29/29 38/38/38 39/39/39
f 29/29/29 39/39/39 30/30/30
f 30/30/30 39/39/39 31/31/31
f 31/31/31 39/39/39 40/40/40
f 31/31/31 40/40/40 41/41/41
f 31/31/31 41/41/41 32/32/32
f 32/32/32 41/41/41 33/33/33
f 33/33/33 41/41/41 42/42/42
f 33/33/33 42/42/42 43/43/43
f 33/33/33 43/43/43 34/34/34
f 34/34/34 43/43/43 35/35/35
f 35/35/35 43/43/43 44/44/44
f 35/35/35 44/44/44 45/45/45
f 35/35/35 45/45/45 36/36/36
f 37/37/37 46/46/46 47/47/47
f 37/37/37 47/47/47 38/38/38
f 38/38/38 47/47/47 39/39/39
f 39/39/39 47/47/47 48/48/48
f 39/39/39 48/48/48 49/49/49
f 39/39/39 49/49/49 40/40/40
f 40/40/40 49/49/49 41/41/41
f 41/41/41 49/49/49 50/50/50
f 41/41/41 50/50/50 51/51/51
f 41/41/41 51/51/51 42/42/42
f 42/42/42 51/51/51 43/43/43
f 43/43/43 51/51/51 52/52/52
f 43/43/43 52/52/52 53/53/53
f 43/43/43 53/53/53 44/44/44
f 44/44/44 53/53/53 45/45/45
f 45/45/45 53/53/53 54/54/54
f 46/46/46 55/55/55 47/47/47
f 47/47/47 55/55/55 56/56/56
f 47/47/47 56/56/56 57/57/57
f 47/47/47 57/57/57 48/48/48
f 48/48/48 57/57/57 49/49/49
f 49/49/49 57/57/57 58/58/58
f 49/49/49 58/58/58 59/59/59
f 49/49/49 59/59/59 50/50/50
f 50/50/50 59/59/59 51/51/51
f 51/51/51 59/59/59 60/60/60
f 51/51/51 60/60/60 61/61/61
f 51/51/51 61/61/61 52/52/52
f 52/52/52 61/61/61 53/53/53
f 53/53/53 61/61/61 62/62/62
f 53/53/53 62/62/62 63/63/63
f 53/53/53 63/63/63 54/54/54
f 55/55/55 64/64/64 65/65/65
f 55/55/55 65/65/65 56/56/56
f 56/56/56 65/65/65 57/57/57
f 57/57/57 65/65/65 66/66/66
f 57/57/57 66/66/66 67/67/67
f 57/57/57 67/67/67 58/58/58
f 58/58/58 67/67/67 59/59/59
f 59/59/59 67/67/67 68/68/68
f 59/59/59 68/68/68 69/69/69
f 59/59/59 69/69/69 60/60/60
f 60/60/60 69/69/69 61/61/61
f 61/61/61 69/69/69 70/70/70
f 61/61/61 70/70/70 71/71/71
f 61/61/61 71/71/71 62/62/62
f 62/62/62 71/71/71 63/63/63
f 63/63/63 71/71/71 72/72/72
f 64/64/64 73/73/73 65/65/65
f 65/65/65 73/73/73 74/74/74
f 65/65/65 74/74/74 75/75/75
f 65/65/65 75/75/75 66/66/66
f 66/66/66 75/75/75 67/67/67
f 67/67/67 75/75/75 76/76/76
f 67/67/67 76/76/76 77/77/77
f 67/67/67 77/77/77 68/68/68
f 68/68/68 77/77/77 69/69/69
f 69/69/69 77/77/77 78/78/78
f 69/69/69 78/78/78 79/79/79
f 69/69/69 79/79/79 70/70/70
f 70/70/70 79/79/79 71/71/71
f 71/71/71 79/79/79 80/80/80
f 71/71/71 80/80/80 81/81/81
f 71/71/71 81/81/81 72/72/72
