# Generated by tools/generate_island.py. Do not edit by hand.
o terrain_lod2_3_4

v 384.000 -6.574 512.000 0.458 0.426 0.248
v 384.000 -7.458 528.000 0.470 0.438 0.255
v 400.000 -7.125 528.000 0.489 0.458 0.268
v 400.000 -6.370 512.000 0.451 0.419 0.243
v 416.000 -6.700 512.000 0.473 0.441 0.257
v 416.000 -7.539 528.000 0.533 0.503 0.297
v 432.000 -8.054 528.000 0.547 0.518 0.306
v 432.000 -7.695 512.000 0.529 0.500 0.295
v 448.000 -7.782 512.000 0.516 0.486 0.286
v 448.000 -8.094 528.000 0.551 0.521 0.309
v 464.000 -9.096 528.000 0.479 0.447 0.261
v 464.000 -7.922 512.000 0.388 0.354 0.201
v 480.000 -9.353 512.000 0.383 0.349 0.199
v 480.000 -10.005 528.000 0.468 0.437 0.255
v 496.000 -10.070 528.000 0.462 0.430 0.250
v 496.000 -10.035 512.000 0.460 0.428 0.249
v 512.000 -10.401 512.000 0.518 0.488 0.287
v 512.000 -10.800 528.000 0.500 0.470 0.275
v 384.000 -8.014 544.000 0.489 0.458 0.268
v 400.000 -7.893 544.000 0.530 0.500 0.295
v 416.000 -8.587 544.000 0.508 0.478 0.281
v 432.000 -8.840 544.000 0.581 0.553 0.329
v 448.000 -8.796 544.000 0.562 0.533 0.316
v 464.000 -9.842 544.000 0.562 0.533 0.316
v 480.000 -10.135 544.000 0.550 0.521 0.309
v 496.000 -10.673 544.000 0.516 0.485 0.286
v 512.000 -10.800 544.000 0.517 0.486 0.286
v 384.000 -8.601 560.000 0.462 0.431 0.251
v 400.000 -9.263 560.000 0.467 0.436 0.254
v 416.000 -9.822 560.000 0.510 0.480 0.282
v 432.000 -9.392 560.000 0.585 0.557 0.331
v 448.000 -9.731 560.000 0.585 0.557 0.331
v 464.000 -10.469 560.000 0.585 0.557 0.331
v 480.000 -10.800 560.000 0.585 0.557 0.331
v 496.000 -10.800 560.000 0.547 0.518 0.306
v 384.000 -9.781 576.000 0.442 0.410 0.237
v 400.000 -10.289 576.000 0.486 0.455 0.266
v 416.000 -10.142 576.000 0.550 0.520 0.308
v 432.000 -10.480 576.000 0.585 0.557 0.331
v 448.000 -10.800 576.000 0.580 0.552 0.328
v 464.000 -10.800 576.000 0.585 0.557 0.331
v 480.000 -10.800 576.000 0.563 0.534 0.317
v 384.000 -10.800 592.000 0.441 0.409 0.237
v 400.000 -10.800 592.000 0.474 0.443 0.258
v 416.000 -10.800 592.000 0.504 0.473 0.278
v 432.000 -10.800 592.000 0.487 0.456 0.267

vt 0.700000 0.233333
vt 0.700000 0.225000
vt 0.708333 0.225000
vt 0.708333 0.233333
vt 0.716667 0.233333
vt 0.716667 0.225000
vt 0.725000 0.225000
vt 0.725000 0.233333
vt 0.733333 0.233333
vt 0.733333 0.225000
vt 0.741667 0.225000
vt 0.741667 0.233333
vt 0.750000 0.233333
vt 0.750000 0.225000
vt 0.758333 0.225000
vt 0.758333 0.233333
vt 0.766667 0.233333
vt 0.766667 0.225000
vt 0.700000 0.216667
vt 0.708333 0.216667
vt 0.716667 0.216667
vt 0.725000 0.216667
vt 0.733333 0.216667
vt 0.741667 0.216667
vt 0.750000 0.216667
vt 0.758333 0.216667
vt 0.766667 0.216667
vt 0.700000 0.208333
vt 0.708333 0.208333
vt 0.716667 0.208333
vt 0.725000 0.208333
vt 0.733333 0.208333
vt 0.741667 0.208333
vt 0.750000 0.208333
vt 0.758333 0.208333
vt 0.700000 0.200000
vt 0.708333 0.200000
vt 0.716667 0.200000
vt 0.725000 0.200000
vt 0.733333 0.200000
vt 0.741667 0.200000
vt 0.750000 0.200000
vt 0.700000 0.191667
vt 0.708333 0.191667
vt 0.716667 0.191667
vt 0.725000 0.191667

vn -0.01675 0.99855 0.05118
vn -0.02079 0.99877 0.04496
vn 0.00670 0.99874 0.04974
vn 0.00394 0.99888 0.04716
vn 0.03516 0.99843 0.04354
vn 0.02895 0.99785 0.05884
vn 0.01874 0.99900 0.04051
vn 0.03377 0.99918 0.02237
vn 0.01981 0.99924 0.03368
vn 0.03254 0.99897 0.03166
vn 0.05248 0.99766 0.04392
vn 0.04892 0.99612 0.07311
vn 0.04814 0.99807 0.03921
vn 0.03041 0.99924 0.02440
vn 0.02579 0.99948 0.01919
vn 0.03274 0.99946 0.00219
vn 0.03425 0.99932 0.01355
vn 0.04558 0.99888 0.01244
vn 0.00135 0.99869 0.05119
vn 0.01785 0.99762 0.06665
vn 0.02300 0.99777 0.06269
vn 0.00652 0.99911 0.04179
vn 0.03215 0.99839 0.04668
vn 0.04177 0.99821 0.04282
vn 0.02318 0.99932 0.02882
vn 0.02079 0.99952 0.02281
vn 0.02048 0.99967 0.01521
vn 0.04127 0.99763 0.05508
vn 0.02630 0.99765 0.06323
vn 0.00402 0.99881 0.04853
vn 0.00534 0.99856 0.05335
vn 0.03356 0.99748 0.06248
vn 0.02714 0.99899 0.03580
vn 0.01380 0.99952 0.02771
vn 0.01386 0.99972 0.01913
vn 0.02616 0.99796 0.05825
vn 0.01125 0.99879 0.04797
vn 0.00398 0.99926 0.03826
vn 0.02055 0.99882 0.04395
vn 0.02144 0.99860 0.04841
vn 0.00000 0.99979 0.02071
vn 0.01036 0.99989 0.01036
vn 0.00000 0.99798 0.06355
vn 0.00563 0.99910 0.04214
vn 0.00000 0.99915 0.04111
vn 0.01371 0.99954 0.02706

f 1/1/1 2/2/2 3/3/3
f 1/1/1 3/3/3 4/4/4
f 4/4/4 3/3/3 5/5/5
f 5/5/5 3/3/3 6/6/6
f 5/5/5 6/6/6 7/7/7
f 5/5/5 7/7/7 8/8/8
f 8/8/8 7/7/7 9/9/9
f 9/9/9 7/7/7 10/10/10
f 9/9/9 10/10/10 11/11/11
f 9/9/9 11/11/11 12/12/12
f 12/12/12 11/11/11 13/13/13
f 13/13/13 11/11/11 14/14/14
f 13/13/13 14/14/14 15/15/15
f 13/13/13 15/15/15 16/16/16
f 16/16/16 15/15/15 17/17/17
f 17/17/17 15/15/15 18/18/18
f 2/2/2 19/19/19 3/3/3
f 3/3/3 19/19/19 20/20/20
f 3/3/3 20/20/20 21/21/21
f 3/3/3 21/21/21 6/6/6
f 6/6/6 21/21/21 7/7/7
f 7/7/7 21/21/21 22/22/22
f 7/7/7 22/22/22 23/23/23
f 7/7/7 23/23/23 10/10/10
f 10/10/10 23/23/23 11/11/11
f 11/11/11 23/23/23 24/24/24
f 11/11/11 24/24/24 25/25/25
f 11/11/11 25/25/25 14/14/14
f 14/14/14 25/25/25 15/15/15
f 15/15/15 25/25/25 26/26/26
f 15/15/15 26/26/26 27/27/27
f 15/15/15 27/27/27 18/18/18
f 19/19/19 28/28/28 29/29/29
f 19/19/19 29/29/29 20/20/20
f 20/20/20 29/29/29 21/21/21
f 21/21/21 29/29/29 30/30/30
f 21/21/21 30/30/30 31/31/31
f 21/21/21 31/31/31 22/22/22
f 22/22/22 31/31/31 23/23/23
f 23/23/23 31/31/31 32/32/32
f 23/23/23 32/32/32 33/33/33
f 23/23/23 33/33/33 24/24/24
f 24/24/24 33/33/33 25/25/25
f 25/25/25 33/33/33 34/34/34
f 25/25/25 34/34/34 35/35/35
f 25/25/25 35/35/35 26/26/26
f 26/26/26 35/35/35 27/27/27
f 28/28/28 36/36/36 29/29/29
f 29/29/29 36/36/36 37/37/37
f 29/29/29 37/37/37 38/38/38
f 29/29/29 38/38/38 30/30/30
f 30/30/30 38/38/38 31/31/31
f 31/31/31 38/38/38 39/39/39
f 31/31/31 39/39/39 40/40/40
f 31/31/31 40/40/40 32/32/32
f 32/32/32 40/40/40 33/33/33
f 33/33/33 40/40/40 41/41/41
f 33/33/33 41/41/41 42/42/42
f 33/33/33 42/42/42 34/34/34
f 36/36/36 43/43/43 44/44/44
f 36/36/36 44/44/44 37/37/37
f 37/37/37 44/44/44 38/38/38
f 38/38/38 44/44/44 45/45/45
f 38/38/38 45/45/45 46/46/46
f 38/38/38 46/46/46 39/39/39
f 39/39/39 46/46/46 40/40/40
