# Generated by tools/generate_island.py. Do not edit by hand.
o terrain_lod2_-5_-5

v -528.000 -10.800 -528.000 0.410 0.377 0.216
v -544.000 -10.800 -512.000 0.437 0.405 0.234
v -528.000 -10.478 -512.000 0.400 0.367 0.210
v -512.000 -10.518 -512.000 0.395 0.361 0.206
v -512.000 -10.800 -528.000 0.395 0.361 0.206

vt 0.225000 0.775000
vt 0.216667 0.766667
vt 0.225000 0.766667
vt 0.233333 0.766667
vt 0.233333 0.775000

vn -0.00588 0.99980 -0.01930
vn -0.02013 0.99959 -0.02013
vn -0.00882 0.99976 -0.02013
vn 0.00125 0.99982 -0.01888
vn 0.00000 0.99984 -0.01764

f 1/1/1 2/2/2 3/3/3
f 1/1/1 3/3/3 4/4/4
f 1/1/1 4/4/4 5/5/5
