# Generated by tools/generate_island.py. Do not edit by hand.
o terrain_lod1_-7_1

v -816.000 -10.800 128.000 0.532 0.503 0.297
v -808.000 -10.800 136.000 0.497 0.467 0.274
v -808.000 -10.632 128.000 0.524 0.495 0.291
v -800.000 -10.330 128.000 0.525 0.496 0.292
v -800.000 -10.194 136.000 0.504 0.473 0.278
v -792.000 -9.562 136.000 0.497 0.466 0.273
v -792.000 -9.523 128.000 0.522 0.492 0.290
v -784.000 -8.910 128.000 0.526 0.496 0.292
v -784.000 -8.788 136.000 0.516 0.485 0.286
v -776.000 -8.766 136.000 0.514 0.483 0.284
v -776.000 -8.676 128.000 0.528 0.499 0.294
v -768.000 -8.143 128.000 0.486 0.455 0.266
v -768.000 -8.484 136.000 0.509 0.479 0.281
v -808.000 -10.800 144.000 0.482 0.451 0.263
v -800.000 -10.034 144.000 0.490 0.459 0.269
v -792.000 -9.510 144.000 0.473 0.441 0.257
v -784.000 -9.263 144.000 0.471 0.440 0.256
v -776.000 -9.109 144.000 0.482 0.451 0.263
v -768.000 -9.083 144.000 0.476 0.444 0.259
v -808.000 -10.800 152.000 0.449 0.417 0.242
v -800.000 -10.470 152.000 0.447 0.415 0.241
v -792.000 -9.818 152.000 0.427 0.394 0.227
v -784.000 -9.877 152.000 0.434 0.402 0.232
v -776.000 -9.457 152.000 0.451 0.419 0.243
v -768.000 -9.074 152.000 0.454 0.422 0.245
v -808.000 -10.800 160.000 0.409 0.376 0.216
v -800.000 -10.700 160.000 0.409 0.376 0.216
v -792.000 -10.066 160.000 0.395 0.362 0.206
v -784.000 -9.946 160.000 0.411 0.378 0.217
v -776.000 -9.779 160.000 0.418 0.385 0.222
v -768.000 -9.010 160.000 0.434 0.401 0.232
v -808.000 -10.800 168.000 0.385 0.351 0.200
v -800.000 -10.531 168.000 0.389 0.355 0.202
v -792.000 -10.562 168.000 0.389 0.355 0.202
v -784.000 -10.092 168.000 0.402 0.368 0.211
v -776.000 -9.991 168.000 0.406 0.372 0.213
v -768.000 -9.317 168.000 0.454 0.422 0.245
v -808.000 -10.800 176.000 0.398 0.365 0.209
v -800.000 -10.693 176.000 0.405 0.371 0.213
v -792.000 -10.795 176.000 0.432 0.399 0.231
v -784.000 -10.361 176.000 0.421 0.388 0.223
v -776.000 -9.685 176.000 0.415 0.382 0.220
v -768.000 -9.261 176.000 0.473 0.442 0.258
v -808.000 -10.800 184.000 0.470 0.438 0.255
v -800.000 -10.800 184.000 0.476 0.444 0.259
v -792.000 -10.557 184.000 0.477 0.445 0.260
v -784.000 -10.327 184.000 0.479 0.448 0.262
v -776.000 -9.443 184.000 0.459 0.427 0.248
v -768.000 -8.993 184.000 0.476 0.444 0.259
v -800.000 -10.800 192.000 0.490 0.459 0.269
v -792.000 -10.800 192.000 0.505 0.475 0.279
v -784.000 -10.361 192.000 0.510 0.480 0.282
v -776.000 -9.877 192.000 0.494 0.463 0.271
v -768.000 -9.116 192.000 0.481 0.450 0.263
v -792.000 -10.800 200.000 0.500 0.470 0.276
v -784.000 -10.476 200.000 0.499 0.469 0.275
v -776.000 -9.990 200.000 0.514 0.484 0.285
v -768.000 -9.230 200.000 0.509 0.479 0.281
v -792.000 -10.800 208.000 0.502 0.471 0.277
v -784.000 -10.476 208.000 0.525 0.496 0.292
v -776.000 -9.863 208.000 0.539 0.510 0.301
v -768.000 -9.726 208.000 0.544 0.515 0.304
v -792.000 -10.800 216.000 0.492 0.461 0.270
v -784.000 -10.800 216.000 0.517 0.487 0.286
v -776.000 -10.325 216.000 0.552 0.523 0.310
v -768.000 -10.293 216.000 0.562 0.533 0.316
v -784.000 -10.800 224.000 0.500 0.469 0.275
v -776.000 -10.773 224.000 0.548 0.519 0.307
v -768.000 -10.354 224.000 0.581 0.552 0.328
v -776.000 -10.800 232.000 0.551 0.522 0.309
v -768.000 -10.682 232.000 0.585 0.557 0.331
v -768.000 -10.800 240.000 0.585 0.557 0.331

vt 0.075000 0.433333
vt 0.079167 0.429167
vt 0.079167 0.433333
vt 0.083333 0.433333
vt 0.083333 0.429167
vt 0.087500 0.429167
vt 0.087500 0.433333
vt 0.091667 0.433333
vt 0.091667 0.429167
vt 0.095833 0.429167
vt 0.095833 0.433333
vt 0.100000 0.433333
vt 0.100000 0.429167
vt 0.079167 0.425000
vt 0.083333 0.425000
vt 0.087500 0.425000
vt 0.091667 0.425000
vt 0.095833 0.425000
vt 0.100000 0.425000
vt 0.079167 0.420833
vt 0.083333 0.420833
vt 0.087500 0.420833
vt 0.091667 0.420833
vt 0.095833 0.420833
vt 0.100000 0.420833
vt 0.079167 0.416667
vt 0.083333 0.416667
vt 0.087500 0.416667
vt 0.091667 0.416667
vt 0.095833 0.416667
vt 0.100000 0.416667
vt 0.079167 0.412500
vt 0.083333 0.412500
vt 0.087500 0.412500
vt 0.091667 0.412500
vt 0.095833 0.412500
vt 0.100000 0.412500
vt 0.079167 0.408333
vt 0.083333 0.408333
vt 0.087500 0.408333
vt 0.091667 0.408333
vt 0.095833 0.408333
vt 0.100000 0.408333
vt 0.079167 0.404167
vt 0.083333 0.404167
vt 0.087500 0.404167
vt 0.091667 0.404167
vt 0.095833 0.404167
vt 0.100000 0.404167
vt 0.083333 0.400000
vt 0.087500 0.400000
vt 0.091667 0.400000
vt 0.095833 0.400000
vt 0.100000 0.400000
vt 0.087500 0.395833
vt 0.091667 0.395833
vt 0.095833 0.395833
vt 0.100000 0.395833
vt 0.087500 0.391667
vt 0.091667 0.391667
vt 0.095833 0.391667
vt 0.100000 0.391667
vt 0.087500 0.387500
vt 0.091667 0.387500
vt 0.095833 0.387500
vt 0.100000 0.387500
vt 0.091667 0.383333
vt 0.095833 0.383333
vt 0.100000 0.383333
vt 0.095833 0.379167
vt 0.100000 0.379167
vt 0.100000 0.375000

vn -0.02101 0.99956 0.02101
vn -0.06108 0.99813 0.00099
vn -0.02934 0.99935 0.02100
vn -0.07314 0.99732 -0.00200
vn -0.07710 0.99685 -0.01848
vn -0.07793 0.99696 0.00050
vn -0.08842 0.99607 0.00495
vn -0.05129 0.99868 -0.00355
vn -0.04971 0.99852 0.02204
vn -0.02428 0.99914 0.03372
vn -0.04788 0.99879 0.01126
vn -0.05083 0.99835 0.02690
vn -0.03516 0.99766 0.05862
vn -0.09536 0.99544 0.00000
vn -0.07477 0.99712 0.01258
vn -0.04809 0.99872 0.01593
vn -0.03057 0.99834 0.04873
vn -0.01124 0.99901 0.04314
vn -0.02237 0.99895 0.03999
vn -0.04761 0.99865 0.02080
vn -0.06123 0.99726 0.04154
vn -0.04229 0.99837 0.03840
vn -0.02253 0.99884 0.04264
vn -0.04248 0.99863 0.03041
vn -0.04779 0.99885 -0.00458
vn -0.01250 0.99992 0.00000
vn -0.04195 0.99903 0.01351
vn -0.04701 0.99782 0.04641
vn -0.02354 0.99937 0.02667
vn -0.05839 0.99774 0.03332
vn -0.08077 0.99644 0.02422
vn -0.02329 0.99973 -0.00023
vn -0.01489 0.99989 -0.00045
vn -0.03065 0.99911 0.02910
vn -0.03564 0.99903 0.02592
vn -0.05594 0.99841 0.00748
vn -0.08390 0.99635 0.01566
vn -0.01340 0.99991 0.00000
vn -0.00769 0.99994 0.00833
vn -0.02071 0.99979 -0.00033
vn -0.06088 0.99814 -0.00132
vn -0.06855 0.99706 -0.03418
vn -0.06144 0.99774 -0.02721
vn -0.00670 0.99996 0.00670
vn -0.02028 0.99975 0.00893
vn -0.02683 0.99964 0.00183
vn -0.06946 0.99758 -0.00004
vn -0.07806 0.99694 0.00370
vn -0.05608 0.99839 -0.00905
vn -0.01521 0.99977 0.01521
vn -0.03658 0.99913 0.02027
vn -0.05880 0.99813 0.01698
vn -0.07749 0.99641 0.03411
vn -0.08500 0.99608 0.02441
vn -0.04408 0.99902 0.00361
vn -0.05054 0.99870 0.00723
vn -0.06993 0.99749 0.01087
vn -0.09459 0.99479 0.03791
vn -0.04042 0.99918 0.00000
vn -0.04931 0.99867 0.01535
vn -0.04683 0.99868 0.02088
vn -0.03325 0.99850 0.04361
vn -0.02022 0.99959 0.02022
vn -0.03955 0.99885 0.02693
vn -0.03449 0.99847 0.04327
vn -0.00402 0.99922 0.03923
vn -0.02202 0.99956 0.01979
vn -0.02783 0.99917 0.02968
vn -0.03084 0.99916 0.02700
vn -0.02127 0.99965 0.01559
vn -0.01471 0.99950 0.02784
vn -0.01471 0.99978 0.01471

f 1/1/1 2/2/2 3/3/3
f 3/3/3 2/2/2 4/4/4
f 4/4/4 2/2/2 5/5/5
f 4/4/4 5/5/5 6/6/6
f 4/4/4 6/6/6 7/7/7
f 7/7/7 6/6/6 8/8/8
f 8/8/8 6/6/6 9/9/9
f 8/8/8 9/9/9 10/10/10
f 8/8/8 10/10/10 11/11/11
f 11/11/11 10/10/10 12/12/12
f 12/12/12 10/10/10 13/13/13
f 2/2/2 14/14/14 15/15/15
f 2/2/2 15/15/15 5/5/5
f 5/5/5 15/15/15 6/6/6
f 6/6/6 15/15/15 16/16/16
f 6/6/6 16/16/16 17/17/17
f 6/6/6 17/17/17 9/9/9
f 9/9/9 17/17/17 10/10/10
f 10/10/10 17/17/17 18/18/18
f 10/10/10 18/18/18 19/19/19
f 10/10/10 19/19/19 13/13/13
f 14/14/14 20/20/20 15/15/15
f 15/15/15 20/20/20 21/21/21
f 15/15/15 21/21/21 22/22/22
f 15/15/15 22/22/22 16/16/16
f 16/16/16 22/22/22 17/17/17
f 17/17/17 22/22/22 23/23/23
f 17/17/17 23/23/23 24/24/24
f 17/17/17 24/24/24 18/18/18
f 18/18/18 24/24/24 19/19/19
f 19/19/19 24/24/24 25/25/25
f 20/20/20 26/26/26 27/27/27
f 20/20/20 27/27/27 21/21/21
f 21/21/21 27/27/27 22/22/22
f 22/22/22 27/27/27 28/28/28
f 22/22/22 28/28/28 29/29/29
f 22/22/22 29/29/29 23/23/23
f 23/23/23 29/29/29 24/24/24
f 24/24/24 29/29/29 30/30/30
f 24/24/24 30/30/30 31/31/31
f 24/24/24 31/31/31 25/25/25
f 26/26/26 32/32/32 27/27/27
f 27/27/27 32/32/32 33/33/33
f 27/27/27 33/33/33 34/34/34
f 27/27/27 34/34/34 28/28/28
f 28/28/28 34/34/34 29/29/29
f 29/29/29 34/34/34 35/35/35
f 29/29/29 35/35/35 36/36/36
f 29/29/29 36/36/36 30/30/30
f 30/30/30 36/36/36 31/31/31
f 31/31/31 36/36/36 37/37/37
f 32/32/32 38/38/38 39/39/39
f 32/32/32 39/39/39 33/33/33
f 33/33/33 39/39/39 34/34/34
f 34/34/34 39/39/39 40/40/40
f 34/34/34 40/40/40 41/41/41
f 34/34/34 41/41/41 35/35/35
f 35/35/35 41/41/41 36/36/36
f 36/36/36 41/41/41 42/42/42
f 36/36/36 42/42/42 43/43/43
f 36/36/36 43/43/43 37/37/37
f 38/38/38 44/44/44 39/39/39
f 39/39/39 44/44/44 45/45/45
f 39/39/39 45/45/45 46/46/46
f 39/39/39 46/46/46 40/40/40
f 40/40/40 46/46/46 41/41/41
f 41/41/41 46/46/46 47/47/47
f 41/41/41 47/47/47 48/48/48
f 41/41/41 48/48/48 42/42/42
f 42/42/42 48/48/48 43/43/43
f 43/43/43 48/48/48 49/49/49
f 45/45/45 50/50/50 46/46/46
f 46/46/46 50/50/50 51/51/51
f 46/46/46 51/51/51 52/52/52
f 46/46/46 52/52/52 47/47/47
f 47/47/47 52/52/52 48/48/48
f 48/48/48 52/52/52 53/53/53
f 48/48/48 53/53/53 54/54/54
f 48/48/48 54/54/54 49/49/49
f 51/51/51 55/55/55 52/52/52
f 52/52/52 55/55/55 56/56/56
f 52/52/52 56/56/56 57/57/57
f 52/52/52 57/57/57 53/53/53
f 53/53/53 57/57/57 54/54/54
f 54/54/54 57/57/57 58/58/58
f 55/55/55 59/59/59 60/60/60
f 55/55/55 60/60/60 56/56/56
f 56/56/56 60/60/60 57/57/57
f 57/57/57 60/60/60 61/61/61
f 57/57/57 61/61/61 62/62/62
f 57/57/57 62/62/62 58/58/58
f 59/59/59 63/63/63 60/60/60
f 60/60/60 63/63/63 64/64/64
f 60/60/60 64/64/64 65/65/65
f 60/60/60 65/65/65 61/61/61
f 61/61/61 65/65/65 62/62/62
f 62/62/62 65/65/65 66/66/66
f 64/64/64 67/67/67 65/65/65
f 65/65/65 67/67/67 68/68/68
f 65/65/65 68/68/68 69/69/69
f 65/65/65 69/69/69 66/66/66
f 67/67/67 70/70/70 68/68/68
f 68/68/68 70/70/70 69/69/69
f 69/69/69 70/70/70 71/71/71
f 70/70/70 72/72/72 71/71/71
