# Generated by tools/generate_island.py. Do not edit by hand.
o terrain_lod2_7_-7

v 896.000 -10.800 -896.000 0.378 0.344 0.195
v 896.000 -10.800 -880.000 0.361 0.326 0.184
v 912.000 -10.800 -880.000 0.372 0.337 0.191
v 912.000 -10.800 -896.000 0.390 0.356 0.203
v 928.000 -10.800 -896.000 0.417 0.384 0.221
v 928.000 -10.800 -880.000 0.374 0.340 0.192
v 944.000 -10.800 -880.000 0.431 0.398 0.230
v 944.000 -10.800 -896.000 0.405 0.371 0.213
v 960.000 -10.800 -896.000 0.451 0.419 0.243
v 960.000 -10.800 -880.000 0.454 0.422 0.245
v 896.000 -10.800 -864.000 0.398 0.365 0.208
v 912.000 -10.800 -864.000 0.415 0.382 0.219
v 928.000 -10.800 -864.000 0.390 0.356 0.203
v 944.000 -10.800 -864.000 0.401 0.367 0.210
v 960.000 -10.800 -864.000 0.464 0.433 0.252
v 896.000 -10.800 -848.000 0.487 0.456 0.267
v 912.000 -10.800 -848.000 0.467 0.436 0.254
v 928.000 -10.800 -848.000 0.421 0.388 0.223
v 944.000 -10.800 -848.000 0.420 0.387 0.222
v 960.000 -10.800 -848.000 0.433 0.400 0.231
v 896.000 -10.800 -832.000 0.503 0.472 0.277
v 912.000 -10.800 -832.000 0.494 0.463 0.272
v 928.000 -10.800 -832.000 0.462 0.430 0.250
v 944.000 -10.800 -832.000 0.470 0.438 0.256
v 960.000 -10.800 -832.000 0.473 0.441 0.258
v 896.000 -10.800 -816.000 0.496 0.465 0.273
v 912.000 -10.800 -816.000 0.500 0.469 0.275
v 928.000 -10.800 -816.000 0.467 0.435 0.254
v 944.000 -10.800 -816.000 0.450 0.418 0.242
v 960.000 -10.800 -816.000 0.491 0.460 0.269
v 896.000 -10.800 -800.000 0.525 0.496 0.292
v 912.000 -10.800 -800.000 0.528 0.498 0.294
v 928.000 -10.800 -800.000 0.478 0.447 0.261
v 944.000 -10.800 -800.000 0.486 0.454 0.266
v 960.000 -10.800 -800.000 0.476 0.444 0.259
v 896.000 -10.800 -784.000 0.473 0.442 0.258
v 912.000 -10.800 -784.000 0.524 0.494 0.291
v 928.000 -10.800 -784.000 0.531 0.502 0.296
v 944.000 -10.800 -784.000 0.543 0.514 0.304
v 960.000 -10.800 -784.000 0.537 0.507 0.300
v 896.000 -10.800 -768.000 0.473 0.442 0.258
v 912.000 -10.800 -768.000 0.499 0.469 0.275
v 928.000 -10.800 -768.000 0.546 0.517 0.306
v 944.000 -10.800 -768.000 0.555 0.527 0.312
v 960.000 -10.800 -768.000 0.537 0.507 0.300

vt 0.966667 0.966667
vt 0.966667 0.958333
vt 0.975000 0.958333
vt 0.975000 0.966667
vt 0.983333 0.966667
vt 0.983333 0.958333
vt 0.991667 0.958333
vt 0.991667 0.966667
vt 1.000000 0.966667
vt 1.000000 0.958333
vt 0.966667 0.950000
vt 0.975000 0.950000
vt 0.983333 0.950000
vt 0.991667 0.950000
vt 1.000000 0.950000
vt 0.966667 0.941667
vt 0.975000 0.941667
vt 0.983333 0.941667
vt 0.991667 0.941667
vt 1.000000 0.941667
vt 0.966667 0.933333
vt 0.975000 0.933333
vt 0.983333 0.933333
vt 0.991667 0.933333
vt 1.000000 0.933333
vt 0.966667 0.925000
vt 0.975000 0.925000
vt 0.983333 0.925000
vt 0.991667 0.925000
vt 1.000000 0.925000
vt 0.966667 0.916667
vt 0.975000 0.916667
vt 0.983333 0.916667
vt 0.991667 0.916667
vt 1.000000 0.916667
vt 0.966667 0.908333
vt 0.975000 0.908333
vt 0.983333 0.908333
vt 0.991667 0.908333
vt 1.000000 0.908333
vt 0.966667 0.900000
vt 0.975000 0.900000
vt 0.983333 0.900000
vt 0.991667 0.900000
vt 1.000000 0.900000

vn 0.00000 1.00000 0.00000
vn 0.00000 1.00000 0.00000
vn 0.00000 1.00000 0.00000
vn 0.00000 1.00000 0.00000
vn 0.00000 1.00000 0.00000
vn 0.00000 1.00000 0.00000
vn 0.00000 1.00000 0.00000
vn 0.00000 1.00000 0.00000
vn 0.00000 1.00000 0.00000
vn 0.00000 1.00000 0.00000
vn 0.00000 1.00000 0.00000
vn 0.00000 1.00000 0.00000
vn 0.00000 1.00000 0.00000
vn 0.00000 1.00000 0.00000
vn 0.00000 1.00000 0.00000
vn 0.00000 1.00000 0.00000
vn 0.00000 1.00000 0.00000
vn 0.00000 1.00000 0.00000
vn 0.00000 1.00000 0.00000
vn 0.00000 1.00000 0.00000
vn 0.00000 1.00000 0.00000
vn 0.00000 1.00000 0.00000
vn 0.00000 1.00000 0.00000
vn 0.00000 1.00000 0.00000
vn 0.00000 1.00000 0.00000
vn 0.00000 1.00000 0.00000
vn 0.00000 1.00000 0.00000
vn 0.00000 1.00000 0.00000
vn 0.00000 1.00000 0.00000
vn 0.00000 1.00000 0.00000
vn 0.00000 1.00000 0.00000
vn 0.00000 1.00000 0.00000
vn 0.00000 1.00000 0.00000
vn 0.00000 1.00000 0.00000
vn 0.00000 1.00000 0.00000
vn 0.00000 1.00000 0.00000
vn 0.00000 1.00000 0.00000
vn 0.00000 1.00000 0.00000
vn 0.00000 1.00000 0.00000
vn 0.00000 1.00000 0.00000
vn 0.00000 1.00000 0.00000
vn 0.00000 1.00000 0.00000
vn 0.00000 1.00000 0.00000
vn 0.00000 1.00000 0.00000
vn 0.00000 1.00000 0.00000

f 1/1/1 2/2/2 3/3/3
f 1/1/1 3/3/3 4/4/4
f 4/4/4 3/3/3 5/5/5
f 5/5/5 3/3/3 6/6/6
f 5/5/5 6/6/6 7/7/7
f 5/5/5 7/7/7 8/8/8
f 8/8/8 7/7/7 9/9/9
f 9/9/9 7/7/7 10/10/10
f 2/2/2 11/11/11 3/3/3
f 3/3/3 11/11/11 12/12/12
f 3/3/3 12/12/12 13/13/13
f 3/3/3 13/13/13 6/6/6
f 6/6/6 13/13/13 7/7/7
f 7/7/7 13/13/13 14/14/14
f 7/7/7 14/14/14 15/15/15
f 7/7/7 15/15/15 10/10/10
f 11/11/11 16/16/16 17/17/17
f 11/11/11 17/17/17 12/12/12
f 12/12/12 17/17/17 13/13/13
f 13/13/13 17/17/17 18/18/18
f 13/13/13 18/18/18 19/19/19
f 13/13/13 19/19/19 14/14/14
f 14/14/14 19/19/19 15/15/15
f 15/15/15 19/19/19 20/20/20
f 16/16/16 21/21/21 17/17/17
f 17/17/17 21/21/21 22/22/22
f 17/17/17 22/22/22 23/23/23
f 17/17/17 23/23/23 18/18/18
f 18/18/18 23/23/23 19/19/19
f 19/19/19 23/23/23 24/24/24
f 19/19/19 24/24/24 25/25/25
f 19/19/19 25/25/25 20/20/20
f 21/21/21 26/26/26 27/27/27
f 21/21/21 27/27/27 22/22/22
f 22/22/22 27/27/27 23/23/23
f 23/23/23 27/27/27 28/28/28
f 23/23/23 28/28/28 29/29/29
f 23/23/23 29/29/29 24/24/24
f 24/24/24 29/29/29 25/25/25
f 25/25/25 29/29/29 30/30/30
f 26/26/26 31/31/31 27/27/27
f 27/27/27 31/31/31 32/32/32
f 27/27/27 32/32/32 33/33/33
f 27/27/27 33/33/33 28/28/28
f 28/28/28 33/33/33 29/29/29
f 29/29/29 33/33/33 34/34/34
f 29/29/29 34/34/34 35/35/35
f 29/29/29 35/35/35 30/30/30
f 31/31/31 36/36/36 37/37/37
f 31/31/31 37/37/37 32/32/32
f 32/32/32 37/37/37 33/33/33
f 33/33/33 37/37/37 38/38/38
f 33/33/33 38/38/38 39/39/39
f 33/33/33 39/39/39 34/34/34
f 34/34/34 39/39/39 35/35/35
f 35/35/35 39/39/39 40/40/40
f 36/36/36 41/41/41 37/37/37
f 37/37/37 41/41/41 42/42/42
f 37/37/37 42/42/42 43/43/43
f 37/37/37 43/43/43 38/38/38
f 38/38/38 43/43/43 39/39/39
f 39/39/39 43/43/43 44/44/44
f 39/39/39 44/44/44 45/45/45
f 39/39/39 45/45/45 40/40/40
