# Generated by tools/generate_island.py. Do not edit by hand.
o terrain_lod2_1_2

v 64.000 0.280 128.000 0.543 0.514 0.304
v 64.000 -0.536 136.000 0.542 0.513 0.303
v 72.000 -0.375 136.000 0.549 0.520 0.308
v 72.000 -0.069 128.000 0.547 0.517 0.306
v 80.000 0.221 128.000 0.550 0.521 0.308
v 80.000 -0.364 136.000 0.541 0.512 0.302
v 88.000 -0.209 136.000 0.574 0.545 0.324
v 88.000 0.125 128.000 0.555 0.526 0.312
v 96.000 -0.144 128.000 0.560 0.531 0.315
v 96.000 -0.839 136.000 0.585 0.557 0.331
v 104.000 -1.197 136.000 0.585 0.557 0.331
v 104.000 -0.275 128.000 0.547 0.518 0.306
v 112.000 -1.009 128.000 0.555 0.526 0.311
v 112.000 -1.476 136.000 0.580 0.552 0.328
v 120.000 -1.944 136.000 0.569 0.540 0.321
v 120.000 -1.228 128.000 0.554 0.525 0.311
v 128.000 -1.463 128.000 0.541 0.512 0.303
v 128.000 -1.984 136.000 0.566 0.538 0.319
v 64.000 -1.088 144.000 0.510 0.479 0.282
v 72.000 -0.800 144.000 0.539 0.510 0.301
v 80.000 -1.096 144.000 0.547 0.518 0.306
v 88.000 -1.346 144.000 0.561 0.532 0.315
v 96.000 -1.686 144.000 0.558 0.529 0.314
v 104.000 -2.278 144.000 0.564 0.536 0.318
v 112.000 -2.131 144.000 0.551 0.522 0.309
v 120.000 -2.359 144.000 0.555 0.526 0.312
v 128.000 -2.638 144.000 0.550 0.521 0.308
v 64.000 -1.570 152.000 0.509 0.479 0.281
v 72.000 -1.710 152.000 0.525 0.495 0.292
v 80.000 -1.819 152.000 0.550 0.521 0.308
v 88.000 -2.370 152.000 0.542 0.513 0.303
v 96.000 -2.434 152.000 0.549 0.520 0.308
v 104.000 -2.746 152.000 0.553 0.524 0.310
v 112.000 -2.761 152.000 0.551 0.522 0.309
v 120.000 -2.755 152.000 0.560 0.531 0.315
v 128.000 -3.489 152.000 0.546 0.517 0.306
v 64.000 -2.061 160.000 0.497 0.466 0.273
v 72.000 -2.486 160.000 0.538 0.509 0.300
v 80.000 -2.615 160.000 0.553 0.524 0.310
v 88.000 -3.090 160.000 0.542 0.513 0.303
v 96.000 -3.467 160.000 0.541 0.512 0.302
v 104.000 -3.427 160.000 0.546 0.516 0.305
v 112.000 -3.773 160.000 0.545 0.516 0.305
v 120.000 -3.791 160.000 0.562 0.533 0.316
v 128.000 -4.500 160.000 0.546 0.517 0.306
v 64.000 -2.884 168.000 0.505 0.475 0.279
v 72.000 -3.293 168.000 0.525 0.495 0.292
v 80.000 -3.983 168.000 0.537 0.508 0.300
v 88.000 -4.263 168.000 0.537 0.507 0.300
v 96.000 -4.743 168.000 0.551 0.522 0.309
v 104.000 -4.446 168.000 0.559 0.530 0.314
v 112.000 -4.505 168.000 0.555 0.526 0.312
v 120.000 -4.999 168.000 0.567 0.538 0.319
v 128.000 -5.348 168.000 0.568 0.539 0.320
v 64.000 -4.451 176.000 0.494 0.463 0.271
v 72.000 -4.665 176.000 0.525 0.495 0.292
v 80.000 -5.358 176.000 0.517 0.487 0.287
v 88.000 -5.509 176.000 0.553 0.524 0.310
v 96.000 -5.446 176.000 0.560 0.531 0.315
v 104.000 -5.546 176.000 0.564 0.536 0.318
v 112.000 -5.400 176.000 0.561 0.532 0.316
v 120.000 -6.150 176.000 0.564 0.536 0.318
v 128.000 -6.853 176.000 0.563 0.535 0.317
v 64.000 -5.756 184.000 0.484 0.453 0.265
v 72.000 -6.101 184.000 0.514 0.484 0.285
v 80.000 -6.360 184.000 0.526 0.496 0.293
v 88.000 -6.710 184.000 0.546 0.517 0.306
v 96.000 -6.511 184.000 0.555 0.526 0.311
v 104.000 -6.752 184.000 0.560 0.532 0.315
v 112.000 -7.150 184.000 0.550 0.521 0.308
v 120.000 -7.666 184.000 0.541 0.512 0.302
v 128.000 -8.000 184.000 0.554 0.525 0.311
v 64.000 -6.912 192.000 0.461 0.429 0.250
v 72.000 -7.670 192.000 0.500 0.470 0.275
v 80.000 -7.820 192.000 0.530 0.500 0.295
v 88.000 -8.000 192.000 0.545 0.516 0.305
v 96.000 -8.000 192.000 0.564 0.536 0.318
v 104.000 -8.000 192.000 0.544 0.515 0.305
v 112.000 -8.000 192.000 0.546 0.517 0.306
v 120.000 -8.000 192.000 0.543 0.514 0.304
v 128.000 -8.000 192.000 0.541 0.511 0.302

vt 0.600000 0.300000
vt 0.600000 0.287500
vt 0.612500 0.287500
vt 0.612500 0.300000
vt 0.625000 0.300000
vt 0.625000 0.287500
vt 0.637500 0.287500
vt 0.637500 0.300000
vt 0.650000 0.300000
vt 0.650000 0.287500
vt 0.662500 0.287500
vt 0.662500 0.300000
vt 0.675000 0.300000
vt 0.675000 0.287500
vt 0.687500 0.287500
vt 0.687500 0.300000
vt 0.700000 0.300000
vt 0.700000 0.287500
vt 0.600000 0.275000
vt 0.612500 0.275000
vt 0.625000 0.275000
vt 0.637500 0.275000
vt 0.650000 0.275000
vt 0.662500 0.275000
vt 0.675000 0.275000
vt 0.687500 0.275000
vt 0.700000 0.275000
vt 0.600000 0.262500
vt 0.612500 0.262500
vt 0.625000 0.262500
vt 0.637500 0.262500
vt 0.650000 0.262500
vt 0.662500 0.262500
vt 0.675000 0.262500
vt 0.687500 0.262500
vt 0.700000 0.262500
vt 0.600000 0.250000
vt 0.612500 0.250000
vt 0.625000 0.250000
vt 0.637500 0.250000
vt 0.650000 0.250000
vt 0.662500 0.250000
vt 0.675000 0.250000
vt 0.687500 0.250000
vt 0.700000 0.250000
vt 0.600000 0.237500
vt 0.612500 0.237500
vt 0.625000 0.237500
vt 0.637500 0.237500
vt 0.650000 0.237500
vt 0.662500 0.237500
vt 0.675000 0.237500
vt 0.687500 0.237500
vt 0.700000 0.237500
vt 0.600000 0.225000
vt 0.612500 0.225000
vt 0.625000 0.225000
vt 0.637500 0.225000
vt 0.650000 0.225000
vt 0.662500 0.225000
vt 0.675000 0.225000
vt 0.687500 0.225000
vt 0.700000 0.225000
vt 0.600000 0.212500
vt 0.612500 0.212500
vt 0.625000 0.212500
vt 0.637500 0.212500
vt 0.650000 0.212500
vt 0.662500 0.212500
vt 0.675000 0.212500
vt 0.687500 0.212500
vt 0.700000 0.212500
vt 0.600000 0.200000
vt 0.612500 0.200000
vt 0.625000 0.200000
vt 0.637500 0.200000
vt 0.650000 0.200000
vt 0.662500 0.200000
vt 0.675000 0.200000
vt 0.687500 0.200000
vt 0.700000 0.200000

vn 0.01172 0.99748 0.06998
vn -0.02004 0.99617 0.08516
vn -0.00430 0.99790 0.06469
vn 0.00370 0.99926 0.03827
vn -0.01119 0.99834 0.05648
vn -0.01032 0.99657 0.08205
vn 0.02962 0.99548 0.09023
vn 0.02277 0.99887 0.04169
vn 0.04318 0.99567 0.08233
vn 0.06134 0.99351 0.09578
vn 0.04015 0.99381 0.10357
vn 0.05367 0.99199 0.11431
vn 0.05285 0.99539 0.08000
vn 0.04649 0.99647 0.06988
vn 0.03077 0.99700 0.07103
vn 0.02823 0.99562 0.08908
vn 0.01714 0.99688 0.07704
vn 0.00499 0.99730 0.07327
vn -0.01853 0.99710 0.07383
vn 0.00055 0.99653 0.08317
vn 0.02464 0.99472 0.09958
vn 0.03651 0.99034 0.13375
vn 0.05007 0.99299 0.10706
vn 0.02767 0.99497 0.09630
vn 0.01429 0.99695 0.07677
vn 0.03163 0.99822 0.05059
vn 0.04153 0.99653 0.07214
vn 0.01752 0.99800 0.06070
vn 0.01652 0.99569 0.09122
vn 0.04102 0.99469 0.09440
vn 0.04149 0.99357 0.10537
vn 0.02332 0.99359 0.11062
vn 0.02185 0.99579 0.08902
vn 0.00055 0.99478 0.10208
vn 0.04179 0.99422 0.09892
vn 0.09084 0.98919 0.11510
vn 0.04355 0.99498 0.09004
vn 0.03444 0.99456 0.09835
vn 0.04396 0.99169 0.12091
vn 0.05286 0.99168 0.11735
vn 0.01910 0.99169 0.12723
vn 0.01899 0.99422 0.10563
vn 0.02002 0.99312 0.11535
vn 0.04494 0.98930 0.13878
vn 0.07730 0.98891 0.12680
vn 0.05050 0.98776 0.14758
vn 0.05647 0.98761 0.14645
vn 0.05971 0.98386 0.16866
vn 0.03800 0.98831 0.14763
vn 0.01129 0.99238 0.12271
vn -0.00335 0.99257 0.12165
vn 0.03439 0.99428 0.10109
vn 0.05973 0.98912 0.13442
vn 0.04309 0.98844 0.14536
vn 0.03631 0.98396 0.17468
vn 0.05571 0.98341 0.17261
vn 0.05039 0.98674 0.15432
vn 0.00546 0.98850 0.15115
vn 0.00464 0.99170 0.12846
vn -0.00285 0.98976 0.14271
vn 0.04122 0.98654 0.15821
vn 0.08922 0.98246 0.16377
vn 0.06426 0.98443 0.16364
vn 0.04256 0.98749 0.15185
vn 0.04650 0.98466 0.16819
vn 0.03760 0.98767 0.15198
vn 0.00881 0.98798 0.15435
vn 0.00262 0.98749 0.15763
vn 0.01900 0.98769 0.15527
vn 0.05627 0.98549 0.16015
vn 0.04887 0.99211 0.11545
vn 0.04160 0.99658 0.07144
vn 0.06778 0.98355 0.16746
vn 0.05560 0.97980 0.19211
vn 0.02888 0.98368 0.17759
vn 0.01113 0.98719 0.15918
vn 0.00131 0.98547 0.16983
vn 0.00000 0.98806 0.15408
vn 0.02839 0.99438 0.10196
vn 0.00000 0.99913 0.04170
vn 0.02086 0.99956 0.02086

f 1/1/1 2/2/2 3/3/3
f 1/1/1 3/3/3 4/4/4
f 4/4/4 3/3/3 5/5/5
f 5/5/5 3/3/3 6/6/6
f 5/5/5 6/6/6 7/7/7
f 5/5/5 7/7/7 8/8/8
f 8/8/8 7/7/7 9/9/9
f 9/9/9 7/7/7 10/10/10
f 9/9/9 10/10/10 11/11/11
f 9/9/9 11/11/11 12/12/12
f 12/12/12 11/11/11 13/13/13
f 13/13/13 11/11/11 14/14/14
f 13/13/13 14/14/14 15/15/15
f 13/13/13 15/15/15 16/16/16
f 16/16/16 15/15/15 17/17/17
f 17/17/17 15/15/15 18/18/18
f 2/2/2 19/19/19 3/3/3
f 3/3/3 19/19/19 20/20/20
f 3/3/3 20/20/20 21/21/21
f 3/3/3 21/21/21 6/6/6
f 6/6/6 21/21/21 7/7/7
f 7/7/7 21/21/21 22/22/22
f 7/7/7 22/22/22 23/23/23
f 7/7/7 23/23/23 10/10/10
f 10/10/10 23/23/23 11/11/11
f 11/11/11 23/23/23 24/24/24
f 11/11/11 24/24/24 25/25/25
f 11/11/11 25/25/25 14/14/14
f 14/14/14 25/25/25 15/15/15
f 15/15/15 25/25/25 26/26/26
f 15/15/15 26/26/26 27/27/27
f 15/15/15 27/27/27 18/18/18
f 19/19/19 28/28/28 29/29/29
f 19/19/19 29/29/29 20/20/20
f 20/20/20 29/29/29 21/21/21
f 21/21/21 29/29/29 30/30/30
f 21/21/21 30/30/30 31/31/31
f 21/21/21 31/31/31 22/22/22
f 22/22/22 31/31/31 23/23/23
f 23/23/23 31/31/31 32/32/32
f 23/23/23 32/32/32 33/33/33
f 23/23/23 33/33/33 24/24/24
f 24/24/24 33/33/33 25/25/25
f 25/25/25 33/33/33 34/34/34
f 25/25/25 34/34/34 35/35/35
f 25/25/25 35/35/35 26/26/26
f 26/26/26 35/35/35 27/27/27
f 27/27/27 35/35/35 36/36/36
f 28/28/28 37/37/37 29/29/29
f 29/29/29 37/37/37 38/38/38
f 29/29/29 38/38/38 39/39/39
f 29/29/29 39/39/39 30/30/30
f 30/30/30 39/39/39 31/31/31
f 31/31/31 39/39/39 40/40/40
f 31/31/31 40/40/40 41/41/41
f 31/31/31 41/41/41 32/32/32
f 32/32/32 41/41/41 33/33/33
f 33/33/33 41/41/41 42/42/42
f 33/33/33 42/42/42 43/43/43
f 33/33/33 43/43/43 34/34/34
f 34/34/34 43/43/43 35/35/35
f 35/35/35 43/43/43 44/44/44
f 35/35/35 44/44/44 45/45/45
f 35/35/35 45/45/45 36/36/36
f 37/37/37 46/46/46 47/47/47
f 37/37/37 47/47/47 38/38/38
f 38/38/38 47/47/47 39/39/39
f 39/39/39 47/47/47 48/48/48
f 39/39/39 48/48/48 49/49/49
f 39/39/39 49/49/49 40/40/40
f 40/40/40 49/49/49 41/41/41
f 41/41/41 49/49/49 50/50/50
f 41/41/41 50/50/50 51/51/51
f 41/41/41 51/51/51 42/42/42
f 42/42/42 51/51/51 43/43/43
f 43/43/43 51/51/51 52/52/52
f 43/43/43 52/52/52 53/53/53
f 43/43/43 53/53/53 44/44/44
f 44/44/44 53/53/53 45/45/45
f 45/45/45 53/53/53 54/54/54
f 46/46/46 55/55/55 47/47/47
f 47/47/47 55/55/55 56/56/56
f 47/47/47 56/56/56 57/57/57
f 47/47/47 57/57/57 48/48/48
f 48/48/48 57/57/57 49/49/49
f 49/49/49 57/57/57 58/58/58
f 49/49/49 58/58/58 59/59/59
f 49/49/49 59/59/59 50/50/50
f 50/50/50 59/59/59 51/51/51
f 51/51/51 59/59/59 60/60/60
f 51/51/51 60/60/60 61/61/61
f 51/51/51 61/61/61 52/52/52
f 52/52/52 61/61/61 53/53/53
f 53/53/53 61/61/61 62/62/62
f 53/53/53 62/62/62 63/63/63
f 53/53/53 63/63/63 54/54/54
f 55/55/55 64/64/64 65/65/65
f 55/55/55 65/65/65 56/56/56
f 56/56/56 65/65/65 57/57/57
f 57/57/57 65/65/65 66/66/66
f 57/57/57 66/66/66 67/67/67
f 57/57/57 67/67/67 58/58/58
f 58/58/58 67/67/67 59/59/59
f 59/59/59 67/67/67 68/68/68
f 59/59/59 68/68/68 69/69/69
f 59/59/59 69/69/69 60/60/60
f 60/60/60 69/69/69 61/61/61
f 61/61/61 69/69/69 70/70/70
f 61/61/61 70/70/70 71/71/71
f 61/61/61 71/71/71 62/62/62
f 62/62/62 71/71/71 63/63/63
f 63/63/63 71/71/71 72/72/72
f 64/64/64 73/73/73 65/65/65
f 65/65/65 73/73/73 74/74/74
f 65/65/65 74/74/74 75/75/75
f 65/65/65 75/75/75 66/66/66
f 66/66/66 75/75/75 67/67/67
f 67/67/67 75/75/75 76/76/76
f 67/67/67 76/76/76 77/77/77
f 67/67/67 77/77/77 68/68/68
f 68/68/68 77/77/77 69/69/69
f 69/69/69 77/77/77 78/78/78
f 69/69/69 78/78/78 79/79/79
f 69/69/69 79/79/79 70/70/70
f 70/70/70 79/79/79 71/71/71
f 71/71/71 79/79/79 80/80/80
f 71/71/71 80/80/80 81/81/81
f 71/71/71 81/81/81 72/72/72
