# Generated by tools/generate_island.py. Do not edit by hand.
o terrain_lod2_-6_3

v -688.000 -10.800 384.000 0.518 0.488 0.288
v -688.000 -10.800 400.000 0.501 0.471 0.276
v -672.000 -10.379 384.000 0.524 0.495 0.291
v -672.000 -10.800 400.000 0.497 0.467 0.274
v -656.000 -10.519 400.000 0.468 0.436 0.254
v -656.000 -10.098 384.000 0.477 0.446 0.261
v -640.000 -9.262 384.000 0.464 0.432 0.252
v -640.000 -9.187 400.000 0.463 0.431 0.251
v -672.000 -10.800 416.000 0.531 0.502 0.296
v -656.000 -10.668 416.000 0.490 0.459 0.269
v -640.000 -9.924 416.000 0.477 0.446 0.260
v -656.000 -10.800 432.000 0.540 0.511 0.302
v -640.000 -10.493 432.000 0.487 0.456 0.267
v -640.000 -10.800 448.000 0.505 0.474 0.278

vt 0.141667 0.300000
vt 0.141667 0.291667
vt 0.150000 0.300000
vt 0.150000 0.291667
vt 0.158333 0.291667
vt 0.158333 0.300000
vt 0.166667 0.300000
vt 0.166667 0.291667
vt 0.150000 0.283333
vt 0.158333 0.283333
vt 0.166667 0.283333
vt 0.158333 0.275000
vt 0.166667 0.275000
vt 0.166667 0.266667

vn -0.02631 0.99965 0.00000
vn -0.01316 0.99983 0.01316
vn -0.01535 0.99969 0.01973
vn -0.01170 0.99978 0.01754
vn -0.04074 0.99902 0.01735
vn -0.03489 0.99905 0.02628
vn -0.06761 0.99765 0.01080
vn -0.08295 0.99634 0.02061
vn -0.01135 0.99992 0.00585
vn -0.02738 0.99959 0.00877
vn -0.04880 0.99850 0.02476
vn -0.02327 0.99957 0.01781
vn -0.01916 0.99944 0.02737
vn -0.01916 0.99963 0.01916

f 1/1/1 2/2/2 3/3/3
f 3/3/3 2/2/2 4/4/4
f 3/3/3 4/4/4 5/5/5
f 3/3/3 5/5/5 6/6/6
f 6/6/6 5/5/5 7/7/7
f 7/7/7 5/5/5 8/8/8
f 4/4/4 9/9/9 5/5/5
f 5/5/5 9/9/9 10/10/10
f 5/5/5 10/10/10 11/11/11
f 5/5/5 11/11/11 8/8/8
f 9/9/9 12/12/12 10/10/10
f 10/10/10 12/12/12 11/11/11
f 11/11/11 12/12/12 13/13/13
f 12/12/12 14/14/14 13/13/13
