# Generated by tools/generate_island.py. Do not edit by hand.
o terrain_lod2_-1_-5

v -128.000 -6.017 -640.000 0.487 0.456 0.267
v -128.000 -5.488 -624.000 0.486 0.454 0.266
v -112.000 -5.468 -624.000 0.458 0.426 0.247
v -112.000 -6.149 -640.000 0.474 0.442 0.258
v -96.000 -6.190 -640.000 0.461 0.430 0.250
v -96.000 -4.956 -624.000 0.419 0.386 0.222
v -80.000 -4.989 -624.000 0.442 0.410 0.237
v -80.000 -5.484 -640.000 0.473 0.441 0.258
v -64.000 -5.298 -640.000 0.482 0.451 0.264
v -64.000 -5.246 -624.000 0.426 0.393 0.226
v -48.000 -4.637 -624.000 0.433 0.401 0.231
v -48.000 -5.249 -640.000 0.447 0.415 0.240
v -32.000 -4.752 -640.000 0.448 0.416 0.241
v -32.000 -4.008 -624.000 0.476 0.445 0.260
v -16.000 -4.115 -624.000 0.474 0.443 0.259
v -16.000 -4.866 -640.000 0.493 0.462 0.271
v 0.000 -4.579 -640.000 0.477 0.446 0.260
v 0.000 -3.879 -624.000 0.475 0.444 0.259
v -128.000 -4.919 -608.000 0.437 0.404 0.234
v -112.000 -5.118 -608.000 0.462 0.430 0.250
v -96.000 -4.422 -608.000 0.434 0.402 0.232
v -80.000 -4.451 -608.000 0.387 0.353 0.201
v -64.000 -4.317 -608.000 0.392 0.358 0.204
v -48.000 -3.787 -608.000 0.465 0.433 0.252
v -32.000 -3.962 -608.000 0.453 0.421 0.245
v -16.000 -3.804 -608.000 0.463 0.431 0.251
v 0.000 -2.930 -608.000 0.505 0.475 0.279
v -128.000 -4.434 -592.000 0.503 0.473 0.277
v -112.000 -3.646 -592.000 0.488 0.457 0.267
v -96.000 -3.590 -592.000 0.466 0.434 0.253
v -80.000 -4.072 -592.000 0.423 0.390 0.225
v -64.000 -3.578 -592.000 0.420 0.387 0.223
v -48.000 -3.139 -592.000 0.481 0.450 0.263
v -32.000 -3.064 -592.000 0.484 0.453 0.265
v -16.000 -2.701 -592.000 0.490 0.459 0.269
v 0.000 -2.708 -592.000 0.501 0.471 0.276
v -128.000 -3.769 -576.000 0.469 0.437 0.255
v -112.000 -3.254 -576.000 0.463 0.432 0.251
v -96.000 -3.494 -576.000 0.493 0.462 0.270
v -80.000 -3.097 -576.000 0.488 0.457 0.267
v -64.000 -2.489 -576.000 0.460 0.428 0.249
v -48.000 -2.877 -576.000 0.507 0.476 0.280
v -32.000 -2.588 -576.000 0.508 0.478 0.281
v -16.000 -2.186 -576.000 0.469 0.438 0.255
v 0.000 -2.460 -576.000 0.459 0.427 0.248
v -128.000 -3.154 -560.000 0.448 0.416 0.241
v -112.000 -2.931 -560.000 0.471 0.440 0.256
v -96.000 -2.836 -560.000 0.529 0.499 0.295
v -80.000 -2.064 -560.000 0.544 0.514 0.304
v -64.000 -2.132 -560.000 0.464 0.432 0.252
v -48.000 -2.617 -560.000 0.508 0.478 0.281
v -32.000 -1.886 -560.000 0.476 0.445 0.260
v -16.000 -1.721 -560.000 0.453 0.421 0.244
v 0.000 -2.206 -560.000 0.454 0.422 0.245
v -128.000 -2.205 -544.000 0.450 0.417 0.242
v -112.000 -2.664 -544.000 0.463 0.432 0.251
v -96.000 -2.535 -544.000 0.547 0.518 0.306
v -80.000 -1.579 -544.000 0.537 0.507 0.300
v -64.000 -1.819 -544.000 0.488 0.457 0.268
v -48.000 -1.674 -544.000 0.494 0.463 0.271
v -32.000 -1.360 -544.000 0.476 0.445 0.260
v -16.000 -2.032 -544.000 0.456 0.424 0.246
v 0.000 -1.617 -544.000 0.458 0.426 0.248
v -128.000 -2.140 -528.000 0.503 0.472 0.277
v -112.000 -1.926 -528.000 0.509 0.478 0.281
v -96.000 -1.161 -528.000 0.572 0.543 0.323
v -80.000 -1.263 -528.000 0.576 0.547 0.325
v -64.000 -1.669 -528.000 0.534 0.504 0.298
v -48.000 -0.988 -528.000 0.522 0.492 0.290
v -32.000 -0.785 -528.000 0.531 0.501 0.296
v -16.000 -1.090 -528.000 0.478 0.447 0.261
v 0.000 -0.954 -528.000 0.500 0.469 0.275
v -128.000 -1.581 -512.000 0.537 0.508 0.300
v -112.000 -1.478 -512.000 0.538 0.509 0.301
v -96.000 -0.977 -512.000 0.585 0.557 0.331
v -80.000 -0.850 -512.000 0.585 0.557 0.331
v -64.000 -0.374 -512.000 0.585 0.557 0.331
v -48.000 -0.089 -512.000 0.577 0.549 0.326
v -32.000 -0.853 -512.000 0.524 0.494 0.291
v -16.000 -0.781 -512.000 0.494 0.463 0.271
v 0.000 -0.335 -512.000 0.491 0.460 0.270

vt 0.433333 0.833333
vt 0.433333 0.825000
vt 0.441667 0.825000
vt 0.441667 0.833333
vt 0.450000 0.833333
vt 0.450000 0.825000
vt 0.458333 0.825000
vt 0.458333 0.833333
vt 0.466667 0.833333
vt 0.466667 0.825000
vt 0.475000 0.825000
vt 0.475000 0.833333
vt 0.483333 0.833333
vt 0.483333 0.825000
vt 0.491667 0.825000
vt 0.491667 0.833333
vt 0.500000 0.833333
vt 0.500000 0.825000
vt 0.433333 0.816667
vt 0.441667 0.816667
vt 0.450000 0.816667
vt 0.458333 0.816667
vt 0.466667 0.816667
vt 0.475000 0.816667
vt 0.483333 0.816667
vt 0.491667 0.816667
vt 0.500000 0.816667
vt 0.433333 0.808333
vt 0.441667 0.808333
vt 0.450000 0.808333
vt 0.458333 0.808333
vt 0.466667 0.808333
vt 0.475000 0.808333
vt 0.483333 0.808333
vt 0.491667 0.808333
vt 0.500000 0.808333
vt 0.433333 0.800000
vt 0.441667 0.800000
vt 0.450000 0.800000
vt 0.458333 0.800000
vt 0.466667 0.800000
vt 0.475000 0.800000
vt 0.483333 0.800000
vt 0.491667 0.800000
vt 0.500000 0.800000
vt 0.433333 0.791667
vt 0.441667 0.791667
vt 0.450000 0.791667
vt 0.458333 0.791667
vt 0.466667 0.791667
vt 0.475000 0.791667
vt 0.483333 0.791667
vt 0.491667 0.791667
vt 0.500000 0.791667
vt 0.433333 0.783333
vt 0.441667 0.783333
vt 0.450000 0.783333
vt 0.458333 0.783333
vt 0.466667 0.783333
vt 0.475000 0.783333
vt 0.483333 0.783333
vt 0.491667 0.783333
vt 0.500000 0.783333
vt 0.433333 0.775000
vt 0.441667 0.775000
vt 0.450000 0.775000
vt 0.458333 0.775000
vt 0.466667 0.775000
vt 0.475000 0.775000
vt 0.483333 0.775000
vt 0.491667 0.775000
vt 0.500000 0.775000
vt 0.433333 0.766667
vt 0.441667 0.766667
vt 0.450000 0.766667
vt 0.458333 0.766667
vt 0.466667 0.766667
vt 0.475000 0.766667
vt 0.483333 0.766667
vt 0.491667 0.766667
vt 0.500000 0.766667

vn 0.00349 0.99928 -0.03777
vn -0.00125 0.99941 -0.03429
vn -0.01084 0.99920 -0.03847
vn 0.00540 0.99908 -0.04250
vn -0.01785 0.99822 -0.05683
vn -0.01496 0.99836 -0.05517
vn -0.00326 0.99929 -0.03759
vn -0.02786 0.99913 -0.03095
vn -0.00917 0.99978 -0.01892
vn -0.01097 0.99947 -0.03063
vn -0.02635 0.99898 -0.03663
vn -0.01704 0.99913 -0.03816
vn -0.01413 0.99891 -0.04449
vn -0.01633 0.99956 -0.02468
vn -0.01143 0.99930 -0.03562
vn -0.00540 0.99889 -0.04689
vn -0.01631 0.99884 -0.04530
vn -0.01471 0.99857 -0.05147
vn -0.00640 0.99897 -0.04490
vn -0.01552 0.99826 -0.05684
vn -0.01084 0.99903 -0.04270
vn -0.00326 0.99958 -0.02865
vn -0.02039 0.99878 -0.04488
vn -0.01109 0.99884 -0.04678
vn -0.00723 0.99927 -0.03747
vn -0.03221 0.99851 -0.04410
vn -0.03086 0.99871 -0.04033
vn -0.04914 0.99815 -0.03587
vn -0.01919 0.99879 -0.04530
vn 0.01328 0.99949 -0.02898
vn -0.00885 0.99905 -0.04264
vn -0.02909 0.99795 -0.05702
vn -0.01002 0.99918 -0.03921
vn -0.01366 0.99899 -0.04290
vn -0.01462 0.99911 -0.03966
vn 0.00042 0.99989 -0.01469
vn -0.03184 0.99901 -0.03114
vn -0.00860 0.99971 -0.02233
vn -0.00591 0.99944 -0.03304
vn -0.03133 0.99755 -0.06259
vn -0.00641 0.99908 -0.04232
vn 0.00308 0.99986 -0.01630
vn -0.02120 0.99932 -0.03013
vn -0.00400 0.99952 -0.03063
vn 0.01624 0.99960 -0.02315
vn -0.01390 0.99871 -0.04883
vn -0.00454 0.99957 -0.02893
vn -0.02709 0.99918 -0.02995
vn -0.02443 0.99904 -0.03642
vn 0.01728 0.99963 -0.02093
vn -0.00665 0.99941 -0.03360
vn -0.02798 0.99887 -0.03833
vn 0.00601 0.99981 -0.01858
vn 0.03033 0.99919 -0.02631
vn 0.00752 0.99947 -0.03154
vn 0.01031 0.99945 -0.03141
vn -0.02887 0.99877 -0.04024
vn -0.02236 0.99944 -0.02501
vn 0.00366 0.99965 -0.02620
vn -0.01433 0.99860 -0.05083
vn -0.00062 0.99939 -0.03484
vn 0.00804 0.99977 -0.01971
vn -0.00750 0.99954 -0.02941
vn -0.01338 0.99972 -0.01949
vn -0.01742 0.99922 -0.03554
vn -0.02069 0.99860 -0.04860
vn -0.00237 0.99939 -0.03482
vn -0.00858 0.99895 -0.04510
vn -0.01365 0.99911 -0.03998
vn 0.00317 0.99987 -0.01585
vn 0.00061 0.99944 -0.03351
vn -0.00847 0.99916 -0.04002
vn -0.00991 0.99946 -0.03146
vn -0.01885 0.99943 -0.02799
vn -0.02016 0.99961 -0.01918
vn -0.01883 0.99949 -0.02579
vn -0.01615 0.99802 -0.06082
vn 0.01492 0.99832 -0.05607
vn 0.01238 0.99978 -0.01676
vn -0.01616 0.99968 -0.01931
vn -0.01814 0.99942 -0.02898

f 1/1/1 2/2/2 3/3/3
f 1/1/1 3/3/3 4/4/4
f 4/4/4 3/3/3 5/5/5
f 5/5/5 3/3/3 6/6/6
f 5/5/5 6/6/6 7/7/7
f 5/5/5 7/7/7 8/8/8
f 8/8/8 7/7/7 9/9/9
f 9/9/9 7/7/7 10/10/10
f 9/9/9 10/10/10 11/11/11
f 9/9/9 11/11/11 12/12/12
f 12/12/12 11/11/11 13/13/13
f 13/13/13 11/11/11 14/14/14
f 13/13/13 14/14/14 15/15/15
f 13/13/13 15/15/15 16/16/16
f 16/16/16 15/15/15 17/17/17
f 17/17/17 15/15/15 18/18/18
f 2/2/2 19/19/19 3/3/3
f 3/3/3 19/19/19 20/20/20
f 3/3/3 20/20/20 21/21/21
f 3/3/3 21/21/21 6/6/6
f 6/6/6 21/21/21 7/7/7
f 7/7/7 21/21/21 22/22/22
f 7/7/7 22/22/22 23/23/23
f 7/7/7 23/23/23 10/10/10
f 10/10/10 23/23/23 11/11/11
f 11/11/11 23/23/23 24/24/24
f 11/11/11 24/24/24 25/25/25
f 11/11/11 25/25/25 14/14/14
f 14/14/14 25/25/25 15/15/15
f 15/15/15 25/25/25 26/26/26
f 15/15/15 26/26/26 27/27/27
f 15/15/15 27/27/27 18/18/18
f 19/19/19 28/28/28 29/29/29
f 19/19/19 29/29/29 20/20/20
f 20/20/20 29/29/29 21/21/21
f 21/21/21 29/29/29 30/30/30
f 21/21/21 30/30/30 31/31/31
f 21/21/21 31/31/31 22/22/22
f 22/22/22 31/31/31 23/23/23
f 23/23/23 31/31/31 32/32/32
f 23/23/23 32/32/32 33/33/33
f 23/23/23 33/33/33 24/24/24
f 24/24/24 33/33/33 25/25/25
f 25/25/25 33/33/33 34/34/34
f 25/25/25 34/34/34 35/35/35
f 25/25/25 35/35/35 26/26/26
f 26/26/26 35/35/35 27/27/27
f 27/27/27 35/35/35 36/36/36
f 28/28/28 37/37/37 29/29/29
f 29/29/29 37/37/37 38/38/38
f 29/29/29 38/38/38 39/39/39
f 29/29/29 39/39/39 30/30/30
f 30/30/30 39/39/39 31/31/31
f 31/31/31 39/39/39 40/40/40
f 31/31/31 40/40/40 41/41/41
f 31/31/31 41/41/41 32/32/32
f 32/32/32 41/41/41 33/33/33
f 33/33/33 41/41/41 42/42/42
f 33/33/33 42/42/42 43/43/43
f 33/33/33 43/43/43 34/34/34
f 34/34/34 43/43/43 35/35/35
f 35/35/35 43/43/43 44/44/44
f 35/35/35 44/44/44 45/45/45
f 35/35/35 45/45/45 36/36/36
f 37/37/37 46/46/46 47/47/47
f 37/37/37 47/47/47 38/38/38
f 38/38/38 47/47/47 39/39/39
f 39/39/39 47/47/47 48/48/48
f 39/39/39 48/48/48 49/49/49
f 39/39/39 49/49/49 40/40/40
f 40/40/40 49/49/49 41/41/41
f 41/41/41 49/49/49 50/50/50
f 41/41/41 50/50/50 51/51/51
f 41/41/41 51/51/51 42/42/42
f 42/42/42 51/51/51 43/43/43
f 43/43/43 51/51/51 52/52/52
f 43/43/43 52/52/52 53/53/53
f 43/43/43 53/53/53 44/44/44
f 44/44/44 53/53/53 45/45/45
f 45/45/45 53/53/53 54/54/54
f 46/46/46 55/55/55 47/47/47
f 47/47/47 55/55/55 56/56/56
f 47/47/47 56/56/56 57/57/57
f 47/47/47 57/57/57 48/48/48
f 48/48/48 57/57/57 49/49/49
f 49/49/49 57/57/57 58/58/58
f 49/49/49 58/58/58 59/59/59
f 49/49/49 59/59/59 50/50/50
f 50/50/50 59/59/59 51/51/51
f 51/51/51 59/59/59 60/60/60
f 51/51/51 60/60/60 61/61/61
f 51/51/51 61/61/61 52/52/52
f 52/52/52 61/61/61 53/53/53
f 53/53/53 61/61/61 62/62/62
f 53/53/53 62/62/62 63/63/63
f 53/53/53 63/63/63 54/54/54
f 55/55/55 64/64/64 65/65/65
f 55/55/55 65/65/65 56/56/56
f 56/56/56 65/65/65 57/57/57
f 57/57/57 65/65/65 66/66/66
f 57/57/57 66/66/66 67/67/67
f 57/57/57 67/67/67 58/58/58
f 58/58/58 67/67/67 59/59/59
f 59/59/59 67/67/67 68/68/68
f 59/59/59 68/68/68 69/69/69
f 59/59/59 69/69/69 60/60/60
f 60/60/60 69/69/69 61/61/61
f 61/61/61 69/69/69 70/70/70
f 61/61/61 70/70/70 71/71/71
f 61/61/61 71/71/71 62/62/62
f 62/62/62 71/71/71 63/63/63
f 63/63/63 71/71/71 72/72/72
f 64/64/64 73/73/73 65/65/65
f 65/65/65 73/73/73 74/74/74
f 65/65/65 74/74/74 75/75/75
f 65/65/65 75/75/75 66/66/66
f 66/66/66 75/75/75 67/67/67
f 67/67/67 75/75/75 76/76/76
f 67/67/67 76/76/76 77/77/77
f 67/67/67 77/77/77 68/68/68
f 68/68/68 77/77/77 69/69/69
f 69/69/69 77/77/77 78/78/78
f 69/69/69 78/78/78 79/79/79
f 69/69/69 79/79/79 70/70/70
f 70/70/70 79/79/79 71/71/71
f 71/71/71 79/79/79 80/80/80
f 71/71/71 80/80/80 81/81/81
f 71/71/71 81/81/81 72/72/72
