# Generated by tools/generate_island.py. Do not edit by hand.
o terrain_lod2_3_1

v 384.000 1.194 128.000 0.525 0.496 0.292
v 384.000 1.200 144.000 0.551 0.522 0.309
v 400.000 1.891 144.000 0.183 0.335 0.170
v 400.000 1.461 128.000 0.503 0.472 0.277
v 416.000 1.974 128.000 0.155 0.299 0.154
v 416.000 2.685 144.000 0.162 0.307 0.158
v 432.000 1.284 144.000 0.478 0.447 0.261
v 432.000 1.390 128.000 0.451 0.419 0.243
v 448.000 2.189 128.000 0.138 0.277 0.145
v 448.000 0.156 144.000 0.465 0.433 0.252
v 464.000 0.157 144.000 0.499 0.468 0.275
v 464.000 1.020 128.000 0.478 0.446 0.261
v 480.000 0.232 128.000 0.431 0.398 0.230
v 480.000 0.181 144.000 0.419 0.386 0.222
v 496.000 -1.078 144.000 0.392 0.358 0.204
v 496.000 -0.992 128.000 0.392 0.358 0.204
v 512.000 -0.680 128.000 0.454 0.422 0.245
v 512.000 -0.935 144.000 0.429 0.396 0.229
v 384.000 1.815 160.000 0.189 0.336 0.170
v 400.000 2.205 160.000 0.190 0.344 0.175
v 416.000 2.283 160.000 0.172 0.321 0.164
v 432.000 0.922 160.000 0.509 0.479 0.281
v 448.000 0.590 160.000 0.483 0.452 0.264
v 464.000 0.313 160.000 0.424 0.391 0.225
v 480.000 -0.925 160.000 0.389 0.355 0.202
v 496.000 -0.868 160.000 0.361 0.326 0.184
v 512.000 -0.986 160.000 0.440 0.408 0.236
v 384.000 0.588 176.000 0.490 0.466 0.277
v 400.000 2.389 176.000 0.183 0.333 0.169
v 416.000 2.455 176.000 0.157 0.301 0.155
v 432.000 0.864 176.000 0.493 0.462 0.271
v 448.000 0.521 176.000 0.489 0.458 0.268
v 464.000 -0.296 176.000 0.421 0.389 0.224
v 480.000 -0.656 176.000 0.421 0.388 0.223
v 496.000 -0.313 176.000 0.398 0.364 0.208
v 512.000 -1.100 176.000 0.453 0.421 0.244
v 384.000 1.842 192.000 0.152 0.274 0.139
v 400.000 2.353 192.000 0.168 0.309 0.158
v 416.000 0.166 192.000 0.491 0.460 0.269
v 432.000 0.260 192.000 0.498 0.468 0.274
v 448.000 0.344 192.000 0.497 0.467 0.274
v 464.000 -0.502 192.000 0.450 0.418 0.243
v 480.000 -0.889 192.000 0.463 0.431 0.251
v 496.000 -0.965 192.000 0.480 0.449 0.262
v 512.000 -1.360 192.000 0.481 0.450 0.263
v 384.000 0.954 208.000 0.407 0.384 0.227
v 400.000 1.155 208.000 0.429 0.402 0.235
v 416.000 -0.136 208.000 0.427 0.394 0.228
v 432.000 -0.481 208.000 0.421 0.388 0.223
v 448.000 -1.136 208.000 0.446 0.414 0.240
v 464.000 -1.111 208.000 0.473 0.441 0.257
v 480.000 -0.721 208.000 0.475 0.444 0.259
v 496.000 -1.579 208.000 0.457 0.425 0.247
v 512.000 -2.185 208.000 0.459 0.427 0.248
v 384.000 0.906 224.000 0.378 0.356 0.210
v 400.000 0.498 224.000 0.376 0.351 0.204
v 416.000 -0.163 224.000 0.387 0.356 0.204
v 432.000 -0.679 224.000 0.385 0.351 0.200
v 448.000 -1.479 224.000 0.418 0.385 0.221
v 464.000 -1.391 224.000 0.477 0.446 0.260
v 480.000 -1.716 224.000 0.513 0.483 0.284
v 496.000 -2.430 224.000 0.424 0.391 0.226
v 512.000 -2.467 224.000 0.462 0.430 0.250
v 384.000 0.238 240.000 0.374 0.353 0.208
v 400.000 0.138 240.000 0.361 0.338 0.198
v 416.000 -0.062 240.000 0.393 0.365 0.212
v 432.000 -0.934 240.000 0.427 0.395 0.228
v 448.000 -1.528 240.000 0.430 0.397 0.229
v 464.000 -1.701 240.000 0.466 0.435 0.253
v 480.000 -2.436 240.000 0.490 0.459 0.269
v 496.000 -2.764 240.000 0.440 0.408 0.236
v 512.000 -2.864 240.000 0.481 0.450 0.263
v 384.000 -1.672 256.000 0.376 0.354 0.209
v 400.000 0.287 256.000 0.334 0.311 0.181
v 416.000 -0.754 256.000 0.370 0.344 0.200
v 432.000 -1.434 256.000 0.416 0.386 0.223
v 448.000 -1.235 256.000 0.445 0.413 0.239
v 464.000 -1.628 256.000 0.463 0.431 0.251
v 480.000 -2.567 256.000 0.459 0.428 0.249
v 496.000 -2.862 256.000 0.437 0.405 0.234
v 512.000 -3.199 256.000 0.455 0.423 0.246

vt 0.700000 0.433333
vt 0.700000 0.425000
vt 0.708333 0.425000
vt 0.708333 0.433333
vt 0.716667 0.433333
vt 0.716667 0.425000
vt 0.725000 0.425000
vt 0.725000 0.433333
vt 0.733333 0.433333
vt 0.733333 0.425000
vt 0.741667 0.425000
vt 0.741667 0.433333
vt 0.750000 0.433333
vt 0.750000 0.425000
vt 0.758333 0.425000
vt 0.758333 0.433333
vt 0.766667 0.433333
vt 0.766667 0.425000
vt 0.700000 0.416667
vt 0.708333 0.416667
vt 0.716667 0.416667
vt 0.725000 0.416667
vt 0.733333 0.416667
vt 0.741667 0.416667
vt 0.750000 0.416667
vt 0.758333 0.416667
vt 0.766667 0.416667
vt 0.700000 0.408333
vt 0.708333 0.408333
vt 0.716667 0.408333
vt 0.725000 0.408333
vt 0.733333 0.408333
vt 0.741667 0.408333
vt 0.750000 0.408333
vt 0.758333 0.408333
vt 0.766667 0.408333
vt 0.700000 0.400000
vt 0.708333 0.400000
vt 0.716667 0.400000
vt 0.725000 0.400000
vt 0.733333 0.400000
vt 0.741667 0.400000
vt 0.750000 0.400000
vt 0.758333 0.400000
vt 0.766667 0.400000
vt 0.700000 0.391667
vt 0.708333 0.391667
vt 0.716667 0.391667
vt 0.725000 0.391667
vt 0.733333 0.391667
vt 0.741667 0.391667
vt 0.750000 0.391667
vt 0.758333 0.391667
vt 0.766667 0.391667
vt 0.700000 0.383333
vt 0.708333 0.383333
vt 0.716667 0.383333
vt 0.725000 0.383333
vt 0.733333 0.383333
vt 0.741667 0.383333
vt 0.750000 0.383333
vt 0.758333 0.383333
vt 0.766667 0.383333
vt 0.700000 0.375000
vt 0.708333 0.375000
vt 0.716667 0.375000
vt 0.725000 0.375000
vt 0.733333 0.375000
vt 0.741667 0.375000
vt 0.750000 0.375000
vt 0.758333 0.375000
vt 0.766667 0.375000
vt 0.700000 0.366667
vt 0.708333 0.366667
vt 0.716667 0.366667
vt 0.725000 0.366667
vt 0.733333 0.366667
vt 0.741667 0.366667
vt 0.750000 0.366667
vt 0.758333 0.366667
vt 0.766667 0.366667

vn -0.02992 0.99946 -0.01360
vn -0.04315 0.99888 -0.01939
vn -0.03293 0.99928 -0.01888
vn -0.02438 0.99934 -0.02685
vn 0.01058 0.99957 -0.02723
vn 0.01897 0.99977 -0.00963
vn 0.05098 0.99855 0.01737
vn -0.00669 0.99996 0.00668
vn 0.02331 0.99665 0.07841
vn 0.03515 0.99814 0.04986
vn 0.02672 0.99911 0.03254
vn 0.06096 0.99669 0.05382
vn 0.05068 0.99858 0.01639
vn 0.03854 0.99860 0.03611
vn 0.02503 0.99964 0.00949
vn 0.02847 0.99958 0.00538
vn -0.01425 0.99984 0.01066
vn -0.00897 0.99991 0.00958
vn -0.05105 0.99869 0.00177
vn -0.01460 0.99977 -0.01556
vn 0.03667 0.99932 0.00297
vn 0.05281 0.99852 0.01308
vn 0.02737 0.99962 0.00111
vn 0.04731 0.99878 0.01413
vn 0.02823 0.99954 0.01064
vn 0.00190 0.99971 -0.02393
vn 0.01374 0.99986 -0.00939
vn -0.11183 0.99373 -0.00084
vn -0.01973 0.99971 0.01401
vn 0.04748 0.99669 0.06592
vn 0.04200 0.99870 0.02876
vn 0.03624 0.99931 0.00770
vn 0.03984 0.99910 0.01437
vn 0.00051 1.00000 -0.00114
vn 0.01108 0.99993 0.00414
vn 0.04915 0.99872 0.01166
vn -0.04717 0.99880 0.01353
vn 0.05227 0.99789 0.03846
vn 0.05719 0.99653 0.06042
vn -0.00554 0.99910 0.04201
vn 0.02587 0.99875 0.04272
vn 0.03847 0.99894 0.02544
vn 0.01101 0.99979 0.01727
vn 0.01470 0.99911 0.03953
vn 0.03407 0.99875 0.03669
vn -0.01256 0.99949 0.02924
vn 0.03843 0.99851 0.03880
vn 0.05108 0.99864 0.01027
vn 0.02450 0.99920 0.03147
vn 0.01965 0.99819 0.05685
vn 0.00500 0.99939 0.03456
vn 0.01461 0.99956 0.02583
vn 0.03238 0.99875 0.03795
vn 0.03786 0.99869 0.03457
vn 0.01116 0.99957 0.02708
vn 0.03337 0.99894 0.03177
vn 0.03953 0.99917 0.01032
vn 0.04108 0.99906 0.01414
vn 0.02202 0.99966 0.01426
vn 0.00740 0.99980 0.01843
vn 0.02816 0.99878 0.04062
vn 0.02347 0.99904 0.03702
vn 0.01221 0.99950 0.02913
vn 0.00624 0.99675 0.08029
vn 0.00586 0.99959 0.02805
vn 0.03348 0.99927 0.01845
vn 0.03692 0.99921 0.01449
vn 0.02395 0.99968 -0.00761
vn 0.02644 0.99961 0.00845
vn 0.03321 0.99910 0.02658
vn 0.01750 0.99966 0.01912
vn 0.00625 0.99972 0.02287
vn -0.05789 0.99682 0.05484
vn -0.02867 0.99955 -0.00931
vn 0.04358 0.99868 0.02708
vn 0.01504 0.99940 0.03123
vn 0.01501 0.99988 -0.00246
vn 0.04158 0.99912 -0.00454
vn 0.03587 0.99935 0.00447
vn 0.01976 0.99979 0.00609
vn 0.01367 0.99982 0.01351

f 1/1/1 2/2/2 3/3/3
f 1/1/1 3/3/3 4/4/4
f 4/4/4 3/3/3 5/5/5
f 5/5/5 3/3/3 6/6/6
f 5/5/5 6/6/6 7/7/7
f 5/5/5 7/7/7 8/8/8
f 8/8/8 7/7/7 9/9/9
f 9/9/9 7/7/7 10/10/10
f 9/9/9 10/10/10 11/11/11
f 9/9/9 11/11/11 12/12/12
f 12/12/12 11/11/11 13/13/13
f 13/13/13 11/11/11 14/14/14
f 13/13/13 14/14/14 15/15/15
f 13/13/13 15/15/15 16/16/16
f 16/16/16 15/15/15 17/17/17
f 17/17/17 15/15/15 18/18/18
f 2/2/2 19/19/19 3/3/3
f 3/3/3 19/19/19 20/20/20
f 3/3/3 20/20/20 21/21/21
f 3/3/3 21/21/21 6/6/6
f 6/6/6 21/21/21 7/7/7
f 7/7/7 21/21/21 22/22/22
f 7/7/7 22/22/22 23/23/23
f 7/7/7 23/23/23 10/10/10
f 10/10/10 23/23/23 11/11/11
f 11/11/11 23/23/23 24/24/24
f 11/11/11 24/24/24 25/25/25
f 11/11/11 25/25/25 14/14/14
f 14/14/14 25/25/25 15/15/15
f 15/15/15 25/25/25 26/26/26
f 15/15/15 26/26/26 27/27/27
f 15/15/15 27/27/27 18/18/18
f 19/19/19 28/28/28 29/29/29
f 19/19/19 29/29/29 20/20/20
f 20/20/20 29/29/29 21/21/21
f 21/21/21 29/29/29 30/30/30
f 21/21/21 30/30/30 31/31/31
f 21/21/21 31/31/31 22/22/22
f 22/22/22 31/31/31 23/23/23
f 23/23/23 31/31/31 32/32/32
f 23/23/23 32/32/32 33/33/33
f 23/23/23 33/33/33 24/24/24
f 24/24/24 33/33/33 25/25/25
f 25/25/25 33/33/33 34/34/34
f 25/25/25 34/34/34 35/35/35
f 25/25/25 35/35/35 26/26/26
f 26/26/26 35/35/35 27/27/27
f 27/27/27 35/35/35 36/36/36
f 28/28/28 37/37/37 29/29/29
f 29/29/29 37/37/37 38/38/38
f 29/29/29 38/38/38 39/39/39
f 29/29/29 39/39/39 30/30/30
f 30/30/30 39/39/39 31/31/31
f 31/31/31 39/39/39 40/40/40
f 31/31/31 40/40/40 41/41/41
f 31/31/31 41/41/41 32/32/32
f 32/32/32 41/41/41 33/33/33
f 33/33/33 41/41/41 42/42/42
f 33/33/33 42/42/42 43/43/43
f 33/33/33 43/43/43 34/34/34
f 34/34/34 43/43/43 35/35/35
f 35/35/35 43/43/43 44/44/44
f 35/35/35 44/44/44 45/45/45
f 35/35/35 45/45/45 36/36/36
f 37/37/37 46/46/46 47/47/47
f 37/37/37 47/47/47 38/38/38
f 38/38/38 47/47/47 39/39/39
f 39/39/39 47/47/47 48/48/48
f 39/39/39 48/48/48 49/49/49
f 39/39/39 49/49/49 40/40/40
f 40/40/40 49/49/49 41/41/41
f 41/41/41 49/49/49 50/50/50
f 41/41/41 50/50/50 51/51/51
f 41/41/41 51/51/51 42/42/42
f 42/42/42 51/51/51 43/43/43
f 43/43/43 51/51/51 52/52/52
f 43/43/43 52/52/52 53/53/53
f 43/43/43 53/53/53 44/44/44
f 44/44/44 53/53/53 45/45/45
f 45/45/45 53/53/53 54/54/54
f 46/46/46 55/55/55 47/47/47
f 47/47/47 55/55/55 56/56/56
f 47/47/47 56/56/56 57/57/57
f 47/47/47 57/57/57 48/48/48
f 48/48/48 57/57/57 49/49/49
f 49/49/49 57/57/57 58/58/58
f 49/49/49 58/58/58 59/59/59
f 49/49/49 59/59/59 50/50/50
f 50/50/50 59/59/59 51/51/51
f 51/51/51 59/59/59 60/60/60
f 51/51/51 60/60/60 61/61/61
f 51/51/51 61/61/61 52/52/52
f 52/52/52 61/61/61 53/53/53
f 53/53/53 61/61/61 62/62/62
f 53/53/53 62/62/62 63/63/63
f 53/53/53 63/63/63 54/54/54
f 55/55/55 64/64/64 65/65/65
f 55/55/55 65/65/65 56/56/56
f 56/56/56 65/65/65 57/57/57
f 57/57/57 65/65/65 66/66/66
f 57/57/57 66/66/66 67/67/67
f 57/57/57 67/67/67 58/58/58
f 58/58/58 67/67/67 59/59/59
f 59/59/59 67/67/67 68/68/68
f 59/59/59 68/68/68 69/69/69
f 59/59/59 69/69/69 60/60/60
f 60/60/60 69/69/69 61/61/61
f 61/61/61 69/69/69 70/70/70
f 61/61/61 70/70/70 71/71/71
f 61/61/61 71/71/71 62/62/62
f 62/62/62 71/71/71 63/63/63
f 63/63/63 71/71/71 72/72/72
f 64/64/64 73/73/73 65/65/65
f 65/65/65 73/73/73 74/74/74
f 65/65/65 74/74/74 75/75/75
f 65/65/65 75/75/75 66/66/66
f 66/66/66 75/75/75 67/67/67
f 67/67/67 75/75/75 76/76/76
f 67/67/67 76/76/76 77/77/77
f 67/67/67 77/77/77 68/68/68
f 68/68/68 77/77/77 69/69/69
f 69/69/69 77/77/77 78/78/78
f 69/69/69 78/78/78 79/79/79
f 69/69/69 79/79/79 70/70/70
f 70/70/70 79/79/79 71/71/71
f 71/71/71 79/79/79 80/80/80
f 71/71/71 80/80/80 81/81/81
f 71/71/71 81/81/81 72/72/72
