# Generated by tools/generate_island.py. Do not edit by hand.
o terrain_lod1_-1_-7

v -8.000 -10.800 -776.000 0.577 0.548 0.326
v -16.000 -10.800 -768.000 0.573 0.544 0.323
v -8.000 -10.762 -768.000 0.577 0.549 0.326
v 0.000 -10.431 -768.000 0.542 0.512 0.303
v 0.000 -10.800 -776.000 0.538 0.509 0.301

vt 0.495833 0.904167
vt 0.491667 0.900000
vt 0.495833 0.900000
vt 0.500000 0.900000
vt 0.500000 0.904167

vn -0.01538 0.99971 -0.01851
vn -0.00469 0.99998 -0.00469
vn -0.02307 0.99972 -0.00469
vn -0.02072 0.99946 -0.02541
vn 0.00000 0.99894 -0.04611

f 1/1/1 2/2/2 3/3/3
f 1/1/1 3/3/3 4/4/4
f 1/1/1 4/4/4 5/5/5
