# Generated by tools/generate_island.py. Do not edit by hand.
o terrain_lod2_-5_1

v -640.000 -3.062 128.000 0.400 0.367 0.210
v -640.000 -3.247 144.000 0.417 0.384 0.221
v -624.000 -3.544 144.000 0.388 0.354 0.202
v -624.000 -3.113 128.000 0.395 0.361 0.206
v -608.000 -2.739 128.000 0.399 0.365 0.209
v -608.000 -2.971 144.000 0.407 0.373 0.214
v -592.000 -2.093 144.000 0.459 0.427 0.248
v -592.000 -1.881 128.000 0.463 0.431 0.251
v -576.000 -1.750 128.000 0.497 0.467 0.274
v -576.000 -1.902 144.000 0.451 0.419 0.243
v -560.000 -1.396 144.000 0.467 0.436 0.254
v -560.000 -1.465 128.000 0.494 0.464 0.272
v -544.000 -0.714 128.000 0.469 0.437 0.255
v -544.000 -1.144 144.000 0.435 0.403 0.233
v -528.000 -1.521 144.000 0.368 0.333 0.188
v -528.000 -0.664 128.000 0.389 0.355 0.203
v -512.000 -1.399 128.000 0.361 0.326 0.184
v -512.000 -1.176 144.000 0.361 0.326 0.184
v -640.000 -4.053 160.000 0.394 0.360 0.206
v -624.000 -3.422 160.000 0.424 0.391 0.225
v -608.000 -2.494 160.000 0.397 0.363 0.207
v -592.000 -2.790 160.000 0.431 0.398 0.230
v -576.000 -2.586 160.000 0.469 0.437 0.255
v -560.000 -1.432 160.000 0.489 0.458 0.268
v -544.000 -1.095 160.000 0.453 0.421 0.245
v -528.000 -1.227 160.000 0.422 0.389 0.224
v -512.000 -0.993 160.000 0.403 0.370 0.212
v -640.000 -4.369 176.000 0.432 0.399 0.231
v -624.000 -3.817 176.000 0.428 0.396 0.228
v -608.000 -3.198 176.000 0.405 0.372 0.213
v -592.000 -3.067 176.000 0.427 0.394 0.227
v -576.000 -2.193 176.000 0.466 0.434 0.253
v -560.000 -1.761 176.000 0.460 0.429 0.249
v -544.000 -2.185 176.000 0.447 0.415 0.240
v -528.000 -1.573 176.000 0.424 0.391 0.226
v -512.000 -1.016 176.000 0.415 0.382 0.220
v -640.000 -4.551 192.000 0.417 0.384 0.221
v -624.000 -3.882 192.000 0.390 0.356 0.203
v -608.000 -3.766 192.000 0.385 0.351 0.200
v -592.000 -3.499 192.000 0.437 0.404 0.234
v -576.000 -2.517 192.000 0.497 0.467 0.274
v -560.000 -2.232 192.000 0.465 0.433 0.252
v -544.000 -2.064 192.000 0.420 0.387 0.223
v -528.000 -1.657 192.000 0.428 0.396 0.228
v -512.000 -1.708 192.000 0.421 0.388 0.223
v -640.000 -4.804 208.000 0.408 0.375 0.215
v -624.000 -4.306 208.000 0.408 0.375 0.215
v -608.000 -4.408 208.000 0.395 0.361 0.206
v -592.000 -3.590 208.000 0.460 0.428 0.249
v -576.000 -2.888 208.000 0.498 0.467 0.274
v -560.000 -2.858 208.000 0.480 0.449 0.262
v -544.000 -2.436 208.000 0.462 0.430 0.250
v -528.000 -2.233 208.000 0.430 0.398 0.230
v -512.000 -2.427 208.000 0.414 0.381 0.219
v -640.000 -5.483 224.000 0.393 0.359 0.205
v -624.000 -5.137 224.000 0.420 0.387 0.223
v -608.000 -4.427 224.000 0.416 0.383 0.220
v -592.000 -3.731 224.000 0.467 0.436 0.254
v -576.000 -3.910 224.000 0.526 0.496 0.292
v -560.000 -3.506 224.000 0.500 0.470 0.276
v -544.000 -2.859 224.000 0.498 0.468 0.274
v -528.000 -2.855 224.000 0.437 0.405 0.234
v -512.000 -2.947 224.000 0.414 0.381 0.219
v -640.000 -5.525 240.000 0.369 0.335 0.189
v -624.000 -5.868 240.000 0.361 0.326 0.184
v -608.000 -5.183 240.000 0.413 0.380 0.218
v -592.000 -4.514 240.000 0.476 0.445 0.260
v -576.000 -4.308 240.000 0.535 0.506 0.299
v -560.000 -3.786 240.000 0.525 0.495 0.292
v -544.000 -4.033 240.000 0.473 0.441 0.257
v -528.000 -4.399 240.000 0.463 0.431 0.251
v -512.000 -3.547 240.000 0.454 0.422 0.245
v -640.000 -6.475 256.000 0.418 0.385 0.221
v -624.000 -5.865 256.000 0.396 0.362 0.207
v -608.000 -5.153 256.000 0.398 0.364 0.208
v -592.000 -5.527 256.000 0.435 0.402 0.232
v -576.000 -5.302 256.000 0.471 0.439 0.256
v -560.000 -4.636 256.000 0.447 0.415 0.240
v -544.000 -5.077 256.000 0.448 0.416 0.241
v -528.000 -4.900 256.000 0.469 0.437 0.255
v -512.000 -4.222 256.000 0.477 0.446 0.260

vt 0.166667 0.433333
vt 0.166667 0.425000
vt 0.175000 0.425000
vt 0.175000 0.433333
vt 0.183333 0.433333
vt 0.183333 0.425000
vt 0.191667 0.425000
vt 0.191667 0.433333
vt 0.200000 0.433333
vt 0.200000 0.425000
vt 0.208333 0.425000
vt 0.208333 0.433333
vt 0.216667 0.433333
vt 0.216667 0.425000
vt 0.225000 0.425000
vt 0.225000 0.433333
vt 0.233333 0.433333
vt 0.233333 0.425000
vt 0.166667 0.416667
vt 0.175000 0.416667
vt 0.183333 0.416667
vt 0.191667 0.416667
vt 0.200000 0.416667
vt 0.208333 0.416667
vt 0.216667 0.416667
vt 0.225000 0.416667
vt 0.233333 0.416667
vt 0.166667 0.408333
vt 0.175000 0.408333
vt 0.183333 0.408333
vt 0.191667 0.408333
vt 0.200000 0.408333
vt 0.208333 0.408333
vt 0.216667 0.408333
vt 0.225000 0.408333
vt 0.233333 0.408333
vt 0.166667 0.400000
vt 0.175000 0.400000
vt 0.183333 0.400000
vt 0.191667 0.400000
vt 0.200000 0.400000
vt 0.208333 0.400000
vt 0.216667 0.400000
vt 0.225000 0.400000
vt 0.233333 0.400000
vt 0.166667 0.391667
vt 0.175000 0.391667
vt 0.183333 0.391667
vt 0.191667 0.391667
vt 0.200000 0.391667
vt 0.208333 0.391667
vt 0.216667 0.391667
vt 0.225000 0.391667
vt 0.233333 0.391667
vt 0.166667 0.383333
vt 0.175000 0.383333
vt 0.183333 0.383333
vt 0.191667 0.383333
vt 0.200000 0.383333
vt 0.208333 0.383333
vt 0.216667 0.383333
vt 0.225000 0.383333
vt 0.233333 0.383333
vt 0.166667 0.375000
vt 0.175000 0.375000
vt 0.183333 0.375000
vt 0.191667 0.375000
vt 0.200000 0.375000
vt 0.208333 0.375000
vt 0.216667 0.375000
vt 0.225000 0.375000
vt 0.233333 0.375000
vt 0.166667 0.366667
vt 0.175000 0.366667
vt 0.183333 0.366667
vt 0.191667 0.366667
vt 0.200000 0.366667
vt 0.208333 0.366667
vt 0.216667 0.366667
vt 0.225000 0.366667
vt 0.233333 0.366667

vn 0.01085 0.99976 0.01925
vn 0.01856 0.99935 0.03093
vn -0.01902 0.99976 0.01065
vn -0.01009 0.99959 0.02696
vn -0.04188 0.99897 0.01725
vn -0.04531 0.99894 -0.00767
vn -0.02370 0.99954 0.01881
vn -0.03091 0.99943 0.01322
vn -0.01738 0.99982 0.00698
vn -0.02175 0.99942 0.02611
vn -0.03156 0.99946 0.00899
vn -0.03236 0.99947 -0.00429
vn -0.01056 0.99961 0.02574
vn 0.00389 0.99992 0.01192
vn 0.00505 0.99995 0.00860
vn 0.02138 0.99834 0.05346
vn 0.01218 0.99973 0.01979
vn -0.02157 0.99969 -0.01270
vn -0.02368 0.99948 0.02178
vn -0.04866 0.99878 0.00852
vn -0.02705 0.99955 0.01330
vn 0.00288 0.99953 0.03045
vn -0.03684 0.99921 0.01501
vn -0.04652 0.99885 0.01138
vn -0.00370 0.99980 0.01952
vn -0.00321 0.99999 0.00162
vn -0.02140 0.99977 -0.00168
vn -0.03445 0.99929 0.01557
vn -0.03658 0.99911 0.02100
vn -0.02340 0.99894 0.03971
vn -0.02472 0.99948 0.02046
vn -0.04080 0.99917 -0.00216
vn -0.01531 0.99969 0.01953
vn -0.00587 0.99952 0.03027
vn -0.02183 0.99956 0.01989
vn -0.03476 0.99915 0.02235
vn -0.03731 0.99920 0.01442
vn -0.02454 0.99958 0.01526
vn -0.01742 0.99949 0.02679
vn -0.03900 0.99911 0.01631
vn -0.03569 0.99909 0.02348
vn -0.01412 0.99931 0.03426
vn -0.01532 0.99973 0.01765
vn -0.01112 0.99973 0.02064
vn -0.00408 0.99947 0.03234
vn -0.03112 0.99909 0.02907
vn -0.02056 0.99928 0.03202
vn -0.02236 0.99954 0.02065
vn -0.03752 0.99910 0.01966
vn -0.02284 0.99879 0.04349
vn -0.01879 0.99914 0.03697
vn -0.01951 0.99950 0.02483
vn -0.00224 0.99940 0.03457
vn 0.01207 0.99918 0.03867
vn -0.01322 0.99928 0.03566
vn -0.03294 0.99827 0.04875
vn -0.03809 0.99878 0.03150
vn -0.01613 0.99945 0.02886
vn -0.01491 0.99922 0.03664
vn -0.03280 0.99904 0.02897
vn -0.01026 0.99874 0.04907
vn 0.00273 0.99771 0.06753
vn -0.00740 0.99866 0.05128
vn 0.02144 0.99929 0.03099
vn -0.02390 0.99941 0.02479
vn -0.04229 0.99885 0.02267
vn -0.01652 0.99887 0.04456
vn -0.02272 0.99880 0.04346
vn -0.01425 0.99885 0.04580
vn 0.01912 0.99742 0.06913
vn -0.01357 0.99816 0.05914
vn -0.05315 0.99779 0.03976
vn -0.00833 0.99953 0.02956
vn -0.04127 0.99915 -0.00021
vn -0.02643 0.99954 0.01483
vn 0.00466 0.99799 0.06321
vn -0.02525 0.99788 0.06004
vn -0.00702 0.99857 0.05304
vn 0.01369 0.99847 0.05365
vn -0.02670 0.99915 0.03127
vn -0.04773 0.99819 0.03669

f 1/1/1 2/2/2 3/3/3
f 1/1/1 3/3/3 4/4/4
f 4/4/4 3/3/3 5/5/5
f 5/5/5 3/3/3 6/6/6
f 5/5/5 6/6/6 7/7/7
f 5/5/5 7/7/7 8/8/8
f 8/8/8 7/7/7 9/9/9
f 9/9/9 7/7/7 10/10/10
f 9/9/9 10/10/10 11/11/11
f 9/9/9 11/11/11 12/12/12
f 12/12/12 11/11/11 13/13/13
f 13/13/13 11/11/11 14/14/14
f 13/13/13 14/14/14 15/15/15
f 13/13/13 15/15/15 16/16/16
f 16/16/16 15/15/15 17/17/17
f 17/17/17 15/15/15 18/18/18
f 2/2/2 19/19/19 3/3/3
f 3/3/3 19/19/19 20/20/20
f 3/3/3 20/20/20 21/21/21
f 3/3/3 21/21/21 6/6/6
f 6/6/6 21/21/21 7/7/7
f 7/7/7 21/21/21 22/22/22
f 7/7/7 22/22/22 23/23/23
f 7/7/7 23/23/23 10/10/10
f 10/10/10 23/23/23 11/11/11
f 11/11/11 23/23/23 24/24/24
f 11/11/11 24/24/24 25/25/25
f 11/11/11 25/25/25 14/14/14
f 14/14/14 25/25/25 15/15/15
f 15/15/15 25/25/25 26/26/26
f 15/15/15 26/26/26 27/27/27
f 15/15/15 27/27/27 18/18/18
f 19/19/19 28/28/28 29/29/29
f 19/19/19 29/29/29 20/20/20
f 20/20/20 29/29/29 21/21/21
f 21/21/21 29/29/29 30/30/30
f 21/21/21 30/30/30 31/31/31
f 21/21/21 31/31/31 22/22/22
f 22/22/22 31/31/31 23/23/23
f 23/23/23 31/31/31 32/32/32
f 23/23/23 32/32/32 33/33/33
f 23/23/23 33/33/33 24/24/24
f 24/24/24 33/33/33 25/25/25
f 25/25/25 33/33/33 34/34/34
f 25/25/25 34/34/34 35/35/35
f 25/25/25 35/35/35 26/26/26
f 26/26/26 35/35/35 27/27/27
f 27/27/27 35/35/35 36/36/36
f 28/28/28 37/37/37 29/29/29
f 29/29/29 37/37/37 38/38/38
f 29/29/29 38/38/38 39/39/39
f 29/29/29 39/39/39 30/30/30
f 30/30/30 39/39/39 31/31/31
f 31/31/31 39/39/39 40/40/40
f 31/31/31 40/40/40 41/41/41
f 31/31/31 41/41/41 32/32/32
f 32/32/32 41/41/41 33/33/33
f 33/33/33 41/41/41 42/42/42
f 33/33/33 42/42/42 43/43/43
f 33/33/33 43/43/43 34/34/34
f 34/34/34 43/43/43 35/35/35
f 35/35/35 43/43/43 44/44/44
f 35/35/35 44/44/44 45/45/45
f 35/35/35 45/45/45 36/36/36
f 37/37/37 46/46/46 47/47/47
f 37/37/37 47/47/47 38/38/38
f 38/38/38 47/47/47 39/39/39
f 39/39/39 47/47/47 48/48/48
f 39/39/39 48/48/48 49/49/49
f 39/39/39 49/49/49 40/40/40
f 40/40/40 49/49/49 41/41/41
f 41/41/41 49/49/49 50/50/50
f 41/41/41 50/50/50 51/51/51
f 41/41/41 51/51/51 42/42/42
f 42/42/42 51/51/51 43/43/43
f 43/43/43 51/51/51 52/52/52
f 43/43/43 52/52/52 53/53/53
f 43/43/43 53/53/53 44/44/44
f 44/44/44 53/53/53 45/45/45
f 45/45/45 53/53/53 54/54/54
f 46/46/46 55/55/55 47/47/47
f 47/47/47 55/55/55 56/56/56
f 47/47/47 56/56/56 57/57/57
f 47/47/47 57/57/57 48/48/48
f 48/48/48 57/57/57 49/49/49
f 49/49/49 57/57/57 58/58/58
f 49/49/49 58/58/58 59/59/59
f 49/49/49 59/59/59 50/50/50
f 50/50/50 59/59/59 51/51/51
f 51/51/51 59/59/59 60/60/60
f 51/51/51 60/60/60 61/61/61
f 51/51/51 61/61/61 52/52/52
f 52/52/52 61/61/61 53/53/53
f 53/53/53 61/61/61 62/62/62
f 53/53/53 62/62/62 63/63/63
f 53/53/53 63/63/63 54/54/54
f 55/55/55 64/64/64 65/65/65
f 55/55/55 65/65/65 56/56/56
f 56/56/56 65/65/65 57/57/57
f 57/57/57 65/65/65 66/66/66
f 57/57/57 66/66/66 67/67/67
f 57/57/57 67/67/67 58/58/58
f 58/58/58 67/67/67 59/59/59
f 59/59/59 67/67/67 68/68/68
f 59/59/59 68/68/68 69/69/69
f 59/59/59 69/69/69 60/60/60
f 60/60/60 69/69/69 61/61/61
f 61/61/61 69/69/69 70/70/70
f 61/61/61 70/70/70 71/71/71
f 61/61/61 71/71/71 62/62/62
f 62/62/62 71/71/71 63/63/63
f 63/63/63 71/71/71 72/72/72
f 64/64/64 73/73/73 65/65/65
f 65/65/65 73/73/73 74/74/74
f 65/65/65 74/74/74 75/75/75
f 65/65/65 75/75/75 66/66/66
f 66/66/66 75/75/75 67/67/67
f 67/67/67 75/75/75 76/76/76
f 67/67/67 76/76/76 77/77/77
f 67/67/67 77/77/77 68/68/68
f 68/68/68 77/77/77 69/69/69
f 69/69/69 77/77/77 78/78/78
f 69/69/69 78/78/78 79/79/79
f 69/69/69 79/79/79 70/70/70
f 70/70/70 79/79/79 71/71/71
f 71/71/71 79/79/79 80/80/80
f 71/71/71 80/80/80 81/81/81
f 71/71/71 81/81/81 72/72/72
