# Generated by tools/generate_island.py. Do not edit by hand.
o terrain_lod2_1_0

v 64.000 1.876 0.000 0.206 0.289 0.105
v 64.000 1.197 8.000 0.474 0.443 0.259
v 72.000 0.888 8.000 0.512 0.482 0.284
v 72.000 0.713 0.000 0.518 0.488 0.287
v 80.000 1.184 0.000 0.545 0.515 0.305
v 80.000 0.336 8.000 0.545 0.515 0.305
v 88.000 0.162 8.000 0.516 0.488 0.288
v 88.000 1.618 0.000 0.268 0.337 0.126
v 96.000 1.342 0.000 0.240 0.331 0.119
v 96.000 -0.193 8.000 0.470 0.445 0.263
v 104.000 -1.183 8.000 0.471 0.447 0.265
v 104.000 1.499 0.000 0.245 0.332 0.120
v 112.000 1.325 0.000 0.164 0.292 0.147
v 112.000 -1.253 8.000 0.496 0.471 0.280
v 120.000 -1.618 8.000 0.442 0.420 0.249
v 120.000 0.154 0.000 0.409 0.389 0.231
v 128.000 -1.040 0.000 0.405 0.385 0.228
v 128.000 -1.677 8.000 0.415 0.395 0.234
v 64.000 0.496 16.000 0.502 0.472 0.277
v 72.000 0.528 16.000 0.452 0.425 0.250
v 80.000 -0.227 16.000 0.416 0.391 0.230
v 88.000 0.119 16.000 0.434 0.407 0.239
v 96.000 -0.446 16.000 0.374 0.352 0.207
v 104.000 -2.823 16.000 0.372 0.350 0.206
v 112.000 -3.634 16.000 0.413 0.391 0.232
v 120.000 -4.634 16.000 0.493 0.468 0.278
v 128.000 -4.785 16.000 0.529 0.503 0.299
v 64.000 0.027 24.000 0.452 0.424 0.249
v 72.000 -0.731 24.000 0.374 0.352 0.207
v 80.000 -0.483 24.000 0.371 0.349 0.206
v 88.000 -0.537 24.000 0.358 0.335 0.196
v 96.000 -2.046 24.000 0.360 0.338 0.198
v 104.000 -2.671 24.000 0.359 0.337 0.197
v 112.000 -4.684 24.000 0.393 0.372 0.220
v 120.000 -8.000 24.000 0.458 0.435 0.258
v 128.000 -8.000 24.000 0.563 0.535 0.318
v 64.000 0.127 32.000 0.416 0.390 0.229
v 72.000 -0.386 32.000 0.367 0.345 0.203
v 80.000 -0.618 32.000 0.364 0.342 0.201
v 88.000 -1.087 32.000 0.351 0.329 0.192
v 96.000 -1.842 32.000 0.343 0.321 0.187
v 104.000 -2.532 32.000 0.348 0.325 0.190
v 112.000 -3.664 32.000 0.389 0.367 0.217
v 120.000 -4.856 32.000 0.470 0.446 0.265
v 128.000 -4.628 32.000 0.553 0.524 0.311
v 64.000 0.618 40.000 0.384 0.361 0.212
v 72.000 0.366 40.000 0.363 0.341 0.201
v 80.000 0.426 40.000 0.365 0.343 0.202
v 88.000 0.252 40.000 0.359 0.335 0.195
v 96.000 -0.531 40.000 0.385 0.359 0.209
v 104.000 -1.607 40.000 0.357 0.332 0.193
v 112.000 -2.022 40.000 0.412 0.387 0.227
v 120.000 -2.302 40.000 0.502 0.474 0.280
v 128.000 -2.013 40.000 0.513 0.483 0.284
v 64.000 1.382 48.000 0.120 0.229 0.118
v 72.000 1.104 48.000 0.361 0.339 0.199
v 80.000 1.507 48.000 0.117 0.222 0.114
v 88.000 1.075 48.000 0.382 0.356 0.207
v 96.000 0.518 48.000 0.440 0.409 0.237
v 104.000 -0.901 48.000 0.429 0.398 0.231
v 112.000 -1.001 48.000 0.453 0.422 0.245
v 120.000 -1.113 48.000 0.480 0.449 0.262
v 128.000 -1.441 48.000 0.481 0.449 0.263
v 64.000 1.456 56.000 0.150 0.279 0.143
v 72.000 1.439 56.000 0.130 0.244 0.125
v 80.000 1.576 56.000 0.127 0.242 0.125
v 88.000 0.865 56.000 0.413 0.383 0.221
v 96.000 0.124 56.000 0.429 0.396 0.228
v 104.000 -0.710 56.000 0.439 0.407 0.235
v 112.000 -0.887 56.000 0.449 0.417 0.242
v 120.000 -0.781 56.000 0.451 0.419 0.243
v 128.000 -1.435 56.000 0.472 0.440 0.257
v 64.000 0.619 64.000 0.499 0.469 0.275
v 72.000 1.018 64.000 0.490 0.461 0.270
v 80.000 0.949 64.000 0.478 0.447 0.262
v 88.000 0.249 64.000 0.452 0.420 0.244
v 96.000 -0.705 64.000 0.439 0.407 0.235
v 104.000 -0.877 64.000 0.442 0.410 0.237
v 112.000 -1.228 64.000 0.436 0.403 0.233
v 120.000 -1.571 64.000 0.445 0.413 0.239
v 128.000 -2.207 64.000 0.488 0.457 0.268

vt 0.633333 0.500000
vt 0.633333 0.483333
vt 0.650000 0.483333
vt 0.650000 0.500000
vt 0.666667 0.500000
vt 0.666667 0.483333
vt 0.683333 0.483333
vt 0.683333 0.500000
vt 0.700000 0.500000
vt 0.700000 0.483333
vt 0.716667 0.483333
vt 0.716667 0.500000
vt 0.733333 0.500000
vt 0.733333 0.483333
vt 0.750000 0.483333
vt 0.750000 0.500000
vt 0.766667 0.500000
vt 0.766667 0.483333
vt 0.633333 0.466667
vt 0.650000 0.466667
vt 0.666667 0.466667
vt 0.683333 0.466667
vt 0.700000 0.466667
vt 0.716667 0.466667
vt 0.733333 0.466667
vt 0.750000 0.466667
vt 0.766667 0.466667
vt 0.633333 0.450000
vt 0.650000 0.450000
vt 0.666667 0.450000
vt 0.683333 0.450000
vt 0.700000 0.450000
vt 0.716667 0.450000
vt 0.733333 0.450000
vt 0.750000 0.450000
vt 0.766667 0.450000
vt 0.633333 0.433333
vt 0.650000 0.433333
vt 0.666667 0.433333
vt 0.683333 0.433333
vt 0.700000 0.433333
vt 0.716667 0.433333
vt 0.733333 0.433333
vt 0.750000 0.433333
vt 0.766667 0.433333
vt 0.633333 0.416667
vt 0.650000 0.416667
vt 0.666667 0.416667
vt 0.683333 0.416667
vt 0.700000 0.416667
vt 0.716667 0.416667
vt 0.733333 0.416667
vt 0.750000 0.416667
vt 0.766667 0.416667
vt 0.633333 0.400000
vt 0.650000 0.400000
vt 0.666667 0.400000
vt 0.683333 0.400000
vt 0.700000 0.400000
vt 0.716667 0.400000
vt 0.733333 0.400000
vt 0.750000 0.400000
vt 0.766667 0.400000
vt 0.633333 0.383333
vt 0.650000 0.383333
vt 0.666667 0.383333
vt 0.683333 0.383333
vt 0.700000 0.383333
vt 0.716667 0.383333
vt 0.733333 0.383333
vt 0.750000 0.383333
vt 0.766667 0.383333
vt 0.633333 0.366667
vt 0.650000 0.366667
vt 0.666667 0.366667
vt 0.683333 0.366667
vt 0.700000 0.366667
vt 0.716667 0.366667
vt 0.733333 0.366667
vt 0.750000 0.366667
vt 0.766667 0.366667

vn 0.09150 0.99531 0.03138
vn 0.03841 0.99557 0.08586
vn 0.04889 0.99759 0.04927
vn 0.04321 0.99883 -0.02180
vn -0.00555 0.99569 0.09262
vn 0.04515 0.99512 0.08772
vn 0.01740 0.99520 0.09633
vn -0.00972 0.98380 0.17901
vn 0.04459 0.97459 0.21953
vn 0.08328 0.99037 0.11064
vn 0.08062 0.96912 0.23305
vn 0.00100 0.94812 0.31792
vn 0.05318 0.95639 0.28720
vn 0.02593 0.95485 0.29596
vn 0.06545 0.95948 0.27406
vn 0.14284 0.96632 0.21407
vn 0.07730 0.98589 0.14846
vn 0.00726 0.97366 0.22787
vn 0.03119 0.99574 0.08679
vn 0.04489 0.99391 0.10060
vn 0.02103 0.99788 0.06167
vn 0.01367 0.99895 0.04365
vn 0.14417 0.98539 0.09070
vn 0.19464 0.97666 0.09079
vn 0.14148 0.96471 0.22207
vn 0.06664 0.92677 0.36968
vn 0.01050 0.92938 0.36898
vn 0.09433 0.99528 0.02292
vn 0.03879 0.99843 0.04036
vn -0.01215 0.99963 0.02443
vn 0.07105 0.99533 0.06530
vn 0.13169 0.98754 0.08615
vn 0.15869 0.98724 0.01300
vn 0.31602 0.94875 0.00173
vn 0.13541 0.99078 0.00489
vn 0.00000 0.99995 -0.00983
vn 0.06341 0.99660 -0.05257
vn 0.04641 0.99658 -0.06833
vn 0.02060 0.99812 -0.05776
vn 0.07616 0.99588 -0.04913
vn 0.10663 0.99142 -0.07563
vn 0.11290 0.99142 -0.06590
vn 0.16171 0.96970 -0.18311
vn 0.05667 0.94054 -0.33493
vn -0.02189 0.93911 -0.34292
vn 0.03136 0.99645 -0.07816
vn 0.01560 0.99498 -0.09886
vn 0.00702 0.99128 -0.13162
vn 0.06375 0.98865 -0.13604
vn 0.11422 0.98283 -0.14491
vn 0.09751 0.98700 -0.12774
vn 0.04282 0.98553 -0.16398
vn 0.02119 0.97876 -0.20392
vn -0.03547 0.98012 -0.19521
vn 0.02575 0.99789 -0.05962
vn -0.00775 0.99773 -0.06692
vn 0.01162 0.99800 -0.06217
vn 0.06165 0.99737 -0.03821
vn 0.11454 0.99245 -0.04374
vn 0.09436 0.99398 -0.05573
vn 0.01856 0.99716 -0.07305
vn 0.02734 0.99514 -0.09461
vn 0.03177 0.99735 -0.06543
vn 0.00219 0.99886 0.04767
vn -0.01086 0.99967 0.02332
vn 0.03579 0.99875 0.03479
vn 0.08624 0.99484 0.05336
vn 0.09771 0.99232 0.07584
vn 0.06336 0.99775 0.02187
vn 0.00445 0.99989 0.01416
vn 0.03924 0.99879 0.02980
vn 0.08133 0.99555 0.04769
vn -0.02378 0.99664 0.07839
vn -0.02063 0.99841 0.05252
vn 0.04182 0.99657 0.07137
vn 0.10256 0.99178 0.07647
vn 0.08388 0.99358 0.07586
vn 0.03265 0.99925 0.02092
vn 0.02387 0.99841 0.05116
vn 0.06081 0.99331 0.09813
vn 0.07995 0.99208 0.09691

f 1/1/1 2/2/2 3/3/3
f 1/1/1 3/3/3 4/4/4
f 4/4/4 3/3/3 5/5/5
f 5/5/5 3/3/3 6/6/6
f 5/5/5 6/6/6 7/7/7
f 5/5/5 7/7/7 8/8/8
f 8/8/8 7/7/7 9/9/9
f 9/9/9 7/7/7 10/10/10
f 9/9/9 10/10/10 11/11/11
f 9/9/9 11/11/11 12/12/12
f 12/12/12 11/11/11 13/13/13
f 13/13/13 11/11/11 14/14/14
f 13/13/13 14/14/14 15/15/15
f 13/13/13 15/15/15 16/16/16
f 16/16/16 15/15/15 17/17/17
f 17/17/17 15/15/15 18/18/18
f 2/2/2 19/19/19 3/3/3
f 3/3/3 19/19/19 20/20/20
f 3/3/3 20/20/20 21/21/21
f 3/3/3 21/21/21 6/6/6
f 6/6/6 21/21/21 7/7/7
f 7/7/7 21/21/21 22/22/22
f 7/7/7 22/22/22 23/23/23
f 7/7/7 23/23/23 10/10/10
f 10/10/10 23/23/23 11/11/11
f 11/11/11 23/23/23 24/24/24
f 11/11/11 24/24/24 25/25/25
f 11/11/11 25/25/25 14/14/14
f 14/14/14 25/25/25 15/15/15
f 15/15/15 25/25/25 26/26/26
f 15/15/15 26/26/26 27/27/27
f 15/15/15 27/27/27 18/18/18
f 19/19/19 28/28/28 29/29/29
f 19/19/19 29/29/29 20/20/20
f 20/20/20 29/29/29 21/21/21
f 21/21/21 29/29/29 30/30/30
f 21/21/21 30/30/30 31/31/31
f 21/21/21 31/31/31 22/22/22
f 22/22/22 31/31/31 23/23/23
f 23/23/23 31/31/31 32/32/32
f 23/23/23 32/32/32 33/33/33
f 23/23/23 33/33/33 24/24/24
f 24/24/24 33/33/33 25/25/25
f 25/25/25 33/33/33 34/34/34
f 25/25/25 34/34/34 35/35/35
f 25/25/25 35/35/35 26/26/26
f 26/26/26 35/35/35 27/27/27
f 27/27/27 35/35/35 36/36/36
f 28/28/28 37/37/37 29/29/29
f 29/29/29 37/37/37 38/38/38
f 29/29/29 38/38/38 39/39/39
f 29/29/29 39/39/39 30/30/30
f 30/30/30 39/39/39 31/31/31
f 31/31/31 39/39/39 40/40/40
f 31/31/31 40/40/40 41/41/41
f 31/31/31 41/41/41 32/32/32
f 32/32/32 41/41/41 33/33/33
f 33/33/33 41/41/41 42/42/42
f 33/33/33 42/42/42 43/43/43
f 33/33/33 43/43/43 34/34/34
f 34/34/34 43/43/43 35/35/35
f 35/35/35 43/43/43 44/44/44
f 35/35/35 44/44/44 45/45/45
f 35/35/35 45/45/45 36/36/36
f 37/37/37 46/46/46 47/47/47
f 37/37/37 47/47/47 38/38/38
f 38/38/38 47/47/47 39/39/39
f 39/39/39 47/47/47 48/48/48
f 39/39/39 48/48/48 49/49/49
f 39/39/39 49/49/49 40/40/40
f 40/40/40 49/49/49 41/41/41
f 41/41/41 49/49/49 50/50/50
f 41/41/41 50/50/50 51/51/51
f 41/41/41 51/51/51 42/42/42
f 42/42/42 51/51/51 43/43/43
f 43/43/43 51/51/51 52/52/52
f 43/43/43 52/52/52 53/53/53
f 43/43/43 53/53/53 44/44/44
f 44/44/44 53/53/53 45/45/45
f 45/45/45 53/53/53 54/54/54
f 46/46/46 55/55/55 47/47/47
f 47/47/47 55/55/55 56/56/56
f 47/47/47 56/56/56 57/57/57
f 47/47/47 57/57/57 48/48/48
f 48/48/48 57/57/57 49/49/49
f 49/49/49 57/57/57 58/58/58
f 49/49/49 58/58/58 59/59/59
f 49/49/49 59/59/59 50/50/50
f 50/50/50 59/59/59 51/51/51
f 51/51/51 59/59/59 60/60/60
f 51/51/51 60/60/60 61/61/61
f 51/51/51 61/61/61 52/52/52
f 52/52/52 61/61/61 53/53/53
f 53/53/53 61/61/61 62/62/62
f 53/53/53 62/62/62 63/63/63
f 53/53/53 63/63/63 54/54/54
f 55/55/55 64/64/64 65/65/65
f 55/55/55 65/65/65 56/56/56
f 56/56/56 65/65/65 57/57/57
f 57/57/57 65/65/65 66/66/66
f 57/57/57 66/66/66 67/67/67
f 57/57/57 67/67/67 58/58/58
f 58/58/58 67/67/67 59/59/59
f 59/59/59 67/67/67 68/68/68
f 59/59/59 68/68/68 69/69/69
f 59/59/59 69/69/69 60/60/60
f 60/60/60 69/69/69 61/61/61
f 61/61/61 69/69/69 70/70/70
f 61/61/61 70/70/70 71/71/71
f 61/61/61 71/71/71 62/62/62
f 62/62/62 71/71/71 63/63/63
f 63/63/63 71/71/71 72/72/72
f 64/64/64 73/73/73 65/65/65
f 65/65/65 73/73/73 74/74/74
f 65/65/65 74/74/74 75/75/75
f 65/65/65 75/75/75 66/66/66
f 66/66/66 75/75/75 67/67/67
f 67/67/67 75/75/75 76/76/76
f 67/67/67 76/76/76 77/77/77
f 67/67/67 77/77/77 68/68/68
f 68/68/68 77/77/77 69/69/69
f 69/69/69 77/77/77 78/78/78
f 69/69/69 78/78/78 79/79/79
f 69/69/69 79/79/79 70/70/70
f 70/70/70 79/79/79 71/71/71
f 71/71/71 79/79/79 80/80/80
f 71/71/71 80/80/80 81/81/81
f 71/71/71 81/81/81 72/72/72
