# Generated by tools/generate_island.py. Do not edit by hand.
o terrain_lod2_3_-4

v 384.000 -8.513 -512.000 0.478 0.446 0.261
v 384.000 -8.029 -496.000 0.481 0.450 0.263
v 400.000 -9.233 -496.000 0.455 0.423 0.246
v 400.000 -9.478 -512.000 0.479 0.448 0.261
v 416.000 -10.536 -512.000 0.467 0.435 0.254
v 416.000 -9.295 -496.000 0.486 0.455 0.266
v 432.000 -9.861 -496.000 0.473 0.442 0.258
v 432.000 -10.800 -512.000 0.484 0.453 0.265
v 448.000 -10.800 -512.000 0.457 0.425 0.247
v 448.000 -10.800 -496.000 0.476 0.445 0.260
v 384.000 -7.382 -480.000 0.466 0.434 0.253
v 400.000 -8.225 -480.000 0.497 0.467 0.274
v 416.000 -8.353 -480.000 0.495 0.465 0.272
v 432.000 -9.478 -480.000 0.502 0.471 0.276
v 448.000 -10.196 -480.000 0.503 0.473 0.278
v 464.000 -10.800 -496.000 0.497 0.467 0.274
v 464.000 -10.492 -480.000 0.526 0.496 0.292
v 480.000 -10.800 -480.000 0.465 0.434 0.253
v 384.000 -7.145 -464.000 0.427 0.394 0.227
v 400.000 -7.398 -464.000 0.453 0.421 0.245
v 416.000 -8.142 -464.000 0.463 0.431 0.251
v 432.000 -8.888 -464.000 0.534 0.504 0.297
v 448.000 -8.822 -464.000 0.559 0.530 0.314
v 464.000 -9.728 -464.000 0.519 0.489 0.288
v 480.000 -10.800 -464.000 0.504 0.474 0.278
v 384.000 -6.504 -448.000 0.399 0.365 0.209
v 400.000 -6.533 -448.000 0.395 0.361 0.206
v 416.000 -7.552 -448.000 0.468 0.436 0.254
v 432.000 -8.107 -448.000 0.539 0.509 0.301
v 448.000 -8.355 -448.000 0.570 0.542 0.322
v 464.000 -9.268 -448.000 0.524 0.494 0.291
v 480.000 -9.840 -448.000 0.558 0.529 0.314
v 496.000 -10.800 -464.000 0.477 0.446 0.260
v 496.000 -10.228 -448.000 0.551 0.522 0.309
v 512.000 -10.800 -448.000 0.503 0.472 0.277
v 384.000 -5.722 -432.000 0.361 0.326 0.184
v 400.000 -6.681 -432.000 0.363 0.328 0.185
v 416.000 -7.310 -432.000 0.434 0.402 0.232
v 432.000 -6.984 -432.000 0.465 0.434 0.253
v 448.000 -7.759 -432.000 0.483 0.452 0.264
v 464.000 -8.902 -432.000 0.540 0.511 0.302
v 480.000 -9.094 -432.000 0.564 0.536 0.318
v 496.000 -9.599 -432.000 0.585 0.557 0.331
v 512.000 -10.375 -432.000 0.518 0.488 0.287
v 384.000 -4.792 -416.000 0.361 0.326 0.184
v 400.000 -5.923 -416.000 0.397 0.364 0.208
v 416.000 -6.212 -416.000 0.427 0.395 0.228
v 432.000 -6.684 -416.000 0.425 0.392 0.226
v 448.000 -7.726 -416.000 0.432 0.400 0.231
v 464.000 -7.974 -416.000 0.509 0.479 0.282
v 480.000 -8.075 -416.000 0.565 0.536 0.318
v 496.000 -9.132 -416.000 0.585 0.557 0.331
v 512.000 -9.706 -416.000 0.541 0.512 0.303
v 384.000 -4.353 -400.000 0.430 0.397 0.229
v 400.000 -5.235 -400.000 0.400 0.367 0.210
v 416.000 -5.466 -400.000 0.434 0.401 0.232
v 432.000 -6.094 -400.000 0.411 0.378 0.217
v 448.000 -7.100 -400.000 0.423 0.390 0.224
v 464.000 -7.149 -400.000 0.479 0.447 0.261
v 480.000 -7.749 -400.000 0.506 0.475 0.279
v 496.000 -8.454 -400.000 0.547 0.518 0.307
v 512.000 -8.452 -400.000 0.507 0.477 0.280
v 384.000 -4.263 -384.000 0.416 0.383 0.220
v 400.000 -4.655 -384.000 0.412 0.379 0.217
v 416.000 -4.767 -384.000 0.403 0.369 0.211
v 432.000 -5.944 -384.000 0.397 0.363 0.208
v 448.000 -6.351 -384.000 0.408 0.375 0.215
v 464.000 -6.491 -384.000 0.470 0.439 0.256
v 480.000 -7.201 -384.000 0.519 0.489 0.288
v 496.000 -7.277 -384.000 0.566 0.538 0.319
v 512.000 -7.659 -384.000 0.504 0.474 0.278

vt 0.700000 0.766667
vt 0.700000 0.758333
vt 0.708333 0.758333
vt 0.708333 0.766667
vt 0.716667 0.766667
vt 0.716667 0.758333
vt 0.725000 0.758333
vt 0.725000 0.766667
vt 0.733333 0.766667
vt 0.733333 0.758333
vt 0.700000 0.750000
vt 0.708333 0.750000
vt 0.716667 0.750000
vt 0.725000 0.750000
vt 0.733333 0.750000
vt 0.741667 0.758333
vt 0.741667 0.750000
vt 0.750000 0.750000
vt 0.700000 0.741667
vt 0.708333 0.741667
vt 0.716667 0.741667
vt 0.725000 0.741667
vt 0.733333 0.741667
vt 0.741667 0.741667
vt 0.750000 0.741667
vt 0.700000 0.733333
vt 0.708333 0.733333
vt 0.716667 0.733333
vt 0.725000 0.733333
vt 0.733333 0.733333
vt 0.741667 0.733333
vt 0.750000 0.733333
vt 0.758333 0.741667
vt 0.758333 0.733333
vt 0.766667 0.733333
vt 0.700000 0.725000
vt 0.708333 0.725000
vt 0.716667 0.725000
vt 0.725000 0.725000
vt 0.733333 0.725000
vt 0.741667 0.725000
vt 0.750000 0.725000
vt 0.758333 0.725000
vt 0.766667 0.725000
vt 0.700000 0.716667
vt 0.708333 0.716667
vt 0.716667 0.716667
vt 0.725000 0.716667
vt 0.733333 0.716667
vt 0.741667 0.716667
vt 0.750000 0.716667
vt 0.758333 0.716667
vt 0.766667 0.716667
vt 0.700000 0.708333
vt 0.708333 0.708333
vt 0.716667 0.708333
vt 0.725000 0.708333
vt 0.733333 0.708333
vt 0.741667 0.708333
vt 0.750000 0.708333
vt 0.758333 0.708333
vt 0.766667 0.708333
vt 0.700000 0.700000
vt 0.708333 0.700000
vt 0.716667 0.700000
vt 0.725000 0.700000
vt 0.733333 0.700000
vt 0.741667 0.700000
vt 0.750000 0.700000
vt 0.758333 0.700000
vt 0.766667 0.700000

vn 0.06762 0.99745 -0.02273
vn 0.07499 0.99656 -0.03524
vn 0.04309 0.99804 -0.04539
vn 0.06307 0.99789 -0.01529
vn 0.03040 0.99790 -0.05714
vn 0.01958 0.99749 -0.06803
vn 0.03991 0.99831 -0.04236
vn 0.00825 0.99825 -0.05857
vn 0.02931 0.99914 -0.02931
vn 0.03907 0.99892 -0.02514
vn 0.04902 0.99790 -0.04241
vn 0.03029 0.99790 -0.05724
vn 0.03607 0.99855 -0.03991
vn 0.05748 0.99788 -0.03037
vn 0.02971 0.99846 -0.04682
vn 0.01258 0.99960 -0.02538
vn 0.01886 0.99926 -0.03347
vn 0.03512 0.99913 -0.02231
vn 0.01580 0.99950 -0.02742
vn 0.03132 0.99873 -0.03949
vn 0.04649 0.99861 -0.02498
vn 0.03125 0.99863 -0.04200
vn 0.02621 0.99801 -0.05743
vn 0.04715 0.99805 -0.04093
vn 0.04459 0.99821 -0.03992
vn 0.01985 0.99924 -0.03342
vn 0.03275 0.99921 -0.02239
vn 0.03854 0.99870 -0.03343
vn 0.02502 0.99792 -0.05937
vn 0.03965 0.99850 -0.03787
vn 0.04636 0.99859 -0.02577
vn 0.02878 0.99868 -0.04243
vn 0.01997 0.99884 -0.04376
vn 0.02996 0.99885 -0.03748
vn 0.03992 0.99863 -0.03383
vn 0.05976 0.99679 -0.05331
vn 0.04404 0.99847 -0.03333
vn 0.00946 0.99908 -0.04184
vn 0.02509 0.99898 -0.03757
vn 0.05983 0.99802 -0.01960
vn 0.03515 0.99863 -0.03887
vn 0.02174 0.99825 -0.05508
vn 0.04019 0.99841 -0.03942
vn 0.04840 0.99825 -0.03412
vn 0.06392 0.99699 -0.04383
vn 0.04429 0.99800 -0.04508
vn 0.02094 0.99868 -0.04699
vn 0.04723 0.99850 -0.02778
vn 0.04333 0.99858 -0.03091
vn 0.01088 0.99844 -0.05470
vn 0.03367 0.99848 -0.04360
vn 0.05089 0.99807 -0.03572
vn 0.03000 0.99840 -0.04787
vn 0.05504 0.99835 -0.01651
vn 0.03238 0.99886 -0.03519
vn 0.02678 0.99862 -0.04511
vn 0.04964 0.99820 -0.03354
vn 0.03293 0.99854 -0.04290
vn 0.01949 0.99898 -0.04071
vn 0.04073 0.99880 -0.02728
vn 0.02725 0.99829 -0.05172
vn -0.00013 0.99796 -0.06385
vn 0.03979 0.99899 -0.02093
vn 0.01573 0.99922 -0.03623
vn 0.03351 0.99889 -0.03322
vn 0.04945 0.99873 -0.00935
vn 0.02501 0.99904 -0.03598
vn 0.02651 0.99880 -0.04108
vn 0.03261 0.99842 -0.04574
vn 0.01427 0.99720 -0.07336
vn 0.01185 0.99804 -0.06144

f 1/1/1 2/2/2 3/3/3
f 1/1/1 3/3/3 4/4/4
f 4/4/4 3/3/3 5/5/5
f 5/5/5 3/3/3 6/6/6
f 5/5/5 6/6/6 7/7/7
f 5/5/5 7/7/7 8/8/8
f 8/8/8 7/7/7 9/9/9
f 9/9/9 7/7/7 10/10/10
f 2/2/2 11/11/11 3/3/3
f 3/3/3 11/11/11 12/12/12
f 3/3/3 12/12/12 13/13/13
f 3/3/3 13/13/13 6/6/6
f 6/6/6 13/13/13 7/7/7
f 7/7/7 13/13/13 14/14/14
f 7/7/7 14/14/14 15/15/15
f 7/7/7 15/15/15 10/10/10
f 10/10/10 15/15/15 16/16/16
f 16/16/16 15/15/15 17/17/17
f 16/16/16 17/17/17 18/18/18
f 11/11/11 19/19/19 20/20/20
f 11/11/11 20/20/20 12/12/12
f 12/12/12 20/20/20 13/13/13
f 13/13/13 20/20/20 21/21/21
f 13/13/13 21/21/21 22/22/22
f 13/13/13 22/22/22 14/14/14
f 14/14/14 22/22/22 15/15/15
f 15/15/15 22/22/22 23/23/23
f 15/15/15 23/23/23 24/24/24
f 15/15/15 24/24/24 17/17/17
f 17/17/17 24/24/24 18/18/18
f 18/18/18 24/24/24 25/25/25
f 19/19/19 26/26/26 20/20/20
f 20/20/20 26/26/26 27/27/27
f 20/20/20 27/27/27 28/28/28
f 20/20/20 28/28/28 21/21/21
f 21/21/21 28/28/28 22/22/22
f 22/22/22 28/28/28 29/29/29
f 22/22/22 29/29/29 30/30/30
f 22/22/22 30/30/30 23/23/23
f 23/23/23 30/30/30 24/24/24
f 24/24/24 30/30/30 31/31/31
f 24/24/24 31/31/31 32/32/32
f 24/24/24 32/32/32 25/25/25
f 25/25/25 32/32/32 33/33/33
f 33/33/33 32/32/32 34/34/34
f 33/33/33 34/34/34 35/35/35
f 26/26/26 36/36/36 37/37/37
f 26/26/26 37/37/37 27/27/27
f 27/27/27 37/37/37 28/28/28
f 28/28/28 37/37/37 38/38/38
f 28/28/28 38/38/38 39/39/39
f 28/28/28 39/39/39 29/29/29
f 29/29/29 39/39/39 30/30/30
f 30/30/30 39/39/39 40/40/40
f 30/30/30 40/40/40 41/41/41
f 30/30/30 41/41/41 31/31/31
f 31/31/31 41/41/41 32/32/32
f 32/32/32 41/41/41 42/42/42
f 32/32/32 42/42/42 43/43/43
f 32/32/32 43/43/43 34/34/34
f 34/34/34 43/43/43 35/35/35
f 35/35/35 43/43/43 44/44/44
f 36/36/36 45/45/45 37/37/37
f 37/37/37 45/45/45 46/46/46
f 37/37/37 46/46/46 47/47/47
f 37/37/37 47/47/47 38/38/38
f 38/38/38 47/47/47 39/39/39
f 39/39/39 47/47/47 48/48/48
f 39/39/39 48/48/48 49/49/49
f 39/39/39 49/49/49 40/40/40
f 40/40/40 49/49/49 41/41/41
f 41/41/41 49/49/49 50/50/50
f 41/41/41 50/50/50 51/51/51
f 41/41/41 51/51/51 42/42/42
f 42/42/42 51/51/51 43/43/43
f 43/43/43 51/51/51 52/52/52
f 43/43/43 52/52/52 53/53/53
f 43/43/43 53/53/53 44/44/44
f 45/45/45 54/54/54 55/55/55
f 45/45/45 55/55/55 46/46/46
f 46/46/46 55/55/55 47/47/47
f 47/47/47 55/55/55 56/56/56
f 47/47/47 56/56/56 57/57/57
f 47/47/47 57/57/57 48/48/48
f 48/48/48 57/57/57 49/49/49
f 49/49/49 57/57/57 58/58/58
f 49/49/49 58/58/58 59/59/59
f 49/49/49 59/59/59 50/50/50
f 50/50/50 59/59/59 51/51/51
f 51/51/51 59/59/59 60/60/60
f 51/51/51 60/60/60 61/61/61
f 51/51/51 61/61/61 52/52/52
f 52/52/52 61/61/61 53/53/53
f 53/53/53 61/61/61 62/62/62
f 54/54/54 63/63/63 55/55/55
f 55/55/55 63/63/63 64/64/64
f 55/55/55 64/64/64 65/65/65
f 55/55/55 65/65/65 56/56/56
f 56/56/56 65/65/65 57/57/57
f 57/57/57 65/65/65 66/66/66
f 57/57/57 66/66/66 67/67/67
f 57/57/57 67/67/67 58/58/58
f 58/58/58 67/67/67 59/59/59
f 59/59/59 67/67/67 68/68/68
f 59/59/59 68/68/68 69/69/69
f 59/59/59 69/69/69 60/60/60
f 60/60/60 69/69/69 61/61/61
f 61/61/61 69/69/69 70/70/70
f 61/61/61 70/70/70 71/71/71
f 61/61/61 71/71/71 62/62/62
