# Generated by tools/generate_island.py. Do not edit by hand.
o terrain_lod2_1_-2

v 128.000 -0.778 -256.000 0.390 0.356 0.203
v 128.000 0.011 -240.000 0.453 0.421 0.245
v 144.000 1.024 -240.000 0.170 0.261 0.093
v 144.000 0.836 -256.000 0.402 0.368 0.211
v 160.000 -0.097 -256.000 0.382 0.348 0.198
v 160.000 -0.277 -240.000 0.405 0.372 0.213
v 176.000 -0.318 -240.000 0.427 0.395 0.228
v 176.000 -0.584 -256.000 0.449 0.417 0.242
v 192.000 1.269 -256.000 0.212 0.294 0.107
v 192.000 0.336 -240.000 0.440 0.408 0.236
v 208.000 0.331 -240.000 0.460 0.428 0.249
v 208.000 0.992 -256.000 0.197 0.282 0.102
v 224.000 0.474 -256.000 0.420 0.387 0.223
v 224.000 0.402 -240.000 0.459 0.427 0.248
v 240.000 0.387 -240.000 0.469 0.437 0.255
v 240.000 0.220 -256.000 0.429 0.396 0.229
v 256.000 0.454 -256.000 0.479 0.448 0.261
v 256.000 -0.012 -240.000 0.495 0.465 0.272
v 128.000 1.503 -224.000 0.198 0.283 0.103
v 144.000 1.666 -224.000 0.209 0.292 0.106
v 160.000 -0.014 -224.000 0.416 0.383 0.220
v 176.000 0.010 -224.000 0.405 0.373 0.214
v 192.000 -0.246 -224.000 0.442 0.412 0.239
v 208.000 0.503 -224.000 0.499 0.469 0.276
v 224.000 1.183 -224.000 0.230 0.307 0.113
v 240.000 0.615 -224.000 0.470 0.438 0.255
v 256.000 0.439 -224.000 0.445 0.412 0.239
v 128.000 1.255 -208.000 0.201 0.285 0.104
v 144.000 1.295 -208.000 0.184 0.281 0.099
v 160.000 0.662 -208.000 0.389 0.359 0.207
v 176.000 -0.679 -208.000 0.318 0.289 0.164
v 192.000 -1.433 -208.000 0.350 0.323 0.186
v 208.000 -0.217 -208.000 0.423 0.396 0.232
v 224.000 1.146 -208.000 0.202 0.292 0.104
v 240.000 1.326 -208.000 0.199 0.297 0.105
v 256.000 0.618 -208.000 0.394 0.361 0.206
v 128.000 1.477 -192.000 0.145 0.249 0.085
v 144.000 -0.064 -192.000 0.406 0.376 0.217
v 160.000 0.342 -192.000 0.333 0.306 0.176
v 176.000 -0.347 -192.000 0.291 0.267 0.153
v 192.000 -0.787 -192.000 0.305 0.281 0.162
v 208.000 0.376 -192.000 0.320 0.296 0.171
v 224.000 -0.188 -192.000 0.400 0.374 0.218
v 240.000 1.271 -192.000 0.187 0.281 0.099
v 256.000 2.270 -192.000 0.213 0.294 0.108
v 128.000 0.071 -176.000 0.359 0.327 0.186
v 144.000 -0.350 -176.000 0.316 0.288 0.164
v 160.000 -0.442 -176.000 0.271 0.245 0.139
v 176.000 -1.226 -176.000 0.284 0.259 0.148
v 192.000 -1.697 -176.000 0.277 0.253 0.144
v 208.000 0.570 -176.000 0.310 0.287 0.166
v 224.000 1.355 -176.000 0.144 0.221 0.078
v 240.000 0.074 -176.000 0.442 0.414 0.242
v 256.000 1.138 -176.000 0.246 0.320 0.119
v 128.000 0.449 -160.000 0.364 0.336 0.194
v 144.000 0.141 -160.000 0.272 0.246 0.139
v 160.000 -1.369 -160.000 0.260 0.235 0.132
v 176.000 -1.630 -160.000 0.294 0.270 0.155
v 192.000 -2.645 -160.000 0.311 0.287 0.166
v 208.000 0.615 -160.000 0.302 0.278 0.160
v 224.000 0.780 -160.000 0.331 0.306 0.177
v 240.000 0.336 -160.000 0.406 0.376 0.218
v 256.000 0.345 -160.000 0.510 0.480 0.282
v 128.000 1.289 -144.000 0.131 0.215 0.074
v 144.000 1.161 -144.000 0.091 0.169 0.057
v 160.000 -1.151 -144.000 0.271 0.246 0.139
v 176.000 -3.040 -144.000 0.307 0.283 0.163
v 192.000 0.305 -144.000 0.335 0.312 0.182
v 208.000 1.178 -144.000 0.138 0.209 0.074
v 224.000 1.379 -144.000 0.155 0.234 0.082
v 240.000 1.161 -144.000 0.168 0.263 0.092
v 256.000 0.156 -144.000 0.438 0.406 0.235
v 128.000 1.711 -128.000 0.129 0.215 0.074
v 144.000 1.566 -128.000 0.104 0.179 0.061
v 160.000 -0.719 -128.000 0.304 0.281 0.162
v 176.000 -2.002 -128.000 0.316 0.293 0.169
v 192.000 0.582 -128.000 0.349 0.326 0.191
v 208.000 0.739 -128.000 0.419 0.396 0.234
v 224.000 1.781 -128.000 0.186 0.271 0.096
v 240.000 1.577 -128.000 0.178 0.277 0.097
v 256.000 1.436 -128.000 0.187 0.274 0.099

vt 0.566667 0.633333
vt 0.566667 0.625000
vt 0.575000 0.625000
vt 0.575000 0.633333
vt 0.583333 0.633333
vt 0.583333 0.625000
vt 0.591667 0.625000
vt 0.591667 0.633333
vt 0.600000 0.633333
vt 0.600000 0.625000
vt 0.608333 0.625000
vt 0.608333 0.633333
vt 0.616667 0.633333
vt 0.616667 0.625000
vt 0.625000 0.625000
vt 0.625000 0.633333
vt 0.633333 0.633333
vt 0.633333 0.625000
vt 0.566667 0.616667
vt 0.575000 0.616667
vt 0.583333 0.616667
vt 0.591667 0.616667
vt 0.600000 0.616667
vt 0.608333 0.616667
vt 0.616667 0.616667
vt 0.625000 0.616667
vt 0.633333 0.616667
vt 0.566667 0.608333
vt 0.575000 0.608333
vt 0.583333 0.608333
vt 0.591667 0.608333
vt 0.600000 0.608333
vt 0.608333 0.608333
vt 0.616667 0.608333
vt 0.625000 0.608333
vt 0.633333 0.608333
vt 0.566667 0.600000
vt 0.575000 0.600000
vt 0.583333 0.600000
vt 0.591667 0.600000
vt 0.600000 0.600000
vt 0.608333 0.600000
vt 0.616667 0.600000
vt 0.625000 0.600000
vt 0.633333 0.600000
vt 0.566667 0.591667
vt 0.575000 0.591667
vt 0.583333 0.591667
vt 0.591667 0.591667
vt 0.600000 0.591667
vt 0.608333 0.591667
vt 0.616667 0.591667
vt 0.625000 0.591667
vt 0.633333 0.591667
vt 0.566667 0.583333
vt 0.575000 0.583333
vt 0.583333 0.583333
vt 0.591667 0.583333
vt 0.600000 0.583333
vt 0.608333 0.583333
vt 0.616667 0.583333
vt 0.625000 0.583333
vt 0.633333 0.583333
vt 0.566667 0.575000
vt 0.575000 0.575000
vt 0.583333 0.575000
vt 0.591667 0.575000
vt 0.600000 0.575000
vt 0.608333 0.575000
vt 0.616667 0.575000
vt 0.625000 0.575000
vt 0.633333 0.575000
vt 0.566667 0.566667
vt 0.575000 0.566667
vt 0.583333 0.566667
vt 0.591667 0.566667
vt 0.600000 0.566667
vt 0.608333 0.566667
vt 0.616667 0.566667
vt 0.625000 0.566667
vt 0.633333 0.566667

vn -0.08178 0.99619 -0.03042
vn -0.06301 0.99549 -0.07096
vn 0.01103 0.99945 -0.03142
vn -0.02127 0.99970 -0.01174
vn 0.04313 0.99907 -0.00147
vn 0.04191 0.99912 -0.00258
vn -0.01843 0.99983 0.00190
vn -0.04263 0.99895 -0.01660
vn -0.03472 0.99877 0.03528
vn -0.02026 0.99868 0.04725
vn -0.00599 0.99989 0.01391
vn 0.02480 0.99884 0.04125
vn 0.01118 0.99989 0.00997
vn -0.00175 0.99975 -0.02216
vn 0.01244 0.99986 -0.01160
vn 0.00064 0.99995 -0.01041
vn 0.00518 0.99994 0.00935
vn 0.02493 0.99969 0.00045
vn -0.02153 0.99949 -0.02365
vn 0.04737 0.99884 -0.00845
vn 0.05171 0.99856 -0.01394
vn 0.00722 0.99991 0.01126
vn -0.01638 0.99926 0.03470
vn -0.04460 0.99886 0.01709
vn -0.01423 0.99979 -0.01469
vn 0.02323 0.99930 -0.02934
vn 0.02278 0.99944 -0.02452
vn -0.00247 1.00000 0.00081
vn 0.02998 0.99925 0.02444
vn 0.06155 0.99804 -0.01111
vn 0.04331 0.99904 0.00703
vn -0.01443 0.99975 0.01693
vn -0.05605 0.99829 0.01690
vn -0.04812 0.99793 0.04275
vn -0.00514 0.99989 -0.01383
vn 0.04415 0.99739 -0.05707
vn 0.05399 0.99757 0.04409
vn 0.03541 0.99806 0.05129
vn 0.02666 0.99905 0.03433
vn 0.03526 0.99923 0.01710
vn -0.02893 0.99958 0.00225
vn -0.01873 0.99952 -0.02458
vn -0.02214 0.99975 0.00037
vn -0.07653 0.99630 0.03901
vn -0.03678 0.99926 0.01144
vn 0.02627 0.99914 0.03210
vn 0.03106 0.99935 0.01818
vn 0.02734 0.99820 0.05335
vn 0.03833 0.99812 0.04782
vn -0.05596 0.99676 0.05785
vn -0.07889 0.99688 0.00321
vn 0.01551 0.99942 -0.03023
vn -0.01240 0.99968 0.02208
vn -0.06626 0.99600 0.05992
vn 0.01818 0.99893 -0.04258
vn 0.05665 0.99728 -0.04707
vn 0.06718 0.99765 0.01343
vn 0.03979 0.99761 0.05656
vn -0.08177 0.99641 -0.02177
vn -0.10640 0.99414 -0.01887
vn 0.00837 0.99987 -0.01362
vn 0.01359 0.99933 -0.03397
vn -0.00121 1.00000 -0.00166
vn 0.00799 0.99919 -0.03941
vn 0.07108 0.99678 -0.03708
vn 0.13014 0.99129 -0.02013
vn -0.02293 0.99944 -0.02446
vn -0.13003 0.98651 -0.09949
vn -0.05280 0.99799 -0.03490
vn 0.00051 0.99951 -0.03127
vn 0.02518 0.99904 -0.03571
vn 0.06266 0.99746 -0.03400
vn 0.00854 0.99963 -0.02586
vn 0.07569 0.99681 -0.02524
vn 0.12043 0.99208 -0.03578
vn -0.04054 0.99708 -0.06470
vn -0.10808 0.99398 -0.01793
vn -0.03742 0.99892 0.02736
vn -0.01284 0.99984 -0.01221
vn 0.01079 0.99960 -0.02600
vn 0.03576 0.99796 -0.05288

f 1/1/1 2/2/2 3/3/3
f 1/1/1 3/3/3 4/4/4
f 4/4/4 3/3/3 5/5/5
f 5/5/5 3/3/3 6/6/6
f 5/5/5 6/6/6 7/7/7
f 5/5/5 7/7/7 8/8/8
f 8/8/8 7/7/7 9/9/9
f 9/9/9 7/7/7 10/10/10
f 9/9/9 10/10/10 11/11/11
f 9/9/9 11/11/11 12/12/12
f 12/12/12 11/11/11 13/13/13
f 13/13/13 11/11/11 14/14/14
f 13/13/13 14/14/14 15/15/15
f 13/13/13 15/15/15 16/16/16
f 16/16/16 15/15/15 17/17/17
f 17/17/17 15/15/15 18/18/18
f 2/2/2 19/19/19 3/3/3
f 3/3/3 19/19/19 20/20/20
f 3/3/3 20/20/20 21/21/21
f 3/3/3 21/21/21 6/6/6
f 6/6/6 21/21/21 7/7/7
f 7/7/7 21/21/21 22/22/22
f 7/7/7 22/22/22 23/23/23
f 7/7/7 23/23/23 10/10/10
f 10/10/10 23/23/23 11/11/11
f 11/11/11 23/23/23 24/24/24
f 11/11/11 24/24/24 25/25/25
f 11/11/11 25/25/25 14/14/14
f 14/14/14 25/25/25 15/15/15
f 15/15/15 25/25/25 26/26/26
f 15/15/15 26/26/26 27/27/27
f 15/15/15 27/27/27 18/18/18
f 19/19/19 28/28/28 29/29/29
f 19/19/19 29/29/29 20/20/20
f 20/20/20 29/29/29 21/21/21
f 21/21/21 29/29/29 30/30/30
f 21/21/21 30/30/30 31/31/31
f 21/21/21 31/31/31 22/22/22
f 22/22/22 31/31/31 23/23/23
f 23/23/23 31/31/31 32/32/32
f 23/23/23 32/32/32 33/33/33
f 23/23/23 33/33/33 24/24/24
f 24/24/24 33/33/33 25/25/25
f 25/25/25 33/33/33 34/34/34
f 25/25/25 34/34/34 35/35/35
f 25/25/25 35/35/35 26/26/26
f 26/26/26 35/35/35 27/27/27
f 27/27/27 35/35/35 36/36/36
f 28/28/28 37/37/37 29/29/29
f 29/29/29 37/37/37 38/38/38
f 29/29/29 38/38/38 39/39/39
f 29/29/29 39/39/39 30/30/30
f 30/30/30 39/39/39 31/31/31
f 31/31/31 39/39/39 40/40/40
f 31/31/31 40/40/40 41/41/41
f 31/31/31 41/41/41 32/32/32
f 32/32/32 41/41/41 33/33/33
f 33/33/33 41/41/41 42/42/42
f 33/33/33 42/42/42 43/43/43
f 33/33/33 43/43/43 34/34/34
f 34/34/34 43/43/43 35/35/35
f 35/35/35 43/43/43 44/44/44
f 35/35/35 44/44/44 45/45/45
f 35/35/35 45/45/45 36/36/36
f 37/37/37 46/46/46 47/47/47
f 37/37/37 47/47/47 38/38/38
f 38/38/38 47/47/47 39/39/39
f 39/39/39 47/47/47 48/48/48
f 39/39/39 48/48/48 49/49/49
f 39/39/39 49/49/49 40/40/40
f 40/40/40 49/49/49 41/41/41
f 41/41/41 49/49/49 50/50/50
f 41/41/41 50/50/50 51/51/51
f 41/41/41 51/51/51 42/42/42
f 42/42/42 51/51/51 43/43/43
f 43/43/43 51/51/51 52/52/52
f 43/43/43 52/52/52 53/53/53
f 43/43/43 53/53/53 44/44/44
f 44/44/44 53/53/53 45/45/45
f 45/45/45 53/53/53 54/54/54
f 46/46/46 55/55/55 47/47/47
f 47/47/47 55/55/55 56/56/56
f 47/47/47 56/56/56 57/57/57
f 47/47/47 57/57/57 48/48/48
f 48/48/48 57/57/57 49/49/49
f 49/49/49 57/57/57 58/58/58
f 49/49/49 58/58/58 59/59/59
f 49/49/49 59/59/59 50/50/50
f 50/50/50 59/59/59 51/51/51
f 51/51/51 59/59/59 60/60/60
f 51/51/51 60/60/60 61/61/61
f 51/51/51 61/61/61 52/52/52
f 52/52/52 61/61/61 53/53/53
f 53/53/53 61/61/61 62/62/62
f 53/53/53 62/62/62 63/63/63
f 53/53/53 63/63/63 54/54/54
f 55/55/55 64/64/64 65/65/65
f 55/55/55 65/65/65 56/56/56
f 56/56/56 65/65/65 57/57/57
f 57/57/57 65/65/65 66/66/66
f 57/57/57 66/66/66 67/67/67
f 57/57/57 67/67/67 58/58/58
f 58/58/58 67/67/67 59/59/59
f 59/59/59 67/67/67 68/68/68
f 59/59/59 68/68/68 69/69/69
f 59/59/59 69/69/69 60/60/60
f 60/60/60 69/69/69 61/61/61
f 61/61/61 69/69/69 70/70/70
f 61/61/61 70/70/70 71/71/71
f 61/61/61 71/71/71 62/62/62
f 62/62/62 71/71/71 63/63/63
f 63/63/63 71/71/71 72/72/72
f 64/64/64 73/73/73 65/65/65
f 65/65/65 73/73/73 74/74/74
f 65/65/65 74/74/74 75/75/75
f 65/65/65 75/75/75 66/66/66
f 66/66/66 75/75/75 67/67/67
f 67/67/67 75/75/75 76/76/76
f 67/67/67 76/76/76 77/77/77
f 67/67/67 77/77/77 68/68/68
f 68/68/68 77/77/77 69/69/69
f 69/69/69 77/77/77 78/78/78
f 69/69/69 78/78/78 79/79/79
f 69/69/69 79/79/79 70/70/70
f 70/70/70 79/79/79 71/71/71
f 71/71/71 79/79/79 80/80/80
f 71/71/71 80/80/80 81/81/81
f 71/71/71 81/81/81 72/72/72
