# Generated by tools/generate_island.py. Do not edit by hand.
o terrain_lod2_3_4

v 384.000 -6.574 512.000 0.458 0.426 0.248
v 384.000 -7.458 528.000 0.470 0.438 0.255
v 400.000 -7.125 528.000 0.489 0.458 0.268
v 400.000 -6.370 512.000 0.451 0.419 0.243
v 416.000 -6.700 512.000 0.473 0.441 0.257
v 416.000 -7.539 528.000 0.533 0.503 0.297
v 432.000 -8.054 528.000 0.547 0.518 0.306
v 432.000 -7.695 512.000 0.529 0.500 0.295
v 448.000 -7.782 512.000 0.516 0.486 0.286
v 448.000 -8.094 528.000 0.551 0.521 0.309
v 464.000 -9.096 528.000 0.479 0.447 0.261
v 464.000 -7.922 512.000 0.388 0.354 0.201
v 480.000 -9.353 512.000 0.383 0.349 0.199
v 480.000 -10.005 528.000 0.468 0.437 0.255
v 496.000 -10.070 528.000 0.462 0.430 0.250
v 496.000 -10.035 512.000 0.460 0.428 0.249
v 512.000 -10.401 512.000 0.518 0.488 0.287
v 512.000 -10.800 528.000 0.500 0.470 0.275
v 384.000 -8.014 544.000 0.489 0.458 0.268
v 400.000 -7.893 544.000 0.530 0.500 0.295
v 416.000 -8.587 544.000 0.508 0.478 0.281
v 432.000 -8.840 544.000 0.581 0.553 0.329
v 448.000 -8.796 544.000 0.562 0.533 0.316
v 464.000 -9.842 544.000 0.562 0.533 0.316
v 480.000 -10.135 544.000 0.550 0.521 0.309
v 496.000 -10.673 544.000 0.516 0.485 0.286
v 512.000 -10.800 544.000 0.517 0.486 0.286
v 384.000 -8.601 560.000 0.462 0.431 0.251
v 400.000 -9.263 560.000 0.467 0.436 0.254
v 416.000 -9.822 560.000 0.510 0.480 0.282
v 432.000 -9.392 560.000 0.585 0.557 0.331
v 448.000 -9.731 560.000 0.585 0.557 0.331
v 464.000 -10.469 560.000 0.585 0.557 0.331
v 480.000 -10.800 560.000 0.585 0.557 0.331
v 496.000 -10.800 560.000 0.547 0.518 0.306
v 512.000 -10.800 560.000 0.544 0.515 0.305
v 384.000 -9.781 576.000 0.442 0.410 0.237
v 400.000 -10.289 576.000 0.486 0.455 0.266
v 416.000 -10.142 576.000 0.550 0.520 0.308
v 432.000 -10.480 576.000 0.585 0.557 0.331
v 448.000 -10.800 576.000 0.580 0.552 0.328
v 464.000 -10.800 576.000 0.585 0.557 0.331
v 480.000 -10.800 576.000 0.563 0.534 0.317
v 496.000 -10.800 576.000 0.554 0.525 0.311
v 512.000 -10.800 576.000 0.558 0.529 0.313
v 384.000 -10.800 592.000 0.441 0.409 0.237
v 400.000 -10.800 592.000 0.474 0.443 0.258
v 416.000 -10.800 592.000 0.504 0.473 0.278
v 432.000 -10.800 592.000 0.487 0.456 0.267
v 448.000 -10.800 592.000 0.463 0.431 0.251
v 464.000 -10.800 592.000 0.515 0.485 0.285
v 480.000 -10.800 592.000 0.526 0.496 0.293
v 496.000 -10.800 592.000 0.492 0.461 0.270
v 512.000 -10.800 592.000 0.461 0.429 0.250
v 384.000 -10.800 608.000 0.453 0.421 0.245
v 400.000 -10.800 608.000 0.463 0.431 0.251
v 416.000 -10.800 608.000 0.481 0.450 0.263
v 432.000 -10.800 608.000 0.456 0.425 0.247
v 448.000 -10.800 608.000 0.457 0.425 0.247
v 464.000 -10.800 608.000 0.477 0.446 0.260
v 480.000 -10.800 608.000 0.497 0.466 0.273
v 496.000 -10.800 608.000 0.452 0.420 0.244
v 512.000 -10.800 608.000 0.427 0.394 0.227
v 384.000 -10.800 624.000 0.495 0.464 0.272
v 400.000 -10.800 624.000 0.494 0.464 0.272
v 416.000 -10.800 624.000 0.466 0.434 0.253
v 432.000 -10.800 624.000 0.485 0.454 0.265
v 448.000 -10.800 624.000 0.468 0.436 0.254
v 464.000 -10.800 624.000 0.488 0.457 0.268
v 480.000 -10.800 624.000 0.507 0.476 0.280
v 496.000 -10.800 624.000 0.471 0.439 0.256
v 512.000 -10.800 624.000 0.421 0.388 0.224
v 384.000 -10.800 640.000 0.507 0.477 0.280
v 400.000 -10.800 640.000 0.491 0.460 0.270
v 416.000 -10.800 640.000 0.466 0.435 0.253
v 432.000 -10.800 640.000 0.519 0.490 0.288
v 448.000 -10.800 640.000 0.488 0.457 0.267
v 464.000 -10.800 640.000 0.525 0.495 0.292
v 480.000 -10.800 640.000 0.498 0.468 0.274
v 496.000 -10.800 640.000 0.459 0.427 0.249
v 512.000 -10.800 640.000 0.437 0.405 0.234

vt 0.700000 0.233333
vt 0.700000 0.225000
vt 0.708333 0.225000
vt 0.708333 0.233333
vt 0.716667 0.233333
vt 0.716667 0.225000
vt 0.725000 0.225000
vt 0.725000 0.233333
vt 0.733333 0.233333
vt 0.733333 0.225000
vt 0.741667 0.225000
vt 0.741667 0.233333
vt 0.750000 0.233333
vt 0.750000 0.225000
vt 0.758333 0.225000
vt 0.758333 0.233333
vt 0.766667 0.233333
vt 0.766667 0.225000
vt 0.700000 0.216667
vt 0.708333 0.216667
vt 0.716667 0.216667
vt 0.725000 0.216667
vt 0.733333 0.216667
vt 0.741667 0.216667
vt 0.750000 0.216667
vt 0.758333 0.216667
vt 0.766667 0.216667
vt 0.700000 0.208333
vt 0.708333 0.208333
vt 0.716667 0.208333
vt 0.725000 0.208333
vt 0.733333 0.208333
vt 0.741667 0.208333
vt 0.750000 0.208333
vt 0.758333 0.208333
vt 0.766667 0.208333
vt 0.700000 0.200000
vt 0.708333 0.200000
vt 0.716667 0.200000
vt 0.725000 0.200000
vt 0.733333 0.200000
vt 0.741667 0.200000
vt 0.750000 0.200000
vt 0.758333 0.200000
vt 0.766667 0.200000
vt 0.700000 0.191667
vt 0.708333 0.191667
vt 0.716667 0.191667
vt 0.725000 0.191667
vt 0.733333 0.191667
vt 0.741667 0.191667
vt 0.750000 0.191667
vt 0.758333 0.191667
vt 0.766667 0.191667
vt 0.700000 0.183333
vt 0.708333 0.183333
vt 0.716667 0.183333
vt 0.725000 0.183333
vt 0.733333 0.183333
vt 0.741667 0.183333
vt 0.750000 0.183333
vt 0.758333 0.183333
vt 0.766667 0.183333
vt 0.700000 0.175000
vt 0.708333 0.175000
vt 0.716667 0.175000
vt 0.725000 0.175000
vt 0.733333 0.175000
vt 0.741667 0.175000
vt 0.750000 0.175000
vt 0.758333 0.175000
vt 0.766667 0.175000
vt 0.700000 0.166667
vt 0.708333 0.166667
vt 0.716667 0.166667
vt 0.725000 0.166667
vt 0.733333 0.166667
vt 0.741667 0.166667
vt 0.750000 0.166667
vt 0.758333 0.166667
vt 0.766667 0.166667

vn -0.01675 0.99855 0.05118
vn -0.02079 0.99877 0.04496
vn 0.00670 0.99874 0.04974
vn 0.00394 0.99888 0.04716
vn 0.03516 0.99843 0.04354
vn 0.02895 0.99785 0.05884
vn 0.01874 0.99900 0.04051
vn 0.03377 0.99918 0.02237
vn 0.01981 0.99924 0.03368
vn 0.03254 0.99897 0.03166
vn 0.05248 0.99766 0.04392
vn 0.04892 0.99612 0.07311
vn 0.04814 0.99807 0.03921
vn 0.03041 0.99924 0.02440
vn 0.02579 0.99948 0.01919
vn 0.03274 0.99946 0.00219
vn 0.03425 0.99932 0.01355
vn 0.04558 0.99888 0.01244
vn 0.00135 0.99869 0.05119
vn 0.01785 0.99762 0.06665
vn 0.02300 0.99777 0.06269
vn 0.00652 0.99911 0.04179
vn 0.03215 0.99839 0.04668
vn 0.04177 0.99821 0.04282
vn 0.02318 0.99932 0.02882
vn 0.02079 0.99952 0.02281
vn 0.01536 0.99982 0.01141
vn 0.04127 0.99763 0.05508
vn 0.02630 0.99765 0.06323
vn 0.00402 0.99881 0.04853
vn 0.00534 0.99856 0.05335
vn 0.03356 0.99748 0.06248
vn 0.02714 0.99899 0.03580
vn 0.01036 0.99973 0.02079
vn 0.00520 0.99996 0.00718
vn 0.00000 1.00000 0.00000
vn 0.02616 0.99796 0.05825
vn 0.01125 0.99879 0.04797
vn 0.00398 0.99926 0.03826
vn 0.02055 0.99882 0.04395
vn 0.01341 0.99945 0.03028
vn 0.00000 0.99995 0.01036
vn 0.00259 0.99999 0.00259
vn 0.00000 1.00000 0.00000
vn 0.00000 1.00000 0.00000
vn 0.00000 0.99949 0.03182
vn 0.00282 0.99977 0.02109
vn 0.00000 0.99979 0.02057
vn 0.00514 0.99994 0.01015
vn 0.00000 1.00000 0.00000
vn 0.00000 1.00000 0.00000
vn 0.00000 1.00000 0.00000
vn 0.00000 1.00000 0.00000
vn 0.00000 1.00000 0.00000
vn 0.00000 1.00000 0.00000
vn 0.00000 1.00000 0.00000
vn 0.00000 1.00000 0.00000
vn 0.00000 1.00000 0.00000
vn 0.00000 1.00000 0.00000
vn 0.00000 1.00000 0.00000
vn 0.00000 1.00000 0.00000
vn 0.00000 1.00000 0.00000
vn 0.00000 1.00000 0.00000
vn 0.00000 1.00000 0.00000
vn 0.00000 1.00000 0.00000
vn 0.00000 1.00000 0.00000
vn 0.00000 1.00000 0.00000
vn 0.00000 1.00000 0.00000
vn 0.00000 1.00000 0.00000
vn 0.00000 1.00000 0.00000
vn 0.00000 1.00000 0.00000
vn 0.00000 1.00000 0.00000
vn 0.00000 1.00000 0.00000
vn 0.00000 1.00000 0.00000
vn 0.00000 1.00000 0.00000
vn 0.00000 1.00000 0.00000
vn 0.00000 1.00000 0.00000
vn 0.00000 1.00000 0.00000
vn 0.00000 1.00000 0.00000
vn 0.00000 1.00000 0.00000
vn 0.00000 1.00000 0.00000

f 1/1/1 2/2/2 3/3/3
f 1/1/1 3/3/3 4/4/4
f 4/4/4 3/3/3 5/5/5
f 5/5/5 3/3/3 6/6/6
f 5/5/5 6/6/6 7/7/7
f 5/5/5 7/7/7 8/8/8
f 8/8/8 7/7/7 9/9/9
f 9/9/9 7/7/7 10/10/10
f 9/9/9 10/10/10 11/11/11
f 9/9/9 11/11/11 12/12/12
f 12/12/12 11/11/11 13/13/13
f 13/13/13 11/11/11 14/14/14
f 13/13/13 14/14/14 15/15/15
f 13/13/13 15/15/15 16/16/16
f 16/16/16 15/15/15 17/17/17
f 17/17/17 15/15/15 18/18/18
f 2/2/2 19/19/19 3/3/3
f 3/3/3 19/19/19 20/20/20
f 3/3/3 20/20/20 21/21/21
f 3/3/3 21/21/21 6/6/6
f 6/6/6 21/21/21 7/7/7
f 7/7/7 21/21/21 22/22/22
f 7/7/7 22/22/22 23/23/23
f 7/7/7 23/23/23 10/10/10
f 10/10/10 23/23/23 11/11/11
f 11/11/11 23/23/23 24/24/24
f 11/11/11 24/24/24 25/25/25
f 11/11/11 25/25/25 14/14/14
f 14/14/14 25/25/25 15/15/15
f 15/15/15 25/25/25 26/26/26
f 15/15/15 26/26/26 27/27/27
f 15/15/15 27/27/27 18/18/18
f 19/19/19 28/28/28 29/29/29
f 19/19/19 29/29/29 20/20/20
f 20/20/20 29/29/29 21/21/21
f 21/21/21 29/29/29 30/30/30
f 21/21/21 30/30/30 31/31/31
f 21/21/21 31/31/31 22/22/22
f 22/22/22 31/31/31 23/23/23
f 23/23/23 31/31/31 32/32/32
f 23/23/23 32/32/32 33/33/33
f 23/23/23 33/33/33 24/24/24
f 24/24/24 33/33/33 25/25/25
f 25/25/25 33/33/33 34/34/34
f 25/25/25 34/34/34 35/35/35
f 25/25/25 35/35/35 26/26/26
f 26/26/26 35/35/35 27/27/27
f 27/27/27 35/35/35 36/36/36
f 28/28/28 37/37/37 29/29/29
f 29/29/29 37/37/37 38/38/38
f 29/29/29 38/38/38 39/39/39
f 29/29/29 39/39/39 30/30/30
f 30/30/30 39/39/39 31/31/31
f 31/31/31 39/39/39 40/40/40
f 31/31/31 40/40/40 41/41/41
f 31/31/31 41/41/41 32/32/32
f 32/32/32 41/41/41 33/33/33
f 33/33/33 41/41/41 42/42/42
f 33/33/33 42/42/42 43/43/43
f 33/33/33 43/43/43 34/34/34
f 34/34/34 43/43/43 35/35/35
f 35/35/35 43/43/43 44/44/44
f 35/35/35 44/44/44 45/45/45
f 35/35/35 45/45/45 36/36/36
f 37/37/37 46/46/46 47/47/47
f 37/37/37 47/47/47 38/38/38
f 38/38/38 47/47/47 39/39/39
f 39/39/39 47/47/47 48/48/48
f 39/39/39 48/48/48 49/49/49
f 39/39/39 49/49/49 40/40/40
f 40/40/40 49/49/49 41/41/41
f 41/41/41 49/49/49 50/50/50
f 41/41/41 50/50/50 51/51/51
f 41/41/41 51/51/51 42/42/42
f 42/42/42 51/51/51 43/43/43
f 43/43/43 51/51/51 52/52/52
f 43/43/43 52/52/52 53/53/53
f 43/43/43 53/53/53 44/44/44
f 44/44/44 53/53/53 45/45/45
f 45/45/45 53/53/53 54/54/54
f 46/46/46 55/55/55 47/47/47
f 47/47/47 55/55/55 56/56/56
f 47/47/47 56/56/56 57/57/57
f 47/47/47 57/57/57 48/48/48
f 48/48/48 57/57/57 49/49/49
f 49/49/49 57/57/57 58/58/58
f 49/49/49 58/58/58 59/59/59
f 49/49/49 59/59/59 50/50/50
f 50/50/50 59/59/59 51/51/51
f 51/51/51 59/59/59 60/60/60
f 51/51/51 60/60/60 61/61/61
f 51/51/51 61/61/61 52/52/52
f 52/52/52 61/61/61 53/53/53
f 53/53/53 61/61/61 62/62/62
f 53/53/53 62/62/62 63/63/63
f 53/53/53 63/63/63 54/54/54
f 55/55/55 64/64/64 65/65/65
f 55/55/55 65/65/65 56/56/56
f 56/56/56 65/65/65 57/57/57
f 57/57/57 65/65/65 66/66/66
f 57/57/57 66/66/66 67/67/67
f 57/57/57 67/67/67 58/58/58
f 58/58/58 67/67/67 59/59/59
f 59/59/59 67/67/67 68/68/68
f 59/59/59 68/68/68 69/69/69
f 59/59/59 69/69/69 60/60/60
f 60/60/60 69/69/69 61/61/61
f 61/61/61 69/69/69 70/70/70
f 61/61/61 70/70/70 71/71/71
f 61/61/61 71/71/71 62/62/62
f 62/62/62 71/71/71 63/63/63
f 63/63/63 71/71/71 72/72/72
f 64/64/64 73/73/73 65/65/65
f 65/65/65 73/73/73 74/74/74
f 65/65/65 74/74/74 75/75/75
f 65/65/65 75/75/75 66/66/66
f 66/66/66 75/75/75 67/67/67
f 67/67/67 75/75/75 76/76/76
f 67/67/67 76/76/76 77/77/77
f 67/67/67 77/77/77 68/68/68
f 68/68/68 77/77/77 69/69/69
f 69/69/69 77/77/77 78/78/78
f 69/69/69 78/78/78 79/79/79
f 69/69/69 79/79/79 70/70/70
f 70/70/70 79/79/79 71/71/71
f 71/71/71 79/79/79 80/80/80
f 71/71/71 80/80/80 81/81/81
f 71/71/71 81/81/81 72/72/72
