# Generated by tools/generate_island.py. Do not edit by hand.
o terrain_lod2_-7_0

v -896.000 -10.800 0.000 0.506 0.476 0.279
v -896.000 -10.800 16.000 0.501 0.470 0.276
v -880.000 -10.800 16.000 0.474 0.442 0.258
v -880.000 -10.800 0.000 0.450 0.417 0.242
v -864.000 -10.800 0.000 0.426 0.393 0.227
v -864.000 -10.800 16.000 0.403 0.370 0.212
v -848.000 -10.800 16.000 0.361 0.326 0.184
v -848.000 -10.800 0.000 0.361 0.326 0.184
v -832.000 -10.800 0.000 0.406 0.372 0.213
v -832.000 -10.800 16.000 0.375 0.341 0.193
v -816.000 -10.800 16.000 0.483 0.452 0.264
v -816.000 -10.800 0.000 0.510 0.480 0.282
v -800.000 -10.800 0.000 0.528 0.498 0.294
v -800.000 -10.800 16.000 0.543 0.514 0.304
v -784.000 -10.457 16.000 0.521 0.491 0.289
v -784.000 -10.665 0.000 0.514 0.484 0.285
v -768.000 -9.414 0.000 0.519 0.489 0.288
v -768.000 -9.133 16.000 0.509 0.478 0.281
v -896.000 -10.800 32.000 0.539 0.509 0.301
v -880.000 -10.800 32.000 0.473 0.442 0.258
v -864.000 -10.800 32.000 0.383 0.349 0.198
v -848.000 -10.800 32.000 0.361 0.326 0.184
v -832.000 -10.800 32.000 0.373 0.339 0.192
v -816.000 -10.800 32.000 0.473 0.441 0.257
v -800.000 -10.800 32.000 0.499 0.468 0.275
v -784.000 -9.752 32.000 0.514 0.483 0.284
v -768.000 -8.893 32.000 0.523 0.493 0.291
v -896.000 -10.800 48.000 0.530 0.500 0.295
v -880.000 -10.800 48.000 0.475 0.443 0.259
v -864.000 -10.800 48.000 0.439 0.407 0.235
v -848.000 -10.800 48.000 0.437 0.405 0.234
v -832.000 -10.800 48.000 0.466 0.435 0.253
v -816.000 -10.800 48.000 0.509 0.479 0.282
v -800.000 -10.451 48.000 0.505 0.475 0.279
v -784.000 -9.441 48.000 0.522 0.492 0.290
v -768.000 -9.045 48.000 0.546 0.516 0.305
v -896.000 -10.800 64.000 0.510 0.480 0.282
v -880.000 -10.800 64.000 0.491 0.461 0.270
v -864.000 -10.800 64.000 0.481 0.450 0.263
v -848.000 -10.800 64.000 0.478 0.447 0.261
v -832.000 -10.800 64.000 0.472 0.440 0.257
v -816.000 -10.800 64.000 0.521 0.491 0.289
v -800.000 -10.276 64.000 0.523 0.493 0.291
v -784.000 -9.202 64.000 0.546 0.516 0.305
v -768.000 -8.386 64.000 0.564 0.535 0.317
v -896.000 -10.800 80.000 0.503 0.472 0.277
v -880.000 -10.800 80.000 0.488 0.457 0.268
v -864.000 -10.800 80.000 0.466 0.434 0.253
v -848.000 -10.800 80.000 0.475 0.444 0.259
v -832.000 -10.800 80.000 0.495 0.464 0.272
v -816.000 -10.800 80.000 0.508 0.478 0.281
v -800.000 -9.780 80.000 0.559 0.530 0.314
v -784.000 -9.381 80.000 0.575 0.546 0.324
v -768.000 -8.374 80.000 0.513 0.483 0.284
v -896.000 -10.800 96.000 0.471 0.439 0.256
v -880.000 -10.800 96.000 0.478 0.447 0.261
v -864.000 -10.800 96.000 0.481 0.449 0.263
v -848.000 -10.800 96.000 0.457 0.425 0.247
v -832.000 -10.800 96.000 0.452 0.420 0.244
v -816.000 -10.800 96.000 0.546 0.517 0.306
v -800.000 -9.857 96.000 0.567 0.539 0.320
v -784.000 -9.040 96.000 0.548 0.519 0.307
v -768.000 -7.892 96.000 0.466 0.434 0.253
v -896.000 -10.800 112.000 0.496 0.465 0.272
v -880.000 -10.800 112.000 0.425 0.392 0.226
v -864.000 -10.800 112.000 0.416 0.382 0.220
v -848.000 -10.800 112.000 0.444 0.412 0.239
v -832.000 -10.800 112.000 0.473 0.441 0.257
v -816.000 -10.751 112.000 0.585 0.557 0.331
v -800.000 -9.926 112.000 0.559 0.531 0.314
v -784.000 -8.870 112.000 0.550 0.521 0.308
v -768.000 -7.992 112.000 0.443 0.411 0.238
v -896.000 -10.800 128.000 0.429 0.396 0.228
v -880.000 -10.800 128.000 0.456 0.424 0.246
v -864.000 -10.800 128.000 0.438 0.406 0.235
v -848.000 -10.800 128.000 0.439 0.407 0.235
v -832.000 -10.800 128.000 0.440 0.408 0.236
v -816.000 -10.800 128.000 0.532 0.503 0.297
v -800.000 -10.330 128.000 0.525 0.496 0.292
v -784.000 -8.910 128.000 0.526 0.496 0.292
v -768.000 -8.143 128.000 0.486 0.455 0.266

vt 0.033333 0.500000
vt 0.033333 0.491667
vt 0.041667 0.491667
vt 0.041667 0.500000
vt 0.050000 0.500000
vt 0.050000 0.491667
vt 0.058333 0.491667
vt 0.058333 0.500000
vt 0.066667 0.500000
vt 0.066667 0.491667
vt 0.075000 0.491667
vt 0.075000 0.500000
vt 0.083333 0.500000
vt 0.083333 0.491667
vt 0.091667 0.491667
vt 0.091667 0.500000
vt 0.100000 0.500000
vt 0.100000 0.491667
vt 0.033333 0.483333
vt 0.041667 0.483333
vt 0.050000 0.483333
vt 0.058333 0.483333
vt 0.066667 0.483333
vt 0.075000 0.483333
vt 0.083333 0.483333
vt 0.091667 0.483333
vt 0.100000 0.483333
vt 0.033333 0.475000
vt 0.041667 0.475000
vt 0.050000 0.475000
vt 0.058333 0.475000
vt 0.066667 0.475000
vt 0.075000 0.475000
vt 0.083333 0.475000
vt 0.091667 0.475000
vt 0.100000 0.475000
vt 0.033333 0.466667
vt 0.041667 0.466667
vt 0.050000 0.466667
vt 0.058333 0.466667
vt 0.066667 0.466667
vt 0.075000 0.466667
vt 0.083333 0.466667
vt 0.091667 0.466667
vt 0.100000 0.466667
vt 0.033333 0.458333
vt 0.041667 0.458333
vt 0.050000 0.458333
vt 0.058333 0.458333
vt 0.066667 0.458333
vt 0.075000 0.458333
vt 0.083333 0.458333
vt 0.091667 0.458333
vt 0.100000 0.458333
vt 0.033333 0.450000
vt 0.041667 0.450000
vt 0.050000 0.450000
vt 0.058333 0.450000
vt 0.066667 0.450000
vt 0.075000 0.450000
vt 0.083333 0.450000
vt 0.091667 0.450000
vt 0.100000 0.450000
vt 0.033333 0.441667
vt 0.041667 0.441667
vt 0.050000 0.441667
vt 0.058333 0.441667
vt 0.066667 0.441667
vt 0.075000 0.441667
vt 0.083333 0.441667
vt 0.091667 0.441667
vt 0.100000 0.441667
vt 0.033333 0.433333
vt 0.041667 0.433333
vt 0.050000 0.433333
vt 0.058333 0.433333
vt 0.066667 0.433333
vt 0.075000 0.433333
vt 0.083333 0.433333
vt 0.091667 0.433333
vt 0.100000 0.433333

vn 0.00000 1.00000 0.00000
vn 0.00000 1.00000 0.00000
vn 0.00000 1.00000 0.00000
vn 0.00000 1.00000 0.00000
vn 0.00000 1.00000 0.00000
vn 0.00000 1.00000 0.00000
vn 0.00000 1.00000 0.00000
vn 0.00000 1.00000 0.00000
vn 0.00000 1.00000 0.00000
vn 0.00000 1.00000 0.00000
vn 0.00000 1.00000 0.00000
vn 0.00000 1.00000 0.00000
vn -0.00748 0.99997 -0.00325
vn -0.01073 0.99994 0.00000
vn -0.05170 0.99849 -0.01831
vn -0.04326 0.99898 -0.01298
vn -0.08018 0.99666 -0.01524
vn -0.08246 0.99646 -0.01624
vn 0.00000 1.00000 0.00000
vn 0.00000 1.00000 0.00000
vn 0.00000 1.00000 0.00000
vn 0.00000 1.00000 0.00000
vn 0.00000 1.00000 0.00000
vn 0.00000 1.00000 0.00000
vn -0.02966 0.99947 -0.01338
vn -0.05947 0.99773 -0.03168
vn -0.05364 0.99841 -0.01723
vn 0.00000 1.00000 0.00000
vn 0.00000 1.00000 0.00000
vn 0.00000 1.00000 0.00000
vn 0.00000 1.00000 0.00000
vn 0.00000 1.00000 0.00000
vn -0.00954 0.99995 -0.00409
vn -0.04244 0.99897 -0.01635
vn -0.05157 0.99853 -0.01662
vn -0.02473 0.99957 -0.01582
vn 0.00000 1.00000 0.00000
vn 0.00000 1.00000 0.00000
vn 0.00000 1.00000 0.00000
vn 0.00000 1.00000 0.00000
vn 0.00000 1.00000 0.00000
vn -0.01637 0.99987 0.00000
vn -0.04662 0.99885 -0.01094
vn -0.05896 0.99826 -0.00185
vn -0.04737 0.99881 -0.01140
vn 0.00000 1.00000 0.00000
vn 0.00000 1.00000 0.00000
vn 0.00000 1.00000 0.00000
vn 0.00000 1.00000 0.00000
vn 0.00000 1.00000 0.00000
vn -0.02739 0.99962 -0.00327
vn -0.04428 0.99893 -0.01308
vn -0.05201 0.99860 -0.00965
vn -0.06286 0.99790 -0.01540
vn 0.00000 1.00000 0.00000
vn 0.00000 1.00000 0.00000
vn 0.00000 1.00000 0.00000
vn 0.00000 1.00000 0.00000
vn -0.00038 1.00000 -0.00038
vn -0.02945 0.99957 -0.00152
vn -0.05321 0.99858 -0.00208
vn -0.06128 0.99799 -0.01595
vn -0.06518 0.99778 -0.01392
vn 0.00000 1.00000 0.00000
vn 0.00000 1.00000 0.00000
vn 0.00000 1.00000 0.00000
vn 0.00000 1.00000 0.00000
vn -0.00152 1.00000 0.00000
vn -0.02468 0.99969 0.00369
vn -0.05868 0.99817 0.01475
vn -0.06254 0.99804 0.00362
vn -0.05481 0.99847 0.00782
vn 0.00000 1.00000 0.00000
vn 0.00000 1.00000 0.00000
vn 0.00000 1.00000 0.00000
vn 0.00000 1.00000 0.00000
vn -0.00076 1.00000 0.00076
vn -0.01468 0.99989 0.00304
vn -0.05882 0.99817 0.01398
vn -0.06819 0.99767 0.00249
vn -0.05134 0.99866 0.00596

f 1/1/1 2/2/2 3/3/3
f 1/1/1 3/3/3 4/4/4
f 4/4/4 3/3/3 5/5/5
f 5/5/5 3/3/3 6/6/6
f 5/5/5 6/6/6 7/7/7
f 5/5/5 7/7/7 8/8/8
f 8/8/8 7/7/7 9/9/9
f 9/9/9 7/7/7 10/10/10
f 9/9/9 10/10/10 11/11/11
f 9/9/9 11/11/11 12/12/12
f 12/12/12 11/11/11 13/13/13
f 13/13/13 11/11/11 14/14/14
f 13/13/13 14/14/14 15/15/15
f 13/13/13 15/15/15 16/16/16
f 16/16/16 15/15/15 17/17/17
f 17/17/17 15/15/15 18/18/18
f 2/2/2 19/19/19 3/3/3
f 3/3/3 19/19/19 20/20/20
f 3/3/3 20/20/20 21/21/21
f 3/3/3 21/21/21 6/6/6
f 6/6/6 21/21/21 7/7/7
f 7/7/7 21/21/21 22/22/22
f 7/7/7 22/22/22 23/23/23
f 7/7/7 23/23/23 10/10/10
f 10/10/10 23/23/23 11/11/11
f 11/11/11 23/23/23 24/24/24
f 11/11/11 24/24/24 25/25/25
f 11/11/11 25/25/25 14/14/14
f 14/14/14 25/25/25 15/15/15
f 15/15/15 25/25/25 26/26/26
f 15/15/15 26/26/26 27/27/27
f 15/15/15 27/27/27 18/18/18
f 19/19/19 28/28/28 29/29/29
f 19/19/19 29/29/29 20/20/20
f 20/20/20 29/29/29 21/21/21
f 21/21/21 29/29/29 30/30/30
f 21/21/21 30/30/30 31/31/31
f 21/21/21 31/31/31 22/22/22
f 22/22/22 31/31/31 23/23/23
f 23/23/23 31/31/31 32/32/32
f 23/23/23 32/32/32 33/33/33
f 23/23/23 33/33/33 24/24/24
f 24/24/24 33/33/33 25/25/25
f 25/25/25 33/33/33 34/34/34
f 25/25/25 34/34/34 35/35/35
f 25/25/25 35/35/35 26/26/26
f 26/26/26 35/35/35 27/27/27
f 27/27/27 35/35/35 36/36/36
f 28/28/28 37/37/37 29/29/29
f 29/29/29 37/37/37 38/38/38
f 29/29/29 38/38/38 39/39/39
f 29/29/29 39/39/39 30/30/30
f 30/30/30 39/39/39 31/31/31
f 31/31/31 39/39/39 40/40/40
f 31/31/31 40/40/40 41/41/41
f 31/31/31 41/41/41 32/32/32
f 32/32/32 41/41/41 33/33/33
f 33/33/33 41/41/41 42/42/42
f 33/33/33 42/42/42 43/43/43
f 33/33/33 43/43/43 34/34/34
f 34/34/34 43/43/43 35/35/35
f 35/35/35 43/43/43 44/44/44
f 35/35/35 44/44/44 45/45/45
f 35/35/35 45/45/45 36/36/36
f 37/37/37 46/46/46 47/47/47
f 37/37/37 47/47/47 38/38/38
f 38/38/38 47/47/47 39/39/39
f 39/39/39 47/47/47 48/48/48
f 39/39/39 48/48/48 49/49/49
f 39/39/39 49/49/49 40/40/40
f 40/40/40 49/49/49 41/41/41
f 41/41/41 49/49/49 50/50/50
f 41/41/41 50/50/50 51/51/51
f 41/41/41 51/51/51 42/42/42
f 42/42/42 51/51/51 43/43/43
f 43/43/43 51/51/51 52/52/52
f 43/43/43 52/52/52 53/53/53
f 43/43/43 53/53/53 44/44/44
f 44/44/44 53/53/53 45/45/45
f 45/45/45 53/53/53 54/54/54
f 46/46/46 55/55/55 47/47/47
f 47/47/47 55/55/55 56/56/56
f 47/47/47 56/56/56 57/57/57
f 47/47/47 57/57/57 48/48/48
f 48/48/48 57/57/57 49/49/49
f 49/49/49 57/57/57 58/58/58
f 49/49/49 58/58/58 59/59/59
f 49/49/49 59/59/59 50/50/50
f 50/50/50 59/59/59 51/51/51
f 51/51/51 59/59/59 60/60/60
f 51/51/51 60/60/60 61/61/61
f 51/51/51 61/61/61 52/52/52
f 52/52/52 61/61/61 53/53/53
f 53/53/53 61/61/61 62/62/62
f 53/53/53 62/62/62 63/63/63
f 53/53/53 63/63/63 54/54/54
f 55/55/55 64/64/64 65/65/65
f 55/55/55 65/65/65 56/56/56
f 56/56/56 65/65/65 57/57/57
f 57/57/57 65/65/65 66/66/66
f 57/57/57 66/66/66 67/67/67
f 57/57/57 67/67/67 58/58/58
f 58/58/58 67/67/67 59/59/59
f 59/59/59 67/67/67 68/68/68
f 59/59/59 68/68/68 69/69/69
f 59/59/59 69/69/69 60/60/60
f 60/60/60 69/69/69 61/61/61
f 61/61/61 69/69/69 70/70/70
f 61/61/61 70/70/70 71/71/71
f 61/61/61 71/71/71 62/62/62
f 62/62/62 71/71/71 63/63/63
f 63/63/63 71/71/71 72/72/72
f 64/64/64 73/73/73 65/65/65
f 65/65/65 73/73/73 74/74/74
f 65/65/65 74/74/74 75/75/75
f 65/65/65 75/75/75 66/66/66
f 66/66/66 75/75/75 67/67/67
f 67/67/67 75/75/75 76/76/76
f 67/67/67 76/76/76 77/77/77
f 67/67/67 77/77/77 68/68/68
f 68/68/68 77/77/77 69/69/69
f 69/69/69 77/77/77 78/78/78
f 69/69/69 78/78/78 79/79/79
f 69/69/69 79/79/79 70/70/70
f 70/70/70 79/79/79 71/71/71
f 71/71/71 79/79/79 80/80/80
f 71/71/71 80/80/80 81/81/81
f 71/71/71 81/81/81 72/72/72
