# Generated by tools/generate_island.py. Do not edit by hand.
o terrain_lod2_4_1

v 512.000 -0.680 128.000 0.454 0.422 0.245
v 512.000 -0.935 144.000 0.429 0.396 0.229
v 528.000 -1.005 144.000 0.501 0.470 0.276
v 528.000 -0.331 128.000 0.527 0.497 0.293
v 544.000 -1.040 128.000 0.522 0.492 0.290
v 544.000 -0.899 144.000 0.519 0.489 0.288
v 560.000 -0.796 144.000 0.492 0.461 0.270
v 560.000 -1.278 128.000 0.476 0.444 0.259
v 576.000 -1.381 128.000 0.456 0.424 0.247
v 576.000 -1.683 144.000 0.450 0.418 0.243
v 592.000 -2.573 144.000 0.389 0.355 0.202
v 592.000 -2.158 128.000 0.422 0.389 0.224
v 608.000 -2.511 128.000 0.425 0.392 0.226
v 608.000 -2.566 144.000 0.391 0.357 0.204
v 624.000 -3.102 144.000 0.499 0.469 0.275
v 624.000 -3.001 128.000 0.464 0.432 0.252
v 640.000 -3.670 128.000 0.512 0.482 0.283
v 640.000 -3.344 144.000 0.548 0.519 0.307
v 512.000 -0.986 160.000 0.440 0.408 0.236
v 528.000 -1.085 160.000 0.485 0.454 0.265
v 544.000 -0.947 160.000 0.527 0.497 0.293
v 560.000 -0.972 160.000 0.490 0.459 0.269
v 576.000 -2.051 160.000 0.406 0.373 0.214
v 592.000 -2.324 160.000 0.378 0.344 0.195
v 608.000 -2.612 160.000 0.375 0.341 0.193
v 624.000 -3.541 160.000 0.485 0.454 0.266
v 640.000 -3.391 160.000 0.527 0.497 0.293
v 512.000 -1.100 176.000 0.453 0.421 0.244
v 528.000 -1.392 176.000 0.486 0.455 0.266
v 544.000 -1.010 176.000 0.515 0.485 0.285
v 560.000 -1.375 176.000 0.514 0.484 0.284
v 576.000 -1.910 176.000 0.409 0.376 0.216
v 592.000 -2.324 176.000 0.375 0.341 0.193
v 608.000 -3.091 176.000 0.386 0.352 0.201
v 624.000 -3.629 176.000 0.472 0.440 0.257
v 640.000 -3.194 176.000 0.530 0.501 0.295
v 512.000 -1.360 192.000 0.481 0.450 0.263
v 528.000 -1.048 192.000 0.483 0.452 0.264
v 544.000 -1.459 192.000 0.472 0.440 0.257
v 560.000 -2.393 192.000 0.471 0.440 0.256
v 576.000 -2.360 192.000 0.396 0.362 0.207
v 592.000 -2.449 192.000 0.405 0.372 0.213
v 608.000 -2.973 192.000 0.421 0.388 0.223
v 624.000 -3.106 192.000 0.427 0.394 0.227
v 640.000 -3.730 192.000 0.493 0.462 0.271
v 512.000 -2.185 208.000 0.459 0.427 0.248
v 528.000 -1.971 208.000 0.492 0.461 0.270
v 544.000 -2.255 208.000 0.488 0.457 0.267
v 560.000 -2.229 208.000 0.474 0.443 0.258
v 576.000 -2.181 208.000 0.433 0.400 0.231
v 592.000 -2.981 208.000 0.434 0.401 0.232
v 608.000 -3.456 208.000 0.435 0.403 0.233
v 624.000 -3.134 208.000 0.403 0.370 0.212
v 640.000 -3.877 208.000 0.416 0.382 0.220
v 512.000 -2.467 224.000 0.462 0.430 0.250
v 528.000 -2.440 224.000 0.481 0.449 0.263
v 544.000 -3.081 224.000 0.472 0.440 0.257
v 560.000 -2.787 224.000 0.464 0.432 0.252
v 576.000 -2.667 224.000 0.455 0.424 0.246
v 592.000 -3.095 224.000 0.430 0.398 0.230
v 608.000 -3.024 224.000 0.444 0.412 0.239
v 624.000 -3.471 224.000 0.418 0.385 0.222
v 640.000 -4.393 224.000 0.380 0.346 0.197
v 512.000 -2.864 240.000 0.481 0.450 0.263
v 528.000 -3.204 240.000 0.500 0.470 0.275
v 544.000 -3.247 240.000 0.469 0.438 0.255
v 560.000 -2.943 240.000 0.468 0.437 0.254
v 576.000 -3.198 240.000 0.542 0.513 0.303
v 592.000 -3.045 240.000 0.533 0.503 0.297
v 608.000 -2.887 240.000 0.496 0.465 0.273
v 624.000 -3.654 240.000 0.506 0.476 0.279
v 640.000 -4.043 240.000 0.444 0.411 0.238
v 512.000 -3.199 256.000 0.455 0.423 0.246
v 528.000 -3.522 256.000 0.476 0.445 0.259
v 544.000 -2.934 256.000 0.456 0.424 0.246
v 560.000 -3.166 256.000 0.442 0.409 0.237
v 576.000 -3.726 256.000 0.528 0.498 0.294
v 592.000 -3.034 256.000 0.550 0.521 0.308
v 608.000 -3.139 256.000 0.548 0.518 0.307
v 624.000 -3.773 256.000 0.495 0.464 0.272
v 640.000 -4.125 256.000 0.467 0.436 0.254

vt 0.766667 0.433333
vt 0.766667 0.425000
vt 0.775000 0.425000
vt 0.775000 0.433333
vt 0.783333 0.433333
vt 0.783333 0.425000
vt 0.791667 0.425000
vt 0.791667 0.433333
vt 0.800000 0.433333
vt 0.800000 0.425000
vt 0.808333 0.425000
vt 0.808333 0.433333
vt 0.816667 0.433333
vt 0.816667 0.425000
vt 0.825000 0.425000
vt 0.825000 0.433333
vt 0.833333 0.433333
vt 0.833333 0.425000
vt 0.766667 0.416667
vt 0.775000 0.416667
vt 0.783333 0.416667
vt 0.791667 0.416667
vt 0.800000 0.416667
vt 0.808333 0.416667
vt 0.816667 0.416667
vt 0.825000 0.416667
vt 0.833333 0.416667
vt 0.766667 0.408333
vt 0.775000 0.408333
vt 0.783333 0.408333
vt 0.791667 0.408333
vt 0.800000 0.408333
vt 0.808333 0.408333
vt 0.816667 0.408333
vt 0.825000 0.408333
vt 0.833333 0.408333
vt 0.766667 0.400000
vt 0.775000 0.400000
vt 0.783333 0.400000
vt 0.791667 0.400000
vt 0.800000 0.400000
vt 0.808333 0.400000
vt 0.816667 0.400000
vt 0.825000 0.400000
vt 0.833333 0.400000
vt 0.766667 0.391667
vt 0.775000 0.391667
vt 0.783333 0.391667
vt 0.791667 0.391667
vt 0.800000 0.391667
vt 0.808333 0.391667
vt 0.816667 0.391667
vt 0.825000 0.391667
vt 0.833333 0.391667
vt 0.766667 0.383333
vt 0.775000 0.383333
vt 0.783333 0.383333
vt 0.791667 0.383333
vt 0.800000 0.383333
vt 0.808333 0.383333
vt 0.816667 0.383333
vt 0.825000 0.383333
vt 0.833333 0.383333
vt 0.766667 0.375000
vt 0.775000 0.375000
vt 0.783333 0.375000
vt 0.791667 0.375000
vt 0.800000 0.375000
vt 0.808333 0.375000
vt 0.816667 0.375000
vt 0.825000 0.375000
vt 0.833333 0.375000
vt 0.766667 0.366667
vt 0.775000 0.366667
vt 0.783333 0.366667
vt 0.791667 0.366667
vt 0.800000 0.366667
vt 0.808333 0.366667
vt 0.816667 0.366667
vt 0.825000 0.366667
vt 0.833333 0.366667

vn -0.00872 0.99954 0.02902
vn 0.00437 0.99994 0.00958
vn 0.00195 0.99991 0.01345
vn 0.01125 0.99905 0.04209
vn 0.01154 0.99993 -0.00141
vn -0.00652 0.99997 -0.00292
vn 0.02353 0.99972 -0.00029
vn 0.01065 0.99949 -0.03013
vn 0.04148 0.99910 0.00835
vn 0.05543 0.99824 0.02090
vn 0.02700 0.99960 0.00861
vn 0.03526 0.99904 0.02588
vn 0.02143 0.99972 0.00978
vn 0.01653 0.99986 0.00319
vn 0.02728 0.99960 0.00704
vn 0.03621 0.99932 0.00630
vn 0.02845 0.99957 -0.00703
vn 0.01513 0.99985 -0.00873
vn 0.00875 0.99992 0.00863
vn -0.00123 0.99993 0.01210
vn -0.00354 0.99995 0.00927
vn 0.03449 0.99924 0.01807
vn 0.04238 0.99908 0.00613
vn 0.01754 0.99982 -0.00778
vn 0.03332 0.99939 0.01037
vn 0.02431 0.99957 0.01645
vn -0.00770 0.99995 0.00588
vn 0.01825 0.99977 0.01167
vn -0.00094 0.99998 0.00633
vn -0.00054 0.99987 0.01601
vn 0.02972 0.99915 0.02859
vn 0.02965 0.99951 0.00966
vn 0.02761 0.99959 0.00719
vn 0.04074 0.99911 0.01125
vn 0.01361 0.99991 -0.00132
vn -0.02715 0.99957 0.01061
vn -0.00854 0.99963 0.02599
vn 0.00310 0.99983 0.01808
vn 0.02288 0.99927 0.03063
vn 0.02814 0.99925 0.02667
vn 0.01417 0.99977 0.01604
vn 0.01913 0.99961 0.02053
vn 0.02164 0.99974 0.00697
vn 0.02366 0.99960 -0.01546
vn 0.02433 0.99970 0.00293
vn -0.01339 0.99931 0.03459
vn 0.00666 0.99905 0.04304
vn 0.00805 0.99869 0.05060
vn 0.00265 0.99977 0.02122
vn 0.02351 0.99968 0.00959
vn 0.02747 0.99954 0.01288
vn 0.00476 0.99999 0.00158
vn 0.02318 0.99967 0.01127
vn 0.04638 0.99871 0.02068
vn 0.00110 0.99955 0.02986
vn 0.01914 0.99908 0.03849
vn 0.00539 0.99951 0.03070
vn -0.01291 0.99967 0.02230
vn 0.01149 0.99969 0.02195
vn 0.01113 0.99994 0.00199
vn 0.01182 0.99992 -0.00433
vn 0.04275 0.99895 0.01625
vn 0.04645 0.99886 0.01073
vn 0.02119 0.99951 0.02286
vn 0.00870 0.99973 0.02147
vn -0.00815 0.99996 -0.00457
vn 0.00218 0.99991 0.01305
vn 0.00320 0.99945 0.03306
vn -0.00666 0.99994 0.00821
vn 0.01904 0.99981 0.00361
vn 0.03645 0.99933 0.00353
vn 0.02430 0.99967 -0.00836
vn 0.02066 0.99958 0.02040
vn -0.00828 0.99977 0.01988
vn -0.00963 0.99995 -0.00132
vn 0.02473 0.99960 0.01398
vn -0.00047 0.99980 0.01982
vn -0.01834 0.99983 -0.00069
vn 0.02106 0.99973 0.00956
vn 0.03080 0.99950 0.00740
vn 0.02316 0.99971 0.00626

f 1/1/1 2/2/2 3/3/3
f 1/1/1 3/3/3 4/4/4
f 4/4/4 3/3/3 5/5/5
f 5/5/5 3/3/3 6/6/6
f 5/5/5 6/6/6 7/7/7
f 5/5/5 7/7/7 8/8/8
f 8/8/8 7/7/7 9/9/9
f 9/9/9 7/7/7 10/10/10
f 9/9/9 10/10/10 11/11/11
f 9/9/9 11/11/11 12/12/12
f 12/12/12 11/11/11 13/13/13
f 13/13/13 11/11/11 14/14/14
f 13/13/13 14/14/14 15/15/15
f 13/13/13 15/15/15 16/16/16
f 16/16/16 15/15/15 17/17/17
f 17/17/17 15/15/15 18/18/18
f 2/2/2 19/19/19 3/3/3
f 3/3/3 19/19/19 20/20/20
f 3/3/3 20/20/20 21/21/21
f 3/3/3 21/21/21 6/6/6
f 6/6/6 21/21/21 7/7/7
f 7/7/7 21/21/21 22/22/22
f 7/7/7 22/22/22 23/23/23
f 7/7/7 23/23/23 10/10/10
f 10/10/10 23/23/23 11/11/11
f 11/11/11 23/23/23 24/24/24
f 11/11/11 24/24/24 25/25/25
f 11/11/11 25/25/25 14/14/14
f 14/14/14 25/25/25 15/15/15
f 15/15/15 25/25/25 26/26/26
f 15/15/15 26/26/26 27/27/27
f 15/15/15 27/27/27 18/18/18
f 19/19/19 28/28/28 29/29/29
f 19/19/19 29/29/29 20/20/20
f 20/20/20 29/29/29 21/21/21
f 21/21/21 29/29/29 30/30/30
f 21/21/21 30/30/30 31/31/31
f 21/21/21 31/31/31 22/22/22
f 22/22/22 31/31/31 23/23/23
f 23/23/23 31/31/31 32/32/32
f 23/23/23 32/32/32 33/33/33
f 23/23/23 33/33/33 24/24/24
f 24/24/24 33/33/33 25/25/25
f 25/25/25 33/33/33 34/34/34
f 25/25/25 34/34/34 35/35/35
f 25/25/25 35/35/35 26/26/26
f 26/26/26 35/35/35 27/27/27
f 27/27/27 35/35/35 36/36/36
f 28/28/28 37/37/37 29/29/29
f 29/29/29 37/37/37 38/38/38
f 29/29/29 38/38/38 39/39/39
f 29/29/29 39/39/39 30/30/30
f 30/30/30 39/39/39 31/31/31
f 31/31/31 39/39/39 40/40/40
f 31/31/31 40/40/40 41/41/41
f 31/31/31 41/41/41 32/32/32
f 32/32/32 41/41/41 33/33/33
f 33/33/33 41/41/41 42/42/42
f 33/33/33 42/42/42 43/43/43
f 33/33/33 43/43/43 34/34/34
f 34/34/34 43/43/43 35/35/35
f 35/35/35 43/43/43 44/44/44
f 35/35/35 44/44/44 45/45/45
f 35/35/35 45/45/45 36/36/36
f 37/37/37 46/46/46 47/47/47
f 37/37/37 47/47/47 38/38/38
f 38/38/38 47/47/47 39/39/39
f 39/39/39 47/47/47 48/48/48
f 39/39/39 48/48/48 49/49/49
f 39/39/39 49/49/49 40/40/40
f 40/40/40 49/49/49 41/41/41
f 41/41/41 49/49/49 50/50/50
f 41/41/41 50/50/50 51/51/51
f 41/41/41 51/51/51 42/42/42
f 42/42/42 51/51/51 43/43/43
f 43/43/43 51/51/51 52/52/52
f 43/43/43 52/52/52 53/53/53
f 43/43/43 53/53/53 44/44/44
f 44/44/44 53/53/53 45/45/45
f 45/45/45 53/53/53 54/54/54
f 46/46/46 55/55/55 47/47/47
f 47/47/47 55/55/55 56/56/56
f 47/47/47 56/56/56 57/57/57
f 47/47/47 57/57/57 48/48/48
f 48/48/48 57/57/57 49/49/49
f 49/49/49 57/57/57 58/58/58
f 49/49/49 58/58/58 59/59/59
f 49/49/49 59/59/59 50/50/50
f 50/50/50 59/59/59 51/51/51
f 51/51/51 59/59/59 60/60/60
f 51/51/51 60/60/60 61/61/61
f 51/51/51 61/61/61 52/52/52
f 52/52/52 61/61/61 53/53/53
f 53/53/53 61/61/61 62/62/62
f 53/53/53 62/62/62 63/63/63
f 53/53/53 63/63/63 54/54/54
f 55/55/55 64/64/64 65/65/65
f 55/55/55 65/65/65 56/56/56
f 56/56/56 65/65/65 57/57/57
f 57/57/57 65/65/65 66/66/66
f 57/57/57 66/66/66 67/67/67
f 57/57/57 67/67/67 58/58/58
f 58/58/58 67/67/67 59/59/59
f 59/59/59 67/67/67 68/68/68
f 59/59/59 68/68/68 69/69/69
f 59/59/59 69/69/69 60/60/60
f 60/60/60 69/69/69 61/61/61
f 61/61/61 69/69/69 70/70/70
f 61/61/61 70/70/70 71/71/71
f 61/61/61 71/71/71 62/62/62
f 62/62/62 71/71/71 63/63/63
f 63/63/63 71/71/71 72/72/72
f 64/64/64 73/73/73 65/65/65
f 65/65/65 73/73/73 74/74/74
f 65/65/65 74/74/74 75/75/75
f 65/65/65 75/75/75 66/66/66
f 66/66/66 75/75/75 67/67/67
f 67/67/67 75/75/75 76/76/76
f 67/67/67 76/76/76 77/77/77
f 67/67/67 77/77/77 68/68/68
f 68/68/68 77/77/77 69/69/69
f 69/69/69 77/77/77 78/78/78
f 69/69/69 78/78/78 79/79/79
f 69/69/69 79/79/79 70/70/70
f 70/70/70 79/79/79 71/71/71
f 71/71/71 79/79/79 80/80/80
f 71/71/71 80/80/80 81/81/81
f 71/71/71 81/81/81 72/72/72
