# Generated by tools/generate_island.py. Do not edit by hand.
o terrain_lod0_-7_-1

v -772.000 -10.800 -36.000 0.492 0.461 0.270
v -772.000 -10.800 -32.000 0.499 0.468 0.275
v -768.000 -10.714 -32.000 0.506 0.476 0.279
v -768.000 -10.800 -36.000 0.499 0.468 0.274
v -772.000 -10.800 -28.000 0.501 0.470 0.276
v -768.000 -10.663 -28.000 0.508 0.478 0.281
v -772.000 -10.800 -24.000 0.499 0.468 0.274
v -768.000 -10.632 -24.000 0.500 0.469 0.275
v -776.000 -10.800 -24.000 0.494 0.463 0.271
v -776.000 -10.800 -20.000 0.499 0.469 0.275
v -772.000 -10.742 -20.000 0.499 0.469 0.275
v -768.000 -10.608 -20.000 0.500 0.469 0.275
v -776.000 -10.800 -16.000 0.489 0.459 0.268
v -772.000 -10.593 -16.000 0.505 0.475 0.279
v -768.000 -10.445 -16.000 0.514 0.484 0.285
v -780.000 -10.800 -12.000 0.501 0.470 0.276
v -776.000 -10.733 -12.000 0.494 0.463 0.271
v -772.000 -10.326 -12.000 0.506 0.476 0.279
v -768.000 -10.115 -12.000 0.520 0.490 0.289
v -780.000 -10.800 -8.000 0.503 0.473 0.277
v -776.000 -10.582 -8.000 0.505 0.474 0.278
v -772.000 -10.114 -8.000 0.506 0.475 0.279
v -768.000 -9.741 -8.000 0.518 0.488 0.287
v -784.000 -10.800 -8.000 0.513 0.483 0.284
v -784.000 -10.800 -4.000 0.512 0.482 0.283
v -780.000 -10.781 -4.000 0.506 0.476 0.280
v -776.000 -10.450 -4.000 0.511 0.481 0.283
v -772.000 -9.955 -4.000 0.509 0.478 0.281
v -768.000 -9.485 -4.000 0.516 0.486 0.286
v -788.000 -10.800 -4.000 0.528 0.498 0.294
v -788.000 -10.800 0.000 0.523 0.493 0.290
v -784.000 -10.665 0.000 0.514 0.484 0.285
v -780.000 -10.519 0.000 0.517 0.487 0.287
v -776.000 -10.333 0.000 0.522 0.493 0.290
v -772.000 -9.954 0.000 0.518 0.488 0.287
v -768.000 -9.414 0.000 0.519 0.489 0.288

vt 0.097917 0.518750
vt 0.097917 0.516667
vt 0.100000 0.516667
vt 0.100000 0.518750
vt 0.097917 0.514583
vt 0.100000 0.514583
vt 0.097917 0.512500
vt 0.100000 0.512500
vt 0.095833 0.512500
vt 0.095833 0.510417
vt 0.097917 0.510417
vt 0.100000 0.510417
vt 0.095833 0.508333
vt 0.097917 0.508333
vt 0.100000 0.508333
vt 0.093750 0.506250
vt 0.095833 0.506250
vt 0.097917 0.506250
vt 0.100000 0.506250
vt 0.093750 0.504167
vt 0.095833 0.504167
vt 0.097917 0.504167
vt 0.100000 0.504167
vt 0.091667 0.504167
vt 0.091667 0.502083
vt 0.093750 0.502083
vt 0.095833 0.502083
vt 0.097917 0.502083
vt 0.100000 0.502083
vt 0.089583 0.502083
vt 0.089583 0.500000
vt 0.091667 0.500000
vt 0.093750 0.500000
vt 0.095833 0.500000
vt 0.097917 0.500000
vt 0.100000 0.500000

vn -0.01077 0.99988 -0.01077
vn -0.02155 0.99977 0.00000
vn -0.01931 0.99978 -0.00853
vn 0.00000 0.99977 -0.02155
vn -0.03296 0.99944 -0.00513
vn -0.03412 0.99936 -0.01026
vn -0.02804 0.99956 -0.00962
vn -0.03796 0.99925 -0.00710
vn -0.00722 0.99995 -0.00722
vn -0.01444 0.99990 0.00000
vn -0.02838 0.99942 -0.01875
vn -0.03365 0.99916 -0.02338
vn -0.04719 0.99851 -0.02751
vn -0.04433 0.99767 -0.05194
vn -0.04010 0.99759 -0.05667
vn -0.02934 0.99940 -0.01815
vn -0.05915 0.99788 -0.02718
vn -0.07566 0.99542 -0.05852
vn -0.05241 0.99479 -0.08749
vn -0.03629 0.99934 -0.00323
vn -0.08321 0.99609 -0.02973
vn -0.10446 0.99346 -0.04608
vn -0.08860 0.99412 -0.06222
vn -0.00242 0.99999 -0.00242
vn -0.00323 0.99974 -0.02256
vn -0.03896 0.99880 -0.02954
vn -0.10265 0.99424 -0.03092
vn -0.11457 0.99303 -0.02779
vn -0.11659 0.99235 -0.04053
vn -0.01692 0.99971 -0.01692
vn -0.03383 0.99943 0.00000
vn -0.01876 0.99927 -0.03325
vn -0.04128 0.99702 -0.06522
vn -0.08659 0.99576 -0.03093
vn -0.11414 0.99346 -0.00028
vn -0.12517 0.99210 -0.00888

f 1/1/1 2/2/2 3/3/3
f 1/1/1 3/3/3 4/4/4
f 2/2/2 5/5/5 3/3/3
f 3/3/3 5/5/5 6/6/6
f 5/5/5 7/7/7 8/8/8
f 5/5/5 8/8/8 6/6/6
f 9/9/9 10/10/10 11/11/11
f 9/9/9 11/11/11 7/7/7
f 7/7/7 11/11/11 8/8/8
f 8/8/8 11/11/11 12/12/12
f 10/10/10 13/13/13 11/11/11
f 11/11/11 13/13/13 14/14/14
f 11/11/11 14/14/14 15/15/15
f 11/11/11 15/15/15 12/12/12
f 13/13/13 16/16/16 17/17/17
f 13/13/13 17/17/17 18/18/18
f 13/13/13 18/18/18 14/14/14
f 14/14/14 18/18/18 15/15/15
f 15/15/15 18/18/18 19/19/19
f 16/16/16 20/20/20 21/21/21
f 16/16/16 21/21/21 17/17/17
f 17/17/17 21/21/21 18/18/18
f 18/18/18 21/21/21 22/22/22
f 18/18/18 22/22/22 23/23/23
f 18/18/18 23/23/23 19/19/19
f 24/24/24 25/25/25 26/26/26
f 24/24/24 26/26/26 20/20/20
f 20/20/20 26/26/26 21/21/21
f 21/21/21 26/26/26 27/27/27
f 21/21/21 27/27/27 28/28/28
f 21/21/21 28/28/28 22/22/22
f 22/22/22 28/28/28 23/23/23
f 23/23/23 28/28/28 29/29/29
f 30/30/30 31/31/31 32/32/32
f 30/30/30 32/32/32 25/25/25
f 25/25/25 32/32/32 26/26/26
f 26/26/26 32/32/32 33/33/33
f 26/26/26 33/33/33 34/34/34
f 26/26/26 34/34/34 27/27/27
f 27/27/27 34/34/34 28/28/28
f 28/28/28 34/34/34 35/35/35
f 28/28/28 35/35/35 36/36/36
f 28/28/28 36/36/36 29/29/29
