# Generated by tools/generate_island.py. Do not edit by hand.
o terrain_lod2_-4_-3

v -256.000 -8.000 -192.000 0.512 0.482 0.283
v -256.000 -8.000 -184.000 0.519 0.489 0.288
v -248.000 -8.000 -184.000 0.531 0.501 0.296
v -248.000 -8.000 -192.000 0.526 0.496 0.292
v -240.000 -8.000 -192.000 0.508 0.477 0.280
v -240.000 -8.000 -184.000 0.517 0.487 0.287
v -232.000 -8.000 -184.000 0.502 0.472 0.277
v -232.000 -8.000 -192.000 0.496 0.465 0.272
v -224.000 -8.000 -192.000 0.496 0.465 0.273
v -224.000 -8.000 -184.000 0.498 0.467 0.274
v -216.000 -8.000 -184.000 0.532 0.503 0.297
v -216.000 -8.000 -192.000 0.516 0.486 0.286
v -208.000 -8.000 -192.000 0.535 0.506 0.299
v -208.000 -8.000 -184.000 0.555 0.526 0.311
v -200.000 -8.000 -184.000 0.577 0.549 0.326
v -200.000 -8.000 -192.000 0.528 0.498 0.294
v -192.000 -8.000 -192.000 0.541 0.511 0.302
v -192.000 -8.000 -184.000 0.561 0.533 0.316
v -256.000 -8.000 -176.000 0.489 0.458 0.268
v -248.000 -8.000 -176.000 0.502 0.472 0.277
v -240.000 -8.000 -176.000 0.501 0.470 0.276
v -232.000 -8.000 -176.000 0.489 0.458 0.268
v -224.000 -8.000 -176.000 0.510 0.480 0.282
v -216.000 -8.000 -176.000 0.533 0.504 0.297
v -208.000 -8.000 -176.000 0.580 0.552 0.328
v -200.000 -8.000 -176.000 0.582 0.554 0.330
v -192.000 -8.000 -176.000 0.585 0.557 0.331
v -256.000 -8.000 -168.000 0.473 0.441 0.257
v -248.000 -8.000 -168.000 0.476 0.444 0.259
v -240.000 -8.000 -168.000 0.486 0.455 0.266
v -232.000 -8.000 -168.000 0.490 0.459 0.269
v -224.000 -8.000 -168.000 0.523 0.493 0.290
v -216.000 -8.000 -168.000 0.548 0.519 0.307
v -208.000 -8.000 -168.000 0.585 0.557 0.331
v -200.000 -8.000 -168.000 0.585 0.557 0.331
v -192.000 -8.000 -168.000 0.585 0.557 0.331
v -256.000 -8.000 -160.000 0.440 0.407 0.236
v -248.000 -8.000 -160.000 0.466 0.434 0.253
v -240.000 -8.000 -160.000 0.482 0.451 0.263
v -232.000 -8.000 -160.000 0.478 0.447 0.261
v -224.000 -8.000 -160.000 0.510 0.480 0.282
v -216.000 -8.000 -160.000 0.544 0.515 0.305
v -208.000 -8.000 -160.000 0.562 0.533 0.316
v -200.000 -8.000 -160.000 0.565 0.537 0.318
v -192.000 -8.000 -160.000 0.581 0.553 0.329
v -256.000 -8.000 -152.000 0.433 0.401 0.232
v -248.000 -8.000 -152.000 0.479 0.448 0.262
v -240.000 -8.000 -152.000 0.500 0.469 0.275
v -232.000 -8.000 -152.000 0.501 0.471 0.276
v -224.000 -8.000 -152.000 0.518 0.488 0.287
v -216.000 -8.000 -152.000 0.551 0.522 0.309
v -208.000 -8.000 -152.000 0.542 0.513 0.303
v -200.000 -8.000 -152.000 0.556 0.527 0.312
v -192.000 -8.000 -152.000 0.561 0.532 0.316
v -256.000 -8.000 -144.000 0.469 0.437 0.255
v -248.000 -8.000 -144.000 0.487 0.456 0.267
v -240.000 -8.000 -144.000 0.500 0.470 0.275
v -232.000 -8.000 -144.000 0.515 0.485 0.285
v -224.000 -8.000 -144.000 0.533 0.504 0.297
v -216.000 -8.000 -144.000 0.547 0.517 0.306
v -208.000 -8.000 -144.000 0.541 0.512 0.302
v -200.000 -8.000 -144.000 0.535 0.505 0.298
v -192.000 -8.000 -144.000 0.520 0.490 0.288
v -256.000 -8.000 -136.000 0.501 0.470 0.276
v -248.000 -8.000 -136.000 0.509 0.478 0.281
v -240.000 -8.000 -136.000 0.512 0.482 0.283
v -232.000 -8.000 -136.000 0.520 0.490 0.289
v -224.000 -8.000 -136.000 0.538 0.508 0.300
v -216.000 -8.000 -136.000 0.544 0.515 0.304
v -208.000 -8.000 -136.000 0.532 0.503 0.297
v -200.000 -8.000 -136.000 0.503 0.473 0.277
v -192.000 -8.000 -136.000 0.495 0.465 0.272
v -256.000 -8.000 -128.000 0.486 0.455 0.266
v -248.000 -8.000 -128.000 0.537 0.508 0.300
v -240.000 -8.000 -128.000 0.553 0.524 0.310
v -232.000 -8.000 -128.000 0.545 0.515 0.305
v -224.000 -8.000 -128.000 0.514 0.484 0.285
v -216.000 -8.000 -128.000 0.515 0.484 0.285
v -208.000 -8.000 -128.000 0.535 0.506 0.298
v -200.000 -8.000 -128.000 0.499 0.469 0.275
v -192.000 -7.652 -128.000 0.459 0.427 0.248

vt 0.100000 0.800000
vt 0.100000 0.787500
vt 0.112500 0.787500
vt 0.112500 0.800000
vt 0.125000 0.800000
vt 0.125000 0.787500
vt 0.137500 0.787500
vt 0.137500 0.800000
vt 0.150000 0.800000
vt 0.150000 0.787500
vt 0.162500 0.787500
vt 0.162500 0.800000
vt 0.175000 0.800000
vt 0.175000 0.787500
vt 0.187500 0.787500
vt 0.187500 0.800000
vt 0.200000 0.800000
vt 0.200000 0.787500
vt 0.100000 0.775000
vt 0.112500 0.775000
vt 0.125000 0.775000
vt 0.137500 0.775000
vt 0.150000 0.775000
vt 0.162500 0.775000
vt 0.175000 0.775000
vt 0.187500 0.775000
vt 0.200000 0.775000
vt 0.100000 0.762500
vt 0.112500 0.762500
vt 0.125000 0.762500
vt 0.137500 0.762500
vt 0.150000 0.762500
vt 0.162500 0.762500
vt 0.175000 0.762500
vt 0.187500 0.762500
vt 0.200000 0.762500
vt 0.100000 0.750000
vt 0.112500 0.750000
vt 0.125000 0.750000
vt 0.137500 0.750000
vt 0.150000 0.750000
vt 0.162500 0.750000
vt 0.175000 0.750000
vt 0.187500 0.750000
vt 0.200000 0.750000
vt 0.100000 0.737500
vt 0.112500 0.737500
vt 0.125000 0.737500
vt 0.137500 0.737500
vt 0.150000 0.737500
vt 0.162500 0.737500
vt 0.175000 0.737500
vt 0.187500 0.737500
vt 0.200000 0.737500
vt 0.100000 0.725000
vt 0.112500 0.725000
vt 0.125000 0.725000
vt 0.137500 0.725000
vt 0.150000 0.725000
vt 0.162500 0.725000
vt 0.175000 0.725000
vt 0.187500 0.725000
vt 0.200000 0.725000
vt 0.100000 0.712500
vt 0.112500 0.712500
vt 0.125000 0.712500
vt 0.137500 0.712500
vt 0.150000 0.712500
vt 0.162500 0.712500
vt 0.175000 0.712500
vt 0.187500 0.712500
vt 0.200000 0.712500
vt 0.100000 0.700000
vt 0.112500 0.700000
vt 0.125000 0.700000
vt 0.137500 0.700000
vt 0.150000 0.700000
vt 0.162500 0.700000
vt 0.175000 0.700000
vt 0.187500 0.700000
vt 0.200000 0.700000

vn 0.00000 1.00000 0.00000
vn 0.00000 1.00000 0.00000
vn 0.00000 1.00000 0.00000
vn 0.00000 1.00000 0.00000
vn 0.00000 1.00000 0.00000
vn 0.00000 1.00000 0.00000
vn 0.00000 1.00000 0.00000
vn 0.00000 1.00000 0.00000
vn 0.00000 1.00000 0.00000
vn 0.00000 1.00000 0.00000
vn 0.00000 1.00000 0.00000
vn 0.00000 1.00000 0.00000
vn 0.00000 1.00000 0.00000
vn 0.00000 1.00000 0.00000
vn 0.00000 1.00000 0.00000
vn 0.00000 1.00000 0.00000
vn 0.00000 1.00000 0.00000
vn 0.00000 1.00000 0.00000
vn 0.00000 1.00000 0.00000
vn 0.00000 1.00000 0.00000
vn 0.00000 1.00000 0.00000
vn 0.00000 1.00000 0.00000
vn 0.00000 1.00000 0.00000
vn 0.00000 1.00000 0.00000
vn 0.00000 1.00000 0.00000
vn 0.00000 1.00000 0.00000
vn 0.00000 1.00000 0.00000
vn 0.00000 1.00000 0.00000
vn 0.00000 1.00000 0.00000
vn 0.00000 1.00000 0.00000
vn 0.00000 1.00000 0.00000
vn 0.00000 1.00000 0.00000
vn 0.00000 1.00000 0.00000
vn 0.00000 1.00000 0.00000
vn 0.00000 1.00000 0.00000
vn 0.00000 1.00000 0.00000
vn 0.00000 1.00000 0.00000
vn 0.00000 1.00000 0.00000
vn 0.00000 1.00000 0.00000
vn 0.00000 1.00000 0.00000
vn 0.00000 1.00000 0.00000
vn 0.00000 1.00000 0.00000
vn 0.00000 1.00000 0.00000
vn 0.00000 1.00000 0.00000
vn 0.00000 1.00000 0.00000
vn 0.00000 1.00000 0.00000
vn 0.00000 1.00000 0.00000
vn 0.00000 1.00000 0.00000
vn 0.00000 1.00000 0.00000
vn 0.00000 1.00000 0.00000
vn 0.00000 1.00000 0.00000
vn 0.00000 1.00000 0.00000
vn 0.00000 1.00000 0.00000
vn 0.00000 1.00000 0.00000
vn 0.00000 1.00000 0.00000
vn 0.00000 1.00000 0.00000
vn 0.00000 1.00000 0.00000
vn 0.00000 1.00000 0.00000
vn 0.00000 1.00000 0.00000
vn 0.00000 1.00000 0.00000
vn 0.00000 1.00000 0.00000
vn 0.00000 1.00000 0.00000
vn 0.00000 1.00000 0.00000
vn 0.00000 1.00000 0.00000
vn 0.00000 1.00000 0.00000
vn 0.00000 1.00000 0.00000
vn 0.00000 1.00000 0.00000
vn 0.00000 1.00000 0.00000
vn 0.00000 1.00000 0.00000
vn 0.00000 1.00000 0.00000
vn -0.00544 0.99997 -0.00544
vn 0.00000 0.99976 -0.02177
vn 0.00000 1.00000 0.00000
vn 0.00000 1.00000 0.00000
vn 0.00000 1.00000 0.00000
vn 0.00000 1.00000 0.00000
vn 0.00000 1.00000 0.00000
vn 0.00000 1.00000 0.00000
vn 0.00000 1.00000 0.00000
vn -0.02177 0.99976 0.00000
vn -0.02177 0.99953 -0.02177

f 1/1/1 2/2/2 3/3/3
f 1/1/1 3/3/3 4/4/4
f 4/4/4 3/3/3 5/5/5
f 5/5/5 3/3/3 6/6/6
f 5/5/5 6/6/6 7/7/7
f 5/5/5 7/7/7 8/8/8
f 8/8/8 7/7/7 9/9/9
f 9/9/9 7/7/7 10/10/10
f 9/9/9 10/10/10 11/11/11
f 9/9/9 11/11/11 12/12/12
f 12/12/12 11/11/11 13/13/13
f 13/13/13 11/11/11 14/14/14
f 13/13/13 14/14/14 15/15/15
f 13/13/13 15/15/15 16/16/16
f 16/16/16 15/15/15 17/17/17
f 17/17/17 15/15/15 18/18/18
f 2/2/2 19/19/19 3/3/3
f 3/3/3 19/19/19 20/20/20
f 3/3/3 20/20/20 21/21/21
f 3/3/3 21/21/21 6/6/6
f 6/6/6 21/21/21 7/7/7
f 7/7/7 21/21/21 22/22/22
f 7/7/7 22/22/22 23/23/23
f 7/7/7 23/23/23 10/10/10
f 10/10/10 23/23/23 11/11/11
f 11/11/11 23/23/23 24/24/24
f 11/11/11 24/24/24 25/25/25
f 11/11/11 25/25/25 14/14/14
f 14/14/14 25/25/25 15/15/15
f 15/15/15 25/25/25 26/26/26
f 15/15/15 26/26/26 27/27/27
f 15/15/15 27/27/27 18/18/18
f 19/19/19 28/28/28 29/29/29
f 19/19/19 29/29/29 20/20/20
f 20/20/20 29/29/29 21/21/21
f 21/21/21 29/29/29 30/30/30
f 21/21/21 30/30/30 31/31/31
f 21/21/21 31/31/31 22/22/22
f 22/22/22 31/31/31 23/23/23
f 23/23/23 31/31/31 32/32/32
f 23/23/23 32/32/32 33/33/33
f 23/23/23 33/33/33 24/24/24
f 24/24/24 33/33/33 25/25/25
f 25/25/25 33/33/33 34/34/34
f 25/25/25 34/34/34 35/35/35
f 25/25/25 35/35/35 26/26/26
f 26/26/26 35/35/35 27/27/27
f 27/27/27 35/35/35 36/36/36
f 28/28/28 37/37/37 29/29/29
f 29/29/29 37/37/37 38/38/38
f 29/29/29 38/38/38 39/39/39
f 29/29/29 39/39/39 30/30/30
f 30/30/30 39/39/39 31/31/31
f 31/31/31 39/39/39 40/40/40
f 31/31/31 40/40/40 41/41/41
f 31/31/31 41/41/41 32/32/32
f 32/32/32 41/41/41 33/33/33
f 33/33/33 41/41/41 42/42/42
f 33/33/33 42/42/42 43/43/43
f 33/33/33 43/43/43 34/34/34
f 34/34/34 43/43/43 35/35/35
f 35/35/35 43/43/43 44/44/44
f 35/35/35 44/44/44 45/45/45
f 35/35/35 45/45/45 36/36/36
f 37/37/37 46/46/46 47/47/47
f 37/37/37 47/47/47 38/38/38
f 38/38/38 47/47/47 39/39/39
f 39/39/39 47/47/47 48/48/48
f 39/39/39 48/48/48 49/49/49
f 39/39/39 49/49/49 40/40/40
f 40/40/40 49/49/49 41/41/41
f 41/41/41 49/49/49 50/50/50
f 41/41/41 50/50/50 51/51/51
f 41/41/41 51/51/51 42/42/42
f 42/42/42 51/51/51 43/43/43
f 43/43/43 51/51/51 52/52/52
f 43/43/43 52/52/52 53/53/53
f 43/43/43 53/53/53 44/44/44
f 44/44/44 53/53/53 45/45/45
f 45/45/45 53/53/53 54/54/54
f 46/46/46 55/55/55 47/47/47
f 47/47/47 55/55/55 56/56/56
f 47/47/47 56/56/56 57/57/57
f 47/47/47 57/57/57 48/48/48
f 48/48/48 57/57/57 49/49/49
f 49/49/49 57/57/57 58/58/58
f 49/49/49 58/58/58 59/59/59
f 49/49/49 59/59/59 50/50/50
f 50/50/50 59/59/59 51/51/51
f 51/51/51 59/59/59 60/60/60
f 51/51/51 60/60/60 61/61/61
f 51/51/51 61/61/61 52/52/52
f 52/52/52 61/61/61 53/53/53
f 53/53/53 61/61/61 62/62/62
f 53/53/53 62/62/62 63/63/63
f 53/53/53 63/63/63 54/54/54
f 55/55/55 64/64/64 65/65/65
f 55/55/55 65/65/65 56/56/56
f 56/56/56 65/65/65 57/57/57
f 57/57/57 65/65/65 66/66/66
f 57/57/57 66/66/66 67/67/67
f 57/57/57 67/67/67 58/58/58
f 58/58/58 67/67/67 59/59/59
f 59/59/59 67/67/67 68/68/68
f 59/59/59 68/68/68 69/69/69
f 59/59/59 69/69/69 60/60/60
f 60/60/60 69/69/69 61/61/61
f 61/61/61 69/69/69 70/70/70
f 61/61/61 70/70/70 71/71/71
f 61/61/61 71/71/71 62/62/62
f 62/62/62 71/71/71 63/63/63
f 63/63/63 71/71/71 72/72/72
f 64/64/64 73/73/73 65/65/65
f 65/65/65 73/73/73 74/74/74
f 65/65/65 74/74/74 75/75/75
f 65/65/65 75/75/75 66/66/66
f 66/66/66 75/75/75 67/67/67
f 67/67/67 75/75/75 76/76/76
f 67/67/67 76/76/76 77/77/77
f 67/67/67 77/77/77 68/68/68
f 68/68/68 77/77/77 69/69/69
f 69/69/69 77/77/77 78/78/78
f 69/69/69 78/78/78 79/79/79
f 69/69/69 79/79/79 70/70/70
f 70/70/70 79/79/79 71/71/71
f 71/71/71 79/79/79 80/80/80
f 71/71/71 80/80/80 81/81/81
f 71/71/71 81/81/81 72/72/72
