# Generated by tools/generate_island.py. Do not edit by hand.
o terrain_lod0_5_3

v 640.000 -9.358 384.000 0.375 0.341 0.193
v 640.000 -9.601 388.000 0.366 0.331 0.187
v 644.000 -9.730 388.000 0.361 0.326 0.184
v 644.000 -9.484 384.000 0.365 0.330 0.186
v 648.000 -9.713 384.000 0.361 0.326 0.184
v 648.000 -9.822 388.000 0.361 0.326 0.184
v 652.000 -10.024 388.000 0.361 0.326 0.184
v 652.000 -9.996 384.000 0.363 0.329 0.185
v 656.000 -10.178 384.000 0.367 0.332 0.188
v 656.000 -10.216 388.000 0.362 0.327 0.184
v 660.000 -10.277 388.000 0.365 0.331 0.187
v 660.000 -10.081 384.000 0.371 0.336 0.190
v 664.000 -9.941 384.000 0.379 0.344 0.195
v 664.000 -10.173 388.000 0.373 0.339 0.192
v 668.000 -10.106 388.000 0.377 0.343 0.195
v 668.000 -9.936 384.000 0.379 0.344 0.196
v 672.000 -10.111 384.000 0.381 0.347 0.197
v 672.000 -10.291 388.000 0.385 0.351 0.199
v 676.000 -10.598 388.000 0.402 0.369 0.211
v 676.000 -10.302 384.000 0.393 0.359 0.205
v 680.000 -10.427 384.000 0.397 0.363 0.207
v 680.000 -10.800 388.000 0.409 0.376 0.216
v 684.000 -10.800 388.000 0.415 0.382 0.219
v 684.000 -10.524 384.000 0.400 0.367 0.210
v 688.000 -10.718 384.000 0.410 0.376 0.216
v 688.000 -10.800 388.000 0.425 0.392 0.226
v 692.000 -10.800 388.000 0.432 0.399 0.230
v 692.000 -10.800 384.000 0.419 0.386 0.222
v 640.000 -9.870 392.000 0.376 0.341 0.194
v 644.000 -10.031 392.000 0.374 0.340 0.193
v 648.000 -10.096 392.000 0.372 0.337 0.191
v 652.000 -10.180 392.000 0.366 0.331 0.187
v 656.000 -10.357 392.000 0.367 0.332 0.188
v 660.000 -10.548 392.000 0.368 0.333 0.188
v 664.000 -10.533 392.000 0.374 0.340 0.193
v 668.000 -10.456 392.000 0.380 0.346 0.196
v 672.000 -10.573 392.000 0.389 0.355 0.203
v 676.000 -10.800 392.000 0.402 0.368 0.211
v 680.000 -10.800 392.000 0.412 0.379 0.217
v 640.000 -10.171 396.000 0.376 0.342 0.194
v 644.000 -10.396 396.000 0.374 0.340 0.193
v 648.000 -10.439 396.000 0.371 0.336 0.190
v 652.000 -10.447 396.000 0.366 0.331 0.187
v 656.000 -10.547 396.000 0.365 0.330 0.186
v 660.000 -10.744 396.000 0.365 0.330 0.187
v 664.000 -10.800 396.000 0.372 0.338 0.191
v 668.000 -10.800 396.000 0.384 0.350 0.199
v 672.000 -10.800 396.000 0.400 0.366 0.209
v 676.000 -10.800 396.000 0.415 0.381 0.219
v 640.000 -10.452 400.000 0.381 0.346 0.197
v 644.000 -10.692 400.000 0.372 0.337 0.191
v 648.000 -10.796 400.000 0.363 0.328 0.185
v 652.000 -10.718 400.000 0.361 0.326 0.184
v 656.000 -10.719 400.000 0.361 0.326 0.184
v 660.000 -10.800 400.000 0.361 0.326 0.184
v 664.000 -10.800 400.000 0.367 0.332 0.188
v 640.000 -10.656 404.000 0.385 0.350 0.199
v 644.000 -10.800 404.000 0.364 0.329 0.186
v 652.000 -10.800 404.000 0.361 0.326 0.184
v 656.000 -10.800 404.000 0.361 0.326 0.184
v 660.000 -10.800 404.000 0.361 0.326 0.184
v 640.000 -10.753 408.000 0.389 0.355 0.202
v 644.000 -10.800 408.000 0.370 0.335 0.190
v 640.000 -10.800 412.000 0.396 0.362 0.207
v 644.000 -10.800 412.000 0.381 0.347 0.197

vt 0.833333 0.300000
vt 0.833333 0.297917
vt 0.835417 0.297917
vt 0.835417 0.300000
vt 0.837500 0.300000
vt 0.837500 0.297917
vt 0.839583 0.297917
vt 0.839583 0.300000
vt 0.841667 0.300000
vt 0.841667 0.297917
vt 0.843750 0.297917
vt 0.843750 0.300000
vt 0.845833 0.300000
vt 0.845833 0.297917
vt 0.847917 0.297917
vt 0.847917 0.300000
vt 0.850000 0.300000
vt 0.850000 0.297917
vt 0.852083 0.297917
vt 0.852083 0.300000
vt 0.854167 0.300000
vt 0.854167 0.297917
vt 0.856250 0.297917
vt 0.856250 0.300000
vt 0.858333 0.300000
vt 0.858333 0.297917
vt 0.860417 0.297917
vt 0.860417 0.300000
vt 0.833333 0.295833
vt 0.835417 0.295833
vt 0.837500 0.295833
vt 0.839583 0.295833
vt 0.841667 0.295833
vt 0.843750 0.295833
vt 0.845833 0.295833
vt 0.847917 0.295833
vt 0.850000 0.295833
vt 0.852083 0.295833
vt 0.854167 0.295833
vt 0.833333 0.293750
vt 0.835417 0.293750
vt 0.837500 0.293750
vt 0.839583 0.293750
vt 0.841667 0.293750
vt 0.843750 0.293750
vt 0.845833 0.293750
vt 0.847917 0.293750
vt 0.850000 0.293750
vt 0.852083 0.293750
vt 0.833333 0.291667
vt 0.835417 0.291667
vt 0.837500 0.291667
vt 0.839583 0.291667
vt 0.841667 0.291667
vt 0.843750 0.291667
vt 0.845833 0.291667
vt 0.833333 0.289583
vt 0.835417 0.289583
vt 0.839583 0.289583
vt 0.841667 0.289583
vt 0.843750 0.289583
vt 0.833333 0.287500
vt 0.835417 0.287500
vt 0.833333 0.285417
vt 0.835417 0.285417

vn 0.03185 0.99763 0.06102
vn 0.03216 0.99744 0.06386
vn 0.03189 0.99757 0.06200
vn 0.04432 0.99713 0.06131
vn 0.05024 0.99827 0.03061
vn 0.03663 0.99819 0.04774
vn 0.04723 0.99846 0.02901
vn 0.05803 0.99829 0.00693
vn 0.02114 0.99960 0.01862
vn 0.03162 0.99925 0.02227
vn -0.00459 0.99857 0.05318
vn -0.02959 0.99837 0.04881
vn -0.01969 0.99847 0.05167
vn -0.02128 0.99705 0.07375
vn 0.01390 0.99777 0.06525
vn 0.02123 0.99888 0.04238
vn 0.05340 0.99725 0.05140
vn 0.06124 0.99647 0.05747
vn 0.04869 0.99718 0.05705
vn 0.03938 0.99650 0.07379
vn 0.02642 0.99628 0.08206
vn 0.03362 0.99751 0.06195
vn 0.01813 0.99786 0.06283
vn 0.03622 0.99697 0.06888
vn 0.01726 0.99947 0.02751
vn 0.00000 0.99979 0.02050
vn 0.01025 0.99989 0.01025
vn 0.02050 0.99979 0.00000
vn 0.04215 0.99615 0.07693
vn 0.02815 0.99616 0.08295
vn 0.02003 0.99717 0.07242
vn 0.03252 0.99807 0.05284
vn 0.04011 0.99802 0.04843
vn 0.02199 0.99806 0.05829
vn -0.00932 0.99712 0.07528
vn 0.00494 0.99625 0.08641
vn 0.03676 0.99754 0.05970
vn 0.03785 0.99872 0.03366
vn 0.02526 0.99936 0.02526
vn 0.05618 0.99579 0.07243
vn 0.03447 0.99611 0.08104
vn 0.00634 0.99617 0.08722
vn 0.01244 0.99770 0.06667
vn 0.03704 0.99829 0.04522
vn 0.02384 0.99909 0.03536
vn 0.00932 0.99897 0.04446
vn 0.00247 0.99728 0.07367
vn 0.00000 0.99839 0.05676
vn 0.02840 0.99919 0.02840
vn 0.05292 0.99706 0.05542
vn 0.04299 0.99781 0.05035
vn 0.00431 0.99812 0.06120
vn -0.00967 0.99898 0.04406
vn 0.01439 0.99949 0.02858
vn 0.01348 0.99987 0.00932
vn 0.00699 0.99995 0.00699
vn 0.03589 0.99865 0.03755
vn 0.03395 0.99909 0.02585
vn -0.00645 0.99977 0.02040
vn 0.00000 0.99980 0.02022
vn 0.01011 0.99990 0.01011
vn 0.01490 0.99985 0.00898
vn 0.01184 0.99993 0.00000
vn 0.00000 0.99993 0.01184
vn 0.00592 0.99996 0.00592

f 1/1/1 2/2/2 3/3/3
f 1/1/1 3/3/3 4/4/4
f 4/4/4 3/3/3 5/5/5
f 5/5/5 3/3/3 6/6/6
f 5/5/5 6/6/6 7/7/7
f 5/5/5 7/7/7 8/8/8
f 8/8/8 7/7/7 9/9/9
f 9/9/9 7/7/7 10/10/10
f 9/9/9 10/10/10 11/11/11
f 9/9/9 11/11/11 12/12/12
f 12/12/12 11/11/11 13/13/13
f 13/13/13 11/11/11 14/14/14
f 13/13/13 14/14/14 15/15/15
f 13/13/13 15/15/15 16/16/16
f 16/16/16 15/15/15 17/17/17
f 17/17/17 15/15/15 18/18/18
f 17/17/17 18/18/18 19/19/19
f 17/17/17 19/19/19 20/20/20
f 20/20/20 19/19/19 21/21/21
f 21/21/21 19/19/19 22/22/22
f 21/21/21 22/22/22 23/23/23
f 21/21/21 23/23/23 24/24/24
f 24/24/24 23/23/23 25/25/25
f 25/25/25 23/23/23 26/26/26
f 25/25/25 26/26/26 27/27/27
f 25/25/25 27/27/27 28/28/28
f 2/2/2 29/29/29 3/3/3
f 3/3/3 29/29/29 30/30/30
f 3/3/3 30/30/30 31/31/31
f 3/3/3 31/31/31 6/6/6
f 6/6/6 31/31/31 7/7/7
f 7/7/7 31/31/31 32/32/32
f 7/7/7 32/32/32 33/33/33
f 7/7/7 33/33/33 10/10/10
f 10/10/10 33/33/33 11/11/11
f 11/11/11 33/33/33 34/34/34
f 11/11/11 34/34/34 35/35/35
f 11/11/11 35/35/35 14/14/14
f 14/14/14 35/35/35 15/15/15
f 15/15/15 35/35/35 36/36/36
f 15/15/15 36/36/36 37/37/37
f 15/15/15 37/37/37 18/18/18
f 18/18/18 37/37/37 19/19/19
f 19/19/19 37/37/37 38/38/38
f 19/19/19 38/38/38 39/39/39
f 19/19/19 39/39/39 22/22/22
f 29/29/29 40/40/40 41/41/41
f 29/29/29 41/41/41 30/30/30
f 30/30/30 41/41/41 31/31/31
f 31/31/31 41/41/41 42/42/42
f 31/31/31 42/42/42 43/43/43
f 31/31/31 43/43/43 32/32/32
f 32/32/32 43/43/43 33/33/33
f 33/33/33 43/43/43 44/44/44
f 33/33/33 44/44/44 45/45/45
f 33/33/33 45/45/45 34/34/34
f 34/34/34 45/45/45 35/35/35
f 35/35/35 45/45/45 46/46/46
f 35/35/35 46/46/46 47/47/47
f 35/35/35 47/47/47 36/36/36
f 36/36/36 47/47/47 37/37/37
f 37/37/37 47/47/47 48/48/48
f 37/37/37 48/48/48 49/49/49
f 37/37/37 49/49/49 38/38/38
f 40/40/40 50/50/50 41/41/41
f 41/41/41 50/50/50 51/51/51
f 41/41/41 51/51/51 52/52/52
f 41/41/41 52/52/52 42/42/42
f 42/42/42 52/52/52 43/43/43
f 43/43/43 52/52/52 53/53/53
f 43/43/43 53/53/53 54/54/54
f 43/43/43 54/54/54 44/44/44
f 44/44/44 54/54/54 45/45/45
f 45/45/45 54/54/54 55/55/55
f 45/45/45 55/55/55 56/56/56
f 45/45/45 56/56/56 46/46/46
f 50/50/50 57/57/57 58/58/58
f 50/50/50 58/58/58 51/51/51
f 51/51/51 58/58/58 52/52/52
f 52/52/52 59/59/59 53/53/53
f 53/53/53 59/59/59 54/54/54
f 54/54/54 59/59/59 60/60/60
f 54/54/54 60/60/60 61/61/61
f 54/54/54 61/61/61 55/55/55
f 57/57/57 62/62/62 58/58/58
f 58/58/58 62/62/62 63/63/63
f 62/62/62 64/64/64 65/65/65
f 62/62/62 65/65/65 63/63/63
