# Generated by tools/generate_island.py. Do not edit by hand.
o terrain_lod2_-1_-4

v -64.000 -8.000 -256.000 0.569 0.540 0.321
v -64.000 -8.000 -248.000 0.585 0.557 0.331
v -56.000 -8.000 -248.000 0.585 0.557 0.331
v -56.000 -8.000 -256.000 0.585 0.557 0.331
v -48.000 -8.000 -256.000 0.585 0.557 0.331
v -48.000 -8.000 -248.000 0.585 0.557 0.331
v -40.000 -8.000 -248.000 0.585 0.557 0.331
v -40.000 -8.000 -256.000 0.567 0.538 0.319
v -32.000 -8.000 -256.000 0.553 0.524 0.310
v -32.000 -8.000 -248.000 0.585 0.557 0.331
v -24.000 -8.000 -248.000 0.569 0.540 0.321
v -24.000 -8.000 -256.000 0.552 0.523 0.310
v -16.000 -8.000 -256.000 0.521 0.491 0.289
v -16.000 -8.000 -248.000 0.539 0.509 0.301
v -8.000 -8.000 -248.000 0.535 0.505 0.298
v -8.000 -8.000 -256.000 0.524 0.494 0.291
v 0.000 -8.000 -256.000 0.555 0.526 0.312
v 0.000 -8.000 -248.000 0.554 0.526 0.311
v -64.000 -8.000 -240.000 0.580 0.552 0.328
v -56.000 -8.000 -240.000 0.585 0.557 0.331
v -48.000 -8.000 -240.000 0.585 0.557 0.331
v -40.000 -8.000 -240.000 0.585 0.557 0.331
v -32.000 -8.000 -240.000 0.585 0.557 0.331
v -24.000 -8.000 -240.000 0.578 0.549 0.326
v -16.000 -8.000 -240.000 0.556 0.527 0.312
v -8.000 -8.000 -240.000 0.553 0.524 0.311
v 0.000 -7.741 -240.000 0.557 0.528 0.313
v -64.000 -8.000 -232.000 0.585 0.557 0.331
v -56.000 -8.000 -232.000 0.585 0.557 0.331
v -48.000 -8.000 -232.000 0.585 0.557 0.331
v -40.000 -8.000 -232.000 0.585 0.557 0.331
v -32.000 -8.000 -232.000 0.571 0.542 0.322
v -24.000 -8.000 -232.000 0.547 0.518 0.306
v -16.000 -7.162 -232.000 0.539 0.509 0.301
v -8.000 -6.838 -232.000 0.534 0.505 0.298
v 0.000 -6.583 -232.000 0.525 0.495 0.292
v -64.000 -8.000 -224.000 0.585 0.557 0.331
v -56.000 -8.000 -224.000 0.575 0.547 0.325
v -48.000 -7.792 -224.000 0.568 0.539 0.320
v -40.000 -7.804 -224.000 0.561 0.532 0.315
v -32.000 -7.143 -224.000 0.548 0.519 0.307
v -24.000 -6.652 -224.000 0.542 0.513 0.303
v -16.000 -6.071 -224.000 0.555 0.526 0.312
v -8.000 -5.571 -224.000 0.556 0.527 0.312
v 0.000 -5.706 -224.000 0.546 0.517 0.306
v -64.000 -6.883 -216.000 0.560 0.531 0.315
v -56.000 -6.886 -216.000 0.556 0.527 0.312
v -48.000 -6.600 -216.000 0.549 0.520 0.308
v -40.000 -6.638 -216.000 0.547 0.518 0.306
v -32.000 -6.172 -216.000 0.550 0.521 0.309
v -24.000 -5.409 -216.000 0.541 0.511 0.302
v -16.000 -5.230 -216.000 0.585 0.557 0.331
v -8.000 -4.629 -216.000 0.585 0.557 0.331
v 0.000 -4.597 -216.000 0.548 0.519 0.307
v -64.000 -5.908 -208.000 0.565 0.537 0.318
v -56.000 -5.892 -208.000 0.544 0.514 0.304
v -48.000 -5.904 -208.000 0.514 0.483 0.284
v -40.000 -5.550 -208.000 0.545 0.516 0.305
v -32.000 -5.063 -208.000 0.524 0.494 0.291
v -24.000 -4.192 -208.000 0.517 0.487 0.287
v -16.000 -4.057 -208.000 0.564 0.535 0.317
v -8.000 -3.947 -208.000 0.572 0.544 0.323
v 0.000 -3.633 -208.000 0.548 0.519 0.307
v -64.000 -5.325 -200.000 0.542 0.513 0.303
v -56.000 -4.900 -200.000 0.520 0.490 0.288
v -48.000 -4.922 -200.000 0.498 0.468 0.274
v -40.000 -4.316 -200.000 0.533 0.503 0.297
v -32.000 -3.766 -200.000 0.509 0.478 0.281
v -24.000 -3.436 -200.000 0.494 0.463 0.271
v -16.000 -3.248 -200.000 0.521 0.491 0.289
v -8.000 -3.531 -200.000 0.528 0.498 0.294
v 0.000 -3.237 -200.000 0.516 0.486 0.286
v -64.000 -4.417 -192.000 0.505 0.474 0.278
v -56.000 -4.128 -192.000 0.517 0.486 0.286
v -48.000 -3.805 -192.000 0.513 0.483 0.284
v -40.000 -3.477 -192.000 0.489 0.458 0.268
v -32.000 -2.909 -192.000 0.478 0.447 0.261
v -24.000 -3.004 -192.000 0.459 0.427 0.248
v -16.000 -2.946 -192.000 0.493 0.462 0.271
v -8.000 -2.768 -192.000 0.487 0.456 0.267
v 0.000 -2.619 -192.000 0.476 0.445 0.260

vt 0.400000 0.900000
vt 0.400000 0.887500
vt 0.412500 0.887500
vt 0.412500 0.900000
vt 0.425000 0.900000
vt 0.425000 0.887500
vt 0.437500 0.887500
vt 0.437500 0.900000
vt 0.450000 0.900000
vt 0.450000 0.887500
vt 0.462500 0.887500
vt 0.462500 0.900000
vt 0.475000 0.900000
vt 0.475000 0.887500
vt 0.487500 0.887500
vt 0.487500 0.900000
vt 0.500000 0.900000
vt 0.500000 0.887500
vt 0.400000 0.875000
vt 0.412500 0.875000
vt 0.425000 0.875000
vt 0.437500 0.875000
vt 0.450000 0.875000
vt 0.462500 0.875000
vt 0.475000 0.875000
vt 0.487500 0.875000
vt 0.500000 0.875000
vt 0.400000 0.862500
vt 0.412500 0.862500
vt 0.425000 0.862500
vt 0.437500 0.862500
vt 0.450000 0.862500
vt 0.462500 0.862500
vt 0.475000 0.862500
vt 0.487500 0.862500
vt 0.500000 0.862500
vt 0.400000 0.850000
vt 0.412500 0.850000
vt 0.425000 0.850000
vt 0.437500 0.850000
vt 0.450000 0.850000
vt 0.462500 0.850000
vt 0.475000 0.850000
vt 0.487500 0.850000
vt 0.500000 0.850000
vt 0.400000 0.837500
vt 0.412500 0.837500
vt 0.425000 0.837500
vt 0.437500 0.837500
vt 0.450000 0.837500
vt 0.462500 0.837500
vt 0.475000 0.837500
vt 0.487500 0.837500
vt 0.500000 0.837500
vt 0.400000 0.825000
vt 0.412500 0.825000
vt 0.425000 0.825000
vt 0.437500 0.825000
vt 0.450000 0.825000
vt 0.462500 0.825000
vt 0.475000 0.825000
vt 0.487500 0.825000
vt 0.500000 0.825000
vt 0.400000 0.812500
vt 0.412500 0.812500
vt 0.425000 0.812500
vt 0.437500 0.812500
vt 0.450000 0.812500
vt 0.462500 0.812500
vt 0.475000 0.812500
vt 0.487500 0.812500
vt 0.500000 0.812500
vt 0.400000 0.800000
vt 0.412500 0.800000
vt 0.425000 0.800000
vt 0.437500 0.800000
vt 0.450000 0.800000
vt 0.462500 0.800000
vt 0.475000 0.800000
vt 0.487500 0.800000
vt 0.500000 0.800000

vn 0.00000 1.00000 0.00000
vn 0.00000 1.00000 0.00000
vn 0.00000 1.00000 0.00000
vn 0.00000 1.00000 0.00000
vn 0.00000 1.00000 0.00000
vn 0.00000 1.00000 0.00000
vn 0.00000 1.00000 0.00000
vn 0.00000 1.00000 0.00000
vn 0.00000 1.00000 0.00000
vn 0.00000 1.00000 0.00000
vn 0.00000 1.00000 0.00000
vn 0.00000 1.00000 0.00000
vn 0.00000 1.00000 0.00000
vn 0.00000 1.00000 0.00000
vn -0.00405 0.99998 -0.00405
vn 0.00000 1.00000 0.00000
vn 0.00000 1.00000 0.00000
vn 0.00000 0.99987 -0.01619
vn 0.00000 1.00000 0.00000
vn 0.00000 1.00000 0.00000
vn 0.00000 1.00000 0.00000
vn 0.00000 1.00000 0.00000
vn 0.00000 1.00000 0.00000
vn 0.00000 1.00000 0.00000
vn -0.01814 0.99885 -0.04430
vn -0.01615 0.99724 -0.07244
vn -0.02407 0.99648 -0.08032
vn 0.00000 1.00000 0.00000
vn -0.00325 0.99999 -0.00325
vn 0.00000 0.99992 -0.01298
vn -0.01014 0.99969 -0.02275
vn 0.00000 0.99857 -0.05349
vn -0.04275 0.99544 -0.08528
vn -0.07193 0.99024 -0.11941
vn -0.02757 0.99026 -0.13651
vn -0.03158 0.99151 -0.12612
vn 0.00011 0.99758 -0.06956
vn -0.01295 0.99750 -0.06945
vn -0.00997 0.99657 -0.08217
vn -0.04040 0.99558 -0.08478
vn -0.05474 0.99152 -0.11790
vn -0.06601 0.98499 -0.15951
vn -0.06340 0.98897 -0.13388
vn -0.02259 0.99036 -0.13669
vn -0.00055 0.99152 -0.12996
vn 0.00042 0.99156 -0.12965
vn -0.01205 0.99183 -0.12702
vn -0.01543 0.99299 -0.11717
vn -0.03633 0.99069 -0.13121
vn -0.07593 0.98879 -0.12856
vn -0.06119 0.98837 -0.13921
vn -0.04828 0.99101 -0.12475
vn -0.03187 0.99299 -0.11382
vn -0.00401 0.99170 -0.12850
vn -0.01410 0.99382 -0.11006
vn -0.00022 0.99238 -0.12319
vn -0.02351 0.99263 -0.11886
vn -0.05198 0.98830 -0.14340
vn -0.07443 0.98728 -0.14046
vn -0.06229 0.99056 -0.12214
vn -0.01824 0.99385 -0.10925
vn -0.02643 0.99730 -0.06849
vn -0.02974 0.99662 -0.07659
vn -0.05283 0.99430 -0.09265
vn -0.02207 0.99363 -0.11051
vn -0.03616 0.99086 -0.12999
vn -0.06260 0.98956 -0.12985
vn -0.05442 0.98960 -0.13318
vn -0.03121 0.99566 -0.08773
vn 0.00590 0.99758 -0.06922
vn -0.01206 0.99748 -0.06985
vn -0.03666 0.99733 -0.06319
vn -0.04435 0.99355 -0.10433
vn -0.03802 0.99466 -0.09600
vn -0.03828 0.99213 -0.11918
vn -0.05560 0.99301 -0.10414
vn -0.04205 0.99480 -0.09278
vn 0.00231 0.99854 -0.05393
vn -0.00442 0.99842 -0.05608
vn -0.02039 0.99528 -0.09491
vn -0.02759 0.99592 -0.08595

f 1/1/1 2/2/2 3/3/3
f 1/1/1 3/3/3 4/4/4
f 4/4/4 3/3/3 5/5/5
f 5/5/5 3/3/3 6/6/6
f 5/5/5 6/6/6 7/7/7
f 5/5/5 7/7/7 8/8/8
f 8/8/8 7/7/7 9/9/9
f 9/9/9 7/7/7 10/10/10
f 9/9/9 10/10/10 11/11/11
f 9/9/9 11/11/11 12/12/12
f 12/12/12 11/11/11 13/13/13
f 13/13/13 11/11/11 14/14/14
f 13/13/13 14/14/14 15/15/15
f 13/13/13 15/15/15 16/16/16
f 16/16/16 15/15/15 17/17/17
f 17/17/17 15/15/15 18/18/18
f 2/2/2 19/19/19 3/3/3
f 3/3/3 19/19/19 20/20/20
f 3/3/3 20/20/20 21/21/21
f 3/3/3 21/21/21 6/6/6
f 6/6/6 21/21/21 7/7/7
f 7/7/7 21/21/21 22/22/22
f 7/7/7 22/22/22 23/23/23
f 7/7/7 23/23/23 10/10/10
f 10/10/10 23/23/23 11/11/11
f 11/11/11 23/23/23 24/24/24
f 11/11/11 24/24/24 25/25/25
f 11/11/11 25/25/25 14/14/14
f 14/14/14 25/25/25 15/15/15
f 15/15/15 25/25/25 26/26/26
f 15/15/15 26/26/26 27/27/27
f 15/15/15 27/27/27 18/18/18
f 19/19/19 28/28/28 29/29/29
f 19/19/19 29/29/29 20/20/20
f 20/20/20 29/29/29 21/21/21
f 21/21/21 29/29/29 30/30/30
f 21/21/21 30/30/30 31/31/31
f 21/21/21 31/31/31 22/22/22
f 22/22/22 31/31/31 23/23/23
f 23/23/23 31/31/31 32/32/32
f 23/23/23 32/32/32 33/33/33
f 23/23/23 33/33/33 24/24/24
f 24/24/24 33/33/33 25/25/25
f 25/25/25 33/33/33 34/34/34
f 25/25/25 34/34/34 35/35/35
f 25/25/25 35/35/35 26/26/26
f 26/26/26 35/35/35 27/27/27
f 27/27/27 35/35/35 36/36/36
f 28/28/28 37/37/37 29/29/29
f 29/29/29 37/37/37 38/38/38
f 29/29/29 38/38/38 39/39/39
f 29/29/29 39/39/39 30/30/30
f 30/30/30 39/39/39 31/31/31
f 31/31/31 39/39/39 40/40/40
f 31/31/31 40/40/40 41/41/41
f 31/31/31 41/41/41 32/32/32
f 32/32/32 41/41/41 33/33/33
f 33/33/33 41/41/41 42/42/42
f 33/33/33 42/42/42 43/43/43
f 33/33/33 43/43/43 34/34/34
f 34/34/34 43/43/43 35/35/35
f 35/35/35 43/43/43 44/44/44
f 35/35/35 44/44/44 45/45/45
f 35/35/35 45/45/45 36/36/36
f 37/37/37 46/46/46 47/47/47
f 37/37/37 47/47/47 38/38/38
f 38/38/38 47/47/47 39/39/39
f 39/39/39 47/47/47 48/48/48
f 39/39/39 48/48/48 49/49/49
f 39/39/39 49/49/49 40/40/40
f 40/40/40 49/49/49 41/41/41
f 41/41/41 49/49/49 50/50/50
f 41/41/41 50/50/50 51/51/51
f 41/41/41 51/51/51 42/42/42
f 42/42/42 51/51/51 43/43/43
f 43/43/43 51/51/51 52/52/52
f 43/43/43 52/52/52 53/53/53
f 43/43/43 53/53/53 44/44/44
f 44/44/44 53/53/53 45/45/45
f 45/45/45 53/53/53 54/54/54
f 46/46/46 55/55/55 47/47/47
f 47/47/47 55/55/55 56/56/56
f 47/47/47 56/56/56 57/57/57
f 47/47/47 57/57/57 48/48/48
f 48/48/48 57/57/57 49/49/49
f 49/49/49 57/57/57 58/58/58
f 49/49/49 58/58/58 59/59/59
f 49/49/49 59/59/59 50/50/50
f 50/50/50 59/59/59 51/51/51
f 51/51/51 59/59/59 60/60/60
f 51/51/51 60/60/60 61/61/61
f 51/51/51 61/61/61 52/52/52
f 52/52/52 61/61/61 53/53/53
f 53/53/53 61/61/61 62/62/62
f 53/53/53 62/62/62 63/63/63
f 53/53/53 63/63/63 54/54/54
f 55/55/55 64/64/64 65/65/65
f 55/55/55 65/65/65 56/56/56
f 56/56/56 65/65/65 57/57/57
f 57/57/57 65/65/65 66/66/66
f 57/57/57 66/66/66 67/67/67
f 57/57/57 67/67/67 58/58/58
f 58/58/58 67/67/67 59/59/59
f 59/59/59 67/67/67 68/68/68
f 59/59/59 68/68/68 69/69/69
f 59/59/59 69/69/69 60/60/60
f 60/60/60 69/69/69 61/61/61
f 61/61/61 69/69/69 70/70/70
f 61/61/61 70/70/70 71/71/71
f 61/61/61 71/71/71 62/62/62
f 62/62/62 71/71/71 63/63/63
f 63/63/63 71/71/71 72/72/72
f 64/64/64 73/73/73 65/65/65
f 65/65/65 73/73/73 74/74/74
f 65/65/65 74/74/74 75/75/75
f 65/65/65 75/75/75 66/66/66
f 66/66/66 75/75/75 67/67/67
f 67/67/67 75/75/75 76/76/76
f 67/67/67 76/76/76 77/77/77
f 67/67/67 77/77/77 68/68/68
f 68/68/68 77/77/77 69/69/69
f 69/69/69 77/77/77 78/78/78
f 69/69/69 78/78/78 79/79/79
f 69/69/69 79/79/79 70/70/70
f 70/70/70 79/79/79 71/71/71
f 71/71/71 79/79/79 80/80/80
f 71/71/71 80/80/80 81/81/81
f 71/71/71 81/81/81 72/72/72
