# Generated by tools/generate_island.py. Do not edit by hand.
o terrain_lod2_-1_-2

v -64.000 -0.196 -128.000 0.418 0.385 0.221
v -64.000 0.506 -120.000 0.418 0.385 0.221
v -56.000 -0.037 -120.000 0.424 0.392 0.226
v -56.000 -0.049 -128.000 0.438 0.406 0.235
v -48.000 -0.291 -128.000 0.462 0.430 0.250
v -48.000 -0.162 -120.000 0.453 0.421 0.244
v -40.000 -0.461 -120.000 0.478 0.446 0.261
v -40.000 -0.256 -128.000 0.467 0.435 0.254
v -32.000 0.452 -128.000 0.471 0.439 0.256
v -32.000 0.974 -120.000 0.475 0.443 0.259
v -24.000 1.280 -120.000 0.198 0.283 0.103
v -24.000 0.488 -128.000 0.441 0.409 0.237
v -16.000 1.035 -128.000 0.421 0.388 0.223
v -16.000 1.040 -120.000 0.425 0.392 0.226
v -8.000 0.502 -120.000 0.424 0.392 0.226
v -8.000 0.296 -128.000 0.413 0.380 0.218
v 0.000 -0.546 -128.000 0.410 0.376 0.216
v 0.000 -0.392 -120.000 0.412 0.379 0.217
v -64.000 1.101 -112.000 0.425 0.392 0.226
v -56.000 0.142 -112.000 0.425 0.392 0.226
v -48.000 -0.039 -112.000 0.446 0.414 0.240
v -40.000 0.424 -112.000 0.487 0.456 0.267
v -32.000 1.255 -112.000 0.225 0.304 0.112
v -24.000 1.722 -112.000 0.213 0.295 0.108
v -16.000 0.991 -112.000 0.429 0.396 0.229
v -8.000 0.097 -112.000 0.420 0.387 0.223
v 0.000 -0.268 -112.000 0.412 0.378 0.217
v -64.000 1.257 -104.000 0.187 0.274 0.099
v -56.000 1.643 -104.000 0.191 0.278 0.100
v -48.000 1.104 -104.000 0.459 0.427 0.248
v -40.000 1.571 -104.000 0.223 0.303 0.111
v -32.000 1.925 -104.000 0.208 0.291 0.106
v -24.000 1.812 -104.000 0.192 0.278 0.101
v -16.000 1.203 -104.000 0.186 0.273 0.099
v -8.000 0.250 -104.000 0.433 0.400 0.231
v 0.000 0.372 -104.000 0.411 0.378 0.217
v -64.000 1.578 -96.000 0.188 0.275 0.099
v -56.000 1.107 -96.000 0.435 0.402 0.232
v -48.000 0.524 -96.000 0.455 0.423 0.246
v -40.000 0.708 -96.000 0.460 0.429 0.249
v -32.000 0.610 -96.000 0.430 0.398 0.230
v -24.000 0.703 -96.000 0.432 0.400 0.231
v -16.000 1.014 -96.000 0.413 0.380 0.218
v -8.000 0.501 -96.000 0.422 0.390 0.224
v 0.000 0.417 -96.000 0.409 0.376 0.215
v -64.000 1.354 -88.000 0.199 0.284 0.103
v -56.000 0.098 -88.000 0.455 0.423 0.246
v -48.000 0.576 -88.000 0.450 0.418 0.243
v -40.000 0.920 -88.000 0.426 0.393 0.227
v -32.000 0.623 -88.000 0.425 0.392 0.226
v -24.000 0.436 -88.000 0.404 0.370 0.212
v -16.000 0.270 -88.000 0.385 0.351 0.200
v -8.000 0.564 -88.000 0.385 0.351 0.200
v 0.000 0.397 -88.000 0.389 0.355 0.202
v -64.000 1.746 -80.000 0.213 0.295 0.108
v -56.000 0.923 -80.000 0.469 0.438 0.255
v -48.000 1.469 -80.000 0.216 0.297 0.109
v -40.000 1.600 -80.000 0.186 0.273 0.099
v -32.000 0.927 -80.000 0.408 0.375 0.215
v -24.000 0.488 -80.000 0.380 0.346 0.197
v -16.000 0.015 -80.000 0.380 0.346 0.196
v -8.000 0.425 -80.000 0.373 0.338 0.191
v 0.000 0.460 -80.000 0.359 0.325 0.183
v -64.000 2.795 -72.000 0.220 0.300 0.110
v -56.000 2.083 -72.000 0.232 0.309 0.114
v -48.000 2.063 -72.000 0.229 0.307 0.113
v -40.000 2.086 -72.000 0.204 0.287 0.105
v -32.000 1.332 -72.000 0.167 0.259 0.092
v -24.000 1.070 -72.000 0.388 0.354 0.201
v -16.000 1.074 -72.000 0.376 0.342 0.194
v -8.000 1.173 -72.000 0.344 0.313 0.178
v 0.000 1.218 -72.000 0.092 0.181 0.060
v -64.000 3.698 -64.000 0.238 0.314 0.116
v -56.000 4.572 -64.000 0.240 0.315 0.117
v -48.000 4.771 -64.000 0.235 0.312 0.115
v -40.000 4.803 -64.000 0.191 0.277 0.100
v -32.000 3.359 -64.000 0.179 0.268 0.096
v -24.000 2.748 -64.000 0.141 0.242 0.083
v -16.000 2.865 -64.000 0.105 0.194 0.065
v -8.000 2.188 -64.000 0.091 0.170 0.057
v 0.000 1.627 -64.000 0.073 0.166 0.089

vt 0.400000 0.700000
vt 0.400000 0.687500
vt 0.412500 0.687500
vt 0.412500 0.700000
vt 0.425000 0.700000
vt 0.425000 0.687500
vt 0.437500 0.687500
vt 0.437500 0.700000
vt 0.450000 0.700000
vt 0.450000 0.687500
vt 0.462500 0.687500
vt 0.462500 0.700000
vt 0.475000 0.700000
vt 0.475000 0.687500
vt 0.487500 0.687500
vt 0.487500 0.700000
vt 0.500000 0.700000
vt 0.500000 0.687500
vt 0.400000 0.675000
vt 0.412500 0.675000
vt 0.425000 0.675000
vt 0.437500 0.675000
vt 0.450000 0.675000
vt 0.462500 0.675000
vt 0.475000 0.675000
vt 0.487500 0.675000
vt 0.500000 0.675000
vt 0.400000 0.662500
vt 0.412500 0.662500
vt 0.425000 0.662500
vt 0.437500 0.662500
vt 0.450000 0.662500
vt 0.462500 0.662500
vt 0.475000 0.662500
vt 0.487500 0.662500
vt 0.500000 0.662500
vt 0.400000 0.650000
vt 0.412500 0.650000
vt 0.425000 0.650000
vt 0.437500 0.650000
vt 0.450000 0.650000
vt 0.462500 0.650000
vt 0.475000 0.650000
vt 0.487500 0.650000
vt 0.500000 0.650000
vt 0.400000 0.637500
vt 0.412500 0.637500
vt 0.425000 0.637500
vt 0.437500 0.637500
vt 0.450000 0.637500
vt 0.462500 0.637500
vt 0.475000 0.637500
vt 0.487500 0.637500
vt 0.500000 0.637500
vt 0.400000 0.625000
vt 0.412500 0.625000
vt 0.425000 0.625000
vt 0.437500 0.625000
vt 0.450000 0.625000
vt 0.462500 0.625000
vt 0.475000 0.625000
vt 0.487500 0.625000
vt 0.500000 0.625000
vt 0.400000 0.612500
vt 0.412500 0.612500
vt 0.425000 0.612500
vt 0.437500 0.612500
vt 0.450000 0.612500
vt 0.462500 0.612500
vt 0.475000 0.612500
vt 0.487500 0.612500
vt 0.500000 0.612500
vt 0.400000 0.600000
vt 0.412500 0.600000
vt 0.425000 0.600000
vt 0.437500 0.600000
vt 0.450000 0.600000
vt 0.462500 0.600000
vt 0.475000 0.600000
vt 0.487500 0.600000
vt 0.500000 0.600000

vn 0.02473 0.99870 -0.04457
vn 0.06760 0.99445 -0.08064
vn 0.04014 0.99874 -0.03012
vn 0.00591 0.99998 -0.00141
vn 0.01969 0.99980 -0.00201
vn 0.02643 0.99953 -0.01573
vn -0.06714 0.99703 -0.03762
vn -0.04635 0.99860 0.02555
vn -0.07733 0.99571 -0.05079
vn -0.10804 0.99289 -0.04988
vn -0.00706 0.99871 -0.05037
vn -0.03628 0.99448 -0.09845
vn 0.03031 0.99905 -0.03146
vn 0.04859 0.99881 0.00274
vn 0.08880 0.99605 0.00255
vn 0.09833 0.99482 -0.02560
vn 0.10787 0.99391 -0.02235
vn 0.11107 0.99366 -0.01728
vn 0.06458 0.99505 -0.07557
vn 0.07070 0.99204 -0.10417
vn -0.00108 0.99527 -0.09710
vn -0.08001 0.98885 -0.12556
vn -0.07121 0.99504 -0.06943
vn 0.01648 0.99931 -0.03323
vn 0.08703 0.99616 -0.00944
vn 0.07846 0.99679 0.01570
vn 0.04689 0.99877 -0.01599
vn -0.04817 0.99840 -0.02975
vn 0.03898 0.99816 -0.04634
vn 0.00447 0.99937 -0.03520
vn -0.04717 0.99886 -0.00758
vn -0.01508 0.99907 0.04032
vn 0.02034 0.99893 0.04154
vn 0.09719 0.99526 -0.00140
vn 0.05489 0.99821 -0.02364
vn -0.01523 0.99897 -0.04276
vn 0.05646 0.99739 0.04512
vn 0.06540 0.99324 0.09588
vn 0.00077 0.99871 0.05074
vn -0.00533 0.99916 0.04068
vn 0.00390 0.99738 0.07217
vn -0.02517 0.99601 0.08566
vn 0.02868 0.99854 0.04569
vn 0.03729 0.99911 -0.01962
vn 0.00671 0.99992 -0.01059
vn 0.15506 0.98785 -0.01041
vn 0.04504 0.99892 -0.01162
vn -0.05119 0.99695 -0.05889
vn 0.00567 0.99885 -0.04755
vn 0.03018 0.99935 -0.01983
vn 0.01897 0.99967 0.01738
vn -0.00797 0.99802 0.06232
vn -0.00159 0.99985 0.01731
vn 0.02094 0.99978 -0.00271
vn 0.11164 0.98810 -0.10582
vn 0.01718 0.99224 -0.12312
vn -0.03386 0.99488 -0.09523
vn 0.03378 0.99678 -0.07266
vn 0.05801 0.99706 -0.05013
vn 0.05688 0.99760 -0.03949
vn -0.00165 0.99901 -0.04448
vn -0.02780 0.99889 -0.03798
vn 0.00163 0.99900 -0.04464
vn 0.08800 0.98880 -0.12058
vn 0.01024 0.98125 -0.19245
vn -0.00015 0.97937 -0.20208
vn 0.05237 0.98113 -0.18610
vn 0.06266 0.98670 -0.14999
vn 0.02969 0.98804 -0.15134
vn -0.00633 0.98448 -0.17537
vn 0.00783 0.99310 -0.11704
vn -0.00567 0.99734 -0.07271
vn -0.00996 0.97822 -0.20734
vn -0.06391 0.95290 -0.29647
vn -0.00690 0.94907 -0.31500
vn 0.08325 0.94360 -0.32045
vn 0.09239 0.96273 -0.25420
vn 0.03021 0.97825 -0.20522
vn 0.01402 0.98121 -0.19244
vn 0.07656 0.98913 -0.12554
vn 0.03210 0.99555 -0.08860

f 1/1/1 2/2/2 3/3/3
f 1/1/1 3/3/3 4/4/4
f 4/4/4 3/3/3 5/5/5
f 5/5/5 3/3/3 6/6/6
f 5/5/5 6/6/6 7/7/7
f 5/5/5 7/7/7 8/8/8
f 8/8/8 7/7/7 9/9/9
f 9/9/9 7/7/7 10/10/10
f 9/9/9 10/10/10 11/11/11
f 9/9/9 11/11/11 12/12/12
f 12/12/12 11/11/11 13/13/13
f 13/13/13 11/11/11 14/14/14
f 13/13/13 14/14/14 15/15/15
f 13/13/13 15/15/15 16/16/16
f 16/16/16 15/15/15 17/17/17
f 17/17/17 15/15/15 18/18/18
f 2/2/2 19/19/19 3/3/3
f 3/3/3 19/19/19 20/20/20
f 3/3/3 20/20/20 21/21/21
f 3/3/3 21/21/21 6/6/6
f 6/6/6 21/21/21 7/7/7
f 7/7/7 21/21/21 22/22/22
f 7/7/7 22/22/22 23/23/23
f 7/7/7 23/23/23 10/10/10
f 10/10/10 23/23/23 11/11/11
f 11/11/11 23/23/23 24/24/24
f 11/11/11 24/24/24 25/25/25
f 11/11/11 25/25/25 14/14/14
f 14/14/14 25/25/25 15/15/15
f 15/15/15 25/25/25 26/26/26
f 15/15/15 26/26/26 27/27/27
f 15/15/15 27/27/27 18/18/18
f 19/19/19 28/28/28 29/29/29
f 19/19/19 29/29/29 20/20/20
f 20/20/20 29/29/29 21/21/21
f 21/21/21 29/29/29 30/30/30
f 21/21/21 30/30/30 31/31/31
f 21/21/21 31/31/31 22/22/22
f 22/22/22 31/31/31 23/23/23
f 23/23/23 31/31/31 32/32/32
f 23/23/23 32/32/32 33/33/33
f 23/23/23 33/33/33 24/24/24
f 24/24/24 33/33/33 25/25/25
f 25/25/25 33/33/33 34/34/34
f 25/25/25 34/34/34 35/35/35
f 25/25/25 35/35/35 26/26/26
f 26/26/26 35/35/35 27/27/27
f 27/27/27 35/35/35 36/36/36
f 28/28/28 37/37/37 29/29/29
f 29/29/29 37/37/37 38/38/38
f 29/29/29 38/38/38 39/39/39
f 29/29/29 39/39/39 30/30/30
f 30/30/30 39/39/39 31/31/31
f 31/31/31 39/39/39 40/40/40
f 31/31/31 40/40/40 41/41/41
f 31/31/31 41/41/41 32/32/32
f 32/32/32 41/41/41 33/33/33
f 33/33/33 41/41/41 42/42/42
f 33/33/33 42/42/42 43/43/43
f 33/33/33 43/43/43 34/34/34
f 34/34/34 43/43/43 35/35/35
f 35/35/35 43/43/43 44/44/44
f 35/35/35 44/44/44 45/45/45
f 35/35/35 45/45/45 36/36/36
f 37/37/37 46/46/46 47/47/47
f 37/37/37 47/47/47 38/38/38
f 38/38/38 47/47/47 39/39/39
f 39/39/39 47/47/47 48/48/48
f 39/39/39 48/48/48 49/49/49
f 39/39/39 49/49/49 40/40/40
f 40/40/40 49/49/49 41/41/41
f 41/41/41 49/49/49 50/50/50
f 41/41/41 50/50/50 51/51/51
f 41/41/41 51/51/51 42/42/42
f 42/42/42 51/51/51 43/43/43
f 43/43/43 51/51/51 52/52/52
f 43/43/43 52/52/52 53/53/53
f 43/43/43 53/53/53 44/44/44
f 44/44/44 53/53/53 45/45/45
f 45/45/45 53/53/53 54/54/54
f 46/46/46 55/55/55 47/47/47
f 47/47/47 55/55/55 56/56/56
f 47/47/47 56/56/56 57/57/57
f 47/47/47 57/57/57 48/48/48
f 48/48/48 57/57/57 49/49/49
f 49/49/49 57/57/57 58/58/58
f 49/49/49 58/58/58 59/59/59
f 49/49/49 59/59/59 50/50/50
f 50/50/50 59/59/59 51/51/51
f 51/51/51 59/59/59 60/60/60
f 51/51/51 60/60/60 61/61/61
f 51/51/51 61/61/61 52/52/52
f 52/52/52 61/61/61 53/53/53
f 53/53/53 61/61/61 62/62/62
f 53/53/53 62/62/62 63/63/63
f 53/53/53 63/63/63 54/54/54
f 55/55/55 64/64/64 65/65/65
f 55/55/55 65/65/65 56/56/56
f 56/56/56 65/65/65 57/57/57
f 57/57/57 65/65/65 66/66/66
f 57/57/57 66/66/66 67/67/67
f 57/57/57 67/67/67 58/58/58
f 58/58/58 67/67/67 59/59/59
f 59/59/59 67/67/67 68/68/68
f 59/59/59 68/68/68 69/69/69
f 59/59/59 69/69/69 60/60/60
f 60/60/60 69/69/69 61/61/61
f 61/61/61 69/69/69 70/70/70
f 61/61/61 70/70/70 71/71/71
f 61/61/61 71/71/71 62/62/62
f 62/62/62 71/71/71 63/63/63
f 63/63/63 71/71/71 72/72/72
f 64/64/64 73/73/73 65/65/65
f 65/65/65 73/73/73 74/74/74
f 65/65/65 74/74/74 75/75/75
f 65/65/65 75/75/75 66/66/66
f 66/66/66 75/75/75 67/67/67
f 67/67/67 75/75/75 76/76/76
f 67/67/67 76/76/76 77/77/77
f 67/67/67 77/77/77 68/68/68
f 68/68/68 77/77/77 69/69/69
f 69/69/69 77/77/77 78/78/78
f 69/69/69 78/78/78 79/79/79
f 69/69/69 79/79/79 70/70/70
f 70/70/70 79/79/79 71/71/71
f 71/71/71 79/79/79 80/80/80
f 71/71/71 80/80/80 81/81/81
f 71/71/71 81/81/81 72/72/72
