# Generated by tools/generate_island.py. Do not edit by hand.
o terrain_lod2_-8_-4

v -960.000 -10.800 -512.000 0.498 0.467 0.274
v -960.000 -10.800 -496.000 0.507 0.476 0.280
v -944.000 -10.800 -496.000 0.496 0.466 0.273
v -944.000 -10.800 -512.000 0.479 0.448 0.261
v -928.000 -10.800 -512.000 0.455 0.423 0.246
v -928.000 -10.800 -496.000 0.483 0.452 0.264
v -912.000 -10.800 -496.000 0.457 0.425 0.247
v -912.000 -10.800 -512.000 0.457 0.425 0.247
v -896.000 -10.800 -512.000 0.460 0.428 0.249
v -896.000 -10.800 -496.000 0.477 0.446 0.260
v -960.000 -10.800 -480.000 0.458 0.426 0.248
v -944.000 -10.800 -480.000 0.457 0.425 0.247
v -928.000 -10.800 -480.000 0.502 0.471 0.276
v -912.000 -10.800 -480.000 0.494 0.464 0.272
v -896.000 -10.800 -480.000 0.503 0.472 0.277
v -960.000 -10.800 -464.000 0.408 0.375 0.215
v -944.000 -10.800 -464.000 0.407 0.374 0.214
v -928.000 -10.800 -464.000 0.446 0.413 0.240
v -912.000 -10.800 -464.000 0.463 0.431 0.251
v -896.000 -10.800 -464.000 0.470 0.439 0.256
v -960.000 -10.800 -448.000 0.390 0.356 0.203
v -944.000 -10.800 -448.000 0.364 0.330 0.186
v -928.000 -10.800 -448.000 0.396 0.362 0.207
v -912.000 -10.800 -448.000 0.402 0.368 0.211
v -896.000 -10.800 -448.000 0.432 0.399 0.231
v -960.000 -10.800 -432.000 0.422 0.389 0.224
v -944.000 -10.800 -432.000 0.418 0.385 0.222
v -928.000 -10.800 -432.000 0.426 0.393 0.227
v -912.000 -10.800 -432.000 0.406 0.372 0.213
v -896.000 -10.800 -432.000 0.396 0.362 0.207
v -960.000 -10.800 -416.000 0.454 0.422 0.245
v -944.000 -10.800 -416.000 0.446 0.414 0.240
v -928.000 -10.800 -416.000 0.462 0.431 0.251
v -912.000 -10.800 -416.000 0.421 0.388 0.224
v -896.000 -10.800 -416.000 0.394 0.360 0.205
v -960.000 -10.800 -400.000 0.546 0.516 0.305
v -944.000 -10.800 -400.000 0.510 0.479 0.282
v -928.000 -10.800 -400.000 0.519 0.489 0.288
v -912.000 -10.800 -400.000 0.426 0.393 0.226
v -896.000 -10.800 -400.000 0.380 0.346 0.197
v -960.000 -10.800 -384.000 0.564 0.536 0.318
v -944.000 -10.800 -384.000 0.548 0.519 0.307
v -928.000 -10.800 -384.000 0.499 0.469 0.275
v -912.000 -10.800 -384.000 0.447 0.415 0.241
v -896.000 -10.800 -384.000 0.415 0.382 0.220

vt 0.000000 0.766667
vt 0.000000 0.758333
vt 0.008333 0.758333
vt 0.008333 0.766667
vt 0.016667 0.766667
vt 0.016667 0.758333
vt 0.025000 0.758333
vt 0.025000 0.766667
vt 0.033333 0.766667
vt 0.033333 0.758333
vt 0.000000 0.750000
vt 0.008333 0.750000
vt 0.016667 0.750000
vt 0.025000 0.750000
vt 0.033333 0.750000
vt 0.000000 0.741667
vt 0.008333 0.741667
vt 0.016667 0.741667
vt 0.025000 0.741667
vt 0.033333 0.741667
vt 0.000000 0.733333
vt 0.008333 0.733333
vt 0.016667 0.733333
vt 0.025000 0.733333
vt 0.033333 0.733333
vt 0.000000 0.725000
vt 0.008333 0.725000
vt 0.016667 0.725000
vt 0.025000 0.725000
vt 0.033333 0.725000
vt 0.000000 0.716667
vt 0.008333 0.716667
vt 0.016667 0.716667
vt 0.025000 0.716667
vt 0.033333 0.716667
vt 0.000000 0.708333
vt 0.008333 0.708333
vt 0.016667 0.708333
vt 0.025000 0.708333
vt 0.033333 0.708333
vt 0.000000 0.700000
vt 0.008333 0.700000
vt 0.016667 0.700000
vt 0.025000 0.700000
vt 0.033333 0.700000

vn 0.00000 1.00000 0.00000
vn 0.00000 1.00000 0.00000
vn 0.00000 1.00000 0.00000
vn 0.00000 1.00000 0.00000
vn 0.00000 1.00000 0.00000
vn 0.00000 1.00000 0.00000
vn 0.00000 1.00000 0.00000
vn 0.00000 1.00000 0.00000
vn 0.00000 1.00000 0.00000
vn 0.00000 1.00000 0.00000
vn 0.00000 1.00000 0.00000
vn 0.00000 1.00000 0.00000
vn 0.00000 1.00000 0.00000
vn 0.00000 1.00000 0.00000
vn 0.00000 1.00000 0.00000
vn 0.00000 1.00000 0.00000
vn 0.00000 1.00000 0.00000
vn 0.00000 1.00000 0.00000
vn 0.00000 1.00000 0.00000
vn 0.00000 1.00000 0.00000
vn 0.00000 1.00000 0.00000
vn 0.00000 1.00000 0.00000
vn 0.00000 1.00000 0.00000
vn 0.00000 1.00000 0.00000
vn 0.00000 1.00000 0.00000
vn 0.00000 1.00000 0.00000
vn 0.00000 1.00000 0.00000
vn 0.00000 1.00000 0.00000
vn 0.00000 1.00000 0.00000
vn 0.00000 1.00000 0.00000
vn 0.00000 1.00000 0.00000
vn 0.00000 1.00000 0.00000
vn 0.00000 1.00000 0.00000
vn 0.00000 1.00000 0.00000
vn 0.00000 1.00000 0.00000
vn 0.00000 1.00000 0.00000
vn 0.00000 1.00000 0.00000
vn 0.00000 1.00000 0.00000
vn 0.00000 1.00000 0.00000
vn 0.00000 1.00000 0.00000
vn 0.00000 1.00000 0.00000
vn 0.00000 1.00000 0.00000
vn 0.00000 1.00000 0.00000
vn 0.00000 1.00000 0.00000
vn 0.00000 1.00000 0.00000

f 1/1/1 2/2/2 3/3/3
f 1/1/1 3/3/3 4/4/4
f 4/4/4 3/3/3 5/5/5
f 5/5/5 3/3/3 6/6/6
f 5/5/5 6/6/6 7/7/7
f 5/5/5 7/7/7 8/8/8
f 8/8/8 7/7/7 9/9/9
f 9/9/9 7/7/7 10/10/10
f 2/2/2 11/11/11 3/3/3
f 3/3/3 11/11/11 12/12/12
f 3/3/3 12/12/12 13/13/13
f 3/3/3 13/13/13 6/6/6
f 6/6/6 13/13/13 7/7/7
f 7/7/7 13/13/13 14/14/14
f 7/7/7 14/14/14 15/15/15
f 7/7/7 15/15/15 10/10/10
f 11/11/11 16/16/16 17/17/17
f 11/11/11 17/17/17 12/12/12
f 12/12/12 17/17/17 13/13/13
f 13/13/13 17/17/17 18/18/18
f 13/13/13 18/18/18 19/19/19
f 13/13/13 19/19/19 14/14/14
f 14/14/14 19/19/19 15/15/15
f 15/15/15 19/19/19 20/20/20
f 16/16/16 21/21/21 17/17/17
f 17/17/17 21/21/21 22/22/22
f 17/17/17 22/22/22 23/23/23
f 17/17/17 23/23/23 18/18/18
f 18/18/18 23/23/23 19/19/19
f 19/19/19 23/23/23 24/24/24
f 19/19/19 24/24/24 25/25/25
f 19/19/19 25/25/25 20/20/20
f 21/21/21 26/26/26 27/27/27
f 21/21/21 27/27/27 22/22/22
f 22/22/22 27/27/27 23/23/23
f 23/23/23 27/27/27 28/28/28
f 23/23/23 28/28/28 29/29/29
f 23/23/23 29/29/29 24/24/24
f 24/24/24 29/29/29 25/25/25
f 25/25/25 29/29/29 30/30/30
f 26/26/26 31/31/31 27/27/27
f 27/27/27 31/31/31 32/32/32
f 27/27/27 32/32/32 33/33/33
f 27/27/27 33/33/33 28/28/28
f 28/28/28 33/33/33 29/29/29
f 29/29/29 33/33/33 34/34/34
f 29/29/29 34/34/34 35/35/35
f 29/29/29 35/35/35 30/30/30
f 31/31/31 36/36/36 37/37/37
f 31/31/31 37/37/37 32/32/32
f 32/32/32 37/37/37 33/33/33
f 33/33/33 37/37/37 38/38/38
f 33/33/33 38/38/38 39/39/39
f 33/33/33 39/39/39 34/34/34
f 34/34/34 39/39/39 35/35/35
f 35/35/35 39/39/39 40/40/40
f 36/36/36 41/41/41 37/37/37
f 37/37/37 41/41/41 42/42/42
f 37/37/37 42/42/42 43/43/43
f 37/37/37 43/43/43 38/38/38
f 38/38/38 43/43/43 39/39/39
f 39/39/39 43/43/43 44/44/44
f 39/39/39 44/44/44 45/45/45
f 39/39/39 45/45/45 40/40/40
