# Generated by tools/generate_island.py. Do not edit by hand.
o terrain_lod2_-3_2

v -192.000 -6.346 128.000 0.504 0.474 0.278
v -192.000 -7.118 136.000 0.483 0.452 0.264
v -184.000 -6.560 136.000 0.499 0.468 0.274
v -184.000 -5.444 128.000 0.513 0.483 0.284
v -176.000 -4.714 128.000 0.516 0.486 0.286
v -176.000 -5.362 136.000 0.479 0.447 0.261
v -168.000 -4.578 136.000 0.470 0.438 0.255
v -168.000 -4.041 128.000 0.513 0.483 0.284
v -160.000 -2.989 128.000 0.491 0.460 0.270
v -160.000 -3.564 136.000 0.487 0.456 0.267
v -152.000 -2.959 136.000 0.481 0.450 0.263
v -152.000 -2.588 128.000 0.457 0.425 0.247
v -144.000 -2.072 128.000 0.412 0.378 0.217
v -144.000 -2.800 136.000 0.428 0.395 0.228
v -136.000 -2.431 136.000 0.403 0.370 0.212
v -136.000 -1.959 128.000 0.396 0.362 0.207
v -128.000 -2.027 128.000 0.385 0.350 0.199
v -128.000 -2.329 136.000 0.410 0.377 0.216
v -192.000 -7.847 144.000 0.460 0.428 0.249
v -184.000 -7.129 144.000 0.446 0.414 0.240
v -176.000 -6.039 144.000 0.449 0.417 0.242
v -168.000 -4.950 144.000 0.455 0.423 0.246
v -160.000 -4.466 144.000 0.448 0.416 0.241
v -152.000 -3.851 144.000 0.448 0.416 0.241
v -144.000 -3.831 144.000 0.430 0.397 0.229
v -136.000 -3.492 144.000 0.398 0.364 0.208
v -128.000 -2.736 144.000 0.389 0.355 0.203
v -192.000 -8.000 152.000 0.422 0.389 0.224
v -184.000 -7.833 152.000 0.412 0.379 0.218
v -176.000 -7.125 152.000 0.409 0.375 0.215
v -168.000 -5.964 152.000 0.415 0.382 0.220
v -160.000 -5.509 152.000 0.404 0.371 0.212
v -152.000 -5.210 152.000 0.397 0.364 0.208
v -144.000 -4.611 152.000 0.392 0.358 0.204
v -136.000 -4.162 152.000 0.400 0.367 0.210
v -128.000 -3.158 152.000 0.401 0.368 0.210
v -192.000 -8.000 160.000 0.380 0.346 0.196
v -184.000 -8.000 160.000 0.384 0.350 0.199
v -176.000 -7.878 160.000 0.389 0.355 0.202
v -168.000 -7.108 160.000 0.361 0.326 0.184
v -160.000 -6.303 160.000 0.361 0.326 0.184
v -152.000 -6.182 160.000 0.361 0.326 0.184
v -144.000 -5.445 160.000 0.368 0.333 0.188
v -136.000 -4.708 160.000 0.390 0.356 0.203
v -128.000 -4.091 160.000 0.427 0.394 0.227
v -192.000 -8.000 168.000 0.373 0.339 0.192
v -184.000 -8.000 168.000 0.361 0.326 0.184
v -176.000 -8.000 168.000 0.361 0.326 0.184
v -168.000 -8.000 168.000 0.361 0.326 0.184
v -160.000 -7.554 168.000 0.361 0.326 0.184
v -152.000 -7.015 168.000 0.361 0.326 0.184
v -144.000 -6.572 168.000 0.361 0.326 0.184
v -136.000 -5.514 168.000 0.392 0.358 0.204
v -128.000 -5.038 168.000 0.439 0.407 0.235
v -192.000 -8.000 176.000 0.396 0.362 0.207
v -184.000 -8.000 176.000 0.362 0.327 0.185
v -176.000 -8.000 176.000 0.364 0.330 0.186
v -168.000 -8.000 176.000 0.385 0.351 0.200
v -160.000 -8.000 176.000 0.366 0.332 0.187
v -152.000 -7.828 176.000 0.363 0.328 0.185
v -144.000 -7.215 176.000 0.361 0.326 0.184
v -136.000 -6.295 176.000 0.384 0.350 0.199
v -128.000 -5.489 176.000 0.431 0.398 0.230
v -192.000 -8.000 184.000 0.413 0.380 0.218
v -184.000 -8.000 184.000 0.417 0.384 0.221
v -176.000 -8.000 184.000 0.439 0.407 0.236
v -168.000 -8.000 184.000 0.429 0.396 0.229
v -160.000 -8.000 184.000 0.412 0.379 0.217
v -152.000 -8.000 184.000 0.383 0.349 0.198
v -144.000 -7.735 184.000 0.406 0.373 0.214
v -136.000 -7.246 184.000 0.405 0.371 0.213
v -128.000 -6.568 184.000 0.397 0.363 0.208
v -192.000 -8.000 192.000 0.433 0.401 0.231
v -184.000 -8.000 192.000 0.456 0.424 0.247
v -176.000 -8.000 192.000 0.474 0.443 0.258
v -168.000 -8.000 192.000 0.460 0.428 0.249
v -160.000 -8.000 192.000 0.443 0.411 0.238
v -152.000 -8.000 192.000 0.436 0.403 0.233
v -144.000 -8.000 192.000 0.440 0.408 0.236
v -136.000 -8.000 192.000 0.452 0.420 0.244
v -128.000 -7.879 192.000 0.440 0.408 0.236

vt 0.200000 0.300000
vt 0.200000 0.287500
vt 0.212500 0.287500
vt 0.212500 0.300000
vt 0.225000 0.300000
vt 0.225000 0.287500
vt 0.237500 0.287500
vt 0.237500 0.300000
vt 0.250000 0.300000
vt 0.250000 0.287500
vt 0.262500 0.287500
vt 0.262500 0.300000
vt 0.275000 0.300000
vt 0.275000 0.287500
vt 0.287500 0.287500
vt 0.287500 0.300000
vt 0.300000 0.300000
vt 0.300000 0.287500
vt 0.200000 0.275000
vt 0.212500 0.275000
vt 0.225000 0.275000
vt 0.237500 0.275000
vt 0.250000 0.275000
vt 0.262500 0.275000
vt 0.275000 0.275000
vt 0.287500 0.275000
vt 0.300000 0.275000
vt 0.200000 0.262500
vt 0.212500 0.262500
vt 0.225000 0.262500
vt 0.237500 0.262500
vt 0.250000 0.262500
vt 0.262500 0.262500
vt 0.275000 0.262500
vt 0.287500 0.262500
vt 0.300000 0.262500
vt 0.200000 0.250000
vt 0.212500 0.250000
vt 0.225000 0.250000
vt 0.237500 0.250000
vt 0.250000 0.250000
vt 0.262500 0.250000
vt 0.275000 0.250000
vt 0.287500 0.250000
vt 0.300000 0.250000
vt 0.200000 0.237500
vt 0.212500 0.237500
vt 0.225000 0.237500
vt 0.237500 0.237500
vt 0.250000 0.237500
vt 0.262500 0.237500
vt 0.275000 0.237500
vt 0.287500 0.237500
vt 0.300000 0.237500
vt 0.200000 0.225000
vt 0.212500 0.225000
vt 0.225000 0.225000
vt 0.237500 0.225000
vt 0.250000 0.225000
vt 0.262500 0.225000
vt 0.275000 0.225000
vt 0.287500 0.225000
vt 0.300000 0.225000
vt 0.200000 0.212500
vt 0.212500 0.212500
vt 0.225000 0.212500
vt 0.237500 0.212500
vt 0.250000 0.212500
vt 0.262500 0.212500
vt 0.275000 0.212500
vt 0.287500 0.212500
vt 0.300000 0.212500
vt 0.200000 0.200000
vt 0.212500 0.200000
vt 0.225000 0.200000
vt 0.237500 0.200000
vt 0.250000 0.200000
vt 0.262500 0.200000
vt 0.275000 0.200000
vt 0.287500 0.200000
vt 0.300000 0.200000

vn -0.09020 0.98907 0.11664
vn -0.06928 0.99323 0.09322
vn -0.10747 0.98958 0.09580
vn -0.10047 0.98541 0.13735
vn -0.10475 0.99030 0.09125
vn -0.12247 0.98909 0.08187
vn -0.10684 0.99170 0.07158
vn -0.10696 0.99203 0.06666
vn -0.09539 0.99339 0.06389
vn -0.10029 0.99075 0.09142
vn -0.04788 0.99483 0.08955
vn -0.05719 0.99729 0.04623
vn -0.03603 0.99678 0.07162
vn -0.03278 0.99348 0.10922
vn -0.03238 0.99576 0.08609
vn -0.00279 0.99826 0.05886
vn -0.00210 0.99883 0.04832
vn -0.01268 0.99894 0.04427
vn -0.06722 0.99548 0.06708
vn -0.11197 0.99058 0.07887
vn -0.12663 0.98735 0.09542
vn -0.09749 0.99152 0.08588
vn -0.07079 0.99066 0.11653
vn -0.03927 0.98948 0.13922
vn -0.03557 0.99239 0.11791
vn -0.06786 0.99190 0.10733
vn -0.08125 0.99352 0.07949
vn -0.02082 0.99974 0.00954
vn -0.05732 0.99666 0.05814
vn -0.11529 0.98683 0.11343
vn -0.09843 0.98747 0.12333
vn -0.04679 0.99238 0.11396
vn -0.05094 0.99077 0.12562
vn -0.06502 0.99284 0.10016
vn -0.08307 0.99301 0.08381
vn -0.12408 0.98873 0.08373
vn -0.00521 0.99997 0.00521
vn -0.00764 0.99992 0.01041
vn -0.05687 0.99648 0.06154
vn -0.09718 0.98731 0.12562
vn -0.05561 0.99087 0.12279
vn -0.05322 0.99229 0.11196
vn -0.08507 0.99034 0.10954
vn -0.08402 0.99293 0.08390
vn -0.08409 0.99142 0.10012
vn 0.00000 1.00000 0.00000
vn -0.00191 1.00000 0.00191
vn 0.00000 0.99997 0.00764
vn -0.03845 0.99768 0.05616
vn -0.06109 0.99256 0.10528
vn -0.05598 0.99291 0.10488
vn -0.09285 0.98964 0.10951
vn -0.09517 0.99061 0.09817
vn -0.05922 0.99446 0.08687
vn 0.00000 1.00000 0.00000
vn 0.00000 1.00000 0.00000
vn 0.00000 1.00000 0.00000
vn 0.00000 1.00000 0.00000
vn -0.02074 0.99936 0.02929
vn -0.04889 0.99692 0.06136
vn -0.08262 0.99350 0.07830
vn -0.10669 0.98852 0.10700
vn -0.08569 0.99118 0.10105
vn 0.00000 1.00000 0.00000
vn 0.00000 1.00000 0.00000
vn 0.00000 1.00000 0.00000
vn 0.00000 1.00000 0.00000
vn 0.00000 1.00000 0.00000
vn -0.02052 0.99963 0.01762
vn -0.04703 0.99769 0.04893
vn -0.06487 0.99265 0.10214
vn -0.08347 0.98557 0.14723
vn 0.00000 1.00000 0.00000
vn 0.00000 1.00000 0.00000
vn 0.00000 1.00000 0.00000
vn 0.00000 1.00000 0.00000
vn 0.00000 1.00000 0.00000
vn 0.00000 1.00000 0.00000
vn -0.02354 0.99892 0.04007
vn -0.00755 0.99556 0.09385
vn -0.04946 0.99056 0.12782

f 1/1/1 2/2/2 3/3/3
f 1/1/1 3/3/3 4/4/4
f 4/4/4 3/3/3 5/5/5
f 5/5/5 3/3/3 6/6/6
f 5/5/5 6/6/6 7/7/7
f 5/5/5 7/7/7 8/8/8
f 8/8/8 7/7/7 9/9/9
f 9/9/9 7/7/7 10/10/10
f 9/9/9 10/10/10 11/11/11
f 9/9/9 11/11/11 12/12/12
f 12/12/12 11/11/11 13/13/13
f 13/13/13 11/11/11 14/14/14
f 13/13/13 14/14/14 15/15/15
f 13/13/13 15/15/15 16/16/16
f 16/16/16 15/15/15 17/17/17
f 17/17/17 15/15/15 18/18/18
f 2/2/2 19/19/19 3/3/3
f 3/3/3 19/19/19 20/20/20
f 3/3/3 20/20/20 21/21/21
f 3/3/3 21/21/21 6/6/6
f 6/6/6 21/21/21 7/7/7
f 7/7/7 21/21/21 22/22/22
f 7/7/7 22/22/22 23/23/23
f 7/7/7 23/23/23 10/10/10
f 10/10/10 23/23/23 11/11/11
f 11/11/11 23/23/23 24/24/24
f 11/11/11 24/24/24 25/25/25
f 11/11/11 25/25/25 14/14/14
f 14/14/14 25/25/25 15/15/15
f 15/15/15 25/25/25 26/26/26
f 15/15/15 26/26/26 27/27/27
f 15/15/15 27/27/27 18/18/18
f 19/19/19 28/28/28 29/29/29
f 19/19/19 29/29/29 20/20/20
f 20/20/20 29/29/29 21/21/21
f 21/21/21 29/29/29 30/30/30
f 21/21/21 30/30/30 31/31/31
f 21/21/21 31/31/31 22/22/22
f 22/22/22 31/31/31 23/23/23
f 23/23/23 31/31/31 32/32/32
f 23/23/23 32/32/32 33/33/33
f 23/23/23 33/33/33 24/24/24
f 24/24/24 33/33/33 25/25/25
f 25/25/25 33/33/33 34/34/34
f 25/25/25 34/34/34 35/35/35
f 25/25/25 35/35/35 26/26/26
f 26/26/26 35/35/35 27/27/27
f 27/27/27 35/35/35 36/36/36
f 28/28/28 37/37/37 29/29/29
f 29/29/29 37/37/37 38/38/38
f 29/29/29 38/38/38 39/39/39
f 29/29/29 39/39/39 30/30/30
f 30/30/30 39/39/39 31/31/31
f 31/31/31 39/39/39 40/40/40
f 31/31/31 40/40/40 41/41/41
f 31/31/31 41/41/41 32/32/32
f 32/32/32 41/41/41 33/33/33
f 33/33/33 41/41/41 42/42/42
f 33/33/33 42/42/42 43/43/43
f 33/33/33 43/43/43 34/34/34
f 34/34/34 43/43/43 35/35/35
f 35/35/35 43/43/43 44/44/44
f 35/35/35 44/44/44 45/45/45
f 35/35/35 45/45/45 36/36/36
f 37/37/37 46/46/46 47/47/47
f 37/37/37 47/47/47 38/38/38
f 38/38/38 47/47/47 39/39/39
f 39/39/39 47/47/47 48/48/48
f 39/39/39 48/48/48 49/49/49
f 39/39/39 49/49/49 40/40/40
f 40/40/40 49/49/49 41/41/41
f 41/41/41 49/49/49 50/50/50
f 41/41/41 50/50/50 51/51/51
f 41/41/41 51/51/51 42/42/42
f 42/42/42 51/51/51 43/43/43
f 43/43/43 51/51/51 52/52/52
f 43/43/43 52/52/52 53/53/53
f 43/43/43 53/53/53 44/44/44
f 44/44/44 53/53/53 45/45/45
f 45/45/45 53/53/53 54/54/54
f 46/46/46 55/55/55 47/47/47
f 47/47/47 55/55/55 56/56/56
f 47/47/47 56/56/56 57/57/57
f 47/47/47 57/57/57 48/48/48
f 48/48/48 57/57/57 49/49/49
f 49/49/49 57/57/57 58/58/58
f 49/49/49 58/58/58 59/59/59
f 49/49/49 59/59/59 50/50/50
f 50/50/50 59/59/59 51/51/51
f 51/51/51 59/59/59 60/60/60
f 51/51/51 60/60/60 61/61/61
f 51/51/51 61/61/61 52/52/52
f 52/52/52 61/61/61 53/53/53
f 53/53/53 61/61/61 62/62/62
f 53/53/53 62/62/62 63/63/63
f 53/53/53 63/63/63 54/54/54
f 55/55/55 64/64/64 65/65/65
f 55/55/55 65/65/65 56/56/56
f 56/56/56 65/65/65 57/57/57
f 57/57/57 65/65/65 66/66/66
f 57/57/57 66/66/66 67/67/67
f 57/57/57 67/67/67 58/58/58
f 58/58/58 67/67/67 59/59/59
f 59/59/59 67/67/67 68/68/68
f 59/59/59 68/68/68 69/69/69
f 59/59/59 69/69/69 60/60/60
f 60/60/60 69/69/69 61/61/61
f 61/61/61 69/69/69 70/70/70
f 61/61/61 70/70/70 71/71/71
f 61/61/61 71/71/71 62/62/62
f 62/62/62 71/71/71 63/63/63
f 63/63/63 71/71/71 72/72/72
f 64/64/64 73/73/73 65/65/65
f 65/65/65 73/73/73 74/74/74
f 65/65/65 74/74/74 75/75/75
f 65/65/65 75/75/75 66/66/66
f 66/66/66 75/75/75 67/67/67
f 67/67/67 75/75/75 76/76/76
f 67/67/67 76/76/76 77/77/77
f 67/67/67 77/77/77 68/68/68
f 68/68/68 77/77/77 69/69/69
f 69/69/69 77/77/77 78/78/78
f 69/69/69 78/78/78 79/79/79
f 69/69/69 79/79/79 70/70/70
f 70/70/70 79/79/79 71/71/71
f 71/71/71 79/79/79 80/80/80
f 71/71/71 80/80/80 81/81/81
f 71/71/71 81/81/81 72/72/72
