# Generated by tools/generate_island.py. Do not edit by hand.
o terrain_lod1_-6_3

v -680.000 -10.800 384.000 0.515 0.485 0.285
v -680.000 -10.800 392.000 0.483 0.452 0.264
v -672.000 -10.379 384.000 0.524 0.495 0.291
v -672.000 -10.800 392.000 0.478 0.447 0.261
v -664.000 -10.776 392.000 0.478 0.447 0.261
v -664.000 -10.395 384.000 0.493 0.462 0.270
v -656.000 -10.098 384.000 0.477 0.446 0.261
v -656.000 -10.688 392.000 0.486 0.455 0.266
v -648.000 -9.808 392.000 0.477 0.445 0.260
v -648.000 -9.703 384.000 0.495 0.465 0.272
v -640.000 -9.262 384.000 0.464 0.432 0.252
v -640.000 -9.310 392.000 0.476 0.445 0.260
v -672.000 -10.800 400.000 0.497 0.467 0.274
v -664.000 -10.800 400.000 0.489 0.458 0.268
v -656.000 -10.519 400.000 0.468 0.436 0.254
v -648.000 -9.956 400.000 0.460 0.428 0.249
v -640.000 -9.187 400.000 0.463 0.431 0.251
v -664.000 -10.800 408.000 0.488 0.457 0.267
v -656.000 -10.446 408.000 0.459 0.427 0.248
v -648.000 -10.178 408.000 0.466 0.434 0.253
v -640.000 -9.588 408.000 0.458 0.426 0.248
v -664.000 -10.800 416.000 0.522 0.492 0.290
v -656.000 -10.668 416.000 0.490 0.459 0.269
v -648.000 -10.149 416.000 0.493 0.462 0.270
v -640.000 -9.924 416.000 0.477 0.446 0.260
v -664.000 -10.800 424.000 0.526 0.496 0.292
v -656.000 -10.720 424.000 0.512 0.482 0.283
v -648.000 -10.056 424.000 0.534 0.504 0.297
v -640.000 -10.089 424.000 0.499 0.468 0.275
v -656.000 -10.800 432.000 0.540 0.511 0.302
v -648.000 -10.664 432.000 0.533 0.504 0.297
v -640.000 -10.493 432.000 0.487 0.456 0.267
v -648.000 -10.800 440.000 0.532 0.503 0.297
v -640.000 -10.717 440.000 0.491 0.461 0.270
v -640.000 -10.800 448.000 0.505 0.474 0.278

vt 0.145833 0.300000
vt 0.145833 0.295833
vt 0.150000 0.300000
vt 0.150000 0.295833
vt 0.154167 0.295833
vt 0.154167 0.300000
vt 0.158333 0.300000
vt 0.158333 0.295833
vt 0.162500 0.295833
vt 0.162500 0.300000
vt 0.166667 0.300000
vt 0.166667 0.295833
vt 0.150000 0.291667
vt 0.154167 0.291667
vt 0.158333 0.291667
vt 0.162500 0.291667
vt 0.166667 0.291667
vt 0.154167 0.287500
vt 0.158333 0.287500
vt 0.162500 0.287500
vt 0.166667 0.287500
vt 0.154167 0.283333
vt 0.158333 0.283333
vt 0.162500 0.283333
vt 0.166667 0.283333
vt 0.154167 0.279167
vt 0.158333 0.279167
vt 0.162500 0.279167
vt 0.166667 0.279167
vt 0.158333 0.275000
vt 0.162500 0.275000
vt 0.166667 0.275000
vt 0.162500 0.270833
vt 0.166667 0.270833
vt 0.166667 0.266667

vn -0.05256 0.99862 0.00000
vn -0.02630 0.99931 0.02630
vn -0.01341 0.99918 0.03820
vn -0.00200 0.99938 0.03507
vn -0.01227 0.99959 0.02581
vn -0.01752 0.99871 0.04762
vn -0.05172 0.99731 0.05193
vn -0.06036 0.99783 0.02625
vn -0.07671 0.99696 0.01328
vn -0.05222 0.99855 0.01314
vn -0.05860 0.99824 0.00961
vn -0.06212 0.99806 -0.00465
vn -0.00150 1.00000 0.00150
vn -0.02340 0.99972 0.00200
vn -0.05115 0.99869 -0.00142
vn -0.08294 0.99629 0.02302
vn -0.08174 0.99645 0.02017
vn -0.03502 0.99938 0.00465
vn -0.03885 0.99920 0.00931
vn -0.05912 0.99805 0.01983
vn -0.07340 0.99625 0.04586
vn -0.01648 0.99986 0.00000
vn -0.04165 0.99911 0.00668
vn -0.04648 0.99889 -0.00760
vn -0.03145 0.99944 0.01184
vn -0.01212 0.99991 0.00549
vn -0.04644 0.99889 0.00823
vn -0.03611 0.99898 0.02703
vn 0.00414 0.99936 0.03558
vn -0.03171 0.99910 0.02819
vn -0.01915 0.99874 0.04643
vn -0.01224 0.99901 0.04281
vn -0.01479 0.99973 0.01807
vn -0.01042 0.99976 0.01917
vn -0.01042 0.99989 0.01042

f 1/1/1 2/2/2 3/3/3
f 3/3/3 2/2/2 4/4/4
f 3/3/3 4/4/4 5/5/5
f 3/3/3 5/5/5 6/6/6
f 6/6/6 5/5/5 7/7/7
f 7/7/7 5/5/5 8/8/8
f 7/7/7 8/8/8 9/9/9
f 7/7/7 9/9/9 10/10/10
f 10/10/10 9/9/9 11/11/11
f 11/11/11 9/9/9 12/12/12
f 4/4/4 13/13/13 5/5/5
f 5/5/5 13/13/13 14/14/14
f 5/5/5 14/14/14 15/15/15
f 5/5/5 15/15/15 8/8/8
f 8/8/8 15/15/15 9/9/9
f 9/9/9 15/15/15 16/16/16
f 9/9/9 16/16/16 17/17/17
f 9/9/9 17/17/17 12/12/12
f 14/14/14 18/18/18 15/15/15
f 15/15/15 18/18/18 19/19/19
f 15/15/15 19/19/19 20/20/20
f 15/15/15 20/20/20 16/16/16
f 16/16/16 20/20/20 17/17/17
f 17/17/17 20/20/20 21/21/21
f 18/18/18 22/22/22 23/23/23
f 18/18/18 23/23/23 19/19/19
f 19/19/19 23/23/23 20/20/20
f 20/20/20 23/23/23 24/24/24
f 20/20/20 24/24/24 25/25/25
f 20/20/20 25/25/25 21/21/21
f 22/22/22 26/26/26 23/23/23
f 23/23/23 26/26/26 27/27/27
f 23/23/23 27/27/27 28/28/28
f 23/23/23 28/28/28 24/24/24
f 24/24/24 28/28/28 25/25/25
f 25/25/25 28/28/28 29/29/29
f 26/26/26 30/30/30 27/27/27
f 27/27/27 30/30/30 28/28/28
f 28/28/28 30/30/30 31/31/31
f 28/28/28 31/31/31 32/32/32
f 28/28/28 32/32/32 29/29/29
f 30/30/30 33/33/33 31/31/31
f 31/31/31 33/33/33 32/32/32
f 32/32/32 33/33/33 34/34/34
f 33/33/33 35/35/35 34/34/34
