# Generated by tools/generate_island.py. Do not edit by hand.
o terrain_lod2_4_-4

v 512.000 -10.800 -512.000 0.457 0.425 0.247
v 512.000 -10.800 -496.000 0.494 0.464 0.272
v 528.000 -10.800 -496.000 0.516 0.486 0.286
v 528.000 -10.800 -512.000 0.484 0.453 0.265
v 544.000 -10.800 -512.000 0.498 0.467 0.274
v 544.000 -10.800 -496.000 0.540 0.511 0.302
v 560.000 -10.800 -496.000 0.521 0.491 0.289
v 560.000 -10.800 -512.000 0.522 0.492 0.290
v 576.000 -10.800 -512.000 0.449 0.417 0.242
v 576.000 -10.800 -496.000 0.449 0.417 0.242
v 592.000 -10.800 -496.000 0.396 0.362 0.207
v 592.000 -10.800 -512.000 0.411 0.378 0.217
v 608.000 -10.800 -512.000 0.441 0.409 0.237
v 608.000 -10.800 -496.000 0.385 0.351 0.200
v 624.000 -10.800 -496.000 0.440 0.407 0.236
v 624.000 -10.800 -512.000 0.454 0.422 0.245
v 640.000 -10.800 -512.000 0.546 0.517 0.306
v 640.000 -10.800 -496.000 0.512 0.482 0.284
v 512.000 -10.800 -480.000 0.483 0.452 0.264
v 528.000 -10.800 -480.000 0.544 0.515 0.305
v 544.000 -10.800 -480.000 0.513 0.483 0.284
v 560.000 -10.800 -480.000 0.500 0.469 0.275
v 576.000 -10.800 -480.000 0.460 0.428 0.249
v 592.000 -10.800 -480.000 0.378 0.344 0.195
v 608.000 -10.800 -480.000 0.367 0.332 0.188
v 624.000 -10.800 -480.000 0.396 0.363 0.207
v 640.000 -10.800 -480.000 0.471 0.439 0.256
v 512.000 -10.800 -464.000 0.502 0.472 0.277
v 528.000 -10.800 -464.000 0.476 0.444 0.259
v 544.000 -10.800 -464.000 0.444 0.412 0.238
v 560.000 -10.800 -464.000 0.485 0.454 0.265
v 576.000 -10.800 -464.000 0.415 0.382 0.219
v 592.000 -10.800 -464.000 0.408 0.375 0.215
v 608.000 -10.800 -464.000 0.400 0.366 0.209
v 624.000 -10.800 -464.000 0.425 0.392 0.226
v 640.000 -10.800 -464.000 0.415 0.382 0.219
v 512.000 -10.800 -448.000 0.503 0.472 0.277
v 528.000 -10.800 -448.000 0.403 0.370 0.212
v 544.000 -10.800 -448.000 0.428 0.395 0.228
v 560.000 -10.800 -448.000 0.428 0.395 0.228
v 576.000 -10.800 -448.000 0.401 0.368 0.210
v 592.000 -10.800 -448.000 0.428 0.395 0.228
v 608.000 -10.800 -448.000 0.422 0.389 0.224
v 624.000 -10.800 -448.000 0.395 0.361 0.206
v 640.000 -10.800 -448.000 0.373 0.339 0.192
v 512.000 -10.375 -432.000 0.518 0.488 0.287
v 528.000 -10.800 -432.000 0.451 0.419 0.243
v 544.000 -10.800 -432.000 0.361 0.326 0.184
v 560.000 -10.800 -432.000 0.365 0.330 0.187
v 576.000 -10.800 -432.000 0.413 0.380 0.218
v 592.000 -10.800 -432.000 0.416 0.383 0.220
v 608.000 -10.800 -432.000 0.408 0.375 0.215
v 624.000 -10.800 -432.000 0.402 0.369 0.211
v 640.000 -10.800 -432.000 0.387 0.353 0.201
v 512.000 -9.706 -416.000 0.541 0.512 0.303
v 528.000 -10.197 -416.000 0.473 0.441 0.257
v 544.000 -10.800 -416.000 0.418 0.385 0.221
v 560.000 -10.800 -416.000 0.415 0.382 0.219
v 576.000 -10.800 -416.000 0.444 0.412 0.238
v 592.000 -10.800 -416.000 0.415 0.382 0.219
v 608.000 -10.800 -416.000 0.431 0.398 0.230
v 624.000 -10.800 -416.000 0.414 0.381 0.219
v 640.000 -10.800 -416.000 0.433 0.400 0.231
v 512.000 -8.452 -400.000 0.507 0.477 0.280
v 528.000 -9.479 -400.000 0.472 0.441 0.257
v 544.000 -10.465 -400.000 0.503 0.473 0.277
v 560.000 -10.446 -400.000 0.517 0.487 0.287
v 576.000 -10.800 -400.000 0.441 0.409 0.237
v 592.000 -10.800 -400.000 0.449 0.417 0.242
v 608.000 -10.800 -400.000 0.475 0.444 0.259
v 624.000 -10.800 -400.000 0.460 0.428 0.249
v 640.000 -10.800 -400.000 0.481 0.449 0.263
v 512.000 -7.659 -384.000 0.504 0.474 0.278
v 528.000 -8.879 -384.000 0.499 0.469 0.275
v 544.000 -9.225 -384.000 0.559 0.530 0.314
v 560.000 -9.110 -384.000 0.544 0.515 0.304
v 576.000 -10.319 -384.000 0.463 0.432 0.251
v 592.000 -10.800 -384.000 0.467 0.435 0.254
v 608.000 -10.800 -384.000 0.450 0.418 0.242
v 624.000 -10.800 -384.000 0.457 0.425 0.247
v 640.000 -10.800 -384.000 0.513 0.482 0.284

vt 0.766667 0.766667
vt 0.766667 0.758333
vt 0.775000 0.758333
vt 0.775000 0.766667
vt 0.783333 0.766667
vt 0.783333 0.758333
vt 0.791667 0.758333
vt 0.791667 0.766667
vt 0.800000 0.766667
vt 0.800000 0.758333
vt 0.808333 0.758333
vt 0.808333 0.766667
vt 0.816667 0.766667
vt 0.816667 0.758333
vt 0.825000 0.758333
vt 0.825000 0.766667
vt 0.833333 0.766667
vt 0.833333 0.758333
vt 0.766667 0.750000
vt 0.775000 0.750000
vt 0.783333 0.750000
vt 0.791667 0.750000
vt 0.800000 0.750000
vt 0.808333 0.750000
vt 0.816667 0.750000
vt 0.825000 0.750000
vt 0.833333 0.750000
vt 0.766667 0.741667
vt 0.775000 0.741667
vt 0.783333 0.741667
vt 0.791667 0.741667
vt 0.800000 0.741667
vt 0.808333 0.741667
vt 0.816667 0.741667
vt 0.825000 0.741667
vt 0.833333 0.741667
vt 0.766667 0.733333
vt 0.775000 0.733333
vt 0.783333 0.733333
vt 0.791667 0.733333
vt 0.800000 0.733333
vt 0.808333 0.733333
vt 0.816667 0.733333
vt 0.825000 0.733333
vt 0.833333 0.733333
vt 0.766667 0.725000
vt 0.775000 0.725000
vt 0.783333 0.725000
vt 0.791667 0.725000
vt 0.800000 0.725000
vt 0.808333 0.725000
vt 0.816667 0.725000
vt 0.825000 0.725000
vt 0.833333 0.725000
vt 0.766667 0.716667
vt 0.775000 0.716667
vt 0.783333 0.716667
vt 0.791667 0.716667
vt 0.800000 0.716667
vt 0.808333 0.716667
vt 0.816667 0.716667
vt 0.825000 0.716667
vt 0.833333 0.716667
vt 0.766667 0.708333
vt 0.775000 0.708333
vt 0.783333 0.708333
vt 0.791667 0.708333
vt 0.800000 0.708333
vt 0.808333 0.708333
vt 0.816667 0.708333
vt 0.825000 0.708333
vt 0.833333 0.708333
vt 0.766667 0.700000
vt 0.775000 0.700000
vt 0.783333 0.700000
vt 0.791667 0.700000
vt 0.800000 0.700000
vt 0.808333 0.700000
vt 0.816667 0.700000
vt 0.825000 0.700000
vt 0.833333 0.700000

vn 0.00000 1.00000 0.00000
vn 0.00000 1.00000 0.00000
vn 0.00000 1.00000 0.00000
vn 0.00000 1.00000 0.00000
vn 0.00000 1.00000 0.00000
vn 0.00000 1.00000 0.00000
vn 0.00000 1.00000 0.00000
vn 0.00000 1.00000 0.00000
vn 0.00000 1.00000 0.00000
vn 0.00000 1.00000 0.00000
vn 0.00000 1.00000 0.00000
vn 0.00000 1.00000 0.00000
vn 0.00000 1.00000 0.00000
vn 0.00000 1.00000 0.00000
vn 0.00000 1.00000 0.00000
vn 0.00000 1.00000 0.00000
vn 0.00000 1.00000 0.00000
vn 0.00000 1.00000 0.00000
vn 0.00000 1.00000 0.00000
vn 0.00000 1.00000 0.00000
vn 0.00000 1.00000 0.00000
vn 0.00000 1.00000 0.00000
vn 0.00000 1.00000 0.00000
vn 0.00000 1.00000 0.00000
vn 0.00000 1.00000 0.00000
vn 0.00000 1.00000 0.00000
vn 0.00000 1.00000 0.00000
vn 0.00000 1.00000 0.00000
vn 0.00000 1.00000 0.00000
vn 0.00000 1.00000 0.00000
vn 0.00000 1.00000 0.00000
vn 0.00000 1.00000 0.00000
vn 0.00000 1.00000 0.00000
vn 0.00000 1.00000 0.00000
vn 0.00000 1.00000 0.00000
vn 0.00000 1.00000 0.00000
vn 0.00664 0.99996 -0.00664
vn 0.00000 1.00000 0.00000
vn 0.00000 1.00000 0.00000
vn 0.00000 1.00000 0.00000
vn 0.00000 1.00000 0.00000
vn 0.00000 1.00000 0.00000
vn 0.00000 1.00000 0.00000
vn 0.00000 1.00000 0.00000
vn 0.00000 1.00000 0.00000
vn 0.02654 0.99906 -0.03415
vn 0.01518 0.99972 -0.01796
vn 0.00000 1.00000 0.00000
vn 0.00000 1.00000 0.00000
vn 0.00000 1.00000 0.00000
vn 0.00000 1.00000 0.00000
vn 0.00000 1.00000 0.00000
vn 0.00000 1.00000 0.00000
vn 0.00000 1.00000 0.00000
vn 0.03797 0.99800 -0.05058
vn 0.03413 0.99857 -0.04121
vn 0.01696 0.99969 -0.01831
vn 0.00000 0.99994 -0.01105
vn 0.00276 0.99999 -0.00276
vn 0.00000 1.00000 0.00000
vn 0.00000 1.00000 0.00000
vn 0.00000 1.00000 0.00000
vn 0.00000 1.00000 0.00000
vn 0.06397 0.99592 -0.06372
vn 0.05210 0.99745 -0.04878
vn 0.03016 0.99834 -0.04914
vn 0.01377 0.99900 -0.04243
vn 0.01105 0.99983 -0.01503
vn 0.00376 0.99999 -0.00376
vn 0.00000 1.00000 0.00000
vn 0.00000 1.00000 0.00000
vn 0.00000 1.00000 0.00000
vn 0.07001 0.99660 -0.04340
vn 0.04884 0.99810 -0.03746
vn 0.01866 0.99745 -0.06885
vn 0.03406 0.99595 -0.08320
vn 0.03190 0.99885 -0.03587
vn 0.01503 0.99989 0.00000
vn 0.00000 1.00000 0.00000
vn 0.00000 1.00000 0.00000
vn 0.00000 1.00000 0.00000

f 1/1/1 2/2/2 3/3/3
f 1/1/1 3/3/3 4/4/4
f 4/4/4 3/3/3 5/5/5
f 5/5/5 3/3/3 6/6/6
f 5/5/5 6/6/6 7/7/7
f 5/5/5 7/7/7 8/8/8
f 8/8/8 7/7/7 9/9/9
f 9/9/9 7/7/7 10/10/10
f 9/9/9 10/10/10 11/11/11
f 9/9/9 11/11/11 12/12/12
f 12/12/12 11/11/11 13/13/13
f 13/13/13 11/11/11 14/14/14
f 13/13/13 14/14/14 15/15/15
f 13/13/13 15/15/15 16/16/16
f 16/16/16 15/15/15 17/17/17
f 17/17/17 15/15/15 18/18/18
f 2/2/2 19/19/19 3/3/3
f 3/3/3 19/19/19 20/20/20
f 3/3/3 20/20/20 21/21/21
f 3/3/3 21/21/21 6/6/6
f 6/6/6 21/21/21 7/7/7
f 7/7/7 21/21/21 22/22/22
f 7/7/7 22/22/22 23/23/23
f 7/7/7 23/23/23 10/10/10
f 10/10/10 23/23/23 11/11/11
f 11/11/11 23/23/23 24/24/24
f 11/11/11 24/24/24 25/25/25
f 11/11/11 25/25/25 14/14/14
f 14/14/14 25/25/25 15/15/15
f 15/15/15 25/25/25 26/26/26
f 15/15/15 26/26/26 27/27/27
f 15/15/15 27/27/27 18/18/18
f 19/19/19 28/28/28 29/29/29
f 19/19/19 29/29/29 20/20/20
f 20/20/20 29/29/29 21/21/21
f 21/21/21 29/29/29 30/30/30
f 21/21/21 30/30/30 31/31/31
f 21/21/21 31/31/31 22/22/22
f 22/22/22 31/31/31 23/23/23
f 23/23/23 31/31/31 32/32/32
f 23/23/23 32/32/32 33/33/33
f 23/23/23 33/33/33 24/24/24
f 24/24/24 33/33/33 25/25/25
f 25/25/25 33/33/33 34/34/34
f 25/25/25 34/34/34 35/35/35
f 25/25/25 35/35/35 26/26/26
f 26/26/26 35/35/35 27/27/27
f 27/27/27 35/35/35 36/36/36
f 28/28/28 37/37/37 29/29/29
f 29/29/29 37/37/37 38/38/38
f 29/29/29 38/38/38 39/39/39
f 29/29/29 39/39/39 30/30/30
f 30/30/30 39/39/39 31/31/31
f 31/31/31 39/39/39 40/40/40
f 31/31/31 40/40/40 41/41/41
f 31/31/31 41/41/41 32/32/32
f 32/32/32 41/41/41 33/33/33
f 33/33/33 41/41/41 42/42/42
f 33/33/33 42/42/42 43/43/43
f 33/33/33 43/43/43 34/34/34
f 34/34/34 43/43/43 35/35/35
f 35/35/35 43/43/43 44/44/44
f 35/35/35 44/44/44 45/45/45
f 35/35/35 45/45/45 36/36/36
f 37/37/37 46/46/46 47/47/47
f 37/37/37 47/47/47 38/38/38
f 38/38/38 47/47/47 39/39/39
f 39/39/39 47/47/47 48/48/48
f 39/39/39 48/48/48 49/49/49
f 39/39/39 49/49/49 40/40/40
f 40/40/40 49/49/49 41/41/41
f 41/41/41 49/49/49 50/50/50
f 41/41/41 50/50/50 51/51/51
f 41/41/41 51/51/51 42/42/42
f 42/42/42 51/51/51 43/43/43
f 43/43/43 51/51/51 52/52/52
f 43/43/43 52/52/52 53/53/53
f 43/43/43 53/53/53 44/44/44
f 44/44/44 53/53/53 45/45/45
f 45/45/45 53/53/53 54/54/54
f 46/46/46 55/55/55 47/47/47
f 47/47/47 55/55/55 56/56/56
f 47/47/47 56/56/56 57/57/57
f 47/47/47 57/57/57 48/48/48
f 48/48/48 57/57/57 49/49/49
f 49/49/49 57/57/57 58/58/58
f 49/49/49 58/58/58 59/59/59
f 49/49/49 59/59/59 50/50/50
f 50/50/50 59/59/59 51/51/51
f 51/51/51 59/59/59 60/60/60
f 51/51/51 60/60/60 61/61/61
f 51/51/51 61/61/61 52/52/52
f 52/52/52 61/61/61 53/53/53
f 53/53/53 61/61/61 62/62/62
f 53/53/53 62/62/62 63/63/63
f 53/53/53 63/63/63 54/54/54
f 55/55/55 64/64/64 65/65/65
f 55/55/55 65/65/65 56/56/56
f 56/56/56 65/65/65 57/57/57
f 57/57/57 65/65/65 66/66/66
f 57/57/57 66/66/66 67/67/67
f 57/57/57 67/67/67 58/58/58
f 58/58/58 67/67/67 59/59/59
f 59/59/59 67/67/67 68/68/68
f 59/59/59 68/68/68 69/69/69
f 59/59/59 69/69/69 60/60/60
f 60/60/60 69/69/69 61/61/61
f 61/61/61 69/69/69 70/70/70
f 61/61/61 70/70/70 71/71/71
f 61/61/61 71/71/71 62/62/62
f 62/62/62 71/71/71 63/63/63
f 63/63/63 71/71/71 72/72/72
f 64/64/64 73/73/73 65/65/65
f 65/65/65 73/73/73 74/74/74
f 65/65/65 74/74/74 75/75/75
f 65/65/65 75/75/75 66/66/66
f 66/66/66 75/75/75 67/67/67
f 67/67/67 75/75/75 76/76/76
f 67/67/67 76/76/76 77/77/77
f 67/67/67 77/77/77 68/68/68
f 68/68/68 77/77/77 69/69/69
f 69/69/69 77/77/77 78/78/78
f 69/69/69 78/78/78 79/79/79
f 69/69/69 79/79/79 70/70/70
f 70/70/70 79/79/79 71/71/71
f 71/71/71 79/79/79 80/80/80
f 71/71/71 80/80/80 81/81/81
f 71/71/71 81/81/81 72/72/72
