# Generated by tools/generate_island.py. Do not edit by hand.
o terrain_lod2_-6_-2

v -640.000 -10.800 -256.000 0.511 0.480 0.282
v -656.000 -10.800 -240.000 0.407 0.374 0.214
v -640.000 -10.440 -240.000 0.517 0.487 0.286
v -672.000 -10.800 -224.000 0.379 0.345 0.196
v -656.000 -10.698 -224.000 0.403 0.369 0.211
v -640.000 -9.334 -224.000 0.521 0.491 0.289
v -672.000 -10.800 -208.000 0.394 0.361 0.206
v -656.000 -9.712 -208.000 0.399 0.366 0.209
v -640.000 -8.905 -208.000 0.496 0.465 0.273
v -688.000 -10.800 -208.000 0.431 0.398 0.230
v -704.000 -10.800 -192.000 0.500 0.469 0.275
v -688.000 -10.630 -192.000 0.487 0.456 0.267
v -672.000 -9.688 -192.000 0.463 0.431 0.251
v -656.000 -8.660 -192.000 0.432 0.399 0.230
v -640.000 -8.391 -192.000 0.439 0.407 0.235
v -704.000 -10.800 -176.000 0.491 0.460 0.269
v -688.000 -9.816 -176.000 0.523 0.494 0.291
v -672.000 -8.350 -176.000 0.487 0.456 0.267
v -656.000 -7.999 -176.000 0.444 0.411 0.238
v -640.000 -7.959 -176.000 0.423 0.390 0.225
v -720.000 -10.800 -176.000 0.447 0.415 0.240
v -736.000 -10.800 -160.000 0.435 0.403 0.233
v -720.000 -10.584 -160.000 0.446 0.414 0.240
v -704.000 -10.159 -160.000 0.516 0.486 0.286
v -688.000 -9.038 -160.000 0.563 0.534 0.317
v -672.000 -7.972 -160.000 0.522 0.492 0.290
v -656.000 -7.677 -160.000 0.438 0.406 0.235
v -640.000 -6.819 -160.000 0.406 0.372 0.213
v -736.000 -10.800 -144.000 0.407 0.373 0.214
v -720.000 -10.709 -144.000 0.440 0.408 0.236
v -704.000 -9.799 -144.000 0.484 0.453 0.265
v -688.000 -8.191 -144.000 0.517 0.487 0.286
v -672.000 -7.515 -144.000 0.497 0.466 0.273
v -656.000 -7.322 -144.000 0.462 0.430 0.250
v -640.000 -6.353 -144.000 0.401 0.368 0.210
v -752.000 -10.800 -144.000 0.432 0.400 0.231
v -752.000 -10.800 -128.000 0.452 0.420 0.244
v -736.000 -10.534 -128.000 0.394 0.360 0.206
v -720.000 -10.238 -128.000 0.424 0.391 0.226
v -704.000 -9.031 -128.000 0.429 0.396 0.229
v -688.000 -8.052 -128.000 0.497 0.466 0.273
v -672.000 -7.482 -128.000 0.483 0.452 0.264
v -656.000 -6.514 -128.000 0.432 0.400 0.231
v -640.000 -5.650 -128.000 0.406 0.372 0.213

vt 0.166667 0.633333
vt 0.158333 0.625000
vt 0.166667 0.625000
vt 0.150000 0.616667
vt 0.158333 0.616667
vt 0.166667 0.616667
vt 0.150000 0.608333
vt 0.158333 0.608333
vt 0.166667 0.608333
vt 0.141667 0.608333
vt 0.133333 0.600000
vt 0.141667 0.600000
vt 0.150000 0.600000
vt 0.158333 0.600000
vt 0.166667 0.600000
vt 0.133333 0.591667
vt 0.141667 0.591667
vt 0.150000 0.591667
vt 0.158333 0.591667
vt 0.166667 0.591667
vt 0.125000 0.591667
vt 0.116667 0.583333
vt 0.125000 0.583333
vt 0.133333 0.583333
vt 0.141667 0.583333
vt 0.150000 0.583333
vt 0.158333 0.583333
vt 0.166667 0.583333
vt 0.116667 0.575000
vt 0.125000 0.575000
vt 0.133333 0.575000
vt 0.141667 0.575000
vt 0.150000 0.575000
vt 0.158333 0.575000
vt 0.166667 0.575000
vt 0.108333 0.575000
vt 0.108333 0.566667
vt 0.116667 0.566667
vt 0.125000 0.566667
vt 0.133333 0.566667
vt 0.141667 0.566667
vt 0.150000 0.566667
vt 0.158333 0.566667
vt 0.166667 0.566667

vn -0.02246 0.99950 -0.02246
vn -0.03411 0.99908 -0.02608
vn -0.02244 0.99870 -0.04575
vn -0.02691 0.99938 -0.02265
vn -0.04573 0.99838 -0.03394
vn -0.06067 0.99732 -0.04088
vn -0.04523 0.99791 -0.04624
vn -0.05107 0.99755 -0.04777
vn -0.05035 0.99830 -0.02943
vn -0.02315 0.99927 -0.03024
vn -0.02759 0.99941 -0.02050
vn -0.03472 0.99892 -0.03073
vn -0.05329 0.99682 -0.05917
vn -0.04045 0.99775 -0.05343
vn -0.02163 0.99890 -0.04152
vn -0.04097 0.99880 -0.02668
vn -0.06386 0.99703 -0.04316
vn -0.05661 0.99696 -0.05347
vn -0.02523 0.99884 -0.04101
vn -0.00248 0.99879 -0.04907
vn -0.01335 0.99966 -0.02237
vn -0.01092 0.99994 -0.00191
vn -0.02003 0.99980 -0.00286
vn -0.05142 0.99826 -0.02899
vn -0.06810 0.99640 -0.05058
vn -0.04219 0.99863 -0.03098
vn -0.03600 0.99913 -0.02113
vn -0.04251 0.99846 -0.03562
vn -0.00381 0.99993 -0.01107
vn -0.03237 0.99934 -0.01627
vn -0.07838 0.99630 -0.03513
vn -0.06471 0.99751 -0.02797
vn -0.02715 0.99951 -0.01530
vn -0.04144 0.99866 -0.03108
vn -0.06042 0.99751 -0.03644
vn -0.00830 0.99993 -0.00830
vn -0.01660 0.99986 0.00000
vn -0.01020 0.99983 -0.01565
vn -0.04692 0.99847 -0.02934
vn -0.07325 0.99675 -0.03343
vn -0.04833 0.99879 -0.00866
vn -0.03759 0.99917 -0.01582
vn -0.05709 0.99710 -0.05032
vn -0.05714 0.99726 -0.04707

f 1/1/1 2/2/2 3/3/3
f 2/2/2 4/4/4 5/5/5
f 2/2/2 5/5/5 6/6/6
f 2/2/2 6/6/6 3/3/3
f 4/4/4 7/7/7 8/8/8
f 4/4/4 8/8/8 5/5/5
f 5/5/5 8/8/8 6/6/6
f 6/6/6 8/8/8 9/9/9
f 10/10/10 11/11/11 12/12/12
f 10/10/10 12/12/12 13/13/13
f 10/10/10 13/13/13 7/7/7
f 7/7/7 13/13/13 8/8/8
f 8/8/8 13/13/13 14/14/14
f 8/8/8 14/14/14 15/15/15
f 8/8/8 15/15/15 9/9/9
f 11/11/11 16/16/16 17/17/17
f 11/11/11 17/17/17 12/12/12
f 12/12/12 17/17/17 13/13/13
f 13/13/13 17/17/17 18/18/18
f 13/13/13 18/18/18 19/19/19
f 13/13/13 19/19/19 14/14/14
f 14/14/14 19/19/19 15/15/15
f 15/15/15 19/19/19 20/20/20
f 21/21/21 22/22/22 23/23/23
f 21/21/21 23/23/23 24/24/24
f 21/21/21 24/24/24 16/16/16
f 16/16/16 24/24/24 17/17/17
f 17/17/17 24/24/24 25/25/25
f 17/17/17 25/25/25 26/26/26
f 17/17/17 26/26/26 18/18/18
f 18/18/18 26/26/26 19/19/19
f 19/19/19 26/26/26 27/27/27
f 19/19/19 27/27/27 28/28/28
f 19/19/19 28/28/28 20/20/20
f 22/22/22 29/29/29 30/30/30
f 22/22/22 30/30/30 23/23/23
f 23/23/23 30/30/30 24/24/24
f 24/24/24 30/30/30 31/31/31
f 24/24/24 31/31/31 32/32/32
f 24/24/24 32/32/32 25/25/25
f 25/25/25 32/32/32 26/26/26
f 26/26/26 32/32/32 33/33/33
f 26/26/26 33/33/33 34/34/34
f 26/26/26 34/34/34 27/27/27
f 27/27/27 34/34/34 28/28/28
f 28/28/28 34/34/34 35/35/35
f 36/36/36 37/37/37 38/38/38
f 36/36/36 38/38/38 29/29/29
f 29/29/29 38/38/38 30/30/30
f 30/30/30 38/38/38 39/39/39
f 30/30/30 39/39/39 40/40/40
f 30/30/30 40/40/40 31/31/31
f 31/31/31 40/40/40 32/32/32
f 32/32/32 40/40/40 41/41/41
f 32/32/32 41/41/41 42/42/42
f 32/32/32 42/42/42 33/33/33
f 33/33/33 42/42/42 34/34/34
f 34/34/34 42/42/42 43/43/43
f 34/34/34 43/43/43 44/44/44
f 34/34/34 44/44/44 35/35/35
