# Generated by tools/generate_island.py. Do not edit by hand.
o terrain_lod2_6_0

v 768.000 -8.994 0.000 0.427 0.394 0.228
v 768.000 -8.515 16.000 0.402 0.368 0.211
v 784.000 -9.276 16.000 0.443 0.410 0.238
v 784.000 -9.425 0.000 0.486 0.455 0.266
v 800.000 -10.343 0.000 0.525 0.495 0.292
v 800.000 -10.460 16.000 0.482 0.451 0.264
v 816.000 -10.800 16.000 0.575 0.547 0.325
v 816.000 -10.800 0.000 0.575 0.547 0.325
v 768.000 -8.182 32.000 0.389 0.355 0.202
v 784.000 -9.644 32.000 0.414 0.381 0.219
v 800.000 -10.336 32.000 0.463 0.431 0.251
v 816.000 -10.402 32.000 0.557 0.529 0.313
v 832.000 -10.800 32.000 0.537 0.507 0.300
v 768.000 -8.051 48.000 0.404 0.371 0.212
v 784.000 -9.199 48.000 0.465 0.433 0.252
v 800.000 -9.630 48.000 0.517 0.487 0.286
v 816.000 -10.683 48.000 0.495 0.464 0.272
v 832.000 -10.800 48.000 0.521 0.491 0.289
v 768.000 -8.676 64.000 0.411 0.377 0.217
v 784.000 -9.476 64.000 0.494 0.463 0.271
v 800.000 -9.404 64.000 0.538 0.509 0.300
v 816.000 -10.536 64.000 0.486 0.455 0.266
v 832.000 -10.800 64.000 0.493 0.462 0.271
v 768.000 -8.620 80.000 0.431 0.399 0.230
v 784.000 -9.040 80.000 0.470 0.439 0.256
v 800.000 -9.806 80.000 0.526 0.497 0.293
v 816.000 -10.800 80.000 0.507 0.477 0.280
v 768.000 -8.498 96.000 0.445 0.413 0.239
v 784.000 -9.115 96.000 0.498 0.467 0.274
v 800.000 -10.340 96.000 0.467 0.436 0.254
v 816.000 -10.800 96.000 0.453 0.421 0.245
v 768.000 -8.513 112.000 0.463 0.431 0.251
v 784.000 -9.170 112.000 0.474 0.443 0.259
v 800.000 -10.333 112.000 0.465 0.434 0.252
v 816.000 -10.800 112.000 0.472 0.440 0.257
v 768.000 -8.468 128.000 0.489 0.458 0.268
v 784.000 -9.902 128.000 0.486 0.455 0.266
v 800.000 -10.547 128.000 0.453 0.421 0.244
v 816.000 -10.800 128.000 0.473 0.441 0.257

vt 0.900000 0.500000
vt 0.900000 0.491667
vt 0.908333 0.491667
vt 0.908333 0.500000
vt 0.916667 0.500000
vt 0.916667 0.491667
vt 0.925000 0.491667
vt 0.925000 0.500000
vt 0.900000 0.483333
vt 0.908333 0.483333
vt 0.916667 0.483333
vt 0.925000 0.483333
vt 0.933333 0.483333
vt 0.900000 0.475000
vt 0.908333 0.475000
vt 0.916667 0.475000
vt 0.925000 0.475000
vt 0.933333 0.475000
vt 0.900000 0.466667
vt 0.908333 0.466667
vt 0.916667 0.466667
vt 0.925000 0.466667
vt 0.933333 0.466667
vt 0.900000 0.458333
vt 0.908333 0.458333
vt 0.916667 0.458333
vt 0.925000 0.458333
vt 0.900000 0.450000
vt 0.908333 0.450000
vt 0.916667 0.450000
vt 0.925000 0.450000
vt 0.900000 0.441667
vt 0.908333 0.441667
vt 0.916667 0.441667
vt 0.925000 0.441667
vt 0.900000 0.433333
vt 0.908333 0.433333
vt 0.916667 0.433333
vt 0.925000 0.433333

vn 0.03722 0.99911 -0.01963
vn 0.04752 0.99855 -0.02536
vn 0.05767 0.99833 -0.00298
vn 0.04211 0.99907 -0.00930
vn 0.04525 0.99897 0.00133
vn 0.04757 0.99887 -0.00024
vn 0.02001 0.99975 -0.01005
vn 0.02854 0.99959 0.00000
vn 0.07530 0.99713 -0.00842
vn 0.06716 0.99774 -0.00241
vn 0.03532 0.99927 -0.01448
vn 0.01451 0.99989 -0.00366
vn 0.01903 0.99982 -0.00244
vn 0.07150 0.99732 0.01542
vn 0.04712 0.99887 -0.00603
vn 0.04632 0.99850 -0.02907
vn 0.03280 0.99945 -0.00518
vn 0.00732 0.99997 0.00000
vn 0.04940 0.99876 0.00640
vn 0.02273 0.99973 -0.00496
vn 0.04188 0.99912 0.00242
vn 0.04359 0.99904 0.00365
vn 0.01343 0.99991 0.00244
vn 0.02619 0.99964 -0.00557
vn 0.03857 0.99926 0.00027
vn 0.05490 0.99806 0.02919
vn 0.04799 0.99868 0.01827
vn 0.03608 0.99935 0.00036
vn 0.05746 0.99834 0.00408
vn 0.05274 0.99857 0.00924
vn 0.02875 0.99959 0.00000
vn 0.04106 0.99916 -0.00092
vn 0.05895 0.99817 0.01365
vn 0.05086 0.99869 0.00645
vn 0.02575 0.99966 0.00323
vn 0.06518 0.99764 0.02140
vn 0.06474 0.99686 0.04555
vn 0.03946 0.99906 0.01809
vn 0.01584 0.99987 0.00000

f 1/1/1 2/2/2 3/3/3
f 1/1/1 3/3/3 4/4/4
f 4/4/4 3/3/3 5/5/5
f 5/5/5 3/3/3 6/6/6
f 5/5/5 6/6/6 7/7/7
f 5/5/5 7/7/7 8/8/8
f 2/2/2 9/9/9 3/3/3
f 3/3/3 9/9/9 10/10/10
f 3/3/3 10/10/10 11/11/11
f 3/3/3 11/11/11 6/6/6
f 6/6/6 11/11/11 7/7/7
f 7/7/7 11/11/11 12/12/12
f 7/7/7 12/12/12 13/13/13
f 9/9/9 14/14/14 15/15/15
f 9/9/9 15/15/15 10/10/10
f 10/10/10 15/15/15 11/11/11
f 11/11/11 15/15/15 16/16/16
f 11/11/11 16/16/16 17/17/17
f 11/11/11 17/17/17 12/12/12
f 12/12/12 17/17/17 13/13/13
f 13/13/13 17/17/17 18/18/18
f 14/14/14 19/19/19 15/15/15
f 15/15/15 19/19/19 20/20/20
f 15/15/15 20/20/20 21/21/21
f 15/15/15 21/21/21 16/16/16
f 16/16/16 21/21/21 17/17/17
f 17/17/17 21/21/21 22/22/22
f 17/17/17 22/22/22 23/23/23
f 17/17/17 23/23/23 18/18/18
f 19/19/19 24/24/24 25/25/25
f 19/19/19 25/25/25 20/20/20
f 20/20/20 25/25/25 21/21/21
f 21/21/21 25/25/25 26/26/26
f 21/21/21 26/26/26 27/27/27
f 21/21/21 27/27/27 22/22/22
f 22/22/22 27/27/27 23/23/23
f 24/24/24 28/28/28 25/25/25
f 25/25/25 28/28/28 29/29/29
f 25/25/25 29/29/29 30/30/30
f 25/25/25 30/30/30 26/26/26
f 26/26/26 30/30/30 27/27/27
f 27/27/27 30/30/30 31/31/31
f 28/28/28 32/32/32 33/33/33
f 28/28/28 33/33/33 29/29/29
f 29/29/29 33/33/33 30/30/30
f 30/30/30 33/33/33 34/34/34
f 30/30/30 34/34/34 35/35/35
f 30/30/30 35/35/35 31/31/31
f 32/32/32 36/36/36 33/33/33
f 33/33/33 36/36/36 37/37/37
f 33/33/33 37/37/37 38/38/38
f 33/33/33 38/38/38 34/34/34
f 34/34/34 38/38/38 35/35/35
f 35/35/35 38/38/38 39/39/39
