# Generated by tools/generate_island.py. Do not edit by hand.
o terrain_lod2_1_-3

v 64.000 -4.482 -192.000 0.433 0.400 0.231
v 64.000 -3.740 -184.000 0.430 0.398 0.230
v 72.000 -4.321 -184.000 0.445 0.413 0.239
v 72.000 -5.121 -192.000 0.429 0.397 0.229
v 80.000 -6.365 -192.000 0.425 0.392 0.226
v 80.000 -5.380 -184.000 0.421 0.388 0.223
v 88.000 -6.470 -184.000 0.396 0.363 0.207
v 88.000 -7.167 -192.000 0.422 0.389 0.224
v 96.000 -8.000 -192.000 0.429 0.396 0.229
v 96.000 -7.156 -184.000 0.397 0.364 0.208
v 104.000 -8.000 -184.000 0.416 0.383 0.220
v 104.000 -8.000 -192.000 0.443 0.410 0.238
v 112.000 -8.000 -192.000 0.432 0.400 0.231
v 112.000 -8.000 -184.000 0.404 0.370 0.212
v 120.000 -8.000 -184.000 0.392 0.359 0.205
v 120.000 -8.000 -192.000 0.412 0.378 0.217
v 128.000 -8.000 -192.000 0.410 0.377 0.216
v 128.000 -8.000 -184.000 0.401 0.368 0.211
v 64.000 -3.069 -176.000 0.415 0.382 0.219
v 72.000 -4.007 -176.000 0.428 0.395 0.228
v 80.000 -4.700 -176.000 0.433 0.400 0.231
v 88.000 -5.739 -176.000 0.418 0.385 0.222
v 96.000 -6.130 -176.000 0.402 0.369 0.211
v 104.000 -6.749 -176.000 0.402 0.368 0.211
v 112.000 -7.763 -176.000 0.401 0.368 0.210
v 120.000 -8.000 -176.000 0.408 0.375 0.215
v 128.000 -8.000 -176.000 0.387 0.353 0.201
v 64.000 -2.597 -168.000 0.437 0.404 0.234
v 72.000 -3.441 -168.000 0.419 0.386 0.222
v 80.000 -3.943 -168.000 0.405 0.372 0.213
v 88.000 -4.436 -168.000 0.434 0.401 0.232
v 96.000 -5.087 -168.000 0.444 0.411 0.238
v 104.000 -5.433 -168.000 0.451 0.419 0.243
v 112.000 -6.704 -168.000 0.438 0.406 0.235
v 120.000 -7.793 -168.000 0.412 0.379 0.217
v 128.000 -8.000 -168.000 0.408 0.375 0.215
v 64.000 -2.097 -160.000 0.432 0.400 0.231
v 72.000 -2.631 -160.000 0.412 0.379 0.218
v 80.000 -3.332 -160.000 0.423 0.390 0.224
v 88.000 -3.495 -160.000 0.452 0.420 0.244
v 96.000 -4.151 -160.000 0.456 0.424 0.246
v 104.000 -4.911 -160.000 0.471 0.439 0.256
v 112.000 -5.749 -160.000 0.461 0.429 0.250
v 120.000 -6.981 -160.000 0.433 0.401 0.232
v 128.000 -7.556 -160.000 0.427 0.395 0.228
v 64.000 -2.067 -152.000 0.389 0.355 0.202
v 72.000 -2.351 -152.000 0.422 0.389 0.224
v 80.000 -2.713 -152.000 0.435 0.402 0.232
v 88.000 -2.978 -152.000 0.430 0.398 0.229
v 96.000 -3.274 -152.000 0.442 0.409 0.237
v 104.000 -4.294 -152.000 0.452 0.420 0.244
v 112.000 -4.951 -152.000 0.461 0.429 0.250
v 120.000 -5.863 -152.000 0.444 0.412 0.239
v 128.000 -6.531 -152.000 0.444 0.412 0.238
v 64.000 -1.955 -144.000 0.373 0.339 0.192
v 72.000 -2.080 -144.000 0.384 0.350 0.199
v 80.000 -1.918 -144.000 0.393 0.360 0.205
v 88.000 -2.402 -144.000 0.402 0.369 0.211
v 96.000 -2.780 -144.000 0.398 0.364 0.208
v 104.000 -3.639 -144.000 0.407 0.374 0.214
v 112.000 -4.585 -144.000 0.425 0.393 0.226
v 120.000 -5.030 -144.000 0.445 0.413 0.239
v 128.000 -5.709 -144.000 0.431 0.398 0.230
v 64.000 -1.384 -136.000 0.361 0.326 0.184
v 72.000 -1.704 -136.000 0.361 0.326 0.184
v 80.000 -1.537 -136.000 0.361 0.326 0.184
v 88.000 -1.883 -136.000 0.361 0.326 0.184
v 96.000 -2.680 -136.000 0.367 0.333 0.188
v 104.000 -3.171 -136.000 0.376 0.341 0.194
v 112.000 -4.072 -136.000 0.408 0.374 0.214
v 120.000 -4.249 -136.000 0.425 0.392 0.226
v 128.000 -4.578 -136.000 0.421 0.388 0.224
v 64.000 -1.569 -128.000 0.361 0.326 0.184
v 72.000 -1.433 -128.000 0.361 0.326 0.184
v 80.000 -1.606 -128.000 0.371 0.336 0.190
v 88.000 -1.451 -128.000 0.371 0.337 0.191
v 96.000 -2.176 -128.000 0.361 0.326 0.184
v 104.000 -2.621 -128.000 0.361 0.326 0.184
v 112.000 -2.952 -128.000 0.364 0.329 0.186
v 120.000 -3.532 -128.000 0.401 0.367 0.210
v 128.000 -3.726 -128.000 0.425 0.392 0.226

vt 0.600000 0.800000
vt 0.600000 0.787500
vt 0.612500 0.787500
vt 0.612500 0.800000
vt 0.625000 0.800000
vt 0.625000 0.787500
vt 0.637500 0.787500
vt 0.637500 0.800000
vt 0.650000 0.800000
vt 0.650000 0.787500
vt 0.662500 0.787500
vt 0.662500 0.800000
vt 0.675000 0.800000
vt 0.675000 0.787500
vt 0.687500 0.787500
vt 0.687500 0.800000
vt 0.700000 0.800000
vt 0.700000 0.787500
vt 0.600000 0.775000
vt 0.612500 0.775000
vt 0.625000 0.775000
vt 0.637500 0.775000
vt 0.650000 0.775000
vt 0.662500 0.775000
vt 0.675000 0.775000
vt 0.687500 0.775000
vt 0.700000 0.775000
vt 0.600000 0.762500
vt 0.612500 0.762500
vt 0.625000 0.762500
vt 0.637500 0.762500
vt 0.650000 0.762500
vt 0.662500 0.762500
vt 0.675000 0.762500
vt 0.687500 0.762500
vt 0.700000 0.762500
vt 0.600000 0.750000
vt 0.612500 0.750000
vt 0.625000 0.750000
vt 0.637500 0.750000
vt 0.650000 0.750000
vt 0.662500 0.750000
vt 0.675000 0.750000
vt 0.687500 0.750000
vt 0.700000 0.750000
vt 0.600000 0.737500
vt 0.612500 0.737500
vt 0.625000 0.737500
vt 0.637500 0.737500
vt 0.650000 0.737500
vt 0.662500 0.737500
vt 0.675000 0.737500
vt 0.687500 0.737500
vt 0.700000 0.737500
vt 0.600000 0.725000
vt 0.612500 0.725000
vt 0.625000 0.725000
vt 0.637500 0.725000
vt 0.650000 0.725000
vt 0.662500 0.725000
vt 0.675000 0.725000
vt 0.687500 0.725000
vt 0.700000 0.725000
vt 0.600000 0.712500
vt 0.612500 0.712500
vt 0.625000 0.712500
vt 0.637500 0.712500
vt 0.650000 0.712500
vt 0.662500 0.712500
vt 0.675000 0.712500
vt 0.687500 0.712500
vt 0.700000 0.712500
vt 0.600000 0.700000
vt 0.612500 0.700000
vt 0.625000 0.700000
vt 0.637500 0.700000
vt 0.650000 0.700000
vt 0.662500 0.700000
vt 0.675000 0.700000
vt 0.687500 0.700000
vt 0.700000 0.700000

vn 0.07566 0.99253 -0.09567
vn 0.07212 0.99353 -0.08773
vn 0.10522 0.99105 -0.08217
vn 0.11634 0.98828 -0.09886
vn 0.12927 0.98584 -0.10684
vn 0.13247 0.98586 -0.10259
vn 0.10235 0.98983 -0.09885
vn 0.10125 0.99111 -0.08632
vn 0.07342 0.99455 -0.07409
vn 0.09452 0.98879 -0.11554
vn 0.05167 0.99608 -0.07173
vn 0.00000 1.00000 0.00000
vn 0.00000 1.00000 0.00000
vn 0.00000 0.99989 -0.01480
vn 0.00370 0.99999 -0.00370
vn 0.00000 1.00000 0.00000
vn 0.00000 1.00000 0.00000
vn 0.00000 1.00000 0.00000
vn 0.10235 0.99277 -0.06275
vn 0.10128 0.99336 -0.05464
vn 0.10231 0.99071 -0.08962
vn 0.08831 0.98813 -0.12566
vn 0.07022 0.98836 -0.13498
vn 0.10025 0.98240 -0.15760
vn 0.07549 0.99366 -0.08332
vn 0.01480 0.99981 -0.01293
vn 0.00647 0.99996 -0.00647
vn 0.10465 0.99268 -0.06032
vn 0.08624 0.99314 -0.07901
vn 0.06185 0.99445 -0.08506
vn 0.07020 0.99014 -0.12121
vn 0.06175 0.99054 -0.12253
vn 0.09978 0.98794 -0.11839
vn 0.14479 0.98171 -0.12360
vn 0.07209 0.99495 -0.06990
vn 0.02584 0.99928 -0.02770
vn 0.06837 0.99638 -0.05045
vn 0.07679 0.99474 -0.06777
vn 0.05214 0.99560 -0.07789
vn 0.05093 0.99459 -0.09059
vn 0.07974 0.99214 -0.09645
vn 0.09910 0.99256 -0.07067
vn 0.12444 0.98703 -0.10139
vn 0.11148 0.98661 -0.11904
vn 0.06284 0.99244 -0.10543
vn 0.03542 0.99933 -0.00887
vn 0.03885 0.99838 -0.04147
vn 0.03906 0.99536 -0.08794
vn 0.04363 0.99605 -0.07738
vn 0.08165 0.99302 -0.08512
vn 0.10467 0.99139 -0.07866
vn 0.09731 0.99263 -0.07221
vn 0.09421 0.98980 -0.10691
vn 0.08271 0.99000 -0.11430
vn 0.02663 0.99878 -0.04152
vn -0.00228 0.99918 -0.04040
vn 0.02262 0.99770 -0.06384
vn 0.05364 0.99623 -0.06823
vn 0.07900 0.99547 -0.05298
vn 0.11184 0.99129 -0.06956
vn 0.08429 0.99399 -0.06981
vn 0.06975 0.99253 -0.10012
vn 0.07297 0.99120 -0.11048
vn 0.03992 0.99891 -0.02406
vn 0.00477 0.99950 -0.03110
vn 0.01118 0.99975 -0.01953
vn 0.05796 0.99735 -0.04393
vn 0.08023 0.99607 -0.03757
vn 0.08334 0.99431 -0.06638
vn 0.06684 0.99261 -0.10129
vn 0.04518 0.99369 -0.10266
vn 0.04083 0.99158 -0.12291
vn 0.01146 0.99992 -0.00531
vn 0.00227 0.99943 -0.03380
vn 0.00614 0.99983 -0.01765
vn 0.03559 0.99791 -0.05389
vn 0.07648 0.99515 -0.06190
vn 0.04832 0.99648 -0.06853
vn 0.06165 0.99216 -0.10874
vn 0.04812 0.99486 -0.08910
vn 0.03253 0.99470 -0.09752

f 1/1/1 2/2/2 3/3/3
f 1/1/1 3/3/3 4/4/4
f 4/4/4 3/3/3 5/5/5
f 5/5/5 3/3/3 6/6/6
f 5/5/5 6/6/6 7/7/7
f 5/5/5 7/7/7 8/8/8
f 8/8/8 7/7/7 9/9/9
f 9/9/9 7/7/7 10/10/10
f 9/9/9 10/10/10 11/11/11
f 9/9/9 11/11/11 12/12/12
f 12/12/12 11/11/11 13/13/13
f 13/13/13 11/11/11 14/14/14
f 13/13/13 14/14/14 15/15/15
f 13/13/13 15/15/15 16/16/16
f 16/16/16 15/15/15 17/17/17
f 17/17/17 15/15/15 18/18/18
f 2/2/2 19/19/19 3/3/3
f 3/3/3 19/19/19 20/20/20
f 3/3/3 20/20/20 21/21/21
f 3/3/3 21/21/21 6/6/6
f 6/6/6 21/21/21 7/7/7
f 7/7/7 21/21/21 22/22/22
f 7/7/7 22/22/22 23/23/23
f 7/7/7 23/23/23 10/10/10
f 10/10/10 23/23/23 11/11/11
f 11/11/11 23/23/23 24/24/24
f 11/11/11 24/24/24 25/25/25
f 11/11/11 25/25/25 14/14/14
f 14/14/14 25/25/25 15/15/15
f 15/15/15 25/25/25 26/26/26
f 15/15/15 26/26/26 27/27/27
f 15/15/15 27/27/27 18/18/18
f 19/19/19 28/28/28 29/29/29
f 19/19/19 29/29/29 20/20/20
f 20/20/20 29/29/29 21/21/21
f 21/21/21 29/29/29 30/30/30
f 21/21/21 30/30/30 31/31/31
f 21/21/21 31/31/31 22/22/22
f 22/22/22 31/31/31 23/23/23
f 23/23/23 31/31/31 32/32/32
f 23/23/23 32/32/32 33/33/33
f 23/23/23 33/33/33 24/24/24
f 24/24/24 33/33/33 25/25/25
f 25/25/25 33/33/33 34/34/34
f 25/25/25 34/34/34 35/35/35
f 25/25/25 35/35/35 26/26/26
f 26/26/26 35/35/35 27/27/27
f 27/27/27 35/35/35 36/36/36
f 28/28/28 37/37/37 29/29/29
f 29/29/29 37/37/37 38/38/38
f 29/29/29 38/38/38 39/39/39
f 29/29/29 39/39/39 30/30/30
f 30/30/30 39/39/39 31/31/31
f 31/31/31 39/39/39 40/40/40
f 31/31/31 40/40/40 41/41/41
f 31/31/31 41/41/41 32/32/32
f 32/32/32 41/41/41 33/33/33
f 33/33/33 41/41/41 42/42/42
f 33/33/33 42/42/42 43/43/43
f 33/33/33 43/43/43 34/34/34
f 34/34/34 43/43/43 35/35/35
f 35/35/35 43/43/43 44/44/44
f 35/35/35 44/44/44 45/45/45
f 35/35/35 45/45/45 36/36/36
f 37/37/37 46/46/46 47/47/47
f 37/37/37 47/47/47 38/38/38
f 38/38/38 47/47/47 39/39/39
f 39/39/39 47/47/47 48/48/48
f 39/39/39 48/48/48 49/49/49
f 39/39/39 49/49/49 40/40/40
f 40/40/40 49/49/49 41/41/41
f 41/41/41 49/49/49 50/50/50
f 41/41/41 50/50/50 51/51/51
f 41/41/41 51/51/51 42/42/42
f 42/42/42 51/51/51 43/43/43
f 43/43/43 51/51/51 52/52/52
f 43/43/43 52/52/52 53/53/53
f 43/43/43 53/53/53 44/44/44
f 44/44/44 53/53/53 45/45/45
f 45/45/45 53/53/53 54/54/54
f 46/46/46 55/55/55 47/47/47
f 47/47/47 55/55/55 56/56/56
f 47/47/47 56/56/56 57/57/57
f 47/47/47 57/57/57 48/48/48
f 48/48/48 57/57/57 49/49/49
f 49/49/49 57/57/57 58/58/58
f 49/49/49 58/58/58 59/59/59
f 49/49/49 59/59/59 50/50/50
f 50/50/50 59/59/59 51/51/51
f 51/51/51 59/59/59 60/60/60
f 51/51/51 60/60/60 61/61/61
f 51/51/51 61/61/61 52/52/52
f 52/52/52 61/61/61 53/53/53
f 53/53/53 61/61/61 62/62/62
f 53/53/53 62/62/62 63/63/63
f 53/53/53 63/63/63 54/54/54
f 55/55/55 64/64/64 65/65/65
f 55/55/55 65/65/65 56/56/56
f 56/56/56 65/65/65 57/57/57
f 57/57/57 65/65/65 66/66/66
f 57/57/57 66/66/66 67/67/67
f 57/57/57 67/67/67 58/58/58
f 58/58/58 67/67/67 59/59/59
f 59/59/59 67/67/67 68/68/68
f 59/59/59 68/68/68 69/69/69
f 59/59/59 69/69/69 60/60/60
f 60/60/60 69/69/69 61/61/61
f 61/61/61 69/69/69 70/70/70
f 61/61/61 70/70/70 71/71/71
f 61/61/61 71/71/71 62/62/62
f 62/62/62 71/71/71 63/63/63
f 63/63/63 71/71/71 72/72/72
f 64/64/64 73/73/73 65/65/65
f 65/65/65 73/73/73 74/74/74
f 65/65/65 74/74/74 75/75/75
f 65/65/65 75/75/75 66/66/66
f 66/66/66 75/75/75 67/67/67
f 67/67/67 75/75/75 76/76/76
f 67/67/67 76/76/76 77/77/77
f 67/67/67 77/77/77 68/68/68
f 68/68/68 77/77/77 69/69/69
f 69/69/69 77/77/77 78/78/78
f 69/69/69 78/78/78 79/79/79
f 69/69/69 79/79/79 70/70/70
f 70/70/70 79/79/79 71/71/71
f 71/71/71 79/79/79 80/80/80
f 71/71/71 80/80/80 81/81/81
f 71/71/71 81/81/81 72/72/72
