# Generated by tools/generate_island.py. Do not edit by hand.
o terrain_lod2_0_1

v 0.000 2.334 64.000 0.296 0.359 0.135
v 0.000 0.712 72.000 0.567 0.539 0.320
v 8.000 1.589 72.000 0.279 0.346 0.130
v 8.000 2.618 64.000 0.296 0.359 0.135
v 16.000 2.800 64.000 0.286 0.351 0.132
v 16.000 1.757 72.000 0.265 0.335 0.125
v 24.000 2.134 72.000 0.275 0.343 0.128
v 24.000 2.693 64.000 0.290 0.354 0.133
v 32.000 1.916 64.000 0.282 0.348 0.131
v 32.000 1.695 72.000 0.285 0.350 0.132
v 40.000 1.476 72.000 0.288 0.353 0.133
v 40.000 1.485 64.000 0.285 0.351 0.132
v 48.000 1.287 64.000 0.189 0.343 0.174
v 48.000 1.509 72.000 0.190 0.344 0.175
v 56.000 1.263 72.000 0.185 0.337 0.172
v 56.000 0.296 64.000 0.536 0.506 0.299
v 64.000 0.619 64.000 0.499 0.469 0.275
v 64.000 0.634 72.000 0.514 0.484 0.285
v 0.000 0.318 80.000 0.548 0.519 0.307
v 8.000 0.713 80.000 0.535 0.505 0.298
v 16.000 1.298 80.000 0.265 0.335 0.125
v 24.000 1.778 80.000 0.270 0.339 0.127
v 32.000 3.020 80.000 0.291 0.355 0.134
v 40.000 3.397 80.000 0.282 0.348 0.131
v 48.000 4.470 80.000 0.192 0.346 0.176
v 56.000 2.811 80.000 0.191 0.344 0.175
v 64.000 1.616 80.000 0.554 0.525 0.311
v 0.000 -0.112 88.000 0.512 0.482 0.283
v 8.000 0.097 88.000 0.514 0.484 0.285
v 16.000 0.707 88.000 0.516 0.486 0.286
v 24.000 0.943 88.000 0.532 0.503 0.297
v 32.000 2.144 88.000 0.549 0.520 0.308
v 40.000 3.302 88.000 0.568 0.539 0.320
v 48.000 3.232 88.000 0.566 0.537 0.319
v 56.000 2.688 88.000 0.565 0.536 0.318
v 64.000 0.996 88.000 0.549 0.520 0.308
v 0.000 -0.664 96.000 0.491 0.460 0.269
v 8.000 -0.572 96.000 0.511 0.481 0.283
v 16.000 -0.422 96.000 0.508 0.478 0.281
v 24.000 -0.296 96.000 0.518 0.488 0.288
v 32.000 -0.353 96.000 0.546 0.517 0.306
v 40.000 -0.004 96.000 0.570 0.541 0.321
v 48.000 -0.230 96.000 0.566 0.537 0.319
v 56.000 -0.417 96.000 0.559 0.530 0.314
v 64.000 -0.389 96.000 0.539 0.510 0.301
v 0.000 -1.741 104.000 0.466 0.434 0.253
v 8.000 -1.565 104.000 0.493 0.462 0.271
v 16.000 -1.672 104.000 0.504 0.474 0.278
v 24.000 -1.429 104.000 0.528 0.498 0.294
v 32.000 -1.278 104.000 0.530 0.500 0.295
v 40.000 -1.214 104.000 0.551 0.522 0.309
v 48.000 -1.035 104.000 0.554 0.525 0.311
v 56.000 -1.479 104.000 0.560 0.531 0.315
v 64.000 -1.797 104.000 0.567 0.538 0.319
v 0.000 -2.947 112.000 0.453 0.421 0.245
v 8.000 -2.841 112.000 0.478 0.446 0.261
v 16.000 -2.615 112.000 0.491 0.460 0.269
v 24.000 -2.719 112.000 0.526 0.496 0.293
v 32.000 -2.211 112.000 0.532 0.502 0.296
v 40.000 -2.315 112.000 0.529 0.500 0.295
v 48.000 -2.410 112.000 0.554 0.525 0.311
v 56.000 -2.709 112.000 0.567 0.538 0.319
v 64.000 -3.409 112.000 0.575 0.547 0.325
v 0.000 -4.837 120.000 0.508 0.477 0.280
v 8.000 -4.959 120.000 0.508 0.478 0.281
v 16.000 -4.383 120.000 0.507 0.476 0.280
v 24.000 -4.153 120.000 0.513 0.483 0.284
v 32.000 -3.736 120.000 0.515 0.484 0.285
v 40.000 -3.348 120.000 0.533 0.503 0.297
v 48.000 -3.822 120.000 0.539 0.510 0.301
v 56.000 -4.114 120.000 0.557 0.528 0.313
v 64.000 -4.766 120.000 0.554 0.525 0.311
v 0.000 -7.674 128.000 0.504 0.473 0.278
v 8.000 -7.476 128.000 0.511 0.481 0.283
v 16.000 -6.694 128.000 0.526 0.496 0.293
v 24.000 -5.563 128.000 0.536 0.506 0.299
v 32.000 -5.141 128.000 0.528 0.498 0.294
v 40.000 -4.720 128.000 0.526 0.496 0.292
v 48.000 -5.342 128.000 0.530 0.501 0.295
v 56.000 -6.193 128.000 0.550 0.521 0.309
v 64.000 -6.575 128.000 0.543 0.514 0.304

vt 0.500000 0.366667
vt 0.500000 0.350000
vt 0.516667 0.350000
vt 0.516667 0.366667
vt 0.533333 0.366667
vt 0.533333 0.350000
vt 0.550000 0.350000
vt 0.550000 0.366667
vt 0.566667 0.366667
vt 0.566667 0.350000
vt 0.583333 0.350000
vt 0.583333 0.366667
vt 0.600000 0.366667
vt 0.600000 0.350000
vt 0.616667 0.350000
vt 0.616667 0.366667
vt 0.633333 0.366667
vt 0.633333 0.350000
vt 0.500000 0.333333
vt 0.516667 0.333333
vt 0.533333 0.333333
vt 0.550000 0.333333
vt 0.566667 0.333333
vt 0.583333 0.333333
vt 0.600000 0.333333
vt 0.616667 0.333333
vt 0.633333 0.333333
vt 0.500000 0.316667
vt 0.516667 0.316667
vt 0.533333 0.316667
vt 0.550000 0.316667
vt 0.566667 0.316667
vt 0.583333 0.316667
vt 0.600000 0.316667
vt 0.616667 0.316667
vt 0.633333 0.316667
vt 0.500000 0.300000
vt 0.516667 0.300000
vt 0.533333 0.300000
vt 0.550000 0.300000
vt 0.566667 0.300000
vt 0.583333 0.300000
vt 0.600000 0.300000
vt 0.616667 0.300000
vt 0.633333 0.300000
vt 0.500000 0.283333
vt 0.516667 0.283333
vt 0.533333 0.283333
vt 0.550000 0.283333
vt 0.566667 0.283333
vt 0.583333 0.283333
vt 0.600000 0.283333
vt 0.616667 0.283333
vt 0.633333 0.283333
vt 0.500000 0.266667
vt 0.516667 0.266667
vt 0.533333 0.266667
vt 0.550000 0.266667
vt 0.566667 0.266667
vt 0.583333 0.266667
vt 0.600000 0.266667
vt 0.616667 0.266667
vt 0.633333 0.266667
vt 0.500000 0.250000
vt 0.516667 0.250000
vt 0.533333 0.250000
vt 0.550000 0.250000
vt 0.566667 0.250000
vt 0.583333 0.250000
vt 0.600000 0.250000
vt 0.616667 0.250000
vt 0.633333 0.250000
vt 0.500000 0.233333
vt 0.516667 0.233333
vt 0.533333 0.233333
vt 0.550000 0.233333
vt 0.566667 0.233333
vt 0.583333 0.233333
vt 0.600000 0.233333
vt 0.616667 0.233333
vt 0.633333 0.233333

vn -0.07149 0.98403 0.16303
vn -0.10822 0.98633 0.12426
vn -0.05483 0.99201 0.11360
vn -0.02891 0.99142 0.12750
vn -0.01921 0.99329 0.11403
vn -0.03385 0.99505 0.09344
vn -0.01114 0.99933 0.03481
vn 0.05502 0.99606 0.06961
vn 0.05817 0.99781 0.03155
vn 0.04099 0.99679 -0.06874
vn -0.00695 0.99204 -0.12570
vn 0.03932 0.99923 0.00119
vn 0.04372 0.99809 -0.04372
vn 0.01303 0.98070 -0.19509
vn 0.08126 0.98653 -0.14195
vn 0.04141 0.99192 -0.11989
vn 0.01914 0.99794 -0.06124
vn 0.07828 0.99500 -0.06203
vn -0.05840 0.99569 0.07206
vn -0.06086 0.99383 0.09269
vn -0.05477 0.99572 0.07440
vn -0.10672 0.99155 0.07376
vn -0.07692 0.99675 -0.02390
vn -0.08967 0.98954 -0.11297
vn 0.03105 0.99409 -0.10405
vn 0.17490 0.98070 -0.08735
vn 0.14542 0.98783 -0.05516
vn -0.02606 0.99778 0.06123
vn -0.04450 0.99564 0.08201
vn -0.05253 0.99290 0.10673
vn -0.07194 0.98717 0.14254
vn -0.14278 0.96847 0.20416
vn -0.05698 0.97246 0.22600
vn 0.03680 0.95881 0.28165
vn 0.11383 0.97314 0.20011
vn 0.20548 0.97106 0.12172
vn -0.01768 0.99460 0.10229
vn -0.01502 0.99454 0.10330
vn -0.02374 0.99041 0.13609
vn -0.00427 0.98917 0.14669
vn -0.04822 0.97661 0.20956
vn -0.00738 0.96237 0.27164
vn 0.02574 0.96534 0.25973
vn 0.00961 0.96767 0.25205
vn 0.05959 0.97542 0.21215
vn -0.02181 0.98974 0.14124
vn -0.01100 0.99017 0.13945
vn -0.00840 0.99070 0.13580
vn -0.01953 0.99029 0.13765
vn -0.01337 0.99324 0.11530
vn -0.00633 0.99095 0.13408
vn 0.01644 0.99072 0.13495
vn 0.04137 0.98767 0.15097
vn 0.03899 0.98190 0.18532
vn -0.00819 0.98002 0.19875
vn -0.02028 0.97803 0.20747
vn -0.01821 0.98397 0.17741
vn -0.02494 0.98551 0.16779
vn -0.02825 0.98815 0.15089
vn 0.01235 0.99115 0.13218
vn 0.02806 0.98681 0.15945
vn 0.06149 0.98484 0.16219
vn 0.07275 0.98240 0.17204
vn 0.01462 0.95893 0.28328
vn -0.03337 0.96182 0.27163
vn -0.04873 0.96787 0.24669
vn -0.04977 0.97966 0.19437
vn -0.04948 0.98243 0.17996
vn 0.00883 0.98634 0.16449
vn 0.04708 0.98253 0.18008
vn 0.06295 0.97785 0.19964
vn 0.07966 0.97786 0.19350
vn -0.00453 0.94831 0.31730
vn -0.05834 0.95229 0.29956
vn -0.08177 0.96289 0.25722
vn -0.09511 0.98036 0.17279
vn -0.05070 0.98380 0.17197
vn 0.01238 0.98553 0.16906
vn 0.06842 0.97774 0.19836
vn 0.07436 0.96519 0.25077
vn 0.06268 0.96982 0.23565

f 1/1/1 2/2/2 3/3/3
f 1/1/1 3/3/3 4/4/4
f 4/4/4 3/3/3 5/5/5
f 5/5/5 3/3/3 6/6/6
f 5/5/5 6/6/6 7/7/7
f 5/5/5 7/7/7 8/8/8
f 8/8/8 7/7/7 9/9/9
f 9/9/9 7/7/7 10/10/10
f 9/9/9 10/10/10 11/11/11
f 9/9/9 11/11/11 12/12/12
f 12/12/12 11/11/11 13/13/13
f 13/13/13 11/11/11 14/14/14
f 13/13/13 14/14/14 15/15/15
f 13/13/13 15/15/15 16/16/16
f 16/16/16 15/15/15 17/17/17
f 17/17/17 15/15/15 18/18/18
f 2/2/2 19/19/19 3/3/3
f 3/3/3 19/19/19 20/20/20
f 3/3/3 20/20/20 21/21/21
f 3/3/3 21/21/21 6/6/6
f 6/6/6 21/21/21 7/7/7
f 7/7/7 21/21/21 22/22/22
f 7/7/7 22/22/22 23/23/23
f 7/7/7 23/23/23 10/10/10
f 10/10/10 23/23/23 11/11/11
f 11/11/11 23/23/23 24/24/24
f 11/11/11 24/24/24 25/25/25
f 11/11/11 25/25/25 14/14/14
f 14/14/14 25/25/25 15/15/15
f 15/15/15 25/25/25 26/26/26
f 15/15/15 26/26/26 27/27/27
f 15/15/15 27/27/27 18/18/18
f 19/19/19 28/28/28 29/29/29
f 19/19/19 29/29/29 20/20/20
f 20/20/20 29/29/29 21/21/21
f 21/21/21 29/29/29 30/30/30
f 21/21/21 30/30/30 31/31/31
f 21/21/21 31/31/31 22/22/22
f 22/22/22 31/31/31 23/23/23
f 23/23/23 31/31/31 32/32/32
f 23/23/23 32/32/32 33/33/33
f 23/23/23 33/33/33 24/24/24
f 24/24/24 33/33/33 25/25/25
f 25/25/25 33/33/33 34/34/34
f 25/25/25 34/34/34 35/35/35
f 25/25/25 35/35/35 26/26/26
f 26/26/26 35/35/35 27/27/27
f 27/27/27 35/35/35 36/36/36
f 28/28/28 37/37/37 29/29/29
f 29/29/29 37/37/37 38/38/38
f 29/29/29 38/38/38 39/39/39
f 29/29/29 39/39/39 30/30/30
f 30/30/30 39/39/39 31/31/31
f 31/31/31 39/39/39 40/40/40
f 31/31/31 40/40/40 41/41/41
f 31/31/31 41/41/41 32/32/32
f 32/32/32 41/41/41 33/33/33
f 33/33/33 41/41/41 42/42/42
f 33/33/33 42/42/42 43/43/43
f 33/33/33 43/43/43 34/34/34
f 34/34/34 43/43/43 35/35/35
f 35/35/35 43/43/43 44/44/44
f 35/35/35 44/44/44 45/45/45
f 35/35/35 45/45/45 36/36/36
f 37/37/37 46/46/46 47/47/47
f 37/37/37 47/47/47 38/38/38
f 38/38/38 47/47/47 39/39/39
f 39/39/39 47/47/47 48/48/48
f 39/39/39 48/48/48 49/49/49
f 39/39/39 49/49/49 40/40/40
f 40/40/40 49/49/49 41/41/41
f 41/41/41 49/49/49 50/50/50
f 41/41/41 50/50/50 51/51/51
f 41/41/41 51/51/51 42/42/42
f 42/42/42 51/51/51 43/43/43
f 43/43/43 51/51/51 52/52/52
f 43/43/43 52/52/52 53/53/53
f 43/43/43 53/53/53 44/44/44
f 44/44/44 53/53/53 45/45/45
f 45/45/45 53/53/53 54/54/54
f 46/46/46 55/55/55 47/47/47
f 47/47/47 55/55/55 56/56/56
f 47/47/47 56/56/56 57/57/57
f 47/47/47 57/57/57 48/48/48
f 48/48/48 57/57/57 49/49/49
f 49/49/49 57/57/57 58/58/58
f 49/49/49 58/58/58 59/59/59
f 49/49/49 59/59/59 50/50/50
f 50/50/50 59/59/59 51/51/51
f 51/51/51 59/59/59 60/60/60
f 51/51/51 60/60/60 61/61/61
f 51/51/51 61/61/61 52/52/52
f 52/52/52 61/61/61 53/53/53
f 53/53/53 61/61/61 62/62/62
f 53/53/53 62/62/62 63/63/63
f 53/53/53 63/63/63 54/54/54
f 55/55/55 64/64/64 65/65/65
f 55/55/55 65/65/65 56/56/56
f 56/56/56 65/65/65 57/57/57
f 57/57/57 65/65/65 66/66/66
f 57/57/57 66/66/66 67/67/67
f 57/57/57 67/67/67 58/58/58
f 58/58/58 67/67/67 59/59/59
f 59/59/59 67/67/67 68/68/68
f 59/59/59 68/68/68 69/69/69
f 59/59/59 69/69/69 60/60/60
f 60/60/60 69/69/69 61/61/61
f 61/61/61 69/69/69 70/70/70
f 61/61/61 70/70/70 71/71/71
f 61/61/61 71/71/71 62/62/62
f 62/62/62 71/71/71 63/63/63
f 63/63/63 71/71/71 72/72/72
f 64/64/64 73/73/73 65/65/65
f 65/65/65 73/73/73 74/74/74
f 65/65/65 74/74/74 75/75/75
f 65/65/65 75/75/75 66/66/66
f 66/66/66 75/75/75 67/67/67
f 67/67/67 75/75/75 76/76/76
f 67/67/67 76/76/76 77/77/77
f 67/67/67 77/77/77 68/68/68
f 68/68/68 77/77/77 69/69/69
f 69/69/69 77/77/77 78/78/78
f 69/69/69 78/78/78 79/79/79
f 69/69/69 79/79/79 70/70/70
f 70/70/70 79/79/79 71/71/71
f 71/71/71 79/79/79 80/80/80
f 71/71/71 80/80/80 81/81/81
f 71/71/71 81/81/81 72/72/72
