# Generated by tools/generate_island.py. Do not edit by hand.
o terrain_lod2_-2_-1

v -256.000 0.644 -128.000 0.486 0.455 0.266
v -256.000 0.937 -112.000 0.271 0.340 0.127
v -240.000 1.658 -112.000 0.302 0.364 0.137
v -240.000 0.711 -128.000 0.553 0.524 0.310
v -224.000 2.550 -128.000 0.253 0.326 0.121
v -224.000 2.710 -112.000 0.284 0.349 0.131
v -208.000 2.690 -112.000 0.242 0.317 0.117
v -208.000 2.280 -128.000 0.270 0.339 0.127
v -192.000 2.348 -128.000 0.209 0.291 0.106
v -192.000 1.534 -112.000 0.174 0.264 0.095
v -176.000 1.674 -112.000 0.199 0.284 0.103
v -176.000 1.800 -128.000 0.218 0.298 0.109
v -160.000 1.811 -128.000 0.228 0.306 0.113
v -160.000 2.107 -112.000 0.193 0.279 0.101
v -144.000 1.779 -112.000 0.213 0.294 0.108
v -144.000 0.983 -128.000 0.259 0.330 0.123
v -128.000 1.968 -128.000 0.205 0.288 0.105
v -128.000 2.636 -112.000 0.224 0.303 0.111
v -256.000 1.711 -96.000 0.272 0.340 0.127
v -240.000 2.222 -96.000 0.287 0.352 0.132
v -224.000 2.166 -96.000 0.263 0.334 0.124
v -208.000 0.967 -96.000 0.227 0.306 0.112
v -192.000 2.028 -96.000 0.193 0.279 0.101
v -176.000 2.151 -96.000 0.197 0.282 0.102
v -160.000 1.863 -96.000 0.205 0.289 0.105
v -144.000 2.200 -96.000 0.208 0.291 0.106
v -128.000 4.091 -96.000 0.274 0.342 0.128
v -256.000 1.501 -80.000 0.238 0.314 0.116
v -240.000 1.722 -80.000 0.225 0.304 0.112
v -224.000 1.248 -80.000 0.213 0.295 0.108
v -208.000 0.494 -80.000 0.520 0.490 0.288
v -192.000 2.526 -80.000 0.246 0.320 0.119
v -176.000 2.538 -80.000 0.234 0.311 0.115
v -160.000 2.430 -80.000 0.224 0.303 0.111
v -144.000 4.008 -80.000 0.212 0.294 0.107
v -128.000 4.578 -80.000 0.251 0.324 0.120
v -256.000 2.191 -64.000 0.218 0.299 0.109
v -240.000 1.221 -64.000 0.218 0.298 0.109
v -224.000 0.614 -64.000 0.468 0.437 0.255
v -208.000 0.525 -64.000 0.496 0.465 0.273
v -192.000 1.579 -64.000 0.257 0.329 0.122
v -176.000 2.438 -64.000 0.273 0.341 0.128
v -160.000 4.270 -64.000 0.255 0.327 0.122
v -144.000 6.201 -64.000 0.209 0.292 0.106
v -128.000 4.664 -64.000 0.253 0.326 0.121
v -256.000 1.991 -48.000 0.250 0.323 0.120
v -240.000 0.754 -48.000 0.492 0.462 0.270
v -224.000 0.373 -48.000 0.511 0.481 0.283
v -208.000 1.266 -48.000 0.217 0.298 0.109
v -192.000 0.683 -48.000 0.498 0.467 0.274
v -176.000 1.514 -48.000 0.288 0.353 0.133
v -160.000 3.996 -48.000 0.262 0.333 0.124
v -144.000 6.093 -48.000 0.231 0.308 0.114
v -128.000 8.433 -48.000 0.389 0.389 0.295
v -256.000 1.333 -32.000 0.205 0.289 0.105
v -240.000 -0.398 -32.000 0.423 0.390 0.225
v -224.000 -0.055 -32.000 0.449 0.417 0.242
v -208.000 0.212 -32.000 0.471 0.439 0.256
v -192.000 0.997 -32.000 0.219 0.300 0.110
v -176.000 2.186 -32.000 0.252 0.325 0.121
v -160.000 2.696 -32.000 0.245 0.319 0.118
v -144.000 4.591 -32.000 0.236 0.313 0.115
v -128.000 10.537 -32.000 0.332 0.347 0.260
v -256.000 1.589 -16.000 0.231 0.308 0.114
v -240.000 2.115 -16.000 0.191 0.278 0.100
v -224.000 0.471 -16.000 0.434 0.401 0.232
v -208.000 0.088 -16.000 0.464 0.432 0.251
v -192.000 1.692 -16.000 0.207 0.290 0.106
v -176.000 2.588 -16.000 0.218 0.298 0.109
v -160.000 4.035 -16.000 0.230 0.308 0.113
v -144.000 6.422 -16.000 0.245 0.319 0.118
v -128.000 11.061 -16.000 0.228 0.214 0.195
v -256.000 1.748 0.000 0.279 0.346 0.130
v -240.000 1.773 0.000 0.246 0.320 0.119
v -224.000 1.862 0.000 0.238 0.314 0.116
v -208.000 0.635 0.000 0.449 0.417 0.242
v -192.000 1.147 0.000 0.212 0.294 0.107
v -176.000 2.133 0.000 0.221 0.301 0.110
v -160.000 2.534 0.000 0.217 0.298 0.109
v -144.000 6.132 0.000 0.240 0.316 0.117
v -128.000 11.011 0.000 0.255 0.239 0.218

vt 0.366667 0.566667
vt 0.366667 0.558333
vt 0.375000 0.558333
vt 0.375000 0.566667
vt 0.383333 0.566667
vt 0.383333 0.558333
vt 0.391667 0.558333
vt 0.391667 0.566667
vt 0.400000 0.566667
vt 0.400000 0.558333
vt 0.408333 0.558333
vt 0.408333 0.566667
vt 0.416667 0.566667
vt 0.416667 0.558333
vt 0.425000 0.558333
vt 0.425000 0.566667
vt 0.433333 0.566667
vt 0.433333 0.558333
vt 0.366667 0.550000
vt 0.375000 0.550000
vt 0.383333 0.550000
vt 0.391667 0.550000
vt 0.400000 0.550000
vt 0.408333 0.550000
vt 0.416667 0.550000
vt 0.425000 0.550000
vt 0.433333 0.550000
vt 0.366667 0.541667
vt 0.375000 0.541667
vt 0.383333 0.541667
vt 0.391667 0.541667
vt 0.400000 0.541667
vt 0.408333 0.541667
vt 0.416667 0.541667
vt 0.425000 0.541667
vt 0.433333 0.541667
vt 0.366667 0.533333
vt 0.375000 0.533333
vt 0.383333 0.533333
vt 0.391667 0.533333
vt 0.400000 0.533333
vt 0.408333 0.533333
vt 0.416667 0.533333
vt 0.425000 0.533333
vt 0.433333 0.533333
vt 0.366667 0.525000
vt 0.375000 0.525000
vt 0.383333 0.525000
vt 0.391667 0.525000
vt 0.400000 0.525000
vt 0.408333 0.525000
vt 0.416667 0.525000
vt 0.425000 0.525000
vt 0.433333 0.525000
vt 0.366667 0.516667
vt 0.375000 0.516667
vt 0.383333 0.516667
vt 0.391667 0.516667
vt 0.400000 0.516667
vt 0.408333 0.516667
vt 0.416667 0.516667
vt 0.425000 0.516667
vt 0.433333 0.516667
vt 0.366667 0.508333
vt 0.375000 0.508333
vt 0.383333 0.508333
vt 0.391667 0.508333
vt 0.400000 0.508333
vt 0.408333 0.508333
vt 0.416667 0.508333
vt 0.425000 0.508333
vt 0.433333 0.508333
vt 0.366667 0.500000
vt 0.375000 0.500000
vt 0.383333 0.500000
vt 0.391667 0.500000
vt 0.400000 0.500000
vt 0.408333 0.500000
vt 0.416667 0.500000
vt 0.425000 0.500000
vt 0.433333 0.500000

vn -0.02459 0.99895 -0.03870
vn -0.04499 0.99843 -0.03329
vn -0.04608 0.99852 -0.02891
vn -0.05935 0.99649 -0.05898
vn -0.04060 0.99883 -0.02619
vn -0.03224 0.99941 0.01200
vn 0.02101 0.99944 0.02600
vn 0.00630 0.99965 -0.02562
vn 0.02336 0.99951 0.02100
vn 0.03173 0.99945 0.01000
vn -0.00346 0.99999 -0.00339
vn 0.01679 0.99983 0.00789
vn 0.01112 0.99974 -0.01972
vn -0.00330 0.99999 -0.00162
vn -0.02687 0.99899 -0.03598
vn -0.00489 0.99875 -0.04971
vn -0.05738 0.99731 -0.04566
vn -0.05335 0.99638 -0.06612
vn -0.03067 0.99948 -0.00980
vn -0.01420 0.99990 -0.00199
vn 0.02112 0.99900 0.03947
vn 0.00428 0.99764 0.06847
vn -0.02652 0.99964 -0.00509
vn 0.00517 0.99962 -0.02699
vn -0.01307 0.99949 -0.02918
vn -0.06930 0.99519 -0.06930
vn -0.08094 0.99461 -0.06481
vn -0.01381 0.99979 -0.01498
vn 0.01270 0.99963 0.02401
vn 0.03829 0.99809 0.04839
vn -0.02642 0.99940 0.02252
vn -0.06374 0.99787 0.01400
vn -0.01821 0.99964 -0.01978
vn -0.04576 0.99614 -0.07493
vn -0.05378 0.99490 -0.08535
vn -0.03562 0.99921 -0.01787
vn 0.04611 0.99891 0.00745
vn 0.04918 0.99833 0.03018
vn 0.01646 0.99975 0.01519
vn -0.03013 0.99926 -0.02410
vn -0.04772 0.99839 0.03072
vn -0.08375 0.99598 0.03186
vn -0.10541 0.99390 -0.03257
vn -0.01227 0.99781 -0.06503
vn 0.00257 0.99572 -0.09243
vn 0.07703 0.99667 0.02671
vn 0.04833 0.99814 0.03715
vn -0.01598 0.99965 0.02089
vn -0.02058 0.99968 0.01466
vn -0.00776 0.99980 0.01820
vn -0.08573 0.99610 0.02070
vn -0.14149 0.98874 0.04863
vn -0.13248 0.99115 -0.00836
vn -0.14237 0.97355 -0.17868
vn 0.06506 0.99777 -0.01496
vn 0.04328 0.99816 -0.04245
vn 0.00230 0.99999 -0.00297
vn -0.03281 0.99879 0.03674
vn -0.05224 0.99852 -0.01494
vn -0.05301 0.99803 -0.03349
vn -0.10275 0.99464 -0.01150
vn -0.23797 0.97122 -0.00996
vn -0.28253 0.95824 -0.04425
vn -0.03285 0.99938 -0.01296
vn 0.02736 0.99827 -0.05205
vn 0.06308 0.99622 -0.05967
vn -0.02169 0.99951 -0.02275
vn -0.07787 0.99695 -0.00470
vn -0.06061 0.99816 0.00092
vn -0.11895 0.99289 0.00503
vn -0.23078 0.97266 -0.02579
vn -0.27845 0.96035 -0.01424
vn -0.01720 0.99984 0.00572
vn -0.00357 0.99977 0.02138
vn 0.04933 0.99770 -0.04655
vn 0.02232 0.99917 -0.03412
vn -0.06233 0.99793 0.01556
vn -0.04328 0.99866 0.02840
vn -0.12128 0.99092 0.05799
vn -0.25603 0.96651 0.01749
vn -0.28509 0.95845 0.01016

f 1/1/1 2/2/2 3/3/3
f 1/1/1 3/3/3 4/4/4
f 4/4/4 3/3/3 5/5/5
f 5/5/5 3/3/3 6/6/6
f 5/5/5 6/6/6 7/7/7
f 5/5/5 7/7/7 8/8/8
f 8/8/8 7/7/7 9/9/9
f 9/9/9 7/7/7 10/10/10
f 9/9/9 10/10/10 11/11/11
f 9/9/9 11/11/11 12/12/12
f 12/12/12 11/11/11 13/13/13
f 13/13/13 11/11/11 14/14/14
f 13/13/13 14/14/14 15/15/15
f 13/13/13 15/15/15 16/16/16
f 16/16/16 15/15/15 17/17/17
f 17/17/17 15/15/15 18/18/18
f 2/2/2 19/19/19 3/3/3
f 3/3/3 19/19/19 20/20/20
f 3/3/3 20/20/20 21/21/21
f 3/3/3 21/21/21 6/6/6
f 6/6/6 21/21/21 7/7/7
f 7/7/7 21/21/21 22/22/22
f 7/7/7 22/22/22 23/23/23
f 7/7/7 23/23/23 10/10/10
f 10/10/10 23/23/23 11/11/11
f 11/11/11 23/23/23 24/24/24
f 11/11/11 24/24/24 25/25/25
f 11/11/11 25/25/25 14/14/14
f 14/14/14 25/25/25 15/15/15
f 15/15/15 25/25/25 26/26/26
f 15/15/15 26/26/26 27/27/27
f 15/15/15 27/27/27 18/18/18
f 19/19/19 28/28/28 29/29/29
f 19/19/19 29/29/29 20/20/20
f 20/20/20 29/29/29 21/21/21
f 21/21/21 29/29/29 30/30/30
f 21/21/21 30/30/30 31/31/31
f 21/21/21 31/31/31 22/22/22
f 22/22/22 31/31/31 23/23/23
f 23/23/23 31/31/31 32/32/32
f 23/23/23 32/32/32 33/33/33
f 23/23/23 33/33/33 24/24/24
f 24/24/24 33/33/33 25/25/25
f 25/25/25 33/33/33 34/34/34
f 25/25/25 34/34/34 35/35/35
f 25/25/25 35/35/35 26/26/26
f 26/26/26 35/35/35 27/27/27
f 27/27/27 35/35/35 36/36/36
f 28/28/28 37/37/37 29/29/29
f 29/29/29 37/37/37 38/38/38
f 29/29/29 38/38/38 39/39/39
f 29/29/29 39/39/39 30/30/30
f 30/30/30 39/39/39 31/31/31
f 31/31/31 39/39/39 40/40/40
f 31/31/31 40/40/40 41/41/41
f 31/31/31 41/41/41 32/32/32
f 32/32/32 41/41/41 33/33/33
f 33/33/33 41/41/41 42/42/42
f 33/33/33 42/42/42 43/43/43
f 33/33/33 43/43/43 34/34/34
f 34/34/34 43/43/43 35/35/35
f 35/35/35 43/43/43 44/44/44
f 35/35/35 44/44/44 45/45/45
f 35/35/35 45/45/45 36/36/36
f 37/37/37 46/46/46 47/47/47
f 37/37/37 47/47/47 38/38/38
f 38/38/38 47/47/47 39/39/39
f 39/39/39 47/47/47 48/48/48
f 39/39/39 48/48/48 49/49/49
f 39/39/39 49/49/49 40/40/40
f 40/40/40 49/49/49 41/41/41
f 41/41/41 49/49/49 50/50/50
f 41/41/41 50/50/50 51/51/51
f 41/41/41 51/51/51 42/42/42
f 42/42/42 51/51/51 43/43/43
f 43/43/43 51/51/51 52/52/52
f 43/43/43 52/52/52 53/53/53
f 43/43/43 53/53/53 44/44/44
f 44/44/44 53/53/53 45/45/45
f 45/45/45 53/53/53 54/54/54
f 46/46/46 55/55/55 47/47/47
f 47/47/47 55/55/55 56/56/56
f 47/47/47 56/56/56 57/57/57
f 47/47/47 57/57/57 48/48/48
f 48/48/48 57/57/57 49/49/49
f 49/49/49 57/57/57 58/58/58
f 49/49/49 58/58/58 59/59/59
f 49/49/49 59/59/59 50/50/50
f 50/50/50 59/59/59 51/51/51
f 51/51/51 59/59/59 60/60/60
f 51/51/51 60/60/60 61/61/61
f 51/51/51 61/61/61 52/52/52
f 52/52/52 61/61/61 53/53/53
f 53/53/53 61/61/61 62/62/62
f 53/53/53 62/62/62 63/63/63
f 53/53/53 63/63/63 54/54/54
f 55/55/55 64/64/64 65/65/65
f 55/55/55 65/65/65 56/56/56
f 56/56/56 65/65/65 57/57/57
f 57/57/57 65/65/65 66/66/66
f 57/57/57 66/66/66 67/67/67
f 57/57/57 67/67/67 58/58/58
f 58/58/58 67/67/67 59/59/59
f 59/59/59 67/67/67 68/68/68
f 59/59/59 68/68/68 69/69/69
f 59/59/59 69/69/69 60/60/60
f 60/60/60 69/69/69 61/61/61
f 61/61/61 69/69/69 70/70/70
f 61/61/61 70/70/70 71/71/71
f 61/61/61 71/71/71 62/62/62
f 62/62/62 71/71/71 63/63/63
f 63/63/63 71/71/71 72/72/72
f 64/64/64 73/73/73 65/65/65
f 65/65/65 73/73/73 74/74/74
f 65/65/65 74/74/74 75/75/75
f 65/65/65 75/75/75 66/66/66
f 66/66/66 75/75/75 67/67/67
f 67/67/67 75/75/75 76/76/76
f 67/67/67 76/76/76 77/77/77
f 67/67/67 77/77/77 68/68/68
f 68/68/68 77/77/77 69/69/69
f 69/69/69 77/77/77 78/78/78
f 69/69/69 78/78/78 79/79/79
f 69/69/69 79/79/79 70/70/70
f 70/70/70 79/79/79 71/71/71
f 71/71/71 79/79/79 80/80/80
f 71/71/71 80/80/80 81/81/81
f 71/71/71 81/81/81 72/72/72
