# Generated by tools/generate_island.py. Do not edit by hand.
o terrain_lod1_6_-1

v 768.000 -10.800 -72.000 0.568 0.540 0.320
v 768.000 -10.305 -64.000 0.585 0.557 0.331
v 776.000 -10.800 -72.000 0.551 0.522 0.309
v 776.000 -10.637 -64.000 0.555 0.526 0.311
v 784.000 -10.800 -64.000 0.544 0.515 0.304
v 768.000 -10.199 -56.000 0.559 0.531 0.314
v 776.000 -10.754 -56.000 0.547 0.517 0.306
v 784.000 -10.800 -56.000 0.543 0.513 0.303
v 768.000 -9.738 -48.000 0.546 0.517 0.305
v 776.000 -10.536 -48.000 0.538 0.509 0.300
v 784.000 -10.800 -48.000 0.535 0.506 0.298
v 768.000 -9.394 -40.000 0.527 0.497 0.293
v 776.000 -10.282 -40.000 0.506 0.476 0.279
v 784.000 -10.800 -40.000 0.516 0.486 0.286
v 768.000 -9.700 -32.000 0.503 0.472 0.277
v 776.000 -10.203 -32.000 0.503 0.473 0.278
v 784.000 -10.793 -32.000 0.517 0.487 0.287
v 768.000 -9.599 -24.000 0.466 0.435 0.253
v 776.000 -10.005 -24.000 0.473 0.441 0.257
v 784.000 -10.113 -24.000 0.493 0.462 0.271
v 792.000 -10.488 -24.000 0.529 0.499 0.295
v 792.000 -10.800 -32.000 0.529 0.499 0.294
v 800.000 -10.800 -32.000 0.503 0.473 0.278
v 800.000 -10.527 -24.000 0.498 0.468 0.274
v 808.000 -10.800 -24.000 0.450 0.418 0.243
v 768.000 -9.230 -16.000 0.450 0.418 0.242
v 776.000 -9.848 -16.000 0.471 0.440 0.257
v 784.000 -9.837 -16.000 0.496 0.465 0.273
v 792.000 -10.194 -16.000 0.511 0.481 0.283
v 800.000 -10.687 -16.000 0.494 0.463 0.271
v 808.000 -10.800 -16.000 0.476 0.444 0.259
v 768.000 -9.229 -8.000 0.439 0.406 0.235
v 776.000 -9.617 -8.000 0.473 0.441 0.257
v 784.000 -9.728 -8.000 0.509 0.479 0.281
v 792.000 -9.786 -8.000 0.504 0.473 0.278
v 800.000 -10.530 -8.000 0.510 0.479 0.282
v 808.000 -10.800 -8.000 0.499 0.468 0.275
v 768.000 -8.994 0.000 0.427 0.394 0.228
v 776.000 -8.964 0.000 0.446 0.414 0.240
v 784.000 -9.425 0.000 0.486 0.455 0.266
v 792.000 -9.696 0.000 0.507 0.476 0.280
v 800.000 -10.343 0.000 0.525 0.495 0.292
v 808.000 -10.800 0.000 0.542 0.513 0.303

vt 0.900000 0.537500
vt 0.900000 0.533333
vt 0.904167 0.537500
vt 0.904167 0.533333
vt 0.908333 0.533333
vt 0.900000 0.529167
vt 0.904167 0.529167
vt 0.908333 0.529167
vt 0.900000 0.525000
vt 0.904167 0.525000
vt 0.908333 0.525000
vt 0.900000 0.520833
vt 0.904167 0.520833
vt 0.908333 0.520833
vt 0.900000 0.516667
vt 0.904167 0.516667
vt 0.908333 0.516667
vt 0.900000 0.512500
vt 0.904167 0.512500
vt 0.908333 0.512500
vt 0.912500 0.512500
vt 0.912500 0.516667
vt 0.916667 0.516667
vt 0.916667 0.512500
vt 0.920833 0.512500
vt 0.900000 0.508333
vt 0.904167 0.508333
vt 0.908333 0.508333
vt 0.912500 0.508333
vt 0.916667 0.508333
vt 0.920833 0.508333
vt 0.900000 0.504167
vt 0.904167 0.504167
vt 0.908333 0.504167
vt 0.912500 0.504167
vt 0.916667 0.504167
vt 0.920833 0.504167
vt 0.900000 0.500000
vt 0.904167 0.500000
vt 0.908333 0.500000
vt 0.912500 0.500000
vt 0.916667 0.500000
vt 0.920833 0.500000

vn 0.00000 0.99809 -0.06175
vn 0.03808 0.99907 -0.02017
vn 0.02061 0.99920 -0.03415
vn 0.03092 0.99952 -0.00284
vn 0.01545 0.99988 -0.00190
vn 0.06917 0.99698 -0.03533
vn 0.04305 0.99900 -0.01201
vn 0.00569 0.99998 0.00000
vn 0.09445 0.99474 -0.03974
vn 0.06620 0.99737 -0.02948
vn 0.03410 0.99931 -0.01477
vn 0.11026 0.99390 -0.00237
vn 0.07737 0.99694 -0.01107
vn 0.06467 0.99791 -0.00042
vn 0.07168 0.99743 -0.00222
vn 0.06816 0.99753 -0.01723
vn 0.04551 0.99814 -0.04066
vn 0.05066 0.99829 -0.02934
vn 0.04256 0.99854 -0.03334
vn 0.03011 0.99777 -0.05965
vn 0.02632 0.99902 -0.03562
vn 0.00042 0.99924 -0.03897
vn 0.01299 0.99928 -0.03569
vn 0.01950 0.99979 -0.00705
vn 0.02741 0.99961 -0.00470
vn 0.06332 0.99771 -0.02364
vn 0.03789 0.99899 -0.02421
vn 0.02097 0.99936 -0.02905
vn 0.05303 0.99763 -0.04377
vn 0.03963 0.99916 -0.01088
vn 0.01410 0.99990 0.00000
vn 0.04851 0.99871 -0.01471
vn 0.03177 0.99878 -0.03770
vn 0.01053 0.99961 -0.02572
vn 0.05261 0.99824 -0.02732
vn 0.06323 0.99777 -0.02146
vn 0.03465 0.99934 -0.01074
vn 0.02234 0.99821 -0.05542
vn 0.02682 0.99632 -0.08141
vn 0.02811 0.99872 -0.04212
vn 0.05729 0.99829 -0.01125
vn 0.06604 0.99771 -0.01447
vn 0.05702 0.99837 0.00000

f 1/1/1 2/2/2 3/3/3
f 3/3/3 2/2/2 4/4/4
f 3/3/3 4/4/4 5/5/5
f 2/2/2 6/6/6 7/7/7
f 2/2/2 7/7/7 4/4/4
f 4/4/4 7/7/7 5/5/5
f 5/5/5 7/7/7 8/8/8
f 6/6/6 9/9/9 7/7/7
f 7/7/7 9/9/9 10/10/10
f 7/7/7 10/10/10 11/11/11
f 7/7/7 11/11/11 8/8/8
f 9/9/9 12/12/12 13/13/13
f 9/9/9 13/13/13 10/10/10
f 10/10/10 13/13/13 11/11/11
f 11/11/11 13/13/13 14/14/14
f 12/12/12 15/15/15 13/13/13
f 13/13/13 15/15/15 16/16/16
f 13/13/13 16/16/16 17/17/17
f 13/13/13 17/17/17 14/14/14
f 15/15/15 18/18/18 19/19/19
f 15/15/15 19/19/19 16/16/16
f 16/16/16 19/19/19 17/17/17
f 17/17/17 19/19/19 20/20/20
f 17/17/17 20/20/20 21/21/21
f 17/17/17 21/21/21 22/22/22
f 22/22/22 21/21/21 23/23/23
f 23/23/23 21/21/21 24/24/24
f 23/23/23 24/24/24 25/25/25
f 18/18/18 26/26/26 19/19/19
f 19/19/19 26/26/26 27/27/27
f 19/19/19 27/27/27 28/28/28
f 19/19/19 28/28/28 20/20/20
f 20/20/20 28/28/28 21/21/21
f 21/21/21 28/28/28 29/29/29
f 21/21/21 29/29/29 30/30/30
f 21/21/21 30/30/30 24/24/24
f 24/24/24 30/30/30 25/25/25
f 25/25/25 30/30/30 31/31/31
f 26/26/26 32/32/32 33/33/33
f 26/26/26 33/33/33 27/27/27
f 27/27/27 33/33/33 28/28/28
f 28/28/28 33/33/33 34/34/34
f 28/28/28 34/34/34 35/35/35
f 28/28/28 35/35/35 29/29/29
f 29/29/29 35/35/35 30/30/30
f 30/30/30 35/35/35 36/36/36
f 30/30/30 36/36/36 37/37/37
f 30/30/30 37/37/37 31/31/31
f 32/32/32 38/38/38 33/33/33
f 33/33/33 38/38/38 39/39/39
f 33/33/33 39/39/39 40/40/40
f 33/33/33 40/40/40 34/34/34
f 34/34/34 40/40/40 35/35/35
f 35/35/35 40/40/40 41/41/41
f 35/35/35 41/41/41 42/42/42
f 35/35/35 42/42/42 36/36/36
f 36/36/36 42/42/42 37/37/37
f 37/37/37 42/42/42 43/43/43
