# Generated by tools/generate_island.py. Do not edit by hand.
o terrain_lod2_7_-1

v 896.000 -10.800 -128.000 0.509 0.479 0.281
v 896.000 -10.800 -112.000 0.549 0.520 0.308
v 912.000 -10.800 -112.000 0.479 0.448 0.262
v 912.000 -10.800 -128.000 0.439 0.407 0.235
v 928.000 -10.800 -128.000 0.404 0.370 0.212
v 928.000 -10.800 -112.000 0.366 0.331 0.187
v 944.000 -10.800 -112.000 0.364 0.330 0.186
v 944.000 -10.800 -128.000 0.403 0.370 0.212
v 960.000 -10.800 -128.000 0.430 0.397 0.229
v 960.000 -10.800 -112.000 0.418 0.385 0.221
v 896.000 -10.800 -96.000 0.536 0.507 0.299
v 912.000 -10.800 -96.000 0.454 0.422 0.245
v 928.000 -10.800 -96.000 0.377 0.343 0.195
v 944.000 -10.800 -96.000 0.375 0.341 0.193
v 960.000 -10.800 -96.000 0.423 0.390 0.225
v 896.000 -10.800 -80.000 0.485 0.454 0.265
v 912.000 -10.800 -80.000 0.437 0.404 0.234
v 928.000 -10.800 -80.000 0.430 0.398 0.230
v 944.000 -10.800 -80.000 0.455 0.423 0.246
v 960.000 -10.800 -80.000 0.445 0.413 0.239
v 896.000 -10.800 -64.000 0.469 0.437 0.255
v 912.000 -10.800 -64.000 0.427 0.395 0.228
v 928.000 -10.800 -64.000 0.413 0.380 0.218
v 944.000 -10.800 -64.000 0.463 0.431 0.251
v 960.000 -10.800 -64.000 0.478 0.447 0.261
v 896.000 -10.800 -48.000 0.496 0.465 0.272
v 912.000 -10.800 -48.000 0.470 0.439 0.256
v 928.000 -10.800 -48.000 0.432 0.399 0.230
v 944.000 -10.800 -48.000 0.468 0.436 0.254
v 960.000 -10.800 -48.000 0.491 0.461 0.270
v 896.000 -10.800 -32.000 0.501 0.470 0.276
v 912.000 -10.800 -32.000 0.508 0.478 0.281
v 928.000 -10.800 -32.000 0.526 0.496 0.293
v 944.000 -10.800 -32.000 0.502 0.472 0.277
v 960.000 -10.800 -32.000 0.507 0.477 0.280
v 896.000 -10.800 -16.000 0.504 0.474 0.278
v 912.000 -10.800 -16.000 0.556 0.527 0.312
v 928.000 -10.800 -16.000 0.555 0.526 0.312
v 944.000 -10.800 -16.000 0.583 0.555 0.330
v 960.000 -10.800 -16.000 0.551 0.522 0.309
v 896.000 -10.800 0.000 0.526 0.496 0.292
v 912.000 -10.800 0.000 0.553 0.524 0.310
v 928.000 -10.800 0.000 0.540 0.511 0.302
v 944.000 -10.800 0.000 0.585 0.557 0.331
v 960.000 -10.800 0.000 0.585 0.557 0.331

vt 0.966667 0.566667
vt 0.966667 0.558333
vt 0.975000 0.558333
vt 0.975000 0.566667
vt 0.983333 0.566667
vt 0.983333 0.558333
vt 0.991667 0.558333
vt 0.991667 0.566667
vt 1.000000 0.566667
vt 1.000000 0.558333
vt 0.966667 0.550000
vt 0.975000 0.550000
vt 0.983333 0.550000
vt 0.991667 0.550000
vt 1.000000 0.550000
vt 0.966667 0.541667
vt 0.975000 0.541667
vt 0.983333 0.541667
vt 0.991667 0.541667
vt 1.000000 0.541667
vt 0.966667 0.533333
vt 0.975000 0.533333
vt 0.983333 0.533333
vt 0.991667 0.533333
vt 1.000000 0.533333
vt 0.966667 0.525000
vt 0.975000 0.525000
vt 0.983333 0.525000
vt 0.991667 0.525000
vt 1.000000 0.525000
vt 0.966667 0.516667
vt 0.975000 0.516667
vt 0.983333 0.516667
vt 0.991667 0.516667
vt 1.000000 0.516667
vt 0.966667 0.508333
vt 0.975000 0.508333
vt 0.983333 0.508333
vt 0.991667 0.508333
vt 1.000000 0.508333
vt 0.966667 0.500000
vt 0.975000 0.500000
vt 0.983333 0.500000
vt 0.991667 0.500000
vt 1.000000 0.500000

vn 0.00000 1.00000 0.00000
vn 0.00000 1.00000 0.00000
vn 0.00000 1.00000 0.00000
vn 0.00000 1.00000 0.00000
vn 0.00000 1.00000 0.00000
vn 0.00000 1.00000 0.00000
vn 0.00000 1.00000 0.00000
vn 0.00000 1.00000 0.00000
vn 0.00000 1.00000 0.00000
vn 0.00000 1.00000 0.00000
vn 0.00000 1.00000 0.00000
vn 0.00000 1.00000 0.00000
vn 0.00000 1.00000 0.00000
vn 0.00000 1.00000 0.00000
vn 0.00000 1.00000 0.00000
vn 0.00000 1.00000 0.00000
vn 0.00000 1.00000 0.00000
vn 0.00000 1.00000 0.00000
vn 0.00000 1.00000 0.00000
vn 0.00000 1.00000 0.00000
vn 0.00000 1.00000 0.00000
vn 0.00000 1.00000 0.00000
vn 0.00000 1.00000 0.00000
vn 0.00000 1.00000 0.00000
vn 0.00000 1.00000 0.00000
vn 0.00000 1.00000 0.00000
vn 0.00000 1.00000 0.00000
vn 0.00000 1.00000 0.00000
vn 0.00000 1.00000 0.00000
vn 0.00000 1.00000 0.00000
vn 0.00000 1.00000 0.00000
vn 0.00000 1.00000 0.00000
vn 0.00000 1.00000 0.00000
vn 0.00000 1.00000 0.00000
vn 0.00000 1.00000 0.00000
vn 0.00000 1.00000 0.00000
vn 0.00000 1.00000 0.00000
vn 0.00000 1.00000 0.00000
vn 0.00000 1.00000 0.00000
vn 0.00000 1.00000 0.00000
vn 0.00000 1.00000 0.00000
vn 0.00000 1.00000 0.00000
vn 0.00000 1.00000 0.00000
vn 0.00000 1.00000 0.00000
vn 0.00000 1.00000 0.00000

f 1/1/1 2/2/2 3/3/3
f 1/1/1 3/3/3 4/4/4
f 4/4/4 3/3/3 5/5/5
f 5/5/5 3/3/3 6/6/6
f 5/5/5 6/6/6 7/7/7
f 5/5/5 7/7/7 8/8/8
f 8/8/8 7/7/7 9/9/9
f 9/9/9 7/7/7 10/10/10
f 2/2/2 11/11/11 3/3/3
f 3/3/3 11/11/11 12/12/12
f 3/3/3 12/12/12 13/13/13
f 3/3/3 13/13/13 6/6/6
f 6/6/6 13/13/13 7/7/7
f 7/7/7 13/13/13 14/14/14
f 7/7/7 14/14/14 15/15/15
f 7/7/7 15/15/15 10/10/10
f 11/11/11 16/16/16 17/17/17
f 11/11/11 17/17/17 12/12/12
f 12/12/12 17/17/17 13/13/13
f 13/13/13 17/17/17 18/18/18
f 13/13/13 18/18/18 19/19/19
f 13/13/13 19/19/19 14/14/14
f 14/14/14 19/19/19 15/15/15
f 15/15/15 19/19/19 20/20/20
f 16/16/16 21/21/21 17/17/17
f 17/17/17 21/21/21 22/22/22
f 17/17/17 22/22/22 23/23/23
f 17/17/17 23/23/23 18/18/18
f 18/18/18 23/23/23 19/19/19
f 19/19/19 23/23/23 24/24/24
f 19/19/19 24/24/24 25/25/25
f 19/19/19 25/25/25 20/20/20
f 21/21/21 26/26/26 27/27/27
f 21/21/21 27/27/27 22/22/22
f 22/22/22 27/27/27 23/23/23
f 23/23/23 27/27/27 28/28/28
f 23/23/23 28/28/28 29/29/29
f 23/23/23 29/29/29 24/24/24
f 24/24/24 29/29/29 25/25/25
f 25/25/25 29/29/29 30/30/30
f 26/26/26 31/31/31 27/27/27
f 27/27/27 31/31/31 32/32/32
f 27/27/27 32/32/32 33/33/33
f 27/27/27 33/33/33 28/28/28
f 28/28/28 33/33/33 29/29/29
f 29/29/29 33/33/33 34/34/34
f 29/29/29 34/34/34 35/35/35
f 29/29/29 35/35/35 30/30/30
f 31/31/31 36/36/36 37/37/37
f 31/31/31 37/37/37 32/32/32
f 32/32/32 37/37/37 33/33/33
f 33/33/33 37/37/37 38/38/38
f 33/33/33 38/38/38 39/39/39
f 33/33/33 39/39/39 34/34/34
f 34/34/34 39/39/39 35/35/35
f 35/35/35 39/39/39 40/40/40
f 36/36/36 41/41/41 37/37/37
f 37/37/37 41/41/41 42/42/42
f 37/37/37 42/42/42 43/43/43
f 37/37/37 43/43/43 38/38/38
f 38/38/38 43/43/43 39/39/39
f 39/39/39 43/43/43 44/44/44
f 39/39/39 44/44/44 45/45/45
f 39/39/39 45/45/45 40/40/40
