# Generated by tools/generate_island.py. Do not edit by hand.
o terrain_lod1_6_1

v 768.000 -8.468 128.000 0.489 0.458 0.268
v 768.000 -8.666 136.000 0.501 0.471 0.276
v 776.000 -9.043 136.000 0.499 0.469 0.275
v 776.000 -9.032 128.000 0.492 0.462 0.270
v 784.000 -9.902 128.000 0.486 0.455 0.266
v 784.000 -9.746 136.000 0.489 0.458 0.268
v 792.000 -10.068 136.000 0.486 0.455 0.266
v 792.000 -10.098 128.000 0.466 0.435 0.253
v 800.000 -10.547 128.000 0.453 0.421 0.244
v 800.000 -10.086 136.000 0.457 0.425 0.247
v 808.000 -10.696 136.000 0.471 0.440 0.256
v 808.000 -10.642 128.000 0.455 0.423 0.246
v 816.000 -10.800 128.000 0.473 0.441 0.257
v 816.000 -10.800 136.000 0.473 0.442 0.258
v 768.000 -8.577 144.000 0.519 0.488 0.288
v 776.000 -9.282 144.000 0.502 0.471 0.276
v 784.000 -9.586 144.000 0.498 0.468 0.274
v 792.000 -10.124 144.000 0.497 0.466 0.273
v 800.000 -10.246 144.000 0.503 0.472 0.277
v 808.000 -10.742 144.000 0.515 0.485 0.285
v 816.000 -10.800 144.000 0.499 0.469 0.275
v 768.000 -8.751 152.000 0.516 0.486 0.286
v 776.000 -9.680 152.000 0.521 0.492 0.290
v 784.000 -9.715 152.000 0.526 0.497 0.293
v 792.000 -9.925 152.000 0.515 0.485 0.286
v 800.000 -10.275 152.000 0.526 0.496 0.292
v 808.000 -10.590 152.000 0.525 0.496 0.292
v 816.000 -10.800 152.000 0.536 0.507 0.299
v 768.000 -8.944 160.000 0.513 0.483 0.284
v 776.000 -9.404 160.000 0.525 0.496 0.292
v 784.000 -9.619 160.000 0.537 0.508 0.300
v 792.000 -9.564 160.000 0.550 0.521 0.308
v 800.000 -10.162 160.000 0.529 0.499 0.294
v 808.000 -10.800 160.000 0.521 0.491 0.289
v 816.000 -10.800 160.000 0.555 0.526 0.312
v 768.000 -8.964 168.000 0.528 0.499 0.294
v 776.000 -9.077 168.000 0.539 0.510 0.301
v 784.000 -9.458 168.000 0.573 0.545 0.323
v 792.000 -9.744 168.000 0.578 0.549 0.326
v 800.000 -10.284 168.000 0.557 0.528 0.313
v 808.000 -10.800 168.000 0.556 0.527 0.312
v 768.000 -9.052 176.000 0.548 0.519 0.307
v 776.000 -9.286 176.000 0.569 0.541 0.321
v 784.000 -9.332 176.000 0.569 0.541 0.321
v 792.000 -9.964 176.000 0.571 0.542 0.322
v 800.000 -10.430 176.000 0.568 0.539 0.320
v 808.000 -10.800 176.000 0.557 0.528 0.313
v 768.000 -8.892 184.000 0.562 0.533 0.316
v 776.000 -9.130 184.000 0.568 0.539 0.320
v 784.000 -9.233 184.000 0.563 0.534 0.317
v 792.000 -9.865 184.000 0.537 0.508 0.300
v 800.000 -10.756 184.000 0.540 0.511 0.302
v 808.000 -10.800 184.000 0.542 0.513 0.303
v 768.000 -8.850 192.000 0.545 0.516 0.305
v 776.000 -9.077 192.000 0.555 0.526 0.312
v 784.000 -9.668 192.000 0.537 0.508 0.300
v 792.000 -10.233 192.000 0.518 0.488 0.287
v 800.000 -10.800 192.000 0.516 0.486 0.286
v 768.000 -9.089 200.000 0.500 0.470 0.276
v 776.000 -9.246 200.000 0.497 0.466 0.273
v 784.000 -10.014 200.000 0.508 0.478 0.281
v 792.000 -10.613 200.000 0.494 0.463 0.271
v 800.000 -10.800 200.000 0.496 0.465 0.273
v 768.000 -9.031 208.000 0.487 0.456 0.267
v 776.000 -9.394 208.000 0.491 0.460 0.269
v 784.000 -9.941 208.000 0.483 0.452 0.264
v 792.000 -10.772 208.000 0.491 0.460 0.269
v 800.000 -10.800 208.000 0.474 0.443 0.258
v 768.000 -8.851 216.000 0.444 0.411 0.238
v 776.000 -9.827 216.000 0.457 0.426 0.247
v 784.000 -10.396 216.000 0.476 0.445 0.260
v 792.000 -10.800 216.000 0.460 0.428 0.249
v 768.000 -9.190 224.000 0.420 0.387 0.223
v 776.000 -10.064 224.000 0.415 0.382 0.219
v 784.000 -10.676 224.000 0.437 0.404 0.234
v 792.000 -10.800 224.000 0.436 0.403 0.233
v 768.000 -9.578 232.000 0.454 0.422 0.245
v 776.000 -9.825 232.000 0.451 0.419 0.243
v 784.000 -10.476 232.000 0.440 0.408 0.236
v 792.000 -10.631 232.000 0.417 0.384 0.221
v 800.000 -10.800 224.000 0.447 0.415 0.241
v 800.000 -10.800 232.000 0.447 0.415 0.240
v 768.000 -9.603 240.000 0.470 0.439 0.256
v 776.000 -10.091 240.000 0.460 0.428 0.249
v 784.000 -10.397 240.000 0.429 0.397 0.229
v 792.000 -10.800 240.000 0.410 0.377 0.216
v 800.000 -10.800 240.000 0.438 0.405 0.235
v 768.000 -9.742 248.000 0.455 0.423 0.246
v 776.000 -10.429 248.000 0.429 0.396 0.229
v 784.000 -10.448 248.000 0.432 0.399 0.230
v 792.000 -10.800 248.000 0.434 0.402 0.232
v 768.000 -9.862 256.000 0.422 0.389 0.224
v 776.000 -10.332 256.000 0.417 0.384 0.221
v 784.000 -10.460 256.000 0.412 0.378 0.217
v 792.000 -10.596 256.000 0.440 0.407 0.236
v 800.000 -10.800 256.000 0.445 0.412 0.239

vt 0.900000 0.433333
vt 0.900000 0.429167
vt 0.904167 0.429167
vt 0.904167 0.433333
vt 0.908333 0.433333
vt 0.908333 0.429167
vt 0.912500 0.429167
vt 0.912500 0.433333
vt 0.916667 0.433333
vt 0.916667 0.429167
vt 0.920833 0.429167
vt 0.920833 0.433333
vt 0.925000 0.433333
vt 0.925000 0.429167
vt 0.900000 0.425000
vt 0.904167 0.425000
vt 0.908333 0.425000
vt 0.912500 0.425000
vt 0.916667 0.425000
vt 0.920833 0.425000
vt 0.925000 0.425000
vt 0.900000 0.420833
vt 0.904167 0.420833
vt 0.908333 0.420833
vt 0.912500 0.420833
vt 0.916667 0.420833
vt 0.920833 0.420833
vt 0.925000 0.420833
vt 0.900000 0.416667
vt 0.904167 0.416667
vt 0.908333 0.416667
vt 0.912500 0.416667
vt 0.916667 0.416667
vt 0.920833 0.416667
vt 0.925000 0.416667
vt 0.900000 0.412500
vt 0.904167 0.412500
vt 0.908333 0.412500
vt 0.912500 0.412500
vt 0.916667 0.412500
vt 0.920833 0.412500
vt 0.900000 0.408333
vt 0.904167 0.408333
vt 0.908333 0.408333
vt 0.912500 0.408333
vt 0.916667 0.408333
vt 0.920833 0.408333
vt 0.900000 0.404167
vt 0.904167 0.404167
vt 0.908333 0.404167
vt 0.912500 0.404167
vt 0.916667 0.404167
vt 0.920833 0.404167
vt 0.900000 0.400000
vt 0.904167 0.400000
vt 0.908333 0.400000
vt 0.912500 0.400000
vt 0.916667 0.400000
vt 0.900000 0.395833
vt 0.904167 0.395833
vt 0.908333 0.395833
vt 0.912500 0.395833
vt 0.916667 0.395833
vt 0.900000 0.391667
vt 0.904167 0.391667
vt 0.908333 0.391667
vt 0.912500 0.391667
vt 0.916667 0.391667
vt 0.900000 0.387500
vt 0.904167 0.387500
vt 0.908333 0.387500
vt 0.912500 0.387500
vt 0.900000 0.383333
vt 0.904167 0.383333
vt 0.908333 0.383333
vt 0.912500 0.383333
vt 0.900000 0.379167
vt 0.904167 0.379167
vt 0.908333 0.379167
vt 0.912500 0.379167
vt 0.916667 0.383333
vt 0.916667 0.379167
vt 0.900000 0.375000
vt 0.904167 0.375000
vt 0.908333 0.375000
vt 0.912500 0.375000
vt 0.916667 0.375000
vt 0.900000 0.370833
vt 0.904167 0.370833
vt 0.908333 0.370833
vt 0.912500 0.370833
vt 0.900000 0.366667
vt 0.904167 0.366667
vt 0.908333 0.366667
vt 0.912500 0.366667
vt 0.916667 0.366667

vn 0.05865 0.99819 0.01300
vn 0.04703 0.99887 0.00680
vn 0.07172 0.99741 0.00458
vn 0.08922 0.99601 0.00135
vn 0.06522 0.99782 -0.01027
vn 0.06395 0.99776 -0.01969
vn 0.03101 0.99948 -0.00881
vn 0.04028 0.99918 -0.00370
vn 0.03659 0.99894 -0.02796
vn 0.03921 0.99906 -0.01874
vn 0.03489 0.99939 -0.00157
vn 0.01584 0.99985 0.00678
vn 0.01636 0.99986 0.00339
vn 0.01297 0.99992 0.00000
vn 0.08452 0.99617 0.02247
vn 0.06286 0.99723 0.03971
vn 0.04611 0.99891 0.00674
vn 0.04125 0.99911 -0.00896
vn 0.03949 0.99922 0.00200
vn 0.03458 0.99938 -0.00665
vn 0.01344 0.99990 -0.00333
vn 0.11532 0.99307 0.02276
vn 0.05636 0.99836 0.01005
vn 0.01531 0.99988 0.00209
vn 0.03627 0.99918 -0.01827
vn 0.04152 0.99912 -0.00529
vn 0.03500 0.99939 0.00049
vn 0.02627 0.99965 0.00000
vn 0.06118 0.99805 -0.01214
vn 0.04213 0.99840 -0.03761
vn 0.01925 0.99961 -0.02028
vn 0.03389 0.99936 -0.01130
vn 0.06536 0.99786 0.00073
vn 0.05311 0.99844 0.01749
vn 0.01314 0.99983 0.01314
vn 0.01407 0.99988 0.00675
vn 0.03033 0.99952 -0.00650
vn 0.04163 0.99897 -0.01792
vn 0.05138 0.99861 0.01217
vn 0.06586 0.99769 0.01671
vn 0.06362 0.99794 0.00836
vn 0.02553 0.99967 -0.00060
vn 0.01750 0.99984 0.00331
vn 0.04307 0.99906 -0.00430
vn 0.06844 0.99763 0.00756
vn 0.05714 0.99823 0.01660
vn 0.04623 0.99893 0.00000
vn 0.02971 0.99948 -0.01263
vn 0.02782 0.99960 -0.00440
vn 0.04589 0.99873 0.02099
vn 0.08211 0.99643 0.01939
vn 0.05832 0.99803 0.02309
vn 0.01911 0.99970 0.01542
vn 0.02655 0.99960 0.00977
vn 0.05110 0.99867 0.00724
vn 0.06875 0.99692 0.03779
vn 0.07047 0.99643 0.04657
vn 0.05628 0.99820 0.02087
vn 0.01962 0.99974 0.01132
vn 0.05583 0.99830 0.01696
vn 0.08512 0.99623 0.01695
vn 0.05556 0.99823 0.02107
vn 0.02338 0.99973 0.00000
vn 0.05802 0.99826 0.01072
vn 0.05672 0.99773 0.03626
vn 0.07935 0.99656 0.02384
vn 0.05362 0.99849 0.01167
vn 0.01009 0.99992 0.00779
vn 0.12113 0.99259 0.00989
vn 0.08533 0.99575 0.03476
vn 0.06061 0.99711 0.04582
vn 0.04474 0.99880 0.01974
vn 0.09240 0.99547 0.02254
vn 0.09245 0.99572 -0.00016
vn 0.05072 0.99871 -0.00018
vn 0.01033 0.99985 -0.01408
vn 0.03080 0.99919 0.02575
vn 0.06355 0.99797 0.00292
vn 0.05032 0.99858 -0.01739
vn 0.01836 0.99982 -0.00435
vn 0.01056 0.99989 -0.01056
vn 0.02112 0.99978 0.00000
vn 0.05955 0.99794 0.02397
vn 0.04956 0.99806 0.03769
vn 0.04051 0.99912 0.01120
vn 0.03353 0.99934 0.01408
vn 0.01056 0.99989 0.01056
vn 0.08549 0.99621 0.01612
vn 0.04376 0.99896 0.01254
vn 0.02318 0.99972 0.00390
vn 0.03616 0.99931 -0.00863
vn 0.07211 0.99740 0.00139
vn 0.03734 0.99923 -0.01211
vn 0.01984 0.99977 -0.00866
vn 0.02126 0.99945 -0.02547
vn 0.02547 0.99935 -0.02547

f 1/1/1 2/2/2 3/3/3
f 1/1/1 3/3/3 4/4/4
f 4/4/4 3/3/3 5/5/5
f 5/5/5 3/3/3 6/6/6
f 5/5/5 6/6/6 7/7/7
f 5/5/5 7/7/7 8/8/8
f 8/8/8 7/7/7 9/9/9
f 9/9/9 7/7/7 10/10/10
f 9/9/9 10/10/10 11/11/11
f 9/9/9 11/11/11 12/12/12
f 12/12/12 11/11/11 13/13/13
f 13/13/13 11/11/11 14/14/14
f 2/2/2 15/15/15 3/3/3
f 3/3/3 15/15/15 16/16/16
f 3/3/3 16/16/16 17/17/17
f 3/3/3 17/17/17 6/6/6
f 6/6/6 17/17/17 7/7/7
f 7/7/7 17/17/17 18/18/18
f 7/7/7 18/18/18 19/19/19
f 7/7/7 19/19/19 10/10/10
f 10/10/10 19/19/19 11/11/11
f 11/11/11 19/19/19 20/20/20
f 11/11/11 20/20/20 21/21/21
f 11/11/11 21/21/21 14/14/14
f 15/15/15 22/22/22 23/23/23
f 15/15/15 23/23/23 16/16/16
f 16/16/16 23/23/23 17/17/17
f 17/17/17 23/23/23 24/24/24
f 17/17/17 24/24/24 25/25/25
f 17/17/17 25/25/25 18/18/18
f 18/18/18 25/25/25 19/19/19
f 19/19/19 25/25/25 26/26/26
f 19/19/19 26/26/26 27/27/27
f 19/19/19 27/27/27 20/20/20
f 20/20/20 27/27/27 21/21/21
f 21/21/21 27/27/27 28/28/28
f 22/22/22 29/29/29 23/23/23
f 23/23/23 29/29/29 30/30/30
f 23/23/23 30/30/30 31/31/31
f 23/23/23 31/31/31 24/24/24
f 24/24/24 31/31/31 25/25/25
f 25/25/25 31/31/31 32/32/32
f 25/25/25 32/32/32 33/33/33
f 25/25/25 33/33/33 26/26/26
f 26/26/26 33/33/33 27/27/27
f 27/27/27 33/33/33 34/34/34
f 27/27/27 34/34/34 35/35/35
f 27/27/27 35/35/35 28/28/28
f 29/29/29 36/36/36 37/37/37
f 29/29/29 37/37/37 30/30/30
f 30/30/30 37/37/37 31/31/31
f 31/31/31 37/37/37 38/38/38
f 31/31/31 38/38/38 39/39/39
f 31/31/31 39/39/39 32/32/32
f 32/32/32 39/39/39 33/33/33
f 33/33/33 39/39/39 40/40/40
f 33/33/33 40/40/40 41/41/41
f 33/33/33 41/41/41 34/34/34
f 36/36/36 42/42/42 37/37/37
f 37/37/37 42/42/42 43/43/43
f 37/37/37 43/43/43 44/44/44
f 37/37/37 44/44/44 38/38/38
f 38/38/38 44/44/44 39/39/39
f 39/39/39 44/44/44 45/45/45
f 39/39/39 45/45/45 46/46/46
f 39/39/39 46/46/46 40/40/40
f 40/40/40 46/46/46 41/41/41
f 41/41/41 46/46/46 47/47/47
f 42/42/42 48/48/48 49/49/49
f 42/42/42 49/49/49 43/43/43
f 43/43/43 49/49/49 44/44/44
f 44/44/44 49/49/49 50/50/50
f 44/44/44 50/50/50 51/51/51
f 44/44/44 51/51/51 45/45/45
f 45/45/45 51/51/51 46/46/46
f 46/46/46 51/51/51 52/52/52
f 46/46/46 52/52/52 53/53/53
f 46/46/46 53/53/53 47/47/47
f 48/48/48 54/54/54 49/49/49
f 49/49/49 54/54/54 55/55/55
f 49/49/49 55/55/55 56/56/56
f 49/49/49 56/56/56 50/50/50
f 50/50/50 56/56/56 51/51/51
f 51/51/51 56/56/56 57/57/57
f 51/51/51 57/57/57 58/58/58
f 51/51/51 58/58/58 52/52/52
f 52/52/52 58/58/58 53/53/53
f 54/54/54 59/59/59 60/60/60
f 54/54/54 60/60/60 55/55/55
f 55/55/55 60/60/60 56/56/56
f 56/56/56 60/60/60 61/61/61
f 56/56/56 61/61/61 62/62/62
f 56/56/56 62/62/62 57/57/57
f 57/57/57 62/62/62 58/58/58
f 58/58/58 62/62/62 63/63/63
f 59/59/59 64/64/64 60/60/60
f 60/60/60 64/64/64 65/65/65
f 60/60/60 65/65/65 66/66/66
f 60/60/60 66/66/66 61/61/61
f 61/61/61 66/66/66 62/62/62
f 62/62/62 66/66/66 67/67/67
f 62/62/62 67/67/67 68/68/68
f 62/62/62 68/68/68 63/63/63
f 64/64/64 69/69/69 70/70/70
f 64/64/64 70/70/70 65/65/65
f 65/65/65 70/70/70 66/66/66
f 66/66/66 70/70/70 71/71/71
f 66/66/66 71/71/71 72/72/72
f 66/66/66 72/72/72 67/67/67
f 67/67/67 72/72/72 68/68/68
f 69/69/69 73/73/73 70/70/70
f 70/70/70 73/73/73 74/74/74
f 70/70/70 74/74/74 75/75/75
f 70/70/70 75/75/75 71/71/71
f 71/71/71 75/75/75 72/72/72
f 72/72/72 75/75/75 76/76/76
f 73/73/73 77/77/77 78/78/78
f 73/73/73 78/78/78 74/74/74
f 74/74/74 78/78/78 75/75/75
f 75/75/75 78/78/78 79/79/79
f 75/75/75 79/79/79 80/80/80
f 75/75/75 80/80/80 76/76/76
f 76/76/76 80/80/80 81/81/81
f 81/81/81 80/80/80 82/82/82
f 77/77/77 83/83/83 78/78/78
f 78/78/78 83/83/83 84/84/84
f 78/78/78 84/84/84 85/85/85
f 78/78/78 85/85/85 79/79/79
f 79/79/79 85/85/85 80/80/80
f 80/80/80 85/85/85 86/86/86
f 80/80/80 86/86/86 87/87/87
f 80/80/80 87/87/87 82/82/82
f 83/83/83 88/88/88 89/89/89
f 83/83/83 89/89/89 84/84/84
f 84/84/84 89/89/89 85/85/85
f 85/85/85 89/89/89 90/90/90
f 85/85/85 90/90/90 91/91/91
f 85/85/85 91/91/91 86/86/86
f 88/88/88 92/92/92 89/89/89
f 89/89/89 92/92/92 93/93/93
f 89/89/89 93/93/93 94/94/94
f 89/89/89 94/94/94 90/90/90
f 90/90/90 94/94/94 91/91/91
f 91/91/91 94/94/94 95/95/95
f 91/91/91 95/95/95 96/96/96
