# Generated by tools/generate_island.py. Do not edit by hand.
o terrain_lod2_-2_-3

v -128.000 -8.000 -192.000 0.409 0.376 0.216
v -128.000 -8.000 -184.000 0.409 0.376 0.216
v -120.000 -7.974 -184.000 0.404 0.371 0.212
v -120.000 -8.000 -192.000 0.420 0.387 0.223
v -112.000 -7.861 -192.000 0.434 0.401 0.232
v -112.000 -7.137 -184.000 0.416 0.382 0.220
v -104.000 -6.281 -184.000 0.458 0.426 0.248
v -104.000 -7.315 -192.000 0.450 0.418 0.243
v -96.000 -6.230 -192.000 0.473 0.441 0.257
v -96.000 -5.276 -184.000 0.466 0.434 0.253
v -88.000 -3.990 -184.000 0.477 0.446 0.260
v -88.000 -5.289 -192.000 0.483 0.452 0.264
v -80.000 -4.658 -192.000 0.461 0.430 0.250
v -80.000 -3.647 -184.000 0.443 0.411 0.238
v -72.000 -3.496 -184.000 0.435 0.402 0.233
v -72.000 -4.130 -192.000 0.469 0.437 0.255
v -64.000 -4.417 -192.000 0.505 0.474 0.278
v -64.000 -3.665 -184.000 0.461 0.430 0.250
v -128.000 -7.438 -176.000 0.424 0.391 0.225
v -120.000 -6.701 -176.000 0.396 0.363 0.207
v -112.000 -6.319 -176.000 0.421 0.388 0.223
v -104.000 -5.152 -176.000 0.454 0.422 0.245
v -96.000 -4.260 -176.000 0.470 0.438 0.255
v -88.000 -3.389 -176.000 0.474 0.443 0.258
v -80.000 -2.939 -176.000 0.434 0.401 0.232
v -72.000 -3.107 -176.000 0.427 0.394 0.227
v -64.000 -2.860 -176.000 0.442 0.410 0.237
v -128.000 -6.627 -168.000 0.454 0.422 0.245
v -120.000 -5.952 -168.000 0.442 0.409 0.237
v -112.000 -5.414 -168.000 0.447 0.415 0.241
v -104.000 -4.482 -168.000 0.453 0.421 0.244
v -96.000 -3.417 -168.000 0.485 0.454 0.266
v -88.000 -2.893 -168.000 0.497 0.466 0.273
v -80.000 -2.128 -168.000 0.484 0.453 0.265
v -72.000 -2.120 -168.000 0.459 0.427 0.249
v -64.000 -2.024 -168.000 0.438 0.406 0.235
v -128.000 -5.712 -160.000 0.457 0.425 0.247
v -120.000 -5.406 -160.000 0.447 0.415 0.240
v -112.000 -4.432 -160.000 0.442 0.409 0.237
v -104.000 -3.663 -160.000 0.461 0.429 0.250
v -96.000 -2.543 -160.000 0.505 0.475 0.279
v -88.000 -2.019 -160.000 0.520 0.490 0.288
v -80.000 -1.797 -160.000 0.494 0.463 0.271
v -72.000 -1.498 -160.000 0.477 0.446 0.261
v -64.000 -1.549 -160.000 0.469 0.437 0.255
v -128.000 -4.487 -152.000 0.432 0.400 0.231
v -120.000 -4.336 -152.000 0.433 0.400 0.231
v -112.000 -3.481 -152.000 0.450 0.418 0.242
v -104.000 -2.729 -152.000 0.477 0.446 0.260
v -96.000 -2.235 -152.000 0.509 0.479 0.281
v -88.000 -1.664 -152.000 0.517 0.487 0.286
v -80.000 -1.585 -152.000 0.492 0.461 0.270
v -72.000 -1.220 -152.000 0.482 0.451 0.263
v -64.000 -0.873 -152.000 0.484 0.452 0.265
v -128.000 -3.702 -144.000 0.454 0.422 0.245
v -120.000 -3.316 -144.000 0.442 0.410 0.237
v -112.000 -2.901 -144.000 0.460 0.428 0.249
v -104.000 -2.081 -144.000 0.481 0.450 0.263
v -96.000 -1.877 -144.000 0.508 0.478 0.281
v -88.000 -1.424 -144.000 0.513 0.482 0.284
v -80.000 -0.902 -144.000 0.470 0.439 0.256
v -72.000 -0.676 -144.000 0.449 0.417 0.242
v -64.000 -0.203 -144.000 0.455 0.423 0.246
v -128.000 -3.000 -136.000 0.465 0.434 0.253
v -120.000 -2.307 -136.000 0.454 0.422 0.245
v -112.000 -1.991 -136.000 0.469 0.437 0.255
v -104.000 -1.516 -136.000 0.481 0.449 0.263
v -96.000 -1.161 -136.000 0.508 0.477 0.280
v -88.000 -1.047 -136.000 0.503 0.472 0.277
v -80.000 -0.412 -136.000 0.461 0.429 0.250
v -72.000 -0.331 -136.000 0.438 0.406 0.235
v -64.000 -0.227 -136.000 0.431 0.398 0.230
v -128.000 -1.888 -128.000 0.455 0.423 0.245
v -120.000 -1.496 -128.000 0.473 0.442 0.258
v -112.000 -1.096 -128.000 0.471 0.439 0.256
v -104.000 -1.104 -128.000 0.492 0.461 0.270
v -96.000 -0.844 -128.000 0.515 0.485 0.285
v -88.000 -0.773 -128.000 0.503 0.473 0.278
v -80.000 -0.257 -128.000 0.456 0.424 0.246
v -72.000 0.171 -128.000 0.423 0.390 0.225
v -64.000 -0.196 -128.000 0.418 0.385 0.221

vt 0.300000 0.800000
vt 0.300000 0.787500
vt 0.312500 0.787500
vt 0.312500 0.800000
vt 0.325000 0.800000
vt 0.325000 0.787500
vt 0.337500 0.787500
vt 0.337500 0.800000
vt 0.350000 0.800000
vt 0.350000 0.787500
vt 0.362500 0.787500
vt 0.362500 0.800000
vt 0.375000 0.800000
vt 0.375000 0.787500
vt 0.387500 0.787500
vt 0.387500 0.800000
vt 0.400000 0.800000
vt 0.400000 0.787500
vt 0.300000 0.775000
vt 0.312500 0.775000
vt 0.325000 0.775000
vt 0.337500 0.775000
vt 0.350000 0.775000
vt 0.362500 0.775000
vt 0.375000 0.775000
vt 0.387500 0.775000
vt 0.400000 0.775000
vt 0.300000 0.762500
vt 0.312500 0.762500
vt 0.325000 0.762500
vt 0.337500 0.762500
vt 0.350000 0.762500
vt 0.362500 0.762500
vt 0.375000 0.762500
vt 0.387500 0.762500
vt 0.400000 0.762500
vt 0.300000 0.750000
vt 0.312500 0.750000
vt 0.325000 0.750000
vt 0.337500 0.750000
vt 0.350000 0.750000
vt 0.362500 0.750000
vt 0.375000 0.750000
vt 0.387500 0.750000
vt 0.400000 0.750000
vt 0.300000 0.737500
vt 0.312500 0.737500
vt 0.325000 0.737500
vt 0.337500 0.737500
vt 0.350000 0.737500
vt 0.362500 0.737500
vt 0.375000 0.737500
vt 0.387500 0.737500
vt 0.400000 0.737500
vt 0.300000 0.725000
vt 0.312500 0.725000
vt 0.325000 0.725000
vt 0.337500 0.725000
vt 0.350000 0.725000
vt 0.362500 0.725000
vt 0.375000 0.725000
vt 0.387500 0.725000
vt 0.400000 0.725000
vt 0.300000 0.712500
vt 0.312500 0.712500
vt 0.325000 0.712500
vt 0.337500 0.712500
vt 0.350000 0.712500
vt 0.362500 0.712500
vt 0.375000 0.712500
vt 0.387500 0.712500
vt 0.400000 0.712500
vt 0.300000 0.700000
vt 0.312500 0.700000
vt 0.325000 0.700000
vt 0.337500 0.700000
vt 0.350000 0.700000
vt 0.362500 0.700000
vt 0.375000 0.700000
vt 0.387500 0.700000
vt 0.400000 0.700000

vn -0.00165 1.00000 -0.00165
vn -0.00330 0.99938 -0.03511
vn -0.04645 0.99624 -0.07319
vn -0.00867 0.99996 -0.00330
vn -0.07389 0.99421 -0.07797
vn -0.10474 0.98991 -0.09542
vn -0.11419 0.98609 -0.12077
vn -0.10059 0.98672 -0.12755
vn -0.13257 0.98258 -0.13025
vn -0.14071 0.98263 -0.12097
vn -0.09503 0.98873 -0.11567
vn -0.09653 0.98246 -0.15954
vn -0.05118 0.99115 -0.12251
vn -0.03065 0.99381 -0.10676
vn -0.00442 0.99655 -0.08284
vn -0.01502 0.99677 -0.07893
vn 0.02839 0.99587 -0.08625
vn 0.02098 0.99508 -0.09682
vn -0.06745 0.99216 -0.10526
vn -0.06921 0.98973 -0.12508
vn -0.09676 0.98895 -0.11228
vn -0.12683 0.98572 -0.11081
vn -0.11434 0.98818 -0.10212
vn -0.08210 0.99429 -0.06816
vn -0.02849 0.99591 -0.08575
vn -0.00492 0.99631 -0.08571
vn -0.01308 0.99550 -0.09386
vn -0.08365 0.99075 -0.10684
vn -0.07484 0.99255 -0.09619
vn -0.09083 0.98901 -0.11664
vn -0.12252 0.98726 -0.10153
vn -0.09829 0.98947 -0.10621
vn -0.07211 0.99360 -0.08694
vn -0.04814 0.99630 -0.07115
vn -0.00832 0.99606 -0.08828
vn -0.01188 0.99659 -0.08168
vn -0.04462 0.99220 -0.11643
vn -0.07937 0.99180 -0.10013
vn -0.10139 0.98855 -0.11176
vn -0.11657 0.98727 -0.10820
vn -0.09211 0.99229 -0.08288
vn -0.04645 0.99599 -0.07650
vn -0.03524 0.99812 -0.05011
vn -0.01546 0.99831 -0.05610
vn -0.01063 0.99790 -0.06394
vn -0.01873 0.99202 -0.12465
vn -0.06340 0.99080 -0.11955
vn -0.09952 0.99051 -0.09479
vn -0.08385 0.99300 -0.08319
vn -0.06635 0.99693 -0.04150
vn -0.04709 0.99797 -0.04291
vn -0.02765 0.99806 -0.05579
vn -0.03697 0.99748 -0.06053
vn -0.04325 0.99555 -0.08374
vn -0.05012 0.99277 -0.10910
vn -0.04961 0.99083 -0.12565
vn -0.07551 0.99247 -0.09647
vn -0.06368 0.99512 -0.07539
vn -0.04438 0.99709 -0.06196
vn -0.06076 0.99741 -0.03847
vn -0.04135 0.99734 -0.06006
vn -0.04359 0.99751 -0.05546
vn -0.04359 0.99790 -0.04788
vn -0.08570 0.98998 -0.11225
vn -0.05597 0.99207 -0.11252
vn -0.04905 0.99250 -0.11196
vn -0.04568 0.99617 -0.07456
vn -0.02929 0.99750 -0.06438
vn -0.04772 0.99778 -0.04646
vn -0.04465 0.99819 -0.04028
vn -0.01762 0.99917 -0.03663
vn -0.01297 0.99992 -0.00041
vn -0.06713 0.99062 -0.11905
vn -0.04918 0.99370 -0.10074
vn -0.03677 0.99492 -0.09368
vn -0.01571 0.99855 -0.05146
vn -0.02500 0.99884 -0.04120
vn -0.03668 0.99874 -0.03418
vn -0.05175 0.99809 -0.03387
vn -0.00375 0.99803 -0.06258
vn 0.01645 0.99931 -0.03324

f 1/1/1 2/2/2 3/3/3
f 1/1/1 3/3/3 4/4/4
f 4/4/4 3/3/3 5/5/5
f 5/5/5 3/3/3 6/6/6
f 5/5/5 6/6/6 7/7/7
f 5/5/5 7/7/7 8/8/8
f 8/8/8 7/7/7 9/9/9
f 9/9/9 7/7/7 10/10/10
f 9/9/9 10/10/10 11/11/11
f 9/9/9 11/11/11 12/12/12
f 12/12/12 11/11/11 13/13/13
f 13/13/13 11/11/11 14/14/14
f 13/13/13 14/14/14 15/15/15
f 13/13/13 15/15/15 16/16/16
f 16/16/16 15/15/15 17/17/17
f 17/17/17 15/15/15 18/18/18
f 2/2/2 19/19/19 3/3/3
f 3/3/3 19/19/19 20/20/20
f 3/3/3 20/20/20 21/21/21
f 3/3/3 21/21/21 6/6/6
f 6/6/6 21/21/21 7/7/7
f 7/7/7 21/21/21 22/22/22
f 7/7/7 22/22/22 23/23/23
f 7/7/7 23/23/23 10/10/10
f 10/10/10 23/23/23 11/11/11
f 11/11/11 23/23/23 24/24/24
f 11/11/11 24/24/24 25/25/25
f 11/11/11 25/25/25 14/14/14
f 14/14/14 25/25/25 15/15/15
f 15/15/15 25/25/25 26/26/26
f 15/15/15 26/26/26 27/27/27
f 15/15/15 27/27/27 18/18/18
f 19/19/19 28/28/28 29/29/29
f 19/19/19 29/29/29 20/20/20
f 20/20/20 29/29/29 21/21/21
f 21/21/21 29/29/29 30/30/30
f 21/21/21 30/30/30 31/31/31
f 21/21/21 31/31/31 22/22/22
f 22/22/22 31/31/31 23/23/23
f 23/23/23 31/31/31 32/32/32
f 23/23/23 32/32/32 33/33/33
f 23/23/23 33/33/33 24/24/24
f 24/24/24 33/33/33 25/25/25
f 25/25/25 33/33/33 34/34/34
f 25/25/25 34/34/34 35/35/35
f 25/25/25 35/35/35 26/26/26
f 26/26/26 35/35/35 27/27/27
f 27/27/27 35/35/35 36/36/36
f 28/28/28 37/37/37 29/29/29
f 29/29/29 37/37/37 38/38/38
f 29/29/29 38/38/38 39/39/39
f 29/29/29 39/39/39 30/30/30
f 30/30/30 39/39/39 31/31/31
f 31/31/31 39/39/39 40/40/40
f 31/31/31 40/40/40 41/41/41
f 31/31/31 41/41/41 32/32/32
f 32/32/32 41/41/41 33/33/33
f 33/33/33 41/41/41 42/42/42
f 33/33/33 42/42/42 43/43/43
f 33/33/33 43/43/43 34/34/34
f 34/34/34 43/43/43 35/35/35
f 35/35/35 43/43/43 44/44/44
f 35/35/35 44/44/44 45/45/45
f 35/35/35 45/45/45 36/36/36
f 37/37/37 46/46/46 47/47/47
f 37/37/37 47/47/47 38/38/38
f 38/38/38 47/47/47 39/39/39
f 39/39/39 47/47/47 48/48/48
f 39/39/39 48/48/48 49/49/49
f 39/39/39 49/49/49 40/40/40
f 40/40/40 49/49/49 41/41/41
f 41/41/41 49/49/49 50/50/50
f 41/41/41 50/50/50 51/51/51
f 41/41/41 51/51/51 42/42/42
f 42/42/42 51/51/51 43/43/43
f 43/43/43 51/51/51 52/52/52
f 43/43/43 52/52/52 53/53/53
f 43/43/43 53/53/53 44/44/44
f 44/44/44 53/53/53 45/45/45
f 45/45/45 53/53/53 54/54/54
f 46/46/46 55/55/55 47/47/47
f 47/47/47 55/55/55 56/56/56
f 47/47/47 56/56/56 57/57/57
f 47/47/47 57/57/57 48/48/48
f 48/48/48 57/57/57 49/49/49
f 49/49/49 57/57/57 58/58/58
f 49/49/49 58/58/58 59/59/59
f 49/49/49 59/59/59 50/50/50
f 50/50/50 59/59/59 51/51/51
f 51/51/51 59/59/59 60/60/60
f 51/51/51 60/60/60 61/61/61
f 51/51/51 61/61/61 52/52/52
f 52/52/52 61/61/61 53/53/53
f 53/53/53 61/61/61 62/62/62
f 53/53/53 62/62/62 63/63/63
f 53/53/53 63/63/63 54/54/54
f 55/55/55 64/64/64 65/65/65
f 55/55/55 65/65/65 56/56/56
f 56/56/56 65/65/65 57/57/57
f 57/57/57 65/65/65 66/66/66
f 57/57/57 66/66/66 67/67/67
f 57/57/57 67/67/67 58/58/58
f 58/58/58 67/67/67 59/59/59
f 59/59/59 67/67/67 68/68/68
f 59/59/59 68/68/68 69/69/69
f 59/59/59 69/69/69 60/60/60
f 60/60/60 69/69/69 61/61/61
f 61/61/61 69/69/69 70/70/70
f 61/61/61 70/70/70 71/71/71
f 61/61/61 71/71/71 62/62/62
f 62/62/62 71/71/71 63/63/63
f 63/63/63 71/71/71 72/72/72
f 64/64/64 73/73/73 65/65/65
f 65/65/65 73/73/73 74/74/74
f 65/65/65 74/74/74 75/75/75
f 65/65/65 75/75/75 66/66/66
f 66/66/66 75/75/75 67/67/67
f 67/67/67 75/75/75 76/76/76
f 67/67/67 76/76/76 77/77/77
f 67/67/67 77/77/77 68/68/68
f 68/68/68 77/77/77 69/69/69
f 69/69/69 77/77/77 78/78/78
f 69/69/69 78/78/78 79/79/79
f 69/69/69 79/79/79 70/70/70
f 70/70/70 79/79/79 71/71/71
f 71/71/71 79/79/79 80/80/80
f 71/71/71 80/80/80 81/81/81
f 71/71/71 81/81/81 72/72/72
