# Generated by tools/generate_island.py. Do not edit by hand.
o terrain_lod2_-7_-1

v -784.000 -10.800 -48.000 0.487 0.456 0.267
v -784.000 -10.800 -32.000 0.462 0.430 0.250
v -768.000 -10.714 -32.000 0.506 0.476 0.279
v -768.000 -10.800 -48.000 0.454 0.422 0.245
v -784.000 -10.800 -16.000 0.507 0.477 0.280
v -768.000 -10.445 -16.000 0.514 0.484 0.285
v -800.000 -10.800 0.000 0.528 0.498 0.294
v -784.000 -10.665 0.000 0.514 0.484 0.285
v -768.000 -9.414 0.000 0.519 0.489 0.288

vt 0.091667 0.525000
vt 0.091667 0.516667
vt 0.100000 0.516667
vt 0.100000 0.525000
vt 0.091667 0.508333
vt 0.100000 0.508333
vt 0.083333 0.500000
vt 0.091667 0.500000
vt 0.100000 0.500000

vn -0.00269 0.99999 -0.00269
vn -0.00539 0.99999 0.00000
vn -0.00825 0.99995 -0.00555
vn 0.00000 0.99999 -0.00539
vn -0.02727 0.99944 -0.01962
vn -0.02219 0.99893 -0.04057
vn -0.00846 0.99993 -0.00846
vn -0.04326 0.99903 -0.00845
vn -0.05009 0.99808 -0.03636

f 1/1/1 2/2/2 3/3/3
f 1/1/1 3/3/3 4/4/4
f 2/2/2 5/5/5 3/3/3
f 3/3/3 5/5/5 6/6/6
f 5/5/5 7/7/7 8/8/8
f 5/5/5 8/8/8 9/9/9
f 5/5/5 9/9/9 6/6/6
