# Generated by tools/generate_island.py. Do not edit by hand.
o terrain_lod2_6_7

v 768.000 -10.800 896.000 0.477 0.446 0.260
v 768.000 -10.800 912.000 0.533 0.503 0.297
v 784.000 -10.800 912.000 0.506 0.475 0.279
v 784.000 -10.800 896.000 0.476 0.445 0.260
v 800.000 -10.800 896.000 0.437 0.404 0.234
v 800.000 -10.800 912.000 0.469 0.437 0.255
v 816.000 -10.800 912.000 0.403 0.370 0.212
v 816.000 -10.800 896.000 0.424 0.391 0.225
v 832.000 -10.800 896.000 0.427 0.395 0.228
v 832.000 -10.800 912.000 0.428 0.395 0.228
v 848.000 -10.800 912.000 0.426 0.393 0.226
v 848.000 -10.800 896.000 0.420 0.387 0.223
v 864.000 -10.800 896.000 0.395 0.362 0.207
v 864.000 -10.800 912.000 0.436 0.404 0.233
v 880.000 -10.800 912.000 0.413 0.380 0.218
v 880.000 -10.800 896.000 0.412 0.379 0.218
v 896.000 -10.800 896.000 0.448 0.416 0.241
v 896.000 -10.800 912.000 0.394 0.360 0.206
v 768.000 -10.800 928.000 0.556 0.527 0.312
v 784.000 -10.800 928.000 0.556 0.527 0.312
v 800.000 -10.800 928.000 0.531 0.502 0.296
v 816.000 -10.800 928.000 0.517 0.487 0.286
v 832.000 -10.800 928.000 0.497 0.466 0.273
v 848.000 -10.800 928.000 0.447 0.415 0.241
v 864.000 -10.800 928.000 0.437 0.405 0.234
v 880.000 -10.800 928.000 0.432 0.399 0.231
v 896.000 -10.800 928.000 0.475 0.444 0.259
v 768.000 -10.800 944.000 0.546 0.517 0.306
v 784.000 -10.800 944.000 0.529 0.500 0.295
v 800.000 -10.800 944.000 0.553 0.524 0.310
v 816.000 -10.800 944.000 0.553 0.524 0.310
v 832.000 -10.800 944.000 0.585 0.557 0.331
v 848.000 -10.800 944.000 0.511 0.481 0.283
v 864.000 -10.800 944.000 0.461 0.429 0.250
v 880.000 -10.800 944.000 0.449 0.417 0.242
v 896.000 -10.800 944.000 0.496 0.466 0.273
v 768.000 -10.800 960.000 0.499 0.469 0.275
v 784.000 -10.800 960.000 0.520 0.490 0.288
v 800.000 -10.800 960.000 0.501 0.471 0.276
v 816.000 -10.800 960.000 0.531 0.501 0.296
v 832.000 -10.800 960.000 0.512 0.482 0.283
v 848.000 -10.800 960.000 0.509 0.479 0.281
v 864.000 -10.800 960.000 0.461 0.429 0.250
v 880.000 -10.800 960.000 0.426 0.393 0.227
v 896.000 -10.800 960.000 0.471 0.440 0.256

vt 0.900000 0.033333
vt 0.900000 0.025000
vt 0.908333 0.025000
vt 0.908333 0.033333
vt 0.916667 0.033333
vt 0.916667 0.025000
vt 0.925000 0.025000
vt 0.925000 0.033333
vt 0.933333 0.033333
vt 0.933333 0.025000
vt 0.941667 0.025000
vt 0.941667 0.033333
vt 0.950000 0.033333
vt 0.950000 0.025000
vt 0.958333 0.025000
vt 0.958333 0.033333
vt 0.966667 0.033333
vt 0.966667 0.025000
vt 0.900000 0.016667
vt 0.908333 0.016667
vt 0.916667 0.016667
vt 0.925000 0.016667
vt 0.933333 0.016667
vt 0.941667 0.016667
vt 0.950000 0.016667
vt 0.958333 0.016667
vt 0.966667 0.016667
vt 0.900000 0.008333
vt 0.908333 0.008333
vt 0.916667 0.008333
vt 0.925000 0.008333
vt 0.933333 0.008333
vt 0.941667 0.008333
vt 0.950000 0.008333
vt 0.958333 0.008333
vt 0.966667 0.008333
vt 0.900000 0.000000
vt 0.908333 0.000000
vt 0.916667 0.000000
vt 0.925000 0.000000
vt 0.933333 0.000000
vt 0.941667 0.000000
vt 0.950000 0.000000
vt 0.958333 0.000000
vt 0.966667 0.000000

vn 0.00000 1.00000 0.00000
vn 0.00000 1.00000 0.00000
vn 0.00000 1.00000 0.00000
vn 0.00000 1.00000 0.00000
vn 0.00000 1.00000 0.00000
vn 0.00000 1.00000 0.00000
vn 0.00000 1.00000 0.00000
vn 0.00000 1.00000 0.00000
vn 0.00000 1.00000 0.00000
vn 0.00000 1.00000 0.00000
vn 0.00000 1.00000 0.00000
vn 0.00000 1.00000 0.00000
vn 0.00000 1.00000 0.00000
vn 0.00000 1.00000 0.00000
vn 0.00000 1.00000 0.00000
vn 0.00000 1.00000 0.00000
vn 0.00000 1.00000 0.00000
vn 0.00000 1.00000 0.00000
vn 0.00000 1.00000 0.00000
vn 0.00000 1.00000 0.00000
vn 0.00000 1.00000 0.00000
vn 0.00000 1.00000 0.00000
vn 0.00000 1.00000 0.00000
vn 0.00000 1.00000 0.00000
vn 0.00000 1.00000 0.00000
vn 0.00000 1.00000 0.00000
vn 0.00000 1.00000 0.00000
vn 0.00000 1.00000 0.00000
vn 0.00000 1.00000 0.00000
vn 0.00000 1.00000 0.00000
vn 0.00000 1.00000 0.00000
vn 0.00000 1.00000 0.00000
vn 0.00000 1.00000 0.00000
vn 0.00000 1.00000 0.00000
vn 0.00000 1.00000 0.00000
vn 0.00000 1.00000 0.00000
vn 0.00000 1.00000 0.00000
vn 0.00000 1.00000 0.00000
vn 0.00000 1.00000 0.00000
vn 0.00000 1.00000 0.00000
vn 0.00000 1.00000 0.00000
vn 0.00000 1.00000 0.00000
vn 0.00000 1.00000 0.00000
vn 0.00000 1.00000 0.00000
vn 0.00000 1.00000 0.00000

f 1/1/1 2/2/2 3/3/3
f 1/1/1 3/3/3 4/4/4
f 4/4/4 3/3/3 5/5/5
f 5/5/5 3/3/3 6/6/6
f 5/5/5 6/6/6 7/7/7
f 5/5/5 7/7/7 8/8/8
f 8/8/8 7/7/7 9/9/9
f 9/9/9 7/7/7 10/10/10
f 9/9/9 10/10/10 11/11/11
f 9/9/9 11/11/11 12/12/12
f 12/12/12 11/11/11 13/13/13
f 13/13/13 11/11/11 14/14/14
f 13/13/13 14/14/14 15/15/15
f 13/13/13 15/15/15 16/16/16
f 16/16/16 15/15/15 17/17/17
f 17/17/17 15/15/15 18/18/18
f 2/2/2 19/19/19 3/3/3
f 3/3/3 19/19/19 20/20/20
f 3/3/3 20/20/20 21/21/21
f 3/3/3 21/21/21 6/6/6
f 6/6/6 21/21/21 7/7/7
f 7/7/7 21/21/21 22/22/22
f 7/7/7 22/22/22 23/23/23
f 7/7/7 23/23/23 10/10/10
f 10/10/10 23/23/23 11/11/11
f 11/11/11 23/23/23 24/24/24
f 11/11/11 24/24/24 25/25/25
f 11/11/11 25/25/25 14/14/14
f 14/14/14 25/25/25 15/15/15
f 15/15/15 25/25/25 26/26/26
f 15/15/15 26/26/26 27/27/27
f 15/15/15 27/27/27 18/18/18
f 19/19/19 28/28/28 29/29/29
f 19/19/19 29/29/29 20/20/20
f 20/20/20 29/29/29 21/21/21
f 21/21/21 29/29/29 30/30/30
f 21/21/21 30/30/30 31/31/31
f 21/21/21 31/31/31 22/22/22
f 22/22/22 31/31/31 23/23/23
f 23/23/23 31/31/31 32/32/32
f 23/23/23 32/32/32 33/33/33
f 23/23/23 33/33/33 24/24/24
f 24/24/24 33/33/33 25/25/25
f 25/25/25 33/33/33 34/34/34
f 25/25/25 34/34/34 35/35/35
f 25/25/25 35/35/35 26/26/26
f 26/26/26 35/35/35 27/27/27
f 27/27/27 35/35/35 36/36/36
f 28/28/28 37/37/37 29/29/29
f 29/29/29 37/37/37 38/38/38
f 29/29/29 38/38/38 39/39/39
f 29/29/29 39/39/39 30/30/30
f 30/30/30 39/39/39 31/31/31
f 31/31/31 39/39/39 40/40/40
f 31/31/31 40/40/40 41/41/41
f 31/31/31 41/41/41 32/32/32
f 32/32/32 41/41/41 33/33/33
f 33/33/33 41/41/41 42/42/42
f 33/33/33 42/42/42 43/43/43
f 33/33/33 43/43/43 34/34/34
f 34/34/34 43/43/43 35/35/35
f 35/35/35 43/43/43 44/44/44
f 35/35/35 44/44/44 45/45/45
f 35/35/35 45/45/45 36/36/36
