# Generated by tools/generate_island.py. Do not edit by hand.
o terrain_lod2_5_1

v 640.000 -3.670 128.000 0.512 0.482 0.283
v 640.000 -3.344 144.000 0.548 0.519 0.307
v 656.000 -3.549 144.000 0.551 0.522 0.309
v 656.000 -3.549 128.000 0.527 0.497 0.293
v 672.000 -3.759 128.000 0.529 0.499 0.294
v 672.000 -4.374 144.000 0.509 0.478 0.281
v 688.000 -5.232 144.000 0.467 0.435 0.254
v 688.000 -5.068 128.000 0.480 0.449 0.262
v 704.000 -6.032 128.000 0.429 0.396 0.228
v 704.000 -5.490 144.000 0.384 0.350 0.199
v 720.000 -6.772 144.000 0.410 0.376 0.216
v 720.000 -6.650 128.000 0.416 0.383 0.220
v 736.000 -7.323 128.000 0.455 0.423 0.245
v 736.000 -7.747 144.000 0.474 0.442 0.258
v 752.000 -7.896 144.000 0.528 0.498 0.294
v 752.000 -7.693 128.000 0.450 0.418 0.242
v 768.000 -8.468 128.000 0.489 0.458 0.268
v 768.000 -8.577 144.000 0.519 0.488 0.288
v 640.000 -3.391 160.000 0.527 0.497 0.293
v 656.000 -3.636 160.000 0.533 0.504 0.297
v 672.000 -4.510 160.000 0.515 0.485 0.285
v 688.000 -5.002 160.000 0.469 0.438 0.255
v 704.000 -5.759 160.000 0.424 0.391 0.226
v 720.000 -7.129 160.000 0.407 0.374 0.214
v 736.000 -7.459 160.000 0.515 0.485 0.285
v 752.000 -7.587 160.000 0.523 0.493 0.290
v 768.000 -8.944 160.000 0.513 0.483 0.284
v 640.000 -3.194 176.000 0.530 0.501 0.295
v 656.000 -3.814 176.000 0.556 0.527 0.312
v 672.000 -4.641 176.000 0.521 0.492 0.290
v 688.000 -4.939 176.000 0.487 0.456 0.267
v 704.000 -6.088 176.000 0.380 0.346 0.196
v 720.000 -7.079 176.000 0.404 0.371 0.212
v 736.000 -7.261 176.000 0.504 0.474 0.278
v 752.000 -8.222 176.000 0.561 0.532 0.315
v 768.000 -9.052 176.000 0.548 0.519 0.307
v 640.000 -3.730 192.000 0.493 0.462 0.271
v 656.000 -4.462 192.000 0.501 0.470 0.276
v 672.000 -4.426 192.000 0.503 0.472 0.277
v 688.000 -4.905 192.000 0.460 0.428 0.249
v 704.000 -6.399 192.000 0.404 0.370 0.212
v 720.000 -7.177 192.000 0.411 0.378 0.217
v 736.000 -7.576 192.000 0.450 0.418 0.243
v 752.000 -8.348 192.000 0.503 0.472 0.277
v 768.000 -8.850 192.000 0.545 0.516 0.305
v 640.000 -3.877 208.000 0.416 0.382 0.220
v 656.000 -4.636 208.000 0.433 0.400 0.231
v 672.000 -4.901 208.000 0.455 0.423 0.246
v 688.000 -5.677 208.000 0.431 0.398 0.230
v 704.000 -6.321 208.000 0.413 0.380 0.218
v 720.000 -6.551 208.000 0.402 0.368 0.211
v 736.000 -7.943 208.000 0.396 0.363 0.207
v 752.000 -9.105 208.000 0.481 0.449 0.263
v 768.000 -9.031 208.000 0.487 0.456 0.267
v 640.000 -4.393 224.000 0.380 0.346 0.197
v 656.000 -4.516 224.000 0.388 0.354 0.201
v 672.000 -4.945 224.000 0.425 0.392 0.226
v 688.000 -5.883 224.000 0.423 0.390 0.225
v 704.000 -6.348 224.000 0.425 0.392 0.226
v 720.000 -6.971 224.000 0.418 0.385 0.222
v 736.000 -8.114 224.000 0.383 0.349 0.199
v 752.000 -8.486 224.000 0.453 0.420 0.244
v 768.000 -9.190 224.000 0.420 0.387 0.223
v 640.000 -4.043 240.000 0.444 0.411 0.238
v 656.000 -4.332 240.000 0.386 0.352 0.200
v 672.000 -5.447 240.000 0.415 0.382 0.219
v 688.000 -5.976 240.000 0.447 0.415 0.241
v 704.000 -6.106 240.000 0.422 0.389 0.224
v 720.000 -7.343 240.000 0.386 0.352 0.200
v 736.000 -8.253 240.000 0.384 0.350 0.199
v 752.000 -8.631 240.000 0.415 0.382 0.219
v 768.000 -9.603 240.000 0.470 0.439 0.256
v 640.000 -4.125 256.000 0.467 0.436 0.254
v 656.000 -4.874 256.000 0.418 0.385 0.221
v 672.000 -5.812 256.000 0.438 0.405 0.234
v 688.000 -5.685 256.000 0.452 0.420 0.244
v 704.000 -6.396 256.000 0.436 0.403 0.233
v 720.000 -7.607 256.000 0.436 0.403 0.233
v 736.000 -8.004 256.000 0.408 0.374 0.214
v 752.000 -8.748 256.000 0.444 0.411 0.238
v 768.000 -9.862 256.000 0.422 0.389 0.224

vt 0.833333 0.433333
vt 0.833333 0.425000
vt 0.841667 0.425000
vt 0.841667 0.433333
vt 0.850000 0.433333
vt 0.850000 0.425000
vt 0.858333 0.425000
vt 0.858333 0.433333
vt 0.866667 0.433333
vt 0.866667 0.425000
vt 0.875000 0.425000
vt 0.875000 0.433333
vt 0.883333 0.433333
vt 0.883333 0.425000
vt 0.891667 0.425000
vt 0.891667 0.433333
vt 0.900000 0.433333
vt 0.900000 0.425000
vt 0.833333 0.416667
vt 0.841667 0.416667
vt 0.850000 0.416667
vt 0.858333 0.416667
vt 0.866667 0.416667
vt 0.875000 0.416667
vt 0.883333 0.416667
vt 0.891667 0.416667
vt 0.900000 0.416667
vt 0.833333 0.408333
vt 0.841667 0.408333
vt 0.850000 0.408333
vt 0.858333 0.408333
vt 0.866667 0.408333
vt 0.875000 0.408333
vt 0.883333 0.408333
vt 0.891667 0.408333
vt 0.900000 0.408333
vt 0.833333 0.400000
vt 0.841667 0.400000
vt 0.850000 0.400000
vt 0.858333 0.400000
vt 0.866667 0.400000
vt 0.875000 0.400000
vt 0.883333 0.400000
vt 0.891667 0.400000
vt 0.900000 0.400000
vt 0.833333 0.391667
vt 0.841667 0.391667
vt 0.850000 0.391667
vt 0.858333 0.391667
vt 0.866667 0.391667
vt 0.875000 0.391667
vt 0.883333 0.391667
vt 0.891667 0.391667
vt 0.900000 0.391667
vt 0.833333 0.383333
vt 0.841667 0.383333
vt 0.850000 0.383333
vt 0.858333 0.383333
vt 0.866667 0.383333
vt 0.875000 0.383333
vt 0.883333 0.383333
vt 0.891667 0.383333
vt 0.900000 0.383333
vt 0.833333 0.375000
vt 0.841667 0.375000
vt 0.850000 0.375000
vt 0.858333 0.375000
vt 0.866667 0.375000
vt 0.875000 0.375000
vt 0.883333 0.375000
vt 0.891667 0.375000
vt 0.900000 0.375000
vt 0.833333 0.366667
vt 0.841667 0.366667
vt 0.850000 0.366667
vt 0.858333 0.366667
vt 0.866667 0.366667
vt 0.875000 0.366667
vt 0.883333 0.366667
vt 0.891667 0.366667
vt 0.900000 0.366667

vn 0.00264 0.99994 -0.01017
vn 0.01283 0.99988 -0.00873
vn 0.02553 0.99966 0.00504
vn 0.00279 1.00000 0.00003
vn 0.04995 0.99851 0.02177
vn 0.05250 0.99835 0.02342
vn 0.04490 0.99899 0.00270
vn 0.07085 0.99743 0.01025
vn 0.04872 0.99873 -0.01245
vn 0.04805 0.99881 -0.00854
vn 0.05853 0.99826 0.00639
vn 0.04030 0.99916 0.00758
vn 0.03383 0.99926 0.01832
vn 0.03510 0.99937 0.00425
vn 0.03350 0.99943 0.00312
vn 0.03577 0.99928 0.01266
vn 0.04548 0.99892 0.00973
vn 0.04255 0.99898 0.01485
vn 0.02056 0.99979 0.00179
vn 0.03496 0.99935 0.00826
vn 0.04325 0.99906 0.00394
vn 0.03899 0.99920 -0.00914
vn 0.06185 0.99804 0.00944
vn 0.05306 0.99855 0.00958
vn 0.02486 0.99969 -0.00266
vn 0.04636 0.99887 0.01019
vn 0.06588 0.99775 0.01249
vn 0.03871 0.99919 0.01061
vn 0.03676 0.99921 0.01489
vn 0.03515 0.99938 -0.00263
vn 0.04773 0.99886 0.00281
vn 0.06670 0.99757 0.01996
vn 0.04076 0.99915 0.00666
vn 0.03571 0.99936 0.00367
vn 0.04948 0.99870 0.01206
vn 0.05179 0.99865 -0.00294
vn 0.04436 0.99874 0.02348
vn 0.02172 0.99943 0.02567
vn 0.02383 0.99958 0.01624
vn 0.06153 0.99784 0.02299
vn 0.05894 0.99825 0.00525
vn 0.03677 0.99919 -0.01650
vn 0.04713 0.99880 0.01341
vn 0.03975 0.99883 0.02754
vn 0.02749 0.99953 0.01345
vn 0.04738 0.99866 0.02068
vn 0.02573 0.99962 0.01007
vn 0.03250 0.99934 0.01620
vn 0.04850 0.99864 0.01891
vn 0.02730 0.99963 -0.00159
vn 0.04829 0.99883 0.00058
vn 0.07955 0.99669 0.01673
vn 0.03534 0.99933 0.00901
vn -0.00459 0.99993 0.01064
vn 0.02022 0.99979 -0.00215
vn 0.01724 0.99981 -0.00950
vn 0.04229 0.99907 0.00848
vn 0.04382 0.99900 0.00933
vn 0.03448 0.99939 0.00516
vn 0.05507 0.99818 0.02470
vn 0.05362 0.99853 0.00732
vn 0.03363 0.99932 -0.01480
vn 0.03602 0.99935 0.00153
vn 0.01803 0.99980 -0.00837
vn 0.03938 0.99917 0.01027
vn 0.05128 0.99832 0.02707
vn 0.02582 0.99966 0.00406
vn 0.04268 0.99909 0.00150
vn 0.05979 0.99817 0.00944
vn 0.04022 0.99918 -0.00343
vn 0.04398 0.99900 0.00846
vn 0.06063 0.99794 0.02094
vn 0.03240 0.99928 0.01949
vn 0.05261 0.99804 0.03384
vn 0.03832 0.99915 0.01535
vn 0.01825 0.99967 -0.01815
vn 0.05132 0.99864 0.00866
vn 0.05016 0.99860 0.01650
vn 0.03793 0.99928 -0.00183
vn 0.05797 0.99829 0.00730
vn 0.06504 0.99781 0.01172

f 1/1/1 2/2/2 3/3/3
f 1/1/1 3/3/3 4/4/4
f 4/4/4 3/3/3 5/5/5
f 5/5/5 3/3/3 6/6/6
f 5/5/5 6/6/6 7/7/7
f 5/5/5 7/7/7 8/8/8
f 8/8/8 7/7/7 9/9/9
f 9/9/9 7/7/7 10/10/10
f 9/9/9 10/10/10 11/11/11
f 9/9/9 11/11/11 12/12/12
f 12/12/12 11/11/11 13/13/13
f 13/13/13 11/11/11 14/14/14
f 13/13/13 14/14/14 15/15/15
f 13/13/13 15/15/15 16/16/16
f 16/16/16 15/15/15 17/17/17
f 17/17/17 15/15/15 18/18/18
f 2/2/2 19/19/19 3/3/3
f 3/3/3 19/19/19 20/20/20
f 3/3/3 20/20/20 21/21/21
f 3/3/3 21/21/21 6/6/6
f 6/6/6 21/21/21 7/7/7
f 7/7/7 21/21/21 22/22/22
f 7/7/7 22/22/22 23/23/23
f 7/7/7 23/23/23 10/10/10
f 10/10/10 23/23/23 11/11/11
f 11/11/11 23/23/23 24/24/24
f 11/11/11 24/24/24 25/25/25
f 11/11/11 25/25/25 14/14/14
f 14/14/14 25/25/25 15/15/15
f 15/15/15 25/25/25 26/26/26
f 15/15/15 26/26/26 27/27/27
f 15/15/15 27/27/27 18/18/18
f 19/19/19 28/28/28 29/29/29
f 19/19/19 29/29/29 20/20/20
f 20/20/20 29/29/29 21/21/21
f 21/21/21 29/29/29 30/30/30
f 21/21/21 30/30/30 31/31/31
f 21/21/21 31/31/31 22/22/22
f 22/22/22 31/31/31 23/23/23
f 23/23/23 31/31/31 32/32/32
f 23/23/23 32/32/32 33/33/33
f 23/23/23 33/33/33 24/24/24
f 24/24/24 33/33/33 25/25/25
f 25/25/25 33/33/33 34/34/34
f 25/25/25 34/34/34 35/35/35
f 25/25/25 35/35/35 26/26/26
f 26/26/26 35/35/35 27/27/27
f 27/27/27 35/35/35 36/36/36
f 28/28/28 37/37/37 29/29/29
f 29/29/29 37/37/37 38/38/38
f 29/29/29 38/38/38 39/39/39
f 29/29/29 39/39/39 30/30/30
f 30/30/30 39/39/39 31/31/31
f 31/31/31 39/39/39 40/40/40
f 31/31/31 40/40/40 41/41/41
f 31/31/31 41/41/41 32/32/32
f 32/32/32 41/41/41 33/33/33
f 33/33/33 41/41/41 42/42/42
f 33/33/33 42/42/42 43/43/43
f 33/33/33 43/43/43 34/34/34
f 34/34/34 43/43/43 35/35/35
f 35/35/35 43/43/43 44/44/44
f 35/35/35 44/44/44 45/45/45
f 35/35/35 45/45/45 36/36/36
f 37/37/37 46/46/46 47/47/47
f 37/37/37 47/47/47 38/38/38
f 38/38/38 47/47/47 39/39/39
f 39/39/39 47/47/47 48/48/48
f 39/39/39 48/48/48 49/49/49
f 39/39/39 49/49/49 40/40/40
f 40/40/40 49/49/49 41/41/41
f 41/41/41 49/49/49 50/50/50
f 41/41/41 50/50/50 51/51/51
f 41/41/41 51/51/51 42/42/42
f 42/42/42 51/51/51 43/43/43
f 43/43/43 51/51/51 52/52/52
f 43/43/43 52/52/52 53/53/53
f 43/43/43 53/53/53 44/44/44
f 44/44/44 53/53/53 45/45/45
f 45/45/45 53/53/53 54/54/54
f 46/46/46 55/55/55 47/47/47
f 47/47/47 55/55/55 56/56/56
f 47/47/47 56/56/56 57/57/57
f 47/47/47 57/57/57 48/48/48
f 48/48/48 57/57/57 49/49/49
f 49/49/49 57/57/57 58/58/58
f 49/49/49 58/58/58 59/59/59
f 49/49/49 59/59/59 50/50/50
f 50/50/50 59/59/59 51/51/51
f 51/51/51 59/59/59 60/60/60
f 51/51/51 60/60/60 61/61/61
f 51/51/51 61/61/61 52/52/52
f 52/52/52 61/61/61 53/53/53
f 53/53/53 61/61/61 62/62/62
f 53/53/53 62/62/62 63/63/63
f 53/53/53 63/63/63 54/54/54
f 55/55/55 64/64/64 65/65/65
f 55/55/55 65/65/65 56/56/56
f 56/56/56 65/65/65 57/57/57
f 57/57/57 65/65/65 66/66/66
f 57/57/57 66/66/66 67/67/67
f 57/57/57 67/67/67 58/58/58
f 58/58/58 67/67/67 59/59/59
f 59/59/59 67/67/67 68/68/68
f 59/59/59 68/68/68 69/69/69
f 59/59/59 69/69/69 60/60/60
f 60/60/60 69/69/69 61/61/61
f 61/61/61 69/69/69 70/70/70
f 61/61/61 70/70/70 71/71/71
f 61/61/61 71/71/71 62/62/62
f 62/62/62 71/71/71 63/63/63
f 63/63/63 71/71/71 72/72/72
f 64/64/64 73/73/73 65/65/65
f 65/65/65 73/73/73 74/74/74
f 65/65/65 74/74/74 75/75/75
f 65/65/65 75/75/75 66/66/66
f 66/66/66 75/75/75 67/67/67
f 67/67/67 75/75/75 76/76/76
f 67/67/67 76/76/76 77/77/77
f 67/67/67 77/77/77 68/68/68
f 68/68/68 77/77/77 69/69/69
f 69/69/69 77/77/77 78/78/78
f 69/69/69 78/78/78 79/79/79
f 69/69/69 79/79/79 70/70/70
f 70/70/70 79/79/79 71/71/71
f 71/71/71 79/79/79 80/80/80
f 71/71/71 80/80/80 81/81/81
f 71/71/71 81/81/81 72/72/72
