# Generated by tools/generate_island.py. Do not edit by hand.
o terrain_lod2_-2_-2

v -256.000 -0.214 -256.000 0.385 0.351 0.200
v -256.000 0.130 -240.000 0.413 0.379 0.218
v -240.000 -0.265 -240.000 0.383 0.349 0.199
v -240.000 -0.567 -256.000 0.371 0.336 0.190
v -224.000 -1.008 -256.000 0.434 0.401 0.232
v -224.000 -0.945 -240.000 0.414 0.381 0.219
v -208.000 -0.120 -240.000 0.459 0.427 0.248
v -208.000 -0.205 -256.000 0.471 0.439 0.256
v -192.000 1.015 -256.000 0.247 0.321 0.119
v -192.000 0.179 -240.000 0.463 0.431 0.251
v -176.000 0.906 -240.000 0.231 0.308 0.114
v -176.000 1.615 -256.000 0.255 0.327 0.122
v -160.000 1.011 -256.000 0.218 0.299 0.109
v -160.000 1.350 -240.000 0.219 0.299 0.110
v -144.000 0.856 -240.000 0.433 0.400 0.231
v -144.000 0.764 -256.000 0.401 0.368 0.210
v -128.000 -0.772 -256.000 0.374 0.339 0.192
v -128.000 -0.244 -240.000 0.398 0.364 0.208
v -256.000 1.411 -224.000 0.194 0.280 0.101
v -240.000 0.890 -224.000 0.191 0.277 0.100
v -224.000 0.528 -224.000 0.458 0.426 0.248
v -208.000 1.485 -224.000 0.215 0.296 0.108
v -192.000 2.135 -224.000 0.204 0.287 0.105
v -176.000 1.023 -224.000 0.217 0.298 0.109
v -160.000 1.374 -224.000 0.211 0.293 0.107
v -144.000 0.953 -224.000 0.181 0.270 0.097
v -128.000 -0.977 -224.000 0.400 0.366 0.209
v -256.000 2.207 -208.000 0.257 0.329 0.122
v -240.000 2.306 -208.000 0.231 0.309 0.114
v -224.000 2.264 -208.000 0.216 0.297 0.109
v -208.000 1.940 -208.000 0.211 0.293 0.107
v -192.000 0.826 -208.000 0.495 0.464 0.272
v -176.000 0.936 -208.000 0.217 0.298 0.109
v -160.000 1.258 -208.000 0.216 0.297 0.109
v -144.000 1.831 -208.000 0.185 0.273 0.098
v -128.000 -0.557 -208.000 0.417 0.384 0.221
v -256.000 1.426 -192.000 0.251 0.324 0.120
v -240.000 2.217 -192.000 0.248 0.322 0.119
v -224.000 1.862 -192.000 0.238 0.314 0.116
v -208.000 1.726 -192.000 0.270 0.339 0.127
v -192.000 2.649 -192.000 0.274 0.342 0.128
v -176.000 2.092 -192.000 0.276 0.344 0.129
v -160.000 2.092 -192.000 0.248 0.322 0.119
v -144.000 1.904 -192.000 0.228 0.306 0.113
v -128.000 2.415 -192.000 0.169 0.260 0.093
v -256.000 0.782 -176.000 0.489 0.458 0.268
v -240.000 1.457 -176.000 0.242 0.317 0.117
v -224.000 -0.191 -176.000 0.510 0.480 0.282
v -208.000 -0.167 -176.000 0.580 0.552 0.328
v -192.000 2.649 -176.000 0.310 0.370 0.140
v -176.000 2.700 -176.000 0.310 0.370 0.140
v -160.000 2.176 -176.000 0.308 0.368 0.139
v -144.000 1.984 -176.000 0.219 0.299 0.110
v -128.000 0.651 -176.000 0.424 0.391 0.225
v -256.000 1.137 -160.000 0.193 0.279 0.101
v -240.000 0.982 -160.000 0.227 0.306 0.112
v -224.000 -1.723 -160.000 0.510 0.480 0.282
v -208.000 -1.534 -160.000 0.562 0.533 0.316
v -192.000 2.310 -160.000 0.307 0.368 0.139
v -176.000 2.639 -160.000 0.291 0.355 0.134
v -160.000 2.370 -160.000 0.257 0.329 0.122
v -144.000 0.934 -160.000 0.225 0.304 0.112
v -128.000 0.644 -160.000 0.457 0.425 0.247
v -256.000 0.252 -144.000 0.469 0.437 0.255
v -240.000 1.152 -144.000 0.242 0.317 0.117
v -224.000 0.607 -144.000 0.533 0.504 0.297
v -208.000 1.294 -144.000 0.275 0.343 0.128
v -192.000 2.380 -144.000 0.258 0.329 0.123
v -176.000 2.269 -144.000 0.273 0.341 0.128
v -160.000 2.538 -144.000 0.250 0.323 0.120
v -144.000 3.820 -144.000 0.238 0.314 0.116
v -128.000 2.308 -144.000 0.205 0.288 0.105
v -256.000 0.644 -128.000 0.486 0.455 0.266
v -240.000 0.711 -128.000 0.553 0.524 0.310
v -224.000 2.550 -128.000 0.253 0.326 0.121
v -208.000 2.280 -128.000 0.270 0.339 0.127
v -192.000 2.348 -128.000 0.209 0.291 0.106
v -176.000 1.800 -128.000 0.218 0.298 0.109
v -160.000 1.811 -128.000 0.228 0.306 0.113
v -144.000 0.983 -128.000 0.259 0.330 0.123
v -128.000 1.968 -128.000 0.205 0.288 0.105

vt 0.366667 0.633333
vt 0.366667 0.625000
vt 0.375000 0.625000
vt 0.375000 0.633333
vt 0.383333 0.633333
vt 0.383333 0.625000
vt 0.391667 0.625000
vt 0.391667 0.633333
vt 0.400000 0.633333
vt 0.400000 0.625000
vt 0.408333 0.625000
vt 0.408333 0.633333
vt 0.416667 0.633333
vt 0.416667 0.625000
vt 0.425000 0.625000
vt 0.425000 0.633333
vt 0.433333 0.633333
vt 0.433333 0.625000
vt 0.366667 0.616667
vt 0.375000 0.616667
vt 0.383333 0.616667
vt 0.391667 0.616667
vt 0.400000 0.616667
vt 0.408333 0.616667
vt 0.416667 0.616667
vt 0.425000 0.616667
vt 0.433333 0.616667
vt 0.366667 0.608333
vt 0.375000 0.608333
vt 0.383333 0.608333
vt 0.391667 0.608333
vt 0.400000 0.608333
vt 0.408333 0.608333
vt 0.416667 0.608333
vt 0.425000 0.608333
vt 0.433333 0.608333
vt 0.366667 0.600000
vt 0.375000 0.600000
vt 0.383333 0.600000
vt 0.391667 0.600000
vt 0.400000 0.600000
vt 0.408333 0.600000
vt 0.416667 0.600000
vt 0.425000 0.600000
vt 0.433333 0.600000
vt 0.366667 0.591667
vt 0.375000 0.591667
vt 0.383333 0.591667
vt 0.391667 0.591667
vt 0.400000 0.591667
vt 0.408333 0.591667
vt 0.416667 0.591667
vt 0.425000 0.591667
vt 0.433333 0.591667
vt 0.366667 0.583333
vt 0.375000 0.583333
vt 0.383333 0.583333
vt 0.391667 0.583333
vt 0.400000 0.583333
vt 0.408333 0.583333
vt 0.416667 0.583333
vt 0.425000 0.583333
vt 0.433333 0.583333
vt 0.366667 0.575000
vt 0.375000 0.575000
vt 0.383333 0.575000
vt 0.391667 0.575000
vt 0.400000 0.575000
vt 0.408333 0.575000
vt 0.416667 0.575000
vt 0.425000 0.575000
vt 0.433333 0.575000
vt 0.366667 0.566667
vt 0.375000 0.566667
vt 0.383333 0.566667
vt 0.391667 0.566667
vt 0.400000 0.566667
vt 0.408333 0.566667
vt 0.416667 0.566667
vt 0.425000 0.566667
vt 0.433333 0.566667

vn 0.02335 0.99952 -0.02018
vn 0.02467 0.99841 -0.05070
vn 0.02985 0.99843 -0.04739
vn 0.02480 0.99951 -0.01884
vn -0.00791 0.99994 -0.00802
vn -0.00452 0.99884 -0.04796
vn -0.04583 0.99784 -0.04706
vn -0.06311 0.99799 -0.00529
vn -0.04441 0.99837 0.03581
vn -0.03205 0.99887 -0.03497
vn -0.01232 0.99992 -0.00234
vn 0.00013 0.99902 0.04426
vn 0.01409 0.99990 -0.00096
vn 0.00159 0.99993 -0.01135
vn 0.05712 0.99836 -0.00419
vn 0.05563 0.99844 -0.00571
vn 0.08208 0.99644 -0.01928
vn 0.06858 0.99763 0.00638
vn 0.02084 0.99716 -0.07242
vn 0.02748 0.99641 -0.08006
vn -0.00753 0.99627 -0.08600
vn -0.05006 0.99668 -0.06417
vn 0.00704 0.99963 -0.02641
vn 0.02378 0.99972 -0.00091
vn -0.00551 0.99996 -0.00641
vn 0.07323 0.99685 -0.03038
vn 0.11405 0.99342 -0.01029
vn -0.00618 0.99998 -0.00047
vn 0.00260 0.99951 -0.03126
vn 0.01143 0.99907 -0.04163
vn 0.00377 0.99983 -0.01820
vn 0.03137 0.99938 -0.01605
vn 0.00354 0.99965 -0.02632
vn -0.02796 0.99936 -0.02240
vn 0.04411 0.99793 -0.04686
vn 0.14680 0.98366 -0.10426
vn -0.03677 0.99869 0.03549
vn -0.01362 0.99956 0.02653
vn 0.02317 0.99785 0.06133
vn -0.02455 0.99754 0.06568
vn -0.02026 0.99946 -0.02579
vn 0.01740 0.99833 -0.05506
vn 0.00155 0.99957 -0.02931
vn -0.01011 0.99994 -0.00477
vn 0.04211 0.99889 -0.02123
vn -0.04211 0.99907 0.00902
vn 0.03408 0.99819 0.04947
vn 0.05035 0.99252 0.11118
vn -0.08149 0.99337 0.08106
vn -0.08924 0.99595 0.01056
vn 0.01127 0.99990 -0.00806
vn 0.02239 0.99971 -0.00870
vn 0.03476 0.99904 0.02680
vn 0.08289 0.99503 0.05508
vn -0.01978 0.99972 0.01304
vn 0.08900 0.99599 0.00947
vn 0.05082 0.99848 -0.02148
vn -0.12491 0.99114 -0.04526
vn -0.09479 0.99549 -0.00384
vn -0.00188 0.99991 0.01347
vn 0.02012 0.99966 -0.01663
vn 0.05378 0.99691 -0.05721
vn 0.05336 0.99709 -0.05444
vn -0.05618 0.99830 0.01537
vn 0.00190 0.99968 -0.02528
vn -0.00440 0.99119 -0.13235
vn -0.05729 0.99404 -0.09272
vn -0.03045 0.99954 -0.00120
vn 0.00127 0.99985 0.01717
vn -0.04840 0.99868 0.01745
vn 0.01585 0.99985 -0.00674
vn 0.09397 0.99472 -0.04115
vn -0.03020 0.99954 0.00154
vn -0.05943 0.99785 0.02754
vn -0.02667 0.99726 -0.06902
vn 0.00629 0.99809 -0.06148
vn -0.00774 0.99995 -0.00708
vn 0.01679 0.99943 0.02929
vn -0.01143 0.99718 0.07416
vn -0.00482 0.98463 0.17457
vn 0.01639 0.99497 0.09880

f 1/1/1 2/2/2 3/3/3
f 1/1/1 3/3/3 4/4/4
f 4/4/4 3/3/3 5/5/5
f 5/5/5 3/3/3 6/6/6
f 5/5/5 6/6/6 7/7/7
f 5/5/5 7/7/7 8/8/8
f 8/8/8 7/7/7 9/9/9
f 9/9/9 7/7/7 10/10/10
f 9/9/9 10/10/10 11/11/11
f 9/9/9 11/11/11 12/12/12
f 12/12/12 11/11/11 13/13/13
f 13/13/13 11/11/11 14/14/14
f 13/13/13 14/14/14 15/15/15
f 13/13/13 15/15/15 16/16/16
f 16/16/16 15/15/15 17/17/17
f 17/17/17 15/15/15 18/18/18
f 2/2/2 19/19/19 3/3/3
f 3/3/3 19/19/19 20/20/20
f 3/3/3 20/20/20 21/21/21
f 3/3/3 21/21/21 6/6/6
f 6/6/6 21/21/21 7/7/7
f 7/7/7 21/21/21 22/22/22
f 7/7/7 22/22/22 23/23/23
f 7/7/7 23/23/23 10/10/10
f 10/10/10 23/23/23 11/11/11
f 11/11/11 23/23/23 24/24/24
f 11/11/11 24/24/24 25/25/25
f 11/11/11 25/25/25 14/14/14
f 14/14/14 25/25/25 15/15/15
f 15/15/15 25/25/25 26/26/26
f 15/15/15 26/26/26 27/27/27
f 15/15/15 27/27/27 18/18/18
f 19/19/19 28/28/28 29/29/29
f 19/19/19 29/29/29 20/20/20
f 20/20/20 29/29/29 21/21/21
f 21/21/21 29/29/29 30/30/30
f 21/21/21 30/30/30 31/31/31
f 21/21/21 31/31/31 22/22/22
f 22/22/22 31/31/31 23/23/23
f 23/23/23 31/31/31 32/32/32
f 23/23/23 32/32/32 33/33/33
f 23/23/23 33/33/33 24/24/24
f 24/24/24 33/33/33 25/25/25
f 25/25/25 33/33/33 34/34/34
f 25/25/25 34/34/34 35/35/35
f 25/25/25 35/35/35 26/26/26
f 26/26/26 35/35/35 27/27/27
f 27/27/27 35/35/35 36/36/36
f 28/28/28 37/37/37 29/29/29
f 29/29/29 37/37/37 38/38/38
f 29/29/29 38/38/38 39/39/39
f 29/29/29 39/39/39 30/30/30
f 30/30/30 39/39/39 31/31/31
f 31/31/31 39/39/39 40/40/40
f 31/31/31 40/40/40 41/41/41
f 31/31/31 41/41/41 32/32/32
f 32/32/32 41/41/41 33/33/33
f 33/33/33 41/41/41 42/42/42
f 33/33/33 42/42/42 43/43/43
f 33/33/33 43/43/43 34/34/34
f 34/34/34 43/43/43 35/35/35
f 35/35/35 43/43/43 44/44/44
f 35/35/35 44/44/44 45/45/45
f 35/35/35 45/45/45 36/36/36
f 37/37/37 46/46/46 47/47/47
f 37/37/37 47/47/47 38/38/38
f 38/38/38 47/47/47 39/39/39
f 39/39/39 47/47/47 48/48/48
f 39/39/39 48/48/48 49/49/49
f 39/39/39 49/49/49 40/40/40
f 40/40/40 49/49/49 41/41/41
f 41/41/41 49/49/49 50/50/50
f 41/41/41 50/50/50 51/51/51
f 41/41/41 51/51/51 42/42/42
f 42/42/42 51/51/51 43/43/43
f 43/43/43 51/51/51 52/52/52
f 43/43/43 52/52/52 53/53/53
f 43/43/43 53/53/53 44/44/44
f 44/44/44 53/53/53 45/45/45
f 45/45/45 53/53/53 54/54/54
f 46/46/46 55/55/55 47/47/47
f 47/47/47 55/55/55 56/56/56
f 47/47/47 56/56/56 57/57/57
f 47/47/47 57/57/57 48/48/48
f 48/48/48 57/57/57 49/49/49
f 49/49/49 57/57/57 58/58/58
f 49/49/49 58/58/58 59/59/59
f 49/49/49 59/59/59 50/50/50
f 50/50/50 59/59/59 51/51/51
f 51/51/51 59/59/59 60/60/60
f 51/51/51 60/60/60 61/61/61
f 51/51/51 61/61/61 52/52/52
f 52/52/52 61/61/61 53/53/53
f 53/53/53 61/61/61 62/62/62
f 53/53/53 62/62/62 63/63/63
f 53/53/53 63/63/63 54/54/54
f 55/55/55 64/64/64 65/65/65
f 55/55/55 65/65/65 56/56/56
f 56/56/56 65/65/65 57/57/57
f 57/57/57 65/65/65 66/66/66
f 57/57/57 66/66/66 67/67/67
f 57/57/57 67/67/67 58/58/58
f 58/58/58 67/67/67 59/59/59
f 59/59/59 67/67/67 68/68/68
f 59/59/59 68/68/68 69/69/69
f 59/59/59 69/69/69 60/60/60
f 60/60/60 69/69/69 61/61/61
f 61/61/61 69/69/69 70/70/70
f 61/61/61 70/70/70 71/71/71
f 61/61/61 71/71/71 62/62/62
f 62/62/62 71/71/71 63/63/63
f 63/63/63 71/71/71 72/72/72
f 64/64/64 73/73/73 65/65/65
f 65/65/65 73/73/73 74/74/74
f 65/65/65 74/74/74 75/75/75
f 65/65/65 75/75/75 66/66/66
f 66/66/66 75/75/75 67/67/67
f 67/67/67 75/75/75 76/76/76
f 67/67/67 76/76/76 77/77/77
f 67/67/67 77/77/77 68/68/68
f 68/68/68 77/77/77 69/69/69
f 69/69/69 77/77/77 78/78/78
f 69/69/69 78/78/78 79/79/79
f 69/69/69 79/79/79 70/70/70
f 70/70/70 79/79/79 71/71/71
f 71/71/71 79/79/79 80/80/80
f 71/71/71 80/80/80 81/81/81
f 71/71/71 81/81/81 72/72/72
