# Generated by tools/generate_island.py. Do not edit by hand.
o terrain_lod2_-3_3

v -384.000 -1.299 384.000 0.453 0.421 0.244
v -384.000 -1.998 400.000 0.452 0.420 0.244
v -368.000 -2.091 400.000 0.498 0.467 0.274
v -368.000 -1.268 384.000 0.511 0.481 0.283
v -352.000 -0.619 384.000 0.569 0.540 0.321
v -352.000 -0.834 400.000 0.557 0.528 0.313
v -336.000 -0.592 400.000 0.519 0.489 0.288
v -336.000 -0.118 384.000 0.529 0.499 0.294
v -320.000 -0.657 384.000 0.491 0.460 0.270
v -320.000 -0.707 400.000 0.504 0.474 0.278
v -304.000 -0.556 400.000 0.471 0.439 0.256
v -304.000 -0.622 384.000 0.419 0.386 0.222
v -288.000 -0.289 384.000 0.438 0.406 0.235
v -288.000 -0.701 400.000 0.477 0.446 0.260
v -272.000 -0.669 400.000 0.483 0.451 0.264
v -272.000 -0.577 384.000 0.428 0.395 0.228
v -256.000 -0.504 384.000 0.388 0.354 0.202
v -256.000 0.180 400.000 0.466 0.435 0.253
v -384.000 -2.422 416.000 0.432 0.400 0.231
v -368.000 -1.836 416.000 0.460 0.428 0.249
v -352.000 -1.437 416.000 0.495 0.465 0.272
v -336.000 -1.805 416.000 0.490 0.459 0.269
v -320.000 -1.331 416.000 0.475 0.443 0.259
v -304.000 -0.725 416.000 0.456 0.424 0.247
v -288.000 -1.131 416.000 0.451 0.419 0.243
v -272.000 -0.920 416.000 0.484 0.453 0.265
v -256.000 -0.478 416.000 0.487 0.456 0.267
v -384.000 -2.959 432.000 0.391 0.357 0.204
v -368.000 -2.318 432.000 0.439 0.407 0.235
v -352.000 -2.126 432.000 0.412 0.379 0.218
v -336.000 -2.166 432.000 0.431 0.398 0.230
v -320.000 -1.524 432.000 0.424 0.391 0.225
v -304.000 -1.687 432.000 0.469 0.438 0.255
v -288.000 -1.497 432.000 0.467 0.435 0.253
v -272.000 -0.844 432.000 0.461 0.429 0.250
v -256.000 -0.906 432.000 0.508 0.478 0.281
v -384.000 -2.933 448.000 0.430 0.397 0.229
v -368.000 -2.529 448.000 0.386 0.351 0.200
v -352.000 -2.925 448.000 0.361 0.326 0.184
v -336.000 -2.400 448.000 0.392 0.358 0.204
v -320.000 -2.107 448.000 0.405 0.371 0.213
v -304.000 -2.289 448.000 0.395 0.361 0.206
v -288.000 -1.668 448.000 0.444 0.412 0.239
v -272.000 -1.265 448.000 0.481 0.450 0.263
v -256.000 -1.423 448.000 0.523 0.493 0.291
v -384.000 -2.968 464.000 0.460 0.429 0.249
v -368.000 -3.277 464.000 0.384 0.350 0.199
v -352.000 -3.451 464.000 0.379 0.345 0.196
v -336.000 -2.492 464.000 0.400 0.366 0.209
v -320.000 -2.408 464.000 0.417 0.384 0.221
v -304.000 -2.394 464.000 0.427 0.395 0.228
v -288.000 -1.921 464.000 0.467 0.436 0.254
v -272.000 -2.021 464.000 0.492 0.462 0.270
v -256.000 -1.638 464.000 0.566 0.537 0.319
v -384.000 -3.585 480.000 0.509 0.478 0.281
v -368.000 -3.497 480.000 0.461 0.429 0.250
v -352.000 -3.005 480.000 0.442 0.410 0.237
v -336.000 -3.072 480.000 0.444 0.412 0.238
v -320.000 -3.366 480.000 0.460 0.429 0.249
v -304.000 -2.440 480.000 0.484 0.453 0.265
v -288.000 -1.861 480.000 0.494 0.463 0.271
v -272.000 -2.225 480.000 0.523 0.493 0.290
v -256.000 -2.007 480.000 0.549 0.520 0.308
v -384.000 -4.497 496.000 0.487 0.456 0.267
v -368.000 -4.328 496.000 0.501 0.470 0.276
v -352.000 -3.471 496.000 0.490 0.459 0.269
v -336.000 -3.437 496.000 0.440 0.408 0.236
v -320.000 -3.262 496.000 0.500 0.470 0.276
v -304.000 -2.734 496.000 0.523 0.493 0.291
v -288.000 -2.900 496.000 0.567 0.538 0.319
v -272.000 -2.564 496.000 0.532 0.503 0.297
v -256.000 -1.933 496.000 0.543 0.514 0.304
v -384.000 -5.316 512.000 0.475 0.443 0.259
v -368.000 -4.416 512.000 0.479 0.447 0.261
v -352.000 -4.248 512.000 0.499 0.468 0.275
v -336.000 -4.299 512.000 0.492 0.461 0.270
v -320.000 -3.615 512.000 0.516 0.486 0.286
v -304.000 -3.239 512.000 0.559 0.531 0.315
v -288.000 -3.290 512.000 0.528 0.498 0.294
v -272.000 -3.063 512.000 0.556 0.527 0.312
v -256.000 -2.899 512.000 0.585 0.557 0.331

vt 0.300000 0.300000
vt 0.300000 0.291667
vt 0.308333 0.291667
vt 0.308333 0.300000
vt 0.316667 0.300000
vt 0.316667 0.291667
vt 0.325000 0.291667
vt 0.325000 0.300000
vt 0.333333 0.300000
vt 0.333333 0.291667
vt 0.341667 0.291667
vt 0.341667 0.300000
vt 0.350000 0.300000
vt 0.350000 0.291667
vt 0.358333 0.291667
vt 0.358333 0.300000
vt 0.366667 0.300000
vt 0.366667 0.291667
vt 0.300000 0.283333
vt 0.308333 0.283333
vt 0.316667 0.283333
vt 0.325000 0.283333
vt 0.333333 0.283333
vt 0.341667 0.283333
vt 0.350000 0.283333
vt 0.358333 0.283333
vt 0.366667 0.283333
vt 0.300000 0.275000
vt 0.308333 0.275000
vt 0.316667 0.275000
vt 0.325000 0.275000
vt 0.333333 0.275000
vt 0.341667 0.275000
vt 0.350000 0.275000
vt 0.358333 0.275000
vt 0.366667 0.275000
vt 0.300000 0.266667
vt 0.308333 0.266667
vt 0.316667 0.266667
vt 0.325000 0.266667
vt 0.333333 0.266667
vt 0.341667 0.266667
vt 0.350000 0.266667
vt 0.358333 0.266667
vt 0.366667 0.266667
vt 0.300000 0.258333
vt 0.308333 0.258333
vt 0.316667 0.258333
vt 0.325000 0.258333
vt 0.333333 0.258333
vt 0.341667 0.258333
vt 0.350000 0.258333
vt 0.358333 0.258333
vt 0.366667 0.258333
vt 0.300000 0.250000
vt 0.308333 0.250000
vt 0.316667 0.250000
vt 0.325000 0.250000
vt 0.333333 0.250000
vt 0.341667 0.250000
vt 0.350000 0.250000
vt 0.358333 0.250000
vt 0.366667 0.250000
vt 0.300000 0.241667
vt 0.308333 0.241667
vt 0.316667 0.241667
vt 0.325000 0.241667
vt 0.333333 0.241667
vt 0.341667 0.241667
vt 0.350000 0.241667
vt 0.358333 0.241667
vt 0.366667 0.241667
vt 0.300000 0.233333
vt 0.308333 0.233333
vt 0.316667 0.233333
vt 0.325000 0.233333
vt 0.333333 0.233333
vt 0.341667 0.233333
vt 0.350000 0.233333
vt 0.358333 0.233333
vt 0.366667 0.233333

vn 0.00193 0.99887 0.04754
vn 0.00577 0.99937 0.03509
vn -0.03118 0.99922 0.02403
vn -0.02121 0.99846 0.05136
vn -0.04134 0.99878 0.02696
vn -0.04677 0.99858 0.02553
vn -0.00251 0.99928 0.03798
vn 0.00120 0.99956 0.02962
vn 0.00732 0.99994 0.00795
vn -0.00111 0.99978 0.02104
vn -0.00454 0.99990 0.01344
vn -0.01151 0.99993 -0.00410
vn 0.00107 0.99991 0.01329
vn 0.00353 0.99965 0.02630
vn -0.01717 0.99978 0.01173
vn 0.00672 0.99996 0.00576
vn -0.02881 0.99941 -0.01847
vn -0.05299 0.99859 -0.00079
vn -0.02686 0.99947 0.01853
vn -0.03077 0.99950 0.00708
vn -0.01338 0.99932 0.03423
vn -0.00332 0.99879 0.04913
vn -0.02087 0.99921 0.03388
vn -0.00625 0.99936 0.03532
vn -0.00265 0.99974 0.02264
vn -0.02038 0.99978 0.00547
vn -0.02609 0.99947 0.01968
vn -0.04002 0.99907 0.01594
vn -0.02075 0.99944 0.02642
vn -0.00473 0.99891 0.04645
vn -0.01661 0.99950 0.02699
vn -0.01495 0.99959 0.02425
vn -0.00541 0.99938 0.03468
vn -0.02633 0.99951 0.01677
vn -0.01625 0.99972 0.01695
vn 0.00383 0.99956 0.02949
vn -0.01782 0.99973 0.01513
vn -0.00024 0.99955 0.02996
vn -0.00931 0.99948 0.03073
vn -0.02555 0.99962 0.01019
vn -0.00624 0.99974 0.02188
vn -0.01373 0.99966 0.02207
vn -0.02550 0.99945 0.02133
vn -0.00765 0.99930 0.03674
vn -0.00008 0.99956 0.02982
vn 0.01930 0.99961 0.02037
vn 0.00296 0.99978 0.02085
vn -0.02451 0.99970 0.00250
vn -0.01985 0.99958 0.02094
vn -0.00307 0.99922 0.03930
vn -0.02279 0.99965 0.01369
vn -0.01166 0.99991 0.00606
vn -0.00520 0.99976 0.02108
vn -0.02390 0.99955 0.01825
vn -0.00055 0.99919 0.04029
vn -0.01812 0.99930 0.03283
vn -0.01973 0.99968 0.01591
vn 0.01127 0.99950 0.02950
vn -0.01614 0.99960 0.02336
vn -0.04696 0.99884 0.01060
vn -0.00759 0.99973 0.02217
vn 0.00454 0.99985 0.01696
vn -0.02264 0.99966 0.01309
vn -0.01055 0.99848 0.05401
vn -0.02887 0.99888 0.03755
vn -0.02783 0.99886 0.03881
vn -0.00540 0.99951 0.03082
vn -0.02197 0.99973 0.00779
vn -0.01994 0.99947 0.02559
vn -0.00530 0.99899 0.04461
vn -0.01701 0.99937 0.03120
vn -0.03935 0.99884 0.02784
vn -0.03336 0.99904 0.02831
vn -0.03335 0.99943 0.00551
vn -0.01575 0.99911 0.03909
vn -0.01975 0.99836 0.05380
vn -0.02753 0.99910 0.03238
vn -0.01014 0.99945 0.03158
vn -0.00541 0.99960 0.02789
vn -0.01223 0.99944 0.03115
vn -0.02478 0.99865 0.04569

f 1/1/1 2/2/2 3/3/3
f 1/1/1 3/3/3 4/4/4
f 4/4/4 3/3/3 5/5/5
f 5/5/5 3/3/3 6/6/6
f 5/5/5 6/6/6 7/7/7
f 5/5/5 7/7/7 8/8/8
f 8/8/8 7/7/7 9/9/9
f 9/9/9 7/7/7 10/10/10
f 9/9/9 10/10/10 11/11/11
f 9/9/9 11/11/11 12/12/12
f 12/12/12 11/11/11 13/13/13
f 13/13/13 11/11/11 14/14/14
f 13/13/13 14/14/14 15/15/15
f 13/13/13 15/15/15 16/16/16
f 16/16/16 15/15/15 17/17/17
f 17/17/17 15/15/15 18/18/18
f 2/2/2 19/19/19 3/3/3
f 3/3/3 19/19/19 20/20/20
f 3/3/3 20/20/20 21/21/21
f 3/3/3 21/21/21 6/6/6
f 6/6/6 21/21/21 7/7/7
f 7/7/7 21/21/21 22/22/22
f 7/7/7 22/22/22 23/23/23
f 7/7/7 23/23/23 10/10/10
f 10/10/10 23/23/23 11/11/11
f 11/11/11 23/23/23 24/24/24
f 11/11/11 24/24/24 25/25/25
f 11/11/11 25/25/25 14/14/14
f 14/14/14 25/25/25 15/15/15
f 15/15/15 25/25/25 26/26/26
f 15/15/15 26/26/26 27/27/27
f 15/15/15 27/27/27 18/18/18
f 19/19/19 28/28/28 29/29/29
f 19/19/19 29/29/29 20/20/20
f 20/20/20 29/29/29 21/21/21
f 21/21/21 29/29/29 30/30/30
f 21/21/21 30/30/30 31/31/31
f 21/21/21 31/31/31 22/22/22
f 22/22/22 31/31/31 23/23/23
f 23/23/23 31/31/31 32/32/32
f 23/23/23 32/32/32 33/33/33
f 23/23/23 33/33/33 24/24/24
f 24/24/24 33/33/33 25/25/25
f 25/25/25 33/33/33 34/34/34
f 25/25/25 34/34/34 35/35/35
f 25/25/25 35/35/35 26/26/26
f 26/26/26 35/35/35 27/27/27
f 27/27/27 35/35/35 36/36/36
f 28/28/28 37/37/37 29/29/29
f 29/29/29 37/37/37 38/38/38
f 29/29/29 38/38/38 39/39/39
f 29/29/29 39/39/39 30/30/30
f 30/30/30 39/39/39 31/31/31
f 31/31/31 39/39/39 40/40/40
f 31/31/31 40/40/40 41/41/41
f 31/31/31 41/41/41 32/32/32
f 32/32/32 41/41/41 33/33/33
f 33/33/33 41/41/41 42/42/42
f 33/33/33 42/42/42 43/43/43
f 33/33/33 43/43/43 34/34/34
f 34/34/34 43/43/43 35/35/35
f 35/35/35 43/43/43 44/44/44
f 35/35/35 44/44/44 45/45/45
f 35/35/35 45/45/45 36/36/36
f 37/37/37 46/46/46 47/47/47
f 37/37/37 47/47/47 38/38/38
f 38/38/38 47/47/47 39/39/39
f 39/39/39 47/47/47 48/48/48
f 39/39/39 48/48/48 49/49/49
f 39/39/39 49/49/49 40/40/40
f 40/40/40 49/49/49 41/41/41
f 41/41/41 49/49/49 50/50/50
f 41/41/41 50/50/50 51/51/51
f 41/41/41 51/51/51 42/42/42
f 42/42/42 51/51/51 43/43/43
f 43/43/43 51/51/51 52/52/52
f 43/43/43 52/52/52 53/53/53
f 43/43/43 53/53/53 44/44/44
f 44/44/44 53/53/53 45/45/45
f 45/45/45 53/53/53 54/54/54
f 46/46/46 55/55/55 47/47/47
f 47/47/47 55/55/55 56/56/56
f 47/47/47 56/56/56 57/57/57
f 47/47/47 57/57/57 48/48/48
f 48/48/48 57/57/57 49/49/49
f 49/49/49 57/57/57 58/58/58
f 49/49/49 58/58/58 59/59/59
f 49/49/49 59/59/59 50/50/50
f 50/50/50 59/59/59 51/51/51
f 51/51/51 59/59/59 60/60/60
f 51/51/51 60/60/60 61/61/61
f 51/51/51 61/61/61 52/52/52
f 52/52/52 61/61/61 53/53/53
f 53/53/53 61/61/61 62/62/62
f 53/53/53 62/62/62 63/63/63
f 53/53/53 63/63/63 54/54/54
f 55/55/55 64/64/64 65/65/65
f 55/55/55 65/65/65 56/56/56
f 56/56/56 65/65/65 57/57/57
f 57/57/57 65/65/65 66/66/66
f 57/57/57 66/66/66 67/67/67
f 57/57/57 67/67/67 58/58/58
f 58/58/58 67/67/67 59/59/59
f 59/59/59 67/67/67 68/68/68
f 59/59/59 68/68/68 69/69/69
f 59/59/59 69/69/69 60/60/60
f 60/60/60 69/69/69 61/61/61
f 61/61/61 69/69/69 70/70/70
f 61/61/61 70/70/70 71/71/71
f 61/61/61 71/71/71 62/62/62
f 62/62/62 71/71/71 63/63/63
f 63/63/63 71/71/71 72/72/72
f 64/64/64 73/73/73 65/65/65
f 65/65/65 73/73/73 74/74/74
f 65/65/65 74/74/74 75/75/75
f 65/65/65 75/75/75 66/66/66
f 66/66/66 75/75/75 67/67/67
f 67/67/67 75/75/75 76/76/76
f 67/67/67 76/76/76 77/77/77
f 67/67/67 77/77/77 68/68/68
f 68/68/68 77/77/77 69/69/69
f 69/69/69 77/77/77 78/78/78
f 69/69/69 78/78/78 79/79/79
f 69/69/69 79/79/79 70/70/70
f 70/70/70 79/79/79 71/71/71
f 71/71/71 79/79/79 80/80/80
f 71/71/71 80/80/80 81/81/81
f 71/71/71 81/81/81 72/72/72
