# Generated by tools/generate_island.py. Do not edit by hand.
o terrain_lod2_1_-1

v 64.000 7.701 -64.000 0.093 0.191 0.101
v 64.000 3.490 -56.000 0.106 0.208 0.108
v 72.000 2.999 -56.000 0.102 0.202 0.105
v 72.000 4.574 -64.000 0.120 0.201 0.069
v 80.000 2.669 -64.000 0.154 0.251 0.087
v 80.000 1.842 -56.000 0.150 0.234 0.082
v 88.000 1.319 -56.000 0.195 0.293 0.103
v 88.000 1.401 -64.000 0.217 0.298 0.109
v 96.000 0.911 -64.000 0.467 0.435 0.253
v 96.000 0.958 -56.000 0.493 0.462 0.271
v 104.000 1.306 -56.000 0.224 0.303 0.111
v 104.000 1.415 -64.000 0.208 0.291 0.106
v 112.000 1.198 -64.000 0.432 0.399 0.231
v 112.000 1.977 -56.000 0.209 0.291 0.106
v 120.000 1.492 -56.000 0.193 0.279 0.101
v 120.000 0.708 -64.000 0.415 0.382 0.219
v 128.000 0.589 -64.000 0.414 0.381 0.219
v 128.000 1.593 -56.000 0.179 0.268 0.096
v 64.000 1.970 -48.000 0.108 0.211 0.109
v 72.000 1.534 -48.000 0.107 0.209 0.108
v 80.000 1.638 -48.000 0.108 0.213 0.111
v 88.000 1.173 -48.000 0.455 0.426 0.249
v 96.000 0.780 -48.000 0.515 0.485 0.285
v 104.000 1.342 -48.000 0.240 0.315 0.117
v 112.000 1.728 -48.000 0.233 0.310 0.114
v 120.000 0.873 -48.000 0.462 0.431 0.251
v 128.000 1.541 -48.000 0.199 0.284 0.103
v 64.000 1.234 -40.000 0.112 0.215 0.111
v 72.000 0.674 -40.000 0.336 0.313 0.182
v 80.000 0.962 -40.000 0.339 0.316 0.184
v 88.000 0.528 -40.000 0.409 0.384 0.225
v 96.000 0.455 -40.000 0.456 0.426 0.249
v 104.000 1.106 -40.000 0.477 0.446 0.260
v 112.000 1.014 -40.000 0.466 0.435 0.253
v 120.000 0.634 -40.000 0.449 0.417 0.242
v 128.000 0.913 -40.000 0.429 0.396 0.229
v 64.000 0.532 -32.000 0.337 0.314 0.183
v 72.000 0.656 -32.000 0.330 0.307 0.179
v 80.000 0.490 -32.000 0.333 0.310 0.181
v 88.000 0.763 -32.000 0.353 0.331 0.194
v 96.000 0.655 -32.000 0.398 0.373 0.218
v 104.000 1.768 -32.000 0.184 0.282 0.099
v 112.000 2.016 -32.000 0.199 0.284 0.103
v 120.000 1.270 -32.000 0.187 0.274 0.099
v 128.000 1.099 -32.000 0.428 0.395 0.228
v 64.000 -0.065 -24.000 0.299 0.275 0.158
v 72.000 0.690 -24.000 0.330 0.307 0.179
v 80.000 0.750 -24.000 0.351 0.329 0.193
v 88.000 -0.304 -24.000 0.362 0.340 0.200
v 96.000 1.591 -24.000 0.129 0.240 0.123
v 104.000 2.115 -24.000 0.201 0.292 0.104
v 112.000 2.864 -24.000 0.244 0.318 0.118
v 120.000 1.806 -24.000 0.219 0.299 0.110
v 128.000 1.474 -24.000 0.201 0.285 0.104
v 64.000 3.297 -16.000 0.093 0.191 0.101
v 72.000 2.645 -16.000 0.109 0.215 0.112
v 80.000 1.371 -16.000 0.117 0.222 0.114
v 88.000 -0.173 -16.000 0.379 0.357 0.211
v 96.000 1.970 -16.000 0.131 0.242 0.124
v 104.000 2.734 -16.000 0.210 0.300 0.107
v 112.000 2.778 -16.000 0.261 0.332 0.124
v 120.000 2.740 -16.000 0.240 0.315 0.117
v 128.000 1.973 -16.000 0.235 0.312 0.115
v 64.000 2.738 -8.000 0.154 0.245 0.085
v 72.000 1.652 -8.000 0.169 0.249 0.088
v 80.000 1.199 -8.000 0.375 0.353 0.208
v 88.000 -0.406 -8.000 0.387 0.366 0.216
v 96.000 2.062 -8.000 0.132 0.244 0.124
v 104.000 2.744 -8.000 0.218 0.306 0.110
v 112.000 2.784 -8.000 0.265 0.335 0.125
v 120.000 3.138 -8.000 0.272 0.341 0.127
v 128.000 2.076 -8.000 0.263 0.333 0.124
v 64.000 1.876 0.000 0.206 0.289 0.105
v 72.000 0.713 0.000 0.451 0.425 0.250
v 80.000 0.978 0.000 0.392 0.371 0.219
v 88.000 -0.660 0.000 0.384 0.362 0.214
v 96.000 1.305 0.000 0.136 0.248 0.126
v 104.000 1.758 0.000 0.235 0.317 0.115
v 112.000 2.669 0.000 0.260 0.349 0.126
v 120.000 2.069 0.000 0.297 0.360 0.136
v 128.000 2.678 0.000 0.292 0.356 0.134

vt 0.600000 0.600000
vt 0.600000 0.587500
vt 0.612500 0.587500
vt 0.612500 0.600000
vt 0.625000 0.600000
vt 0.625000 0.587500
vt 0.637500 0.587500
vt 0.637500 0.600000
vt 0.650000 0.600000
vt 0.650000 0.587500
vt 0.662500 0.587500
vt 0.662500 0.600000
vt 0.675000 0.600000
vt 0.675000 0.587500
vt 0.687500 0.587500
vt 0.687500 0.600000
vt 0.700000 0.600000
vt 0.700000 0.587500
vt 0.600000 0.575000
vt 0.612500 0.575000
vt 0.625000 0.575000
vt 0.637500 0.575000
vt 0.650000 0.575000
vt 0.662500 0.575000
vt 0.675000 0.575000
vt 0.687500 0.575000
vt 0.700000 0.575000
vt 0.600000 0.562500
vt 0.612500 0.562500
vt 0.625000 0.562500
vt 0.637500 0.562500
vt 0.650000 0.562500
vt 0.662500 0.562500
vt 0.675000 0.562500
vt 0.687500 0.562500
vt 0.700000 0.562500
vt 0.600000 0.550000
vt 0.612500 0.550000
vt 0.625000 0.550000
vt 0.637500 0.550000
vt 0.650000 0.550000
vt 0.662500 0.550000
vt 0.675000 0.550000
vt 0.687500 0.550000
vt 0.700000 0.550000
vt 0.600000 0.537500
vt 0.612500 0.537500
vt 0.625000 0.537500
vt 0.637500 0.537500
vt 0.650000 0.537500
vt 0.662500 0.537500
vt 0.675000 0.537500
vt 0.687500 0.537500
vt 0.700000 0.537500
vt 0.600000 0.525000
vt 0.612500 0.525000
vt 0.625000 0.525000
vt 0.637500 0.525000
vt 0.650000 0.525000
vt 0.662500 0.525000
vt 0.675000 0.525000
vt 0.687500 0.525000
vt 0.700000 0.525000
vt 0.600000 0.512500
vt 0.612500 0.512500
vt 0.625000 0.512500
vt 0.637500 0.512500
vt 0.650000 0.512500
vt 0.662500 0.512500
vt 0.675000 0.512500
vt 0.687500 0.512500
vt 0.700000 0.512500
vt 0.600000 0.500000
vt 0.612500 0.500000
vt 0.625000 0.500000
vt 0.637500 0.500000
vt 0.650000 0.500000
vt 0.662500 0.500000
vt 0.675000 0.500000
vt 0.687500 0.500000
vt 0.700000 0.500000

vn 0.20799 0.91985 0.33261
vn 0.05763 0.93988 0.33662
vn 0.13150 0.97195 0.19500
vn 0.29486 0.93756 0.18451
vn 0.14915 0.98357 0.10172
vn 0.10422 0.99250 0.06392
vn 0.06833 0.99734 0.02522
vn 0.10920 0.99397 0.01023
vn -0.00001 1.00000 0.00307
vn 0.00084 0.99997 0.00817
vn -0.05108 0.99869 -0.00396
vn -0.01793 0.99975 0.01369
vn 0.01622 0.99744 -0.06960
vn -0.01165 0.99938 -0.03312
vn 0.02443 0.99930 -0.02828
vn 0.03784 0.99452 -0.09743
vn 0.00115 0.99382 -0.11102
vn -0.01256 0.99816 -0.05938
vn 0.05940 0.98816 0.14143
vn 0.02053 0.98940 0.14376
vn 0.03968 0.99633 0.07590
vn 0.05349 0.99735 0.04930
vn -0.01412 0.99941 0.03118
vn -0.05913 0.99817 0.01246
vn 0.01911 0.99873 0.04657
vn 0.01167 0.99850 0.05357
vn -0.05349 0.99742 0.04795
vn 0.06954 0.99357 0.08929
vn 0.01431 0.99761 0.06767
vn 0.00912 0.99739 0.07155
vn 0.02667 0.99911 0.03266
vn -0.03608 0.99932 0.00781
vn -0.05347 0.99844 -0.01581
vn 0.02948 0.99940 -0.01797
vn 0.02040 0.99974 -0.01001
vn -0.03486 0.99901 0.02757
vn -0.01383 0.99910 0.04006
vn 0.00262 1.00000 -0.00101
vn 0.01449 0.99971 0.01938
vn -0.01029 0.99860 0.05194
vn -0.07793 0.99623 -0.03813
vn -0.08455 0.99444 -0.06271
vn 0.02763 0.99543 -0.09146
vn 0.05702 0.99571 -0.07292
vn 0.01228 0.99846 -0.05408
vn -0.09265 0.98116 -0.16951
vn 0.00524 0.99297 -0.11824
vn 0.06194 0.99657 -0.05481
vn -0.03820 0.99926 -0.00505
vn -0.14899 0.98552 -0.08098
vn -0.07332 0.99536 -0.06236
vn 0.01930 0.99868 -0.04758
vn 0.06998 0.99501 -0.07114
vn 0.04133 0.99766 -0.05445
vn 0.05069 0.99187 -0.11669
vn 0.11931 0.99107 -0.05954
vn 0.13445 0.99055 -0.02721
vn -0.03744 0.99928 0.00635
vn -0.17506 0.98430 -0.02260
vn -0.05039 0.99796 -0.03924
vn -0.00152 0.99960 -0.02813
vn 0.05008 0.99530 -0.08290
vn 0.09098 0.99404 -0.06008
vn 0.13409 0.98708 0.08766
vn 0.09147 0.99192 0.08796
vn 0.12750 0.99154 0.02431
vn -0.04138 0.99864 0.03170
vn -0.19298 0.98036 0.04076
vn -0.05634 0.99751 0.04247
vn -0.02464 0.99967 0.00680
vn 0.03455 0.99933 0.01166
vn 0.13154 0.99035 -0.04363
vn 0.13834 0.98417 0.11077
vn 0.05563 0.99166 0.11630
vn 0.10647 0.99302 0.05073
vn -0.02039 0.99929 0.03177
vn -0.17082 0.98167 0.08451
vn -0.08432 0.98896 0.12182
vn -0.02196 0.99722 0.07118
vn -0.00053 0.99118 0.13250
vn 0.02833 0.99917 0.02919

f 1/1/1 2/2/2 3/3/3
f 1/1/1 3/3/3 4/4/4
f 4/4/4 3/3/3 5/5/5
f 5/5/5 3/3/3 6/6/6
f 5/5/5 6/6/6 7/7/7
f 5/5/5 7/7/7 8/8/8
f 8/8/8 7/7/7 9/9/9
f 9/9/9 7/7/7 10/10/10
f 9/9/9 10/10/10 11/11/11
f 9/9/9 11/11/11 12/12/12
f 12/12/12 11/11/11 13/13/13
f 13/13/13 11/11/11 14/14/14
f 13/13/13 14/14/14 15/15/15
f 13/13/13 15/15/15 16/16/16
f 16/16/16 15/15/15 17/17/17
f 17/17/17 15/15/15 18/18/18
f 2/2/2 19/19/19 3/3/3
f 3/3/3 19/19/19 20/20/20
f 3/3/3 20/20/20 21/21/21
f 3/3/3 21/21/21 6/6/6
f 6/6/6 21/21/21 7/7/7
f 7/7/7 21/21/21 22/22/22
f 7/7/7 22/22/22 23/23/23
f 7/7/7 23/23/23 10/10/10
f 10/10/10 23/23/23 11/11/11
f 11/11/11 23/23/23 24/24/24
f 11/11/11 24/24/24 25/25/25
f 11/11/11 25/25/25 14/14/14
f 14/14/14 25/25/25 15/15/15
f 15/15/15 25/25/25 26/26/26
f 15/15/15 26/26/26 27/27/27
f 15/15/15 27/27/27 18/18/18
f 19/19/19 28/28/28 29/29/29
f 19/19/19 29/29/29 20/20/20
f 20/20/20 29/29/29 21/21/21
f 21/21/21 29/29/29 30/30/30
f 21/21/21 30/30/30 31/31/31
f 21/21/21 31/31/31 22/22/22
f 22/22/22 31/31/31 23/23/23
f 23/23/23 31/31/31 32/32/32
f 23/23/23 32/32/32 33/33/33
f 23/23/23 33/33/33 24/24/24
f 24/24/24 33/33/33 25/25/25
f 25/25/25 33/33/33 34/34/34
f 25/25/25 34/34/34 35/35/35
f 25/25/25 35/35/35 26/26/26
f 26/26/26 35/35/35 27/27/27
f 27/27/27 35/35/35 36/36/36
f 28/28/28 37/37/37 29/29/29
f 29/29/29 37/37/37 38/38/38
f 29/29/29 38/38/38 39/39/39
f 29/29/29 39/39/39 30/30/30
f 30/30/30 39/39/39 31/31/31
f 31/31/31 39/39/39 40/40/40
f 31/31/31 40/40/40 41/41/41
f 31/31/31 41/41/41 32/32/32
f 32/32/32 41/41/41 33/33/33
f 33/33/33 41/41/41 42/42/42
f 33/33/33 42/42/42 43/43/43
f 33/33/33 43/43/43 34/34/34
f 34/34/34 43/43/43 35/35/35
f 35/35/35 43/43/43 44/44/44
f 35/35/35 44/44/44 45/45/45
f 35/35/35 45/45/45 36/36/36
f 37/37/37 46/46/46 47/47/47
f 37/37/37 47/47/47 38/38/38
f 38/38/38 47/47/47 39/39/39
f 39/39/39 47/47/47 48/48/48
f 39/39/39 48/48/48 49/49/49
f 39/39/39 49/49/49 40/40/40
f 40/40/40 49/49/49 41/41/41
f 41/41/41 49/49/49 50/50/50
f 41/41/41 50/50/50 51/51/51
f 41/41/41 51/51/51 42/42/42
f 42/42/42 51/51/51 43/43/43
f 43/43/43 51/51/51 52/52/52
f 43/43/43 52/52/52 53/53/53
f 43/43/43 53/53/53 44/44/44
f 44/44/44 53/53/53 45/45/45
f 45/45/45 53/53/53 54/54/54
f 46/46/46 55/55/55 47/47/47
f 47/47/47 55/55/55 56/56/56
f 47/47/47 56/56/56 57/57/57
f 47/47/47 57/57/57 48/48/48
f 48/48/48 57/57/57 49/49/49
f 49/49/49 57/57/57 58/58/58
f 49/49/49 58/58/58 59/59/59
f 49/49/49 59/59/59 50/50/50
f 50/50/50 59/59/59 51/51/51
f 51/51/51 59/59/59 60/60/60
f 51/51/51 60/60/60 61/61/61
f 51/51/51 61/61/61 52/52/52
f 52/52/52 61/61/61 53/53/53
f 53/53/53 61/61/61 62/62/62
f 53/53/53 62/62/62 63/63/63
f 53/53/53 63/63/63 54/54/54
f 55/55/55 64/64/64 65/65/65
f 55/55/55 65/65/65 56/56/56
f 56/56/56 65/65/65 57/57/57
f 57/57/57 65/65/65 66/66/66
f 57/57/57 66/66/66 67/67/67
f 57/57/57 67/67/67 58/58/58
f 58/58/58 67/67/67 59/59/59
f 59/59/59 67/67/67 68/68/68
f 59/59/59 68/68/68 69/69/69
f 59/59/59 69/69/69 60/60/60
f 60/60/60 69/69/69 61/61/61
f 61/61/61 69/69/69 70/70/70
f 61/61/61 70/70/70 71/71/71
f 61/61/61 71/71/71 62/62/62
f 62/62/62 71/71/71 63/63/63
f 63/63/63 71/71/71 72/72/72
f 64/64/64 73/73/73 65/65/65
f 65/65/65 73/73/73 74/74/74
f 65/65/65 74/74/74 75/75/75
f 65/65/65 75/75/75 66/66/66
f 66/66/66 75/75/75 67/67/67
f 67/67/67 75/75/75 76/76/76
f 67/67/67 76/76/76 77/77/77
f 67/67/67 77/77/77 68/68/68
f 68/68/68 77/77/77 69/69/69
f 69/69/69 77/77/77 78/78/78
f 69/69/69 78/78/78 79/79/79
f 69/69/69 79/79/79 70/70/70
f 70/70/70 79/79/79 71/71/71
f 71/71/71 79/79/79 80/80/80
f 71/71/71 80/80/80 81/81/81
f 71/71/71 81/81/81 72/72/72
