# Generated by tools/generate_island.py. Do not edit by hand.
o terrain_lod0_0_-7

v 0.000 -10.800 -776.000 0.538 0.509 0.301
v 0.000 -10.685 -772.000 0.531 0.501 0.296
v 4.000 -10.800 -772.000 0.517 0.487 0.287
v 40.000 -10.800 -776.000 0.418 0.385 0.221
v 36.000 -10.793 -772.000 0.429 0.396 0.228
v 40.000 -10.777 -772.000 0.416 0.382 0.220
v 44.000 -10.800 -772.000 0.402 0.368 0.211
v 0.000 -10.431 -768.000 0.542 0.512 0.303
v 4.000 -10.602 -768.000 0.534 0.504 0.298
v 8.000 -10.800 -768.000 0.526 0.496 0.292
v 20.000 -10.800 -772.000 0.472 0.441 0.257
v 16.000 -10.800 -768.000 0.486 0.455 0.266
v 20.000 -10.777 -768.000 0.471 0.439 0.256
v 24.000 -10.800 -768.000 0.463 0.431 0.251
v 32.000 -10.800 -768.000 0.436 0.404 0.234
v 36.000 -10.689 -768.000 0.418 0.385 0.222
v 40.000 -10.557 -768.000 0.412 0.379 0.218
v 44.000 -10.700 -768.000 0.423 0.390 0.225
v 48.000 -10.800 -768.000 0.408 0.374 0.215
v 76.000 -10.800 -772.000 0.382 0.347 0.197
v 76.000 -10.800 -768.000 0.397 0.363 0.208
v 80.000 -10.689 -768.000 0.412 0.379 0.218
v 80.000 -10.800 -772.000 0.402 0.368 0.211
v 84.000 -10.800 -772.000 0.431 0.398 0.230
v 84.000 -10.656 -768.000 0.436 0.404 0.234
v 88.000 -10.800 -768.000 0.464 0.433 0.252

vt 0.500000 0.904167
vt 0.500000 0.902083
vt 0.502083 0.902083
vt 0.520833 0.904167
vt 0.518750 0.902083
vt 0.520833 0.902083
vt 0.522917 0.902083
vt 0.500000 0.900000
vt 0.502083 0.900000
vt 0.504167 0.900000
vt 0.510417 0.902083
vt 0.508333 0.900000
vt 0.510417 0.900000
vt 0.512500 0.900000
vt 0.516667 0.900000
vt 0.518750 0.900000
vt 0.520833 0.900000
vt 0.522917 0.900000
vt 0.525000 0.900000
vt 0.539583 0.902083
vt 0.539583 0.900000
vt 0.541667 0.900000
vt 0.541667 0.902083
vt 0.543750 0.902083
vt 0.543750 0.900000
vt 0.545833 0.900000

vn 0.02863 0.99918 -0.02863
vn 0.02861 0.99853 -0.04609
vn 0.03733 0.99816 -0.04776
vn 0.00088 0.99998 -0.00577
vn -0.01717 0.99946 -0.02812
vn 0.00088 0.99954 -0.03033
vn 0.01805 0.99946 -0.02764
vn 0.03563 0.99777 -0.05648
vn 0.04605 0.99772 -0.04943
vn 0.04942 0.99755 -0.04942
vn 0.00000 0.99998 -0.00578
vn -0.00578 0.99997 -0.00578
vn 0.00000 0.99998 -0.00578
vn 0.00578 0.99997 -0.00578
vn -0.02767 0.99928 -0.02590
vn -0.03032 0.99920 -0.02590
vn 0.00112 0.99919 -0.04015
vn 0.03032 0.99923 -0.02494
vn 0.02494 0.99938 -0.02494
vn -0.01391 0.99981 -0.01391
vn -0.02781 0.99961 0.00000
vn -0.00897 0.99970 -0.02288
vn 0.00000 0.99961 -0.02781
vn 0.00927 0.99941 -0.03319
vn 0.01390 0.99926 -0.03587
vn 0.03585 0.99871 -0.03585

f 1/1/1 2/2/2 3/3/3
f 4/4/4 5/5/5 6/6/6
f 4/4/4 6/6/6 7/7/7
f 2/2/2 8/8/8 3/3/3
f 3/3/3 8/8/8 9/9/9
f 3/3/3 9/9/9 10/10/10
f 11/11/11 12/12/12 13/13/13
f 11/11/11 13/13/13 14/14/14
f 5/5/5 15/15/15 16/16/16
f 5/5/5 16/16/16 17/17/17
f 5/5/5 17/17/17 6/6/6
f 6/6/6 17/17/17 7/7/7
f 7/7/7 17/17/17 18/18/18
f 7/7/7 18/18/18 19/19/19
f 20/20/20 21/21/21 22/22/22
f 20/20/20 22/22/22 23/23/23
f 23/23/23 22/22/22 24/24/24
f 24/24/24 22/22/22 25/25/25
f 24/24/24 25/25/25 26/26/26
