# Generated by tools/generate_island.py. Do not edit by hand.
o terrain_lod2_2_1

v 128.000 -1.708 64.000 0.351 0.329 0.193
v 128.000 -1.482 72.000 0.344 0.322 0.188
v 136.000 -0.086 72.000 0.369 0.347 0.204
v 136.000 -0.217 64.000 0.380 0.358 0.210
v 144.000 0.174 64.000 0.492 0.464 0.274
v 144.000 -0.316 72.000 0.462 0.436 0.256
v 152.000 -0.408 72.000 0.523 0.493 0.290
v 152.000 -0.013 64.000 0.546 0.517 0.306
v 160.000 -0.165 64.000 0.544 0.514 0.304
v 160.000 -1.169 72.000 0.522 0.492 0.290
v 168.000 -1.549 72.000 0.518 0.488 0.287
v 168.000 -0.228 64.000 0.522 0.493 0.290
v 176.000 -1.023 64.000 0.507 0.477 0.280
v 176.000 -2.204 72.000 0.520 0.490 0.289
v 184.000 -2.665 72.000 0.504 0.474 0.278
v 184.000 -1.489 64.000 0.491 0.460 0.269
v 192.000 -2.246 64.000 0.455 0.423 0.246
v 192.000 -2.701 72.000 0.468 0.437 0.255
v 128.000 -2.017 80.000 0.352 0.330 0.193
v 136.000 -0.254 80.000 0.364 0.342 0.201
v 144.000 -0.992 80.000 0.451 0.426 0.252
v 152.000 -1.192 80.000 0.511 0.480 0.282
v 160.000 -1.946 80.000 0.526 0.496 0.293
v 168.000 -2.732 80.000 0.527 0.497 0.293
v 176.000 -2.922 80.000 0.530 0.501 0.295
v 184.000 -3.249 80.000 0.522 0.492 0.290
v 192.000 -3.011 80.000 0.474 0.442 0.258
v 128.000 -1.597 88.000 0.349 0.326 0.191
v 136.000 -0.912 88.000 0.355 0.333 0.195
v 144.000 -1.085 88.000 0.426 0.400 0.235
v 152.000 -1.540 88.000 0.500 0.470 0.276
v 160.000 -1.816 88.000 0.524 0.494 0.291
v 168.000 -2.594 88.000 0.523 0.493 0.290
v 176.000 -2.969 88.000 0.526 0.497 0.293
v 184.000 -3.206 88.000 0.508 0.478 0.281
v 192.000 -3.354 88.000 0.473 0.441 0.257
v 128.000 -0.615 96.000 0.352 0.330 0.193
v 136.000 -1.001 96.000 0.360 0.337 0.197
v 144.000 -0.813 96.000 0.447 0.418 0.245
v 152.000 -1.292 96.000 0.511 0.480 0.282
v 160.000 -1.769 96.000 0.518 0.488 0.287
v 168.000 -2.397 96.000 0.517 0.487 0.287
v 176.000 -3.183 96.000 0.521 0.491 0.289
v 184.000 -3.211 96.000 0.508 0.478 0.281
v 192.000 -3.445 96.000 0.467 0.435 0.253
v 128.000 -0.607 104.000 0.396 0.372 0.218
v 136.000 -1.082 104.000 0.463 0.436 0.257
v 144.000 -1.283 104.000 0.524 0.494 0.291
v 152.000 -1.444 104.000 0.530 0.500 0.295
v 160.000 -2.319 104.000 0.541 0.512 0.302
v 168.000 -2.706 104.000 0.518 0.488 0.288
v 176.000 -3.299 104.000 0.509 0.478 0.281
v 184.000 -3.539 104.000 0.492 0.461 0.270
v 192.000 -3.551 104.000 0.438 0.406 0.235
v 128.000 -1.198 112.000 0.509 0.479 0.282
v 136.000 -1.305 112.000 0.525 0.496 0.292
v 144.000 -1.852 112.000 0.519 0.489 0.288
v 152.000 -2.050 112.000 0.545 0.516 0.305
v 160.000 -2.756 112.000 0.537 0.508 0.300
v 168.000 -3.379 112.000 0.517 0.487 0.287
v 176.000 -3.567 112.000 0.517 0.487 0.286
v 184.000 -4.152 112.000 0.486 0.455 0.266
v 192.000 -4.463 112.000 0.441 0.408 0.236
v 128.000 -1.382 120.000 0.513 0.483 0.284
v 136.000 -1.471 120.000 0.505 0.474 0.278
v 144.000 -2.106 120.000 0.500 0.469 0.275
v 152.000 -3.033 120.000 0.525 0.495 0.292
v 160.000 -3.626 120.000 0.541 0.512 0.302
v 168.000 -4.365 120.000 0.534 0.504 0.298
v 176.000 -4.627 120.000 0.517 0.487 0.287
v 184.000 -4.969 120.000 0.492 0.461 0.270
v 192.000 -5.718 120.000 0.458 0.426 0.248
v 128.000 -1.463 128.000 0.541 0.512 0.303
v 136.000 -2.056 128.000 0.509 0.478 0.281
v 144.000 -2.670 128.000 0.478 0.447 0.261
v 152.000 -3.969 128.000 0.497 0.467 0.274
v 160.000 -4.759 128.000 0.527 0.497 0.293
v 168.000 -5.067 128.000 0.517 0.487 0.286
v 176.000 -5.592 128.000 0.520 0.491 0.289
v 184.000 -5.810 128.000 0.492 0.461 0.270
v 192.000 -6.780 128.000 0.461 0.429 0.250

vt 0.700000 0.400000
vt 0.700000 0.387500
vt 0.712500 0.387500
vt 0.712500 0.400000
vt 0.725000 0.400000
vt 0.725000 0.387500
vt 0.737500 0.387500
vt 0.737500 0.400000
vt 0.750000 0.400000
vt 0.750000 0.387500
vt 0.762500 0.387500
vt 0.762500 0.400000
vt 0.775000 0.400000
vt 0.775000 0.387500
vt 0.787500 0.387500
vt 0.787500 0.400000
vt 0.800000 0.400000
vt 0.800000 0.387500
vt 0.700000 0.375000
vt 0.712500 0.375000
vt 0.725000 0.375000
vt 0.737500 0.375000
vt 0.750000 0.375000
vt 0.762500 0.375000
vt 0.775000 0.375000
vt 0.787500 0.375000
vt 0.800000 0.375000
vt 0.700000 0.362500
vt 0.712500 0.362500
vt 0.725000 0.362500
vt 0.737500 0.362500
vt 0.750000 0.362500
vt 0.762500 0.362500
vt 0.775000 0.362500
vt 0.787500 0.362500
vt 0.800000 0.362500
vt 0.700000 0.350000
vt 0.712500 0.350000
vt 0.725000 0.350000
vt 0.737500 0.350000
vt 0.750000 0.350000
vt 0.762500 0.350000
vt 0.775000 0.350000
vt 0.787500 0.350000
vt 0.800000 0.350000
vt 0.700000 0.337500
vt 0.712500 0.337500
vt 0.725000 0.337500
vt 0.737500 0.337500
vt 0.750000 0.337500
vt 0.762500 0.337500
vt 0.775000 0.337500
vt 0.787500 0.337500
vt 0.800000 0.337500
vt 0.700000 0.325000
vt 0.712500 0.325000
vt 0.725000 0.325000
vt 0.737500 0.325000
vt 0.750000 0.325000
vt 0.762500 0.325000
vt 0.775000 0.325000
vt 0.787500 0.325000
vt 0.800000 0.325000
vt 0.700000 0.312500
vt 0.712500 0.312500
vt 0.725000 0.312500
vt 0.737500 0.312500
vt 0.750000 0.312500
vt 0.762500 0.312500
vt 0.775000 0.312500
vt 0.787500 0.312500
vt 0.800000 0.312500
vt 0.700000 0.300000
vt 0.712500 0.300000
vt 0.725000 0.300000
vt 0.737500 0.300000
vt 0.750000 0.300000
vt 0.762500 0.300000
vt 0.775000 0.300000
vt 0.787500 0.300000
vt 0.800000 0.300000

vn -0.17756 0.98387 -0.02192
vn -0.17188 0.98493 0.01899
vn -0.08157 0.99638 0.02411
vn -0.11683 0.99302 -0.01620
vn 0.00368 0.99924 0.03889
vn 0.02006 0.99715 0.07269
vn 0.04665 0.99549 0.08256
vn 0.02115 0.99856 0.04936
vn 0.04205 0.99241 0.11552
vn 0.07067 0.99137 0.11039
vn 0.06033 0.98911 0.13428
vn 0.05287 0.98527 0.16266
vn 0.07329 0.98601 0.14968
vn 0.06915 0.99066 0.11753
vn 0.03584 0.99473 0.09608
vn 0.07537 0.98655 0.14501
vn 0.04919 0.99364 0.10132
vn 0.00448 0.99885 0.04775
vn -0.17251 0.98458 0.02893
vn -0.06381 0.99664 0.05144
vn 0.04407 0.99754 0.05449
vn 0.05938 0.99575 0.07044
vn 0.08200 0.99517 0.05396
vn 0.06071 0.99603 0.06505
vn 0.04307 0.99789 0.04858
vn 0.00556 0.99941 0.03378
vn -0.00913 0.99926 0.03727
vn -0.08496 0.99259 -0.08692
vn -0.02889 0.99958 -0.00135
vn 0.03922 0.99917 -0.01118
vn 0.05259 0.99861 -0.00244
vn 0.06570 0.99778 -0.01108
vn 0.07318 0.99728 -0.00915
vn 0.03825 0.99913 0.01632
vn 0.01752 0.99980 0.00970
vn 0.01847 0.99946 0.02714
vn 0.01750 0.99952 -0.02561
vn 0.01236 0.99987 0.01062
vn 0.02458 0.99967 0.00731
vn 0.05961 0.99820 -0.00600
vn 0.07051 0.99738 0.01595
vn 0.08805 0.99609 0.00697
vn 0.04798 0.99870 0.01726
vn 0.01638 0.99965 0.02082
vn 0.01960 0.99967 0.01658
vn 0.05924 0.99758 0.03635
vn 0.03438 0.99880 0.03483
vn 0.02256 0.99764 0.06479
vn 0.06125 0.99660 0.05517
vn 0.07846 0.99502 0.06143
vn 0.06516 0.99652 0.05196
vn 0.05203 0.99836 0.02397
vn 0.02592 0.99835 0.05121
vn 0.00149 0.99798 0.06348
vn 0.02428 0.99904 0.03635
vn 0.04081 0.99887 0.02428
vn 0.05319 0.99699 0.05648
vn 0.05615 0.99353 0.09870
vn 0.08144 0.99253 0.09090
vn 0.05033 0.99341 0.10301
vn 0.04637 0.99492 0.08931
vn 0.05567 0.99449 0.08886
vn 0.04290 0.99283 0.11158
vn 0.01111 0.99980 0.01652
vn 0.05161 0.99785 0.04029
vn 0.09706 0.99398 0.05082
vn 0.09332 0.99029 0.10301
vn 0.08229 0.98889 0.12376
vn 0.05652 0.99179 0.11472
vn 0.03745 0.99139 0.12549
vn 0.06602 0.99075 0.11855
vn 0.09225 0.98546 0.14270
vn 0.04255 0.99823 0.04155
vn 0.07505 0.99452 0.07274
vn 0.10760 0.99081 0.08202
vn 0.12857 0.98499 0.11521
vn 0.07515 0.98983 0.12076
vn 0.05183 0.99483 0.08734
vn 0.04182 0.99329 0.10781
vn 0.07361 0.99182 0.10424
vn 0.10607 0.98740 0.11741

f 1/1/1 2/2/2 3/3/3
f 1/1/1 3/3/3 4/4/4
f 4/4/4 3/3/3 5/5/5
f 5/5/5 3/3/3 6/6/6
f 5/5/5 6/6/6 7/7/7
f 5/5/5 7/7/7 8/8/8
f 8/8/8 7/7/7 9/9/9
f 9/9/9 7/7/7 10/10/10
f 9/9/9 10/10/10 11/11/11
f 9/9/9 11/11/11 12/12/12
f 12/12/12 11/11/11 13/13/13
f 13/13/13 11/11/11 14/14/14
f 13/13/13 14/14/14 15/15/15
f 13/13/13 15/15/15 16/16/16
f 16/16/16 15/15/15 17/17/17
f 17/17/17 15/15/15 18/18/18
f 2/2/2 19/19/19 3/3/3
f 3/3/3 19/19/19 20/20/20
f 3/3/3 20/20/20 21/21/21
f 3/3/3 21/21/21 6/6/6
f 6/6/6 21/21/21 7/7/7
f 7/7/7 21/21/21 22/22/22
f 7/7/7 22/22/22 23/23/23
f 7/7/7 23/23/23 10/10/10
f 10/10/10 23/23/23 11/11/11
f 11/11/11 23/23/23 24/24/24
f 11/11/11 24/24/24 25/25/25
f 11/11/11 25/25/25 14/14/14
f 14/14/14 25/25/25 15/15/15
f 15/15/15 25/25/25 26/26/26
f 15/15/15 26/26/26 27/27/27
f 15/15/15 27/27/27 18/18/18
f 19/19/19 28/28/28 29/29/29
f 19/19/19 29/29/29 20/20/20
f 20/20/20 29/29/29 21/21/21
f 21/21/21 29/29/29 30/30/30
f 21/21/21 30/30/30 31/31/31
f 21/21/21 31/31/31 22/22/22
f 22/22/22 31/31/31 23/23/23
f 23/23/23 31/31/31 32/32/32
f 23/23/23 32/32/32 33/33/33
f 23/23/23 33/33/33 24/24/24
f 24/24/24 33/33/33 25/25/25
f 25/25/25 33/33/33 34/34/34
f 25/25/25 34/34/34 35/35/35
f 25/25/25 35/35/35 26/26/26
f 26/26/26 35/35/35 27/27/27
f 27/27/27 35/35/35 36/36/36
f 28/28/28 37/37/37 29/29/29
f 29/29/29 37/37/37 38/38/38
f 29/29/29 38/38/38 39/39/39
f 29/29/29 39/39/39 30/30/30
f 30/30/30 39/39/39 31/31/31
f 31/31/31 39/39/39 40/40/40
f 31/31/31 40/40/40 41/41/41
f 31/31/31 41/41/41 32/32/32
f 32/32/32 41/41/41 33/33/33
f 33/33/33 41/41/41 42/42/42
f 33/33/33 42/42/42 43/43/43
f 33/33/33 43/43/43 34/34/34
f 34/34/34 43/43/43 35/35/35
f 35/35/35 43/43/43 44/44/44
f 35/35/35 44/44/44 45/45/45
f 35/35/35 45/45/45 36/36/36
f 37/37/37 46/46/46 47/47/47
f 37/37/37 47/47/47 38/38/38
f 38/38/38 47/47/47 39/39/39
f 39/39/39 47/47/47 48/48/48
f 39/39/39 48/48/48 49/49/49
f 39/39/39 49/49/49 40/40/40
f 40/40/40 49/49/49 41/41/41
f 41/41/41 49/49/49 50/50/50
f 41/41/41 50/50/50 51/51/51
f 41/41/41 51/51/51 42/42/42
f 42/42/42 51/51/51 43/43/43
f 43/43/43 51/51/51 52/52/52
f 43/43/43 52/52/52 53/53/53
f 43/43/43 53/53/53 44/44/44
f 44/44/44 53/53/53 45/45/45
f 45/45/45 53/53/53 54/54/54
f 46/46/46 55/55/55 47/47/47
f 47/47/47 55/55/55 56/56/56
f 47/47/47 56/56/56 57/57/57
f 47/47/47 57/57/57 48/48/48
f 48/48/48 57/57/57 49/49/49
f 49/49/49 57/57/57 58/58/58
f 49/49/49 58/58/58 59/59/59
f 49/49/49 59/59/59 50/50/50
f 50/50/50 59/59/59 51/51/51
f 51/51/51 59/59/59 60/60/60
f 51/51/51 60/60/60 61/61/61
f 51/51/51 61/61/61 52/52/52
f 52/52/52 61/61/61 53/53/53
f 53/53/53 61/61/61 62/62/62
f 53/53/53 62/62/62 63/63/63
f 53/53/53 63/63/63 54/54/54
f 55/55/55 64/64/64 65/65/65
f 55/55/55 65/65/65 56/56/56
f 56/56/56 65/65/65 57/57/57
f 57/57/57 65/65/65 66/66/66
f 57/57/57 66/66/66 67/67/67
f 57/57/57 67/67/67 58/58/58
f 58/58/58 67/67/67 59/59/59
f 59/59/59 67/67/67 68/68/68
f 59/59/59 68/68/68 69/69/69
f 59/59/59 69/69/69 60/60/60
f 60/60/60 69/69/69 61/61/61
f 61/61/61 69/69/69 70/70/70
f 61/61/61 70/70/70 71/71/71
f 61/61/61 71/71/71 62/62/62
f 62/62/62 71/71/71 63/63/63
f 63/63/63 71/71/71 72/72/72
f 64/64/64 73/73/73 65/65/65
f 65/65/65 73/73/73 74/74/74
f 65/65/65 74/74/74 75/75/75
f 65/65/65 75/75/75 66/66/66
f 66/66/66 75/75/75 67/67/67
f 67/67/67 75/75/75 76/76/76
f 67/67/67 76/76/76 77/77/77
f 67/67/67 77/77/77 68/68/68
f 68/68/68 77/77/77 69/69/69
f 69/69/69 77/77/77 78/78/78
f 69/69/69 78/78/78 79/79/79
f 69/69/69 79/79/79 70/70/70
f 70/70/70 79/79/79 71/71/71
f 71/71/71 79/79/79 80/80/80
f 71/71/71 80/80/80 81/81/81
f 71/71/71 81/81/81 72/72/72
