# Generated by tools/generate_island.py. Do not edit by hand.
o terrain_lod2_0_-1

v 0.000 6.406 -128.000 0.106 0.182 0.062
v 0.000 10.063 -112.000 0.182 0.233 0.164
v 16.000 12.787 -112.000 0.109 0.113 0.100
v 16.000 6.793 -128.000 0.124 0.173 0.119
v 32.000 6.401 -128.000 0.082 0.161 0.054
v 32.000 9.045 -112.000 0.141 0.196 0.135
v 48.000 6.765 -112.000 0.125 0.175 0.121
v 48.000 3.882 -128.000 0.080 0.159 0.053
v 64.000 -0.840 -128.000 0.260 0.235 0.132
v 64.000 4.109 -112.000 0.080 0.159 0.053
v 80.000 -0.904 -112.000 0.260 0.235 0.132
v 80.000 -0.255 -128.000 0.267 0.242 0.137
v 96.000 1.612 -128.000 0.080 0.159 0.053
v 96.000 0.065 -112.000 0.264 0.239 0.135
v 112.000 2.521 -112.000 0.090 0.168 0.057
v 112.000 1.288 -128.000 0.085 0.166 0.055
v 128.000 1.711 -128.000 0.129 0.215 0.074
v 128.000 2.031 -112.000 0.095 0.175 0.059
v 0.000 10.650 -96.000 0.208 0.267 0.188
v 16.000 15.522 -96.000 0.119 0.123 0.109
v 32.000 14.924 -96.000 0.120 0.124 0.110
v 48.000 4.542 -96.000 0.093 0.177 0.059
v 64.000 4.303 -96.000 0.088 0.166 0.056
v 80.000 2.514 -96.000 0.080 0.159 0.053
v 96.000 -0.961 -96.000 0.271 0.246 0.140
v 112.000 0.373 -96.000 0.276 0.252 0.143
v 128.000 2.211 -96.000 0.092 0.169 0.057
v 0.000 3.213 -80.000 0.112 0.221 0.074
v 16.000 19.310 -80.000 0.118 0.123 0.108
v 32.000 15.146 -80.000 0.127 0.132 0.116
v 48.000 4.426 -80.000 0.110 0.189 0.065
v 64.000 4.271 -80.000 0.091 0.168 0.057
v 80.000 3.994 -80.000 0.077 0.171 0.091
v 96.000 2.180 -80.000 0.079 0.173 0.092
v 112.000 -1.009 -80.000 0.303 0.279 0.161
v 128.000 0.540 -80.000 0.304 0.281 0.162
v 0.000 30.133 -64.000 0.131 0.136 0.120
v 16.000 34.133 -64.000 0.124 0.129 0.114
v 32.000 21.236 -64.000 0.138 0.144 0.126
v 48.000 4.426 -64.000 0.130 0.206 0.072
v 64.000 4.288 -64.000 0.115 0.189 0.065
v 80.000 4.092 -64.000 0.095 0.193 0.101
v 96.000 3.889 -64.000 0.106 0.208 0.108
v 112.000 -1.964 -64.000 0.311 0.288 0.166
v 128.000 -1.048 -64.000 0.298 0.275 0.158
v 0.000 41.562 -48.000 0.149 0.138 0.127
v 16.000 43.067 -48.000 0.146 0.152 0.133
v 32.000 41.107 -48.000 0.144 0.150 0.131
v 48.000 6.304 -48.000 0.132 0.211 0.073
v 64.000 4.412 -48.000 0.137 0.209 0.073
v 80.000 4.331 -48.000 0.130 0.202 0.071
v 96.000 4.198 -48.000 0.157 0.226 0.080
v 112.000 1.409 -48.000 0.144 0.214 0.076
v 128.000 -2.198 -48.000 0.322 0.299 0.173
v 0.000 37.913 -32.000 0.168 0.156 0.144
v 16.000 38.771 -32.000 0.180 0.188 0.164
v 32.000 42.892 -32.000 0.165 0.172 0.151
v 48.000 39.234 -32.000 0.155 0.162 0.142
v 64.000 17.400 -32.000 0.156 0.163 0.143
v 80.000 6.296 -32.000 0.135 0.208 0.073
v 96.000 4.501 -32.000 0.149 0.220 0.078
v 112.000 6.321 -32.000 0.125 0.199 0.069
v 128.000 6.150 -32.000 0.114 0.188 0.065
v 0.000 29.897 -16.000 0.223 0.209 0.191
v 16.000 34.846 -16.000 0.210 0.197 0.180
v 32.000 43.272 -16.000 0.162 0.169 0.149
v 48.000 47.205 -16.000 0.140 0.146 0.129
v 64.000 36.571 -16.000 0.148 0.154 0.135
v 80.000 25.902 -16.000 0.185 0.194 0.169
v 96.000 19.356 -16.000 0.200 0.210 0.183
v 112.000 14.754 -16.000 0.202 0.211 0.184
v 128.000 8.925 -16.000 0.215 0.250 0.180
v 0.000 17.379 0.000 0.257 0.241 0.219
v 16.000 23.905 0.000 0.196 0.183 0.168
v 32.000 36.390 0.000 0.199 0.187 0.171
v 48.000 40.956 0.000 0.168 0.175 0.154
v 64.000 36.361 0.000 0.183 0.192 0.168
v 80.000 24.698 0.000 0.242 0.254 0.221
v 96.000 17.664 0.000 0.242 0.254 0.221
v 112.000 13.896 0.000 0.266 0.280 0.243
v 128.000 10.260 0.000 0.303 0.334 0.243

vt 0.500000 0.566667
vt 0.500000 0.558333
vt 0.508333 0.558333
vt 0.508333 0.566667
vt 0.516667 0.566667
vt 0.516667 0.558333
vt 0.525000 0.558333
vt 0.525000 0.566667
vt 0.533333 0.566667
vt 0.533333 0.558333
vt 0.541667 0.558333
vt 0.541667 0.566667
vt 0.550000 0.566667
vt 0.550000 0.558333
vt 0.558333 0.558333
vt 0.558333 0.566667
vt 0.566667 0.566667
vt 0.566667 0.558333
vt 0.500000 0.550000
vt 0.508333 0.550000
vt 0.516667 0.550000
vt 0.525000 0.550000
vt 0.533333 0.550000
vt 0.541667 0.550000
vt 0.550000 0.550000
vt 0.558333 0.550000
vt 0.566667 0.550000
vt 0.500000 0.541667
vt 0.508333 0.541667
vt 0.516667 0.541667
vt 0.525000 0.541667
vt 0.533333 0.541667
vt 0.541667 0.541667
vt 0.550000 0.541667
vt 0.558333 0.541667
vt 0.566667 0.541667
vt 0.500000 0.533333
vt 0.508333 0.533333
vt 0.516667 0.533333
vt 0.525000 0.533333
vt 0.533333 0.533333
vt 0.541667 0.533333
vt 0.550000 0.533333
vt 0.558333 0.533333
vt 0.566667 0.533333
vt 0.500000 0.525000
vt 0.508333 0.525000
vt 0.516667 0.525000
vt 0.525000 0.525000
vt 0.533333 0.525000
vt 0.541667 0.525000
vt 0.550000 0.525000
vt 0.558333 0.525000
vt 0.566667 0.525000
vt 0.500000 0.516667
vt 0.508333 0.516667
vt 0.516667 0.516667
vt 0.525000 0.516667
vt 0.533333 0.516667
vt 0.541667 0.516667
vt 0.550000 0.516667
vt 0.558333 0.516667
vt 0.566667 0.516667
vt 0.500000 0.508333
vt 0.508333 0.508333
vt 0.516667 0.508333
vt 0.525000 0.508333
vt 0.533333 0.508333
vt 0.541667 0.508333
vt 0.550000 0.508333
vt 0.558333 0.508333
vt 0.566667 0.508333
vt 0.500000 0.500000
vt 0.508333 0.500000
vt 0.516667 0.500000
vt 0.525000 0.500000
vt 0.533333 0.500000
vt 0.541667 0.500000
vt 0.550000 0.500000
vt 0.558333 0.500000
vt 0.566667 0.500000

vn -0.09265 0.95328 -0.28751
vn -0.16640 0.97750 -0.12964
vn -0.01696 0.97309 -0.22978
vn 0.00017 0.93644 -0.35084
vn 0.13502 0.96743 -0.21414
vn 0.17890 0.95072 -0.25322
vn 0.21038 0.97099 -0.11368
vn 0.21737 0.96061 -0.17312
vn 0.17834 0.96675 -0.18326
vn 0.23028 0.96080 -0.15441
vn 0.08468 0.99442 -0.06299
vn -0.07633 0.99626 0.04045
vn -0.07733 0.99624 0.03907
vn -0.10609 0.99116 0.07967
vn -0.05617 0.99796 0.03042
vn -0.00310 0.99704 -0.07684
vn 0.00207 0.99882 -0.04848
vn 0.03059 0.99941 -0.01560
vn -0.40756 0.91317 0.00468
vn -0.12975 0.97157 -0.19804
vn 0.31524 0.94133 -0.12050
vn 0.31425 0.94681 0.06923
vn 0.09453 0.99527 -0.02242
vn 0.16048 0.97568 -0.14934
vn 0.04569 0.99800 -0.04365
vn -0.09804 0.98918 0.10911
vn -0.07355 0.99424 0.07801
vn -0.65175 0.64781 -0.39442
vn -0.13366 0.88911 -0.43774
vn 0.41515 0.89256 -0.17606
vn 0.35918 0.93222 -0.04417
vn 0.01350 0.99991 0.00045
vn 0.07654 0.99513 -0.06212
vn 0.15275 0.97711 -0.14808
vn 0.03938 0.99893 0.02407
vn -0.09585 0.99027 0.10086
vn -0.27594 0.68978 -0.66937
vn 0.21788 0.78362 -0.58177
vn 0.59592 0.68681 -0.41614
vn 0.46739 0.88253 -0.05179
vn 0.02400 0.99952 -0.01949
vn 0.01247 0.99987 -0.01053
vn 0.15444 0.98661 -0.05234
vn 0.15206 0.98556 -0.07447
vn 0.00353 0.99998 0.00500
vn -0.09103 0.96766 -0.23524
vn 0.03609 0.95656 -0.28929
vn 0.68930 0.59999 -0.40604
vn 0.57416 0.63450 -0.51744
vn 0.05695 0.92383 -0.37855
vn 0.10559 0.98458 -0.13948
vn 0.09092 0.99568 -0.01904
vn 0.12248 0.97494 -0.18570
vn 0.21480 0.95285 -0.21433
vn -0.12104 0.94794 0.29455
vn -0.14902 0.95773 0.24606
vn 0.17353 0.94608 -0.27355
vn 0.44064 0.55315 -0.70701
vn 0.44351 0.63676 -0.63074
vn 0.31702 0.78643 -0.53013
vn 0.09713 0.88676 -0.45192
vn -0.04750 0.92192 -0.38446
vn 0.14128 0.92470 -0.35352
vn -0.25193 0.81449 0.52262
vn -0.34069 0.85945 0.38115
vn -0.35399 0.91652 0.18620
vn 0.28889 0.95006 -0.11803
vn 0.49699 0.74655 -0.44233
vn 0.41352 0.80165 -0.43169
vn 0.30667 0.88026 -0.36208
vn 0.19761 0.95027 -0.24070
vn 0.33983 0.93282 -0.11981
vn -0.27782 0.77477 0.56793
vn -0.44031 0.74115 0.50677
vn -0.38227 0.83187 0.40231
vn 0.00087 0.93147 0.36382
vn 0.50332 0.85763 0.10552
vn 0.50342 0.86161 0.06482
vn 0.32338 0.94286 0.08024
vn 0.22511 0.97294 0.05216
vn 0.28361 0.95883 -0.01429

f 1/1/1 2/2/2 3/3/3
f 1/1/1 3/3/3 4/4/4
f 4/4/4 3/3/3 5/5/5
f 5/5/5 3/3/3 6/6/6
f 5/5/5 6/6/6 7/7/7
f 5/5/5 7/7/7 8/8/8
f 8/8/8 7/7/7 9/9/9
f 9/9/9 7/7/7 10/10/10
f 9/9/9 10/10/10 11/11/11
f 9/9/9 11/11/11 12/12/12
f 12/12/12 11/11/11 13/13/13
f 13/13/13 11/11/11 14/14/14
f 13/13/13 14/14/14 15/15/15
f 13/13/13 15/15/15 16/16/16
f 16/16/16 15/15/15 17/17/17
f 17/17/17 15/15/15 18/18/18
f 2/2/2 19/19/19 3/3/3
f 3/3/3 19/19/19 20/20/20
f 3/3/3 20/20/20 21/21/21
f 3/3/3 21/21/21 6/6/6
f 6/6/6 21/21/21 7/7/7
f 7/7/7 21/21/21 22/22/22
f 7/7/7 22/22/22 23/23/23
f 7/7/7 23/23/23 10/10/10
f 10/10/10 23/23/23 11/11/11
f 11/11/11 23/23/23 24/24/24
f 11/11/11 24/24/24 25/25/25
f 11/11/11 25/25/25 14/14/14
f 14/14/14 25/25/25 15/15/15
f 15/15/15 25/25/25 26/26/26
f 15/15/15 26/26/26 27/27/27
f 15/15/15 27/27/27 18/18/18
f 19/19/19 28/28/28 29/29/29
f 19/19/19 29/29/29 20/20/20
f 20/20/20 29/29/29 21/21/21
f 21/21/21 29/29/29 30/30/30
f 21/21/21 30/30/30 31/31/31
f 21/21/21 31/31/31 22/22/22
f 22/22/22 31/31/31 23/23/23
f 23/23/23 31/31/31 32/32/32
f 23/23/23 32/32/32 33/33/33
f 23/23/23 33/33/33 24/24/24
f 24/24/24 33/33/33 25/25/25
f 25/25/25 33/33/33 34/34/34
f 25/25/25 34/34/34 35/35/35
f 25/25/25 35/35/35 26/26/26
f 26/26/26 35/35/35 27/27/27
f 27/27/27 35/35/35 36/36/36
f 28/28/28 37/37/37 29/29/29
f 29/29/29 37/37/37 38/38/38
f 29/29/29 38/38/38 39/39/39
f 29/29/29 39/39/39 30/30/30
f 30/30/30 39/39/39 31/31/31
f 31/31/31 39/39/39 40/40/40
f 31/31/31 40/40/40 41/41/41
f 31/31/31 41/41/41 32/32/32
f 32/32/32 41/41/41 33/33/33
f 33/33/33 41/41/41 42/42/42
f 33/33/33 42/42/42 43/43/43
f 33/33/33 43/43/43 34/34/34
f 34/34/34 43/43/43 35/35/35
f 35/35/35 43/43/43 44/44/44
f 35/35/35 44/44/44 45/45/45
f 35/35/35 45/45/45 36/36/36
f 37/37/37 46/46/46 47/47/47
f 37/37/37 47/47/47 38/38/38
f 38/38/38 47/47/47 39/39/39
f 39/39/39 47/47/47 48/48/48
f 39/39/39 48/48/48 49/49/49
f 39/39/39 49/49/49 40/40/40
f 40/40/40 49/49/49 41/41/41
f 41/41/41 49/49/49 50/50/50
f 41/41/41 50/50/50 51/51/51
f 41/41/41 51/51/51 42/42/42
f 42/42/42 51/51/51 43/43/43
f 43/43/43 51/51/51 52/52/52
f 43/43/43 52/52/52 53/53/53
f 43/43/43 53/53/53 44/44/44
f 44/44/44 53/53/53 45/45/45
f 45/45/45 53/53/53 54/54/54
f 46/46/46 55/55/55 47/47/47
f 47/47/47 55/55/55 56/56/56
f 47/47/47 56/56/56 57/57/57
f 47/47/47 57/57/57 48/48/48
f 48/48/48 57/57/57 49/49/49
f 49/49/49 57/57/57 58/58/58
f 49/49/49 58/58/58 59/59/59
f 49/49/49 59/59/59 50/50/50
f 50/50/50 59/59/59 51/51/51
f 51/51/51 59/59/59 60/60/60
f 51/51/51 60/60/60 61/61/61
f 51/51/51 61/61/61 52/52/52
f 52/52/52 61/61/61 53/53/53
f 53/53/53 61/61/61 62/62/62
f 53/53/53 62/62/62 63/63/63
f 53/53/53 63/63/63 54/54/54
f 55/55/55 64/64/64 65/65/65
f 55/55/55 65/65/65 56/56/56
f 56/56/56 65/65/65 57/57/57
f 57/57/57 65/65/65 66/66/66
f 57/57/57 66/66/66 67/67/67
f 57/57/57 67/67/67 58/58/58
f 58/58/58 67/67/67 59/59/59
f 59/59/59 67/67/67 68/68/68
f 59/59/59 68/68/68 69/69/69
f 59/59/59 69/69/69 60/60/60
f 60/60/60 69/69/69 61/61/61
f 61/61/61 69/69/69 70/70/70
f 61/61/61 70/70/70 71/71/71
f 61/61/61 71/71/71 62/62/62
f 62/62/62 71/71/71 63/63/63
f 63/63/63 71/71/71 72/72/72
f 64/64/64 73/73/73 65/65/65
f 65/65/65 73/73/73 74/74/74
f 65/65/65 74/74/74 75/75/75
f 65/65/65 75/75/75 66/66/66
f 66/66/66 75/75/75 67/67/67
f 67/67/67 75/75/75 76/76/76
f 67/67/67 76/76/76 77/77/77
f 67/67/67 77/77/77 68/68/68
f 68/68/68 77/77/77 69/69/69
f 69/69/69 77/77/77 78/78/78
f 69/69/69 78/78/78 79/79/79
f 69/69/69 79/79/79 70/70/70
f 70/70/70 79/79/79 71/71/71
f 71/71/71 79/79/79 80/80/80
f 71/71/71 80/80/80 81/81/81
f 71/71/71 81/81/81 72/72/72
