# Generated by tools/generate_island.py. Do not edit by hand.
o terrain_lod2_4_-4

v 512.000 -10.800 -448.000 0.503 0.472 0.277
v 512.000 -10.375 -432.000 0.518 0.488 0.287
v 528.000 -10.800 -432.000 0.451 0.419 0.243
v 512.000 -9.706 -416.000 0.541 0.512 0.303
v 528.000 -10.197 -416.000 0.473 0.441 0.257
v 544.000 -10.800 -416.000 0.418 0.385 0.221
v 512.000 -8.452 -400.000 0.507 0.477 0.280
v 528.000 -9.479 -400.000 0.472 0.441 0.257
v 544.000 -10.465 -400.000 0.503 0.473 0.277
v 560.000 -10.446 -400.000 0.517 0.487 0.287
v 560.000 -10.800 -416.000 0.415 0.382 0.219
v 576.000 -10.800 -416.000 0.444 0.412 0.238
v 576.000 -10.800 -400.000 0.441 0.409 0.237
v 512.000 -7.659 -384.000 0.504 0.474 0.278
v 528.000 -8.879 -384.000 0.499 0.469 0.275
v 544.000 -9.225 -384.000 0.559 0.530 0.314
v 560.000 -9.110 -384.000 0.544 0.515 0.304
v 576.000 -10.319 -384.000 0.463 0.432 0.251
v 592.000 -10.800 -400.000 0.449 0.417 0.242
v 592.000 -10.800 -384.000 0.467 0.435 0.254

vt 0.766667 0.733333
vt 0.766667 0.725000
vt 0.775000 0.725000
vt 0.766667 0.716667
vt 0.775000 0.716667
vt 0.783333 0.716667
vt 0.766667 0.708333
vt 0.775000 0.708333
vt 0.783333 0.708333
vt 0.791667 0.708333
vt 0.791667 0.716667
vt 0.800000 0.716667
vt 0.800000 0.708333
vt 0.766667 0.700000
vt 0.775000 0.700000
vt 0.783333 0.700000
vt 0.791667 0.700000
vt 0.800000 0.700000
vt 0.808333 0.708333
vt 0.808333 0.700000

vn 0.02655 0.99929 -0.02655
vn 0.02654 0.99906 -0.03415
vn 0.03034 0.99890 -0.03588
vn 0.03797 0.99800 -0.05058
vn 0.03413 0.99857 -0.04121
vn 0.02713 0.99920 -0.02928
vn 0.06397 0.99592 -0.06372
vn 0.05210 0.99745 -0.04878
vn 0.03016 0.99834 -0.04914
vn 0.01377 0.99900 -0.04243
vn 0.00000 0.99976 -0.02210
vn 0.01105 0.99988 -0.01105
vn 0.01473 0.99969 -0.02003
vn 0.07001 0.99660 -0.04340
vn 0.04884 0.99810 -0.03746
vn 0.01866 0.99745 -0.06885
vn 0.03406 0.99595 -0.08320
vn 0.03190 0.99885 -0.03587
vn 0.01503 0.99977 -0.01503
vn 0.03005 0.99955 0.00000

f 1/1/1 2/2/2 3/3/3
f 2/2/2 4/4/4 3/3/3
f 3/3/3 4/4/4 5/5/5
f 3/3/3 5/5/5 6/6/6
f 4/4/4 7/7/7 8/8/8
f 4/4/4 8/8/8 5/5/5
f 5/5/5 8/8/8 6/6/6
f 6/6/6 8/8/8 9/9/9
f 6/6/6 9/9/9 10/10/10
f 6/6/6 10/10/10 11/11/11
f 11/11/11 10/10/10 12/12/12
f 12/12/12 10/10/10 13/13/13
f 7/7/7 14/14/14 8/8/8
f 8/8/8 14/14/14 15/15/15
f 8/8/8 15/15/15 16/16/16
f 8/8/8 16/16/16 9/9/9
f 9/9/9 16/16/16 10/10/10
f 10/10/10 16/16/16 17/17/17
f 10/10/10 17/17/17 18/18/18
f 10/10/10 18/18/18 13/13/13
f 13/13/13 18/18/18 19/19/19
f 19/19/19 18/18/18 20/20/20
