# Generated by tools/generate_island.py. Do not edit by hand.
o terrain_lod0_-1_-7

v -8.000 -10.800 -776.000 0.577 0.548 0.326
v -8.000 -10.800 -772.000 0.577 0.548 0.326
v -4.000 -10.725 -772.000 0.555 0.526 0.312
v -4.000 -10.800 -776.000 0.558 0.529 0.313
v 0.000 -10.800 -776.000 0.538 0.509 0.301
v 0.000 -10.685 -772.000 0.531 0.501 0.296
v -12.000 -10.800 -772.000 0.585 0.557 0.331
v -12.000 -10.800 -768.000 0.582 0.554 0.329
v -8.000 -10.762 -768.000 0.577 0.549 0.326
v -4.000 -10.530 -768.000 0.562 0.533 0.316
v 0.000 -10.431 -768.000 0.542 0.512 0.303

vt 0.495833 0.904167
vt 0.495833 0.902083
vt 0.497917 0.902083
vt 0.497917 0.904167
vt 0.500000 0.904167
vt 0.500000 0.902083
vt 0.493750 0.902083
vt 0.493750 0.900000
vt 0.495833 0.900000
vt 0.497917 0.900000
vt 0.500000 0.900000

vn -0.00939 0.99991 -0.00939
vn -0.01252 0.99990 -0.00626
vn -0.01752 0.99941 -0.02957
vn 0.00000 0.99982 -0.01878
vn -0.00493 0.99971 -0.02371
vn -0.00986 0.99889 -0.04610
vn -0.00469 0.99998 -0.00469
vn -0.00938 0.99996 0.00000
vn -0.02156 0.99963 -0.01687
vn -0.04138 0.99796 -0.04863
vn -0.01730 0.99828 -0.05610

f 1/1/1 2/2/2 3/3/3
f 1/1/1 3/3/3 4/4/4
f 4/4/4 3/3/3 5/5/5
f 5/5/5 3/3/3 6/6/6
f 7/7/7 8/8/8 9/9/9
f 7/7/7 9/9/9 2/2/2
f 2/2/2 9/9/9 3/3/3
f 3/3/3 9/9/9 10/10/10
f 3/3/3 10/10/10 11/11/11
f 3/3/3 11/11/11 6/6/6
