# Generated by tools/generate_island.py. Do not edit by hand.
o terrain_lod2_-1_-7

v -16.000 -10.800 -784.000 0.585 0.557 0.331
v -16.000 -10.800 -768.000 0.573 0.544 0.323
v 0.000 -10.431 -768.000 0.542 0.512 0.303
v 0.000 -10.800 -784.000 0.562 0.533 0.316

vt 0.491667 0.908333
vt 0.491667 0.900000
vt 0.500000 0.900000
vt 0.500000 0.908333

vn -0.01154 0.99987 -0.01154
vn -0.02307 0.99973 0.00000
vn -0.01154 0.99987 -0.01154
vn 0.00000 0.99973 -0.02307

f 1/1/1 2/2/2 3/3/3
f 1/1/1 3/3/3 4/4/4
