# Generated by tools/generate_island.py. Do not edit by hand.
o terrain_lod2_0_-3

v 0.000 1.178 -384.000 0.190 0.277 0.100
v 0.000 1.785 -368.000 0.219 0.299 0.110
v 16.000 0.480 -368.000 0.423 0.390 0.225
v 16.000 0.867 -384.000 0.395 0.361 0.206
v 32.000 0.485 -384.000 0.469 0.438 0.255
v 32.000 0.099 -368.000 0.420 0.387 0.223
v 48.000 0.481 -368.000 0.453 0.421 0.244
v 48.000 0.337 -384.000 0.485 0.454 0.265
v 64.000 1.509 -384.000 0.255 0.327 0.122
v 64.000 1.019 -368.000 0.226 0.304 0.112
v 80.000 0.356 -368.000 0.496 0.465 0.273
v 80.000 0.930 -384.000 0.236 0.312 0.115
v 96.000 0.523 -384.000 0.431 0.398 0.230
v 96.000 0.219 -368.000 0.481 0.450 0.263
v 112.000 0.940 -368.000 0.184 0.272 0.098
v 112.000 1.522 -384.000 0.195 0.281 0.102
v 128.000 0.256 -384.000 0.439 0.407 0.235
v 128.000 -0.065 -368.000 0.417 0.384 0.221
v 0.000 1.632 -352.000 0.240 0.316 0.117
v 16.000 1.342 -352.000 0.213 0.294 0.108
v 32.000 1.465 -352.000 0.162 0.255 0.091
v 48.000 0.231 -352.000 0.400 0.366 0.209
v 64.000 0.712 -352.000 0.460 0.429 0.249
v 80.000 0.821 -352.000 0.447 0.415 0.240
v 96.000 1.016 -352.000 0.199 0.284 0.103
v 112.000 1.298 -352.000 0.164 0.256 0.091
v 128.000 -0.019 -352.000 0.441 0.408 0.236
v 0.000 1.655 -336.000 0.264 0.334 0.125
v 16.000 1.308 -336.000 0.225 0.304 0.112
v 32.000 1.992 -336.000 0.150 0.245 0.087
v 48.000 0.372 -336.000 0.372 0.337 0.191
v 64.000 0.482 -336.000 0.428 0.395 0.228
v 80.000 0.286 -336.000 0.409 0.375 0.215
v 96.000 0.658 -336.000 0.423 0.391 0.225
v 112.000 0.619 -336.000 0.414 0.381 0.219
v 128.000 0.366 -336.000 0.430 0.398 0.229
v 0.000 0.751 -320.000 0.504 0.474 0.278
v 16.000 1.689 -320.000 0.254 0.326 0.121
v 32.000 2.404 -320.000 0.148 0.244 0.086
v 48.000 0.700 -320.000 0.366 0.331 0.187
v 64.000 0.302 -320.000 0.380 0.346 0.197
v 80.000 -0.313 -320.000 0.390 0.356 0.203
v 96.000 0.012 -320.000 0.403 0.369 0.211
v 112.000 0.308 -320.000 0.418 0.385 0.222
v 128.000 0.944 -320.000 0.204 0.287 0.105
v 0.000 1.401 -304.000 0.246 0.320 0.119
v 16.000 1.861 -304.000 0.241 0.316 0.117
v 32.000 2.051 -304.000 0.192 0.278 0.101
v 48.000 0.833 -304.000 0.423 0.390 0.225
v 64.000 0.295 -304.000 0.427 0.394 0.227
v 80.000 0.360 -304.000 0.378 0.344 0.195
v 96.000 -1.200 -304.000 0.380 0.345 0.196
v 112.000 -0.976 -304.000 0.387 0.353 0.201
v 128.000 -0.080 -304.000 0.388 0.354 0.202
v 0.000 0.781 -288.000 0.526 0.496 0.292
v 16.000 1.681 -288.000 0.240 0.316 0.117
v 32.000 2.360 -288.000 0.234 0.311 0.115
v 48.000 1.414 -288.000 0.213 0.295 0.108
v 64.000 -0.241 -288.000 0.458 0.426 0.248
v 80.000 -0.143 -288.000 0.410 0.377 0.216
v 96.000 -1.121 -288.000 0.366 0.332 0.187
v 112.000 -0.468 -288.000 0.380 0.345 0.196
v 128.000 -0.461 -288.000 0.374 0.340 0.192
v 0.000 1.207 -272.000 0.243 0.318 0.118
v 16.000 2.070 -272.000 0.240 0.315 0.117
v 32.000 1.376 -272.000 0.180 0.269 0.097
v 48.000 1.399 -272.000 0.170 0.261 0.093
v 64.000 0.239 -272.000 0.433 0.400 0.231
v 80.000 -0.020 -272.000 0.425 0.392 0.226
v 96.000 -0.143 -272.000 0.390 0.356 0.203
v 112.000 0.334 -272.000 0.380 0.345 0.196
v 128.000 -0.016 -272.000 0.365 0.330 0.186
v 0.000 2.555 -256.000 0.286 0.351 0.132
v 16.000 2.263 -256.000 0.254 0.327 0.121
v 32.000 1.238 -256.000 0.193 0.279 0.101
v 48.000 0.891 -256.000 0.175 0.265 0.095
v 64.000 1.000 -256.000 0.198 0.283 0.103
v 80.000 -0.239 -256.000 0.409 0.375 0.215
v 96.000 0.106 -256.000 0.412 0.379 0.217
v 112.000 -0.523 -256.000 0.396 0.362 0.207
v 128.000 -0.778 -256.000 0.390 0.356 0.203

vt 0.500000 0.700000
vt 0.500000 0.691667
vt 0.508333 0.691667
vt 0.508333 0.700000
vt 0.516667 0.700000
vt 0.516667 0.691667
vt 0.525000 0.691667
vt 0.525000 0.700000
vt 0.533333 0.700000
vt 0.533333 0.691667
vt 0.541667 0.691667
vt 0.541667 0.700000
vt 0.550000 0.700000
vt 0.550000 0.691667
vt 0.558333 0.691667
vt 0.558333 0.700000
vt 0.566667 0.700000
vt 0.566667 0.691667
vt 0.500000 0.683333
vt 0.508333 0.683333
vt 0.516667 0.683333
vt 0.525000 0.683333
vt 0.533333 0.683333
vt 0.541667 0.683333
vt 0.550000 0.683333
vt 0.558333 0.683333
vt 0.566667 0.683333
vt 0.500000 0.675000
vt 0.508333 0.675000
vt 0.516667 0.675000
vt 0.525000 0.675000
vt 0.533333 0.675000
vt 0.541667 0.675000
vt 0.550000 0.675000
vt 0.558333 0.675000
vt 0.566667 0.675000
vt 0.500000 0.666667
vt 0.508333 0.666667
vt 0.516667 0.666667
vt 0.525000 0.666667
vt 0.533333 0.666667
vt 0.541667 0.666667
vt 0.550000 0.666667
vt 0.558333 0.666667
vt 0.566667 0.666667
vt 0.500000 0.658333
vt 0.508333 0.658333
vt 0.516667 0.658333
vt 0.525000 0.658333
vt 0.533333 0.658333
vt 0.541667 0.658333
vt 0.550000 0.658333
vt 0.558333 0.658333
vt 0.566667 0.658333
vt 0.500000 0.650000
vt 0.508333 0.650000
vt 0.516667 0.650000
vt 0.525000 0.650000
vt 0.533333 0.650000
vt 0.541667 0.650000
vt 0.550000 0.650000
vt 0.558333 0.650000
vt 0.566667 0.650000
vt 0.500000 0.641667
vt 0.508333 0.641667
vt 0.516667 0.641667
vt 0.525000 0.641667
vt 0.533333 0.641667
vt 0.541667 0.641667
vt 0.550000 0.641667
vt 0.558333 0.641667
vt 0.566667 0.641667
vt 0.500000 0.633333
vt 0.508333 0.633333
vt 0.516667 0.633333
vt 0.525000 0.633333
vt 0.533333 0.633333
vt 0.541667 0.633333
vt 0.550000 0.633333
vt 0.558333 0.633333
vt 0.566667 0.633333

vn 0.05044 0.99870 -0.00686
vn 0.08130 0.99659 -0.01413
vn 0.03303 0.99928 -0.01861
vn 0.02165 0.99947 0.02419
vn 0.00826 0.99984 0.01584
vn -0.00004 0.99953 -0.03063
vn -0.01648 0.99986 0.00022
vn -0.03199 0.99945 -0.00899
vn -0.00731 0.99973 0.02204
vn 0.00391 0.99968 0.02491
vn 0.01782 0.99983 0.00409
vn 0.03077 0.99888 0.03586
vn -0.01837 0.99945 0.02757
vn -0.01825 0.99972 -0.01538
vn 0.01461 0.99989 0.00180
vn 0.00835 0.99930 0.03636
vn 0.07078 0.99709 0.02816
vn 0.06271 0.99799 0.00856
vn 0.03485 0.99933 -0.01091
vn 0.00519 0.99965 -0.02589
vn 0.02464 0.99908 -0.03516
vn 0.02355 0.99972 0.00341
vn -0.00757 0.99992 0.00979
vn -0.00950 0.99995 0.00219
vn -0.01463 0.99989 -0.00380
vn 0.03230 0.99943 0.01002
vn 0.06070 0.99815 -0.00173
vn 0.02165 0.99939 0.02749
vn -0.01688 0.99984 -0.00588
vn 0.02925 0.99914 -0.02931
vn 0.04586 0.99888 -0.01145
vn 0.00269 0.99991 0.01281
vn -0.00286 0.99958 0.02875
vn -0.01042 0.99945 0.03136
vn 0.00535 0.99986 0.01579
vn 0.01579 0.99942 -0.03006
vn -0.03104 0.99951 -0.00465
vn -0.05157 0.99852 -0.01723
vn 0.03077 0.99949 -0.00883
vn 0.06556 0.99775 -0.01439
vn 0.02019 0.99980 -0.00127
vn 0.00906 0.99996 -0.00234
vn -0.00187 0.99916 0.04088
vn -0.02909 0.99834 0.04978
vn -0.02990 0.99904 0.03187
vn -0.02874 0.99959 -0.00092
vn -0.03538 0.99937 0.00024
vn 0.03209 0.99948 0.00138
vn 0.06404 0.99793 -0.00656
vn 0.01478 0.99975 0.01696
vn 0.03249 0.99942 0.01042
vn 0.04171 0.99850 0.03533
vn -0.02992 0.99904 0.03192
vn -0.05591 0.99747 0.04381
vn -0.04872 0.99881 -0.00024
vn -0.04928 0.99876 -0.00652
vn 0.01742 0.99984 0.00449
vn 0.08102 0.99656 -0.01762
vn 0.03908 0.99924 -0.00057
vn 0.02747 0.99955 0.01188
vn 0.01275 0.99964 -0.02379
vn -0.02059 0.99895 -0.04092
vn -0.00874 0.99973 -0.02148
vn -0.05374 0.99702 -0.05527
vn -0.00468 0.99989 -0.01418
vn 0.02094 0.99917 0.03505
vn 0.03991 0.99918 0.00724
vn 0.04427 0.99827 -0.03873
vn 0.01981 0.99965 -0.01777
vn -0.01107 0.99920 -0.03831
vn -0.00023 0.99998 -0.00625
vn 0.02187 0.99971 0.00989
vn -0.01779 0.99868 -0.04809
vn 0.04113 0.99908 -0.01206
vn 0.03189 0.99945 0.00923
vn 0.00742 0.99947 0.03171
vn 0.03980 0.99913 -0.01242
vn 0.02792 0.99952 0.01367
vn -0.00110 0.99996 0.00903
vn 0.02758 0.99819 0.05348
vn 0.01888 0.99854 0.05054

f 1/1/1 2/2/2 3/3/3
f 1/1/1 3/3/3 4/4/4
f 4/4/4 3/3/3 5/5/5
f 5/5/5 3/3/3 6/6/6
f 5/5/5 6/6/6 7/7/7
f 5/5/5 7/7/7 8/8/8
f 8/8/8 7/7/7 9/9/9
f 9/9/9 7/7/7 10/10/10
f 9/9/9 10/10/10 11/11/11
f 9/9/9 11/11/11 12/12/12
f 12/12/12 11/11/11 13/13/13
f 13/13/13 11/11/11 14/14/14
f 13/13/13 14/14/14 15/15/15
f 13/13/13 15/15/15 16/16/16
f 16/16/16 15/15/15 17/17/17
f 17/17/17 15/15/15 18/18/18
f 2/2/2 19/19/19 3/3/3
f 3/3/3 19/19/19 20/20/20
f 3/3/3 20/20/20 21/21/21
f 3/3/3 21/21/21 6/6/6
f 6/6/6 21/21/21 7/7/7
f 7/7/7 21/21/21 22/22/22
f 7/7/7 22/22/22 23/23/23
f 7/7/7 23/23/23 10/10/10
f 10/10/10 23/23/23 11/11/11
f 11/11/11 23/23/23 24/24/24
f 11/11/11 24/24/24 25/25/25
f 11/11/11 25/25/25 14/14/14
f 14/14/14 25/25/25 15/15/15
f 15/15/15 25/25/25 26/26/26
f 15/15/15 26/26/26 27/27/27
f 15/15/15 27/27/27 18/18/18
f 19/19/19 28/28/28 29/29/29
f 19/19/19 29/29/29 20/20/20
f 20/20/20 29/29/29 21/21/21
f 21/21/21 29/29/29 30/30/30
f 21/21/21 30/30/30 31/31/31
f 21/21/21 31/31/31 22/22/22
f 22/22/22 31/31/31 23/23/23
f 23/23/23 31/31/31 32/32/32
f 23/23/23 32/32/32 33/33/33
f 23/23/23 33/33/33 24/24/24
f 24/24/24 33/33/33 25/25/25
f 25/25/25 33/33/33 34/34/34
f 25/25/25 34/34/34 35/35/35
f 25/25/25 35/35/35 26/26/26
f 26/26/26 35/35/35 27/27/27
f 27/27/27 35/35/35 36/36/36
f 28/28/28 37/37/37 29/29/29
f 29/29/29 37/37/37 38/38/38
f 29/29/29 38/38/38 39/39/39
f 29/29/29 39/39/39 30/30/30
f 30/30/30 39/39/39 31/31/31
f 31/31/31 39/39/39 40/40/40
f 31/31/31 40/40/40 41/41/41
f 31/31/31 41/41/41 32/32/32
f 32/32/32 41/41/41 33/33/33
f 33/33/33 41/41/41 42/42/42
f 33/33/33 42/42/42 43/43/43
f 33/33/33 43/43/43 34/34/34
f 34/34/34 43/43/43 35/35/35
f 35/35/35 43/43/43 44/44/44
f 35/35/35 44/44/44 45/45/45
f 35/35/35 45/45/45 36/36/36
f 37/37/37 46/46/46 47/47/47
f 37/37/37 47/47/47 38/38/38
f 38/38/38 47/47/47 39/39/39
f 39/39/39 47/47/47 48/48/48
f 39/39/39 48/48/48 49/49/49
f 39/39/39 49/49/49 40/40/40
f 40/40/40 49/49/49 41/41/41
f 41/41/41 49/49/49 50/50/50
f 41/41/41 50/50/50 51/51/51
f 41/41/41 51/51/51 42/42/42
f 42/42/42 51/51/51 43/43/43
f 43/43/43 51/51/51 52/52/52
f 43/43/43 52/52/52 53/53/53
f 43/43/43 53/53/53 44/44/44
f 44/44/44 53/53/53 45/45/45
f 45/45/45 53/53/53 54/54/54
f 46/46/46 55/55/55 47/47/47
f 47/47/47 55/55/55 56/56/56
f 47/47/47 56/56/56 57/57/57
f 47/47/47 57/57/57 48/48/48
f 48/48/48 57/57/57 49/49/49
f 49/49/49 57/57/57 58/58/58
f 49/49/49 58/58/58 59/59/59
f 49/49/49 59/59/59 50/50/50
f 50/50/50 59/59/59 51/51/51
f 51/51/51 59/59/59 60/60/60
f 51/51/51 60/60/60 61/61/61
f 51/51/51 61/61/61 52/52/52
f 52/52/52 61/61/61 53/53/53
f 53/53/53 61/61/61 62/62/62
f 53/53/53 62/62/62 63/63/63
f 53/53/53 63/63/63 54/54/54
f 55/55/55 64/64/64 65/65/65
f 55/55/55 65/65/65 56/56/56
f 56/56/56 65/65/65 57/57/57
f 57/57/57 65/65/65 66/66/66
f 57/57/57 66/66/66 67/67/67
f 57/57/57 67/67/67 58/58/58
f 58/58/58 67/67/67 59/59/59
f 59/59/59 67/67/67 68/68/68
f 59/59/59 68/68/68 69/69/69
f 59/59/59 69/69/69 60/60/60
f 60/60/60 69/69/69 61/61/61
f 61/61/61 69/69/69 70/70/70
f 61/61/61 70/70/70 71/71/71
f 61/61/61 71/71/71 62/62/62
f 62/62/62 71/71/71 63/63/63
f 63/63/63 71/71/71 72/72/72
f 64/64/64 73/73/73 65/65/65
f 65/65/65 73/73/73 74/74/74
f 65/65/65 74/74/74 75/75/75
f 65/65/65 75/75/75 66/66/66
f 66/66/66 75/75/75 67/67/67
f 67/67/67 75/75/75 76/76/76
f 67/67/67 76/76/76 77/77/77
f 67/67/67 77/77/77 68/68/68
f 68/68/68 77/77/77 69/69/69
f 69/69/69 77/77/77 78/78/78
f 69/69/69 78/78/78 79/79/79
f 69/69/69 79/79/79 70/70/70
f 70/70/70 79/79/79 71/71/71
f 71/71/71 79/79/79 80/80/80
f 71/71/71 80/80/80 81/81/81
f 71/71/71 81/81/81 72/72/72
