# Generated by tools/generate_island.py. Do not edit by hand.
o terrain_lod2_-3_-1

v -192.000 -8.000 -64.000 0.519 0.489 0.288
v -192.000 -8.000 -56.000 0.504 0.474 0.278
v -184.000 -8.000 -56.000 0.537 0.507 0.299
v -184.000 -8.000 -64.000 0.521 0.491 0.289
v -176.000 -8.000 -64.000 0.538 0.509 0.301
v -176.000 -8.000 -56.000 0.546 0.517 0.306
v -168.000 -8.000 -56.000 0.531 0.502 0.296
v -168.000 -8.000 -64.000 0.506 0.476 0.279
v -160.000 -8.000 -64.000 0.517 0.487 0.286
v -160.000 -8.000 -56.000 0.522 0.492 0.290
v -152.000 -8.000 -56.000 0.513 0.483 0.284
v -152.000 -8.000 -64.000 0.490 0.459 0.269
v -144.000 -8.000 -64.000 0.459 0.428 0.249
v -144.000 -8.000 -56.000 0.476 0.444 0.259
v -136.000 -8.000 -56.000 0.489 0.458 0.268
v -136.000 -8.000 -64.000 0.484 0.452 0.265
v -128.000 -8.000 -64.000 0.514 0.484 0.285
v -128.000 -8.000 -56.000 0.528 0.498 0.294
v -192.000 -8.000 -48.000 0.498 0.467 0.274
v -184.000 -8.000 -48.000 0.541 0.511 0.302
v -176.000 -8.000 -48.000 0.557 0.528 0.313
v -168.000 -8.000 -48.000 0.531 0.501 0.296
v -160.000 -8.000 -48.000 0.526 0.496 0.292
v -152.000 -8.000 -48.000 0.511 0.481 0.283
v -144.000 -7.551 -48.000 0.486 0.455 0.266
v -136.000 -6.991 -48.000 0.519 0.489 0.288
v -128.000 -5.441 -48.000 0.545 0.515 0.305
v -192.000 -8.000 -40.000 0.481 0.450 0.263
v -184.000 -8.000 -40.000 0.503 0.472 0.277
v -176.000 -8.000 -40.000 0.543 0.514 0.304
v -168.000 -8.000 -40.000 0.544 0.514 0.304
v -160.000 -8.000 -40.000 0.516 0.486 0.286
v -152.000 -7.568 -40.000 0.499 0.469 0.275
v -144.000 -6.270 -40.000 0.481 0.450 0.263
v -136.000 -5.129 -40.000 0.502 0.472 0.277
v -128.000 -3.549 -40.000 0.515 0.484 0.285
v -192.000 -8.000 -32.000 0.472 0.441 0.257
v -184.000 -8.000 -32.000 0.487 0.456 0.267
v -176.000 -8.000 -32.000 0.513 0.483 0.284
v -168.000 -8.000 -32.000 0.535 0.505 0.298
v -160.000 -7.831 -32.000 0.504 0.473 0.278
v -152.000 -6.383 -32.000 0.494 0.463 0.271
v -144.000 -5.266 -32.000 0.493 0.463 0.271
v -136.000 -3.495 -32.000 0.493 0.462 0.271
v -128.000 -1.678 -32.000 0.489 0.459 0.268
v -192.000 -8.000 -24.000 0.465 0.433 0.252
v -184.000 -8.000 -24.000 0.478 0.447 0.261
v -176.000 -8.000 -24.000 0.486 0.455 0.266
v -168.000 -8.000 -24.000 0.487 0.456 0.266
v -160.000 -7.113 -24.000 0.490 0.459 0.269
v -152.000 -5.530 -24.000 0.504 0.474 0.278
v -144.000 -4.449 -24.000 0.526 0.496 0.292
v -136.000 -2.714 -24.000 0.516 0.486 0.286
v -128.000 -0.088 -24.000 0.487 0.456 0.267
v -192.000 -8.000 -16.000 0.457 0.425 0.247
v -184.000 -8.000 -16.000 0.467 0.435 0.254
v -176.000 -8.000 -16.000 0.470 0.439 0.256
v -168.000 -7.985 -16.000 0.482 0.451 0.263
v -160.000 -6.746 -16.000 0.485 0.454 0.266
v -152.000 -5.406 -16.000 0.502 0.472 0.277
v -144.000 -3.819 -16.000 0.504 0.473 0.278
v -136.000 -2.316 -16.000 0.501 0.470 0.276
v -128.000 0.901 -16.000 0.460 0.428 0.249
v -192.000 -8.000 -8.000 0.455 0.423 0.246
v -184.000 -8.000 -8.000 0.469 0.438 0.255
v -176.000 -8.000 -8.000 0.485 0.454 0.265
v -168.000 -7.823 -8.000 0.480 0.449 0.262
v -160.000 -6.272 -8.000 0.498 0.467 0.274
v -152.000 -5.085 -8.000 0.504 0.474 0.278
v -144.000 -3.215 -8.000 0.491 0.460 0.269
v -136.000 -1.596 -8.000 0.464 0.433 0.252
v -128.000 1.237 -8.000 0.448 0.416 0.241
v -192.000 -8.000 0.000 0.463 0.431 0.251
v -184.000 -8.000 0.000 0.477 0.445 0.260
v -176.000 -8.000 0.000 0.474 0.443 0.258
v -168.000 -7.235 0.000 0.472 0.440 0.257
v -160.000 -5.685 0.000 0.470 0.438 0.256
v -152.000 -4.354 0.000 0.486 0.455 0.266
v -144.000 -2.929 0.000 0.498 0.467 0.274
v -136.000 -1.193 0.000 0.490 0.459 0.269
v -128.000 0.899 0.000 0.490 0.459 0.269

vt 0.100000 0.633333
vt 0.100000 0.616667
vt 0.116667 0.616667
vt 0.116667 0.633333
vt 0.133333 0.633333
vt 0.133333 0.616667
vt 0.150000 0.616667
vt 0.150000 0.633333
vt 0.166667 0.633333
vt 0.166667 0.616667
vt 0.183333 0.616667
vt 0.183333 0.633333
vt 0.200000 0.633333
vt 0.200000 0.616667
vt 0.216667 0.616667
vt 0.216667 0.633333
vt 0.233333 0.633333
vt 0.233333 0.616667
vt 0.100000 0.600000
vt 0.116667 0.600000
vt 0.133333 0.600000
vt 0.150000 0.600000
vt 0.166667 0.600000
vt 0.183333 0.600000
vt 0.200000 0.600000
vt 0.216667 0.600000
vt 0.233333 0.600000
vt 0.100000 0.583333
vt 0.116667 0.583333
vt 0.133333 0.583333
vt 0.150000 0.583333
vt 0.166667 0.583333
vt 0.183333 0.583333
vt 0.200000 0.583333
vt 0.216667 0.583333
vt 0.233333 0.583333
vt 0.100000 0.566667
vt 0.116667 0.566667
vt 0.133333 0.566667
vt 0.150000 0.566667
vt 0.166667 0.566667
vt 0.183333 0.566667
vt 0.200000 0.566667
vt 0.216667 0.566667
vt 0.233333 0.566667
vt 0.100000 0.550000
vt 0.116667 0.550000
vt 0.133333 0.550000
vt 0.150000 0.550000
vt 0.166667 0.550000
vt 0.183333 0.550000
vt 0.200000 0.550000
vt 0.216667 0.550000
vt 0.233333 0.550000
vt 0.100000 0.533333
vt 0.116667 0.533333
vt 0.133333 0.533333
vt 0.150000 0.533333
vt 0.166667 0.533333
vt 0.183333 0.533333
vt 0.200000 0.533333
vt 0.216667 0.533333
vt 0.233333 0.533333
vt 0.100000 0.516667
vt 0.116667 0.516667
vt 0.133333 0.516667
vt 0.150000 0.516667
vt 0.166667 0.516667
vt 0.183333 0.516667
vt 0.200000 0.516667
vt 0.216667 0.516667
vt 0.233333 0.516667
vt 0.100000 0.500000
vt 0.116667 0.500000
vt 0.133333 0.500000
vt 0.150000 0.500000
vt 0.166667 0.500000
vt 0.183333 0.500000
vt 0.200000 0.500000
vt 0.216667 0.500000
vt 0.233333 0.500000

vn 0.00000 1.00000 0.00000
vn 0.00000 1.00000 0.00000
vn 0.00000 1.00000 0.00000
vn 0.00000 1.00000 0.00000
vn 0.00000 1.00000 0.00000
vn 0.00000 1.00000 0.00000
vn 0.00000 1.00000 0.00000
vn 0.00000 1.00000 0.00000
vn 0.00000 1.00000 0.00000
vn 0.00000 1.00000 0.00000
vn -0.00702 0.99995 -0.00702
vn 0.00000 1.00000 0.00000
vn 0.00000 1.00000 0.00000
vn 0.00000 0.99961 -0.02806
vn -0.03284 0.99639 -0.07824
vn 0.00000 1.00000 0.00000
vn 0.00000 1.00000 0.00000
vn 0.00000 0.98745 -0.15790
vn 0.00000 1.00000 0.00000
vn 0.00000 1.00000 0.00000
vn 0.00000 1.00000 0.00000
vn 0.00000 1.00000 0.00000
vn -0.00675 0.99995 -0.00675
vn -0.02805 0.99924 -0.02696
vn -0.06909 0.99209 -0.10482
vn -0.12869 0.97610 -0.17514
vn -0.14113 0.96505 -0.22082
vn 0.00000 1.00000 0.00000
vn 0.00000 1.00000 0.00000
vn 0.00000 1.00000 0.00000
vn -0.00264 0.99999 -0.00264
vn -0.02697 0.99958 -0.01055
vn -0.10024 0.99106 -0.08808
vn -0.14923 0.97887 -0.13977
vn -0.16815 0.96591 -0.19682
vn -0.18883 0.95592 -0.22487
vn 0.00000 1.00000 0.00000
vn 0.00000 1.00000 0.00000
vn 0.00000 1.00000 0.00000
vn -0.01055 0.99994 0.00000
vn -0.09527 0.99369 -0.05918
vn -0.15705 0.97968 -0.12479
vn -0.16855 0.97790 -0.12371
vn -0.21652 0.96534 -0.14574
vn -0.23428 0.95618 -0.17559
vn 0.00000 1.00000 0.00000
vn 0.00000 1.00000 0.00000
vn 0.00000 1.00000 0.00000
vn -0.04988 0.99860 -0.01741
vn -0.15221 0.98608 -0.06688
vn -0.16631 0.98366 -0.06896
vn -0.17269 0.98097 -0.08875
vn -0.25596 0.96191 -0.09595
vn -0.30824 0.93919 -0.15136
vn 0.00000 1.00000 0.00000
vn 0.00000 1.00000 0.00000
vn -0.00323 0.99999 -0.00276
vn -0.07814 0.99688 -0.01101
vn -0.15980 0.98651 -0.03552
vn -0.17990 0.98330 -0.02739
vn -0.19110 0.97963 -0.06170
vn -0.28230 0.95700 -0.06683
vn -0.34748 0.93497 -0.07136
vn 0.00000 1.00000 0.00000
vn 0.00000 1.00000 0.00000
vn -0.01104 0.99994 0.00000
vn -0.10902 0.99325 -0.03974
vn -0.16836 0.98357 -0.06520
vn -0.18094 0.98153 -0.06217
vn -0.21270 0.97561 -0.05428
vn -0.26278 0.96370 -0.04721
vn -0.33385 0.94263 0.00010
vn 0.00000 1.00000 0.00000
vn 0.00000 1.00000 0.00000
vn -0.02942 0.99940 -0.01838
vn -0.14281 0.98708 -0.07261
vn -0.17245 0.98204 -0.07650
vn -0.16911 0.98152 -0.08960
vn -0.20319 0.97775 -0.05215
vn -0.23240 0.97139 -0.04901
vn -0.29421 0.95573 -0.00393

f 1/1/1 2/2/2 3/3/3
f 1/1/1 3/3/3 4/4/4
f 4/4/4 3/3/3 5/5/5
f 5/5/5 3/3/3 6/6/6
f 5/5/5 6/6/6 7/7/7
f 5/5/5 7/7/7 8/8/8
f 8/8/8 7/7/7 9/9/9
f 9/9/9 7/7/7 10/10/10
f 9/9/9 10/10/10 11/11/11
f 9/9/9 11/11/11 12/12/12
f 12/12/12 11/11/11 13/13/13
f 13/13/13 11/11/11 14/14/14
f 13/13/13 14/14/14 15/15/15
f 13/13/13 15/15/15 16/16/16
f 16/16/16 15/15/15 17/17/17
f 17/17/17 15/15/15 18/18/18
f 2/2/2 19/19/19 3/3/3
f 3/3/3 19/19/19 20/20/20
f 3/3/3 20/20/20 21/21/21
f 3/3/3 21/21/21 6/6/6
f 6/6/6 21/21/21 7/7/7
f 7/7/7 21/21/21 22/22/22
f 7/7/7 22/22/22 23/23/23
f 7/7/7 23/23/23 10/10/10
f 10/10/10 23/23/23 11/11/11
f 11/11/11 23/23/23 24/24/24
f 11/11/11 24/24/24 25/25/25
f 11/11/11 25/25/25 14/14/14
f 14/14/14 25/25/25 15/15/15
f 15/15/15 25/25/25 26/26/26
f 15/15/15 26/26/26 27/27/27
f 15/15/15 27/27/27 18/18/18
f 19/19/19 28/28/28 29/29/29
f 19/19/19 29/29/29 20/20/20
f 20/20/20 29/29/29 21/21/21
f 21/21/21 29/29/29 30/30/30
f 21/21/21 30/30/30 31/31/31
f 21/21/21 31/31/31 22/22/22
f 22/22/22 31/31/31 23/23/23
f 23/23/23 31/31/31 32/32/32
f 23/23/23 32/32/32 33/33/33
f 23/23/23 33/33/33 24/24/24
f 24/24/24 33/33/33 25/25/25
f 25/25/25 33/33/33 34/34/34
f 25/25/25 34/34/34 35/35/35
f 25/25/25 35/35/35 26/26/26
f 26/26/26 35/35/35 27/27/27
f 27/27/27 35/35/35 36/36/36
f 28/28/28 37/37/37 29/29/29
f 29/29/29 37/37/37 38/38/38
f 29/29/29 38/38/38 39/39/39
f 29/29/29 39/39/39 30/30/30
f 30/30/30 39/39/39 31/31/31
f 31/31/31 39/39/39 40/40/40
f 31/31/31 40/40/40 41/41/41
f 31/31/31 41/41/41 32/32/32
f 32/32/32 41/41/41 33/33/33
f 33/33/33 41/41/41 42/42/42
f 33/33/33 42/42/42 43/43/43
f 33/33/33 43/43/43 34/34/34
f 34/34/34 43/43/43 35/35/35
f 35/35/35 43/43/43 44/44/44
f 35/35/35 44/44/44 45/45/45
f 35/35/35 45/45/45 36/36/36
f 37/37/37 46/46/46 47/47/47
f 37/37/37 47/47/47 38/38/38
f 38/38/38 47/47/47 39/39/39
f 39/39/39 47/47/47 48/48/48
f 39/39/39 48/48/48 49/49/49
f 39/39/39 49/49/49 40/40/40
f 40/40/40 49/49/49 41/41/41
f 41/41/41 49/49/49 50/50/50
f 41/41/41 50/50/50 51/51/51
f 41/41/41 51/51/51 42/42/42
f 42/42/42 51/51/51 43/43/43
f 43/43/43 51/51/51 52/52/52
f 43/43/43 52/52/52 53/53/53
f 43/43/43 53/53/53 44/44/44
f 44/44/44 53/53/53 45/45/45
f 45/45/45 53/53/53 54/54/54
f 46/46/46 55/55/55 47/47/47
f 47/47/47 55/55/55 56/56/56
f 47/47/47 56/56/56 57/57/57
f 47/47/47 57/57/57 48/48/48
f 48/48/48 57/57/57 49/49/49
f 49/49/49 57/57/57 58/58/58
f 49/49/49 58/58/58 59/59/59
f 49/49/49 59/59/59 50/50/50
f 50/50/50 59/59/59 51/51/51
f 51/51/51 59/59/59 60/60/60
f 51/51/51 60/60/60 61/61/61
f 51/51/51 61/61/61 52/52/52
f 52/52/52 61/61/61 53/53/53
f 53/53/53 61/61/61 62/62/62
f 53/53/53 62/62/62 63/63/63
f 53/53/53 63/63/63 54/54/54
f 55/55/55 64/64/64 65/65/65
f 55/55/55 65/65/65 56/56/56
f 56/56/56 65/65/65 57/57/57
f 57/57/57 65/65/65 66/66/66
f 57/57/57 66/66/66 67/67/67
f 57/57/57 67/67/67 58/58/58
f 58/58/58 67/67/67 59/59/59
f 59/59/59 67/67/67 68/68/68
f 59/59/59 68/68/68 69/69/69
f 59/59/59 69/69/69 60/60/60
f 60/60/60 69/69/69 61/61/61
f 61/61/61 69/69/69 70/70/70
f 61/61/61 70/70/70 71/71/71
f 61/61/61 71/71/71 62/62/62
f 62/62/62 71/71/71 63/63/63
f 63/63/63 71/71/71 72/72/72
f 64/64/64 73/73/73 65/65/65
f 65/65/65 73/73/73 74/74/74
f 65/65/65 74/74/74 75/75/75
f 65/65/65 75/75/75 66/66/66
f 66/66/66 75/75/75 67/67/67
f 67/67/67 75/75/75 76/76/76
f 67/67/67 76/76/76 77/77/77
f 67/67/67 77/77/77 68/68/68
f 68/68/68 77/77/77 69/69/69
f 69/69/69 77/77/77 78/78/78
f 69/69/69 78/78/78 79/79/79
f 69/69/69 79/79/79 70/70/70
f 70/70/70 79/79/79 71/71/71
f 71/71/71 79/79/79 80/80/80
f 71/71/71 80/80/80 81/81/81
f 71/71/71 81/81/81 72/72/72
