# Generated by tools/generate_island.py. Do not edit by hand.
o terrain_lod2_2_0

v 128.000 -1.040 0.000 0.405 0.385 0.228
v 128.000 -1.677 8.000 0.415 0.395 0.234
v 136.000 -1.831 8.000 0.433 0.410 0.243
v 136.000 -1.849 0.000 0.384 0.362 0.213
v 144.000 -2.226 0.000 0.474 0.447 0.263
v 144.000 -2.232 8.000 0.511 0.482 0.284
v 152.000 -2.732 8.000 0.529 0.499 0.294
v 152.000 -3.161 0.000 0.532 0.503 0.297
v 160.000 -4.415 0.000 0.563 0.534 0.317
v 160.000 -4.295 8.000 0.556 0.527 0.312
v 168.000 -5.729 8.000 0.548 0.519 0.307
v 168.000 -5.683 0.000 0.558 0.529 0.314
v 176.000 -7.844 0.000 0.567 0.538 0.319
v 176.000 -7.454 8.000 0.553 0.524 0.310
v 184.000 -8.000 8.000 0.544 0.515 0.304
v 184.000 -8.000 0.000 0.529 0.499 0.294
v 192.000 -8.000 0.000 0.483 0.452 0.264
v 192.000 -8.000 8.000 0.478 0.447 0.261
v 128.000 -4.785 16.000 0.529 0.503 0.299
v 136.000 -3.264 16.000 0.561 0.533 0.317
v 144.000 -2.729 16.000 0.572 0.543 0.323
v 152.000 -2.981 16.000 0.564 0.536 0.318
v 160.000 -4.107 16.000 0.552 0.523 0.310
v 168.000 -5.895 16.000 0.541 0.512 0.302
v 176.000 -7.152 16.000 0.549 0.520 0.308
v 184.000 -8.000 16.000 0.509 0.478 0.281
v 192.000 -8.000 16.000 0.475 0.444 0.259
v 128.000 -8.000 24.000 0.563 0.535 0.318
v 136.000 -5.881 24.000 0.585 0.557 0.331
v 144.000 -3.132 24.000 0.585 0.557 0.331
v 152.000 -3.372 24.000 0.585 0.557 0.331
v 160.000 -4.291 24.000 0.557 0.528 0.313
v 168.000 -6.057 24.000 0.527 0.497 0.293
v 176.000 -7.641 24.000 0.513 0.482 0.284
v 184.000 -8.000 24.000 0.482 0.451 0.264
v 192.000 -8.000 24.000 0.450 0.417 0.242
v 128.000 -4.628 32.000 0.553 0.524 0.311
v 136.000 -3.573 32.000 0.572 0.543 0.322
v 144.000 -2.938 32.000 0.585 0.557 0.331
v 152.000 -3.629 32.000 0.582 0.554 0.330
v 160.000 -4.992 32.000 0.550 0.520 0.308
v 168.000 -6.335 32.000 0.518 0.488 0.287
v 176.000 -7.923 32.000 0.488 0.457 0.267
v 184.000 -8.000 32.000 0.461 0.430 0.250
v 192.000 -8.000 32.000 0.428 0.396 0.228
v 128.000 -2.013 40.000 0.513 0.483 0.284
v 136.000 -2.314 40.000 0.550 0.521 0.308
v 144.000 -3.066 40.000 0.585 0.557 0.331
v 152.000 -3.703 40.000 0.570 0.542 0.322
v 160.000 -5.133 40.000 0.541 0.511 0.302
v 168.000 -6.319 40.000 0.534 0.504 0.298
v 176.000 -7.633 40.000 0.511 0.481 0.283
v 184.000 -8.000 40.000 0.482 0.450 0.263
v 192.000 -8.000 40.000 0.419 0.386 0.222
v 128.000 -1.441 48.000 0.481 0.449 0.263
v 136.000 -1.884 48.000 0.522 0.492 0.290
v 144.000 -3.017 48.000 0.563 0.535 0.317
v 152.000 -3.932 48.000 0.560 0.532 0.315
v 160.000 -5.023 48.000 0.538 0.508 0.300
v 168.000 -6.501 48.000 0.544 0.515 0.305
v 176.000 -7.810 48.000 0.518 0.488 0.287
v 184.000 -8.000 48.000 0.488 0.457 0.267
v 192.000 -8.000 48.000 0.433 0.401 0.232
v 128.000 -1.435 56.000 0.472 0.440 0.257
v 136.000 -2.199 56.000 0.502 0.471 0.276
v 144.000 -3.202 56.000 0.530 0.501 0.295
v 152.000 -4.495 56.000 0.547 0.518 0.306
v 160.000 -5.284 56.000 0.534 0.505 0.298
v 168.000 -6.685 56.000 0.528 0.498 0.294
v 176.000 -8.000 56.000 0.508 0.478 0.281
v 184.000 -8.000 56.000 0.489 0.458 0.268
v 192.000 -8.000 56.000 0.457 0.425 0.247
v 128.000 -2.207 64.000 0.488 0.457 0.268
v 136.000 -3.305 64.000 0.516 0.486 0.286
v 144.000 -3.963 64.000 0.527 0.497 0.293
v 152.000 -4.974 64.000 0.546 0.517 0.306
v 160.000 -5.773 64.000 0.544 0.514 0.304
v 168.000 -6.674 64.000 0.522 0.493 0.290
v 176.000 -8.000 64.000 0.507 0.477 0.280
v 184.000 -8.000 64.000 0.491 0.460 0.269
v 192.000 -8.000 64.000 0.455 0.423 0.246

vt 0.766667 0.500000
vt 0.766667 0.483333
vt 0.783333 0.483333
vt 0.783333 0.500000
vt 0.800000 0.500000
vt 0.800000 0.483333
vt 0.816667 0.483333
vt 0.816667 0.500000
vt 0.833333 0.500000
vt 0.833333 0.483333
vt 0.850000 0.483333
vt 0.850000 0.500000
vt 0.866667 0.500000
vt 0.866667 0.483333
vt 0.883333 0.483333
vt 0.883333 0.500000
vt 0.900000 0.500000
vt 0.900000 0.483333
vt 0.766667 0.466667
vt 0.783333 0.466667
vt 0.800000 0.466667
vt 0.816667 0.466667
vt 0.833333 0.466667
vt 0.850000 0.466667
vt 0.866667 0.466667
vt 0.883333 0.466667
vt 0.900000 0.466667
vt 0.766667 0.450000
vt 0.783333 0.450000
vt 0.800000 0.450000
vt 0.816667 0.450000
vt 0.833333 0.450000
vt 0.850000 0.450000
vt 0.866667 0.450000
vt 0.883333 0.450000
vt 0.900000 0.450000
vt 0.766667 0.433333
vt 0.783333 0.433333
vt 0.800000 0.433333
vt 0.816667 0.433333
vt 0.833333 0.433333
vt 0.850000 0.433333
vt 0.866667 0.433333
vt 0.883333 0.433333
vt 0.900000 0.433333
vt 0.766667 0.416667
vt 0.783333 0.416667
vt 0.800000 0.416667
vt 0.816667 0.416667
vt 0.833333 0.416667
vt 0.850000 0.416667
vt 0.866667 0.416667
vt 0.883333 0.416667
vt 0.900000 0.416667
vt 0.766667 0.400000
vt 0.783333 0.400000
vt 0.800000 0.400000
vt 0.816667 0.400000
vt 0.833333 0.400000
vt 0.850000 0.400000
vt 0.866667 0.400000
vt 0.883333 0.400000
vt 0.900000 0.400000
vt 0.766667 0.383333
vt 0.783333 0.383333
vt 0.800000 0.383333
vt 0.816667 0.383333
vt 0.833333 0.383333
vt 0.850000 0.383333
vt 0.866667 0.383333
vt 0.883333 0.383333
vt 0.900000 0.383333
vt 0.766667 0.366667
vt 0.783333 0.366667
vt 0.800000 0.366667
vt 0.816667 0.366667
vt 0.833333 0.366667
vt 0.850000 0.366667
vt 0.866667 0.366667
vt 0.883333 0.366667
vt 0.900000 0.366667

vn 0.05995 0.99745 0.03861
vn 0.01866 0.97352 0.22784
vn 0.00371 0.99393 0.10993
vn 0.07391 0.99726 -0.00221
vn 0.06901 0.99752 -0.01356
vn 0.05621 0.99793 0.03133
vn 0.11935 0.99285 -0.00257
vn 0.13534 0.98938 -0.05306
vn 0.16989 0.98528 -0.01916
vn 0.18404 0.98274 -0.01890
vn 0.19598 0.98057 -0.00881
vn 0.20953 0.97779 0.00562
vn 0.14191 0.98962 -0.02266
vn 0.14043 0.98917 -0.04276
vn 0.03273 0.99941 -0.01080
vn 0.00978 0.99995 0.00000
vn 0.00000 1.00000 0.00000
vn 0.00000 1.00000 0.00000
vn -0.14722 0.94091 0.30498
vn -0.12363 0.96199 0.24349
vn -0.03378 0.99433 0.10083
vn 0.08578 0.99552 0.03983
vn 0.17697 0.98411 0.01476
vn 0.18690 0.98217 0.02018
vn 0.13050 0.99139 0.01088
vn 0.05293 0.99860 0.00000
vn 0.00000 1.00000 0.00000
vn -0.25607 0.96661 -0.00950
vn -0.20612 0.97847 0.01022
vn -0.15487 0.98785 0.01293
vn 0.08942 0.99530 0.03718
vn 0.16525 0.98475 0.05443
vn 0.19415 0.98020 0.03885
vn 0.12040 0.99157 0.04778
vn 0.02567 0.99960 0.01204
vn 0.00000 1.00000 0.00000
vn -0.11680 0.95165 -0.28411
vn -0.10253 0.97091 -0.21640
vn -0.01570 0.99850 -0.05254
vn 0.12729 0.99165 0.02048
vn 0.16499 0.98567 0.03506
vn 0.18018 0.98350 0.01609
vn 0.10801 0.99414 0.00382
vn 0.00481 0.99999 0.00000
vn 0.00000 1.00000 0.00000
vn 0.03695 0.98007 -0.19520
vn 0.03097 0.99443 -0.10075
vn 0.08644 0.99625 0.00493
vn 0.12697 0.99184 0.01108
vn 0.16138 0.98689 0.00191
vn 0.16518 0.98626 0.00385
vn 0.10448 0.99450 -0.00704
vn 0.01564 0.99988 -0.00177
vn 0.00000 1.00000 0.00000
vn 0.06089 0.99791 -0.02163
vn 0.09804 0.99516 -0.00718
vn 0.12065 0.99259 0.01472
vn 0.12421 0.99104 0.04907
vn 0.15351 0.98789 0.02253
vn 0.17157 0.98491 0.02253
vn 0.09322 0.99550 0.01711
vn 0.01189 0.99993 0.00000
vn 0.00000 1.00000 0.00000
vn 0.09500 0.99434 0.04764
vn 0.10643 0.99181 0.07058
vn 0.14179 0.98817 0.05843
vn 0.12348 0.99062 0.05851
vn 0.13548 0.98969 0.04640
vn 0.16107 0.98674 0.01983
vn 0.08190 0.99657 0.01185
vn 0.00297 0.99999 0.00297
vn 0.00000 1.00000 0.00000
vn 0.11481 0.98661 0.11585
vn 0.10807 0.98478 0.13616
vn 0.12239 0.98784 0.09591
vn 0.11217 0.99191 0.05943
vn 0.12056 0.99169 0.04481
vn 0.13788 0.99045 -0.00135
vn 0.08224 0.99661 -0.00034
vn 0.00000 1.00000 0.00000
vn 0.00000 1.00000 0.00000

f 1/1/1 2/2/2 3/3/3
f 1/1/1 3/3/3 4/4/4
f 4/4/4 3/3/3 5/5/5
f 5/5/5 3/3/3 6/6/6
f 5/5/5 6/6/6 7/7/7
f 5/5/5 7/7/7 8/8/8
f 8/8/8 7/7/7 9/9/9
f 9/9/9 7/7/7 10/10/10
f 9/9/9 10/10/10 11/11/11
f 9/9/9 11/11/11 12/12/12
f 12/12/12 11/11/11 13/13/13
f 13/13/13 11/11/11 14/14/14
f 13/13/13 14/14/14 15/15/15
f 13/13/13 15/15/15 16/16/16
f 16/16/16 15/15/15 17/17/17
f 17/17/17 15/15/15 18/18/18
f 2/2/2 19/19/19 3/3/3
f 3/3/3 19/19/19 20/20/20
f 3/3/3 20/20/20 21/21/21
f 3/3/3 21/21/21 6/6/6
f 6/6/6 21/21/21 7/7/7
f 7/7/7 21/21/21 22/22/22
f 7/7/7 22/22/22 23/23/23
f 7/7/7 23/23/23 10/10/10
f 10/10/10 23/23/23 11/11/11
f 11/11/11 23/23/23 24/24/24
f 11/11/11 24/24/24 25/25/25
f 11/11/11 25/25/25 14/14/14
f 14/14/14 25/25/25 15/15/15
f 15/15/15 25/25/25 26/26/26
f 15/15/15 26/26/26 27/27/27
f 15/15/15 27/27/27 18/18/18
f 19/19/19 28/28/28 29/29/29
f 19/19/19 29/29/29 20/20/20
f 20/20/20 29/29/29 21/21/21
f 21/21/21 29/29/29 30/30/30
f 21/21/21 30/30/30 31/31/31
f 21/21/21 31/31/31 22/22/22
f 22/22/22 31/31/31 23/23/23
f 23/23/23 31/31/31 32/32/32
f 23/23/23 32/32/32 33/33/33
f 23/23/23 33/33/33 24/24/24
f 24/24/24 33/33/33 25/25/25
f 25/25/25 33/33/33 34/34/34
f 25/25/25 34/34/34 35/35/35
f 25/25/25 35/35/35 26/26/26
f 26/26/26 35/35/35 27/27/27
f 27/27/27 35/35/35 36/36/36
f 28/28/28 37/37/37 29/29/29
f 29/29/29 37/37/37 38/38/38
f 29/29/29 38/38/38 39/39/39
f 29/29/29 39/39/39 30/30/30
f 30/30/30 39/39/39 31/31/31
f 31/31/31 39/39/39 40/40/40
f 31/31/31 40/40/40 41/41/41
f 31/31/31 41/41/41 32/32/32
f 32/32/32 41/41/41 33/33/33
f 33/33/33 41/41/41 42/42/42
f 33/33/33 42/42/42 43/43/43
f 33/33/33 43/43/43 34/34/34
f 34/34/34 43/43/43 35/35/35
f 35/35/35 43/43/43 44/44/44
f 35/35/35 44/44/44 45/45/45
f 35/35/35 45/45/45 36/36/36
f 37/37/37 46/46/46 47/47/47
f 37/37/37 47/47/47 38/38/38
f 38/38/38 47/47/47 39/39/39
f 39/39/39 47/47/47 48/48/48
f 39/39/39 48/48/48 49/49/49
f 39/39/39 49/49/49 40/40/40
f 40/40/40 49/49/49 41/41/41
f 41/41/41 49/49/49 50/50/50
f 41/41/41 50/50/50 51/51/51
f 41/41/41 51/51/51 42/42/42
f 42/42/42 51/51/51 43/43/43
f 43/43/43 51/51/51 52/52/52
f 43/43/43 52/52/52 53/53/53
f 43/43/43 53/53/53 44/44/44
f 44/44/44 53/53/53 45/45/45
f 45/45/45 53/53/53 54/54/54
f 46/46/46 55/55/55 47/47/47
f 47/47/47 55/55/55 56/56/56
f 47/47/47 56/56/56 57/57/57
f 47/47/47 57/57/57 48/48/48
f 48/48/48 57/57/57 49/49/49
f 49/49/49 57/57/57 58/58/58
f 49/49/49 58/58/58 59/59/59
f 49/49/49 59/59/59 50/50/50
f 50/50/50 59/59/59 51/51/51
f 51/51/51 59/59/59 60/60/60
f 51/51/51 60/60/60 61/61/61
f 51/51/51 61/61/61 52/52/52
f 52/52/52 61/61/61 53/53/53
f 53/53/53 61/61/61 62/62/62
f 53/53/53 62/62/62 63/63/63
f 53/53/53 63/63/63 54/54/54
f 55/55/55 64/64/64 65/65/65
f 55/55/55 65/65/65 56/56/56
f 56/56/56 65/65/65 57/57/57
f 57/57/57 65/65/65 66/66/66
f 57/57/57 66/66/66 67/67/67
f 57/57/57 67/67/67 58/58/58
f 58/58/58 67/67/67 59/59/59
f 59/59/59 67/67/67 68/68/68
f 59/59/59 68/68/68 69/69/69
f 59/59/59 69/69/69 60/60/60
f 60/60/60 69/69/69 61/61/61
f 61/61/61 69/69/69 70/70/70
f 61/61/61 70/70/70 71/71/71
f 61/61/61 71/71/71 62/62/62
f 62/62/62 71/71/71 63/63/63
f 63/63/63 71/71/71 72/72/72
f 64/64/64 73/73/73 65/65/65
f 65/65/65 73/73/73 74/74/74
f 65/65/65 74/74/74 75/75/75
f 65/65/65 75/75/75 66/66/66
f 66/66/66 75/75/75 67/67/67
f 67/67/67 75/75/75 76/76/76
f 67/67/67 76/76/76 77/77/77
f 67/67/67 77/77/77 68/68/68
f 68/68/68 77/77/77 69/69/69
f 69/69/69 77/77/77 78/78/78
f 69/69/69 78/78/78 79/79/79
f 69/69/69 79/79/79 70/70/70
f 70/70/70 79/79/79 71/71/71
f 71/71/71 79/79/79 80/80/80
f 71/71/71 80/80/80 81/81/81
f 71/71/71 81/81/81 72/72/72
