# Generated by tools/generate_island.py. Do not edit by hand.
o terrain_lod2_-3_-5

v -384.000 -10.800 -640.000 0.467 0.435 0.254
v -384.000 -10.800 -624.000 0.489 0.458 0.268
v -368.000 -10.800 -624.000 0.521 0.491 0.289
v -368.000 -10.800 -640.000 0.555 0.526 0.311
v -352.000 -10.800 -640.000 0.579 0.551 0.327
v -352.000 -10.470 -624.000 0.569 0.540 0.321
v -336.000 -8.975 -624.000 0.563 0.535 0.317
v -336.000 -10.362 -640.000 0.537 0.507 0.300
v -320.000 -9.530 -640.000 0.505 0.475 0.279
v -320.000 -8.463 -624.000 0.528 0.498 0.294
v -304.000 -8.762 -624.000 0.478 0.447 0.261
v -304.000 -9.179 -640.000 0.496 0.465 0.273
v -288.000 -8.721 -640.000 0.435 0.402 0.233
v -288.000 -8.107 -624.000 0.433 0.401 0.231
v -272.000 -7.566 -624.000 0.452 0.420 0.244
v -272.000 -8.223 -640.000 0.430 0.398 0.229
v -256.000 -8.333 -640.000 0.504 0.473 0.278
v -256.000 -7.306 -624.000 0.507 0.476 0.280
v -384.000 -10.800 -608.000 0.507 0.477 0.280
v -368.000 -10.342 -608.000 0.522 0.492 0.290
v -352.000 -9.726 -608.000 0.529 0.499 0.294
v -336.000 -8.720 -608.000 0.585 0.557 0.331
v -320.000 -8.235 -608.000 0.515 0.485 0.285
v -304.000 -7.573 -608.000 0.471 0.439 0.256
v -288.000 -6.808 -608.000 0.436 0.404 0.234
v -272.000 -7.219 -608.000 0.467 0.436 0.254
v -256.000 -6.788 -608.000 0.513 0.483 0.284
v -384.000 -10.395 -592.000 0.509 0.479 0.281
v -368.000 -9.896 -592.000 0.514 0.484 0.285
v -352.000 -8.657 -592.000 0.525 0.495 0.292
v -336.000 -7.933 -592.000 0.494 0.463 0.271
v -320.000 -7.894 -592.000 0.518 0.488 0.287
v -304.000 -6.912 -592.000 0.483 0.452 0.264
v -288.000 -6.480 -592.000 0.472 0.440 0.257
v -272.000 -6.283 -592.000 0.496 0.465 0.273
v -256.000 -5.449 -592.000 0.512 0.482 0.283
v -384.000 -9.871 -576.000 0.521 0.491 0.289
v -368.000 -8.936 -576.000 0.489 0.458 0.268
v -352.000 -7.802 -576.000 0.530 0.500 0.295
v -336.000 -7.629 -576.000 0.471 0.439 0.256
v -320.000 -7.038 -576.000 0.460 0.428 0.249
v -304.000 -6.208 -576.000 0.450 0.418 0.242
v -288.000 -6.119 -576.000 0.415 0.382 0.219
v -272.000 -5.753 -576.000 0.461 0.429 0.250
v -256.000 -4.926 -576.000 0.459 0.427 0.248
v -384.000 -9.138 -560.000 0.477 0.446 0.260
v -368.000 -8.132 -560.000 0.537 0.508 0.300
v -352.000 -7.524 -560.000 0.536 0.506 0.299
v -336.000 -7.002 -560.000 0.524 0.495 0.291
v -320.000 -5.918 -560.000 0.486 0.455 0.266
v -304.000 -5.766 -560.000 0.439 0.406 0.235
v -288.000 -5.897 -560.000 0.409 0.375 0.215
v -272.000 -5.025 -560.000 0.398 0.364 0.208
v -256.000 -4.592 -560.000 0.448 0.416 0.241
v -384.000 -8.297 -544.000 0.488 0.457 0.268
v -368.000 -7.101 -544.000 0.535 0.505 0.298
v -352.000 -6.849 -544.000 0.497 0.467 0.274
v -336.000 -6.607 -544.000 0.458 0.426 0.247
v -320.000 -5.883 -544.000 0.469 0.437 0.255
v -304.000 -5.468 -544.000 0.424 0.391 0.226
v -288.000 -4.783 -544.000 0.396 0.362 0.207
v -272.000 -4.274 -544.000 0.377 0.343 0.195
v -256.000 -4.647 -544.000 0.422 0.389 0.224
v -384.000 -7.413 -528.000 0.499 0.469 0.275
v -368.000 -7.210 -528.000 0.499 0.468 0.275
v -352.000 -6.528 -528.000 0.491 0.460 0.269
v -336.000 -5.451 -528.000 0.459 0.427 0.249
v -320.000 -5.199 -528.000 0.424 0.392 0.226
v -304.000 -5.157 -528.000 0.446 0.414 0.240
v -288.000 -4.269 -528.000 0.408 0.374 0.214
v -272.000 -4.022 -528.000 0.423 0.390 0.224
v -256.000 -3.624 -528.000 0.393 0.359 0.205
v -384.000 -6.694 -512.000 0.453 0.421 0.244
v -368.000 -6.664 -512.000 0.455 0.423 0.246
v -352.000 -5.838 -512.000 0.480 0.449 0.262
v -336.000 -5.200 -512.000 0.439 0.406 0.235
v -320.000 -5.056 -512.000 0.448 0.415 0.241
v -304.000 -4.172 -512.000 0.474 0.443 0.258
v -288.000 -3.434 -512.000 0.445 0.413 0.239
v -272.000 -3.712 -512.000 0.463 0.432 0.251
v -256.000 -3.166 -512.000 0.449 0.417 0.242

vt 0.300000 0.833333
vt 0.300000 0.825000
vt 0.308333 0.825000
vt 0.308333 0.833333
vt 0.316667 0.833333
vt 0.316667 0.825000
vt 0.325000 0.825000
vt 0.325000 0.833333
vt 0.333333 0.833333
vt 0.333333 0.825000
vt 0.341667 0.825000
vt 0.341667 0.833333
vt 0.350000 0.833333
vt 0.350000 0.825000
vt 0.358333 0.825000
vt 0.358333 0.833333
vt 0.366667 0.833333
vt 0.366667 0.825000
vt 0.300000 0.816667
vt 0.308333 0.816667
vt 0.316667 0.816667
vt 0.325000 0.816667
vt 0.333333 0.816667
vt 0.341667 0.816667
vt 0.350000 0.816667
vt 0.358333 0.816667
vt 0.366667 0.816667
vt 0.300000 0.808333
vt 0.308333 0.808333
vt 0.316667 0.808333
vt 0.325000 0.808333
vt 0.333333 0.808333
vt 0.341667 0.808333
vt 0.350000 0.808333
vt 0.358333 0.808333
vt 0.366667 0.808333
vt 0.300000 0.800000
vt 0.308333 0.800000
vt 0.316667 0.800000
vt 0.325000 0.800000
vt 0.333333 0.800000
vt 0.341667 0.800000
vt 0.350000 0.800000
vt 0.358333 0.800000
vt 0.366667 0.800000
vt 0.300000 0.791667
vt 0.308333 0.791667
vt 0.316667 0.791667
vt 0.325000 0.791667
vt 0.333333 0.791667
vt 0.341667 0.791667
vt 0.350000 0.791667
vt 0.358333 0.791667
vt 0.366667 0.791667
vt 0.300000 0.783333
vt 0.308333 0.783333
vt 0.316667 0.783333
vt 0.325000 0.783333
vt 0.333333 0.783333
vt 0.341667 0.783333
vt 0.350000 0.783333
vt 0.358333 0.783333
vt 0.366667 0.783333
vt 0.300000 0.775000
vt 0.308333 0.775000
vt 0.316667 0.775000
vt 0.325000 0.775000
vt 0.333333 0.775000
vt 0.341667 0.775000
vt 0.350000 0.775000
vt 0.358333 0.775000
vt 0.366667 0.775000
vt 0.300000 0.766667
vt 0.308333 0.766667
vt 0.316667 0.766667
vt 0.325000 0.766667
vt 0.333333 0.766667
vt 0.341667 0.766667
vt 0.350000 0.766667
vt 0.358333 0.766667
vt 0.366667 0.766667

vn 0.00000 1.00000 0.00000
vn 0.00000 1.00000 0.00000
vn -0.01355 0.99979 -0.01555
vn 0.00000 1.00000 0.00000
vn -0.03533 0.99886 -0.03196
vn -0.05692 0.99782 -0.03350
vn -0.05279 0.99763 -0.04405
vn -0.03950 0.99548 -0.08631
vn -0.02176 0.99788 -0.06141
vn -0.00665 0.99916 -0.04042
vn -0.02300 0.99848 -0.05008
vn -0.02526 0.99934 -0.02609
vn -0.03359 0.99879 -0.03595
vn -0.03728 0.99752 -0.05964
vn -0.01569 0.99897 -0.04266
vn -0.01212 0.99908 -0.04104
vn -0.00465 0.99861 -0.05256
vn -0.01619 0.99870 -0.04823
vn -0.02211 0.99955 -0.02044
vn -0.03354 0.99904 -0.02822
vn -0.05479 0.99755 -0.04341
vn -0.04649 0.99839 -0.03248
vn -0.02754 0.99913 -0.03145
vn -0.04449 0.99735 -0.05764
vn -0.01976 0.99856 -0.04982
vn -0.00063 0.99920 -0.04005
vn -0.03051 0.99833 -0.04898
vn -0.03114 0.99909 -0.02902
vn -0.05159 0.99769 -0.04415
vn -0.06111 0.99633 -0.05990
vn -0.02949 0.99871 -0.04139
vn -0.03187 0.99879 -0.03737
vn -0.04037 0.99854 -0.03602
vn -0.01966 0.99958 -0.02151
vn -0.02555 0.99876 -0.04279
vn -0.05194 0.99696 -0.05800
vn -0.05259 0.99751 -0.04710
vn -0.06442 0.99641 -0.05494
vn -0.04451 0.99826 -0.03869
vn -0.02385 0.99929 -0.02908
vn -0.03976 0.99810 -0.04702
vn -0.02868 0.99895 -0.03578
vn -0.01781 0.99945 -0.02786
vn -0.03723 0.99854 -0.03924
vn -0.04554 0.99842 -0.03299
vn -0.06268 0.99683 -0.04900
vn -0.05256 0.99745 -0.04828
vn -0.03526 0.99894 -0.02975
vn -0.03856 0.99873 -0.03239
vn -0.03858 0.99861 -0.03605
vn -0.01608 0.99939 -0.03101
vn -0.02312 0.99886 -0.04173
vn -0.03074 0.99889 -0.03570
vn -0.02705 0.99960 -0.00874
vn -0.05614 0.99757 -0.04124
vn -0.04521 0.99856 -0.02875
vn -0.03026 0.99893 -0.03484
vn -0.03013 0.99837 -0.04840
vn -0.02972 0.99916 -0.02809
vn -0.03436 0.99923 -0.01900
vn -0.03327 0.99872 -0.03798
vn -0.00425 0.99950 -0.03132
vn -0.00133 0.99953 -0.03078
vn -0.01266 0.99867 -0.05005
vn -0.03180 0.99912 -0.02723
vn -0.05488 0.99800 -0.03151
vn -0.03439 0.99875 -0.03629
vn -0.00916 0.99962 -0.02584
vn -0.03574 0.99867 -0.03721
vn -0.03541 0.99849 -0.04208
vn -0.01323 0.99944 -0.03087
vn -0.02485 0.99862 -0.04621
vn -0.00727 0.99919 -0.03954
vn -0.02671 0.99906 -0.03414
vn -0.05027 0.99816 -0.03395
vn -0.02444 0.99958 -0.01564
vn -0.02065 0.99950 -0.02377
vn -0.05052 0.99683 -0.06142
vn -0.02488 0.99862 -0.04630
vn -0.00838 0.99978 -0.01941
vn -0.02948 0.99928 -0.02402

f 1/1/1 2/2/2 3/3/3
f 1/1/1 3/3/3 4/4/4
f 4/4/4 3/3/3 5/5/5
f 5/5/5 3/3/3 6/6/6
f 5/5/5 6/6/6 7/7/7
f 5/5/5 7/7/7 8/8/8
f 8/8/8 7/7/7 9/9/9
f 9/9/9 7/7/7 10/10/10
f 9/9/9 10/10/10 11/11/11
f 9/9/9 11/11/11 12/12/12
f 12/12/12 11/11/11 13/13/13
f 13/13/13 11/11/11 14/14/14
f 13/13/13 14/14/14 15/15/15
f 13/13/13 15/15/15 16/16/16
f 16/16/16 15/15/15 17/17/17
f 17/17/17 15/15/15 18/18/18
f 2/2/2 19/19/19 3/3/3
f 3/3/3 19/19/19 20/20/20
f 3/3/3 20/20/20 21/21/21
f 3/3/3 21/21/21 6/6/6
f 6/6/6 21/21/21 7/7/7
f 7/7/7 21/21/21 22/22/22
f 7/7/7 22/22/22 23/23/23
f 7/7/7 23/23/23 10/10/10
f 10/10/10 23/23/23 11/11/11
f 11/11/11 23/23/23 24/24/24
f 11/11/11 24/24/24 25/25/25
f 11/11/11 25/25/25 14/14/14
f 14/14/14 25/25/25 15/15/15
f 15/15/15 25/25/25 26/26/26
f 15/15/15 26/26/26 27/27/27
f 15/15/15 27/27/27 18/18/18
f 19/19/19 28/28/28 29/29/29
f 19/19/19 29/29/29 20/20/20
f 20/20/20 29/29/29 21/21/21
f 21/21/21 29/29/29 30/30/30
f 21/21/21 30/30/30 31/31/31
f 21/21/21 31/31/31 22/22/22
f 22/22/22 31/31/31 23/23/23
f 23/23/23 31/31/31 32/32/32
f 23/23/23 32/32/32 33/33/33
f 23/23/23 33/33/33 24/24/24
f 24/24/24 33/33/33 25/25/25
f 25/25/25 33/33/33 34/34/34
f 25/25/25 34/34/34 35/35/35
f 25/25/25 35/35/35 26/26/26
f 26/26/26 35/35/35 27/27/27
f 27/27/27 35/35/35 36/36/36
f 28/28/28 37/37/37 29/29/29
f 29/29/29 37/37/37 38/38/38
f 29/29/29 38/38/38 39/39/39
f 29/29/29 39/39/39 30/30/30
f 30/30/30 39/39/39 31/31/31
f 31/31/31 39/39/39 40/40/40
f 31/31/31 40/40/40 41/41/41
f 31/31/31 41/41/41 32/32/32
f 32/32/32 41/41/41 33/33/33
f 33/33/33 41/41/41 42/42/42
f 33/33/33 42/42/42 43/43/43
f 33/33/33 43/43/43 34/34/34
f 34/34/34 43/43/43 35/35/35
f 35/35/35 43/43/43 44/44/44
f 35/35/35 44/44/44 45/45/45
f 35/35/35 45/45/45 36/36/36
f 37/37/37 46/46/46 47/47/47
f 37/37/37 47/47/47 38/38/38
f 38/38/38 47/47/47 39/39/39
f 39/39/39 47/47/47 48/48/48
f 39/39/39 48/48/48 49/49/49
f 39/39/39 49/49/49 40/40/40
f 40/40/40 49/49/49 41/41/41
f 41/41/41 49/49/49 50/50/50
f 41/41/41 50/50/50 51/51/51
f 41/41/41 51/51/51 42/42/42
f 42/42/42 51/51/51 43/43/43
f 43/43/43 51/51/51 52/52/52
f 43/43/43 52/52/52 53/53/53
f 43/43/43 53/53/53 44/44/44
f 44/44/44 53/53/53 45/45/45
f 45/45/45 53/53/53 54/54/54
f 46/46/46 55/55/55 47/47/47
f 47/47/47 55/55/55 56/56/56
f 47/47/47 56/56/56 57/57/57
f 47/47/47 57/57/57 48/48/48
f 48/48/48 57/57/57 49/49/49
f 49/49/49 57/57/57 58/58/58
f 49/49/49 58/58/58 59/59/59
f 49/49/49 59/59/59 50/50/50
f 50/50/50 59/59/59 51/51/51
f 51/51/51 59/59/59 60/60/60
f 51/51/51 60/60/60 61/61/61
f 51/51/51 61/61/61 52/52/52
f 52/52/52 61/61/61 53/53/53
f 53/53/53 61/61/61 62/62/62
f 53/53/53 62/62/62 63/63/63
f 53/53/53 63/63/63 54/54/54
f 55/55/55 64/64/64 65/65/65
f 55/55/55 65/65/65 56/56/56
f 56/56/56 65/65/65 57/57/57
f 57/57/57 65/65/65 66/66/66
f 57/57/57 66/66/66 67/67/67
f 57/57/57 67/67/67 58/58/58
f 58/58/58 67/67/67 59/59/59
f 59/59/59 67/67/67 68/68/68
f 59/59/59 68/68/68 69/69/69
f 59/59/59 69/69/69 60/60/60
f 60/60/60 69/69/69 61/61/61
f 61/61/61 69/69/69 70/70/70
f 61/61/61 70/70/70 71/71/71
f 61/61/61 71/71/71 62/62/62
f 62/62/62 71/71/71 63/63/63
f 63/63/63 71/71/71 72/72/72
f 64/64/64 73/73/73 65/65/65
f 65/65/65 73/73/73 74/74/74
f 65/65/65 74/74/74 75/75/75
f 65/65/65 75/75/75 66/66/66
f 66/66/66 75/75/75 67/67/67
f 67/67/67 75/75/75 76/76/76
f 67/67/67 76/76/76 77/77/77
f 67/67/67 77/77/77 68/68/68
f 68/68/68 77/77/77 69/69/69
f 69/69/69 77/77/77 78/78/78
f 69/69/69 78/78/78 79/79/79
f 69/69/69 79/79/79 70/70/70
f 70/70/70 79/79/79 71/71/71
f 71/71/71 79/79/79 80/80/80
f 71/71/71 80/80/80 81/81/81
f 71/71/71 81/81/81 72/72/72
