# Generated by tools/generate_island.py. Do not edit by hand.
o terrain_lod2_-2_0

v -128.000 0.899 0.000 0.490 0.459 0.269
v -128.000 0.338 8.000 0.488 0.457 0.267
v -120.000 3.400 8.000 0.467 0.436 0.254
v -120.000 6.212 0.000 0.462 0.430 0.250
v -112.000 13.573 0.000 0.449 0.417 0.242
v -112.000 10.974 8.000 0.461 0.430 0.250
v -104.000 18.339 8.000 0.267 0.300 0.221
v -104.000 17.556 0.000 0.271 0.303 0.223
v -96.000 17.888 0.000 0.263 0.297 0.219
v -96.000 18.315 8.000 0.271 0.302 0.223
v -88.000 14.509 8.000 0.245 0.283 0.207
v -88.000 16.342 0.000 0.248 0.286 0.209
v -80.000 10.997 0.000 0.247 0.285 0.209
v -80.000 7.692 8.000 0.234 0.275 0.201
v -72.000 6.114 8.000 0.225 0.269 0.195
v -72.000 8.266 0.000 0.232 0.274 0.200
v -64.000 8.142 0.000 0.216 0.262 0.190
v -64.000 4.683 8.000 0.148 0.244 0.086
v -128.000 -0.280 16.000 0.458 0.427 0.248
v -120.000 1.456 16.000 0.447 0.415 0.240
v -112.000 6.418 16.000 0.444 0.412 0.239
v -104.000 12.867 16.000 0.279 0.308 0.228
v -96.000 12.574 16.000 0.261 0.295 0.217
v -88.000 9.144 16.000 0.248 0.286 0.209
v -80.000 4.425 16.000 0.136 0.234 0.082
v -72.000 3.260 16.000 0.138 0.236 0.083
v -64.000 2.789 16.000 0.142 0.239 0.084
v -128.000 -1.121 24.000 0.418 0.385 0.221
v -120.000 -0.022 24.000 0.431 0.398 0.230
v -112.000 2.037 24.000 0.425 0.392 0.226
v -104.000 6.243 24.000 0.280 0.309 0.229
v -96.000 5.662 24.000 0.258 0.293 0.216
v -88.000 4.545 24.000 0.153 0.248 0.088
v -80.000 2.354 24.000 0.141 0.239 0.084
v -72.000 1.708 24.000 0.136 0.235 0.082
v -64.000 1.899 24.000 0.141 0.238 0.084
v -128.000 -1.668 32.000 0.400 0.366 0.209
v -120.000 -0.618 32.000 0.422 0.389 0.224
v -112.000 0.698 32.000 0.423 0.390 0.225
v -104.000 2.565 32.000 0.202 0.286 0.104
v -96.000 2.551 32.000 0.181 0.269 0.097
v -88.000 1.782 32.000 0.159 0.252 0.090
v -80.000 1.291 32.000 0.151 0.247 0.087
v -72.000 2.478 32.000 0.154 0.249 0.088
v -64.000 2.351 32.000 0.150 0.246 0.087
v -128.000 -1.681 40.000 0.384 0.350 0.199
v -120.000 -0.886 40.000 0.397 0.364 0.208
v -112.000 0.512 40.000 0.404 0.371 0.212
v -104.000 1.847 40.000 0.179 0.268 0.096
v -96.000 3.101 40.000 0.184 0.272 0.098
v -88.000 1.631 40.000 0.186 0.273 0.099
v -80.000 0.881 40.000 0.443 0.411 0.238
v -72.000 3.019 40.000 0.196 0.281 0.102
v -64.000 4.018 40.000 0.205 0.288 0.105
v -128.000 -2.145 48.000 0.366 0.331 0.187
v -120.000 -1.320 48.000 0.362 0.327 0.185
v -112.000 0.011 48.000 0.403 0.369 0.211
v -104.000 1.820 48.000 0.433 0.401 0.231
v -96.000 3.775 48.000 0.206 0.289 0.105
v -88.000 4.937 48.000 0.217 0.298 0.109
v -80.000 4.867 48.000 0.207 0.290 0.106
v -72.000 6.218 48.000 0.300 0.324 0.241
v -64.000 5.622 48.000 0.310 0.331 0.247
v -128.000 -2.841 56.000 0.361 0.326 0.184
v -120.000 -1.527 56.000 0.361 0.326 0.184
v -112.000 -0.671 56.000 0.376 0.341 0.193
v -104.000 0.986 56.000 0.440 0.407 0.236
v -96.000 2.328 56.000 0.483 0.452 0.264
v -88.000 3.921 56.000 0.244 0.319 0.118
v -80.000 6.724 56.000 0.305 0.327 0.244
v -72.000 6.915 56.000 0.290 0.316 0.235
v -64.000 4.612 56.000 0.202 0.286 0.104
v -128.000 -3.518 64.000 0.377 0.342 0.194
v -120.000 -2.060 64.000 0.361 0.326 0.184
v -112.000 -1.410 64.000 0.388 0.354 0.202
v -104.000 -0.388 64.000 0.427 0.395 0.228
v -96.000 0.679 64.000 0.469 0.437 0.255
v -88.000 0.765 64.000 0.486 0.455 0.266
v -80.000 2.380 64.000 0.229 0.307 0.113
v -72.000 4.582 64.000 0.206 0.289 0.105
v -64.000 3.107 64.000 0.205 0.288 0.105

vt 0.233333 0.500000
vt 0.233333 0.483333
vt 0.250000 0.483333
vt 0.250000 0.500000
vt 0.266667 0.500000
vt 0.266667 0.483333
vt 0.283333 0.483333
vt 0.283333 0.500000
vt 0.300000 0.500000
vt 0.300000 0.483333
vt 0.316667 0.483333
vt 0.316667 0.500000
vt 0.333333 0.500000
vt 0.333333 0.483333
vt 0.350000 0.483333
vt 0.350000 0.500000
vt 0.366667 0.500000
vt 0.366667 0.483333
vt 0.233333 0.466667
vt 0.250000 0.466667
vt 0.266667 0.466667
vt 0.283333 0.466667
vt 0.300000 0.466667
vt 0.316667 0.466667
vt 0.333333 0.466667
vt 0.350000 0.466667
vt 0.366667 0.466667
vt 0.233333 0.450000
vt 0.250000 0.450000
vt 0.266667 0.450000
vt 0.283333 0.450000
vt 0.300000 0.450000
vt 0.316667 0.450000
vt 0.333333 0.450000
vt 0.350000 0.450000
vt 0.366667 0.450000
vt 0.233333 0.433333
vt 0.250000 0.433333
vt 0.266667 0.433333
vt 0.283333 0.433333
vt 0.300000 0.433333
vt 0.316667 0.433333
vt 0.333333 0.433333
vt 0.350000 0.433333
vt 0.366667 0.433333
vt 0.233333 0.416667
vt 0.250000 0.416667
vt 0.266667 0.416667
vt 0.283333 0.416667
vt 0.300000 0.416667
vt 0.316667 0.416667
vt 0.333333 0.416667
vt 0.350000 0.416667
vt 0.366667 0.416667
vt 0.233333 0.400000
vt 0.250000 0.400000
vt 0.266667 0.400000
vt 0.283333 0.400000
vt 0.300000 0.400000
vt 0.316667 0.400000
vt 0.333333 0.400000
vt 0.350000 0.400000
vt 0.366667 0.400000
vt 0.233333 0.383333
vt 0.250000 0.383333
vt 0.266667 0.383333
vt 0.283333 0.383333
vt 0.300000 0.383333
vt 0.316667 0.383333
vt 0.333333 0.383333
vt 0.350000 0.383333
vt 0.366667 0.383333
vt 0.233333 0.366667
vt 0.250000 0.366667
vt 0.266667 0.366667
vt 0.283333 0.366667
vt 0.300000 0.366667
vt 0.316667 0.366667
vt 0.333333 0.366667
vt 0.350000 0.366667
vt 0.366667 0.366667

vn -0.45583 0.87092 0.18360
vn -0.35656 0.93174 0.06870
vn -0.52183 0.82170 0.22914
vn -0.59861 0.75571 0.26565
vn -0.62526 0.76125 0.17192
vn -0.64869 0.69475 0.31069
vn -0.34862 0.88701 0.30279
vn -0.25923 0.96123 -0.09405
vn 0.15574 0.98778 0.00603
vn 0.22156 0.92544 0.30736
vn 0.46447 0.81921 0.33640
vn 0.38708 0.89876 0.20592
vn 0.43901 0.85294 0.28241
vn 0.43663 0.83217 0.34182
vn 0.15351 0.93475 0.32042
vn 0.16981 0.95163 0.25605
vn 0.09131 0.93970 0.32957
vn 0.16720 0.93497 0.31284
vn -0.22951 0.96218 0.14675
vn -0.37886 0.90499 0.19353
vn -0.52070 0.75691 0.39492
vn -0.29342 0.76259 0.57651
vn 0.16084 0.79334 0.58714
vn 0.39684 0.77917 0.48520
vn 0.31737 0.88308 0.34560
vn 0.09815 0.95947 0.26418
vn 0.06638 0.97353 0.21872
vn -0.13560 0.98706 0.08564
vn -0.23031 0.95840 0.16857
vn -0.34594 0.88350 0.31584
vn -0.20301 0.85144 0.48357
vn 0.08958 0.84404 0.52875
vn 0.22375 0.89353 0.38927
vn 0.17143 0.96683 0.18936
vn 0.02314 0.99653 0.07995
vn -0.02384 0.99934 0.02734
vn -0.12373 0.99133 0.04412
vn -0.14611 0.98783 0.05334
vn -0.23159 0.96471 0.12527
vn -0.11098 0.95830 0.26332
vn 0.05331 0.98025 0.19043
vn 0.07721 0.98088 0.17866
vn 0.00088 0.99748 0.07088
vn -0.06584 0.99450 -0.08147
vn -0.02905 0.99389 -0.10652
vn -0.09885 0.99466 0.02964
vn -0.13775 0.98967 0.03968
vn -0.16820 0.98485 0.04230
vn -0.16631 0.98596 0.01467
vn 0.01346 0.99700 -0.07628
vn 0.07075 0.98280 -0.17061
vn -0.08437 0.97245 -0.21729
vn -0.12239 0.96851 -0.21680
vn -0.12144 0.97249 -0.19881
vn -0.11654 0.99162 0.05584
vn -0.13345 0.99026 0.03970
vn -0.17691 0.98243 0.05939
vn -0.22870 0.97209 0.05233
vn -0.13855 0.99035 0.00181
vn -0.06738 0.98766 -0.14138
vn -0.10393 0.95793 -0.26750
vn -0.04580 0.97059 -0.23635
vn 0.07703 0.98735 -0.13855
vn -0.16152 0.98326 0.08435
vn -0.13295 0.98892 0.06606
vn -0.15455 0.98411 0.08740
vn -0.18040 0.97415 0.13598
vn -0.17728 0.96623 0.18698
vn -0.17417 0.96220 0.20939
vn -0.18182 0.97167 0.15099
vn 0.04246 0.99085 0.12809
vn 0.27354 0.95020 0.14933
vn -0.17021 0.98260 0.07431
vn -0.13032 0.98928 0.06595
vn -0.12896 0.98615 0.10432
vn -0.12763 0.97751 0.16788
vn -0.12317 0.96396 0.23584
vn -0.09843 0.92569 0.36525
vn -0.19102 0.89745 0.39762
vn -0.04356 0.95908 0.27976
vn 0.22377 0.94775 0.22738

f 1/1/1 2/2/2 3/3/3
f 1/1/1 3/3/3 4/4/4
f 4/4/4 3/3/3 5/5/5
f 5/5/5 3/3/3 6/6/6
f 5/5/5 6/6/6 7/7/7
f 5/5/5 7/7/7 8/8/8
f 8/8/8 7/7/7 9/9/9
f 9/9/9 7/7/7 10/10/10
f 9/9/9 10/10/10 11/11/11
f 9/9/9 11/11/11 12/12/12
f 12/12/12 11/11/11 13/13/13
f 13/13/13 11/11/11 14/14/14
f 13/13/13 14/14/14 15/15/15
f 13/13/13 15/15/15 16/16/16
f 16/16/16 15/15/15 17/17/17
f 17/17/17 15/15/15 18/18/18
f 2/2/2 19/19/19 3/3/3
f 3/3/3 19/19/19 20/20/20
f 3/3/3 20/20/20 21/21/21
f 3/3/3 21/21/21 6/6/6
f 6/6/6 21/21/21 7/7/7
f 7/7/7 21/21/21 22/22/22
f 7/7/7 22/22/22 23/23/23
f 7/7/7 23/23/23 10/10/10
f 10/10/10 23/23/23 11/11/11
f 11/11/11 23/23/23 24/24/24
f 11/11/11 24/24/24 25/25/25
f 11/11/11 25/25/25 14/14/14
f 14/14/14 25/25/25 15/15/15
f 15/15/15 25/25/25 26/26/26
f 15/15/15 26/26/26 27/27/27
f 15/15/15 27/27/27 18/18/18
f 19/19/19 28/28/28 29/29/29
f 19/19/19 29/29/29 20/20/20
f 20/20/20 29/29/29 21/21/21
f 21/21/21 29/29/29 30/30/30
f 21/21/21 30/30/30 31/31/31
f 21/21/21 31/31/31 22/22/22
f 22/22/22 31/31/31 23/23/23
f 23/23/23 31/31/31 32/32/32
f 23/23/23 32/32/32 33/33/33
f 23/23/23 33/33/33 24/24/24
f 24/24/24 33/33/33 25/25/25
f 25/25/25 33/33/33 34/34/34
f 25/25/25 34/34/34 35/35/35
f 25/25/25 35/35/35 26/26/26
f 26/26/26 35/35/35 27/27/27
f 27/27/27 35/35/35 36/36/36
f 28/28/28 37/37/37 29/29/29
f 29/29/29 37/37/37 38/38/38
f 29/29/29 38/38/38 39/39/39
f 29/29/29 39/39/39 30/30/30
f 30/30/30 39/39/39 31/31/31
f 31/31/31 39/39/39 40/40/40
f 31/31/31 40/40/40 41/41/41
f 31/31/31 41/41/41 32/32/32
f 32/32/32 41/41/41 33/33/33
f 33/33/33 41/41/41 42/42/42
f 33/33/33 42/42/42 43/43/43
f 33/33/33 43/43/43 34/34/34
f 34/34/34 43/43/43 35/35/35
f 35/35/35 43/43/43 44/44/44
f 35/35/35 44/44/44 45/45/45
f 35/35/35 45/45/45 36/36/36
f 37/37/37 46/46/46 47/47/47
f 37/37/37 47/47/47 38/38/38
f 38/38/38 47/47/47 39/39/39
f 39/39/39 47/47/47 48/48/48
f 39/39/39 48/48/48 49/49/49
f 39/39/39 49/49/49 40/40/40
f 40/40/40 49/49/49 41/41/41
f 41/41/41 49/49/49 50/50/50
f 41/41/41 50/50/50 51/51/51
f 41/41/41 51/51/51 42/42/42
f 42/42/42 51/51/51 43/43/43
f 43/43/43 51/51/51 52/52/52
f 43/43/43 52/52/52 53/53/53
f 43/43/43 53/53/53 44/44/44
f 44/44/44 53/53/53 45/45/45
f 45/45/45 53/53/53 54/54/54
f 46/46/46 55/55/55 47/47/47
f 47/47/47 55/55/55 56/56/56
f 47/47/47 56/56/56 57/57/57
f 47/47/47 57/57/57 48/48/48
f 48/48/48 57/57/57 49/49/49
f 49/49/49 57/57/57 58/58/58
f 49/49/49 58/58/58 59/59/59
f 49/49/49 59/59/59 50/50/50
f 50/50/50 59/59/59 51/51/51
f 51/51/51 59/59/59 60/60/60
f 51/51/51 60/60/60 61/61/61
f 51/51/51 61/61/61 52/52/52
f 52/52/52 61/61/61 53/53/53
f 53/53/53 61/61/61 62/62/62
f 53/53/53 62/62/62 63/63/63
f 53/53/53 63/63/63 54/54/54
f 55/55/55 64/64/64 65/65/65
f 55/55/55 65/65/65 56/56/56
f 56/56/56 65/65/65 57/57/57
f 57/57/57 65/65/65 66/66/66
f 57/57/57 66/66/66 67/67/67
f 57/57/57 67/67/67 58/58/58
f 58/58/58 67/67/67 59/59/59
f 59/59/59 67/67/67 68/68/68
f 59/59/59 68/68/68 69/69/69
f 59/59/59 69/69/69 60/60/60
f 60/60/60 69/69/69 61/61/61
f 61/61/61 69/69/69 70/70/70
f 61/61/61 70/70/70 71/71/71
f 61/61/61 71/71/71 62/62/62
f 62/62/62 71/71/71 63/63/63
f 63/63/63 71/71/71 72/72/72
f 64/64/64 73/73/73 65/65/65
f 65/65/65 73/73/73 74/74/74
f 65/65/65 74/74/74 75/75/75
f 65/65/65 75/75/75 66/66/66
f 66/66/66 75/75/75 67/67/67
f 67/67/67 75/75/75 76/76/76
f 67/67/67 76/76/76 77/77/77
f 67/67/67 77/77/77 68/68/68
f 68/68/68 77/77/77 69/69/69
f 69/69/69 77/77/77 78/78/78
f 69/69/69 78/78/78 79/79/79
f 69/69/69 79/79/79 70/70/70
f 70/70/70 79/79/79 71/71/71
f 71/71/71 79/79/79 80/80/80
f 71/71/71 80/80/80 81/81/81
f 71/71/71 81/81/81 72/72/72
