# Generated by tools/generate_island.py. Do not edit by hand.
o terrain_lod1_-3_-6

v -264.000 -10.800 -696.000 0.506 0.476 0.279
v -264.000 -10.800 -688.000 0.502 0.472 0.277
v -256.000 -10.415 -688.000 0.514 0.484 0.285
v -256.000 -10.800 -696.000 0.498 0.467 0.274
v -304.000 -10.800 -688.000 0.506 0.476 0.280
v -304.000 -10.800 -680.000 0.506 0.476 0.279
v -296.000 -10.757 -680.000 0.510 0.480 0.282
v -296.000 -10.800 -688.000 0.498 0.467 0.274
v -288.000 -10.800 -688.000 0.496 0.466 0.273
v -288.000 -10.590 -680.000 0.514 0.484 0.285
v -280.000 -10.800 -680.000 0.520 0.490 0.288
v -272.000 -10.800 -688.000 0.514 0.483 0.284
v -272.000 -10.619 -680.000 0.534 0.504 0.298
v -264.000 -10.433 -680.000 0.507 0.477 0.280
v -256.000 -10.087 -680.000 0.512 0.482 0.284
v -312.000 -10.800 -680.000 0.532 0.502 0.296
v -312.000 -10.800 -672.000 0.508 0.477 0.280
v -304.000 -10.406 -672.000 0.524 0.494 0.291
v -296.000 -10.618 -672.000 0.536 0.506 0.299
v -288.000 -10.419 -672.000 0.521 0.491 0.289
v -280.000 -10.482 -672.000 0.527 0.497 0.293
v -272.000 -10.204 -672.000 0.533 0.504 0.297
v -264.000 -9.526 -672.000 0.501 0.470 0.276
v -256.000 -9.457 -672.000 0.505 0.475 0.279
v -320.000 -10.800 -672.000 0.541 0.512 0.302
v -328.000 -10.800 -664.000 0.579 0.551 0.327
v -320.000 -10.712 -664.000 0.558 0.529 0.314
v -312.000 -10.478 -664.000 0.524 0.494 0.291
v -304.000 -10.059 -664.000 0.516 0.485 0.286
v -296.000 -10.121 -664.000 0.521 0.491 0.289
v -288.000 -10.210 -664.000 0.530 0.501 0.295
v -280.000 -9.728 -664.000 0.540 0.511 0.302
v -272.000 -9.556 -664.000 0.528 0.499 0.294
v -264.000 -9.010 -664.000 0.518 0.488 0.287
v -256.000 -8.892 -664.000 0.517 0.486 0.286
v -328.000 -10.800 -656.000 0.566 0.538 0.319
v -320.000 -10.189 -656.000 0.548 0.518 0.307
v -312.000 -9.779 -656.000 0.523 0.493 0.291
v -304.000 -9.801 -656.000 0.507 0.477 0.280
v -296.000 -9.642 -656.000 0.502 0.471 0.277
v -288.000 -9.771 -656.000 0.490 0.459 0.269
v -280.000 -9.548 -656.000 0.499 0.469 0.275
v -272.000 -9.148 -656.000 0.497 0.466 0.273
v -264.000 -9.025 -656.000 0.522 0.492 0.290
v -256.000 -8.706 -656.000 0.538 0.508 0.300
v -336.000 -10.800 -656.000 0.563 0.534 0.317
v -344.000 -10.800 -648.000 0.569 0.540 0.321
v -336.000 -10.660 -648.000 0.554 0.525 0.311
v -328.000 -10.115 -648.000 0.528 0.498 0.294
v -320.000 -9.874 -648.000 0.525 0.495 0.292
v -312.000 -9.427 -648.000 0.513 0.482 0.284
v -304.000 -9.637 -648.000 0.497 0.467 0.274
v -296.000 -9.640 -648.000 0.482 0.451 0.264
v -288.000 -9.364 -648.000 0.449 0.417 0.242
v -280.000 -9.303 -648.000 0.452 0.420 0.244
v -272.000 -8.620 -648.000 0.450 0.418 0.243
v -264.000 -8.591 -648.000 0.479 0.448 0.262
v -256.000 -8.461 -648.000 0.536 0.507 0.299
v -352.000 -10.800 -640.000 0.579 0.551 0.327
v -344.000 -10.569 -640.000 0.575 0.546 0.324
v -336.000 -10.362 -640.000 0.537 0.507 0.300
v -328.000 -9.693 -640.000 0.517 0.487 0.286
v -320.000 -9.530 -640.000 0.505 0.475 0.279
v -312.000 -9.354 -640.000 0.507 0.476 0.280
v -304.000 -9.179 -640.000 0.496 0.465 0.273
v -296.000 -9.335 -640.000 0.468 0.436 0.254
v -288.000 -8.721 -640.000 0.435 0.402 0.233
v -280.000 -8.486 -640.000 0.423 0.390 0.225
v -272.000 -8.223 -640.000 0.430 0.398 0.229
v -264.000 -8.062 -640.000 0.467 0.435 0.254
v -256.000 -8.333 -640.000 0.504 0.473 0.278

vt 0.362500 0.862500
vt 0.362500 0.858333
vt 0.366667 0.858333
vt 0.366667 0.862500
vt 0.341667 0.858333
vt 0.341667 0.854167
vt 0.345833 0.854167
vt 0.345833 0.858333
vt 0.350000 0.858333
vt 0.350000 0.854167
vt 0.354167 0.854167
vt 0.358333 0.858333
vt 0.358333 0.854167
vt 0.362500 0.854167
vt 0.366667 0.854167
vt 0.337500 0.854167
vt 0.337500 0.850000
vt 0.341667 0.850000
vt 0.345833 0.850000
vt 0.350000 0.850000
vt 0.354167 0.850000
vt 0.358333 0.850000
vt 0.362500 0.850000
vt 0.366667 0.850000
vt 0.333333 0.850000
vt 0.329167 0.845833
vt 0.333333 0.845833
vt 0.337500 0.845833
vt 0.341667 0.845833
vt 0.345833 0.845833
vt 0.350000 0.845833
vt 0.354167 0.845833
vt 0.358333 0.845833
vt 0.362500 0.845833
vt 0.366667 0.845833
vt 0.329167 0.841667
vt 0.333333 0.841667
vt 0.337500 0.841667
vt 0.341667 0.841667
vt 0.345833 0.841667
vt 0.350000 0.841667
vt 0.354167 0.841667
vt 0.358333 0.841667
vt 0.362500 0.841667
vt 0.366667 0.841667
vt 0.325000 0.841667
vt 0.320833 0.837500
vt 0.325000 0.837500
vt 0.329167 0.837500
vt 0.333333 0.837500
vt 0.337500 0.837500
vt 0.341667 0.837500
vt 0.345833 0.837500
vt 0.350000 0.837500
vt 0.354167 0.837500
vt 0.358333 0.837500
vt 0.362500 0.837500
vt 0.366667 0.837500
vt 0.316667 0.833333
vt 0.320833 0.833333
vt 0.325000 0.833333
vt 0.329167 0.833333
vt 0.333333 0.833333
vt 0.337500 0.833333
vt 0.341667 0.833333
vt 0.345833 0.833333
vt 0.350000 0.833333
vt 0.354167 0.833333
vt 0.358333 0.833333
vt 0.362500 0.833333
vt 0.366667 0.833333

vn -0.02407 0.99942 -0.02407
vn -0.03208 0.99902 -0.03053
vn -0.03485 0.99882 -0.03369
vn 0.00000 0.99884 -0.04812
vn -0.00267 0.99999 -0.00267
vn -0.00356 0.99946 -0.03279
vn -0.00638 0.99982 -0.01779
vn 0.00000 0.99999 -0.00534
vn 0.00178 0.99981 -0.01931
vn 0.00267 0.99971 -0.02381
vn -0.00323 0.99943 -0.03360
vn -0.01527 0.99942 -0.03031
vn -0.02290 0.99904 -0.03724
vn -0.03422 0.99737 -0.06391
vn -0.04312 0.99729 -0.05967
vn -0.02459 0.99940 -0.02459
vn -0.03278 0.99910 -0.02683
vn -0.01192 0.99920 -0.03811
vn 0.00079 0.99921 -0.03972
vn -0.00973 0.99921 -0.03851
vn -0.01342 0.99767 -0.06687
vn -0.04664 0.99632 -0.07197
vn -0.04641 0.99499 -0.08853
vn -0.01872 0.99649 -0.08155
vn -0.01342 0.99969 -0.02077
vn -0.03278 0.99914 -0.02544
vn -0.02012 0.99907 -0.03816
vn -0.03256 0.99818 -0.05081
vn -0.02226 0.99904 -0.03778
vn 0.00446 0.99874 -0.05000
vn -0.02457 0.99888 -0.04046
vn -0.03348 0.99789 -0.05570
vn -0.04473 0.99683 -0.06577
vn -0.03924 0.99827 -0.04382
vn -0.01466 0.99879 -0.04693
vn -0.05078 0.99709 -0.05689
vn -0.04757 0.99745 -0.05317
vn -0.02416 0.99756 -0.06551
vn -0.00651 0.99929 -0.03709
vn -0.00190 0.99955 -0.03004
vn -0.01437 0.99907 -0.04059
vn -0.03889 0.99889 -0.02654
vn -0.03859 0.99836 -0.04235
vn -0.02763 0.99928 -0.02612
vn -0.02772 0.99926 -0.02652
vn -0.02850 0.99879 -0.04015
vn -0.02243 0.99935 -0.02814
vn -0.04274 0.99871 -0.02736
vn -0.04700 0.99756 -0.05159
vn -0.04294 0.99823 -0.04110
vn -0.01893 0.99927 -0.03327
vn 0.01331 0.99916 -0.03884
vn -0.01615 0.99923 -0.03568
vn -0.02106 0.99763 -0.06544
vn -0.04064 0.99713 -0.06384
vn -0.04432 0.99735 -0.05767
vn -0.01014 0.99868 -0.05033
vn -0.01629 0.99960 -0.02326
vn -0.02890 0.99916 -0.02890
vn -0.02737 0.99921 -0.02890
vn -0.04865 0.99806 -0.03897
vn -0.05183 0.99727 -0.05258
vn -0.03207 0.99880 -0.03689
vn -0.02192 0.99972 -0.00913
vn 0.00607 0.99917 -0.04035
vn -0.02859 0.99887 -0.03807
vn -0.03695 0.99651 -0.07490
vn -0.03099 0.99436 -0.10143
vn -0.03540 0.99714 -0.06670
vn 0.00689 0.99779 -0.06609
vn 0.00882 0.99912 -0.04107

f 1/1/1 2/2/2 3/3/3
f 1/1/1 3/3/3 4/4/4
f 5/5/5 6/6/6 7/7/7
f 5/5/5 7/7/7 8/8/8
f 8/8/8 7/7/7 9/9/9
f 9/9/9 7/7/7 10/10/10
f 9/9/9 10/10/10 11/11/11
f 12/12/12 11/11/11 13/13/13
f 12/12/12 13/13/13 14/14/14
f 12/12/12 14/14/14 2/2/2
f 2/2/2 14/14/14 3/3/3
f 3/3/3 14/14/14 15/15/15
f 16/16/16 17/17/17 18/18/18
f 16/16/16 18/18/18 6/6/6
f 6/6/6 18/18/18 7/7/7
f 7/7/7 18/18/18 19/19/19
f 7/7/7 19/19/19 20/20/20
f 7/7/7 20/20/20 10/10/10
f 10/10/10 20/20/20 11/11/11
f 11/11/11 20/20/20 21/21/21
f 11/11/11 21/21/21 22/22/22
f 11/11/11 22/22/22 13/13/13
f 13/13/13 22/22/22 14/14/14
f 14/14/14 22/22/22 23/23/23
f 14/14/14 23/23/23 24/24/24
f 14/14/14 24/24/24 15/15/15
f 25/25/25 26/26/26 27/27/27
f 25/25/25 27/27/27 28/28/28
f 25/25/25 28/28/28 17/17/17
f 17/17/17 28/28/28 18/18/18
f 18/18/18 28/28/28 29/29/29
f 18/18/18 29/29/29 30/30/30
f 18/18/18 30/30/30 19/19/19
f 19/19/19 30/30/30 20/20/20
f 20/20/20 30/30/30 31/31/31
f 20/20/20 31/31/31 32/32/32
f 20/20/20 32/32/32 21/21/21
f 21/21/21 32/32/32 22/22/22
f 22/22/22 32/32/32 33/33/33
f 22/22/22 33/33/33 34/34/34
f 22/22/22 34/34/34 23/23/23
f 23/23/23 34/34/34 24/24/24
f 24/24/24 34/34/34 35/35/35
f 26/26/26 36/36/36 37/37/37
f 26/26/26 37/37/37 27/27/27
f 27/27/27 37/37/37 28/28/28
f 28/28/28 37/37/37 38/38/38
f 28/28/28 38/38/38 39/39/39
f 28/28/28 39/39/39 29/29/29
f 29/29/29 39/39/39 30/30/30
f 30/30/30 39/39/39 40/40/40
f 30/30/30 40/40/40 41/41/41
f 30/30/30 41/41/41 31/31/31
f 31/31/31 41/41/41 32/32/32
f 32/32/32 41/41/41 42/42/42
f 32/32/32 42/42/42 43/43/43
f 32/32/32 43/43/43 33/33/33
f 33/33/33 43/43/43 34/34/34
f 34/34/34 43/43/43 44/44/44
f 34/34/34 44/44/44 45/45/45
f 34/34/34 45/45/45 35/35/35
f 46/46/46 47/47/47 48/48/48
f 46/46/46 48/48/48 49/49/49
f 46/46/46 49/49/49 36/36/36
f 36/36/36 49/49/49 37/37/37
f 37/37/37 49/49/49 50/50/50
f 37/37/37 50/50/50 51/51/51
f 37/37/37 51/51/51 38/38/38
f 38/38/38 51/51/51 39/39/39
f 39/39/39 51/51/51 52/52/52
f 39/39/39 52/52/52 53/53/53
f 39/39/39 53/53/53 40/40/40
f 40/40/40 53/53/53 41/41/41
f 41/41/41 53/53/53 54/54/54
f 41/41/41 54/54/54 55/55/55
f 41/41/41 55/55/55 42/42/42
f 42/42/42 55/55/55 43/43/43
f 43/43/43 55/55/55 56/56/56
f 43/43/43 56/56/56 57/57/57
f 43/43/43 57/57/57 44/44/44
f 44/44/44 57/57/57 45/45/45
f 45/45/45 57/57/57 58/58/58
f 47/47/47 59/59/59 60/60/60
f 47/47/47 60/60/60 61/61/61
f 47/47/47 61/61/61 48/48/48
f 48/48/48 61/61/61 49/49/49
f 49/49/49 61/61/61 62/62/62
f 49/49/49 62/62/62 63/63/63
f 49/49/49 63/63/63 50/50/50
f 50/50/50 63/63/63 51/51/51
f 51/51/51 63/63/63 64/64/64
f 51/51/51 64/64/64 65/65/65
f 51/51/51 65/65/65 52/52/52
f 52/52/52 65/65/65 53/53/53
f 53/53/53 65/65/65 66/66/66
f 53/53/53 66/66/66 67/67/67
f 53/53/53 67/67/67 54/54/54
f 54/54/54 67/67/67 55/55/55
f 55/55/55 67/67/67 68/68/68
f 55/55/55 68/68/68 69/69/69
f 55/55/55 69/69/69 56/56/56
f 56/56/56 69/69/69 57/57/57
f 57/57/57 69/69/69 70/70/70
f 57/57/57 70/70/70 71/71/71
f 57/57/57 71/71/71 58/58/58
