# Generated by tools/generate_island.py. Do not edit by hand.
o terrain_lod2_-2_-6

v -256.000 -10.800 -768.000 0.488 0.457 0.268
v -256.000 -10.800 -752.000 0.466 0.434 0.253
v -240.000 -10.800 -752.000 0.476 0.445 0.260
v -240.000 -10.800 -768.000 0.491 0.460 0.269
v -224.000 -10.800 -768.000 0.499 0.469 0.275
v -224.000 -10.800 -752.000 0.471 0.440 0.256
v -208.000 -10.800 -752.000 0.534 0.504 0.298
v -208.000 -10.800 -768.000 0.494 0.464 0.272
v -192.000 -10.800 -768.000 0.515 0.485 0.286
v -192.000 -10.800 -752.000 0.558 0.529 0.314
v -176.000 -10.800 -752.000 0.530 0.501 0.295
v -176.000 -10.800 -768.000 0.567 0.538 0.319
v -160.000 -10.800 -768.000 0.536 0.506 0.299
v -160.000 -10.800 -752.000 0.518 0.488 0.287
v -144.000 -10.800 -752.000 0.491 0.460 0.269
v -144.000 -10.800 -768.000 0.483 0.451 0.264
v -128.000 -10.800 -768.000 0.437 0.405 0.234
v -128.000 -10.800 -752.000 0.459 0.427 0.248
v -256.000 -10.800 -736.000 0.445 0.413 0.239
v -240.000 -10.800 -736.000 0.437 0.405 0.234
v -224.000 -10.800 -736.000 0.434 0.401 0.232
v -208.000 -10.800 -736.000 0.448 0.416 0.241
v -192.000 -10.800 -736.000 0.464 0.432 0.252
v -176.000 -10.800 -736.000 0.506 0.475 0.279
v -160.000 -10.800 -736.000 0.492 0.461 0.270
v -144.000 -10.800 -736.000 0.513 0.483 0.284
v -128.000 -10.800 -736.000 0.471 0.439 0.256
v -256.000 -10.800 -720.000 0.491 0.460 0.270
v -240.000 -10.800 -720.000 0.437 0.405 0.234
v -224.000 -10.800 -720.000 0.432 0.400 0.231
v -208.000 -10.800 -720.000 0.386 0.352 0.201
v -192.000 -10.800 -720.000 0.422 0.389 0.224
v -176.000 -10.800 -720.000 0.467 0.435 0.254
v -160.000 -10.800 -720.000 0.467 0.436 0.254
v -144.000 -10.800 -720.000 0.475 0.444 0.259
v -128.000 -10.600 -720.000 0.473 0.442 0.258
v -256.000 -10.800 -704.000 0.487 0.456 0.267
v -240.000 -10.800 -704.000 0.467 0.436 0.254
v -224.000 -10.800 -704.000 0.448 0.416 0.241
v -208.000 -10.800 -704.000 0.443 0.411 0.238
v -192.000 -10.800 -704.000 0.448 0.416 0.241
v -176.000 -10.800 -704.000 0.479 0.447 0.261
v -160.000 -10.489 -704.000 0.459 0.427 0.248
v -144.000 -9.746 -704.000 0.454 0.422 0.245
v -128.000 -9.874 -704.000 0.455 0.424 0.246
v -256.000 -10.415 -688.000 0.514 0.484 0.285
v -240.000 -10.333 -688.000 0.509 0.479 0.282
v -224.000 -10.607 -688.000 0.508 0.477 0.280
v -208.000 -9.927 -688.000 0.463 0.432 0.251
v -192.000 -9.495 -688.000 0.455 0.423 0.246
v -176.000 -9.810 -688.000 0.441 0.408 0.236
v -160.000 -9.671 -688.000 0.441 0.409 0.237
v -144.000 -9.185 -688.000 0.472 0.440 0.257
v -128.000 -8.964 -688.000 0.457 0.425 0.247
v -256.000 -9.457 -672.000 0.505 0.475 0.279
v -240.000 -9.354 -672.000 0.556 0.527 0.312
v -224.000 -9.121 -672.000 0.532 0.503 0.297
v -208.000 -8.661 -672.000 0.470 0.439 0.256
v -192.000 -9.163 -672.000 0.443 0.410 0.238
v -176.000 -9.202 -672.000 0.361 0.326 0.184
v -160.000 -8.606 -672.000 0.425 0.392 0.226
v -144.000 -8.197 -672.000 0.522 0.493 0.290
v -128.000 -7.963 -672.000 0.581 0.553 0.329
v -256.000 -8.706 -656.000 0.538 0.508 0.300
v -240.000 -8.756 -656.000 0.517 0.486 0.286
v -224.000 -8.163 -656.000 0.514 0.484 0.284
v -208.000 -7.940 -656.000 0.488 0.457 0.267
v -192.000 -8.212 -656.000 0.402 0.368 0.211
v -176.000 -7.898 -656.000 0.364 0.329 0.186
v -160.000 -7.763 -656.000 0.414 0.381 0.219
v -144.000 -7.764 -656.000 0.519 0.489 0.288
v -128.000 -6.906 -656.000 0.544 0.514 0.304
v -256.000 -8.333 -640.000 0.504 0.473 0.278
v -240.000 -7.949 -640.000 0.510 0.480 0.282
v -224.000 -7.070 -640.000 0.499 0.469 0.275
v -208.000 -7.274 -640.000 0.497 0.466 0.273
v -192.000 -7.209 -640.000 0.465 0.433 0.252
v -176.000 -6.898 -640.000 0.455 0.423 0.246
v -160.000 -7.045 -640.000 0.448 0.416 0.241
v -144.000 -6.628 -640.000 0.464 0.433 0.252
v -128.000 -6.017 -640.000 0.487 0.456 0.267

vt 0.366667 0.900000
vt 0.366667 0.891667
vt 0.375000 0.891667
vt 0.375000 0.900000
vt 0.383333 0.900000
vt 0.383333 0.891667
vt 0.391667 0.891667
vt 0.391667 0.900000
vt 0.400000 0.900000
vt 0.400000 0.891667
vt 0.408333 0.891667
vt 0.408333 0.900000
vt 0.416667 0.900000
vt 0.416667 0.891667
vt 0.425000 0.891667
vt 0.425000 0.900000
vt 0.433333 0.900000
vt 0.433333 0.891667
vt 0.366667 0.883333
vt 0.375000 0.883333
vt 0.383333 0.883333
vt 0.391667 0.883333
vt 0.400000 0.883333
vt 0.408333 0.883333
vt 0.416667 0.883333
vt 0.425000 0.883333
vt 0.433333 0.883333
vt 0.366667 0.875000
vt 0.375000 0.875000
vt 0.383333 0.875000
vt 0.391667 0.875000
vt 0.400000 0.875000
vt 0.408333 0.875000
vt 0.416667 0.875000
vt 0.425000 0.875000
vt 0.433333 0.875000
vt 0.366667 0.866667
vt 0.375000 0.866667
vt 0.383333 0.866667
vt 0.391667 0.866667
vt 0.400000 0.866667
vt 0.408333 0.866667
vt 0.416667 0.866667
vt 0.425000 0.866667
vt 0.433333 0.866667
vt 0.366667 0.858333
vt 0.375000 0.858333
vt 0.383333 0.858333
vt 0.391667 0.858333
vt 0.400000 0.858333
vt 0.408333 0.858333
vt 0.416667 0.858333
vt 0.425000 0.858333
vt 0.433333 0.858333
vt 0.366667 0.850000
vt 0.375000 0.850000
vt 0.383333 0.850000
vt 0.391667 0.850000
vt 0.400000 0.850000
vt 0.408333 0.850000
vt 0.416667 0.850000
vt 0.425000 0.850000
vt 0.433333 0.850000
vt 0.366667 0.841667
vt 0.375000 0.841667
vt 0.383333 0.841667
vt 0.391667 0.841667
vt 0.400000 0.841667
vt 0.408333 0.841667
vt 0.416667 0.841667
vt 0.425000 0.841667
vt 0.433333 0.841667
vt 0.366667 0.833333
vt 0.375000 0.833333
vt 0.383333 0.833333
vt 0.391667 0.833333
vt 0.400000 0.833333
vt 0.408333 0.833333
vt 0.416667 0.833333
vt 0.425000 0.833333
vt 0.433333 0.833333

vn 0.00000 1.00000 0.00000
vn 0.00000 1.00000 0.00000
vn 0.00000 1.00000 0.00000
vn 0.00000 1.00000 0.00000
vn 0.00000 1.00000 0.00000
vn 0.00000 1.00000 0.00000
vn 0.00000 1.00000 0.00000
vn 0.00000 1.00000 0.00000
vn 0.00000 1.00000 0.00000
vn 0.00000 1.00000 0.00000
vn 0.00000 1.00000 0.00000
vn 0.00000 1.00000 0.00000
vn 0.00000 1.00000 0.00000
vn 0.00000 1.00000 0.00000
vn 0.00000 1.00000 0.00000
vn 0.00000 1.00000 0.00000
vn 0.00000 1.00000 0.00000
vn 0.00000 1.00000 0.00000
vn 0.00000 1.00000 0.00000
vn 0.00000 1.00000 0.00000
vn 0.00000 1.00000 0.00000
vn 0.00000 1.00000 0.00000
vn 0.00000 1.00000 0.00000
vn 0.00000 1.00000 0.00000
vn 0.00000 1.00000 0.00000
vn 0.00000 1.00000 0.00000
vn -0.00313 0.99999 -0.00313
vn 0.00000 1.00000 0.00000
vn 0.00000 1.00000 0.00000
vn 0.00000 1.00000 0.00000
vn 0.00000 1.00000 0.00000
vn 0.00000 1.00000 0.00000
vn -0.00243 0.99999 -0.00243
vn 0.00000 0.99995 -0.00970
vn -0.00793 0.99963 -0.02611
vn -0.01251 0.99950 -0.02892
vn -0.00127 0.99991 -0.01332
vn 0.00000 0.99989 -0.01459
vn -0.00317 0.99990 -0.01348
vn 0.00000 0.99963 -0.02726
vn -0.00091 0.99939 -0.03492
vn -0.00970 0.99948 -0.03091
vn -0.02133 0.99905 -0.03796
vn -0.01920 0.99855 -0.05038
vn -0.00259 0.99871 -0.05072
vn -0.00509 0.99911 -0.04192
vn 0.00038 0.99893 -0.04614
vn -0.01266 0.99855 -0.05238
vn -0.01702 0.99810 -0.05921
vn -0.00365 0.99869 -0.05110
vn -0.00402 0.99862 -0.05241
vn -0.01949 0.99808 -0.05875
vn -0.02083 0.99834 -0.05377
vn -0.01381 0.99813 -0.05960
vn -0.00371 0.99868 -0.05128
vn -0.01049 0.99873 -0.04923
vn -0.02032 0.99762 -0.06587
vn 0.00129 0.99808 -0.06198
vn 0.00720 0.99870 -0.05045
vn -0.01737 0.99807 -0.05964
vn -0.02160 0.99821 -0.05575
vn -0.02005 0.99881 -0.04437
vn -0.02412 0.99823 -0.05428
vn 0.00313 0.99938 -0.03511
vn -0.02095 0.99869 -0.04671
vn -0.02543 0.99763 -0.06396
vn 0.00217 0.99860 -0.05289
vn -0.00130 0.99814 -0.06093
vn -0.01262 0.99791 -0.06331
vn -0.00420 0.99880 -0.04871
vn -0.02640 0.99831 -0.05182
vn -0.05345 0.99673 -0.06062
vn -0.01044 0.99927 -0.03682
vn -0.03940 0.99796 -0.05032
vn -0.02324 0.99810 -0.05707
vn 0.00436 0.99913 -0.04158
vn -0.00652 0.99834 -0.05726
vn -0.00512 0.99804 -0.06238
vn -0.00631 0.99843 -0.05571
vn -0.03202 0.99698 -0.07075
vn -0.04577 0.99696 -0.06305

f 1/1/1 2/2/2 3/3/3
f 1/1/1 3/3/3 4/4/4
f 4/4/4 3/3/3 5/5/5
f 5/5/5 3/3/3 6/6/6
f 5/5/5 6/6/6 7/7/7
f 5/5/5 7/7/7 8/8/8
f 8/8/8 7/7/7 9/9/9
f 9/9/9 7/7/7 10/10/10
f 9/9/9 10/10/10 11/11/11
f 9/9/9 11/11/11 12/12/12
f 12/12/12 11/11/11 13/13/13
f 13/13/13 11/11/11 14/14/14
f 13/13/13 14/14/14 15/15/15
f 13/13/13 15/15/15 16/16/16
f 16/16/16 15/15/15 17/17/17
f 17/17/17 15/15/15 18/18/18
f 2/2/2 19/19/19 3/3/3
f 3/3/3 19/19/19 20/20/20
f 3/3/3 20/20/20 21/21/21
f 3/3/3 21/21/21 6/6/6
f 6/6/6 21/21/21 7/7/7
f 7/7/7 21/21/21 22/22/22
f 7/7/7 22/22/22 23/23/23
f 7/7/7 23/23/23 10/10/10
f 10/10/10 23/23/23 11/11/11
f 11/11/11 23/23/23 24/24/24
f 11/11/11 24/24/24 25/25/25
f 11/11/11 25/25/25 14/14/14
f 14/14/14 25/25/25 15/15/15
f 15/15/15 25/25/25 26/26/26
f 15/15/15 26/26/26 27/27/27
f 15/15/15 27/27/27 18/18/18
f 19/19/19 28/28/28 29/29/29
f 19/19/19 29/29/29 20/20/20
f 20/20/20 29/29/29 21/21/21
f 21/21/21 29/29/29 30/30/30
f 21/21/21 30/30/30 31/31/31
f 21/21/21 31/31/31 22/22/22
f 22/22/22 31/31/31 23/23/23
f 23/23/23 31/31/31 32/32/32
f 23/23/23 32/32/32 33/33/33
f 23/23/23 33/33/33 24/24/24
f 24/24/24 33/33/33 25/25/25
f 25/25/25 33/33/33 34/34/34
f 25/25/25 34/34/34 35/35/35
f 25/25/25 35/35/35 26/26/26
f 26/26/26 35/35/35 27/27/27
f 27/27/27 35/35/35 36/36/36
f 28/28/28 37/37/37 29/29/29
f 29/29/29 37/37/37 38/38/38
f 29/29/29 38/38/38 39/39/39
f 29/29/29 39/39/39 30/30/30
f 30/30/30 39/39/39 31/31/31
f 31/31/31 39/39/39 40/40/40
f 31/31/31 40/40/40 41/41/41
f 31/31/31 41/41/41 32/32/32
f 32/32/32 41/41/41 33/33/33
f 33/33/33 41/41/41 42/42/42
f 33/33/33 42/42/42 43/43/43
f 33/33/33 43/43/43 34/34/34
f 34/34/34 43/43/43 35/35/35
f 35/35/35 43/43/43 44/44/44
f 35/35/35 44/44/44 45/45/45
f 35/35/35 45/45/45 36/36/36
f 37/37/37 46/46/46 47/47/47
f 37/37/37 47/47/47 38/38/38
f 38/38/38 47/47/47 39/39/39
f 39/39/39 47/47/47 48/48/48
f 39/39/39 48/48/48 49/49/49
f 39/39/39 49/49/49 40/40/40
f 40/40/40 49/49/49 41/41/41
f 41/41/41 49/49/49 50/50/50
f 41/41/41 50/50/50 51/51/51
f 41/41/41 51/51/51 42/42/42
f 42/42/42 51/51/51 43/43/43
f 43/43/43 51/51/51 52/52/52
f 43/43/43 52/52/52 53/53/53
f 43/43/43 53/53/53 44/44/44
f 44/44/44 53/53/53 45/45/45
f 45/45/45 53/53/53 54/54/54
f 46/46/46 55/55/55 47/47/47
f 47/47/47 55/55/55 56/56/56
f 47/47/47 56/56/56 57/57/57
f 47/47/47 57/57/57 48/48/48
f 48/48/48 57/57/57 49/49/49
f 49/49/49 57/57/57 58/58/58
f 49/49/49 58/58/58 59/59/59
f 49/49/49 59/59/59 50/50/50
f 50/50/50 59/59/59 51/51/51
f 51/51/51 59/59/59 60/60/60
f 51/51/51 60/60/60 61/61/61
f 51/51/51 61/61/61 52/52/52
f 52/52/52 61/61/61 53/53/53
f 53/53/53 61/61/61 62/62/62
f 53/53/53 62/62/62 63/63/63
f 53/53/53 63/63/63 54/54/54
f 55/55/55 64/64/64 65/65/65
f 55/55/55 65/65/65 56/56/56
f 56/56/56 65/65/65 57/57/57
f 57/57/57 65/65/65 66/66/66
f 57/57/57 66/66/66 67/67/67
f 57/57/57 67/67/67 58/58/58
f 58/58/58 67/67/67 59/59/59
f 59/59/59 67/67/67 68/68/68
f 59/59/59 68/68/68 69/69/69
f 59/59/59 69/69/69 60/60/60
f 60/60/60 69/69/69 61/61/61
f 61/61/61 69/69/69 70/70/70
f 61/61/61 70/70/70 71/71/71
f 61/61/61 71/71/71 62/62/62
f 62/62/62 71/71/71 63/63/63
f 63/63/63 71/71/71 72/72/72
f 64/64/64 73/73/73 65/65/65
f 65/65/65 73/73/73 74/74/74
f 65/65/65 74/74/74 75/75/75
f 65/65/65 75/75/75 66/66/66
f 66/66/66 75/75/75 67/67/67
f 67/67/67 75/75/75 76/76/76
f 67/67/67 76/76/76 77/77/77
f 67/67/67 77/77/77 68/68/68
f 68/68/68 77/77/77 69/69/69
f 69/69/69 77/77/77 78/78/78
f 69/69/69 78/78/78 79/79/79
f 69/69/69 79/79/79 70/70/70
f 70/70/70 79/79/79 71/71/71
f 71/71/71 79/79/79 80/80/80
f 71/71/71 80/80/80 81/81/81
f 71/71/71 81/81/81 72/72/72
