# Generated by tools/generate_island.py. Do not edit by hand.
o terrain_lod0_2_-6

v 260.000 -10.800 -668.000 0.503 0.473 0.277
v 260.000 -10.800 -664.000 0.509 0.479 0.282
v 264.000 -10.758 -664.000 0.504 0.474 0.278
v 264.000 -10.800 -668.000 0.498 0.468 0.274
v 268.000 -10.800 -668.000 0.503 0.473 0.278
v 268.000 -10.800 -664.000 0.502 0.471 0.277
v 256.000 -10.800 -664.000 0.519 0.489 0.288
v 256.000 -10.576 -660.000 0.512 0.482 0.283
v 260.000 -10.620 -660.000 0.509 0.478 0.281
v 264.000 -10.539 -660.000 0.505 0.474 0.278
v 268.000 -10.525 -660.000 0.505 0.474 0.278
v 272.000 -10.800 -664.000 0.501 0.471 0.276
v 272.000 -10.753 -660.000 0.495 0.464 0.272
v 276.000 -10.800 -660.000 0.485 0.454 0.266
v 256.000 -10.157 -656.000 0.526 0.496 0.293
v 260.000 -10.324 -656.000 0.523 0.493 0.290
v 264.000 -10.388 -656.000 0.511 0.480 0.282
v 268.000 -10.384 -656.000 0.500 0.470 0.275
v 272.000 -10.565 -656.000 0.485 0.454 0.266
v 276.000 -10.800 -656.000 0.475 0.444 0.259
v 256.000 -9.904 -652.000 0.538 0.509 0.301
v 260.000 -10.056 -652.000 0.534 0.505 0.298
v 264.000 -10.223 -652.000 0.519 0.490 0.288
v 268.000 -10.358 -652.000 0.503 0.472 0.277
v 272.000 -10.504 -652.000 0.484 0.453 0.265
v 276.000 -10.800 -652.000 0.472 0.441 0.257
v 256.000 -9.682 -648.000 0.540 0.510 0.302
v 260.000 -9.810 -648.000 0.538 0.508 0.300
v 264.000 -10.012 -648.000 0.529 0.499 0.295
v 268.000 -10.259 -648.000 0.503 0.473 0.277
v 272.000 -10.426 -648.000 0.482 0.451 0.263
v 276.000 -10.652 -648.000 0.470 0.438 0.256
v 280.000 -10.800 -648.000 0.462 0.431 0.251
v 256.000 -9.527 -644.000 0.540 0.510 0.302
v 260.000 -9.527 -644.000 0.537 0.507 0.300
v 264.000 -9.728 -644.000 0.525 0.495 0.292
v 268.000 -10.071 -644.000 0.504 0.473 0.278
v 272.000 -10.320 -644.000 0.482 0.450 0.263
v 276.000 -10.524 -644.000 0.466 0.435 0.253
v 280.000 -10.800 -644.000 0.456 0.424 0.247
v 256.000 -9.304 -640.000 0.528 0.498 0.293
v 260.000 -9.244 -640.000 0.524 0.495 0.291
v 264.000 -9.433 -640.000 0.511 0.480 0.282
v 268.000 -9.811 -640.000 0.494 0.463 0.271
v 272.000 -10.182 -640.000 0.472 0.440 0.257
v 276.000 -10.444 -640.000 0.454 0.422 0.245
v 280.000 -10.720 -640.000 0.444 0.411 0.238
v 284.000 -10.800 -644.000 0.456 0.424 0.246
v 284.000 -10.800 -640.000 0.440 0.408 0.236

vt 0.635417 0.847917
vt 0.635417 0.845833
vt 0.637500 0.845833
vt 0.637500 0.847917
vt 0.639583 0.847917
vt 0.639583 0.845833
vt 0.633333 0.845833
vt 0.633333 0.843750
vt 0.635417 0.843750
vt 0.637500 0.843750
vt 0.639583 0.843750
vt 0.641667 0.845833
vt 0.641667 0.843750
vt 0.643750 0.843750
vt 0.633333 0.841667
vt 0.635417 0.841667
vt 0.637500 0.841667
vt 0.639583 0.841667
vt 0.641667 0.841667
vt 0.643750 0.841667
vt 0.633333 0.839583
vt 0.635417 0.839583
vt 0.637500 0.839583
vt 0.639583 0.839583
vt 0.641667 0.839583
vt 0.643750 0.839583
vt 0.633333 0.837500
vt 0.635417 0.837500
vt 0.637500 0.837500
vt 0.639583 0.837500
vt 0.641667 0.837500
vt 0.643750 0.837500
vt 0.645833 0.837500
vt 0.633333 0.835417
vt 0.635417 0.835417
vt 0.637500 0.835417
vt 0.639583 0.835417
vt 0.641667 0.835417
vt 0.643750 0.835417
vt 0.645833 0.835417
vt 0.633333 0.833333
vt 0.635417 0.833333
vt 0.637500 0.833333
vt 0.639583 0.833333
vt 0.641667 0.833333
vt 0.643750 0.833333
vt 0.645833 0.833333
vt 0.647917 0.835417
vt 0.647917 0.833333

vn -0.00528 0.99997 -0.00528
vn -0.00704 0.99953 -0.02994
vn -0.00298 0.99953 -0.03053
vn 0.00000 0.99994 -0.01056
vn 0.00528 0.99997 -0.00528
vn 0.00703 0.99893 -0.04581
vn 0.00552 0.99871 -0.05039
vn 0.01102 0.99672 -0.08016
vn 0.00356 0.99811 -0.06128
vn -0.01192 0.99886 -0.04622
vn 0.02024 0.99879 -0.04486
vn 0.02291 0.99927 -0.03069
vn 0.03436 0.99898 -0.02938
vn 0.02738 0.99943 -0.01960
vn 0.03312 0.99648 -0.07703
vn 0.02879 0.99711 -0.07036
vn 0.01020 0.99904 -0.04257
vn 0.02212 0.99954 -0.02078
vn 0.04832 0.99862 -0.02076
vn 0.05873 0.99827 0.00000
vn 0.03789 0.99753 -0.05917
vn 0.03737 0.99758 -0.05859
vn 0.03777 0.99819 -0.04681
vn 0.03600 0.99907 -0.02386
vn 0.05510 0.99833 -0.01734
vn 0.05997 0.99796 -0.02168
vn 0.02543 0.99808 -0.05651
vn 0.04117 0.99698 -0.06588
vn 0.05437 0.99693 -0.05627
vn 0.05156 0.99802 -0.03592
vn 0.05243 0.99820 -0.02909
vn 0.04670 0.99831 -0.03448
vn 0.04760 0.99860 -0.02300
vn 0.00015 0.99888 -0.04723
vn 0.02685 0.99751 -0.06514
vn 0.06760 0.99510 -0.07214
vn 0.07305 0.99589 -0.05354
vn 0.05652 0.99794 -0.03035
vn 0.05838 0.99803 -0.02309
vn 0.04600 0.99885 -0.01338
vn -0.00739 0.99798 -0.06311
vn 0.01605 0.99737 -0.07061
vn 0.06905 0.99512 -0.07049
vn 0.09313 0.99356 -0.06455
vn 0.06769 0.99697 -0.03828
vn 0.06699 0.99756 -0.01990
vn 0.03949 0.99911 -0.01502
vn 0.01005 0.99990 -0.01005
vn 0.02009 0.99980 0.00000

f 1/1/1 2/2/2 3/3/3
f 1/1/1 3/3/3 4/4/4
f 4/4/4 3/3/3 5/5/5
f 5/5/5 3/3/3 6/6/6
f 7/7/7 8/8/8 9/9/9
f 7/7/7 9/9/9 2/2/2
f 2/2/2 9/9/9 3/3/3
f 3/3/3 9/9/9 10/10/10
f 3/3/3 10/10/10 11/11/11
f 3/3/3 11/11/11 6/6/6
f 6/6/6 11/11/11 12/12/12
f 12/12/12 11/11/11 13/13/13
f 12/12/12 13/13/13 14/14/14
f 8/8/8 15/15/15 9/9/9
f 9/9/9 15/15/15 16/16/16
f 9/9/9 16/16/16 17/17/17
f 9/9/9 17/17/17 10/10/10
f 10/10/10 17/17/17 11/11/11
f 11/11/11 17/17/17 18/18/18
f 11/11/11 18/18/18 19/19/19
f 11/11/11 19/19/19 13/13/13
f 13/13/13 19/19/19 14/14/14
f 14/14/14 19/19/19 20/20/20
f 15/15/15 21/21/21 22/22/22
f 15/15/15 22/22/22 16/16/16
f 16/16/16 22/22/22 17/17/17
f 17/17/17 22/22/22 23/23/23
f 17/17/17 23/23/23 24/24/24
f 17/17/17 24/24/24 18/18/18
f 18/18/18 24/24/24 19/19/19
f 19/19/19 24/24/24 25/25/25
f 19/19/19 25/25/25 26/26/26
f 19/19/19 26/26/26 20/20/20
f 21/21/21 27/27/27 22/22/22
f 22/22/22 27/27/27 28/28/28
f 22/22/22 28/28/28 29/29/29
f 22/22/22 29/29/29 23/23/23
f 23/23/23 29/29/29 24/24/24
f 24/24/24 29/29/29 30/30/30
f 24/24/24 30/30/30 31/31/31
f 24/24/24 31/31/31 25/25/25
f 25/25/25 31/31/31 26/26/26
f 26/26/26 31/31/31 32/32/32
f 26/26/26 32/32/32 33/33/33
f 27/27/27 34/34/34 35/35/35
f 27/27/27 35/35/35 28/28/28
f 28/28/28 35/35/35 29/29/29
f 29/29/29 35/35/35 36/36/36
f 29/29/29 36/36/36 37/37/37
f 29/29/29 37/37/37 30/30/30
f 30/30/30 37/37/37 31/31/31
f 31/31/31 37/37/37 38/38/38
f 31/31/31 38/38/38 39/39/39
f 31/31/31 39/39/39 32/32/32
f 32/32/32 39/39/39 33/33/33
f 33/33/33 39/39/39 40/40/40
f 34/34/34 41/41/41 35/35/35
f 35/35/35 41/41/41 42/42/42
f 35/35/35 42/42/42 43/43/43
f 35/35/35 43/43/43 36/36/36
f 36/36/36 43/43/43 37/37/37
f 37/37/37 43/43/43 44/44/44
f 37/37/37 44/44/44 45/45/45
f 37/37/37 45/45/45 38/38/38
f 38/38/38 45/45/45 39/39/39
f 39/39/39 45/45/45 46/46/46
f 39/39/39 46/46/46 47/47/47
f 39/39/39 47/47/47 40/40/40
f 40/40/40 47/47/47 48/48/48
f 48/48/48 47/47/47 49/49/49
