# Generated by tools/generate_island.py. Do not edit by hand.
o terrain_lod0_-6_3

v -680.000 -10.800 384.000 0.515 0.485 0.285
v -676.000 -10.800 388.000 0.503 0.473 0.277
v -676.000 -10.633 384.000 0.524 0.494 0.291
v -672.000 -10.379 384.000 0.524 0.495 0.291
v -672.000 -10.629 388.000 0.503 0.472 0.277
v -668.000 -10.574 388.000 0.499 0.468 0.275
v -668.000 -10.340 384.000 0.513 0.483 0.284
v -664.000 -10.395 384.000 0.493 0.462 0.270
v -664.000 -10.640 388.000 0.488 0.457 0.267
v -660.000 -10.694 388.000 0.480 0.449 0.263
v -660.000 -10.314 384.000 0.478 0.446 0.261
v -656.000 -10.098 384.000 0.477 0.446 0.261
v -656.000 -10.477 388.000 0.478 0.447 0.261
v -652.000 -10.123 388.000 0.482 0.451 0.263
v -652.000 -9.831 384.000 0.495 0.464 0.272
v -648.000 -9.703 384.000 0.495 0.465 0.272
v -648.000 -9.745 388.000 0.480 0.449 0.262
v -644.000 -9.554 388.000 0.473 0.442 0.258
v -644.000 -9.564 384.000 0.482 0.451 0.263
v -640.000 -9.262 384.000 0.464 0.432 0.252
v -640.000 -9.365 388.000 0.462 0.430 0.250
v -672.000 -10.800 392.000 0.478 0.447 0.261
v -668.000 -10.800 392.000 0.480 0.449 0.262
v -664.000 -10.776 392.000 0.478 0.447 0.261
v -660.000 -10.800 392.000 0.484 0.453 0.265
v -656.000 -10.688 392.000 0.486 0.455 0.266
v -652.000 -10.256 392.000 0.474 0.442 0.258
v -648.000 -9.808 392.000 0.477 0.445 0.260
v -644.000 -9.493 392.000 0.482 0.451 0.264
v -640.000 -9.310 392.000 0.476 0.445 0.260
v -668.000 -10.800 396.000 0.484 0.453 0.265
v -664.000 -10.800 396.000 0.487 0.456 0.267
v -660.000 -10.758 396.000 0.483 0.452 0.264
v -656.000 -10.679 396.000 0.478 0.447 0.261
v -652.000 -10.324 396.000 0.470 0.438 0.256
v -648.000 -9.864 396.000 0.469 0.437 0.255
v -644.000 -9.417 396.000 0.468 0.436 0.254
v -640.000 -9.218 396.000 0.472 0.440 0.257
v -664.000 -10.800 400.000 0.489 0.458 0.268
v -660.000 -10.634 400.000 0.477 0.445 0.260
v -656.000 -10.519 400.000 0.468 0.436 0.254
v -652.000 -10.348 400.000 0.464 0.432 0.251
v -648.000 -9.956 400.000 0.460 0.428 0.249
v -644.000 -9.483 400.000 0.456 0.424 0.246
v -640.000 -9.187 400.000 0.463 0.431 0.251
v -664.000 -10.800 404.000 0.476 0.445 0.259
v -660.000 -10.607 404.000 0.463 0.431 0.251
v -656.000 -10.400 404.000 0.457 0.425 0.247
v -652.000 -10.278 404.000 0.463 0.431 0.251
v -648.000 -10.076 404.000 0.462 0.430 0.250
v -644.000 -9.696 404.000 0.458 0.426 0.247
v -640.000 -9.363 404.000 0.465 0.433 0.252
v -664.000 -10.800 408.000 0.488 0.457 0.267
v -660.000 -10.749 408.000 0.469 0.437 0.255
v -656.000 -10.446 408.000 0.459 0.427 0.248
v -652.000 -10.231 408.000 0.465 0.433 0.252
v -648.000 -10.178 408.000 0.466 0.434 0.253
v -644.000 -9.950 408.000 0.464 0.432 0.251
v -640.000 -9.588 408.000 0.458 0.426 0.248
v -660.000 -10.800 412.000 0.484 0.453 0.265
v -656.000 -10.558 412.000 0.472 0.441 0.257
v -652.000 -10.241 412.000 0.479 0.448 0.261
v -648.000 -10.219 412.000 0.483 0.452 0.264
v -644.000 -10.078 412.000 0.481 0.449 0.263
v -640.000 -9.801 412.000 0.460 0.428 0.249
v -660.000 -10.800 416.000 0.500 0.470 0.276
v -656.000 -10.668 416.000 0.490 0.459 0.269
v -652.000 -10.256 416.000 0.491 0.460 0.269
v -648.000 -10.149 416.000 0.493 0.462 0.270
v -644.000 -10.097 416.000 0.485 0.454 0.266
v -640.000 -9.924 416.000 0.477 0.446 0.260
v -660.000 -10.800 420.000 0.510 0.480 0.282
v -656.000 -10.712 420.000 0.504 0.473 0.278
v -652.000 -10.313 420.000 0.512 0.482 0.283
v -648.000 -10.067 420.000 0.512 0.482 0.283
v -644.000 -10.036 420.000 0.500 0.470 0.276
v -640.000 -9.945 420.000 0.488 0.457 0.268
v -660.000 -10.800 424.000 0.513 0.482 0.284
v -656.000 -10.720 424.000 0.512 0.482 0.283
v -652.000 -10.359 424.000 0.535 0.505 0.298
v -648.000 -10.056 424.000 0.534 0.504 0.297
v -644.000 -10.018 424.000 0.518 0.488 0.287
v -640.000 -10.089 424.000 0.499 0.468 0.275
v -660.000 -10.800 428.000 0.534 0.504 0.298
v -656.000 -10.748 428.000 0.533 0.504 0.297
v -652.000 -10.556 428.000 0.534 0.504 0.298
v -648.000 -10.303 428.000 0.534 0.505 0.298
v -644.000 -10.188 428.000 0.522 0.492 0.290
v -640.000 -10.280 428.000 0.488 0.458 0.268
v -656.000 -10.800 432.000 0.540 0.511 0.302
v -652.000 -10.800 432.000 0.534 0.505 0.298
v -648.000 -10.664 432.000 0.533 0.504 0.297
v -644.000 -10.479 432.000 0.521 0.491 0.289
v -640.000 -10.493 432.000 0.487 0.456 0.267
v -652.000 -10.800 436.000 0.533 0.504 0.297
v -648.000 -10.800 436.000 0.526 0.497 0.293
v -644.000 -10.740 436.000 0.510 0.480 0.282
v -640.000 -10.594 436.000 0.489 0.458 0.268
v -648.000 -10.800 440.000 0.532 0.503 0.297
v -644.000 -10.800 440.000 0.510 0.480 0.282
v -640.000 -10.717 440.000 0.491 0.461 0.270
v -644.000 -10.800 444.000 0.514 0.484 0.284
v -640.000 -10.800 444.000 0.495 0.465 0.272

vt 0.145833 0.300000
vt 0.147917 0.297917
vt 0.147917 0.300000
vt 0.150000 0.300000
vt 0.150000 0.297917
vt 0.152083 0.297917
vt 0.152083 0.300000
vt 0.154167 0.300000
vt 0.154167 0.297917
vt 0.156250 0.297917
vt 0.156250 0.300000
vt 0.158333 0.300000
vt 0.158333 0.297917
vt 0.160417 0.297917
vt 0.160417 0.300000
vt 0.162500 0.300000
vt 0.162500 0.297917
vt 0.164583 0.297917
vt 0.164583 0.300000
vt 0.166667 0.300000
vt 0.166667 0.297917
vt 0.150000 0.295833
vt 0.152083 0.295833
vt 0.154167 0.295833
vt 0.156250 0.295833
vt 0.158333 0.295833
vt 0.160417 0.295833
vt 0.162500 0.295833
vt 0.164583 0.295833
vt 0.166667 0.295833
vt 0.152083 0.293750
vt 0.154167 0.293750
vt 0.156250 0.293750
vt 0.158333 0.293750
vt 0.160417 0.293750
vt 0.162500 0.293750
vt 0.164583 0.293750
vt 0.166667 0.293750
vt 0.154167 0.291667
vt 0.156250 0.291667
vt 0.158333 0.291667
vt 0.160417 0.291667
vt 0.162500 0.291667
vt 0.164583 0.291667
vt 0.166667 0.291667
vt 0.154167 0.289583
vt 0.156250 0.289583
vt 0.158333 0.289583
vt 0.160417 0.289583
vt 0.162500 0.289583
vt 0.164583 0.289583
vt 0.166667 0.289583
vt 0.154167 0.287500
vt 0.156250 0.287500
vt 0.158333 0.287500
vt 0.160417 0.287500
vt 0.162500 0.287500
vt 0.164583 0.287500
vt 0.166667 0.287500
vt 0.156250 0.285417
vt 0.158333 0.285417
vt 0.160417 0.285417
vt 0.162500 0.285417
vt 0.164583 0.285417
vt 0.166667 0.285417
vt 0.156250 0.283333
vt 0.158333 0.283333
vt 0.160417 0.283333
vt 0.162500 0.283333
vt 0.164583 0.283333
vt 0.166667 0.283333
vt 0.156250 0.281250
vt 0.158333 0.281250
vt 0.160417 0.281250
vt 0.162500 0.281250
vt 0.164583 0.281250
vt 0.166667 0.281250
vt 0.156250 0.279167
vt 0.158333 0.279167
vt 0.160417 0.279167
vt 0.162500 0.279167
vt 0.164583 0.279167
vt 0.166667 0.279167
vt 0.156250 0.277083
vt 0.158333 0.277083
vt 0.160417 0.277083
vt 0.162500 0.277083
vt 0.164583 0.277083
vt 0.166667 0.277083
vt 0.158333 0.275000
vt 0.160417 0.275000
vt 0.162500 0.275000
vt 0.164583 0.275000
vt 0.166667 0.275000
vt 0.160417 0.272917
vt 0.162500 0.272917
vt 0.164583 0.272917
vt 0.166667 0.272917
vt 0.162500 0.270833
vt 0.164583 0.270833
vt 0.166667 0.270833
vt 0.164583 0.268750
vt 0.166667 0.268750

vn -0.04178 0.99825 0.04178
vn -0.04756 0.99776 0.04714
vn -0.05251 0.99775 0.04176
vn -0.03231 0.99789 0.05624
vn -0.02817 0.99822 0.05254
vn 0.00040 0.99856 0.05373
vn 0.00195 0.99829 0.05836
vn 0.00580 0.99761 0.06887
vn 0.01495 0.99875 0.04762
vn -0.02211 0.99792 0.06062
vn -0.03685 0.99483 0.09459
vn -0.06549 0.99389 0.08887
vn -0.07104 0.99477 0.07334
vn -0.08524 0.99520 0.04807
vn -0.04923 0.99614 0.07272
vn -0.05211 0.99838 0.02280
vn -0.07089 0.99740 0.01313
vn -0.05298 0.99860 0.00034
vn -0.05508 0.99848 -0.00253
vn -0.06131 0.99805 0.01168
vn -0.04714 0.99887 0.00608
vn -0.01879 0.99871 0.04723
vn -0.00399 0.99928 0.03760
vn 0.00243 0.99982 0.01906
vn -0.01099 0.99991 0.00799
vn -0.06525 0.99765 0.02085
vn -0.10930 0.99369 0.02504
vn -0.09340 0.99558 0.00944
vn -0.06211 0.99792 -0.01705
vn -0.04700 0.99874 -0.01773
vn -0.00300 0.99999 0.00300
vn -0.00701 0.99997 0.00400
vn -0.01908 0.99971 -0.01492
vn -0.05411 0.99831 -0.02109
vn -0.09561 0.99541 0.00508
vn -0.11262 0.99347 0.01836
vn -0.07970 0.99682 0.00016
vn -0.04976 0.99864 -0.01537
vn -0.03547 0.99933 -0.00944
vn -0.03508 0.99921 -0.01888
vn -0.04161 0.99886 -0.02359
vn -0.07021 0.99752 -0.00572
vn -0.10009 0.99477 0.02042
vn -0.09562 0.99482 0.03464
vn -0.07007 0.99719 0.02638
vn -0.04826 0.99883 0.00000
vn -0.04482 0.99898 0.00489
vn -0.04100 0.99912 -0.00917
vn -0.04615 0.99893 -0.00265
vn -0.07259 0.99698 0.02765
vn -0.08660 0.99507 0.04840
vn -0.08291 0.99531 0.04993
vn -0.02463 0.99957 0.01610
vn -0.04423 0.99873 0.02413
vn -0.05994 0.99809 0.01474
vn -0.03346 0.99943 -0.00464
vn -0.04089 0.99897 0.01966
vn -0.07340 0.99617 0.04751
vn -0.08288 0.99525 0.05098
vn -0.04845 0.99869 0.01622
vn -0.06964 0.99719 0.02773
vn -0.04575 0.99892 0.00760
vn -0.02047 0.99978 -0.00360
vn -0.05150 0.99850 0.01874
vn -0.06896 0.99674 0.04177
vn -0.03295 0.99946 0.00000
vn -0.06651 0.99772 0.01184
vn -0.06475 0.99786 0.00893
vn -0.02374 0.99968 -0.00857
vn -0.02816 0.99959 -0.00519
vn -0.04457 0.99899 0.00642
vn -0.02420 0.99970 0.00327
vn -0.06077 0.99813 0.00653
vn -0.07710 0.99701 0.00511
vn -0.03460 0.99933 -0.01160
vn -0.01360 0.99990 -0.00263
vn -0.02272 0.99953 0.02069
vn -0.01989 0.99980 0.00000
vn -0.05036 0.99868 0.00984
vn -0.08272 0.99611 0.03026
vn -0.04139 0.99878 0.02709
vn 0.00414 0.99981 0.01898
vn 0.00897 0.99950 0.03043
vn -0.01525 0.99986 0.00663
vn -0.03049 0.99949 0.00994
vn -0.05269 0.99741 0.04894
vn -0.04584 0.99608 0.07571
vn -0.00572 0.99816 0.06031
vn 0.02308 0.99846 0.05042
vn -0.02032 0.99937 0.02894
vn -0.02261 0.99892 0.04063
vn -0.03336 0.99788 0.05584
vn -0.02131 0.99740 0.06889
vn -0.00156 0.99853 0.05409
vn -0.01697 0.99971 0.01697
vn -0.00993 0.99969 0.02263
vn -0.02078 0.99930 0.03127
vn -0.03647 0.99895 0.02789
vn -0.00745 0.99994 0.00745
vn -0.01389 0.99985 0.00993
vn -0.01954 0.99967 0.01657
vn -0.01042 0.99989 0.01042
vn 0.00000 0.99978 0.02083

f 1/1/1 2/2/2 3/3/3
f 3/3/3 2/2/2 4/4/4
f 4/4/4 2/2/2 5/5/5
f 4/4/4 5/5/5 6/6/6
f 4/4/4 6/6/6 7/7/7
f 7/7/7 6/6/6 8/8/8
f 8/8/8 6/6/6 9/9/9
f 8/8/8 9/9/9 10/10/10
f 8/8/8 10/10/10 11/11/11
f 11/11/11 10/10/10 12/12/12
f 12/12/12 10/10/10 13/13/13
f 12/12/12 13/13/13 14/14/14
f 12/12/12 14/14/14 15/15/15
f 15/15/15 14/14/14 16/16/16
f 16/16/16 14/14/14 17/17/17
f 16/16/16 17/17/17 18/18/18
f 16/16/16 18/18/18 19/19/19
f 19/19/19 18/18/18 20/20/20
f 20/20/20 18/18/18 21/21/21
f 2/2/2 22/22/22 5/5/5
f 5/5/5 22/22/22 6/6/6
f 6/6/6 22/22/22 23/23/23
f 6/6/6 23/23/23 24/24/24
f 6/6/6 24/24/24 9/9/9
f 9/9/9 24/24/24 10/10/10
f 10/10/10 24/24/24 25/25/25
f 10/10/10 25/25/25 26/26/26
f 10/10/10 26/26/26 13/13/13
f 13/13/13 26/26/26 14/14/14
f 14/14/14 26/26/26 27/27/27
f 14/14/14 27/27/27 28/28/28
f 14/14/14 28/28/28 17/17/17
f 17/17/17 28/28/28 18/18/18
f 18/18/18 28/28/28 29/29/29
f 18/18/18 29/29/29 30/30/30
f 18/18/18 30/30/30 21/21/21
f 23/23/23 31/31/31 24/24/24
f 24/24/24 31/31/31 32/32/32
f 24/24/24 32/32/32 33/33/33
f 24/24/24 33/33/33 25/25/25
f 25/25/25 33/33/33 26/26/26
f 26/26/26 33/33/33 34/34/34
f 26/26/26 34/34/34 35/35/35
f 26/26/26 35/35/35 27/27/27
f 27/27/27 35/35/35 28/28/28
f 28/28/28 35/35/35 36/36/36
f 28/28/28 36/36/36 37/37/37
f 28/28/28 37/37/37 29/29/29
f 29/29/29 37/37/37 30/30/30
f 30/30/30 37/37/37 38/38/38
f 32/32/32 39/39/39 33/33/33
f 33/33/33 39/39/39 40/40/40
f 33/33/33 40/40/40 41/41/41
f 33/33/33 41/41/41 34/34/34
f 34/34/34 41/41/41 35/35/35
f 35/35/35 41/41/41 42/42/42
f 35/35/35 42/42/42 43/43/43
f 35/35/35 43/43/43 36/36/36
f 36/36/36 43/43/43 37/37/37
f 37/37/37 43/43/43 44/44/44
f 37/37/37 44/44/44 45/45/45
f 37/37/37 45/45/45 38/38/38
f 39/39/39 46/46/46 47/47/47
f 39/39/39 47/47/47 40/40/40
f 40/40/40 47/47/47 41/41/41
f 41/41/41 47/47/47 48/48/48
f 41/41/41 48/48/48 49/49/49
f 41/41/41 49/49/49 42/42/42
f 42/42/42 49/49/49 43/43/43
f 43/43/43 49/49/49 50/50/50
f 43/43/43 50/50/50 51/51/51
f 43/43/43 51/51/51 44/44/44
f 44/44/44 51/51/51 45/45/45
f 45/45/45 51/51/51 52/52/52
f 46/46/46 53/53/53 47/47/47
f 47/47/47 53/53/53 54/54/54
f 47/47/47 54/54/54 55/55/55
f 47/47/47 55/55/55 48/48/48
f 48/48/48 55/55/55 49/49/49
f 49/49/49 55/55/55 56/56/56
f 49/49/49 56/56/56 57/57/57
f 49/49/49 57/57/57 50/50/50
f 50/50/50 57/57/57 51/51/51
f 51/51/51 57/57/57 58/58/58
f 51/51/51 58/58/58 59/59/59
f 51/51/51 59/59/59 52/52/52
f 53/53/53 60/60/60 54/54/54
f 54/54/54 60/60/60 55/55/55
f 55/55/55 60/60/60 61/61/61
f 55/55/55 61/61/61 62/62/62
f 55/55/55 62/62/62 56/56/56
f 56/56/56 62/62/62 57/57/57
f 57/57/57 62/62/62 63/63/63
f 57/57/57 63/63/63 64/64/64
f 57/57/57 64/64/64 58/58/58
f 58/58/58 64/64/64 59/59/59
f 59/59/59 64/64/64 65/65/65
f 60/60/60 66/66/66 67/67/67
f 60/60/60 67/67/67 61/61/61
f 61/61/61 67/67/67 62/62/62
f 62/62/62 67/67/67 68/68/68
f 62/62/62 68/68/68 69/69/69
f 62/62/62 69/69/69 63/63/63
f 63/63/63 69/69/69 64/64/64
f 64/64/64 69/69/69 70/70/70
f 64/64/64 70/70/70 71/71/71
f 64/64/64 71/71/71 65/65/65
f 66/66/66 72/72/72 67/67/67
f 67/67/67 72/72/72 73/73/73
f 67/67/67 73/73/73 74/74/74
f 67/67/67 74/74/74 68/68/68
f 68/68/68 74/74/74 69/69/69
f 69/69/69 74/74/74 75/75/75
f 69/69/69 75/75/75 76/76/76
f 69/69/69 76/76/76 70/70/70
f 70/70/70 76/76/76 71/71/71
f 71/71/71 76/76/76 77/77/77
f 72/72/72 78/78/78 79/79/79
f 72/72/72 79/79/79 73/73/73
f 73/73/73 79/79/79 74/74/74
f 74/74/74 79/79/79 80/80/80
f 74/74/74 80/80/80 81/81/81
f 74/74/74 81/81/81 75/75/75
f 75/75/75 81/81/81 76/76/76
f 76/76/76 81/81/81 82/82/82
f 76/76/76 82/82/82 83/83/83
f 76/76/76 83/83/83 77/77/77
f 78/78/78 84/84/84 79/79/79
f 79/79/79 84/84/84 85/85/85
f 79/79/79 85/85/85 86/86/86
f 79/79/79 86/86/86 80/80/80
f 80/80/80 86/86/86 81/81/81
f 81/81/81 86/86/86 87/87/87
f 81/81/81 87/87/87 88/88/88
f 81/81/81 88/88/88 82/82/82
f 82/82/82 88/88/88 83/83/83
f 83/83/83 88/88/88 89/89/89
f 84/84/84 90/90/90 85/85/85
f 85/85/85 90/90/90 86/86/86
f 86/86/86 90/90/90 91/91/91
f 86/86/86 91/91/91 92/92/92
f 86/86/86 92/92/92 87/87/87
f 87/87/87 92/92/92 88/88/88
f 88/88/88 92/92/92 93/93/93
f 88/88/88 93/93/93 94/94/94
f 88/88/88 94/94/94 89/89/89
f 91/91/91 95/95/95 92/92/92
f 92/92/92 95/95/95 96/96/96
f 92/92/92 96/96/96 97/97/97
f 92/92/92 97/97/97 93/93/93
f 93/93/93 97/97/97 94/94/94
f 94/94/94 97/97/97 98/98/98
f 96/96/96 99/99/99 97/97/97
f 97/97/97 99/99/99 100/100/100
f 97/97/97 100/100/100 101/101/101
f 97/97/97 101/101/101 98/98/98
f 100/100/100 102/102/102 101/101/101
f 101/101/101 102/102/102 103/103/103
