# Generated by tools/generate_island.py. Do not edit by hand.
o terrain_lod1_-4_3

v -240.000 -8.000 192.000 0.580 0.552 0.328
v -240.000 -8.000 196.000 0.560 0.532 0.315
v -236.000 -8.000 196.000 0.563 0.534 0.317
v -236.000 -8.000 192.000 0.584 0.556 0.331
v -232.000 -8.000 192.000 0.585 0.557 0.331
v -232.000 -8.000 196.000 0.573 0.545 0.323
v -228.000 -8.000 196.000 0.577 0.548 0.326
v -228.000 -8.000 192.000 0.585 0.557 0.331
v -224.000 -8.000 192.000 0.577 0.549 0.326
v -224.000 -8.000 196.000 0.575 0.547 0.325
v -220.000 -8.000 196.000 0.554 0.525 0.311
v -220.000 -8.000 192.000 0.547 0.518 0.306
v -216.000 -8.000 192.000 0.522 0.492 0.290
v -216.000 -8.000 196.000 0.534 0.504 0.298
v -212.000 -8.000 196.000 0.512 0.481 0.283
v -212.000 -8.000 192.000 0.498 0.467 0.274
v -208.000 -8.000 192.000 0.476 0.445 0.260
v -208.000 -8.000 196.000 0.490 0.459 0.269
v -204.000 -8.000 196.000 0.470 0.439 0.256
v -204.000 -8.000 192.000 0.458 0.426 0.248
v -200.000 -8.000 192.000 0.452 0.420 0.244
v -200.000 -8.000 196.000 0.456 0.424 0.246
v -196.000 -8.000 196.000 0.446 0.414 0.240
v -196.000 -8.000 192.000 0.437 0.405 0.234
v -192.000 -8.000 192.000 0.433 0.401 0.231
v -192.000 -8.000 196.000 0.443 0.411 0.238
v -240.000 -8.000 200.000 0.543 0.513 0.303
v -236.000 -8.000 200.000 0.546 0.517 0.305
v -232.000 -8.000 200.000 0.560 0.531 0.315
v -228.000 -8.000 200.000 0.563 0.534 0.317
v -224.000 -8.000 200.000 0.561 0.533 0.316
v -220.000 -8.000 200.000 0.548 0.519 0.307
v -216.000 -8.000 200.000 0.532 0.503 0.297
v -212.000 -8.000 200.000 0.515 0.485 0.285
v -208.000 -8.000 200.000 0.493 0.462 0.271
v -204.000 -8.000 200.000 0.475 0.444 0.259
v -200.000 -8.000 200.000 0.461 0.429 0.250
v -196.000 -8.000 200.000 0.455 0.423 0.246
v -192.000 -8.000 200.000 0.453 0.421 0.245
v -240.000 -8.000 204.000 0.527 0.497 0.293
v -236.000 -8.000 204.000 0.536 0.506 0.299
v -232.000 -8.000 204.000 0.550 0.521 0.308
v -228.000 -8.000 204.000 0.541 0.512 0.303
v -224.000 -8.000 204.000 0.529 0.499 0.294
v -220.000 -8.000 204.000 0.527 0.497 0.293
v -216.000 -8.000 204.000 0.518 0.488 0.287
v -212.000 -8.000 204.000 0.508 0.478 0.281
v -208.000 -8.000 204.000 0.479 0.448 0.262
v -204.000 -8.000 204.000 0.464 0.432 0.252
v -200.000 -8.000 204.000 0.459 0.428 0.249
v -196.000 -8.000 204.000 0.456 0.424 0.246
v -192.000 -8.000 204.000 0.456 0.424 0.246
v -240.000 -8.000 208.000 0.516 0.486 0.286
v -236.000 -8.000 208.000 0.521 0.491 0.289
v -232.000 -8.000 208.000 0.532 0.502 0.296
v -228.000 -8.000 208.000 0.526 0.496 0.292
v -224.000 -8.000 208.000 0.514 0.484 0.284
v -220.000 -8.000 208.000 0.509 0.479 0.282
v -216.000 -8.000 208.000 0.500 0.469 0.275
v -212.000 -8.000 208.000 0.490 0.459 0.269
v -208.000 -8.000 208.000 0.476 0.445 0.259
v -204.000 -8.000 208.000 0.465 0.434 0.253
v -200.000 -8.000 208.000 0.459 0.428 0.249
v -196.000 -8.000 208.000 0.457 0.425 0.247
v -192.000 -8.000 208.000 0.457 0.425 0.247
v -240.000 -8.000 212.000 0.505 0.475 0.279
v -236.000 -8.000 212.000 0.508 0.478 0.281
v -232.000 -8.000 212.000 0.515 0.485 0.286
v -228.000 -8.000 212.000 0.513 0.483 0.284
v -224.000 -8.000 212.000 0.504 0.473 0.278
v -220.000 -8.000 212.000 0.498 0.467 0.274
v -216.000 -8.000 212.000 0.489 0.458 0.268
v -212.000 -8.000 212.000 0.480 0.449 0.263
v -208.000 -8.000 212.000 0.476 0.445 0.260
v -204.000 -8.000 212.000 0.470 0.438 0.255
v -200.000 -8.000 212.000 0.465 0.433 0.252
v -196.000 -8.000 212.000 0.462 0.430 0.250
v -192.000 -8.000 212.000 0.462 0.431 0.251
v -240.000 -8.000 216.000 0.502 0.471 0.277
v -236.000 -8.000 216.000 0.506 0.475 0.279
v -232.000 -8.000 216.000 0.505 0.475 0.279
v -228.000 -8.000 216.000 0.507 0.477 0.280
v -224.000 -8.000 216.000 0.503 0.472 0.277
v -220.000 -8.000 216.000 0.489 0.459 0.268
v -216.000 -8.000 216.000 0.488 0.457 0.267
v -212.000 -8.000 216.000 0.490 0.459 0.269
v -208.000 -8.000 216.000 0.485 0.453 0.265
v -204.000 -8.000 216.000 0.483 0.452 0.264
v -200.000 -8.000 216.000 0.490 0.459 0.269
v -196.000 -8.000 216.000 0.487 0.456 0.267
v -192.000 -8.000 216.000 0.485 0.454 0.265
v -240.000 -8.000 220.000 0.502 0.472 0.277
v -236.000 -8.000 220.000 0.515 0.485 0.285
v -232.000 -8.000 220.000 0.515 0.485 0.285
v -228.000 -8.000 220.000 0.519 0.489 0.288
v -224.000 -8.000 220.000 0.519 0.489 0.288
v -220.000 -8.000 220.000 0.506 0.476 0.279
v -216.000 -8.000 220.000 0.501 0.471 0.276
v -212.000 -8.000 220.000 0.495 0.464 0.272
v -208.000 -8.000 220.000 0.489 0.458 0.268
v -204.000 -8.000 220.000 0.491 0.460 0.269
v -200.000 -8.000 220.000 0.503 0.473 0.277
v -196.000 -8.000 220.000 0.504 0.474 0.278
v -192.000 -8.000 220.000 0.503 0.472 0.277
v -240.000 -8.000 224.000 0.503 0.472 0.277
v -236.000 -8.000 224.000 0.523 0.493 0.291
v -232.000 -8.000 224.000 0.524 0.494 0.291
v -228.000 -8.000 224.000 0.530 0.500 0.295
v -224.000 -8.000 224.000 0.532 0.502 0.296
v -220.000 -8.000 224.000 0.519 0.489 0.288
v -216.000 -8.000 224.000 0.511 0.481 0.283
v -212.000 -8.000 224.000 0.499 0.468 0.275
v -208.000 -8.000 224.000 0.494 0.463 0.271
v -204.000 -8.000 224.000 0.497 0.466 0.273
v -200.000 -8.000 224.000 0.512 0.482 0.283
v -196.000 -8.000 224.000 0.514 0.484 0.285
v -192.000 -8.000 224.000 0.514 0.484 0.284
v -240.000 -8.000 228.000 0.497 0.467 0.274
v -236.000 -8.000 228.000 0.516 0.486 0.286
v -232.000 -8.000 228.000 0.513 0.483 0.284
v -228.000 -8.000 228.000 0.524 0.494 0.291
v -224.000 -8.000 228.000 0.530 0.501 0.295
v -220.000 -8.000 228.000 0.519 0.489 0.288
v -216.000 -8.000 228.000 0.515 0.485 0.285
v -212.000 -8.000 228.000 0.507 0.477 0.280
v -208.000 -8.000 228.000 0.485 0.454 0.266
v -204.000 -8.000 228.000 0.487 0.456 0.267
v -200.000 -8.000 228.000 0.509 0.478 0.281
v -196.000 -8.000 228.000 0.524 0.494 0.291
v -192.000 -8.000 228.000 0.528 0.498 0.294
v -240.000 -8.000 232.000 0.496 0.465 0.273
v -236.000 -8.000 232.000 0.510 0.480 0.282
v -232.000 -8.000 232.000 0.508 0.478 0.281
v -228.000 -8.000 232.000 0.518 0.488 0.287
v -224.000 -8.000 232.000 0.525 0.495 0.292
v -220.000 -8.000 232.000 0.523 0.493 0.290
v -216.000 -8.000 232.000 0.516 0.486 0.286
v -212.000 -8.000 232.000 0.502 0.472 0.277
v -208.000 -8.000 232.000 0.481 0.450 0.263
v -204.000 -8.000 232.000 0.485 0.454 0.265
v -200.000 -8.000 232.000 0.510 0.479 0.282
v -196.000 -8.000 232.000 0.530 0.501 0.295
v -192.000 -8.000 232.000 0.536 0.506 0.299
v -240.000 -8.000 236.000 0.496 0.465 0.273
v -236.000 -8.000 236.000 0.504 0.473 0.278
v -232.000 -8.000 236.000 0.505 0.475 0.279
v -228.000 -8.000 236.000 0.511 0.481 0.283
v -224.000 -8.000 236.000 0.516 0.485 0.286
v -220.000 -8.000 236.000 0.528 0.498 0.294
v -216.000 -8.000 236.000 0.516 0.486 0.286
v -212.000 -8.000 236.000 0.491 0.460 0.269
v -208.000 -8.000 236.000 0.479 0.448 0.261
v -204.000 -8.000 236.000 0.485 0.454 0.265
v -200.000 -8.000 236.000 0.511 0.480 0.282
v -196.000 -8.000 236.000 0.534 0.505 0.298
v -192.000 -8.000 236.000 0.539 0.510 0.301
v -240.000 -8.000 240.000 0.481 0.450 0.263
v -236.000 -8.000 240.000 0.492 0.461 0.270
v -232.000 -8.000 240.000 0.511 0.481 0.283
v -228.000 -8.000 240.000 0.510 0.480 0.282
v -224.000 -8.000 240.000 0.509 0.478 0.281
v -220.000 -8.000 240.000 0.526 0.496 0.292
v -216.000 -8.000 240.000 0.519 0.489 0.288
v -212.000 -8.000 240.000 0.499 0.468 0.275
v -208.000 -8.000 240.000 0.477 0.445 0.260
v -204.000 -8.000 240.000 0.481 0.450 0.263
v -200.000 -8.000 240.000 0.510 0.479 0.282
v -196.000 -8.000 240.000 0.518 0.488 0.288
v -192.000 -8.000 240.000 0.520 0.490 0.289

vt 0.000000 0.100000
vt 0.000000 0.091667
vt 0.008333 0.091667
vt 0.008333 0.100000
vt 0.016667 0.100000
vt 0.016667 0.091667
vt 0.025000 0.091667
vt 0.025000 0.100000
vt 0.033333 0.100000
vt 0.033333 0.091667
vt 0.041667 0.091667
vt 0.041667 0.100000
vt 0.050000 0.100000
vt 0.050000 0.091667
vt 0.058333 0.091667
vt 0.058333 0.100000
vt 0.066667 0.100000
vt 0.066667 0.091667
vt 0.075000 0.091667
vt 0.075000 0.100000
vt 0.083333 0.100000
vt 0.083333 0.091667
vt 0.091667 0.091667
vt 0.091667 0.100000
vt 0.100000 0.100000
vt 0.100000 0.091667
vt 0.000000 0.083333
vt 0.008333 0.083333
vt 0.016667 0.083333
vt 0.025000 0.083333
vt 0.033333 0.083333
vt 0.041667 0.083333
vt 0.050000 0.083333
vt 0.058333 0.083333
vt 0.066667 0.083333
vt 0.075000 0.083333
vt 0.083333 0.083333
vt 0.091667 0.083333
vt 0.100000 0.083333
vt 0.000000 0.075000
vt 0.008333 0.075000
vt 0.016667 0.075000
vt 0.025000 0.075000
vt 0.033333 0.075000
vt 0.041667 0.075000
vt 0.050000 0.075000
vt 0.058333 0.075000
vt 0.066667 0.075000
vt 0.075000 0.075000
vt 0.083333 0.075000
vt 0.091667 0.075000
vt 0.100000 0.075000
vt 0.000000 0.066667
vt 0.008333 0.066667
vt 0.016667 0.066667
vt 0.025000 0.066667
vt 0.033333 0.066667
vt 0.041667 0.066667
vt 0.050000 0.066667
vt 0.058333 0.066667
vt 0.066667 0.066667
vt 0.075000 0.066667
vt 0.083333 0.066667
vt 0.091667 0.066667
vt 0.100000 0.066667
vt 0.000000 0.058333
vt 0.008333 0.058333
vt 0.016667 0.058333
vt 0.025000 0.058333
vt 0.033333 0.058333
vt 0.041667 0.058333
vt 0.050000 0.058333
vt 0.058333 0.058333
vt 0.066667 0.058333
vt 0.075000 0.058333
vt 0.083333 0.058333
vt 0.091667 0.058333
vt 0.100000 0.058333
vt 0.000000 0.050000
vt 0.008333 0.050000
vt 0.016667 0.050000
vt 0.025000 0.050000
vt 0.033333 0.050000
vt 0.041667 0.050000
vt 0.050000 0.050000
vt 0.058333 0.050000
vt 0.066667 0.050000
vt 0.075000 0.050000
vt 0.083333 0.050000
vt 0.091667 0.050000
vt 0.100000 0.050000
vt 0.000000 0.041667
vt 0.008333 0.041667
vt 0.016667 0.041667
vt 0.025000 0.041667
vt 0.033333 0.041667
vt 0.041667 0.041667
vt 0.050000 0.041667
vt 0.058333 0.041667
vt 0.066667 0.041667
vt 0.075000 0.041667
vt 0.083333 0.041667
vt 0.091667 0.041667
vt 0.100000 0.041667
vt 0.000000 0.033333
vt 0.008333 0.033333
vt 0.016667 0.033333
vt 0.025000 0.033333
vt 0.033333 0.033333
vt 0.041667 0.033333
vt 0.050000 0.033333
vt 0.058333 0.033333
vt 0.066667 0.033333
vt 0.075000 0.033333
vt 0.083333 0.033333
vt 0.091667 0.033333
vt 0.100000 0.033333
vt 0.000000 0.025000
vt 0.008333 0.025000
vt 0.016667 0.025000
vt 0.025000 0.025000
vt 0.033333 0.025000
vt 0.041667 0.025000
vt 0.050000 0.025000
vt 0.058333 0.025000
vt 0.066667 0.025000
vt 0.075000 0.025000
vt 0.083333 0.025000
vt 0.091667 0.025000
vt 0.100000 0.025000
vt 0.000000 0.016667
vt 0.008333 0.016667
vt 0.016667 0.016667
vt 0.025000 0.016667
vt 0.033333 0.016667
vt 0.041667 0.016667
vt 0.050000 0.016667
vt 0.058333 0.016667
vt 0.066667 0.016667
vt 0.075000 0.016667
vt 0.083333 0.016667
vt 0.091667 0.016667
vt 0.100000 0.016667
vt 0.000000 0.008333
vt 0.008333 0.008333
vt 0.016667 0.008333
vt 0.025000 0.008333
vt 0.033333 0.008333
vt 0.041667 0.008333
vt 0.050000 0.008333
vt 0.058333 0.008333
vt 0.066667 0.008333
vt 0.075000 0.008333
vt 0.083333 0.008333
vt 0.091667 0.008333
vt 0.100000 0.008333
vt 0.000000 0.000000
vt 0.008333 0.000000
vt 0.016667 0.000000
vt 0.025000 0.000000
vt 0.033333 0.000000
vt 0.041667 0.000000
vt 0.050000 0.000000
vt 0.058333 0.000000
vt 0.066667 0.000000
vt 0.075000 0.000000
vt 0.083333 0.000000
vt 0.091667 0.000000
vt 0.100000 0.000000

vn 0.00000 1.00000 0.00000
vn 0.00000 1.00000 0.00000
vn 0.00000 1.00000 0.00000
vn 0.00000 1.00000 0.00000
vn 0.00000 1.00000 0.00000
vn 0.00000 1.00000 0.00000
vn 0.00000 1.00000 0.00000
vn 0.00000 1.00000 0.00000
vn 0.00000 1.00000 0.00000
vn 0.00000 1.00000 0.00000
vn 0.00000 1.00000 0.00000
vn 0.00000 1.00000 0.00000
vn 0.00000 1.00000 0.00000
vn 0.00000 1.00000 0.00000
vn 0.00000 1.00000 0.00000
vn 0.00000 1.00000 0.00000
vn 0.00000 1.00000 0.00000
vn 0.00000 1.00000 0.00000
vn 0.00000 1.00000 0.00000
vn 0.00000 1.00000 0.00000
vn 0.00000 1.00000 0.00000
vn 0.00000 1.00000 0.00000
vn 0.00000 1.00000 0.00000
vn 0.00000 1.00000 0.00000
vn 0.00000 1.00000 0.00000
vn 0.00000 1.00000 0.00000
vn 0.00000 1.00000 0.00000
vn 0.00000 1.00000 0.00000
vn 0.00000 1.00000 0.00000
vn 0.00000 1.00000 0.00000
vn 0.00000 1.00000 0.00000
vn 0.00000 1.00000 0.00000
vn 0.00000 1.00000 0.00000
vn 0.00000 1.00000 0.00000
vn 0.00000 1.00000 0.00000
vn 0.00000 1.00000 0.00000
vn 0.00000 1.00000 0.00000
vn 0.00000 1.00000 0.00000
vn 0.00000 1.00000 0.00000
vn 0.00000 1.00000 0.00000
vn 0.00000 1.00000 0.00000
vn 0.00000 1.00000 0.00000
vn 0.00000 1.00000 0.00000
vn 0.00000 1.00000 0.00000
vn 0.00000 1.00000 0.00000
vn 0.00000 1.00000 0.00000
vn 0.00000 1.00000 0.00000
vn 0.00000 1.00000 0.00000
vn 0.00000 1.00000 0.00000
vn 0.00000 1.00000 0.00000
vn 0.00000 1.00000 0.00000
vn 0.00000 1.00000 0.00000
vn 0.00000 1.00000 0.00000
vn 0.00000 1.00000 0.00000
vn 0.00000 1.00000 0.00000
vn 0.00000 1.00000 0.00000
vn 0.00000 1.00000 0.00000
vn 0.00000 1.00000 0.00000
vn 0.00000 1.00000 0.00000
vn 0.00000 1.00000 0.00000
vn 0.00000 1.00000 0.00000
vn 0.00000 1.00000 0.00000
vn 0.00000 1.00000 0.00000
vn 0.00000 1.00000 0.00000
vn 0.00000 1.00000 0.00000
vn 0.00000 1.00000 0.00000
vn 0.00000 1.00000 0.00000
vn 0.00000 1.00000 0.00000
vn 0.00000 1.00000 0.00000
vn 0.00000 1.00000 0.00000
vn 0.00000 1.00000 0.00000
vn 0.00000 1.00000 0.00000
vn 0.00000 1.00000 0.00000
vn 0.00000 1.00000 0.00000
vn 0.00000 1.00000 0.00000
vn 0.00000 1.00000 0.00000
vn 0.00000 1.00000 0.00000
vn 0.00000 1.00000 0.00000
vn 0.00000 1.00000 0.00000
vn 0.00000 1.00000 0.00000
vn 0.00000 1.00000 0.00000
vn 0.00000 1.00000 0.00000
vn 0.00000 1.00000 0.00000
vn 0.00000 1.00000 0.00000
vn 0.00000 1.00000 0.00000
vn 0.00000 1.00000 0.00000
vn 0.00000 1.00000 0.00000
vn 0.00000 1.00000 0.00000
vn 0.00000 1.00000 0.00000
vn 0.00000 1.00000 0.00000
vn 0.00000 1.00000 0.00000
vn 0.00000 1.00000 0.00000
vn 0.00000 1.00000 0.00000
vn 0.00000 1.00000 0.00000
vn 0.00000 1.00000 0.00000
vn 0.00000 1.00000 0.00000
vn 0.00000 1.00000 0.00000
vn 0.00000 1.00000 0.00000
vn 0.00000 1.00000 0.00000
vn 0.00000 1.00000 0.00000
vn 0.00000 1.00000 0.00000
vn 0.00000 1.00000 0.00000
vn 0.00000 1.00000 0.00000
vn 0.00000 1.00000 0.00000
vn 0.00000 1.00000 0.00000
vn 0.00000 1.00000 0.00000
vn 0.00000 1.00000 0.00000
vn 0.00000 1.00000 0.00000
vn 0.00000 1.00000 0.00000
vn 0.00000 1.00000 0.00000
vn 0.00000 1.00000 0.00000
vn 0.00000 1.00000 0.00000
vn 0.00000 1.00000 0.00000
vn 0.00000 1.00000 0.00000
vn 0.00000 1.00000 0.00000
vn 0.00000 1.00000 0.00000
vn 0.00000 1.00000 0.00000
vn 0.00000 1.00000 0.00000
vn 0.00000 1.00000 0.00000
vn 0.00000 1.00000 0.00000
vn 0.00000 1.00000 0.00000
vn 0.00000 1.00000 0.00000
vn 0.00000 1.00000 0.00000
vn 0.00000 1.00000 0.00000
vn 0.00000 1.00000 0.00000
vn 0.00000 1.00000 0.00000
vn 0.00000 1.00000 0.00000
vn 0.00000 1.00000 0.00000
vn 0.00000 1.00000 0.00000
vn 0.00000 1.00000 0.00000
vn 0.00000 1.00000 0.00000
vn 0.00000 1.00000 0.00000
vn 0.00000 1.00000 0.00000
vn 0.00000 1.00000 0.00000
vn 0.00000 1.00000 0.00000
vn 0.00000 1.00000 0.00000
vn 0.00000 1.00000 0.00000
vn 0.00000 1.00000 0.00000
vn 0.00000 1.00000 0.00000
vn 0.00000 1.00000 0.00000
vn 0.00000 1.00000 0.00000
vn 0.00000 1.00000 0.00000
vn 0.00000 1.00000 0.00000
vn 0.00000 1.00000 0.00000
vn 0.00000 1.00000 0.00000
vn 0.00000 1.00000 0.00000
vn 0.00000 1.00000 0.00000
vn 0.00000 1.00000 0.00000
vn 0.00000 1.00000 0.00000
vn 0.00000 1.00000 0.00000
vn 0.00000 1.00000 0.00000
vn 0.00000 1.00000 0.00000
vn 0.00000 1.00000 0.00000
vn 0.00000 1.00000 0.00000
vn 0.00000 1.00000 0.00000
vn 0.00000 1.00000 0.00000
vn 0.00000 1.00000 0.00000
vn 0.00000 1.00000 0.00000
vn 0.00000 1.00000 0.00000
vn 0.00000 1.00000 0.00000
vn 0.00000 1.00000 0.00000
vn 0.00000 1.00000 0.00000
vn 0.00000 1.00000 0.00000
vn 0.00000 1.00000 0.00000
vn 0.00000 1.00000 0.00000
vn 0.00000 1.00000 0.00000
vn 0.00000 1.00000 0.00000
vn 0.00000 1.00000 0.00000
vn 0.00000 1.00000 0.00000

f 1/1/1 2/2/2 3/3/3
f 1/1/1 3/3/3 4/4/4
f 4/4/4 3/3/3 5/5/5
f 5/5/5 3/3/3 6/6/6
f 5/5/5 6/6/6 7/7/7
f 5/5/5 7/7/7 8/8/8
f 8/8/8 7/7/7 9/9/9
f 9/9/9 7/7/7 10/10/10
f 9/9/9 10/10/10 11/11/11
f 9/9/9 11/11/11 12/12/12
f 12/12/12 11/11/11 13/13/13
f 13/13/13 11/11/11 14/14/14
f 13/13/13 14/14/14 15/15/15
f 13/13/13 15/15/15 16/16/16
f 16/16/16 15/15/15 17/17/17
f 17/17/17 15/15/15 18/18/18
f 17/17/17 18/18/18 19/19/19
f 17/17/17 19/19/19 20/20/20
f 20/20/20 19/19/19 21/21/21
f 21/21/21 19/19/19 22/22/22
f 21/21/21 22/22/22 23/23/23
f 21/21/21 23/23/23 24/24/24
f 24/24/24 23/23/23 25/25/25
f 25/25/25 23/23/23 26/26/26
f 2/2/2 27/27/27 3/3/3
f 3/3/3 27/27/27 28/28/28
f 3/3/3 28/28/28 29/29/29
f 3/3/3 29/29/29 6/6/6
f 6/6/6 29/29/29 7/7/7
f 7/7/7 29/29/29 30/30/30
f 7/7/7 30/30/30 31/31/31
f 7/7/7 31/31/31 10/10/10
f 10/10/10 31/31/31 11/11/11
f 11/11/11 31/31/31 32/32/32
f 11/11/11 32/32/32 33/33/33
f 11/11/11 33/33/33 14/14/14
f 14/14/14 33/33/33 15/15/15
f 15/15/15 33/33/33 34/34/34
f 15/15/15 34/34/34 35/35/35
f 15/15/15 35/35/35 18/18/18
f 18/18/18 35/35/35 19/19/19
f 19/19/19 35/35/35 36/36/36
f 19/19/19 36/36/36 37/37/37
f 19/19/19 37/37/37 22/22/22
f 22/22/22 37/37/37 23/23/23
f 23/23/23 37/37/37 38/38/38
f 23/23/23 38/38/38 39/39/39
f 23/23/23 39/39/39 26/26/26
f 27/27/27 40/40/40 41/41/41
f 27/27/27 41/41/41 28/28/28
f 28/28/28 41/41/41 29/29/29
f 29/29/29 41/41/41 42/42/42
f 29/29/29 42/42/42 43/43/43
f 29/29/29 43/43/43 30/30/30
f 30/30/30 43/43/43 31/31/31
f 31/31/31 43/43/43 44/44/44
f 31/31/31 44/44/44 45/45/45
f 31/31/31 45/45/45 32/32/32
f 32/32/32 45/45/45 33/33/33
f 33/33/33 45/45/45 46/46/46
f 33/33/33 46/46/46 47/47/47
f 33/33/33 47/47/47 34/34/34
f 34/34/34 47/47/47 35/35/35
f 35/35/35 47/47/47 48/48/48
f 35/35/35 48/48/48 49/49/49
f 35/35/35 49/49/49 36/36/36
f 36/36/36 49/49/49 37/37/37
f 37/37/37 49/49/49 50/50/50
f 37/37/37 50/50/50 51/51/51
f 37/37/37 51/51/51 38/38/38
f 38/38/38 51/51/51 39/39/39
f 39/39/39 51/51/51 52/52/52
f 40/40/40 53/53/53 41/41/41
f 41/41/41 53/53/53 54/54/54
f 41/41/41 54/54/54 55/55/55
f 41/41/41 55/55/55 42/42/42
f 42/42/42 55/55/55 43/43/43
f 43/43/43 55/55/55 56/56/56
f 43/43/43 56/56/56 57/57/57
f 43/43/43 57/57/57 44/44/44
f 44/44/44 57/57/57 45/45/45
f 45/45/45 57/57/57 58/58/58
f 45/45/45 58/58/58 59/59/59
f 45/45/45 59/59/59 46/46/46
f 46/46/46 59/59/59 47/47/47
f 47/47/47 59/59/59 60/60/60
f 47/47/47 60/60/60 61/61/61
f 47/47/47 61/61/61 48/48/48
f 48/48/48 61/61/61 49/49/49
f 49/49/49 61/61/61 62/62/62
f 49/49/49 62/62/62 63/63/63
f 49/49/49 63/63/63 50/50/50
f 50/50/50 63/63/63 51/51/51
f 51/51/51 63/63/63 64/64/64
f 51/51/51 64/64/64 65/65/65
f 51/51/51 65/65/65 52/52/52
f 53/53/53 66/66/66 67/67/67
f 53/53/53 67/67/67 54/54/54
f 54/54/54 67/67/67 55/55/55
f 55/55/55 67/67/67 68/68/68
f 55/55/55 68/68/68 69/69/69
f 55/55/55 69/69/69 56/56/56
f 56/56/56 69/69/69 57/57/57
f 57/57/57 69/69/69 70/70/70
f 57/57/57 70/70/70 71/71/71
f 57/57/57 71/71/71 58/58/58
f 58/58/58 71/71/71 59/59/59
f 59/59/59 71/71/71 72/72/72
f 59/59/59 72/72/72 73/73/73
f 59/59/59 73/73/73 60/60/60
f 60/60/60 73/73/73 61/61/61
f 61/61/61 73/73/73 74/74/74
f 61/61/61 74/74/74 75/75/75
f 61/61/61 75/75/75 62/62/62
f 62/62/62 75/75/75 63/63/63
f 63/63/63 75/75/75 76/76/76
f 63/63/63 76/76/76 77/77/77
f 63/63/63 77/77/77 64/64/64
f 64/64/64 77/77/77 65/65/65
f 65/65/65 77/77/77 78/78/78
f 66/66/66 79/79/79 67/67/67
f 67/67/67 79/79/79 80/80/80
f 67/67/67 80/80/80 81/81/81
f 67/67/67 81/81/81 68/68/68
f 68/68/68 81/81/81 69/69/69
f 69/69/69 81/81/81 82/82/82
f 69/69/69 82/82/82 83/83/83
f 69/69/69 83/83/83 70/70/70
f 70/70/70 83/83/83 71/71/71
f 71/71/71 83/83/83 84/84/84
f 71/71/71 84/84/84 85/85/85
f 71/71/71 85/85/85 72/72/72
f 72/72/72 85/85/85 73/73/73
f 73/73/73 85/85/85 86/86/86
f 73/73/73 86/86/86 87/87/87
f 73/73/73 87/87/87 74/74/74
f 74/74/74 87/87/87 75/75/75
f 75/75/75 87/87/87 88/88/88
f 75/75/75 88/88/88 89/89/89
f 75/75/75 89/89/89 76/76/76
f 76/76/76 89/89/89 77/77/77
f 77/77/77 89/89/89 90/90/90
f 77/77/77 90/90/90 91/91/91
f 77/77/77 91/91/91 78/78/78
f 79/79/79 92/92/92 93/93/93
f 79/79/79 93/93/93 80/80/80
f 80/80/80 93/93/93 81/81/81
f 81/81/81 93/93/93 94/94/94
f 81/81/81 94/94/94 95/95/95
f 81/81/81 95/95/95 82/82/82
f 82/82/82 95/95/95 83/83/83
f 83/83/83 95/95/95 96/96/96
f 83/83/83 96/96/96 97/97/97
f 83/83/83 97/97/97 84/84/84
f 84/84/84 97/97/97 85/85/85
f 85/85/85 97/97/97 98/98/98
f 85/85/85 98/98/98 99/99/99
f 85/85/85 99/99/99 86/86/86
f 86/86/86 99/99/99 87/87/87
f 87/87/87 99/99/99 100/100/100
f 87/87/87 100/100/100 101/101/101
f 87/87/87 101/101/101 88/88/88
f 88/88/88 101/101/101 89/89/89
f 89/89/89 101/101/101 102/102/102
f 89/89/89 102/102/102 103/103/103
f 89/89/89 103/103/103 90/90/90
f 90/90/90 103/103/103 91/91/91
f 91/91/91 103/103/103 104/104/104
f 92/92/92 105/105/105 93/93/93
f 93/93/93 105/105/105 106/106/106
f 93/93/93 106/106/106 107/107/107
f 93/93/93 107/107/107 94/94/94
f 94/94/94 107/107/107 95/95/95
f 95/95/95 107/107/107 108/108/108
f 95/95/95 108/108/108 109/109/109
f 95/95/95 109/109/109 96/96/96
f 96/96/96 109/109/109 97/97/97
f 97/97/97 109/109/109 110/110/110
f 97/97/97 110/110/110 111/111/111
f 97/97/97 111/111/111 98/98/98
f 98/98/98 111/111/111 99/99/99
f 99/99/99 111/111/111 112/112/112
f 99/99/99 112/112/112 113/113/113
f 99/99/99 113/113/113 100/100/100
f 100/100/100 113/113/113 101/101/101
f 101/101/101 113/113/113 114/114/114
f 101/101/101 114/114/114 115/115/115
f 101/101/101 115/115/115 102/102/102
f 102/102/102 115/115/115 103/103/103
f 103/103/103 115/115/115 116/116/116
f 103/103/103 116/116/116 117/117/117
f 103/103/103 117/117/117 104/104/104
f 105/105/105 118/118/118 119/119/119
f 105/105/105 119/119/119 106/106/106
f 106/106/106 119/119/119 107/107/107
f 107/107/107 119/119/119 120/120/120
f 107/107/107 120/120/120 121/121/121
f 107/107/107 121/121/121 108/108/108
f 108/108/108 121/121/121 109/109/109
f 109/109/109 121/121/121 122/122/122
f 109/109/109 122/122/122 123/123/123
f 109/109/109 123/123/123 110/110/110
f 110/110/110 123/123/123 111/111/111
f 111/111/111 123/123/123 124/124/124
f 111/111/111 124/124/124 125/125/125
f 111/111/111 125/125/125 112/112/112
f 112/112/112 125/125/125 113/113/113
f 113/113/113 125/125/125 126/126/126
f 113/113/113 126/126/126 127/127/127
f 113/113/113 127/127/127 114/114/114
f 114/114/114 127/127/127 115/115/115
f 115/115/115 127/127/127 128/128/128
f 115/115/115 128/128/128 129/129/129
f 115/115/115 129/129/129 116/116/116
f 116/116/116 129/129/129 117/117/117
f 117/117/117 129/129/129 130/130/130
f 118/118/118 131/131/131 119/119/119
f 119/119/119 131/131/131 132/132/132
f 119/119/119 132/132/132 133/133/133
f 119/119/119 133/133/133 120/120/120
f 120/120/120 133/133/133 121/121/121
f 121/121/121 133/133/133 134/134/134
f 121/121/121 134/134/134 135/135/135
f 121/121/121 135/135/135 122/122/122
f 122/122/122 135/135/135 123/123/123
f 123/123/123 135/135/135 136/136/136
f 123/123/123 136/136/136 137/137/137
f 123/123/123 137/137/137 124/124/124
f 124/124/124 137/137/137 125/125/125
f 125/125/125 137/137/137 138/138/138
f 125/125/125 138/138/138 139/139/139
f 125/125/125 139/139/139 126/126/126
f 126/126/126 139/139/139 127/127/127
f 127/127/127 139/139/139 140/140/140
f 127/127/127 140/140/140 141/141/141
f 127/127/127 141/141/141 128/128/128
f 128/128/128 141/141/141 129/129/129
f 129/129/129 141/141/141 142/142/142
f 129/129/129 142/142/142 143/143/143
f 129/129/129 143/143/143 130/130/130
f 131/131/131 144/144/144 145/145/145
f 131/131/131 145/145/145 132/132/132
f 132/132/132 145/145/145 133/133/133
f 133/133/133 145/145/145 146/146/146
f 133/133/133 146/146/146 147/147/147
f 133/133/133 147/147/147 134/134/134
f 134/134/134 147/147/147 135/135/135
f 135/135/135 147/147/147 148/148/148
f 135/135/135 148/148/148 149/149/149
f 135/135/135 149/149/149 136/136/136
f 136/136/136 149/149/149 137/137/137
f 137/137/137 149/149/149 150/150/150
f 137/137/137 150/150/150 151/151/151
f 137/137/137 151/151/151 138/138/138
f 138/138/138 151/151/151 139/139/139
f 139/139/139 151/151/151 152/152/152
f 139/139/139 152/152/152 153/153/153
f 139/139/139 153/153/153 140/140/140
f 140/140/140 153/153/153 141/141/141
f 141/141/141 153/153/153 154/154/154
f 141/141/141 154/154/154 155/155/155
f 141/141/141 155/155/155 142/142/142
f 142/142/142 155/155/155 143/143/143
f 143/143/143 155/155/155 156/156/156
f 144/144/144 157/157/157 145/145/145
f 145/145/145 157/157/157 158/158/158
f 145/145/145 158/158/158 159/159/159
f 145/145/145 159/159/159 146/146/146
f 146/146/146 159/159/159 147/147/147
f 147/147/147 159/159/159 160/160/160
f 147/147/147 160/160/160 161/161/161
f 147/147/147 161/161/161 148/148/148
f 148/148/148 161/161/161 149/149/149
f 149/149/149 161/161/161 162/162/162
f 149/149/149 162/162/162 163/163/163
f 149/149/149 163/163/163 150/150/150
f 150/150/150 163/163/163 151/151/151
f 151/151/151 163/163/163 164/164/164
f 151/151/151 164/164/164 165/165/165
f 151/151/151 165/165/165 152/152/152
f 152/152/152 165/165/165 153/153/153
f 153/153/153 165/165/165 166/166/166
f 153/153/153 166/166/166 167/167/167
f 153/153/153 167/167/167 154/154/154
f 154/154/154 167/167/167 155/155/155
f 155/155/155 167/167/167 168/168/168
f 155/155/155 168/168/168 169/169/169
f 155/155/155 169/169/169 156/156/156
