# Generated by tools/generate_island.py. Do not edit by hand.
o terrain_lod2_-2_-2

v -128.000 -8.000 -128.000 0.455 0.423 0.245
v -128.000 -8.000 -120.000 0.466 0.434 0.253
v -120.000 -8.000 -120.000 0.474 0.443 0.258
v -120.000 -8.000 -128.000 0.473 0.442 0.258
v -112.000 -8.000 -128.000 0.471 0.439 0.256
v -112.000 -8.000 -120.000 0.496 0.465 0.273
v -104.000 -8.000 -120.000 0.505 0.474 0.279
v -104.000 -8.000 -128.000 0.492 0.461 0.270
v -96.000 -8.000 -128.000 0.515 0.485 0.285
v -96.000 -8.000 -120.000 0.514 0.484 0.284
v -88.000 -6.733 -120.000 0.487 0.456 0.267
v -88.000 -8.000 -128.000 0.503 0.473 0.278
v -80.000 -6.932 -128.000 0.456 0.424 0.246
v -80.000 -5.508 -120.000 0.461 0.429 0.250
v -72.000 -4.024 -120.000 0.422 0.389 0.224
v -72.000 -5.340 -128.000 0.423 0.390 0.225
v -64.000 -4.556 -128.000 0.418 0.385 0.221
v -64.000 -3.189 -120.000 0.418 0.385 0.221
v -128.000 -8.000 -112.000 0.478 0.447 0.261
v -120.000 -7.971 -112.000 0.485 0.454 0.266
v -112.000 -7.367 -112.000 0.492 0.461 0.270
v -104.000 -6.608 -112.000 0.497 0.466 0.273
v -96.000 -6.238 -112.000 0.496 0.465 0.273
v -88.000 -5.223 -112.000 0.482 0.451 0.263
v -80.000 -4.076 -112.000 0.474 0.442 0.258
v -72.000 -3.301 -112.000 0.438 0.405 0.234
v -64.000 -2.454 -112.000 0.425 0.392 0.226
v -128.000 -7.580 -104.000 0.520 0.490 0.288
v -120.000 -5.971 -104.000 0.515 0.485 0.285
v -112.000 -5.552 -104.000 0.512 0.482 0.283
v -104.000 -5.097 -104.000 0.509 0.479 0.281
v -96.000 -4.527 -104.000 0.487 0.456 0.267
v -88.000 -3.998 -104.000 0.475 0.443 0.259
v -80.000 -3.002 -104.000 0.462 0.430 0.250
v -72.000 -2.494 -104.000 0.434 0.402 0.232
v -64.000 -1.961 -104.000 0.432 0.399 0.231
v -128.000 -6.583 -96.000 0.540 0.511 0.302
v -120.000 -5.204 -96.000 0.521 0.492 0.290
v -112.000 -4.323 -96.000 0.517 0.487 0.287
v -104.000 -3.983 -96.000 0.509 0.479 0.282
v -96.000 -2.977 -96.000 0.507 0.476 0.280
v -88.000 -2.384 -96.000 0.497 0.467 0.274
v -80.000 -1.808 -96.000 0.482 0.450 0.263
v -72.000 -1.361 -96.000 0.447 0.415 0.241
v -64.000 -1.358 -96.000 0.434 0.401 0.232
v -128.000 -6.177 -88.000 0.540 0.510 0.301
v -120.000 -4.847 -88.000 0.531 0.501 0.296
v -112.000 -3.455 -88.000 0.532 0.502 0.296
v -104.000 -2.625 -88.000 0.549 0.520 0.307
v -96.000 -1.691 -88.000 0.547 0.517 0.306
v -88.000 -0.883 -88.000 0.535 0.506 0.298
v -80.000 -0.846 -88.000 0.500 0.469 0.275
v -72.000 -0.603 -88.000 0.469 0.438 0.255
v -64.000 -0.796 -88.000 0.448 0.415 0.241
v -128.000 -6.565 -80.000 0.512 0.481 0.283
v -120.000 -4.900 -80.000 0.520 0.490 0.289
v -112.000 -3.372 -80.000 0.538 0.508 0.300
v -104.000 -1.838 -80.000 0.562 0.534 0.316
v -96.000 -1.005 -80.000 0.558 0.529 0.313
v -88.000 -0.171 -80.000 0.548 0.519 0.307
v -80.000 0.025 -80.000 0.514 0.484 0.285
v -72.000 0.006 -80.000 0.479 0.448 0.261
v -64.000 0.301 -80.000 0.464 0.433 0.252
v -128.000 -8.000 -72.000 0.496 0.465 0.273
v -120.000 -6.227 -72.000 0.520 0.490 0.289
v -112.000 -3.802 -72.000 0.538 0.508 0.300
v -104.000 -1.629 -72.000 0.542 0.513 0.303
v -96.000 -0.246 -72.000 0.540 0.511 0.302
v -88.000 0.308 -72.000 0.541 0.512 0.302
v -80.000 1.110 -72.000 0.501 0.470 0.276
v -72.000 1.338 -72.000 0.493 0.462 0.271
v -64.000 1.753 -72.000 0.220 0.300 0.110
v -128.000 -8.000 -64.000 0.514 0.484 0.285
v -120.000 -7.379 -64.000 0.522 0.492 0.290
v -112.000 -3.649 -64.000 0.537 0.508 0.300
v -104.000 -1.415 -64.000 0.524 0.494 0.291
v -96.000 0.266 -64.000 0.520 0.490 0.288
v -88.000 0.701 -64.000 0.523 0.493 0.291
v -80.000 1.448 -64.000 0.254 0.326 0.121
v -72.000 2.052 -64.000 0.250 0.323 0.120
v -64.000 2.915 -64.000 0.238 0.314 0.116

vt 0.233333 0.766667
vt 0.233333 0.750000
vt 0.250000 0.750000
vt 0.250000 0.766667
vt 0.266667 0.766667
vt 0.266667 0.750000
vt 0.283333 0.750000
vt 0.283333 0.766667
vt 0.300000 0.766667
vt 0.300000 0.750000
vt 0.316667 0.750000
vt 0.316667 0.766667
vt 0.333333 0.766667
vt 0.333333 0.750000
vt 0.350000 0.750000
vt 0.350000 0.766667
vt 0.366667 0.766667
vt 0.366667 0.750000
vt 0.233333 0.733333
vt 0.250000 0.733333
vt 0.266667 0.733333
vt 0.283333 0.733333
vt 0.300000 0.733333
vt 0.316667 0.733333
vt 0.333333 0.733333
vt 0.350000 0.733333
vt 0.366667 0.733333
vt 0.233333 0.716667
vt 0.250000 0.716667
vt 0.266667 0.716667
vt 0.283333 0.716667
vt 0.300000 0.716667
vt 0.316667 0.716667
vt 0.333333 0.716667
vt 0.350000 0.716667
vt 0.366667 0.716667
vt 0.233333 0.700000
vt 0.250000 0.700000
vt 0.266667 0.700000
vt 0.283333 0.700000
vt 0.300000 0.700000
vt 0.316667 0.700000
vt 0.333333 0.700000
vt 0.350000 0.700000
vt 0.366667 0.700000
vt 0.233333 0.683333
vt 0.250000 0.683333
vt 0.266667 0.683333
vt 0.283333 0.683333
vt 0.300000 0.683333
vt 0.316667 0.683333
vt 0.333333 0.683333
vt 0.350000 0.683333
vt 0.366667 0.683333
vt 0.233333 0.666667
vt 0.250000 0.666667
vt 0.266667 0.666667
vt 0.283333 0.666667
vt 0.300000 0.666667
vt 0.316667 0.666667
vt 0.333333 0.666667
vt 0.350000 0.666667
vt 0.366667 0.666667
vt 0.233333 0.650000
vt 0.250000 0.650000
vt 0.266667 0.650000
vt 0.283333 0.650000
vt 0.300000 0.650000
vt 0.316667 0.650000
vt 0.333333 0.650000
vt 0.350000 0.650000
vt 0.366667 0.650000
vt 0.233333 0.633333
vt 0.250000 0.633333
vt 0.266667 0.633333
vt 0.283333 0.633333
vt 0.300000 0.633333
vt 0.316667 0.633333
vt 0.333333 0.633333
vt 0.350000 0.633333
vt 0.366667 0.633333

vn 0.00000 1.00000 0.00000
vn 0.00000 1.00000 0.00000
vn -0.00990 0.99989 -0.01080
vn 0.00000 1.00000 0.00000
vn 0.00000 1.00000 0.00000
vn 0.00000 0.99922 -0.03955
vn -0.01758 0.99659 -0.08067
vn 0.00000 1.00000 0.00000
vn -0.03954 0.99844 -0.03954
vn -0.07849 0.99092 -0.10915
vn -0.12573 0.97977 -0.15571
vn -0.06581 0.98554 -0.15612
vn -0.16319 0.97269 -0.16506
vn -0.16442 0.97105 -0.17328
vn -0.13246 0.98145 -0.13858
vn -0.14496 0.97630 -0.16069
vn -0.09930 0.98135 -0.16460
vn -0.10289 0.98622 -0.12958
vn -0.05185 0.99574 -0.07620
vn -0.03924 0.99129 -0.12569
vn -0.05553 0.98689 -0.15155
vn -0.06926 0.98158 -0.17806
vn -0.07850 0.97819 -0.19232
vn -0.13197 0.97708 -0.16702
vn -0.12365 0.98206 -0.14238
vn -0.10046 0.99042 -0.09470
vn -0.09488 0.99181 -0.08547
vn -0.19637 0.97671 -0.08648
vn -0.10668 0.98239 -0.15341
vn -0.05357 0.98097 -0.18662
vn -0.06939 0.98172 -0.17724
vn -0.06721 0.97764 -0.19925
vn -0.09774 0.98029 -0.17168
vn -0.09266 0.98584 -0.13978
vn -0.06436 0.99160 -0.11222
vn -0.06628 0.99547 -0.06819
vn -0.17473 0.98156 -0.07749
vn -0.13956 0.98778 -0.06939
vn -0.08561 0.98903 -0.12039
vn -0.08286 0.98487 -0.15220
vn -0.09254 0.98065 -0.17254
vn -0.07152 0.97906 -0.19057
vn -0.05910 0.98784 -0.14379
vn -0.02794 0.99270 -0.11731
vn -0.01079 0.99541 -0.09504
vn -0.16400 0.98646 -0.00114
vn -0.16782 0.98552 -0.02430
vn -0.13735 0.98878 -0.05876
vn -0.11173 0.98749 -0.11127
vn -0.10741 0.98675 -0.12159
vn -0.06015 0.99004 -0.12730
vn -0.01740 0.99335 -0.11381
vn -0.01284 0.99522 -0.09683
vn 0.02403 0.99438 -0.10310
vn -0.19614 0.97570 0.09765
vn -0.19500 0.97718 0.08427
vn -0.19820 0.98002 0.01652
vn -0.14606 0.98737 -0.06143
vn -0.10858 0.99098 -0.07859
vn -0.06409 0.99519 -0.07410
vn -0.02585 0.99366 -0.10938
vn -0.01713 0.99258 -0.12042
vn -0.02514 0.98998 -0.13893
vn -0.21552 0.97259 0.08724
vn -0.24046 0.96543 0.10063
vn -0.27615 0.96097 0.01662
vn -0.20475 0.97841 -0.02814
vn -0.11984 0.98968 -0.07861
vn -0.07655 0.99468 -0.06898
vn -0.06399 0.99403 -0.08840
vn -0.04690 0.99094 -0.12586
vn -0.05116 0.98563 -0.16101
vn -0.14757 0.98650 0.07103
vn -0.25992 0.95577 0.13764
vn -0.31338 0.94944 0.01874
vn -0.23757 0.97102 -0.02603
vn -0.12550 0.99081 -0.05050
vn -0.07360 0.99609 -0.04890
vn -0.07410 0.99571 -0.05547
vn -0.09095 0.99191 -0.08853
vn -0.07910 0.99009 -0.11608

f 1/1/1 2/2/2 3/3/3
f 1/1/1 3/3/3 4/4/4
f 4/4/4 3/3/3 5/5/5
f 5/5/5 3/3/3 6/6/6
f 5/5/5 6/6/6 7/7/7
f 5/5/5 7/7/7 8/8/8
f 8/8/8 7/7/7 9/9/9
f 9/9/9 7/7/7 10/10/10
f 9/9/9 10/10/10 11/11/11
f 9/9/9 11/11/11 12/12/12
f 12/12/12 11/11/11 13/13/13
f 13/13/13 11/11/11 14/14/14
f 13/13/13 14/14/14 15/15/15
f 13/13/13 15/15/15 16/16/16
f 16/16/16 15/15/15 17/17/17
f 17/17/17 15/15/15 18/18/18
f 2/2/2 19/19/19 3/3/3
f 3/3/3 19/19/19 20/20/20
f 3/3/3 20/20/20 21/21/21
f 3/3/3 21/21/21 6/6/6
f 6/6/6 21/21/21 7/7/7
f 7/7/7 21/21/21 22/22/22
f 7/7/7 22/22/22 23/23/23
f 7/7/7 23/23/23 10/10/10
f 10/10/10 23/23/23 11/11/11
f 11/11/11 23/23/23 24/24/24
f 11/11/11 24/24/24 25/25/25
f 11/11/11 25/25/25 14/14/14
f 14/14/14 25/25/25 15/15/15
f 15/15/15 25/25/25 26/26/26
f 15/15/15 26/26/26 27/27/27
f 15/15/15 27/27/27 18/18/18
f 19/19/19 28/28/28 29/29/29
f 19/19/19 29/29/29 20/20/20
f 20/20/20 29/29/29 21/21/21
f 21/21/21 29/29/29 30/30/30
f 21/21/21 30/30/30 31/31/31
f 21/21/21 31/31/31 22/22/22
f 22/22/22 31/31/31 23/23/23
f 23/23/23 31/31/31 32/32/32
f 23/23/23 32/32/32 33/33/33
f 23/23/23 33/33/33 24/24/24
f 24/24/24 33/33/33 25/25/25
f 25/25/25 33/33/33 34/34/34
f 25/25/25 34/34/34 35/35/35
f 25/25/25 35/35/35 26/26/26
f 26/26/26 35/35/35 27/27/27
f 27/27/27 35/35/35 36/36/36
f 28/28/28 37/37/37 29/29/29
f 29/29/29 37/37/37 38/38/38
f 29/29/29 38/38/38 39/39/39
f 29/29/29 39/39/39 30/30/30
f 30/30/30 39/39/39 31/31/31
f 31/31/31 39/39/39 40/40/40
f 31/31/31 40/40/40 41/41/41
f 31/31/31 41/41/41 32/32/32
f 32/32/32 41/41/41 33/33/33
f 33/33/33 41/41/41 42/42/42
f 33/33/33 42/42/42 43/43/43
f 33/33/33 43/43/43 34/34/34
f 34/34/34 43/43/43 35/35/35
f 35/35/35 43/43/43 44/44/44
f 35/35/35 44/44/44 45/45/45
f 35/35/35 45/45/45 36/36/36
f 37/37/37 46/46/46 47/47/47
f 37/37/37 47/47/47 38/38/38
f 38/38/38 47/47/47 39/39/39
f 39/39/39 47/47/47 48/48/48
f 39/39/39 48/48/48 49/49/49
f 39/39/39 49/49/49 40/40/40
f 40/40/40 49/49/49 41/41/41
f 41/41/41 49/49/49 50/50/50
f 41/41/41 50/50/50 51/51/51
f 41/41/41 51/51/51 42/42/42
f 42/42/42 51/51/51 43/43/43
f 43/43/43 51/51/51 52/52/52
f 43/43/43 52/52/52 53/53/53
f 43/43/43 53/53/53 44/44/44
f 44/44/44 53/53/53 45/45/45
f 45/45/45 53/53/53 54/54/54
f 46/46/46 55/55/55 47/47/47
f 47/47/47 55/55/55 56/56/56
f 47/47/47 56/56/56 57/57/57
f 47/47/47 57/57/57 48/48/48
f 48/48/48 57/57/57 49/49/49
f 49/49/49 57/57/57 58/58/58
f 49/49/49 58/58/58 59/59/59
f 49/49/49 59/59/59 50/50/50
f 50/50/50 59/59/59 51/51/51
f 51/51/51 59/59/59 60/60/60
f 51/51/51 60/60/60 61/61/61
f 51/51/51 61/61/61 52/52/52
f 52/52/52 61/61/61 53/53/53
f 53/53/53 61/61/61 62/62/62
f 53/53/53 62/62/62 63/63/63
f 53/53/53 63/63/63 54/54/54
f 55/55/55 64/64/64 65/65/65
f 55/55/55 65/65/65 56/56/56
f 56/56/56 65/65/65 57/57/57
f 57/57/57 65/65/65 66/66/66
f 57/57/57 66/66/66 67/67/67
f 57/57/57 67/67/67 58/58/58
f 58/58/58 67/67/67 59/59/59
f 59/59/59 67/67/67 68/68/68
f 59/59/59 68/68/68 69/69/69
f 59/59/59 69/69/69 60/60/60
f 60/60/60 69/69/69 61/61/61
f 61/61/61 69/69/69 70/70/70
f 61/61/61 70/70/70 71/71/71
f 61/61/61 71/71/71 62/62/62
f 62/62/62 71/71/71 63/63/63
f 63/63/63 71/71/71 72/72/72
f 64/64/64 73/73/73 65/65/65
f 65/65/65 73/73/73 74/74/74
f 65/65/65 74/74/74 75/75/75
f 65/65/65 75/75/75 66/66/66
f 66/66/66 75/75/75 67/67/67
f 67/67/67 75/75/75 76/76/76
f 67/67/67 76/76/76 77/77/77
f 67/67/67 77/77/77 68/68/68
f 68/68/68 77/77/77 69/69/69
f 69/69/69 77/77/77 78/78/78
f 69/69/69 78/78/78 79/79/79
f 69/69/69 79/79/79 70/70/70
f 70/70/70 79/79/79 71/71/71
f 71/71/71 79/79/79 80/80/80
f 71/71/71 80/80/80 81/81/81
f 71/71/71 81/81/81 72/72/72
