# Generated by tools/generate_island.py. Do not edit by hand.
o terrain_lod2_4_-1

v 512.000 -1.073 -128.000 0.492 0.461 0.270
v 512.000 -0.838 -112.000 0.521 0.491 0.289
v 528.000 -1.075 -112.000 0.567 0.538 0.319
v 528.000 -1.742 -128.000 0.526 0.497 0.293
v 544.000 -2.525 -128.000 0.481 0.450 0.263
v 544.000 -1.108 -112.000 0.561 0.532 0.316
v 560.000 -1.818 -112.000 0.493 0.462 0.271
v 560.000 -2.774 -128.000 0.425 0.393 0.226
v 576.000 -3.567 -128.000 0.426 0.394 0.227
v 576.000 -3.306 -112.000 0.462 0.430 0.250
v 592.000 -3.941 -112.000 0.389 0.355 0.202
v 592.000 -4.651 -128.000 0.400 0.367 0.210
v 608.000 -5.268 -128.000 0.394 0.360 0.206
v 608.000 -4.546 -112.000 0.361 0.326 0.184
v 624.000 -5.847 -112.000 0.389 0.355 0.202
v 624.000 -6.466 -128.000 0.442 0.410 0.237
v 640.000 -7.221 -128.000 0.484 0.453 0.265
v 640.000 -6.592 -112.000 0.450 0.418 0.243
v 512.000 -0.393 -96.000 0.527 0.498 0.293
v 528.000 -0.579 -96.000 0.575 0.547 0.325
v 544.000 -0.519 -96.000 0.524 0.495 0.291
v 560.000 -1.397 -96.000 0.497 0.467 0.274
v 576.000 -2.230 -96.000 0.481 0.450 0.263
v 592.000 -2.938 -96.000 0.380 0.345 0.196
v 608.000 -4.333 -96.000 0.392 0.358 0.204
v 624.000 -5.358 -96.000 0.413 0.380 0.218
v 640.000 -5.449 -96.000 0.450 0.418 0.242
v 512.000 -0.636 -80.000 0.523 0.493 0.291
v 528.000 0.076 -80.000 0.569 0.541 0.321
v 544.000 -0.148 -80.000 0.505 0.475 0.279
v 560.000 -1.503 -80.000 0.502 0.472 0.277
v 576.000 -1.717 -80.000 0.493 0.462 0.271
v 592.000 -2.326 -80.000 0.433 0.400 0.231
v 608.000 -3.791 -80.000 0.419 0.386 0.222
v 624.000 -4.258 -80.000 0.454 0.422 0.245
v 640.000 -4.829 -80.000 0.483 0.452 0.264
v 512.000 -0.110 -64.000 0.486 0.455 0.266
v 528.000 0.157 -64.000 0.516 0.486 0.286
v 544.000 -0.706 -64.000 0.512 0.482 0.283
v 560.000 -1.242 -64.000 0.470 0.439 0.256
v 576.000 -1.417 -64.000 0.480 0.449 0.262
v 592.000 -2.213 -64.000 0.457 0.425 0.247
v 608.000 -3.170 -64.000 0.444 0.412 0.239
v 624.000 -3.639 -64.000 0.495 0.464 0.272
v 640.000 -4.547 -64.000 0.484 0.453 0.265
v 512.000 -0.351 -48.000 0.446 0.413 0.240
v 528.000 -0.377 -48.000 0.454 0.422 0.245
v 544.000 -0.739 -48.000 0.512 0.481 0.283
v 560.000 -0.700 -48.000 0.472 0.441 0.257
v 576.000 -1.517 -48.000 0.426 0.393 0.227
v 592.000 -2.702 -48.000 0.445 0.412 0.239
v 608.000 -2.768 -48.000 0.473 0.442 0.258
v 624.000 -2.996 -48.000 0.502 0.472 0.277
v 640.000 -4.142 -48.000 0.491 0.460 0.269
v 512.000 0.446 -32.000 0.491 0.460 0.269
v 528.000 -0.171 -32.000 0.505 0.475 0.279
v 544.000 -0.844 -32.000 0.490 0.459 0.269
v 560.000 -0.891 -32.000 0.482 0.451 0.264
v 576.000 -1.414 -32.000 0.498 0.468 0.274
v 592.000 -1.903 -32.000 0.474 0.443 0.259
v 608.000 -2.406 -32.000 0.449 0.417 0.242
v 624.000 -3.550 -32.000 0.447 0.415 0.241
v 640.000 -4.062 -32.000 0.439 0.407 0.235
v 512.000 0.508 -16.000 0.534 0.505 0.298
v 528.000 -0.311 -16.000 0.552 0.523 0.309
v 544.000 -0.081 -16.000 0.519 0.489 0.288
v 560.000 -0.655 -16.000 0.494 0.464 0.272
v 576.000 -1.759 -16.000 0.521 0.491 0.289
v 592.000 -1.738 -16.000 0.491 0.460 0.269
v 608.000 -2.058 -16.000 0.451 0.419 0.243
v 624.000 -3.062 -16.000 0.422 0.389 0.224
v 640.000 -3.618 -16.000 0.420 0.387 0.223
v 512.000 0.321 0.000 0.546 0.517 0.306
v 528.000 -0.146 0.000 0.566 0.537 0.319
v 544.000 0.043 0.000 0.564 0.535 0.317
v 560.000 -0.814 0.000 0.526 0.496 0.293
v 576.000 -1.369 0.000 0.487 0.456 0.267
v 592.000 -1.527 0.000 0.485 0.454 0.266
v 608.000 -2.319 0.000 0.493 0.462 0.271
v 624.000 -2.869 0.000 0.416 0.383 0.220
v 640.000 -3.204 0.000 0.399 0.366 0.209

vt 0.766667 0.566667
vt 0.766667 0.558333
vt 0.775000 0.558333
vt 0.775000 0.566667
vt 0.783333 0.566667
vt 0.783333 0.558333
vt 0.791667 0.558333
vt 0.791667 0.566667
vt 0.800000 0.566667
vt 0.800000 0.558333
vt 0.808333 0.558333
vt 0.808333 0.566667
vt 0.816667 0.566667
vt 0.816667 0.558333
vt 0.825000 0.558333
vt 0.825000 0.566667
vt 0.833333 0.566667
vt 0.833333 0.558333
vt 0.766667 0.550000
vt 0.775000 0.550000
vt 0.783333 0.550000
vt 0.791667 0.550000
vt 0.800000 0.550000
vt 0.808333 0.550000
vt 0.816667 0.550000
vt 0.825000 0.550000
vt 0.833333 0.550000
vt 0.766667 0.541667
vt 0.775000 0.541667
vt 0.783333 0.541667
vt 0.791667 0.541667
vt 0.800000 0.541667
vt 0.808333 0.541667
vt 0.816667 0.541667
vt 0.825000 0.541667
vt 0.833333 0.541667
vt 0.766667 0.533333
vt 0.775000 0.533333
vt 0.783333 0.533333
vt 0.791667 0.533333
vt 0.800000 0.533333
vt 0.808333 0.533333
vt 0.816667 0.533333
vt 0.825000 0.533333
vt 0.833333 0.533333
vt 0.766667 0.525000
vt 0.775000 0.525000
vt 0.783333 0.525000
vt 0.791667 0.525000
vt 0.800000 0.525000
vt 0.808333 0.525000
vt 0.816667 0.525000
vt 0.825000 0.525000
vt 0.833333 0.525000
vt 0.766667 0.516667
vt 0.775000 0.516667
vt 0.783333 0.516667
vt 0.791667 0.516667
vt 0.800000 0.516667
vt 0.808333 0.516667
vt 0.816667 0.516667
vt 0.825000 0.516667
vt 0.833333 0.516667
vt 0.766667 0.508333
vt 0.775000 0.508333
vt 0.783333 0.508333
vt 0.791667 0.508333
vt 0.800000 0.508333
vt 0.808333 0.508333
vt 0.816667 0.508333
vt 0.825000 0.508333
vt 0.833333 0.508333
vt 0.766667 0.500000
vt 0.775000 0.500000
vt 0.783333 0.500000
vt 0.791667 0.500000
vt 0.800000 0.500000
vt 0.808333 0.500000
vt 0.816667 0.500000
vt 0.825000 0.500000
vt 0.833333 0.500000

vn 0.02830 0.99920 -0.02815
vn 0.01485 0.99966 -0.02123
vn 0.01654 0.99910 -0.03911
vn 0.04530 0.99811 -0.04156
vn 0.02765 0.99720 -0.06944
vn 0.02316 0.99777 -0.06254
vn 0.05570 0.99732 -0.04749
vn 0.03248 0.99769 -0.05958
vn 0.06234 0.99747 -0.03410
vn 0.06613 0.99694 -0.04164
vn 0.04899 0.99781 -0.04442
vn 0.05304 0.99761 -0.04429
vn 0.05799 0.99738 -0.04322
vn 0.05944 0.99781 -0.02917
vn 0.05581 0.99770 -0.03838
vn 0.06086 0.99740 -0.03858
vn 0.04680 0.99815 -0.03891
vn 0.04646 0.99739 -0.05523
vn -0.00160 0.99978 -0.02113
vn 0.00394 0.99935 -0.03594
vn 0.03090 0.99917 -0.02642
vn 0.05339 0.99853 -0.00982
vn 0.04700 0.99810 -0.03983
vn 0.06548 0.99659 -0.05028
vn 0.06759 0.99704 -0.03672
vn 0.03481 0.99816 -0.04956
vn 0.02338 0.99836 -0.05229
vn -0.04442 0.99897 -0.00884
vn -0.00198 0.99992 -0.01226
vn 0.04928 0.99877 0.00582
vn 0.04339 0.99903 -0.00731
vn 0.02570 0.99935 -0.02539
vn 0.06239 0.99769 -0.02671
vn 0.06022 0.99753 -0.03625
vn 0.03564 0.99844 -0.04293
vn 0.03565 0.99897 -0.02817
vn -0.01905 0.99982 0.00262
vn 0.01861 0.99973 0.01414
vn 0.03670 0.99931 0.00649
vn 0.02222 0.99944 -0.02509
vn 0.03720 0.99929 -0.00646
vn 0.05469 0.99843 0.01172
vn 0.03963 0.99895 -0.02288
vn 0.04294 0.99830 -0.03937
vn 0.05509 0.99802 -0.03039
vn 0.00163 0.99985 -0.01738
vn 0.02079 0.99978 0.00185
vn 0.01009 0.99994 0.00430
vn 0.02215 0.99974 -0.00444
vn 0.06244 0.99805 -0.00012
vn 0.04096 0.99910 -0.01083
vn 0.00919 0.99967 -0.02389
vn 0.04512 0.99892 -0.01113
vn 0.07146 0.99733 -0.01509
vn 0.03246 0.99937 -0.01444
vn 0.04027 0.99919 -0.00207
vn 0.01646 0.99980 -0.01115
vn 0.01781 0.99984 -0.00141
vn 0.03988 0.99920 -0.00411
vn 0.03097 0.99907 -0.03011
vn 0.03834 0.99910 -0.01810
vn 0.05170 0.99866 0.00205
vn 0.04257 0.99907 -0.00716
vn 0.05108 0.99869 0.00389
vn 0.02145 0.99975 -0.00635
vn 0.01074 0.99956 -0.02770
vn 0.04165 0.99910 -0.00848
vn 0.03382 0.99943 -0.00141
vn 0.01985 0.99978 -0.00690
vn 0.04134 0.99914 -0.00271
vn 0.04418 0.99886 -0.01800
vn 0.03475 0.99904 -0.02680
vn 0.04014 0.99919 0.00065
vn 0.00869 0.99991 -0.01033
vn 0.01581 0.99987 -0.00399
vn 0.04408 0.99898 0.00995
vn 0.02805 0.99952 -0.01298
vn 0.02968 0.99947 -0.01314
vn 0.04162 0.99913 0.00185
vn 0.02764 0.99955 -0.01202
vn 0.02783 0.99943 -0.01895

f 1/1/1 2/2/2 3/3/3
f 1/1/1 3/3/3 4/4/4
f 4/4/4 3/3/3 5/5/5
f 5/5/5 3/3/3 6/6/6
f 5/5/5 6/6/6 7/7/7
f 5/5/5 7/7/7 8/8/8
f 8/8/8 7/7/7 9/9/9
f 9/9/9 7/7/7 10/10/10
f 9/9/9 10/10/10 11/11/11
f 9/9/9 11/11/11 12/12/12
f 12/12/12 11/11/11 13/13/13
f 13/13/13 11/11/11 14/14/14
f 13/13/13 14/14/14 15/15/15
f 13/13/13 15/15/15 16/16/16
f 16/16/16 15/15/15 17/17/17
f 17/17/17 15/15/15 18/18/18
f 2/2/2 19/19/19 3/3/3
f 3/3/3 19/19/19 20/20/20
f 3/3/3 20/20/20 21/21/21
f 3/3/3 21/21/21 6/6/6
f 6/6/6 21/21/21 7/7/7
f 7/7/7 21/21/21 22/22/22
f 7/7/7 22/22/22 23/23/23
f 7/7/7 23/23/23 10/10/10
f 10/10/10 23/23/23 11/11/11
f 11/11/11 23/23/23 24/24/24
f 11/11/11 24/24/24 25/25/25
f 11/11/11 25/25/25 14/14/14
f 14/14/14 25/25/25 15/15/15
f 15/15/15 25/25/25 26/26/26
f 15/15/15 26/26/26 27/27/27
f 15/15/15 27/27/27 18/18/18
f 19/19/19 28/28/28 29/29/29
f 19/19/19 29/29/29 20/20/20
f 20/20/20 29/29/29 21/21/21
f 21/21/21 29/29/29 30/30/30
f 21/21/21 30/30/30 31/31/31
f 21/21/21 31/31/31 22/22/22
f 22/22/22 31/31/31 23/23/23
f 23/23/23 31/31/31 32/32/32
f 23/23/23 32/32/32 33/33/33
f 23/23/23 33/33/33 24/24/24
f 24/24/24 33/33/33 25/25/25
f 25/25/25 33/33/33 34/34/34
f 25/25/25 34/34/34 35/35/35
f 25/25/25 35/35/35 26/26/26
f 26/26/26 35/35/35 27/27/27
f 27/27/27 35/35/35 36/36/36
f 28/28/28 37/37/37 29/29/29
f 29/29/29 37/37/37 38/38/38
f 29/29/29 38/38/38 39/39/39
f 29/29/29 39/39/39 30/30/30
f 30/30/30 39/39/39 31/31/31
f 31/31/31 39/39/39 40/40/40
f 31/31/31 40/40/40 41/41/41
f 31/31/31 41/41/41 32/32/32
f 32/32/32 41/41/41 33/33/33
f 33/33/33 41/41/41 42/42/42
f 33/33/33 42/42/42 43/43/43
f 33/33/33 43/43/43 34/34/34
f 34/34/34 43/43/43 35/35/35
f 35/35/35 43/43/43 44/44/44
f 35/35/35 44/44/44 45/45/45
f 35/35/35 45/45/45 36/36/36
f 37/37/37 46/46/46 47/47/47
f 37/37/37 47/47/47 38/38/38
f 38/38/38 47/47/47 39/39/39
f 39/39/39 47/47/47 48/48/48
f 39/39/39 48/48/48 49/49/49
f 39/39/39 49/49/49 40/40/40
f 40/40/40 49/49/49 41/41/41
f 41/41/41 49/49/49 50/50/50
f 41/41/41 50/50/50 51/51/51
f 41/41/41 51/51/51 42/42/42
f 42/42/42 51/51/51 43/43/43
f 43/43/43 51/51/51 52/52/52
f 43/43/43 52/52/52 53/53/53
f 43/43/43 53/53/53 44/44/44
f 44/44/44 53/53/53 45/45/45
f 45/45/45 53/53/53 54/54/54
f 46/46/46 55/55/55 47/47/47
f 47/47/47 55/55/55 56/56/56
f 47/47/47 56/56/56 57/57/57
f 47/47/47 57/57/57 48/48/48
f 48/48/48 57/57/57 49/49/49
f 49/49/49 57/57/57 58/58/58
f 49/49/49 58/58/58 59/59/59
f 49/49/49 59/59/59 50/50/50
f 50/50/50 59/59/59 51/51/51
f 51/51/51 59/59/59 60/60/60
f 51/51/51 60/60/60 61/61/61
f 51/51/51 61/61/61 52/52/52
f 52/52/52 61/61/61 53/53/53
f 53/53/53 61/61/61 62/62/62
f 53/53/53 62/62/62 63/63/63
f 53/53/53 63/63/63 54/54/54
f 55/55/55 64/64/64 65/65/65
f 55/55/55 65/65/65 56/56/56
f 56/56/56 65/65/65 57/57/57
f 57/57/57 65/65/65 66/66/66
f 57/57/57 66/66/66 67/67/67
f 57/57/57 67/67/67 58/58/58
f 58/58/58 67/67/67 59/59/59
f 59/59/59 67/67/67 68/68/68
f 59/59/59 68/68/68 69/69/69
f 59/59/59 69/69/69 60/60/60
f 60/60/60 69/69/69 61/61/61
f 61/61/61 69/69/69 70/70/70
f 61/61/61 70/70/70 71/71/71
f 61/61/61 71/71/71 62/62/62
f 62/62/62 71/71/71 63/63/63
f 63/63/63 71/71/71 72/72/72
f 64/64/64 73/73/73 65/65/65
f 65/65/65 73/73/73 74/74/74
f 65/65/65 74/74/74 75/75/75
f 65/65/65 75/75/75 66/66/66
f 66/66/66 75/75/75 67/67/67
f 67/67/67 75/75/75 76/76/76
f 67/67/67 76/76/76 77/77/77
f 67/67/67 77/77/77 68/68/68
f 68/68/68 77/77/77 69/69/69
f 69/69/69 77/77/77 78/78/78
f 69/69/69 78/78/78 79/79/79
f 69/69/69 79/79/79 70/70/70
f 70/70/70 79/79/79 71/71/71
f 71/71/71 79/79/79 80/80/80
f 71/71/71 80/80/80 81/81/81
f 71/71/71 81/81/81 72/72/72
