# Generated by tools/generate_island.py. Do not edit by hand.
o terrain_lod2_1_-1

v 64.000 -0.146 -64.000 0.310 0.286 0.165
v 64.000 3.465 -56.000 0.106 0.208 0.108
v 72.000 0.678 -56.000 0.327 0.304 0.176
v 72.000 0.674 -64.000 0.302 0.279 0.160
v 80.000 1.313 -64.000 0.315 0.291 0.168
v 80.000 1.281 -56.000 0.329 0.306 0.178
v 88.000 0.295 -56.000 0.424 0.397 0.232
v 88.000 0.018 -64.000 0.417 0.389 0.227
v 96.000 -1.130 -64.000 0.467 0.435 0.253
v 96.000 -0.464 -56.000 0.493 0.462 0.271
v 104.000 -1.406 -56.000 0.478 0.447 0.261
v 104.000 -1.732 -64.000 0.458 0.426 0.248
v 112.000 -2.708 -64.000 0.432 0.399 0.231
v 112.000 -1.870 -56.000 0.459 0.427 0.248
v 120.000 -2.872 -56.000 0.439 0.407 0.235
v 120.000 -3.753 -64.000 0.415 0.382 0.219
v 128.000 -4.381 -64.000 0.414 0.381 0.219
v 128.000 -3.688 -56.000 0.422 0.389 0.224
v 64.000 1.964 -48.000 0.108 0.211 0.109
v 72.000 1.492 -48.000 0.107 0.209 0.108
v 80.000 1.328 -48.000 0.106 0.209 0.109
v 88.000 0.162 -48.000 0.449 0.421 0.246
v 96.000 -0.692 -48.000 0.515 0.485 0.285
v 104.000 -1.647 -48.000 0.498 0.467 0.274
v 112.000 -2.166 -48.000 0.489 0.458 0.268
v 120.000 -2.600 -48.000 0.462 0.431 0.251
v 128.000 -3.601 -48.000 0.447 0.415 0.240
v 64.000 1.235 -40.000 0.112 0.216 0.112
v 72.000 0.777 -40.000 0.336 0.313 0.182
v 80.000 0.845 -40.000 0.339 0.316 0.184
v 88.000 -0.100 -40.000 0.388 0.363 0.213
v 96.000 -1.138 -40.000 0.432 0.404 0.236
v 104.000 -1.729 -40.000 0.450 0.421 0.246
v 112.000 -2.300 -40.000 0.462 0.431 0.251
v 120.000 -2.388 -40.000 0.449 0.417 0.242
v 128.000 -3.333 -40.000 0.429 0.396 0.229
v 64.000 0.532 -32.000 0.337 0.314 0.183
v 72.000 0.656 -32.000 0.330 0.307 0.179
v 80.000 0.188 -32.000 0.333 0.310 0.181
v 88.000 0.471 -32.000 0.353 0.331 0.194
v 96.000 -0.504 -32.000 0.356 0.334 0.195
v 104.000 -0.913 -32.000 0.349 0.325 0.190
v 112.000 -1.471 -32.000 0.364 0.338 0.196
v 120.000 -2.120 -32.000 0.397 0.367 0.212
v 128.000 -2.916 -32.000 0.427 0.394 0.227
v 64.000 -0.314 -24.000 0.299 0.275 0.158
v 72.000 0.848 -24.000 0.330 0.307 0.179
v 80.000 0.946 -24.000 0.351 0.329 0.193
v 88.000 -0.222 -24.000 0.362 0.340 0.200
v 96.000 -0.441 -24.000 0.373 0.351 0.207
v 104.000 -0.195 -24.000 0.363 0.341 0.200
v 112.000 -0.635 -24.000 0.362 0.340 0.199
v 120.000 -1.583 -24.000 0.352 0.328 0.191
v 128.000 -2.436 -24.000 0.392 0.364 0.211
v 64.000 3.299 -16.000 0.093 0.191 0.101
v 72.000 2.649 -16.000 0.109 0.215 0.112
v 80.000 1.997 -16.000 0.158 0.232 0.082
v 88.000 1.813 -16.000 0.129 0.237 0.121
v 96.000 1.475 -16.000 0.127 0.235 0.120
v 104.000 0.564 -16.000 0.375 0.353 0.208
v 112.000 -0.623 -16.000 0.378 0.356 0.210
v 120.000 -0.426 -16.000 0.358 0.336 0.197
v 128.000 -1.684 -16.000 0.361 0.338 0.198
v 64.000 2.738 -8.000 0.154 0.245 0.085
v 72.000 1.654 -8.000 0.196 0.289 0.102
v 80.000 2.112 -8.000 0.214 0.305 0.109
v 88.000 2.896 -8.000 0.215 0.300 0.108
v 96.000 2.048 -8.000 0.199 0.280 0.100
v 104.000 1.866 -8.000 0.142 0.260 0.133
v 112.000 1.168 -8.000 0.381 0.359 0.212
v 120.000 -0.744 -8.000 0.387 0.366 0.216
v 128.000 -1.028 -8.000 0.379 0.357 0.211
v 64.000 1.876 0.000 0.206 0.289 0.105
v 72.000 0.713 0.000 0.518 0.488 0.287
v 80.000 1.184 0.000 0.545 0.515 0.305
v 88.000 1.618 0.000 0.268 0.337 0.126
v 96.000 1.342 0.000 0.240 0.331 0.119
v 104.000 1.499 0.000 0.245 0.332 0.120
v 112.000 1.325 0.000 0.164 0.292 0.147
v 120.000 0.154 0.000 0.409 0.389 0.231
v 128.000 -1.040 0.000 0.405 0.385 0.228

vt 0.633333 0.633333
vt 0.633333 0.616667
vt 0.650000 0.616667
vt 0.650000 0.633333
vt 0.666667 0.633333
vt 0.666667 0.616667
vt 0.683333 0.616667
vt 0.683333 0.633333
vt 0.700000 0.633333
vt 0.700000 0.616667
vt 0.716667 0.616667
vt 0.716667 0.633333
vt 0.733333 0.633333
vt 0.733333 0.616667
vt 0.750000 0.616667
vt 0.750000 0.633333
vt 0.766667 0.633333
vt 0.766667 0.616667
vt 0.633333 0.600000
vt 0.650000 0.600000
vt 0.666667 0.600000
vt 0.683333 0.600000
vt 0.700000 0.600000
vt 0.716667 0.600000
vt 0.733333 0.600000
vt 0.750000 0.600000
vt 0.766667 0.600000
vt 0.633333 0.583333
vt 0.650000 0.583333
vt 0.666667 0.583333
vt 0.683333 0.583333
vt 0.700000 0.583333
vt 0.716667 0.583333
vt 0.733333 0.583333
vt 0.750000 0.583333
vt 0.766667 0.583333
vt 0.633333 0.566667
vt 0.650000 0.566667
vt 0.666667 0.566667
vt 0.683333 0.566667
vt 0.700000 0.566667
vt 0.716667 0.566667
vt 0.733333 0.566667
vt 0.750000 0.566667
vt 0.766667 0.566667
vt 0.633333 0.550000
vt 0.650000 0.550000
vt 0.666667 0.550000
vt 0.683333 0.550000
vt 0.700000 0.550000
vt 0.716667 0.550000
vt 0.733333 0.550000
vt 0.750000 0.550000
vt 0.766667 0.550000
vt 0.633333 0.533333
vt 0.650000 0.533333
vt 0.666667 0.533333
vt 0.683333 0.533333
vt 0.700000 0.533333
vt 0.716667 0.533333
vt 0.733333 0.533333
vt 0.750000 0.533333
vt 0.766667 0.533333
vt 0.633333 0.516667
vt 0.650000 0.516667
vt 0.666667 0.516667
vt 0.683333 0.516667
vt 0.700000 0.516667
vt 0.716667 0.516667
vt 0.733333 0.516667
vt 0.750000 0.516667
vt 0.766667 0.516667
vt 0.633333 0.500000
vt 0.650000 0.500000
vt 0.666667 0.500000
vt 0.683333 0.500000
vt 0.700000 0.500000
vt 0.716667 0.500000
vt 0.733333 0.500000
vt 0.750000 0.500000
vt 0.766667 0.500000

vn 0.11907 0.96847 -0.21883
vn 0.32647 0.93709 -0.12357
vn 0.05520 0.99675 -0.05859
vn -0.09085 0.99586 -0.00051
vn 0.03241 0.99945 -0.00673
vn 0.02390 0.99971 -0.00093
vn 0.12330 0.99230 -0.01147
vn 0.15086 0.98796 -0.03420
vn 0.10706 0.99244 -0.06001
vn 0.10571 0.99403 -0.02720
vn 0.09125 0.99567 -0.01788
vn 0.09810 0.99435 -0.04051
vn 0.10788 0.99015 -0.08922
vn 0.09118 0.99526 -0.03371
vn 0.10461 0.99292 -0.05629
vn 0.10338 0.98867 -0.10885
vn 0.08946 0.99120 -0.09754
vn 0.10130 0.99367 -0.04848
vn 0.12950 0.98939 0.06588
vn 0.03968 0.99919 -0.00617
vn 0.06112 0.99796 0.01822
vn 0.12523 0.99182 0.02449
vn 0.10789 0.99365 0.03208
vn 0.09174 0.99558 0.02007
vn 0.06284 0.99796 0.01090
vn 0.08924 0.99555 -0.03011
vn 0.11673 0.99282 -0.02600
vn 0.05702 0.99440 0.08895
vn 0.02745 0.99743 0.06615
vn 0.05456 0.99598 0.07099
vn 0.10377 0.99459 0.00519
vn 0.10128 0.99479 -0.01168
vn 0.07420 0.99657 -0.03661
vn 0.04113 0.99821 -0.04339
vn 0.07700 0.99637 -0.03642
vn 0.11724 0.99220 -0.04246
vn -0.02969 0.99849 0.04612
vn 0.02153 0.99976 -0.00448
vn 0.03617 0.99934 -0.00237
vn 0.04321 0.99904 0.00762
vn 0.06808 0.99672 -0.04368
vn 0.06003 0.99364 -0.09523
vn 0.06925 0.99371 -0.08801
vn 0.08984 0.99470 -0.05008
vn 0.10519 0.99305 -0.05286
vn -0.14177 0.97543 -0.16866
vn -0.01353 0.99108 -0.13258
vn 0.06632 0.99148 -0.11210
vn 0.06188 0.99302 -0.10042
vn -0.00165 0.99244 -0.12274
vn 0.05365 0.99451 -0.08984
vn 0.08626 0.99488 -0.05272
vn 0.09465 0.99190 -0.08475
vn 0.10571 0.99146 -0.07632
vn 0.03788 0.99210 -0.11961
vn 0.08102 0.99545 -0.05010
vn 0.02330 0.99499 -0.09724
vn 0.03202 0.98103 -0.19119
vn 0.05397 0.98620 -0.15652
vn 0.12894 0.98352 -0.12672
vn 0.09251 0.99061 -0.10070
vn 0.06609 0.99645 -0.05221
vn 0.11316 0.99114 -0.06957
vn 0.13385 0.98710 0.08780
vn 0.05046 0.99421 0.09488
vn -0.07733 0.99572 0.05061
vn 0.00768 0.99975 0.02089
vn 0.06424 0.99790 0.00829
vn 0.06033 0.99653 -0.05738
vn 0.15987 0.97990 -0.11929
vn 0.12105 0.99095 -0.05809
vn 0.03541 0.99856 -0.04018
vn 0.13822 0.98417 0.11089
vn 0.04293 0.99225 0.11660
vn -0.06641 0.98980 0.12603
vn -0.00976 0.98742 0.15779
vn 0.03571 0.99483 0.09506
vn 0.00106 0.99895 0.04582
vn 0.12263 0.99211 -0.02621
vn 0.14534 0.98320 -0.11044
vn 0.09187 0.99425 -0.05506

f 1/1/1 2/2/2 3/3/3
f 1/1/1 3/3/3 4/4/4
f 4/4/4 3/3/3 5/5/5
f 5/5/5 3/3/3 6/6/6
f 5/5/5 6/6/6 7/7/7
f 5/5/5 7/7/7 8/8/8
f 8/8/8 7/7/7 9/9/9
f 9/9/9 7/7/7 10/10/10
f 9/9/9 10/10/10 11/11/11
f 9/9/9 11/11/11 12/12/12
f 12/12/12 11/11/11 13/13/13
f 13/13/13 11/11/11 14/14/14
f 13/13/13 14/14/14 15/15/15
f 13/13/13 15/15/15 16/16/16
f 16/16/16 15/15/15 17/17/17
f 17/17/17 15/15/15 18/18/18
f 2/2/2 19/19/19 3/3/3
f 3/3/3 19/19/19 20/20/20
f 3/3/3 20/20/20 21/21/21
f 3/3/3 21/21/21 6/6/6
f 6/6/6 21/21/21 7/7/7
f 7/7/7 21/21/21 22/22/22
f 7/7/7 22/22/22 23/23/23
f 7/7/7 23/23/23 10/10/10
f 10/10/10 23/23/23 11/11/11
f 11/11/11 23/23/23 24/24/24
f 11/11/11 24/24/24 25/25/25
f 11/11/11 25/25/25 14/14/14
f 14/14/14 25/25/25 15/15/15
f 15/15/15 25/25/25 26/26/26
f 15/15/15 26/26/26 27/27/27
f 15/15/15 27/27/27 18/18/18
f 19/19/19 28/28/28 29/29/29
f 19/19/19 29/29/29 20/20/20
f 20/20/20 29/29/29 21/21/21
f 21/21/21 29/29/29 30/30/30
f 21/21/21 30/30/30 31/31/31
f 21/21/21 31/31/31 22/22/22
f 22/22/22 31/31/31 23/23/23
f 23/23/23 31/31/31 32/32/32
f 23/23/23 32/32/32 33/33/33
f 23/23/23 33/33/33 24/24/24
f 24/24/24 33/33/33 25/25/25
f 25/25/25 33/33/33 34/34/34
f 25/25/25 34/34/34 35/35/35
f 25/25/25 35/35/35 26/26/26
f 26/26/26 35/35/35 27/27/27
f 27/27/27 35/35/35 36/36/36
f 28/28/28 37/37/37 29/29/29
f 29/29/29 37/37/37 38/38/38
f 29/29/29 38/38/38 39/39/39
f 29/29/29 39/39/39 30/30/30
f 30/30/30 39/39/39 31/31/31
f 31/31/31 39/39/39 40/40/40
f 31/31/31 40/40/40 41/41/41
f 31/31/31 41/41/41 32/32/32
f 32/32/32 41/41/41 33/33/33
f 33/33/33 41/41/41 42/42/42
f 33/33/33 42/42/42 43/43/43
f 33/33/33 43/43/43 34/34/34
f 34/34/34 43/43/43 35/35/35
f 35/35/35 43/43/43 44/44/44
f 35/35/35 44/44/44 45/45/45
f 35/35/35 45/45/45 36/36/36
f 37/37/37 46/46/46 47/47/47
f 37/37/37 47/47/47 38/38/38
f 38/38/38 47/47/47 39/39/39
f 39/39/39 47/47/47 48/48/48
f 39/39/39 48/48/48 49/49/49
f 39/39/39 49/49/49 40/40/40
f 40/40/40 49/49/49 41/41/41
f 41/41/41 49/49/49 50/50/50
f 41/41/41 50/50/50 51/51/51
f 41/41/41 51/51/51 42/42/42
f 42/42/42 51/51/51 43/43/43
f 43/43/43 51/51/51 52/52/52
f 43/43/43 52/52/52 53/53/53
f 43/43/43 53/53/53 44/44/44
f 44/44/44 53/53/53 45/45/45
f 45/45/45 53/53/53 54/54/54
f 46/46/46 55/55/55 47/47/47
f 47/47/47 55/55/55 56/56/56
f 47/47/47 56/56/56 57/57/57
f 47/47/47 57/57/57 48/48/48
f 48/48/48 57/57/57 49/49/49
f 49/49/49 57/57/57 58/58/58
f 49/49/49 58/58/58 59/59/59
f 49/49/49 59/59/59 50/50/50
f 50/50/50 59/59/59 51/51/51
f 51/51/51 59/59/59 60/60/60
f 51/51/51 60/60/60 61/61/61
f 51/51/51 61/61/61 52/52/52
f 52/52/52 61/61/61 53/53/53
f 53/53/53 61/61/61 62/62/62
f 53/53/53 62/62/62 63/63/63
f 53/53/53 63/63/63 54/54/54
f 55/55/55 64/64/64 65/65/65
f 55/55/55 65/65/65 56/56/56
f 56/56/56 65/65/65 57/57/57
f 57/57/57 65/65/65 66/66/66
f 57/57/57 66/66/66 67/67/67
f 57/57/57 67/67/67 58/58/58
f 58/58/58 67/67/67 59/59/59
f 59/59/59 67/67/67 68/68/68
f 59/59/59 68/68/68 69/69/69
f 59/59/59 69/69/69 60/60/60
f 60/60/60 69/69/69 61/61/61
f 61/61/61 69/69/69 70/70/70
f 61/61/61 70/70/70 71/71/71
f 61/61/61 71/71/71 62/62/62
f 62/62/62 71/71/71 63/63/63
f 63/63/63 71/71/71 72/72/72
f 64/64/64 73/73/73 65/65/65
f 65/65/65 73/73/73 74/74/74
f 65/65/65 74/74/74 75/75/75
f 65/65/65 75/75/75 66/66/66
f 66/66/66 75/75/75 67/67/67
f 67/67/67 75/75/75 76/76/76
f 67/67/67 76/76/76 77/77/77
f 67/67/67 77/77/77 68/68/68
f 68/68/68 77/77/77 69/69/69
f 69/69/69 77/77/77 78/78/78
f 69/69/69 78/78/78 79/79/79
f 69/69/69 79/79/79 70/70/70
f 70/70/70 79/79/79 71/71/71
f 71/71/71 79/79/79 80/80/80
f 71/71/71 80/80/80 81/81/81
f 71/71/71 81/81/81 72/72/72
