# Generated by tools/generate_island.py. Do not edit by hand.
o terrain_lod2_-2_0

v -128.000 3.446 0.000 0.234 0.311 0.115
v -128.000 2.882 8.000 0.232 0.309 0.114
v -120.000 5.032 8.000 0.309 0.331 0.246
v -120.000 7.908 0.000 0.304 0.327 0.243
v -112.000 14.764 0.000 0.290 0.317 0.235
v -112.000 12.380 8.000 0.303 0.326 0.243
v -104.000 18.551 8.000 0.267 0.300 0.221
v -104.000 17.744 0.000 0.271 0.303 0.223
v -96.000 17.928 0.000 0.263 0.297 0.219
v -96.000 18.338 8.000 0.271 0.302 0.223
v -88.000 14.509 8.000 0.245 0.283 0.207
v -88.000 16.342 0.000 0.248 0.286 0.209
v -80.000 10.997 0.000 0.247 0.285 0.209
v -80.000 7.692 8.000 0.234 0.275 0.201
v -72.000 6.114 8.000 0.225 0.269 0.195
v -72.000 8.266 0.000 0.232 0.274 0.200
v -64.000 8.142 0.000 0.216 0.262 0.190
v -64.000 4.683 8.000 0.148 0.244 0.086
v -128.000 1.739 16.000 0.208 0.291 0.106
v -120.000 3.111 16.000 0.199 0.284 0.103
v -112.000 7.829 16.000 0.286 0.313 0.232
v -104.000 14.040 16.000 0.279 0.308 0.228
v -96.000 12.590 16.000 0.261 0.295 0.217
v -88.000 9.144 16.000 0.248 0.286 0.209
v -80.000 4.425 16.000 0.136 0.234 0.082
v -72.000 3.260 16.000 0.138 0.236 0.083
v -64.000 2.789 16.000 0.142 0.239 0.084
v -128.000 1.073 24.000 0.418 0.385 0.221
v -120.000 1.389 24.000 0.186 0.274 0.099
v -112.000 3.120 24.000 0.181 0.270 0.097
v -104.000 6.464 24.000 0.280 0.309 0.229
v -96.000 5.688 24.000 0.258 0.293 0.216
v -88.000 4.545 24.000 0.153 0.248 0.088
v -80.000 2.354 24.000 0.141 0.239 0.084
v -72.000 1.708 24.000 0.136 0.235 0.082
v -64.000 1.899 24.000 0.141 0.238 0.084
v -128.000 0.338 32.000 0.400 0.366 0.209
v -120.000 0.615 32.000 0.422 0.389 0.224
v -112.000 1.633 32.000 0.180 0.269 0.097
v -104.000 3.023 32.000 0.202 0.286 0.104
v -96.000 3.273 32.000 0.181 0.269 0.097
v -88.000 1.784 32.000 0.159 0.252 0.090
v -80.000 1.291 32.000 0.151 0.247 0.087
v -72.000 2.478 32.000 0.154 0.249 0.088
v -64.000 2.351 32.000 0.150 0.246 0.087
v -128.000 0.351 40.000 0.384 0.350 0.199
v -120.000 0.221 40.000 0.397 0.364 0.208
v -112.000 1.323 40.000 0.165 0.257 0.092
v -104.000 2.752 40.000 0.179 0.268 0.096
v -96.000 3.160 40.000 0.184 0.272 0.098
v -88.000 1.635 40.000 0.186 0.273 0.099
v -80.000 0.881 40.000 0.443 0.411 0.238
v -72.000 3.019 40.000 0.196 0.281 0.102
v -64.000 4.018 40.000 0.205 0.288 0.105
v -128.000 -0.210 48.000 0.366 0.331 0.187
v -120.000 0.037 48.000 0.362 0.327 0.185
v -112.000 0.961 48.000 0.403 0.369 0.211
v -104.000 2.919 48.000 0.188 0.275 0.099
v -96.000 3.875 48.000 0.206 0.289 0.105
v -88.000 5.006 48.000 0.311 0.332 0.248
v -80.000 4.879 48.000 0.207 0.290 0.106
v -72.000 6.218 48.000 0.300 0.324 0.241
v -64.000 5.622 48.000 0.310 0.331 0.247
v -128.000 -0.619 56.000 0.361 0.326 0.184
v -120.000 -0.011 56.000 0.361 0.326 0.184
v -112.000 0.483 56.000 0.376 0.341 0.193
v -104.000 2.004 56.000 0.193 0.279 0.101
v -96.000 3.116 56.000 0.228 0.306 0.113
v -88.000 4.006 56.000 0.244 0.319 0.118
v -80.000 6.789 56.000 0.305 0.327 0.244
v -72.000 6.921 56.000 0.290 0.316 0.235
v -64.000 4.612 56.000 0.202 0.286 0.104
v -128.000 -0.405 64.000 0.377 0.342 0.194
v -120.000 0.129 64.000 0.361 0.326 0.184
v -112.000 0.213 64.000 0.388 0.354 0.202
v -104.000 1.071 64.000 0.427 0.395 0.228
v -96.000 1.134 64.000 0.469 0.437 0.255
v -88.000 0.886 64.000 0.486 0.455 0.266
v -80.000 2.596 64.000 0.229 0.307 0.113
v -72.000 4.652 64.000 0.206 0.289 0.105
v -64.000 3.121 64.000 0.205 0.288 0.105

vt 0.300000 0.500000
vt 0.300000 0.487500
vt 0.312500 0.487500
vt 0.312500 0.500000
vt 0.325000 0.500000
vt 0.325000 0.487500
vt 0.337500 0.487500
vt 0.337500 0.500000
vt 0.350000 0.500000
vt 0.350000 0.487500
vt 0.362500 0.487500
vt 0.362500 0.500000
vt 0.375000 0.500000
vt 0.375000 0.487500
vt 0.387500 0.487500
vt 0.387500 0.500000
vt 0.400000 0.500000
vt 0.400000 0.487500
vt 0.300000 0.475000
vt 0.312500 0.475000
vt 0.325000 0.475000
vt 0.337500 0.475000
vt 0.350000 0.475000
vt 0.362500 0.475000
vt 0.375000 0.475000
vt 0.387500 0.475000
vt 0.400000 0.475000
vt 0.300000 0.462500
vt 0.312500 0.462500
vt 0.325000 0.462500
vt 0.337500 0.462500
vt 0.350000 0.462500
vt 0.362500 0.462500
vt 0.375000 0.462500
vt 0.387500 0.462500
vt 0.400000 0.462500
vt 0.300000 0.450000
vt 0.312500 0.450000
vt 0.325000 0.450000
vt 0.337500 0.450000
vt 0.350000 0.450000
vt 0.362500 0.450000
vt 0.375000 0.450000
vt 0.387500 0.450000
vt 0.400000 0.450000
vt 0.300000 0.437500
vt 0.312500 0.437500
vt 0.325000 0.437500
vt 0.337500 0.437500
vt 0.350000 0.437500
vt 0.362500 0.437500
vt 0.375000 0.437500
vt 0.387500 0.437500
vt 0.400000 0.437500
vt 0.300000 0.425000
vt 0.312500 0.425000
vt 0.325000 0.425000
vt 0.337500 0.425000
vt 0.350000 0.425000
vt 0.362500 0.425000
vt 0.375000 0.425000
vt 0.387500 0.425000
vt 0.400000 0.425000
vt 0.300000 0.412500
vt 0.312500 0.412500
vt 0.325000 0.412500
vt 0.337500 0.412500
vt 0.350000 0.412500
vt 0.362500 0.412500
vt 0.375000 0.412500
vt 0.387500 0.412500
vt 0.400000 0.412500
vt 0.300000 0.400000
vt 0.312500 0.400000
vt 0.325000 0.400000
vt 0.337500 0.400000
vt 0.350000 0.400000
vt 0.362500 0.400000
vt 0.375000 0.400000
vt 0.387500 0.400000
vt 0.400000 0.400000

vn -0.37464 0.90645 0.19490
vn -0.25824 0.96063 0.10249
vn -0.47993 0.84372 0.24041
vn -0.55414 0.78334 0.28161
vn -0.58094 0.79597 0.17009
vn -0.61269 0.72513 0.31432
vn -0.28411 0.91644 0.28181
vn -0.19301 0.97624 -0.09846
vn 0.16775 0.98581 0.00633
vn 0.23307 0.92249 0.30772
vn 0.46543 0.81864 0.33646
vn 0.38896 0.89799 0.20574
vn 0.43901 0.85294 0.28241
vn 0.43663 0.83217 0.34182
vn 0.15351 0.93475 0.32042
vn 0.16981 0.95163 0.25605
vn 0.09131 0.93970 0.32957
vn 0.16720 0.93497 0.31284
vn -0.15854 0.97333 0.16582
vn -0.34794 0.91412 0.20813
vn -0.48679 0.77017 0.41217
vn -0.23104 0.77632 0.58648
vn 0.19412 0.78860 0.58346
vn 0.39751 0.77892 0.48505
vn 0.31737 0.88308 0.34560
vn 0.09815 0.95947 0.26418
vn 0.06638 0.97353 0.21872
vn -0.03934 0.99542 0.08711
vn -0.17331 0.96635 0.19008
vn -0.28362 0.89424 0.34627
vn -0.15365 0.85228 0.50002
vn 0.10307 0.85956 0.50053
vn 0.23507 0.89469 0.37982
vn 0.17143 0.96683 0.18936
vn 0.02314 0.99653 0.07995
vn -0.02384 0.99934 0.02734
vn -0.02303 0.99800 0.05895
vn -0.08044 0.99411 0.07259
vn -0.18895 0.97349 0.12887
vn -0.09937 0.96931 0.22484
vn 0.08443 0.98025 0.17883
vn 0.12098 0.97663 0.17763
vn 0.00103 0.99749 0.07081
vn -0.06584 0.99450 -0.08147
vn -0.02905 0.99389 -0.10652
vn 0.01629 0.99928 0.03426
vn -0.06869 0.99695 0.03702
vn -0.15615 0.98686 0.04147
vn -0.12752 0.99183 0.00432
vn 0.06961 0.99687 -0.03748
vn 0.08502 0.98291 -0.16329
vn -0.08409 0.97232 -0.21800
vn -0.12220 0.96850 -0.21698
vn -0.12144 0.97249 -0.19881
vn -0.03033 0.99883 0.03754
vn -0.07298 0.99723 0.01447
vn -0.15892 0.98644 0.04101
vn -0.17899 0.98278 0.04598
vn -0.07880 0.99660 -0.02387
vn -0.06195 0.98730 -0.14632
vn -0.10055 0.95743 -0.27059
vn -0.04506 0.97054 -0.23669
vn 0.07721 0.98732 -0.13872
vn -0.07579 0.99705 0.01216
vn -0.06229 0.99799 0.01183
vn -0.12482 0.99110 0.04631
vn -0.13990 0.98398 0.11046
vn -0.12243 0.97822 0.16759
vn -0.14847 0.96834 0.20068
vn -0.17747 0.97426 0.13898
vn 0.04780 0.99130 0.12260
vn 0.27420 0.95014 0.14852
vn -0.07121 0.99722 -0.02209
vn -0.03862 0.99910 -0.01753
vn -0.09193 0.99490 0.04144
vn -0.05705 0.99165 0.11565
vn -0.05503 0.96855 0.24265
vn -0.08486 0.92830 0.36203
vn -0.18831 0.90209 0.38828
vn -0.03151 0.96158 0.27272
vn 0.22751 0.94795 0.22279

f 1/1/1 2/2/2 3/3/3
f 1/1/1 3/3/3 4/4/4
f 4/4/4 3/3/3 5/5/5
f 5/5/5 3/3/3 6/6/6
f 5/5/5 6/6/6 7/7/7
f 5/5/5 7/7/7 8/8/8
f 8/8/8 7/7/7 9/9/9
f 9/9/9 7/7/7 10/10/10
f 9/9/9 10/10/10 11/11/11
f 9/9/9 11/11/11 12/12/12
f 12/12/12 11/11/11 13/13/13
f 13/13/13 11/11/11 14/14/14
f 13/13/13 14/14/14 15/15/15
f 13/13/13 15/15/15 16/16/16
f 16/16/16 15/15/15 17/17/17
f 17/17/17 15/15/15 18/18/18
f 2/2/2 19/19/19 3/3/3
f 3/3/3 19/19/19 20/20/20
f 3/3/3 20/20/20 21/21/21
f 3/3/3 21/21/21 6/6/6
f 6/6/6 21/21/21 7/7/7
f 7/7/7 21/21/21 22/22/22
f 7/7/7 22/22/22 23/23/23
f 7/7/7 23/23/23 10/10/10
f 10/10/10 23/23/23 11/11/11
f 11/11/11 23/23/23 24/24/24
f 11/11/11 24/24/24 25/25/25
f 11/11/11 25/25/25 14/14/14
f 14/14/14 25/25/25 15/15/15
f 15/15/15 25/25/25 26/26/26
f 15/15/15 26/26/26 27/27/27
f 15/15/15 27/27/27 18/18/18
f 19/19/19 28/28/28 29/29/29
f 19/19/19 29/29/29 20/20/20
f 20/20/20 29/29/29 21/21/21
f 21/21/21 29/29/29 30/30/30
f 21/21/21 30/30/30 31/31/31
f 21/21/21 31/31/31 22/22/22
f 22/22/22 31/31/31 23/23/23
f 23/23/23 31/31/31 32/32/32
f 23/23/23 32/32/32 33/33/33
f 23/23/23 33/33/33 24/24/24
f 24/24/24 33/33/33 25/25/25
f 25/25/25 33/33/33 34/34/34
f 25/25/25 34/34/34 35/35/35
f 25/25/25 35/35/35 26/26/26
f 26/26/26 35/35/35 27/27/27
f 27/27/27 35/35/35 36/36/36
f 28/28/28 37/37/37 29/29/29
f 29/29/29 37/37/37 38/38/38
f 29/29/29 38/38/38 39/39/39
f 29/29/29 39/39/39 30/30/30
f 30/30/30 39/39/39 31/31/31
f 31/31/31 39/39/39 40/40/40
f 31/31/31 40/40/40 41/41/41
f 31/31/31 41/41/41 32/32/32
f 32/32/32 41/41/41 33/33/33
f 33/33/33 41/41/41 42/42/42
f 33/33/33 42/42/42 43/43/43
f 33/33/33 43/43/43 34/34/34
f 34/34/34 43/43/43 35/35/35
f 35/35/35 43/43/43 44/44/44
f 35/35/35 44/44/44 45/45/45
f 35/35/35 45/45/45 36/36/36
f 37/37/37 46/46/46 47/47/47
f 37/37/37 47/47/47 38/38/38
f 38/38/38 47/47/47 39/39/39
f 39/39/39 47/47/47 48/48/48
f 39/39/39 48/48/48 49/49/49
f 39/39/39 49/49/49 40/40/40
f 40/40/40 49/49/49 41/41/41
f 41/41/41 49/49/49 50/50/50
f 41/41/41 50/50/50 51/51/51
f 41/41/41 51/51/51 42/42/42
f 42/42/42 51/51/51 43/43/43
f 43/43/43 51/51/51 52/52/52
f 43/43/43 52/52/52 53/53/53
f 43/43/43 53/53/53 44/44/44
f 44/44/44 53/53/53 45/45/45
f 45/45/45 53/53/53 54/54/54
f 46/46/46 55/55/55 47/47/47
f 47/47/47 55/55/55 56/56/56
f 47/47/47 56/56/56 57/57/57
f 47/47/47 57/57/57 48/48/48
f 48/48/48 57/57/57 49/49/49
f 49/49/49 57/57/57 58/58/58
f 49/49/49 58/58/58 59/59/59
f 49/49/49 59/59/59 50/50/50
f 50/50/50 59/59/59 51/51/51
f 51/51/51 59/59/59 60/60/60
f 51/51/51 60/60/60 61/61/61
f 51/51/51 61/61/61 52/52/52
f 52/52/52 61/61/61 53/53/53
f 53/53/53 61/61/61 62/62/62
f 53/53/53 62/62/62 63/63/63
f 53/53/53 63/63/63 54/54/54
f 55/55/55 64/64/64 65/65/65
f 55/55/55 65/65/65 56/56/56
f 56/56/56 65/65/65 57/57/57
f 57/57/57 65/65/65 66/66/66
f 57/57/57 66/66/66 67/67/67
f 57/57/57 67/67/67 58/58/58
f 58/58/58 67/67/67 59/59/59
f 59/59/59 67/67/67 68/68/68
f 59/59/59 68/68/68 69/69/69
f 59/59/59 69/69/69 60/60/60
f 60/60/60 69/69/69 61/61/61
f 61/61/61 69/69/69 70/70/70
f 61/61/61 70/70/70 71/71/71
f 61/61/61 71/71/71 62/62/62
f 62/62/62 71/71/71 63/63/63
f 63/63/63 71/71/71 72/72/72
f 64/64/64 73/73/73 65/65/65
f 65/65/65 73/73/73 74/74/74
f 65/65/65 74/74/74 75/75/75
f 65/65/65 75/75/75 66/66/66
f 66/66/66 75/75/75 67/67/67
f 67/67/67 75/75/75 76/76/76
f 67/67/67 76/76/76 77/77/77
f 67/67/67 77/77/77 68/68/68
f 68/68/68 77/77/77 69/69/69
f 69/69/69 77/77/77 78/78/78
f 69/69/69 78/78/78 79/79/79
f 69/69/69 79/79/79 70/70/70
f 70/70/70 79/79/79 71/71/71
f 71/71/71 79/79/79 80/80/80
f 71/71/71 80/80/80 81/81/81
f 71/71/71 81/81/81 72/72/72
