# Generated by tools/generate_island.py. Do not edit by hand.
o terrain_lod2_2_1

v 256.000 -0.860 128.000 0.383 0.354 0.204
v 256.000 0.546 144.000 0.396 0.364 0.209
v 272.000 0.522 144.000 0.366 0.339 0.196
v 272.000 0.192 128.000 0.354 0.330 0.192
v 288.000 0.688 128.000 0.366 0.344 0.202
v 288.000 0.915 144.000 0.133 0.268 0.064
v 304.000 0.951 144.000 0.145 0.282 0.067
v 304.000 -0.694 128.000 0.373 0.351 0.207
v 320.000 -0.255 128.000 0.390 0.369 0.218
v 320.000 -1.157 144.000 0.356 0.334 0.196
v 336.000 0.377 144.000 0.361 0.339 0.199
v 336.000 0.903 128.000 0.166 0.307 0.074
v 352.000 1.383 128.000 0.138 0.256 0.131
v 352.000 0.182 144.000 0.360 0.337 0.197
v 368.000 0.717 144.000 0.446 0.421 0.248
v 368.000 1.210 128.000 0.155 0.291 0.150
v 384.000 1.194 128.000 0.177 0.327 0.167
v 384.000 1.200 144.000 0.186 0.336 0.171
v 256.000 0.888 160.000 0.151 0.293 0.152
v 272.000 1.887 160.000 0.132 0.260 0.135
v 288.000 1.564 160.000 0.140 0.283 0.068
v 304.000 1.551 160.000 0.146 0.283 0.068
v 320.000 -0.678 160.000 0.355 0.332 0.195
v 336.000 -0.371 160.000 0.357 0.335 0.196
v 352.000 0.915 160.000 0.153 0.291 0.070
v 368.000 1.308 160.000 0.148 0.269 0.137
v 384.000 1.815 160.000 0.187 0.332 0.168
v 256.000 1.223 176.000 0.128 0.264 0.139
v 272.000 0.926 176.000 0.129 0.262 0.137
v 288.000 1.215 176.000 0.107 0.221 0.116
v 304.000 0.882 176.000 0.129 0.263 0.063
v 320.000 0.086 176.000 0.319 0.296 0.171
v 336.000 -1.176 176.000 0.352 0.330 0.193
v 352.000 0.846 176.000 0.366 0.344 0.202
v 368.000 0.703 176.000 0.396 0.374 0.221
v 384.000 0.588 176.000 0.489 0.464 0.276
v 256.000 -0.188 192.000 0.385 0.351 0.200
v 272.000 -0.351 192.000 0.426 0.394 0.227
v 288.000 1.575 192.000 0.115 0.238 0.125
v 304.000 1.712 192.000 0.104 0.239 0.057
v 320.000 -0.056 192.000 0.315 0.291 0.169
v 336.000 -0.702 192.000 0.341 0.319 0.186
v 352.000 -0.458 192.000 0.356 0.334 0.196
v 368.000 0.638 192.000 0.367 0.345 0.203
v 384.000 1.841 192.000 0.151 0.273 0.139
v 256.000 0.746 208.000 0.441 0.408 0.236
v 272.000 0.263 208.000 0.424 0.391 0.225
v 288.000 0.796 208.000 0.453 0.422 0.246
v 304.000 1.183 208.000 0.130 0.250 0.129
v 320.000 1.615 208.000 0.139 0.275 0.066
v 336.000 0.514 208.000 0.372 0.351 0.206
v 352.000 -1.649 208.000 0.375 0.353 0.208
v 368.000 0.859 208.000 0.360 0.338 0.198
v 384.000 0.954 208.000 0.170 0.317 0.076
v 256.000 0.005 224.000 0.469 0.437 0.255
v 272.000 1.238 224.000 0.152 0.295 0.153
v 288.000 1.967 224.000 0.141 0.280 0.146
v 304.000 1.734 224.000 0.149 0.280 0.144
v 320.000 0.762 224.000 0.396 0.373 0.220
v 336.000 0.888 224.000 0.160 0.300 0.072
v 352.000 -2.108 224.000 0.356 0.334 0.196
v 368.000 -0.385 224.000 0.365 0.343 0.202
v 384.000 0.906 224.000 0.156 0.294 0.071
v 256.000 1.180 240.000 0.170 0.318 0.163
v 272.000 2.352 240.000 0.152 0.295 0.153
v 288.000 0.710 240.000 0.437 0.405 0.234
v 304.000 -0.066 240.000 0.426 0.396 0.230
v 320.000 -0.019 240.000 0.392 0.367 0.215
v 336.000 0.019 240.000 0.372 0.350 0.206
v 352.000 -0.449 240.000 0.383 0.361 0.213
v 368.000 -2.717 240.000 0.380 0.359 0.212
v 384.000 0.204 240.000 0.374 0.353 0.208
v 256.000 2.029 256.000 0.179 0.329 0.168
v 272.000 1.949 256.000 0.167 0.314 0.161
v 288.000 0.867 256.000 0.444 0.412 0.238
v 304.000 0.408 256.000 0.403 0.370 0.212
v 320.000 -0.381 256.000 0.369 0.340 0.196
v 336.000 -0.876 256.000 0.378 0.355 0.208
v 352.000 0.333 256.000 0.357 0.335 0.196
v 368.000 -3.224 256.000 0.370 0.349 0.205
v 384.000 -1.699 256.000 0.376 0.354 0.209

vt 0.633333 0.433333
vt 0.633333 0.425000
vt 0.641667 0.425000
vt 0.641667 0.433333
vt 0.650000 0.433333
vt 0.650000 0.425000
vt 0.658333 0.425000
vt 0.658333 0.433333
vt 0.666667 0.433333
vt 0.666667 0.425000
vt 0.675000 0.425000
vt 0.675000 0.433333
vt 0.683333 0.433333
vt 0.683333 0.425000
vt 0.691667 0.425000
vt 0.691667 0.433333
vt 0.700000 0.433333
vt 0.700000 0.425000
vt 0.633333 0.416667
vt 0.641667 0.416667
vt 0.650000 0.416667
vt 0.658333 0.416667
vt 0.666667 0.416667
vt 0.675000 0.416667
vt 0.683333 0.416667
vt 0.691667 0.416667
vt 0.700000 0.416667
vt 0.633333 0.408333
vt 0.641667 0.408333
vt 0.650000 0.408333
vt 0.658333 0.408333
vt 0.666667 0.408333
vt 0.675000 0.408333
vt 0.683333 0.408333
vt 0.691667 0.408333
vt 0.700000 0.408333
vt 0.633333 0.400000
vt 0.641667 0.400000
vt 0.650000 0.400000
vt 0.658333 0.400000
vt 0.666667 0.400000
vt 0.675000 0.400000
vt 0.683333 0.400000
vt 0.691667 0.400000
vt 0.700000 0.400000
vt 0.633333 0.391667
vt 0.641667 0.391667
vt 0.650000 0.391667
vt 0.658333 0.391667
vt 0.666667 0.391667
vt 0.675000 0.391667
vt 0.683333 0.391667
vt 0.691667 0.391667
vt 0.700000 0.391667
vt 0.633333 0.383333
vt 0.641667 0.383333
vt 0.650000 0.383333
vt 0.658333 0.383333
vt 0.666667 0.383333
vt 0.675000 0.383333
vt 0.683333 0.383333
vt 0.691667 0.383333
vt 0.700000 0.383333
vt 0.633333 0.375000
vt 0.641667 0.375000
vt 0.650000 0.375000
vt 0.658333 0.375000
vt 0.666667 0.375000
vt 0.675000 0.375000
vt 0.683333 0.375000
vt 0.691667 0.375000
vt 0.700000 0.375000
vt 0.633333 0.366667
vt 0.641667 0.366667
vt 0.650000 0.366667
vt 0.658333 0.366667
vt 0.666667 0.366667
vt 0.675000 0.366667
vt 0.683333 0.366667
vt 0.691667 0.366667
vt 0.700000 0.366667

vn -0.03204 0.99802 -0.05417
vn 0.00152 0.99851 -0.05454
vn -0.02310 0.99863 -0.04692
vn -0.04830 0.99862 -0.02062
vn 0.00713 0.99925 -0.03794
vn -0.01340 0.99954 -0.02738
vn 0.05712 0.99762 -0.03853
vn 0.02930 0.99433 -0.10222
vn -0.01598 0.99982 0.01069
vn 0.01792 0.99975 0.01319
vn -0.04610 0.99858 0.02682
vn -0.05112 0.99815 0.03278
vn -0.01008 0.99852 0.05337
vn -0.01061 0.99984 0.01464
vn -0.02145 0.99977 -0.00274
vn 0.00592 0.99951 0.03077
vn -0.01458 0.99978 0.01521
vn -0.03014 0.99936 -0.01940
vn -0.02617 0.99951 -0.01688
vn -0.02112 0.99970 -0.01262
vn 0.00223 0.99997 -0.00731
vn 0.06988 0.99755 0.00214
vn 0.05052 0.99870 -0.00674
vn -0.04965 0.99759 0.04842
vn -0.04353 0.99905 0.00187
vn -0.02812 0.99960 0.00045
vn -0.02158 0.99972 0.00978
vn 0.01857 0.99926 0.03358
vn -0.01890 0.99889 0.04324
vn 0.00136 1.00000 -0.00034
vn 0.04785 0.99883 -0.00745
vn 0.06418 0.99775 -0.01938
vn -0.02117 0.99971 0.01104
vn -0.05855 0.99737 0.04280
vn -0.02096 0.99956 0.02099
vn 0.00717 0.99997 -0.00082
vn 0.01731 0.99969 0.01781
vn -0.05498 0.99827 0.02069
vn -0.03906 0.99919 0.00937
vn 0.05090 0.99866 -0.00939
vn 0.05888 0.99749 -0.03934
vn 0.01255 0.99853 -0.05272
vn -0.03827 0.99897 0.02454
vn -0.07167 0.99742 -0.00488
vn -0.03727 0.99927 -0.00816
vn 0.03021 0.99953 -0.00601
vn -0.02986 0.99912 -0.02937
vn -0.02875 0.99951 -0.01226
vn 0.00937 0.99991 -0.00980
vn 0.02091 0.99945 -0.02555
vn 0.07632 0.99692 -0.01829
vn -0.01078 0.99862 0.05148
vn -0.08186 0.99599 0.03603
vn -0.00594 0.99956 0.02921
vn -0.04918 0.99801 -0.03935
vn -0.06109 0.99601 -0.06504
vn 0.00394 0.99998 -0.00522
vn 0.03762 0.99853 0.03896
vn 0.01778 0.99908 0.03910
vn 0.08931 0.99589 0.01539
vn 0.03853 0.99917 0.01303
vn -0.09319 0.98949 0.11058
vn -0.08693 0.99395 0.06719
vn -0.07290 0.99535 -0.06296
vn 0.00110 0.99983 -0.01833
vn 0.07529 0.99657 0.03427
vn 0.03051 0.99880 0.03820
vn -0.00265 0.99936 0.03570
vn 0.02355 0.99957 0.01741
vn 0.08495 0.99350 -0.07577
vn -0.01785 0.99880 0.04560
vn -0.17902 0.98060 0.07983
vn -0.03411 0.99932 -0.01391
vn 0.03627 0.99902 0.02517
vn 0.06174 0.99807 -0.00600
vn 0.03896 0.99880 -0.02957
vn 0.01873 0.99966 0.01791
vn -0.02228 0.99819 0.05584
vn 0.07920 0.99686 -0.00251
vn 0.06333 0.99749 0.03162
vn -0.13725 0.98774 0.07439

f 1/1/1 2/2/2 3/3/3
f 1/1/1 3/3/3 4/4/4
f 4/4/4 3/3/3 5/5/5
f 5/5/5 3/3/3 6/6/6
f 5/5/5 6/6/6 7/7/7
f 5/5/5 7/7/7 8/8/8
f 8/8/8 7/7/7 9/9/9
f 9/9/9 7/7/7 10/10/10
f 9/9/9 10/10/10 11/11/11
f 9/9/9 11/11/11 12/12/12
f 12/12/12 11/11/11 13/13/13
f 13/13/13 11/11/11 14/14/14
f 13/13/13 14/14/14 15/15/15
f 13/13/13 15/15/15 16/16/16
f 16/16/16 15/15/15 17/17/17
f 17/17/17 15/15/15 18/18/18
f 2/2/2 19/19/19 3/3/3
f 3/3/3 19/19/19 20/20/20
f 3/3/3 20/20/20 21/21/21
f 3/3/3 21/21/21 6/6/6
f 6/6/6 21/21/21 7/7/7
f 7/7/7 21/21/21 22/22/22
f 7/7/7 22/22/22 23/23/23
f 7/7/7 23/23/23 10/10/10
f 10/10/10 23/23/23 11/11/11
f 11/11/11 23/23/23 24/24/24
f 11/11/11 24/24/24 25/25/25
f 11/11/11 25/25/25 14/14/14
f 14/14/14 25/25/25 15/15/15
f 15/15/15 25/25/25 26/26/26
f 15/15/15 26/26/26 27/27/27
f 15/15/15 27/27/27 18/18/18
f 19/19/19 28/28/28 29/29/29
f 19/19/19 29/29/29 20/20/20
f 20/20/20 29/29/29 21/21/21
f 21/21/21 29/29/29 30/30/30
f 21/21/21 30/30/30 31/31/31
f 21/21/21 31/31/31 22/22/22
f 22/22/22 31/31/31 23/23/23
f 23/23/23 31/31/31 32/32/32
f 23/23/23 32/32/32 33/33/33
f 23/23/23 33/33/33 24/24/24
f 24/24/24 33/33/33 25/25/25
f 25/25/25 33/33/33 34/34/34
f 25/25/25 34/34/34 35/35/35
f 25/25/25 35/35/35 26/26/26
f 26/26/26 35/35/35 27/27/27
f 27/27/27 35/35/35 36/36/36
f 28/28/28 37/37/37 29/29/29
f 29/29/29 37/37/37 38/38/38
f 29/29/29 38/38/38 39/39/39
f 29/29/29 39/39/39 30/30/30
f 30/30/30 39/39/39 31/31/31
f 31/31/31 39/39/39 40/40/40
f 31/31/31 40/40/40 41/41/41
f 31/31/31 41/41/41 32/32/32
f 32/32/32 41/41/41 33/33/33
f 33/33/33 41/41/41 42/42/42
f 33/33/33 42/42/42 43/43/43
f 33/33/33 43/43/43 34/34/34
f 34/34/34 43/43/43 35/35/35
f 35/35/35 43/43/43 44/44/44
f 35/35/35 44/44/44 45/45/45
f 35/35/35 45/45/45 36/36/36
f 37/37/37 46/46/46 47/47/47
f 37/37/37 47/47/47 38/38/38
f 38/38/38 47/47/47 39/39/39
f 39/39/39 47/47/47 48/48/48
f 39/39/39 48/48/48 49/49/49
f 39/39/39 49/49/49 40/40/40
f 40/40/40 49/49/49 41/41/41
f 41/41/41 49/49/49 50/50/50
f 41/41/41 50/50/50 51/51/51
f 41/41/41 51/51/51 42/42/42
f 42/42/42 51/51/51 43/43/43
f 43/43/43 51/51/51 52/52/52
f 43/43/43 52/52/52 53/53/53
f 43/43/43 53/53/53 44/44/44
f 44/44/44 53/53/53 45/45/45
f 45/45/45 53/53/53 54/54/54
f 46/46/46 55/55/55 47/47/47
f 47/47/47 55/55/55 56/56/56
f 47/47/47 56/56/56 57/57/57
f 47/47/47 57/57/57 48/48/48
f 48/48/48 57/57/57 49/49/49
f 49/49/49 57/57/57 58/58/58
f 49/49/49 58/58/58 59/59/59
f 49/49/49 59/59/59 50/50/50
f 50/50/50 59/59/59 51/51/51
f 51/51/51 59/59/59 60/60/60
f 51/51/51 60/60/60 61/61/61
f 51/51/51 61/61/61 52/52/52
f 52/52/52 61/61/61 53/53/53
f 53/53/53 61/61/61 62/62/62
f 53/53/53 62/62/62 63/63/63
f 53/53/53 63/63/63 54/54/54
f 55/55/55 64/64/64 65/65/65
f 55/55/55 65/65/65 56/56/56
f 56/56/56 65/65/65 57/57/57
f 57/57/57 65/65/65 66/66/66
f 57/57/57 66/66/66 67/67/67
f 57/57/57 67/67/67 58/58/58
f 58/58/58 67/67/67 59/59/59
f 59/59/59 67/67/67 68/68/68
f 59/59/59 68/68/68 69/69/69
f 59/59/59 69/69/69 60/60/60
f 60/60/60 69/69/69 61/61/61
f 61/61/61 69/69/69 70/70/70
f 61/61/61 70/70/70 71/71/71
f 61/61/61 71/71/71 62/62/62
f 62/62/62 71/71/71 63/63/63
f 63/63/63 71/71/71 72/72/72
f 64/64/64 73/73/73 65/65/65
f 65/65/65 73/73/73 74/74/74
f 65/65/65 74/74/74 75/75/75
f 65/65/65 75/75/75 66/66/66
f 66/66/66 75/75/75 67/67/67
f 67/67/67 75/75/75 76/76/76
f 67/67/67 76/76/76 77/77/77
f 67/67/67 77/77/77 68/68/68
f 68/68/68 77/77/77 69/69/69
f 69/69/69 77/77/77 78/78/78
f 69/69/69 78/78/78 79/79/79
f 69/69/69 79/79/79 70/70/70
f 70/70/70 79/79/79 71/71/71
f 71/71/71 79/79/79 80/80/80
f 71/71/71 80/80/80 81/81/81
f 71/71/71 81/81/81 72/72/72
