# Generated by tools/generate_island.py. Do not edit by hand.
o terrain_lod2_2_-5

v 256.000 -9.304 -640.000 0.528 0.498 0.293
v 256.000 -8.751 -624.000 0.460 0.428 0.249
v 272.000 -9.855 -624.000 0.427 0.394 0.227
v 272.000 -10.182 -640.000 0.472 0.440 0.257
v 288.000 -10.800 -640.000 0.433 0.400 0.231
v 288.000 -10.349 -624.000 0.420 0.387 0.223
v 304.000 -10.800 -624.000 0.462 0.430 0.250
v 256.000 -8.071 -608.000 0.447 0.415 0.241
v 272.000 -9.216 -608.000 0.437 0.405 0.234
v 288.000 -9.527 -608.000 0.425 0.392 0.226
v 304.000 -10.344 -608.000 0.460 0.428 0.249
v 320.000 -10.800 -608.000 0.442 0.409 0.237
v 256.000 -7.536 -592.000 0.471 0.439 0.256
v 272.000 -7.784 -592.000 0.444 0.411 0.238
v 288.000 -8.516 -592.000 0.417 0.384 0.221
v 304.000 -10.027 -592.000 0.429 0.397 0.229
v 320.000 -10.457 -592.000 0.446 0.414 0.240
v 336.000 -10.659 -592.000 0.504 0.474 0.278
v 336.000 -10.800 -608.000 0.432 0.399 0.230
v 352.000 -10.800 -608.000 0.412 0.379 0.218
v 352.000 -10.800 -592.000 0.451 0.419 0.243
v 256.000 -6.927 -576.000 0.466 0.435 0.253
v 272.000 -7.285 -576.000 0.433 0.400 0.231
v 288.000 -8.220 -576.000 0.423 0.390 0.225
v 304.000 -8.846 -576.000 0.449 0.417 0.242
v 320.000 -9.185 -576.000 0.457 0.425 0.247
v 336.000 -10.316 -576.000 0.474 0.442 0.258
v 352.000 -10.800 -576.000 0.489 0.458 0.268
v 256.000 -6.008 -560.000 0.418 0.385 0.221
v 272.000 -6.716 -560.000 0.437 0.405 0.234
v 288.000 -7.636 -560.000 0.435 0.403 0.233
v 304.000 -7.963 -560.000 0.449 0.417 0.242
v 320.000 -8.585 -560.000 0.449 0.416 0.242
v 336.000 -9.671 -560.000 0.467 0.436 0.254
v 352.000 -9.960 -560.000 0.520 0.490 0.289
v 368.000 -10.292 -560.000 0.559 0.530 0.314
v 368.000 -10.800 -576.000 0.479 0.448 0.262
v 384.000 -10.800 -576.000 0.487 0.456 0.267
v 384.000 -10.800 -560.000 0.561 0.532 0.315
v 256.000 -5.106 -544.000 0.462 0.430 0.250
v 272.000 -6.083 -544.000 0.435 0.403 0.233
v 288.000 -7.004 -544.000 0.434 0.401 0.232
v 304.000 -7.135 -544.000 0.454 0.422 0.245
v 320.000 -7.844 -544.000 0.467 0.436 0.254
v 336.000 -8.540 -544.000 0.435 0.402 0.232
v 352.000 -9.081 -544.000 0.520 0.490 0.289
v 368.000 -9.769 -544.000 0.582 0.554 0.330
v 384.000 -10.425 -544.000 0.557 0.528 0.313
v 256.000 -4.805 -528.000 0.541 0.512 0.302
v 272.000 -5.326 -528.000 0.515 0.484 0.285
v 288.000 -5.421 -528.000 0.505 0.474 0.279
v 304.000 -6.263 -528.000 0.492 0.461 0.270
v 320.000 -7.563 -528.000 0.476 0.445 0.260
v 336.000 -7.789 -528.000 0.442 0.410 0.237
v 352.000 -8.186 -528.000 0.482 0.451 0.264
v 368.000 -8.983 -528.000 0.539 0.509 0.301
v 384.000 -9.443 -528.000 0.562 0.534 0.316
v 256.000 -4.184 -512.000 0.519 0.489 0.288
v 272.000 -4.907 -512.000 0.555 0.526 0.312
v 288.000 -4.902 -512.000 0.533 0.503 0.297
v 304.000 -5.753 -512.000 0.478 0.447 0.261
v 320.000 -6.362 -512.000 0.479 0.448 0.262
v 336.000 -6.692 -512.000 0.479 0.448 0.261
v 352.000 -7.907 -512.000 0.499 0.469 0.275
v 368.000 -8.509 -512.000 0.473 0.442 0.258
v 384.000 -8.513 -512.000 0.478 0.446 0.261

vt 0.633333 0.833333
vt 0.633333 0.825000
vt 0.641667 0.825000
vt 0.641667 0.833333
vt 0.650000 0.833333
vt 0.650000 0.825000
vt 0.658333 0.825000
vt 0.633333 0.816667
vt 0.641667 0.816667
vt 0.650000 0.816667
vt 0.658333 0.816667
vt 0.666667 0.816667
vt 0.633333 0.808333
vt 0.641667 0.808333
vt 0.650000 0.808333
vt 0.658333 0.808333
vt 0.666667 0.808333
vt 0.675000 0.808333
vt 0.675000 0.816667
vt 0.683333 0.816667
vt 0.683333 0.808333
vt 0.633333 0.800000
vt 0.641667 0.800000
vt 0.650000 0.800000
vt 0.658333 0.800000
vt 0.666667 0.800000
vt 0.675000 0.800000
vt 0.683333 0.800000
vt 0.633333 0.791667
vt 0.641667 0.791667
vt 0.650000 0.791667
vt 0.658333 0.791667
vt 0.666667 0.791667
vt 0.675000 0.791667
vt 0.683333 0.791667
vt 0.691667 0.791667
vt 0.691667 0.800000
vt 0.700000 0.800000
vt 0.700000 0.791667
vt 0.633333 0.783333
vt 0.641667 0.783333
vt 0.650000 0.783333
vt 0.658333 0.783333
vt 0.666667 0.783333
vt 0.675000 0.783333
vt 0.683333 0.783333
vt 0.691667 0.783333
vt 0.700000 0.783333
vt 0.633333 0.775000
vt 0.641667 0.775000
vt 0.650000 0.775000
vt 0.658333 0.775000
vt 0.666667 0.775000
vt 0.675000 0.775000
vt 0.683333 0.775000
vt 0.691667 0.775000
vt 0.700000 0.775000
vt 0.633333 0.766667
vt 0.641667 0.766667
vt 0.650000 0.766667
vt 0.658333 0.766667
vt 0.666667 0.766667
vt 0.675000 0.766667
vt 0.683333 0.766667
vt 0.691667 0.766667
vt 0.700000 0.766667

vn 0.06181 0.99771 -0.02743
vn 0.06878 0.99689 -0.03841
vn 0.04794 0.99825 -0.03461
vn 0.04670 0.99870 -0.02042
vn 0.03252 0.99914 -0.02561
vn 0.02949 0.99878 -0.03973
vn 0.03396 0.99884 -0.03410
vn 0.05674 0.99708 -0.05120
vn 0.04537 0.99688 -0.06453
vn 0.04243 0.99781 -0.05075
vn 0.03973 0.99892 -0.02414
vn 0.01929 0.99961 -0.02000
vn 0.01544 0.99924 -0.03571
vn 0.03671 0.99811 -0.04922
vn 0.06986 0.99673 -0.04071
vn 0.04771 0.99780 -0.04613
vn 0.01972 0.99853 -0.05040
vn 0.01797 0.99963 -0.02018
vn 0.00000 0.99996 -0.00883
vn 0.00441 0.99998 -0.00441
vn 0.00883 0.99996 0.00000
vn 0.02609 0.99884 -0.04052
vn 0.04036 0.99863 -0.03331
vn 0.05155 0.99794 -0.03812
vn 0.03006 0.99748 -0.06432
vn 0.04114 0.99775 -0.05297
vn 0.05039 0.99825 -0.03082
vn 0.01802 0.99929 -0.03306
vn 0.04415 0.99741 -0.05676
vn 0.05027 0.99783 -0.04241
vn 0.03892 0.99852 -0.03794
vn 0.02887 0.99849 -0.04665
vn 0.05324 0.99771 -0.04181
vn 0.04367 0.99772 -0.05154
vn 0.01938 0.99837 -0.05364
vn 0.02361 0.99919 -0.03245
vn 0.00000 0.99950 -0.03174
vn 0.01587 0.99975 -0.01587
vn 0.03173 0.99943 -0.01171
vn 0.04964 0.99795 -0.04044
vn 0.05917 0.99731 -0.04334
vn 0.03343 0.99772 -0.05862
vn 0.02618 0.99825 -0.05303
vn 0.04711 0.99793 -0.04387
vn 0.03856 0.99753 -0.05867
vn 0.03332 0.99806 -0.05255
vn 0.04194 0.99829 -0.04084
vn 0.03558 0.99850 -0.04159
vn 0.03248 0.99906 -0.02878
vn 0.03002 0.99867 -0.04195
vn 0.02924 0.99742 -0.06553
vn 0.05130 0.99746 -0.04947
vn 0.04756 0.99780 -0.04620
vn 0.03142 0.99828 -0.04953
vn 0.03726 0.99863 -0.03663
vn 0.03482 0.99844 -0.04373
vn 0.02870 0.99781 -0.05961
vn 0.03880 0.99872 -0.03244
vn 0.02242 0.99941 -0.02613
vn 0.02784 0.99914 -0.03071
vn 0.04556 0.99845 -0.03188
vn 0.03840 0.99731 -0.06248
vn 0.04811 0.99650 -0.06834
vn 0.04697 0.99834 -0.03323
vn 0.01893 0.99938 -0.02963
vn 0.01451 0.99893 -0.04384

f 1/1/1 2/2/2 3/3/3
f 1/1/1 3/3/3 4/4/4
f 4/4/4 3/3/3 5/5/5
f 5/5/5 3/3/3 6/6/6
f 5/5/5 6/6/6 7/7/7
f 2/2/2 8/8/8 3/3/3
f 3/3/3 8/8/8 9/9/9
f 3/3/3 9/9/9 10/10/10
f 3/3/3 10/10/10 6/6/6
f 6/6/6 10/10/10 7/7/7
f 7/7/7 10/10/10 11/11/11
f 7/7/7 11/11/11 12/12/12
f 8/8/8 13/13/13 14/14/14
f 8/8/8 14/14/14 9/9/9
f 9/9/9 14/14/14 10/10/10
f 10/10/10 14/14/14 15/15/15
f 10/10/10 15/15/15 16/16/16
f 10/10/10 16/16/16 11/11/11
f 11/11/11 16/16/16 12/12/12
f 12/12/12 16/16/16 17/17/17
f 12/12/12 17/17/17 18/18/18
f 12/12/12 18/18/18 19/19/19
f 19/19/19 18/18/18 20/20/20
f 20/20/20 18/18/18 21/21/21
f 13/13/13 22/22/22 14/14/14
f 14/14/14 22/22/22 23/23/23
f 14/14/14 23/23/23 24/24/24
f 14/14/14 24/24/24 15/15/15
f 15/15/15 24/24/24 16/16/16
f 16/16/16 24/24/24 25/25/25
f 16/16/16 25/25/25 26/26/26
f 16/16/16 26/26/26 17/17/17
f 17/17/17 26/26/26 18/18/18
f 18/18/18 26/26/26 27/27/27
f 18/18/18 27/27/27 28/28/28
f 18/18/18 28/28/28 21/21/21
f 22/22/22 29/29/29 30/30/30
f 22/22/22 30/30/30 23/23/23
f 23/23/23 30/30/30 24/24/24
f 24/24/24 30/30/30 31/31/31
f 24/24/24 31/31/31 32/32/32
f 24/24/24 32/32/32 25/25/25
f 25/25/25 32/32/32 26/26/26
f 26/26/26 32/32/32 33/33/33
f 26/26/26 33/33/33 34/34/34
f 26/26/26 34/34/34 27/27/27
f 27/27/27 34/34/34 28/28/28
f 28/28/28 34/34/34 35/35/35
f 28/28/28 35/35/35 36/36/36
f 28/28/28 36/36/36 37/37/37
f 37/37/37 36/36/36 38/38/38
f 38/38/38 36/36/36 39/39/39
f 29/29/29 40/40/40 30/30/30
f 30/30/30 40/40/40 41/41/41
f 30/30/30 41/41/41 42/42/42
f 30/30/30 42/42/42 31/31/31
f 31/31/31 42/42/42 32/32/32
f 32/32/32 42/42/42 43/43/43
f 32/32/32 43/43/43 44/44/44
f 32/32/32 44/44/44 33/33/33
f 33/33/33 44/44/44 34/34/34
f 34/34/34 44/44/44 45/45/45
f 34/34/34 45/45/45 46/46/46
f 34/34/34 46/46/46 35/35/35
f 35/35/35 46/46/46 36/36/36
f 36/36/36 46/46/46 47/47/47
f 36/36/36 47/47/47 48/48/48
f 36/36/36 48/48/48 39/39/39
f 40/40/40 49/49/49 50/50/50
f 40/40/40 50/50/50 41/41/41
f 41/41/41 50/50/50 42/42/42
f 42/42/42 50/50/50 51/51/51
f 42/42/42 51/51/51 52/52/52
f 42/42/42 52/52/52 43/43/43
f 43/43/43 52/52/52 44/44/44
f 44/44/44 52/52/52 53/53/53
f 44/44/44 53/53/53 54/54/54
f 44/44/44 54/54/54 45/45/45
f 45/45/45 54/54/54 46/46/46
f 46/46/46 54/54/54 55/55/55
f 46/46/46 55/55/55 56/56/56
f 46/46/46 56/56/56 47/47/47
f 47/47/47 56/56/56 48/48/48
f 48/48/48 56/56/56 57/57/57
f 49/49/49 58/58/58 50/50/50
f 50/50/50 58/58/58 59/59/59
f 50/50/50 59/59/59 60/60/60
f 50/50/50 60/60/60 51/51/51
f 51/51/51 60/60/60 52/52/52
f 52/52/52 60/60/60 61/61/61
f 52/52/52 61/61/61 62/62/62
f 52/52/52 62/62/62 53/53/53
f 53/53/53 62/62/62 54/54/54
f 54/54/54 62/62/62 63/63/63
f 54/54/54 63/63/63 64/64/64
f 54/54/54 64/64/64 55/55/55
f 55/55/55 64/64/64 56/56/56
f 56/56/56 64/64/64 65/65/65
f 56/56/56 65/65/65 66/66/66
f 56/56/56 66/66/66 57/57/57
