# Generated by tools/generate_island.py. Do not edit by hand.
o terrain_lod2_-1_4

v -128.000 -4.188 512.000 0.509 0.479 0.281
v -128.000 -5.192 528.000 0.456 0.425 0.247
v -112.000 -6.206 528.000 0.484 0.453 0.265
v -112.000 -4.770 512.000 0.526 0.497 0.293
v -96.000 -5.538 512.000 0.535 0.506 0.299
v -96.000 -6.597 528.000 0.516 0.486 0.286
v -80.000 -6.428 528.000 0.544 0.515 0.304
v -80.000 -5.402 512.000 0.552 0.523 0.309
v -64.000 -5.346 512.000 0.533 0.503 0.297
v -64.000 -7.043 528.000 0.493 0.462 0.271
v -48.000 -7.413 528.000 0.530 0.501 0.295
v -48.000 -6.146 512.000 0.501 0.470 0.276
v -32.000 -5.908 512.000 0.516 0.486 0.286
v -32.000 -6.746 528.000 0.534 0.505 0.298
v -16.000 -6.828 528.000 0.508 0.478 0.281
v -16.000 -5.628 512.000 0.420 0.387 0.223
v 0.000 -5.713 512.000 0.494 0.463 0.271
v 0.000 -6.689 528.000 0.524 0.494 0.291
v -128.000 -6.446 544.000 0.394 0.360 0.206
v -112.000 -7.561 544.000 0.425 0.392 0.226
v -96.000 -7.649 544.000 0.464 0.432 0.252
v -80.000 -8.057 544.000 0.485 0.454 0.266
v -64.000 -8.557 544.000 0.482 0.451 0.264
v -48.000 -8.186 544.000 0.545 0.516 0.305
v -32.000 -7.976 544.000 0.544 0.515 0.305
v -16.000 -8.429 544.000 0.540 0.511 0.302
v 0.000 -7.786 544.000 0.529 0.500 0.295
v -128.000 -8.377 560.000 0.406 0.373 0.214
v -112.000 -8.733 560.000 0.398 0.365 0.208
v -96.000 -8.644 560.000 0.391 0.357 0.204
v -80.000 -9.464 560.000 0.455 0.423 0.246
v -64.000 -9.754 560.000 0.525 0.495 0.292
v -48.000 -9.541 560.000 0.500 0.469 0.275
v -32.000 -9.836 560.000 0.477 0.445 0.260
v -16.000 -9.547 560.000 0.507 0.476 0.280
v 0.000 -8.772 560.000 0.525 0.495 0.292
v -128.000 -9.152 576.000 0.420 0.386 0.222
v -112.000 -9.419 576.000 0.457 0.425 0.247
v -96.000 -10.260 576.000 0.434 0.402 0.232
v -80.000 -10.800 576.000 0.470 0.439 0.256
v -64.000 -10.487 576.000 0.510 0.480 0.282
v -48.000 -10.602 576.000 0.490 0.460 0.269
v -32.000 -10.800 576.000 0.470 0.439 0.256
v -16.000 -10.800 576.000 0.479 0.448 0.262
v 0.000 -10.522 576.000 0.478 0.447 0.261
v -128.000 -10.266 592.000 0.534 0.504 0.298
v -112.000 -10.319 592.000 0.514 0.483 0.284
v -96.000 -10.800 592.000 0.544 0.515 0.304
v -80.000 -10.800 592.000 0.558 0.529 0.314
v -64.000 -10.800 592.000 0.541 0.511 0.302
v -48.000 -10.800 592.000 0.495 0.465 0.272
v -16.000 -10.800 592.000 0.458 0.426 0.247
v 0.000 -10.800 592.000 0.474 0.443 0.258
v -128.000 -10.800 608.000 0.582 0.554 0.329
v -112.000 -10.800 608.000 0.573 0.545 0.323
v -96.000 -10.800 608.000 0.550 0.521 0.309

vt 0.433333 0.233333
vt 0.433333 0.225000
vt 0.441667 0.225000
vt 0.441667 0.233333
vt 0.450000 0.233333
vt 0.450000 0.225000
vt 0.458333 0.225000
vt 0.458333 0.233333
vt 0.466667 0.233333
vt 0.466667 0.225000
vt 0.475000 0.225000
vt 0.475000 0.233333
vt 0.483333 0.233333
vt 0.483333 0.225000
vt 0.491667 0.225000
vt 0.491667 0.233333
vt 0.500000 0.233333
vt 0.500000 0.225000
vt 0.433333 0.216667
vt 0.441667 0.216667
vt 0.450000 0.216667
vt 0.458333 0.216667
vt 0.466667 0.216667
vt 0.475000 0.216667
vt 0.483333 0.216667
vt 0.491667 0.216667
vt 0.500000 0.216667
vt 0.433333 0.208333
vt 0.441667 0.208333
vt 0.450000 0.208333
vt 0.458333 0.208333
vt 0.466667 0.208333
vt 0.475000 0.208333
vt 0.483333 0.208333
vt 0.491667 0.208333
vt 0.500000 0.208333
vt 0.433333 0.200000
vt 0.441667 0.200000
vt 0.450000 0.200000
vt 0.458333 0.200000
vt 0.466667 0.200000
vt 0.475000 0.200000
vt 0.483333 0.200000
vt 0.491667 0.200000
vt 0.500000 0.200000
vt 0.433333 0.191667
vt 0.441667 0.191667
vt 0.450000 0.191667
vt 0.458333 0.191667
vt 0.466667 0.191667
vt 0.475000 0.191667
vt 0.491667 0.191667
vt 0.500000 0.191667
vt 0.433333 0.183333
vt 0.441667 0.183333
vt 0.450000 0.183333

vn 0.04968 0.99587 0.07597
vn 0.06311 0.99553 0.07025
vn 0.04174 0.99612 0.07745
vn 0.04200 0.99511 0.08936
vn 0.01331 0.99736 0.07137
vn 0.00690 0.99781 0.06583
vn 0.01251 0.99649 0.08278
vn -0.00601 0.99793 0.06396
vn 0.02691 0.99571 0.08847
vn 0.03063 0.99453 0.09981
vn -0.00477 0.99733 0.07293
vn 0.01752 0.99673 0.07894
vn -0.01720 0.99776 0.06458
vn -0.01826 0.99775 0.06448
vn -0.00389 0.99711 0.07589
vn -0.00608 0.99718 0.07476
vn -0.00170 0.99770 0.06783
vn -0.00867 0.99787 0.06464
vn 0.05597 0.99448 0.08875
vn 0.03747 0.99620 0.07867
vn 0.01515 0.99705 0.07522
vn 0.02823 0.99513 0.09443
vn 0.01028 0.99654 0.08242
vn -0.01812 0.99763 0.06633
vn -0.00073 0.99631 0.08583
vn -0.00592 0.99639 0.08468
vn -0.03427 0.99661 0.07479
vn 0.02220 0.99620 0.08424
vn 0.02217 0.99727 0.07037
vn 0.02276 0.99643 0.08129
vn 0.02612 0.99661 0.07806
vn 0.00239 0.99818 0.06019
vn -0.00081 0.99721 0.07468
vn 0.00020 0.99613 0.08791
vn -0.02020 0.99657 0.08021
vn -0.04820 0.99521 0.08510
vn 0.01473 0.99842 0.05421
vn 0.03457 0.99818 0.04946
vn 0.03098 0.99793 0.05640
vn 0.00708 0.99911 0.04170
vn -0.00249 0.99933 0.03659
vn 0.00978 0.99918 0.03931
vn 0.00502 0.99845 0.05542
vn -0.01156 0.99857 0.05212
vn -0.02076 0.99847 0.05118
vn 0.00330 0.99867 0.05144
vn 0.01699 0.99911 0.03864
vn 0.02004 0.99955 0.02249
vn 0.00354 0.99990 0.01333
vn 0.00000 0.99981 0.01958
vn 0.00653 0.99987 0.01477
vn -0.00868 0.99992 0.00868
vn 0.00000 0.99985 0.01737
vn 0.00165 0.99950 0.03170
vn 0.00000 0.99955 0.03005
vn 0.01503 0.99977 0.01503

f 1/1/1 2/2/2 3/3/3
f 1/1/1 3/3/3 4/4/4
f 4/4/4 3/3/3 5/5/5
f 5/5/5 3/3/3 6/6/6
f 5/5/5 6/6/6 7/7/7
f 5/5/5 7/7/7 8/8/8
f 8/8/8 7/7/7 9/9/9
f 9/9/9 7/7/7 10/10/10
f 9/9/9 10/10/10 11/11/11
f 9/9/9 11/11/11 12/12/12
f 12/12/12 11/11/11 13/13/13
f 13/13/13 11/11/11 14/14/14
f 13/13/13 14/14/14 15/15/15
f 13/13/13 15/15/15 16/16/16
f 16/16/16 15/15/15 17/17/17
f 17/17/17 15/15/15 18/18/18
f 2/2/2 19/19/19 3/3/3
f 3/3/3 19/19/19 20/20/20
f 3/3/3 20/20/20 21/21/21
f 3/3/3 21/21/21 6/6/6
f 6/6/6 21/21/21 7/7/7
f 7/7/7 21/21/21 22/22/22
f 7/7/7 22/22/22 23/23/23
f 7/7/7 23/23/23 10/10/10
f 10/10/10 23/23/23 11/11/11
f 11/11/11 23/23/23 24/24/24
f 11/11/11 24/24/24 25/25/25
f 11/11/11 25/25/25 14/14/14
f 14/14/14 25/25/25 15/15/15
f 15/15/15 25/25/25 26/26/26
f 15/15/15 26/26/26 27/27/27
f 15/15/15 27/27/27 18/18/18
f 19/19/19 28/28/28 29/29/29
f 19/19/19 29/29/29 20/20/20
f 20/20/20 29/29/29 21/21/21
f 21/21/21 29/29/29 30/30/30
f 21/21/21 30/30/30 31/31/31
f 21/21/21 31/31/31 22/22/22
f 22/22/22 31/31/31 23/23/23
f 23/23/23 31/31/31 32/32/32
f 23/23/23 32/32/32 33/33/33
f 23/23/23 33/33/33 24/24/24
f 24/24/24 33/33/33 25/25/25
f 25/25/25 33/33/33 34/34/34
f 25/25/25 34/34/34 35/35/35
f 25/25/25 35/35/35 26/26/26
f 26/26/26 35/35/35 27/27/27
f 27/27/27 35/35/35 36/36/36
f 28/28/28 37/37/37 29/29/29
f 29/29/29 37/37/37 38/38/38
f 29/29/29 38/38/38 39/39/39
f 29/29/29 39/39/39 30/30/30
f 30/30/30 39/39/39 31/31/31
f 31/31/31 39/39/39 40/40/40
f 31/31/31 40/40/40 41/41/41
f 31/31/31 41/41/41 32/32/32
f 32/32/32 41/41/41 33/33/33
f 33/33/33 41/41/41 42/42/42
f 33/33/33 42/42/42 43/43/43
f 33/33/33 43/43/43 34/34/34
f 34/34/34 43/43/43 35/35/35
f 35/35/35 43/43/43 44/44/44
f 35/35/35 44/44/44 45/45/45
f 35/35/35 45/45/45 36/36/36
f 37/37/37 46/46/46 47/47/47
f 37/37/37 47/47/47 38/38/38
f 38/38/38 47/47/47 39/39/39
f 39/39/39 47/47/47 48/48/48
f 39/39/39 48/48/48 49/49/49
f 39/39/39 49/49/49 40/40/40
f 40/40/40 49/49/49 41/41/41
f 41/41/41 49/49/49 50/50/50
f 41/41/41 50/50/50 51/51/51
f 41/41/41 51/51/51 42/42/42
f 42/42/42 51/51/51 43/43/43
f 44/44/44 52/52/52 45/45/45
f 45/45/45 52/52/52 53/53/53
f 46/46/46 54/54/54 47/47/47
f 47/47/47 54/54/54 55/55/55
f 47/47/47 55/55/55 56/56/56
f 47/47/47 56/56/56 48/48/48
