# Generated by tools/generate_island.py. Do not edit by hand.
o terrain_lod2_3_0

v 384.000 1.761 0.000 0.278 0.345 0.129
v 384.000 1.845 16.000 0.175 0.325 0.166
v 400.000 2.281 16.000 0.169 0.316 0.162
v 400.000 2.291 0.000 0.225 0.304 0.112
v 416.000 -0.112 0.000 0.428 0.395 0.228
v 416.000 0.910 16.000 0.426 0.393 0.227
v 432.000 0.838 16.000 0.447 0.415 0.241
v 432.000 -0.504 0.000 0.467 0.436 0.254
v 448.000 1.477 0.000 0.510 0.480 0.282
v 448.000 -0.041 16.000 0.472 0.440 0.257
v 464.000 0.324 16.000 0.519 0.489 0.288
v 464.000 1.534 0.000 0.540 0.511 0.302
v 480.000 1.238 0.000 0.585 0.557 0.331
v 480.000 1.441 16.000 0.522 0.492 0.290
v 496.000 0.909 16.000 0.539 0.510 0.301
v 496.000 1.453 0.000 0.543 0.513 0.304
v 512.000 0.321 0.000 0.546 0.517 0.306
v 512.000 0.042 16.000 0.528 0.499 0.294
v 384.000 2.153 32.000 0.162 0.308 0.159
v 400.000 0.639 32.000 0.455 0.423 0.245
v 416.000 0.129 32.000 0.454 0.422 0.245
v 432.000 0.244 32.000 0.392 0.358 0.204
v 448.000 -0.716 32.000 0.413 0.380 0.218
v 464.000 -0.526 32.000 0.428 0.396 0.228
v 480.000 0.905 32.000 0.482 0.450 0.263
v 496.000 0.223 32.000 0.537 0.508 0.300
v 512.000 0.492 32.000 0.509 0.479 0.282
v 384.000 0.455 48.000 0.432 0.399 0.231
v 400.000 0.837 48.000 0.426 0.393 0.226
v 416.000 -0.142 48.000 0.407 0.373 0.214
v 432.000 -0.918 48.000 0.379 0.345 0.196
v 448.000 -1.022 48.000 0.387 0.353 0.201
v 464.000 0.786 48.000 0.373 0.338 0.191
v 480.000 3.782 48.000 0.380 0.346 0.196
v 496.000 1.404 48.000 0.436 0.404 0.233
v 512.000 -0.424 48.000 0.484 0.453 0.265
v 384.000 -1.362 64.000 0.418 0.386 0.223
v 400.000 -0.464 64.000 0.399 0.365 0.209
v 416.000 -0.052 64.000 0.395 0.361 0.206
v 432.000 -0.003 64.000 0.384 0.350 0.199
v 448.000 0.301 64.000 0.390 0.356 0.203
v 464.000 0.795 64.000 0.361 0.326 0.184
v 480.000 2.556 64.000 0.370 0.336 0.190
v 496.000 1.360 64.000 0.421 0.388 0.223
v 512.000 -0.269 64.000 0.468 0.436 0.254
v 384.000 -1.047 80.000 0.479 0.449 0.263
v 400.000 0.077 80.000 0.470 0.438 0.255
v 416.000 -0.027 80.000 0.361 0.326 0.184
v 432.000 -1.045 80.000 0.423 0.390 0.224
v 448.000 2.715 80.000 0.141 0.280 0.146
v 464.000 2.318 80.000 0.121 0.255 0.135
v 480.000 -0.297 80.000 0.406 0.373 0.214
v 496.000 -0.512 80.000 0.361 0.326 0.184
v 512.000 0.676 80.000 0.441 0.409 0.237
v 384.000 1.343 96.000 0.517 0.488 0.288
v 400.000 0.802 96.000 0.497 0.467 0.274
v 416.000 0.174 96.000 0.409 0.376 0.216
v 432.000 0.071 96.000 0.460 0.428 0.249
v 448.000 4.056 96.000 0.138 0.277 0.145
v 464.000 2.343 96.000 0.127 0.262 0.138
v 480.000 -0.028 96.000 0.389 0.355 0.202
v 496.000 -0.584 96.000 0.392 0.358 0.204
v 512.000 -0.230 96.000 0.433 0.400 0.231
v 384.000 0.980 112.000 0.524 0.494 0.291
v 400.000 1.400 112.000 0.517 0.487 0.287
v 416.000 1.750 112.000 0.151 0.294 0.152
v 432.000 1.282 112.000 0.440 0.408 0.236
v 448.000 2.494 112.000 0.135 0.272 0.143
v 464.000 2.299 112.000 0.134 0.271 0.142
v 480.000 2.381 112.000 0.431 0.399 0.230
v 496.000 -0.338 112.000 0.379 0.345 0.196
v 512.000 -1.424 112.000 0.451 0.419 0.243
v 384.000 1.194 128.000 0.525 0.496 0.292
v 400.000 1.461 128.000 0.503 0.472 0.277
v 416.000 1.974 128.000 0.155 0.299 0.154
v 432.000 1.390 128.000 0.451 0.419 0.243
v 448.000 2.189 128.000 0.138 0.277 0.145
v 464.000 1.020 128.000 0.478 0.446 0.261
v 480.000 0.232 128.000 0.431 0.398 0.230
v 496.000 -0.992 128.000 0.392 0.358 0.204
v 512.000 -0.680 128.000 0.454 0.422 0.245

vt 0.700000 0.500000
vt 0.700000 0.491667
vt 0.708333 0.491667
vt 0.708333 0.500000
vt 0.716667 0.500000
vt 0.716667 0.491667
vt 0.725000 0.491667
vt 0.725000 0.500000
vt 0.733333 0.500000
vt 0.733333 0.491667
vt 0.741667 0.491667
vt 0.741667 0.500000
vt 0.750000 0.500000
vt 0.750000 0.491667
vt 0.758333 0.491667
vt 0.758333 0.500000
vt 0.766667 0.500000
vt 0.766667 0.491667
vt 0.700000 0.483333
vt 0.708333 0.483333
vt 0.716667 0.483333
vt 0.725000 0.483333
vt 0.733333 0.483333
vt 0.741667 0.483333
vt 0.750000 0.483333
vt 0.758333 0.483333
vt 0.766667 0.483333
vt 0.700000 0.475000
vt 0.708333 0.475000
vt 0.716667 0.475000
vt 0.725000 0.475000
vt 0.733333 0.475000
vt 0.741667 0.475000
vt 0.750000 0.475000
vt 0.758333 0.475000
vt 0.766667 0.475000
vt 0.700000 0.466667
vt 0.708333 0.466667
vt 0.716667 0.466667
vt 0.725000 0.466667
vt 0.733333 0.466667
vt 0.741667 0.466667
vt 0.750000 0.466667
vt 0.758333 0.466667
vt 0.766667 0.466667
vt 0.700000 0.458333
vt 0.708333 0.458333
vt 0.716667 0.458333
vt 0.725000 0.458333
vt 0.733333 0.458333
vt 0.741667 0.458333
vt 0.750000 0.458333
vt 0.758333 0.458333
vt 0.766667 0.458333
vt 0.700000 0.450000
vt 0.708333 0.450000
vt 0.716667 0.450000
vt 0.725000 0.450000
vt 0.733333 0.450000
vt 0.741667 0.450000
vt 0.750000 0.450000
vt 0.758333 0.450000
vt 0.766667 0.450000
vt 0.700000 0.441667
vt 0.708333 0.441667
vt 0.716667 0.441667
vt 0.725000 0.441667
vt 0.733333 0.441667
vt 0.741667 0.441667
vt 0.750000 0.441667
vt 0.758333 0.441667
vt 0.766667 0.441667
vt 0.700000 0.433333
vt 0.708333 0.433333
vt 0.716667 0.433333
vt 0.725000 0.433333
vt 0.733333 0.433333
vt 0.741667 0.433333
vt 0.750000 0.433333
vt 0.758333 0.433333
vt 0.766667 0.433333

vn -0.03015 0.99954 -0.00233
vn -0.02724 0.99955 -0.01223
vn 0.04500 0.99877 0.02083
vn 0.05845 0.99829 0.00058
vn 0.06598 0.99643 -0.05260
vn 0.04504 0.99896 -0.00753
vn 0.00905 0.99995 0.00355
vn -0.04943 0.99528 -0.08351
vn -0.02378 0.99869 0.04531
vn 0.01602 0.99753 0.06836
vn -0.03388 0.99808 0.05182
vn 0.00746 0.99713 0.07535
vn -0.00788 0.99975 0.02104
vn -0.01826 0.99978 0.01041
vn 0.03222 0.99927 0.02048
vn 0.02860 0.99901 0.03400
vn 0.06233 0.99772 0.02570
vn 0.05412 0.99852 -0.00532
vn 0.03445 0.99843 0.04422
vn 0.06305 0.99700 0.04499
vn 0.03112 0.99866 0.04140
vn 0.02635 0.99815 0.05480
vn 0.00273 0.99967 0.02542
vn -0.05056 0.99862 -0.01441
vn -0.02107 0.99881 -0.04400
vn 0.01288 0.99980 -0.01547
vn 0.03368 0.99943 -0.00046
vn -0.02376 0.99374 0.10916
vn 0.01488 0.99883 0.04606
vn 0.05478 0.99848 0.00566
vn 0.01758 0.99984 -0.00266
vn -0.05316 0.99808 -0.03170
vn -0.10466 0.99365 -0.04123
vn -0.01928 0.99849 -0.05153
vn 0.09061 0.99558 -0.02461
vn 0.11349 0.99326 0.02363
vn -0.05151 0.99805 0.03527
vn -0.04089 0.99888 0.02374
vn 0.01528 0.99987 0.00513
vn -0.01103 0.99993 0.00395
vn -0.05187 0.99626 -0.06910
vn -0.07023 0.99639 -0.04770
vn 0.00844 0.99775 0.06658
vn 0.08780 0.99436 0.05955
vn 0.06080 0.99807 0.01273
vn -0.06977 0.99402 -0.08402
vn -0.01702 0.99895 -0.04263
vn 0.03502 0.99936 -0.00706
vn -0.07567 0.99661 -0.03216
vn -0.10381 0.98782 -0.11591
vn 0.06120 0.99757 -0.03324
vn 0.08782 0.99290 0.08020
vn 0.00844 0.99870 0.05020
vn -0.07406 0.99725 -0.00123
vn -0.00722 0.99861 -0.05228
vn 0.03646 0.99848 -0.04131
vn 0.02107 0.99820 -0.05619
vn -0.12010 0.99015 -0.07201
vn -0.06953 0.99747 -0.01454
vn 0.12660 0.99195 0.00058
vn 0.08803 0.99520 -0.04284
vn 0.00629 0.99997 -0.00543
vn -0.01267 0.99947 0.03008
vn -0.02624 0.99964 0.00465
vn -0.00900 0.99969 -0.02318
vn 0.00368 0.99841 -0.05617
vn -0.04356 0.99885 -0.02007
vn -0.03171 0.99780 0.05821
vn 0.04887 0.99825 0.03315
vn 0.08215 0.99659 -0.00810
vn 0.06798 0.99766 0.00784
vn 0.06769 0.99761 0.01403
vn -0.02146 0.99973 -0.00856
vn -0.02439 0.99970 -0.00378
vn 0.00294 0.99995 -0.00963
vn -0.00669 0.99995 -0.00675
vn -0.01010 0.99956 0.02781
vn 0.06085 0.99497 0.07952
vn 0.07213 0.99270 0.09665
vn 0.02844 0.99876 0.04082
vn 0.02415 0.99970 -0.00283

f 1/1/1 2/2/2 3/3/3
f 1/1/1 3/3/3 4/4/4
f 4/4/4 3/3/3 5/5/5
f 5/5/5 3/3/3 6/6/6
f 5/5/5 6/6/6 7/7/7
f 5/5/5 7/7/7 8/8/8
f 8/8/8 7/7/7 9/9/9
f 9/9/9 7/7/7 10/10/10
f 9/9/9 10/10/10 11/11/11
f 9/9/9 11/11/11 12/12/12
f 12/12/12 11/11/11 13/13/13
f 13/13/13 11/11/11 14/14/14
f 13/13/13 14/14/14 15/15/15
f 13/13/13 15/15/15 16/16/16
f 16/16/16 15/15/15 17/17/17
f 17/17/17 15/15/15 18/18/18
f 2/2/2 19/19/19 3/3/3
f 3/3/3 19/19/19 20/20/20
f 3/3/3 20/20/20 21/21/21
f 3/3/3 21/21/21 6/6/6
f 6/6/6 21/21/21 7/7/7
f 7/7/7 21/21/21 22/22/22
f 7/7/7 22/22/22 23/23/23
f 7/7/7 23/23/23 10/10/10
f 10/10/10 23/23/23 11/11/11
f 11/11/11 23/23/23 24/24/24
f 11/11/11 24/24/24 25/25/25
f 11/11/11 25/25/25 14/14/14
f 14/14/14 25/25/25 15/15/15
f 15/15/15 25/25/25 26/26/26
f 15/15/15 26/26/26 27/27/27
f 15/15/15 27/27/27 18/18/18
f 19/19/19 28/28/28 29/29/29
f 19/19/19 29/29/29 20/20/20
f 20/20/20 29/29/29 21/21/21
f 21/21/21 29/29/29 30/30/30
f 21/21/21 30/30/30 31/31/31
f 21/21/21 31/31/31 22/22/22
f 22/22/22 31/31/31 23/23/23
f 23/23/23 31/31/31 32/32/32
f 23/23/23 32/32/32 33/33/33
f 23/23/23 33/33/33 24/24/24
f 24/24/24 33/33/33 25/25/25
f 25/25/25 33/33/33 34/34/34
f 25/25/25 34/34/34 35/35/35
f 25/25/25 35/35/35 26/26/26
f 26/26/26 35/35/35 27/27/27
f 27/27/27 35/35/35 36/36/36
f 28/28/28 37/37/37 29/29/29
f 29/29/29 37/37/37 38/38/38
f 29/29/29 38/38/38 39/39/39
f 29/29/29 39/39/39 30/30/30
f 30/30/30 39/39/39 31/31/31
f 31/31/31 39/39/39 40/40/40
f 31/31/31 40/40/40 41/41/41
f 31/31/31 41/41/41 32/32/32
f 32/32/32 41/41/41 33/33/33
f 33/33/33 41/41/41 42/42/42
f 33/33/33 42/42/42 43/43/43
f 33/33/33 43/43/43 34/34/34
f 34/34/34 43/43/43 35/35/35
f 35/35/35 43/43/43 44/44/44
f 35/35/35 44/44/44 45/45/45
f 35/35/35 45/45/45 36/36/36
f 37/37/37 46/46/46 47/47/47
f 37/37/37 47/47/47 38/38/38
f 38/38/38 47/47/47 39/39/39
f 39/39/39 47/47/47 48/48/48
f 39/39/39 48/48/48 49/49/49
f 39/39/39 49/49/49 40/40/40
f 40/40/40 49/49/49 41/41/41
f 41/41/41 49/49/49 50/50/50
f 41/41/41 50/50/50 51/51/51
f 41/41/41 51/51/51 42/42/42
f 42/42/42 51/51/51 43/43/43
f 43/43/43 51/51/51 52/52/52
f 43/43/43 52/52/52 53/53/53
f 43/43/43 53/53/53 44/44/44
f 44/44/44 53/53/53 45/45/45
f 45/45/45 53/53/53 54/54/54
f 46/46/46 55/55/55 47/47/47
f 47/47/47 55/55/55 56/56/56
f 47/47/47 56/56/56 57/57/57
f 47/47/47 57/57/57 48/48/48
f 48/48/48 57/57/57 49/49/49
f 49/49/49 57/57/57 58/58/58
f 49/49/49 58/58/58 59/59/59
f 49/49/49 59/59/59 50/50/50
f 50/50/50 59/59/59 51/51/51
f 51/51/51 59/59/59 60/60/60
f 51/51/51 60/60/60 61/61/61
f 51/51/51 61/61/61 52/52/52
f 52/52/52 61/61/61 53/53/53
f 53/53/53 61/61/61 62/62/62
f 53/53/53 62/62/62 63/63/63
f 53/53/53 63/63/63 54/54/54
f 55/55/55 64/64/64 65/65/65
f 55/55/55 65/65/65 56/56/56
f 56/56/56 65/65/65 57/57/57
f 57/57/57 65/65/65 66/66/66
f 57/57/57 66/66/66 67/67/67
f 57/57/57 67/67/67 58/58/58
f 58/58/58 67/67/67 59/59/59
f 59/59/59 67/67/67 68/68/68
f 59/59/59 68/68/68 69/69/69
f 59/59/59 69/69/69 60/60/60
f 60/60/60 69/69/69 61/61/61
f 61/61/61 69/69/69 70/70/70
f 61/61/61 70/70/70 71/71/71
f 61/61/61 71/71/71 62/62/62
f 62/62/62 71/71/71 63/63/63
f 63/63/63 71/71/71 72/72/72
f 64/64/64 73/73/73 65/65/65
f 65/65/65 73/73/73 74/74/74
f 65/65/65 74/74/74 75/75/75
f 65/65/65 75/75/75 66/66/66
f 66/66/66 75/75/75 67/67/67
f 67/67/67 75/75/75 76/76/76
f 67/67/67 76/76/76 77/77/77
f 67/67/67 77/77/77 68/68/68
f 68/68/68 77/77/77 69/69/69
f 69/69/69 77/77/77 78/78/78
f 69/69/69 78/78/78 79/79/79
f 69/69/69 79/79/79 70/70/70
f 70/70/70 79/79/79 71/71/71
f 71/71/71 79/79/79 80/80/80
f 71/71/71 80/80/80 81/81/81
f 71/71/71 81/81/81 72/72/72
