# Generated by tools/generate_island.py. Do not edit by hand.
o terrain_lod1_3_4

v 384.000 -6.574 512.000 0.458 0.426 0.248
v 384.000 -6.871 520.000 0.449 0.417 0.242
v 392.000 -7.135 520.000 0.480 0.448 0.262
v 392.000 -6.803 512.000 0.489 0.458 0.268
v 400.000 -6.370 512.000 0.451 0.419 0.243
v 400.000 -6.879 520.000 0.479 0.448 0.262
v 408.000 -6.879 520.000 0.491 0.460 0.269
v 408.000 -6.544 512.000 0.469 0.438 0.255
v 416.000 -6.700 512.000 0.473 0.441 0.257
v 416.000 -7.304 520.000 0.514 0.483 0.284
v 424.000 -7.357 520.000 0.525 0.495 0.292
v 424.000 -7.105 512.000 0.503 0.473 0.277
v 432.000 -7.695 512.000 0.529 0.500 0.295
v 432.000 -7.829 520.000 0.532 0.503 0.297
v 440.000 -7.875 520.000 0.554 0.525 0.311
v 440.000 -7.608 512.000 0.555 0.526 0.311
v 448.000 -7.782 512.000 0.516 0.486 0.286
v 448.000 -7.650 520.000 0.544 0.514 0.304
v 456.000 -8.031 520.000 0.495 0.464 0.272
v 456.000 -7.596 512.000 0.447 0.415 0.240
v 464.000 -7.922 512.000 0.388 0.354 0.201
v 464.000 -8.268 520.000 0.424 0.392 0.226
v 472.000 -9.251 520.000 0.408 0.375 0.215
v 472.000 -8.820 512.000 0.374 0.339 0.192
v 480.000 -9.353 512.000 0.383 0.349 0.199
v 480.000 -9.912 520.000 0.424 0.391 0.225
v 488.000 -9.969 520.000 0.428 0.395 0.228
v 488.000 -9.971 512.000 0.401 0.367 0.210
v 496.000 -10.035 512.000 0.460 0.428 0.249
v 496.000 -10.229 520.000 0.458 0.426 0.248
v 504.000 -10.088 520.000 0.459 0.427 0.248
v 504.000 -9.977 512.000 0.486 0.455 0.266
v 512.000 -10.401 512.000 0.518 0.488 0.287
v 512.000 -10.605 520.000 0.508 0.478 0.281
v 384.000 -7.458 528.000 0.470 0.438 0.255
v 392.000 -7.180 528.000 0.494 0.464 0.272
v 400.000 -7.125 528.000 0.489 0.458 0.268
v 408.000 -6.963 528.000 0.507 0.477 0.280
v 416.000 -7.539 528.000 0.533 0.503 0.297
v 424.000 -7.894 528.000 0.524 0.494 0.291
v 432.000 -8.054 528.000 0.547 0.518 0.306
v 440.000 -8.384 528.000 0.561 0.532 0.315
v 448.000 -8.094 528.000 0.551 0.521 0.309
v 456.000 -8.428 528.000 0.526 0.496 0.292
v 464.000 -9.096 528.000 0.479 0.447 0.261
v 472.000 -9.404 528.000 0.465 0.433 0.252
v 480.000 -10.005 528.000 0.468 0.437 0.255
v 488.000 -9.868 528.000 0.471 0.440 0.256
v 496.000 -10.070 528.000 0.462 0.430 0.250
v 504.000 -10.467 528.000 0.471 0.439 0.256
v 512.000 -10.800 528.000 0.500 0.470 0.275
v 384.000 -7.681 536.000 0.479 0.448 0.261
v 392.000 -7.268 536.000 0.509 0.478 0.281
v 400.000 -7.290 536.000 0.512 0.481 0.283
v 408.000 -7.702 536.000 0.529 0.499 0.295
v 416.000 -8.005 536.000 0.530 0.501 0.295
v 424.000 -8.658 536.000 0.520 0.490 0.289
v 432.000 -8.514 536.000 0.540 0.511 0.302
v 440.000 -8.470 536.000 0.572 0.544 0.323
v 448.000 -8.506 536.000 0.561 0.533 0.316
v 456.000 -8.634 536.000 0.544 0.515 0.305
v 464.000 -9.425 536.000 0.529 0.500 0.295
v 472.000 -9.653 536.000 0.522 0.492 0.290
v 480.000 -9.957 536.000 0.515 0.485 0.285
v 488.000 -10.256 536.000 0.493 0.463 0.271
v 496.000 -10.291 536.000 0.498 0.467 0.274
v 504.000 -10.800 536.000 0.496 0.465 0.273
v 384.000 -8.014 544.000 0.489 0.458 0.268
v 392.000 -8.028 544.000 0.518 0.488 0.287
v 400.000 -7.893 544.000 0.530 0.500 0.295
v 408.000 -8.463 544.000 0.513 0.483 0.284
v 416.000 -8.587 544.000 0.508 0.478 0.281
v 424.000 -8.824 544.000 0.550 0.521 0.308
v 432.000 -8.840 544.000 0.581 0.553 0.329
v 440.000 -8.332 544.000 0.585 0.557 0.331
v 448.000 -8.796 544.000 0.562 0.533 0.316
v 456.000 -9.222 544.000 0.565 0.536 0.318
v 464.000 -9.842 544.000 0.562 0.533 0.316
v 472.000 -10.317 544.000 0.573 0.545 0.324
v 480.000 -10.135 544.000 0.550 0.521 0.309
v 488.000 -10.440 544.000 0.534 0.504 0.297
v 496.000 -10.673 544.000 0.516 0.485 0.286
v 504.000 -10.800 544.000 0.508 0.477 0.280
v 384.000 -8.258 552.000 0.461 0.429 0.250
v 392.000 -8.420 552.000 0.490 0.460 0.269
v 400.000 -8.414 552.000 0.511 0.481 0.283
v 408.000 -8.821 552.000 0.507 0.477 0.280
v 416.000 -9.213 552.000 0.514 0.484 0.284
v 424.000 -9.010 552.000 0.564 0.535 0.317
v 432.000 -9.093 552.000 0.585 0.557 0.331
v 440.000 -9.007 552.000 0.585 0.557 0.331
v 448.000 -9.297 552.000 0.585 0.557 0.331
v 456.000 -10.018 552.000 0.584 0.556 0.331
v 464.000 -10.142 552.000 0.585 0.557 0.331
v 472.000 -10.460 552.000 0.585 0.557 0.331
v 480.000 -10.344 552.000 0.585 0.557 0.331
v 488.000 -10.374 552.000 0.561 0.532 0.315
v 496.000 -10.800 552.000 0.533 0.504 0.297
v 504.000 -10.800 552.000 0.539 0.509 0.301
v 384.000 -8.601 560.000 0.462 0.431 0.251
v 392.000 -8.731 560.000 0.475 0.443 0.259
v 400.000 -9.263 560.000 0.467 0.436 0.254
v 408.000 -9.464 560.000 0.490 0.459 0.269
v 416.000 -9.822 560.000 0.510 0.480 0.282
v 424.000 -9.679 560.000 0.570 0.542 0.321
v 432.000 -9.392 560.000 0.585 0.557 0.331
v 440.000 -9.616 560.000 0.585 0.557 0.331
v 448.000 -9.731 560.000 0.585 0.557 0.331
v 456.000 -10.192 560.000 0.585 0.557 0.331
v 464.000 -10.469 560.000 0.585 0.557 0.331
v 472.000 -10.450 560.000 0.585 0.557 0.331
v 480.000 -10.800 560.000 0.585 0.557 0.331
v 488.000 -10.800 560.000 0.585 0.557 0.331
v 496.000 -10.800 560.000 0.547 0.518 0.306
v 384.000 -9.410 568.000 0.443 0.411 0.238
v 392.000 -9.495 568.000 0.460 0.428 0.249
v 400.000 -10.008 568.000 0.476 0.445 0.260
v 408.000 -10.165 568.000 0.501 0.470 0.276
v 416.000 -9.896 568.000 0.534 0.505 0.298
v 424.000 -9.868 568.000 0.584 0.555 0.330
v 432.000 -9.573 568.000 0.585 0.557 0.331
v 440.000 -9.982 568.000 0.585 0.557 0.331
v 448.000 -10.478 568.000 0.585 0.557 0.331
v 456.000 -10.717 568.000 0.585 0.557 0.331
v 464.000 -10.800 568.000 0.585 0.557 0.331
v 472.000 -10.800 568.000 0.585 0.557 0.331
v 384.000 -9.781 576.000 0.442 0.410 0.237
v 392.000 -10.226 576.000 0.457 0.426 0.247
v 400.000 -10.289 576.000 0.486 0.455 0.266
v 408.000 -10.510 576.000 0.527 0.498 0.293
v 416.000 -10.142 576.000 0.550 0.520 0.308
v 424.000 -10.176 576.000 0.567 0.538 0.319
v 432.000 -10.480 576.000 0.585 0.557 0.331
v 440.000 -10.720 576.000 0.575 0.547 0.325
v 448.000 -10.800 576.000 0.580 0.552 0.328
v 456.000 -10.800 576.000 0.585 0.557 0.331
v 464.000 -10.800 576.000 0.585 0.557 0.331
v 384.000 -9.987 584.000 0.451 0.419 0.243
v 392.000 -10.732 584.000 0.458 0.426 0.248
v 400.000 -10.800 584.000 0.492 0.461 0.270
v 408.000 -10.800 584.000 0.502 0.472 0.277
v 416.000 -10.800 584.000 0.520 0.490 0.289
v 424.000 -10.784 584.000 0.537 0.507 0.300
v 432.000 -10.800 584.000 0.541 0.512 0.303
v 440.000 -10.800 584.000 0.524 0.494 0.291
v 384.000 -10.800 592.000 0.441 0.409 0.237
v 392.000 -10.800 592.000 0.454 0.422 0.245
v 400.000 -10.800 592.000 0.474 0.443 0.258
v 416.000 -10.800 592.000 0.504 0.473 0.278
v 424.000 -10.800 592.000 0.513 0.483 0.284
v 432.000 -10.800 592.000 0.487 0.456 0.267

vt 0.700000 0.233333
vt 0.700000 0.229167
vt 0.704167 0.229167
vt 0.704167 0.233333
vt 0.708333 0.233333
vt 0.708333 0.229167
vt 0.712500 0.229167
vt 0.712500 0.233333
vt 0.716667 0.233333
vt 0.716667 0.229167
vt 0.720833 0.229167
vt 0.720833 0.233333
vt 0.725000 0.233333
vt 0.725000 0.229167
vt 0.729167 0.229167
vt 0.729167 0.233333
vt 0.733333 0.233333
vt 0.733333 0.229167
vt 0.737500 0.229167
vt 0.737500 0.233333
vt 0.741667 0.233333
vt 0.741667 0.229167
vt 0.745833 0.229167
vt 0.745833 0.233333
vt 0.750000 0.233333
vt 0.750000 0.229167
vt 0.754167 0.229167
vt 0.754167 0.233333
vt 0.758333 0.233333
vt 0.758333 0.229167
vt 0.762500 0.229167
vt 0.762500 0.233333
vt 0.766667 0.233333
vt 0.766667 0.229167
vt 0.700000 0.225000
vt 0.704167 0.225000
vt 0.708333 0.225000
vt 0.712500 0.225000
vt 0.716667 0.225000
vt 0.720833 0.225000
vt 0.725000 0.225000
vt 0.729167 0.225000
vt 0.733333 0.225000
vt 0.737500 0.225000
vt 0.741667 0.225000
vt 0.745833 0.225000
vt 0.750000 0.225000
vt 0.754167 0.225000
vt 0.758333 0.225000
vt 0.762500 0.225000
vt 0.766667 0.225000
vt 0.700000 0.220833
vt 0.704167 0.220833
vt 0.708333 0.220833
vt 0.712500 0.220833
vt 0.716667 0.220833
vt 0.720833 0.220833
vt 0.725000 0.220833
vt 0.729167 0.220833
vt 0.733333 0.220833
vt 0.737500 0.220833
vt 0.741667 0.220833
vt 0.745833 0.220833
vt 0.750000 0.220833
vt 0.754167 0.220833
vt 0.758333 0.220833
vt 0.762500 0.220833
vt 0.700000 0.216667
vt 0.704167 0.216667
vt 0.708333 0.216667
vt 0.712500 0.216667
vt 0.716667 0.216667
vt 0.720833 0.216667
vt 0.725000 0.216667
vt 0.729167 0.216667
vt 0.733333 0.216667
vt 0.737500 0.216667
vt 0.741667 0.216667
vt 0.745833 0.216667
vt 0.750000 0.216667
vt 0.754167 0.216667
vt 0.758333 0.216667
vt 0.762500 0.216667
vt 0.700000 0.212500
vt 0.704167 0.212500
vt 0.708333 0.212500
vt 0.712500 0.212500
vt 0.716667 0.212500
vt 0.720833 0.212500
vt 0.725000 0.212500
vt 0.729167 0.212500
vt 0.733333 0.212500
vt 0.737500 0.212500
vt 0.741667 0.212500
vt 0.745833 0.212500
vt 0.750000 0.212500
vt 0.754167 0.212500
vt 0.758333 0.212500
vt 0.762500 0.212500
vt 0.700000 0.208333
vt 0.704167 0.208333
vt 0.708333 0.208333
vt 0.712500 0.208333
vt 0.716667 0.208333
vt 0.720833 0.208333
vt 0.725000 0.208333
vt 0.729167 0.208333
vt 0.733333 0.208333
vt 0.737500 0.208333
vt 0.741667 0.208333
vt 0.745833 0.208333
vt 0.750000 0.208333
vt 0.754167 0.208333
vt 0.758333 0.208333
vt 0.700000 0.204167
vt 0.704167 0.204167
vt 0.708333 0.204167
vt 0.712500 0.204167
vt 0.716667 0.204167
vt 0.720833 0.204167
vt 0.725000 0.204167
vt 0.729167 0.204167
vt 0.733333 0.204167
vt 0.737500 0.204167
vt 0.741667 0.204167
vt 0.745833 0.204167
vt 0.700000 0.200000
vt 0.704167 0.200000
vt 0.708333 0.200000
vt 0.712500 0.200000
vt 0.716667 0.200000
vt 0.720833 0.200000
vt 0.725000 0.200000
vt 0.729167 0.200000
vt 0.733333 0.200000
vt 0.737500 0.200000
vt 0.741667 0.200000
vt 0.700000 0.195833
vt 0.704167 0.195833
vt 0.708333 0.195833
vt 0.712500 0.195833
vt 0.716667 0.195833
vt 0.720833 0.195833
vt 0.725000 0.195833
vt 0.729167 0.195833
vt 0.700000 0.191667
vt 0.704167 0.191667
vt 0.708333 0.191667
vt 0.716667 0.191667
vt 0.720833 0.191667
vt 0.725000 0.191667

vn 0.03084 0.99875 0.03929
vn 0.03302 0.99793 0.05518
vn -0.00814 0.99927 0.03739
vn -0.01273 0.99906 0.04150
vn -0.01610 0.99849 0.05258
vn -0.01601 0.99876 0.04715
vn 0.02489 0.99897 0.03798
vn 0.02060 0.99891 0.04187
vn 0.03244 0.99790 0.05600
vn 0.02984 0.99818 0.05232
vn 0.03992 0.99827 0.04327
vn 0.06207 0.99758 0.03139
vn 0.03185 0.99919 0.02450
vn 0.03231 0.99923 0.02237
vn -0.00362 0.99939 0.03472
vn 0.00538 0.99943 0.03329
vn 0.00451 0.99990 0.01365
vn 0.00976 0.99976 0.01952
vn 0.03709 0.99810 0.04914
vn 0.00874 0.99849 0.05423
vn 0.07608 0.99592 0.04849
vn 0.07587 0.99444 0.07299
vn 0.08754 0.99507 0.04656
vn 0.08898 0.99459 0.05365
vn 0.05824 0.99714 0.04822
vn 0.04477 0.99817 0.04069
vn 0.02157 0.99974 0.00751
vn 0.04257 0.99909 -0.00028
vn 0.00389 0.99987 0.01554
vn 0.00741 0.99997 0.00219
vn 0.02885 0.99934 0.02208
vn 0.02290 0.99964 0.01380
vn 0.05872 0.99808 0.01959
vn 0.06450 0.99761 0.02486
vn -0.02200 0.99932 0.02944
vn -0.02081 0.99975 0.00826
vn -0.00402 0.99961 0.02777
vn 0.02578 0.99835 0.05134
vn 0.05137 0.99717 0.05493
vn 0.03207 0.99620 0.08100
vn 0.02043 0.99849 0.05098
vn 0.00251 0.99931 0.03718
vn 0.00636 0.99895 0.04544
vn 0.06246 0.99734 0.03758
vn 0.06526 0.99653 0.05168
vn 0.05673 0.99808 0.02503
vn 0.03511 0.99931 0.01212
vn 0.00403 0.99983 0.01790
vn 0.02907 0.99942 0.01752
vn 0.04554 0.99797 0.04443
vn 0.04917 0.99808 0.03773
vn -0.05157 0.99807 0.03468
vn -0.01929 0.99870 0.04709
vn 0.02708 0.99848 0.04792
vn 0.03950 0.99640 0.07498
vn 0.05955 0.99609 0.06526
vn 0.02785 0.99795 0.05759
vn -0.01175 0.99873 0.04908
vn -0.00032 0.99977 0.02162
vn 0.01022 0.99899 0.04381
vn 0.06054 0.99705 0.04727
vn 0.06350 0.99690 0.04645
vn 0.03535 0.99849 0.04212
vn 0.03765 0.99926 0.00807
vn 0.01986 0.99937 0.02930
vn 0.03398 0.99871 0.03767
vn 0.04680 0.99840 0.03166
vn -0.00702 0.99852 0.05398
vn -0.00755 0.99739 0.07186
vn 0.02657 0.99716 0.07042
vn 0.04320 0.99663 0.06971
vn 0.02910 0.99774 0.06060
vn 0.01581 0.99963 0.02198
vn -0.01833 0.99932 0.03194
vn -0.00277 0.99943 0.03354
vn 0.04604 0.99745 0.05460
vn 0.06499 0.99417 0.08603
vn 0.05686 0.99678 0.05648
vn 0.01829 0.99856 0.05037
vn 0.01192 0.99958 0.02657
vn 0.03366 0.99941 0.00739
vn 0.02640 0.99949 0.01775
vn 0.01583 0.99987 0.00000
vn 0.02026 0.99912 0.03665
vn 0.01330 0.99853 0.05247
vn 0.02492 0.99605 0.08528
vn 0.04438 0.99644 0.07171
vn 0.01178 0.99697 0.07695
vn -0.00652 0.99849 0.05457
vn -0.00019 0.99941 0.03449
vn 0.01096 0.99794 0.06321
vn 0.06297 0.99632 0.05823
vn 0.05413 0.99704 0.05455
vn 0.02758 0.99885 0.03914
vn 0.01607 0.99957 0.02434
vn -0.00537 0.99912 0.04155
vn 0.02264 0.99946 0.02362
vn 0.03548 0.99931 0.01055
vn 0.00791 0.99994 0.00791
vn 0.01576 0.99747 0.06939
vn 0.04124 0.99690 0.06693
vn 0.03945 0.99541 0.08720
vn 0.03478 0.99589 0.08366
vn 0.00503 0.99844 0.05565
vn -0.02681 0.99821 0.05352
vn -0.00024 0.99905 0.04360
vn 0.02112 0.99793 0.06081
vn 0.04514 0.99700 0.06288
vn 0.04602 0.99799 0.04357
vn 0.01626 0.99919 0.03676
vn 0.02071 0.99956 0.02125
vn 0.01535 0.99900 0.04189
vn 0.00000 0.99858 0.05319
vn 0.02661 0.99929 0.02661
vn 0.01054 0.99724 0.07354
vn 0.03682 0.99604 0.08087
vn 0.04177 0.99708 0.06392
vn 0.00292 0.99856 0.05365
vn -0.01856 0.99963 0.01998
vn -0.01153 0.99923 0.03748
vn 0.00712 0.99767 0.06781
vn 0.03849 0.99694 0.06801
vn 0.04577 0.99673 0.06661
vn 0.02156 0.99893 0.04086
vn 0.00695 0.99959 0.02761
vn 0.01380 0.99898 0.04296
vn 0.05356 0.99696 0.05653
vn 0.03162 0.99653 0.07705
vn 0.02038 0.99834 0.05391
vn -0.00919 0.99917 0.03966
vn -0.01531 0.99851 0.05242
vn 0.02107 0.99814 0.05718
vn 0.01900 0.99768 0.06531
vn 0.02000 0.99850 0.05105
vn 0.02233 0.99901 0.03858
vn 0.00000 0.99995 0.01043
vn 0.00521 0.99997 0.00521
vn 0.09247 0.99370 0.06328
vn 0.03328 0.99857 0.04178
vn 0.00568 0.99908 0.04256
vn -0.00459 0.99850 0.05459
vn -0.00130 0.99850 0.05478
vn 0.00528 0.99938 0.03478
vn 0.00130 0.99964 0.02670
vn 0.01335 0.99971 0.01999
vn 0.04641 0.99741 0.05492
vn 0.00000 0.99996 0.00853
vn 0.00426 0.99998 0.00426
vn -0.00097 1.00000 0.00097
vn 0.00000 1.00000 0.00195
vn 0.00097 1.00000 0.00097

f 1/1/1 2/2/2 3/3/3
f 1/1/1 3/3/3 4/4/4
f 4/4/4 3/3/3 5/5/5
f 5/5/5 3/3/3 6/6/6
f 5/5/5 6/6/6 7/7/7
f 5/5/5 7/7/7 8/8/8
f 8/8/8 7/7/7 9/9/9
f 9/9/9 7/7/7 10/10/10
f 9/9/9 10/10/10 11/11/11
f 9/9/9 11/11/11 12/12/12
f 12/12/12 11/11/11 13/13/13
f 13/13/13 11/11/11 14/14/14
f 13/13/13 14/14/14 15/15/15
f 13/13/13 15/15/15 16/16/16
f 16/16/16 15/15/15 17/17/17
f 17/17/17 15/15/15 18/18/18
f 17/17/17 18/18/18 19/19/19
f 17/17/17 19/19/19 20/20/20
f 20/20/20 19/19/19 21/21/21
f 21/21/21 19/19/19 22/22/22
f 21/21/21 22/22/22 23/23/23
f 21/21/21 23/23/23 24/24/24
f 24/24/24 23/23/23 25/25/25
f 25/25/25 23/23/23 26/26/26
f 25/25/25 26/26/26 27/27/27
f 25/25/25 27/27/27 28/28/28
f 28/28/28 27/27/27 29/29/29
f 29/29/29 27/27/27 30/30/30
f 29/29/29 30/30/30 31/31/31
f 29/29/29 31/31/31 32/32/32
f 32/32/32 31/31/31 33/33/33
f 33/33/33 31/31/31 34/34/34
f 2/2/2 35/35/35 3/3/3
f 3/3/3 35/35/35 36/36/36
f 3/3/3 36/36/36 37/37/37
f 3/3/3 37/37/37 6/6/6
f 6/6/6 37/37/37 7/7/7
f 7/7/7 37/37/37 38/38/38
f 7/7/7 38/38/38 39/39/39
f 7/7/7 39/39/39 10/10/10
f 10/10/10 39/39/39 11/11/11
f 11/11/11 39/39/39 40/40/40
f 11/11/11 40/40/40 41/41/41
f 11/11/11 41/41/41 14/14/14
f 14/14/14 41/41/41 15/15/15
f 15/15/15 41/41/41 42/42/42
f 15/15/15 42/42/42 43/43/43
f 15/15/15 43/43/43 18/18/18
f 18/18/18 43/43/43 19/19/19
f 19/19/19 43/43/43 44/44/44
f 19/19/19 44/44/44 45/45/45
f 19/19/19 45/45/45 22/22/22
f 22/22/22 45/45/45 23/23/23
f 23/23/23 45/45/45 46/46/46
f 23/23/23 46/46/46 47/47/47
f 23/23/23 47/47/47 26/26/26
f 26/26/26 47/47/47 27/27/27
f 27/27/27 47/47/47 48/48/48
f 27/27/27 48/48/48 49/49/49
f 27/27/27 49/49/49 30/30/30
f 30/30/30 49/49/49 31/31/31
f 31/31/31 49/49/49 50/50/50
f 31/31/31 50/50/50 51/51/51
f 31/31/31 51/51/51 34/34/34
f 35/35/35 52/52/52 53/53/53
f 35/35/35 53/53/53 36/36/36
f 36/36/36 53/53/53 37/37/37
f 37/37/37 53/53/53 54/54/54
f 37/37/37 54/54/54 55/55/55
f 37/37/37 55/55/55 38/38/38
f 38/38/38 55/55/55 39/39/39
f 39/39/39 55/55/55 56/56/56
f 39/39/39 56/56/56 57/57/57
f 39/39/39 57/57/57 40/40/40
f 40/40/40 57/57/57 41/41/41
f 41/41/41 57/57/57 58/58/58
f 41/41/41 58/58/58 59/59/59
f 41/41/41 59/59/59 42/42/42
f 42/42/42 59/59/59 43/43/43
f 43/43/43 59/59/59 60/60/60
f 43/43/43 60/60/60 61/61/61
f 43/43/43 61/61/61 44/44/44
f 44/44/44 61/61/61 45/45/45
f 45/45/45 61/61/61 62/62/62
f 45/45/45 62/62/62 63/63/63
f 45/45/45 63/63/63 46/46/46
f 46/46/46 63/63/63 47/47/47
f 47/47/47 63/63/63 64/64/64
f 47/47/47 64/64/64 65/65/65
f 47/47/47 65/65/65 48/48/48
f 48/48/48 65/65/65 49/49/49
f 49/49/49 65/65/65 66/66/66
f 49/49/49 66/66/66 67/67/67
f 49/49/49 67/67/67 50/50/50
f 50/50/50 67/67/67 51/51/51
f 52/52/52 68/68/68 53/53/53
f 53/53/53 68/68/68 69/69/69
f 53/53/53 69/69/69 70/70/70
f 53/53/53 70/70/70 54/54/54
f 54/54/54 70/70/70 55/55/55
f 55/55/55 70/70/70 71/71/71
f 55/55/55 71/71/71 72/72/72
f 55/55/55 72/72/72 56/56/56
f 56/56/56 72/72/72 57/57/57
f 57/57/57 72/72/72 73/73/73
f 57/57/57 73/73/73 74/74/74
f 57/57/57 74/74/74 58/58/58
f 58/58/58 74/74/74 59/59/59
f 59/59/59 74/74/74 75/75/75
f 59/59/59 75/75/75 76/76/76
f 59/59/59 76/76/76 60/60/60
f 60/60/60 76/76/76 61/61/61
f 61/61/61 76/76/76 77/77/77
f 61/61/61 77/77/77 78/78/78
f 61/61/61 78/78/78 62/62/62
f 62/62/62 78/78/78 63/63/63
f 63/63/63 78/78/78 79/79/79
f 63/63/63 79/79/79 80/80/80
f 63/63/63 80/80/80 64/64/64
f 64/64/64 80/80/80 65/65/65
f 65/65/65 80/80/80 81/81/81
f 65/65/65 81/81/81 82/82/82
f 65/65/65 82/82/82 66/66/66
f 66/66/66 82/82/82 67/67/67
f 67/67/67 82/82/82 83/83/83
f 68/68/68 84/84/84 85/85/85
f 68/68/68 85/85/85 69/69/69
f 69/69/69 85/85/85 70/70/70
f 70/70/70 85/85/85 86/86/86
f 70/70/70 86/86/86 87/87/87
f 70/70/70 87/87/87 71/71/71
f 71/71/71 87/87/87 72/72/72
f 72/72/72 87/87/87 88/88/88
f 72/72/72 88/88/88 89/89/89
f 72/72/72 89/89/89 73/73/73
f 73/73/73 89/89/89 74/74/74
f 74/74/74 89/89/89 90/90/90
f 74/74/74 90/90/90 91/91/91
f 74/74/74 91/91/91 75/75/75
f 75/75/75 91/91/91 76/76/76
f 76/76/76 91/91/91 92/92/92
f 76/76/76 92/92/92 93/93/93
f 76/76/76 93/93/93 77/77/77
f 77/77/77 93/93/93 78/78/78
f 78/78/78 93/93/93 94/94/94
f 78/78/78 94/94/94 95/95/95
f 78/78/78 95/95/95 79/79/79
f 79/79/79 95/95/95 80/80/80
f 80/80/80 95/95/95 96/96/96
f 80/80/80 96/96/96 97/97/97
f 80/80/80 97/97/97 81/81/81
f 81/81/81 97/97/97 82/82/82
f 82/82/82 97/97/97 98/98/98
f 82/82/82 98/98/98 99/99/99
f 82/82/82 99/99/99 83/83/83
f 84/84/84 100/100/100 85/85/85
f 85/85/85 100/100/100 101/101/101
f 85/85/85 101/101/101 102/102/102
f 85/85/85 102/102/102 86/86/86
f 86/86/86 102/102/102 87/87/87
f 87/87/87 102/102/102 103/103/103
f 87/87/87 103/103/103 104/104/104
f 87/87/87 104/104/104 88/88/88
f 88/88/88 104/104/104 89/89/89
f 89/89/89 104/104/104 105/105/105
f 89/89/89 105/105/105 106/106/106
f 89/89/89 106/106/106 90/90/90
f 90/90/90 106/106/106 91/91/91
f 91/91/91 106/106/106 107/107/107
f 91/91/91 107/107/107 108/108/108
f 91/91/91 108/108/108 92/92/92
f 92/92/92 108/108/108 93/93/93
f 93/93/93 108/108/108 109/109/109
f 93/93/93 109/109/109 110/110/110
f 93/93/93 110/110/110 94/94/94
f 94/94/94 110/110/110 95/95/95
f 95/95/95 110/110/110 111/111/111
f 95/95/95 111/111/111 112/112/112
f 95/95/95 112/112/112 96/96/96
f 96/96/96 112/112/112 97/97/97
f 97/97/97 112/112/112 113/113/113
f 97/97/97 113/113/113 114/114/114
f 97/97/97 114/114/114 98/98/98
f 100/100/100 115/115/115 116/116/116
f 100/100/100 116/116/116 101/101/101
f 101/101/101 116/116/116 102/102/102
f 102/102/102 116/116/116 117/117/117
f 102/102/102 117/117/117 118/118/118
f 102/102/102 118/118/118 103/103/103
f 103/103/103 118/118/118 104/104/104
f 104/104/104 118/118/118 119/119/119
f 104/104/104 119/119/119 120/120/120
f 104/104/104 120/120/120 105/105/105
f 105/105/105 120/120/120 106/106/106
f 106/106/106 120/120/120 121/121/121
f 106/106/106 121/121/121 122/122/122
f 106/106/106 122/122/122 107/107/107
f 107/107/107 122/122/122 108/108/108
f 108/108/108 122/122/122 123/123/123
f 108/108/108 123/123/123 124/124/124
f 108/108/108 124/124/124 109/109/109
f 109/109/109 124/124/124 110/110/110
f 110/110/110 124/124/124 125/125/125
f 110/110/110 125/125/125 126/126/126
f 110/110/110 126/126/126 111/111/111
f 111/111/111 126/126/126 112/112/112
f 115/115/115 127/127/127 116/116/116
f 116/116/116 127/127/127 128/128/128
f 116/116/116 128/128/128 129/129/129
f 116/116/116 129/129/129 117/117/117
f 117/117/117 129/129/129 118/118/118
f 118/118/118 129/129/129 130/130/130
f 118/118/118 130/130/130 131/131/131
f 118/118/118 131/131/131 119/119/119
f 119/119/119 131/131/131 120/120/120
f 120/120/120 131/131/131 132/132/132
f 120/120/120 132/132/132 133/133/133
f 120/120/120 133/133/133 121/121/121
f 121/121/121 133/133/133 122/122/122
f 122/122/122 133/133/133 134/134/134
f 122/122/122 134/134/134 135/135/135
f 122/122/122 135/135/135 123/123/123
f 123/123/123 135/135/135 124/124/124
f 124/124/124 135/135/135 136/136/136
f 124/124/124 136/136/136 137/137/137
f 124/124/124 137/137/137 125/125/125
f 127/127/127 138/138/138 139/139/139
f 127/127/127 139/139/139 128/128/128
f 128/128/128 139/139/139 129/129/129
f 129/129/129 139/139/139 140/140/140
f 129/129/129 140/140/140 141/141/141
f 129/129/129 141/141/141 130/130/130
f 130/130/130 141/141/141 131/131/131
f 131/131/131 141/141/141 142/142/142
f 131/131/131 142/142/142 143/143/143
f 131/131/131 143/143/143 132/132/132
f 132/132/132 143/143/143 133/133/133
f 133/133/133 143/143/143 144/144/144
f 133/133/133 144/144/144 145/145/145
f 133/133/133 145/145/145 134/134/134
f 134/134/134 145/145/145 135/135/135
f 138/138/138 146/146/146 139/139/139
f 139/139/139 146/146/146 147/147/147
f 139/139/139 147/147/147 148/148/148
f 139/139/139 148/148/148 140/140/140
f 142/142/142 149/149/149 143/143/143
f 143/143/143 149/149/149 150/150/150
f 143/143/143 150/150/150 151/151/151
f 143/143/143 151/151/151 144/144/144
