# Generated by tools/generate_island.py. Do not edit by hand.
o terrain_lod2_-4_1

v -512.000 -1.399 128.000 0.361 0.326 0.184
v -512.000 -1.176 144.000 0.361 0.326 0.184
v -496.000 -0.924 144.000 0.361 0.326 0.184
v -496.000 -1.069 128.000 0.361 0.326 0.184
v -480.000 -0.822 128.000 0.384 0.350 0.199
v -480.000 -1.312 144.000 0.398 0.364 0.208
v -464.000 -0.773 144.000 0.423 0.391 0.225
v -464.000 -1.095 128.000 0.412 0.379 0.218
v -448.000 -0.328 128.000 0.386 0.352 0.200
v -448.000 -0.435 144.000 0.371 0.337 0.191
v -432.000 -0.350 144.000 0.403 0.369 0.211
v -432.000 0.212 128.000 0.457 0.425 0.247
v -416.000 0.640 128.000 0.526 0.496 0.292
v -416.000 0.589 144.000 0.479 0.448 0.262
v -400.000 1.471 144.000 0.499 0.468 0.274
v -400.000 2.315 128.000 0.288 0.353 0.133
v -384.000 2.544 128.000 0.262 0.332 0.124
v -384.000 1.022 144.000 0.497 0.466 0.273
v -512.000 -0.993 160.000 0.403 0.370 0.212
v -496.000 -1.262 160.000 0.365 0.330 0.187
v -480.000 -1.134 160.000 0.409 0.375 0.215
v -464.000 -0.217 160.000 0.402 0.369 0.211
v -448.000 -0.502 160.000 0.414 0.381 0.219
v -432.000 -0.375 160.000 0.402 0.368 0.211
v -416.000 0.117 160.000 0.404 0.370 0.212
v -400.000 0.776 160.000 0.457 0.425 0.247
v -384.000 -0.028 160.000 0.410 0.377 0.216
v -512.000 -1.016 176.000 0.415 0.382 0.220
v -496.000 -1.239 176.000 0.396 0.362 0.207
v -480.000 -0.943 176.000 0.395 0.362 0.206
v -464.000 -0.958 176.000 0.421 0.388 0.223
v -448.000 -0.799 176.000 0.442 0.410 0.237
v -432.000 0.320 176.000 0.447 0.414 0.240
v -416.000 0.692 176.000 0.442 0.410 0.237
v -400.000 0.086 176.000 0.461 0.429 0.250
v -384.000 0.375 176.000 0.415 0.381 0.219
v -512.000 -1.708 192.000 0.421 0.388 0.223
v -496.000 -1.621 192.000 0.409 0.375 0.215
v -480.000 -0.892 192.000 0.387 0.353 0.201
v -464.000 -0.963 192.000 0.396 0.363 0.207
v -448.000 -0.748 192.000 0.465 0.434 0.253
v -432.000 0.163 192.000 0.470 0.438 0.255
v -416.000 -0.025 192.000 0.448 0.415 0.241
v -400.000 0.536 192.000 0.469 0.438 0.255
v -384.000 0.833 192.000 0.455 0.423 0.245
v -512.000 -2.427 208.000 0.414 0.381 0.219
v -496.000 -1.673 208.000 0.437 0.405 0.234
v -480.000 -1.036 208.000 0.430 0.398 0.229
v -464.000 -1.249 208.000 0.448 0.416 0.241
v -448.000 -0.634 208.000 0.435 0.402 0.233
v -432.000 -0.309 208.000 0.446 0.414 0.240
v -416.000 -0.477 208.000 0.489 0.458 0.268
v -400.000 0.950 208.000 0.472 0.441 0.257
v -384.000 0.552 208.000 0.462 0.430 0.250
v -512.000 -2.947 224.000 0.414 0.381 0.219
v -496.000 -2.274 224.000 0.434 0.401 0.232
v -480.000 -2.140 224.000 0.475 0.443 0.259
v -464.000 -1.384 224.000 0.450 0.418 0.242
v -448.000 -0.635 224.000 0.402 0.368 0.211
v -432.000 -0.878 224.000 0.433 0.400 0.231
v -416.000 -0.562 224.000 0.458 0.426 0.248
v -400.000 0.051 224.000 0.460 0.428 0.249
v -384.000 -0.609 224.000 0.468 0.436 0.254
v -512.000 -3.547 240.000 0.454 0.422 0.245
v -496.000 -2.796 240.000 0.467 0.435 0.253
v -480.000 -2.613 240.000 0.413 0.380 0.218
v -464.000 -2.115 240.000 0.398 0.365 0.208
v -448.000 -1.466 240.000 0.465 0.433 0.252
v -432.000 -0.776 240.000 0.449 0.417 0.242
v -416.000 -0.489 240.000 0.427 0.394 0.227
v -400.000 -0.996 240.000 0.413 0.380 0.218
v -384.000 -0.314 240.000 0.423 0.390 0.225
v -512.000 -4.222 256.000 0.477 0.446 0.260
v -496.000 -4.168 256.000 0.461 0.429 0.250
v -480.000 -3.214 256.000 0.393 0.359 0.205
v -464.000 -2.033 256.000 0.384 0.350 0.199
v -448.000 -1.835 256.000 0.449 0.417 0.242
v -432.000 -1.324 256.000 0.439 0.406 0.235
v -416.000 -0.748 256.000 0.437 0.405 0.234
v -400.000 -0.627 256.000 0.415 0.382 0.220
v -384.000 1.344 256.000 0.423 0.390 0.224

vt 0.233333 0.433333
vt 0.233333 0.425000
vt 0.241667 0.425000
vt 0.241667 0.433333
vt 0.250000 0.433333
vt 0.250000 0.425000
vt 0.258333 0.425000
vt 0.258333 0.433333
vt 0.266667 0.433333
vt 0.266667 0.425000
vt 0.275000 0.425000
vt 0.275000 0.433333
vt 0.283333 0.433333
vt 0.283333 0.425000
vt 0.291667 0.425000
vt 0.291667 0.433333
vt 0.300000 0.433333
vt 0.300000 0.425000
vt 0.233333 0.416667
vt 0.241667 0.416667
vt 0.250000 0.416667
vt 0.258333 0.416667
vt 0.266667 0.416667
vt 0.275000 0.416667
vt 0.283333 0.416667
vt 0.291667 0.416667
vt 0.300000 0.416667
vt 0.233333 0.408333
vt 0.241667 0.408333
vt 0.250000 0.408333
vt 0.258333 0.408333
vt 0.266667 0.408333
vt 0.275000 0.408333
vt 0.283333 0.408333
vt 0.291667 0.408333
vt 0.300000 0.408333
vt 0.233333 0.400000
vt 0.241667 0.400000
vt 0.250000 0.400000
vt 0.258333 0.400000
vt 0.266667 0.400000
vt 0.275000 0.400000
vt 0.283333 0.400000
vt 0.291667 0.400000
vt 0.300000 0.400000
vt 0.233333 0.391667
vt 0.241667 0.391667
vt 0.250000 0.391667
vt 0.258333 0.391667
vt 0.266667 0.391667
vt 0.275000 0.391667
vt 0.283333 0.391667
vt 0.291667 0.391667
vt 0.300000 0.391667
vt 0.233333 0.383333
vt 0.241667 0.383333
vt 0.250000 0.383333
vt 0.258333 0.383333
vt 0.266667 0.383333
vt 0.275000 0.383333
vt 0.283333 0.383333
vt 0.291667 0.383333
vt 0.300000 0.383333
vt 0.233333 0.375000
vt 0.241667 0.375000
vt 0.250000 0.375000
vt 0.258333 0.375000
vt 0.266667 0.375000
vt 0.275000 0.375000
vt 0.283333 0.375000
vt 0.291667 0.375000
vt 0.300000 0.375000
vt 0.233333 0.366667
vt 0.241667 0.366667
vt 0.250000 0.366667
vt 0.258333 0.366667
vt 0.266667 0.366667
vt 0.275000 0.366667
vt 0.283333 0.366667
vt 0.291667 0.366667
vt 0.300000 0.366667

vn -0.01818 0.99977 -0.01150
vn -0.01572 0.99980 -0.01270
vn -0.00127 1.00000 0.00228
vn -0.01804 0.99980 -0.00904
vn -0.00194 0.99997 0.00804
vn -0.00472 0.99994 0.00977
vn -0.02250 0.99970 -0.00992
vn -0.01543 0.99968 -0.02015
vn -0.02704 0.99961 0.00710
vn -0.01322 0.99990 0.00543
vn -0.02838 0.99949 0.01460
vn -0.03021 0.99893 0.03511
vn -0.06117 0.99785 0.02351
vn -0.05680 0.99825 0.01630
vn -0.02048 0.99863 0.04815
vn -0.05931 0.99685 0.05257
vn 0.00685 0.99726 0.07371
vn 0.02795 0.99640 0.08007
vn 0.00796 0.99997 0.00243
vn 0.00442 0.99994 0.00985
vn -0.01969 0.99980 -0.00187
vn -0.01976 0.99979 0.00579
vn -0.01084 0.99994 0.00189
vn -0.01934 0.99959 -0.02093
vn -0.03036 0.99953 0.00397
vn 0.00453 0.99905 0.04324
vn 0.02759 0.99912 0.03172
vn 0.01393 0.99965 0.02236
vn -0.00642 0.99994 0.00932
vn -0.00878 0.99993 -0.00757
vn -0.00831 0.99990 0.01169
vn -0.03992 0.99917 0.00770
vn -0.03376 0.99942 -0.00536
vn 0.00731 0.99996 0.00444
vn -0.00062 1.00000 -0.00187
vn -0.01806 0.99947 -0.02690
vn -0.01100 0.99952 0.02881
vn -0.02550 0.99958 0.01356
vn -0.01579 0.99985 0.00713
vn -0.00449 0.99995 0.00910
vn -0.03491 0.99938 0.00462
vn -0.02261 0.99955 0.01966
vn -0.01383 0.99977 0.01643
vn -0.02679 0.99928 -0.02697
vn -0.00759 0.99984 -0.01625
vn -0.04700 0.99815 0.03863
vn -0.03437 0.99897 0.02958
vn -0.01323 0.99915 0.03896
vn -0.01915 0.99970 0.01544
vn -0.02937 0.99956 -0.00353
vn -0.00868 0.99977 0.01958
vn -0.03931 0.99909 0.01677
vn -0.02240 0.99948 0.02304
vn 0.02486 0.99868 0.04502
vn -0.04447 0.99840 0.03499
vn -0.02521 0.99907 0.03505
vn -0.02250 0.99894 0.04012
vn -0.04694 0.99853 0.02701
vn -0.02570 0.99940 0.02340
vn -0.00230 0.99989 0.01459
vn -0.02262 0.99956 0.01903
vn 0.00148 0.99816 0.06069
vn 0.01617 0.99891 0.04388
vn -0.04686 0.99811 0.03978
vn -0.02874 0.99844 0.04787
vn -0.02125 0.99921 0.03354
vn -0.04038 0.99880 0.02786
vn -0.04177 0.99843 0.03744
vn -0.02433 0.99955 0.01778
vn 0.00687 0.99996 0.00582
vn -0.01871 0.99982 -0.00321
vn -0.04250 0.99724 -0.06087
vn -0.02512 0.99764 0.06383
vn -0.03139 0.99585 0.08539
vn -0.04392 0.99828 0.03887
vn -0.04303 0.99906 -0.00513
vn -0.03198 0.99931 0.01879
vn -0.03395 0.99884 0.03417
vn -0.00744 0.99991 0.01087
vn -0.06522 0.99761 -0.02298
vn -0.08247 0.99460 -0.06299

f 1/1/1 2/2/2 3/3/3
f 1/1/1 3/3/3 4/4/4
f 4/4/4 3/3/3 5/5/5
f 5/5/5 3/3/3 6/6/6
f 5/5/5 6/6/6 7/7/7
f 5/5/5 7/7/7 8/8/8
f 8/8/8 7/7/7 9/9/9
f 9/9/9 7/7/7 10/10/10
f 9/9/9 10/10/10 11/11/11
f 9/9/9 11/11/11 12/12/12
f 12/12/12 11/11/11 13/13/13
f 13/13/13 11/11/11 14/14/14
f 13/13/13 14/14/14 15/15/15
f 13/13/13 15/15/15 16/16/16
f 16/16/16 15/15/15 17/17/17
f 17/17/17 15/15/15 18/18/18
f 2/2/2 19/19/19 3/3/3
f 3/3/3 19/19/19 20/20/20
f 3/3/3 20/20/20 21/21/21
f 3/3/3 21/21/21 6/6/6
f 6/6/6 21/21/21 7/7/7
f 7/7/7 21/21/21 22/22/22
f 7/7/7 22/22/22 23/23/23
f 7/7/7 23/23/23 10/10/10
f 10/10/10 23/23/23 11/11/11
f 11/11/11 23/23/23 24/24/24
f 11/11/11 24/24/24 25/25/25
f 11/11/11 25/25/25 14/14/14
f 14/14/14 25/25/25 15/15/15
f 15/15/15 25/25/25 26/26/26
f 15/15/15 26/26/26 27/27/27
f 15/15/15 27/27/27 18/18/18
f 19/19/19 28/28/28 29/29/29
f 19/19/19 29/29/29 20/20/20
f 20/20/20 29/29/29 21/21/21
f 21/21/21 29/29/29 30/30/30
f 21/21/21 30/30/30 31/31/31
f 21/21/21 31/31/31 22/22/22
f 22/22/22 31/31/31 23/23/23
f 23/23/23 31/31/31 32/32/32
f 23/23/23 32/32/32 33/33/33
f 23/23/23 33/33/33 24/24/24
f 24/24/24 33/33/33 25/25/25
f 25/25/25 33/33/33 34/34/34
f 25/25/25 34/34/34 35/35/35
f 25/25/25 35/35/35 26/26/26
f 26/26/26 35/35/35 27/27/27
f 27/27/27 35/35/35 36/36/36
f 28/28/28 37/37/37 29/29/29
f 29/29/29 37/37/37 38/38/38
f 29/29/29 38/38/38 39/39/39
f 29/29/29 39/39/39 30/30/30
f 30/30/30 39/39/39 31/31/31
f 31/31/31 39/39/39 40/40/40
f 31/31/31 40/40/40 41/41/41
f 31/31/31 41/41/41 32/32/32
f 32/32/32 41/41/41 33/33/33
f 33/33/33 41/41/41 42/42/42
f 33/33/33 42/42/42 43/43/43
f 33/33/33 43/43/43 34/34/34
f 34/34/34 43/43/43 35/35/35
f 35/35/35 43/43/43 44/44/44
f 35/35/35 44/44/44 45/45/45
f 35/35/35 45/45/45 36/36/36
f 37/37/37 46/46/46 47/47/47
f 37/37/37 47/47/47 38/38/38
f 38/38/38 47/47/47 39/39/39
f 39/39/39 47/47/47 48/48/48
f 39/39/39 48/48/48 49/49/49
f 39/39/39 49/49/49 40/40/40
f 40/40/40 49/49/49 41/41/41
f 41/41/41 49/49/49 50/50/50
f 41/41/41 50/50/50 51/51/51
f 41/41/41 51/51/51 42/42/42
f 42/42/42 51/51/51 43/43/43
f 43/43/43 51/51/51 52/52/52
f 43/43/43 52/52/52 53/53/53
f 43/43/43 53/53/53 44/44/44
f 44/44/44 53/53/53 45/45/45
f 45/45/45 53/53/53 54/54/54
f 46/46/46 55/55/55 47/47/47
f 47/47/47 55/55/55 56/56/56
f 47/47/47 56/56/56 57/57/57
f 47/47/47 57/57/57 48/48/48
f 48/48/48 57/57/57 49/49/49
f 49/49/49 57/57/57 58/58/58
f 49/49/49 58/58/58 59/59/59
f 49/49/49 59/59/59 50/50/50
f 50/50/50 59/59/59 51/51/51
f 51/51/51 59/59/59 60/60/60
f 51/51/51 60/60/60 61/61/61
f 51/51/51 61/61/61 52/52/52
f 52/52/52 61/61/61 53/53/53
f 53/53/53 61/61/61 62/62/62
f 53/53/53 62/62/62 63/63/63
f 53/53/53 63/63/63 54/54/54
f 55/55/55 64/64/64 65/65/65
f 55/55/55 65/65/65 56/56/56
f 56/56/56 65/65/65 57/57/57
f 57/57/57 65/65/65 66/66/66
f 57/57/57 66/66/66 67/67/67
f 57/57/57 67/67/67 58/58/58
f 58/58/58 67/67/67 59/59/59
f 59/59/59 67/67/67 68/68/68
f 59/59/59 68/68/68 69/69/69
f 59/59/59 69/69/69 60/60/60
f 60/60/60 69/69/69 61/61/61
f 61/61/61 69/69/69 70/70/70
f 61/61/61 70/70/70 71/71/71
f 61/61/61 71/71/71 62/62/62
f 62/62/62 71/71/71 63/63/63
f 63/63/63 71/71/71 72/72/72
f 64/64/64 73/73/73 65/65/65
f 65/65/65 73/73/73 74/74/74
f 65/65/65 74/74/74 75/75/75
f 65/65/65 75/75/75 66/66/66
f 66/66/66 75/75/75 67/67/67
f 67/67/67 75/75/75 76/76/76
f 67/67/67 76/76/76 77/77/77
f 67/67/67 77/77/77 68/68/68
f 68/68/68 77/77/77 69/69/69
f 69/69/69 77/77/77 78/78/78
f 69/69/69 78/78/78 79/79/79
f 69/69/69 79/79/79 70/70/70
f 70/70/70 79/79/79 71/71/71
f 71/71/71 79/79/79 80/80/80
f 71/71/71 80/80/80 81/81/81
f 71/71/71 81/81/81 72/72/72
