# Generated by tools/generate_island.py. Do not edit by hand.
o terrain_lod2_-6_0

v -768.000 -9.414 0.000 0.519 0.489 0.288
v -768.000 -9.133 16.000 0.509 0.478 0.281
v -752.000 -8.562 16.000 0.483 0.451 0.264
v -752.000 -8.910 0.000 0.476 0.445 0.260
v -736.000 -8.549 0.000 0.504 0.474 0.278
v -736.000 -7.691 16.000 0.485 0.454 0.266
v -720.000 -6.727 16.000 0.473 0.442 0.258
v -720.000 -6.997 0.000 0.432 0.399 0.231
v -704.000 -6.424 0.000 0.391 0.357 0.204
v -704.000 -6.481 16.000 0.416 0.383 0.220
v -688.000 -5.810 16.000 0.361 0.326 0.184
v -688.000 -6.305 0.000 0.362 0.327 0.185
v -672.000 -5.610 0.000 0.367 0.333 0.188
v -672.000 -4.736 16.000 0.388 0.354 0.202
v -656.000 -4.657 16.000 0.361 0.326 0.184
v -656.000 -4.955 0.000 0.361 0.326 0.184
v -640.000 -4.295 0.000 0.387 0.353 0.201
v -640.000 -4.266 16.000 0.375 0.340 0.193
v -768.000 -8.893 32.000 0.523 0.493 0.291
v -752.000 -8.458 32.000 0.529 0.500 0.295
v -736.000 -7.129 32.000 0.531 0.501 0.296
v -720.000 -6.388 32.000 0.522 0.492 0.290
v -704.000 -5.972 32.000 0.472 0.440 0.257
v -688.000 -5.132 32.000 0.432 0.399 0.231
v -672.000 -4.822 32.000 0.410 0.377 0.216
v -656.000 -4.599 32.000 0.367 0.332 0.188
v -640.000 -3.574 32.000 0.383 0.349 0.198
v -768.000 -9.045 48.000 0.546 0.516 0.305
v -752.000 -7.855 48.000 0.568 0.539 0.320
v -736.000 -6.441 48.000 0.557 0.528 0.313
v -720.000 -6.241 48.000 0.556 0.527 0.312
v -704.000 -5.545 48.000 0.477 0.446 0.260
v -688.000 -5.033 48.000 0.412 0.379 0.217
v -672.000 -4.947 48.000 0.365 0.330 0.187
v -656.000 -4.163 48.000 0.386 0.352 0.200
v -640.000 -3.212 48.000 0.412 0.379 0.218
v -768.000 -8.386 64.000 0.564 0.535 0.317
v -752.000 -7.280 64.000 0.569 0.541 0.321
v -736.000 -6.884 64.000 0.585 0.557 0.331
v -720.000 -6.236 64.000 0.549 0.520 0.308
v -704.000 -5.058 64.000 0.477 0.446 0.261
v -688.000 -4.773 64.000 0.395 0.362 0.207
v -672.000 -4.871 64.000 0.365 0.330 0.186
v -656.000 -4.049 64.000 0.400 0.366 0.210
v -640.000 -3.361 64.000 0.433 0.401 0.231
v -768.000 -8.374 80.000 0.513 0.483 0.284
v -752.000 -7.271 80.000 0.533 0.503 0.297
v -736.000 -6.687 80.000 0.565 0.536 0.318
v -720.000 -5.920 80.000 0.469 0.437 0.255
v -704.000 -5.583 80.000 0.425 0.392 0.226
v -688.000 -5.326 80.000 0.422 0.389 0.224
v -672.000 -4.212 80.000 0.453 0.421 0.244
v -656.000 -3.260 80.000 0.453 0.421 0.244
v -640.000 -3.391 80.000 0.439 0.407 0.235
v -768.000 -7.892 96.000 0.466 0.434 0.253
v -752.000 -7.869 96.000 0.439 0.406 0.235
v -736.000 -7.365 96.000 0.427 0.394 0.227
v -720.000 -6.076 96.000 0.415 0.382 0.219
v -704.000 -5.594 96.000 0.389 0.355 0.202
v -688.000 -5.210 96.000 0.427 0.394 0.227
v -672.000 -4.230 96.000 0.433 0.400 0.231
v -656.000 -3.882 96.000 0.429 0.396 0.228
v -640.000 -3.411 96.000 0.411 0.378 0.217
v -768.000 -7.992 112.000 0.443 0.411 0.238
v -752.000 -7.936 112.000 0.394 0.360 0.206
v -736.000 -7.140 112.000 0.361 0.326 0.184
v -720.000 -6.398 112.000 0.361 0.326 0.184
v -704.000 -6.030 112.000 0.380 0.346 0.196
v -688.000 -5.116 112.000 0.404 0.370 0.212
v -672.000 -4.134 112.000 0.423 0.390 0.225
v -656.000 -3.978 112.000 0.398 0.364 0.208
v -640.000 -3.377 112.000 0.387 0.353 0.201
v -768.000 -8.143 128.000 0.486 0.455 0.266
v -752.000 -7.677 128.000 0.418 0.385 0.222
v -736.000 -6.841 128.000 0.381 0.347 0.197
v -720.000 -6.547 128.000 0.407 0.373 0.214
v -704.000 -5.847 128.000 0.424 0.391 0.225
v -688.000 -4.640 128.000 0.425 0.392 0.226
v -672.000 -4.444 128.000 0.441 0.409 0.237
v -656.000 -4.092 128.000 0.456 0.424 0.246
v -640.000 -3.062 128.000 0.400 0.367 0.210

vt 0.100000 0.500000
vt 0.100000 0.491667
vt 0.108333 0.491667
vt 0.108333 0.500000
vt 0.116667 0.500000
vt 0.116667 0.491667
vt 0.125000 0.491667
vt 0.125000 0.500000
vt 0.133333 0.500000
vt 0.133333 0.491667
vt 0.141667 0.491667
vt 0.141667 0.500000
vt 0.150000 0.500000
vt 0.150000 0.491667
vt 0.158333 0.491667
vt 0.158333 0.500000
vt 0.166667 0.500000
vt 0.166667 0.491667
vt 0.100000 0.483333
vt 0.108333 0.483333
vt 0.116667 0.483333
vt 0.125000 0.483333
vt 0.133333 0.483333
vt 0.141667 0.483333
vt 0.150000 0.483333
vt 0.158333 0.483333
vt 0.166667 0.483333
vt 0.100000 0.475000
vt 0.108333 0.475000
vt 0.116667 0.475000
vt 0.125000 0.475000
vt 0.133333 0.475000
vt 0.141667 0.475000
vt 0.150000 0.475000
vt 0.158333 0.475000
vt 0.166667 0.475000
vt 0.100000 0.466667
vt 0.108333 0.466667
vt 0.116667 0.466667
vt 0.125000 0.466667
vt 0.133333 0.466667
vt 0.141667 0.466667
vt 0.150000 0.466667
vt 0.158333 0.466667
vt 0.166667 0.466667
vt 0.100000 0.458333
vt 0.108333 0.458333
vt 0.116667 0.458333
vt 0.125000 0.458333
vt 0.133333 0.458333
vt 0.141667 0.458333
vt 0.150000 0.458333
vt 0.158333 0.458333
vt 0.166667 0.458333
vt 0.100000 0.450000
vt 0.108333 0.450000
vt 0.116667 0.450000
vt 0.125000 0.450000
vt 0.133333 0.450000
vt 0.141667 0.450000
vt 0.150000 0.450000
vt 0.158333 0.450000
vt 0.166667 0.450000
vt 0.100000 0.441667
vt 0.108333 0.441667
vt 0.116667 0.441667
vt 0.125000 0.441667
vt 0.133333 0.441667
vt 0.141667 0.441667
vt 0.150000 0.441667
vt 0.158333 0.441667
vt 0.166667 0.441667
vt 0.100000 0.433333
vt 0.108333 0.433333
vt 0.116667 0.433333
vt 0.125000 0.433333
vt 0.133333 0.433333
vt 0.141667 0.433333
vt 0.150000 0.433333
vt 0.158333 0.433333
vt 0.166667 0.433333

vn -0.03358 0.99924 -0.01967
vn -0.03567 0.99923 -0.01629
vn -0.04301 0.99883 -0.02222
vn -0.02701 0.99940 -0.02177
vn -0.05841 0.99763 -0.03639
vn -0.05717 0.99738 -0.04429
vn -0.04449 0.99872 -0.02412
vn -0.06627 0.99766 -0.01683
vn -0.02515 0.99963 -0.01015
vn -0.02866 0.99949 -0.01410
vn -0.04255 0.99870 -0.02797
vn -0.02542 0.99920 -0.03091
vn -0.03905 0.99845 -0.03962
vn -0.03601 0.99905 -0.02459
vn -0.02735 0.99948 -0.01735
vn -0.04104 0.99898 -0.01865
vn -0.03281 0.99941 -0.01022
vn -0.02437 0.99945 -0.02252
vn -0.04107 0.99908 -0.01240
vn -0.05503 0.99824 -0.02204
vn -0.05916 0.99783 -0.02879
vn -0.03610 0.99923 -0.01519
vn -0.03619 0.99905 -0.02447
vn -0.03591 0.99906 -0.02426
vn -0.02414 0.99969 -0.00664
vn -0.03897 0.99912 -0.01543
vn -0.05288 0.99831 -0.02416
vn -0.07413 0.99712 -0.01578
vn -0.06604 0.99752 -0.02421
vn -0.05038 0.99870 -0.00763
vn -0.03727 0.99924 -0.01141
vn -0.03771 0.99888 -0.02855
vn -0.01978 0.99973 -0.01236
vn -0.02719 0.99963 0.00155
vn -0.04860 0.99877 -0.00986
vn -0.05930 0.99822 -0.00665
vn -0.07021 0.99734 -0.01956
vn -0.04688 0.99873 -0.01823
vn -0.03943 0.99922 -0.00323
vn -0.05698 0.99833 -0.01002
vn -0.03691 0.99932 0.00038
vn -0.00582 0.99994 0.00917
vn -0.03424 0.99928 -0.01623
vn -0.04714 0.99849 -0.02817
vn -0.03427 0.99935 -0.01129
vn -0.06874 0.99752 -0.01539
vn -0.04217 0.99907 0.00911
vn -0.04218 0.99900 0.01502
vn -0.04530 0.99896 0.00542
vn -0.01855 0.99969 0.01674
vn -0.03351 0.99942 0.00599
vn -0.06443 0.99772 -0.01999
vn -0.03101 0.99949 -0.00721
vn 0.00823 0.99996 0.00157
vn -0.01882 0.99981 0.00443
vn -0.01647 0.99965 0.02078
vn -0.05052 0.99859 0.01600
vn -0.05527 0.99836 0.01493
vn -0.02817 0.99956 0.00908
vn -0.04256 0.99907 -0.00656
vn -0.04573 0.99895 0.00274
vn -0.02559 0.99942 0.02242
vn -0.02204 0.99970 0.01099
vn -0.00349 0.99996 0.00783
vn -0.02759 0.99961 -0.00515
vn -0.04799 0.99871 -0.01636
vn -0.03893 0.99923 0.00524
vn -0.04003 0.99917 0.00790
vn -0.05117 0.99868 -0.00525
vn -0.03556 0.99935 0.00666
vn -0.02901 0.99958 0.00223
vn -0.03753 0.99924 -0.01089
vn -0.01632 0.99986 -0.00338
vn -0.04065 0.99904 -0.01619
vn -0.04164 0.99907 -0.01108
vn -0.03106 0.99947 0.00925
vn -0.04976 0.99870 -0.01085
vn -0.04378 0.99860 -0.02974
vn -0.02633 0.99965 0.00403
vn -0.04313 0.99904 0.00716
vn -0.05090 0.99868 -0.00624

f 1/1/1 2/2/2 3/3/3
f 1/1/1 3/3/3 4/4/4
f 4/4/4 3/3/3 5/5/5
f 5/5/5 3/3/3 6/6/6
f 5/5/5 6/6/6 7/7/7
f 5/5/5 7/7/7 8/8/8
f 8/8/8 7/7/7 9/9/9
f 9/9/9 7/7/7 10/10/10
f 9/9/9 10/10/10 11/11/11
f 9/9/9 11/11/11 12/12/12
f 12/12/12 11/11/11 13/13/13
f 13/13/13 11/11/11 14/14/14
f 13/13/13 14/14/14 15/15/15
f 13/13/13 15/15/15 16/16/16
f 16/16/16 15/15/15 17/17/17
f 17/17/17 15/15/15 18/18/18
f 2/2/2 19/19/19 3/3/3
f 3/3/3 19/19/19 20/20/20
f 3/3/3 20/20/20 21/21/21
f 3/3/3 21/21/21 6/6/6
f 6/6/6 21/21/21 7/7/7
f 7/7/7 21/21/21 22/22/22
f 7/7/7 22/22/22 23/23/23
f 7/7/7 23/23/23 10/10/10
f 10/10/10 23/23/23 11/11/11
f 11/11/11 23/23/23 24/24/24
f 11/11/11 24/24/24 25/25/25
f 11/11/11 25/25/25 14/14/14
f 14/14/14 25/25/25 15/15/15
f 15/15/15 25/25/25 26/26/26
f 15/15/15 26/26/26 27/27/27
f 15/15/15 27/27/27 18/18/18
f 19/19/19 28/28/28 29/29/29
f 19/19/19 29/29/29 20/20/20
f 20/20/20 29/29/29 21/21/21
f 21/21/21 29/29/29 30/30/30
f 21/21/21 30/30/30 31/31/31
f 21/21/21 31/31/31 22/22/22
f 22/22/22 31/31/31 23/23/23
f 23/23/23 31/31/31 32/32/32
f 23/23/23 32/32/32 33/33/33
f 23/23/23 33/33/33 24/24/24
f 24/24/24 33/33/33 25/25/25
f 25/25/25 33/33/33 34/34/34
f 25/25/25 34/34/34 35/35/35
f 25/25/25 35/35/35 26/26/26
f 26/26/26 35/35/35 27/27/27
f 27/27/27 35/35/35 36/36/36
f 28/28/28 37/37/37 29/29/29
f 29/29/29 37/37/37 38/38/38
f 29/29/29 38/38/38 39/39/39
f 29/29/29 39/39/39 30/30/30
f 30/30/30 39/39/39 31/31/31
f 31/31/31 39/39/39 40/40/40
f 31/31/31 40/40/40 41/41/41
f 31/31/31 41/41/41 32/32/32
f 32/32/32 41/41/41 33/33/33
f 33/33/33 41/41/41 42/42/42
f 33/33/33 42/42/42 43/43/43
f 33/33/33 43/43/43 34/34/34
f 34/34/34 43/43/43 35/35/35
f 35/35/35 43/43/43 44/44/44
f 35/35/35 44/44/44 45/45/45
f 35/35/35 45/45/45 36/36/36
f 37/37/37 46/46/46 47/47/47
f 37/37/37 47/47/47 38/38/38
f 38/38/38 47/47/47 39/39/39
f 39/39/39 47/47/47 48/48/48
f 39/39/39 48/48/48 49/49/49
f 39/39/39 49/49/49 40/40/40
f 40/40/40 49/49/49 41/41/41
f 41/41/41 49/49/49 50/50/50
f 41/41/41 50/50/50 51/51/51
f 41/41/41 51/51/51 42/42/42
f 42/42/42 51/51/51 43/43/43
f 43/43/43 51/51/51 52/52/52
f 43/43/43 52/52/52 53/53/53
f 43/43/43 53/53/53 44/44/44
f 44/44/44 53/53/53 45/45/45
f 45/45/45 53/53/53 54/54/54
f 46/46/46 55/55/55 47/47/47
f 47/47/47 55/55/55 56/56/56
f 47/47/47 56/56/56 57/57/57
f 47/47/47 57/57/57 48/48/48
f 48/48/48 57/57/57 49/49/49
f 49/49/49 57/57/57 58/58/58
f 49/49/49 58/58/58 59/59/59
f 49/49/49 59/59/59 50/50/50
f 50/50/50 59/59/59 51/51/51
f 51/51/51 59/59/59 60/60/60
f 51/51/51 60/60/60 61/61/61
f 51/51/51 61/61/61 52/52/52
f 52/52/52 61/61/61 53/53/53
f 53/53/53 61/61/61 62/62/62
f 53/53/53 62/62/62 63/63/63
f 53/53/53 63/63/63 54/54/54
f 55/55/55 64/64/64 65/65/65
f 55/55/55 65/65/65 56/56/56
f 56/56/56 65/65/65 57/57/57
f 57/57/57 65/65/65 66/66/66
f 57/57/57 66/66/66 67/67/67
f 57/57/57 67/67/67 58/58/58
f 58/58/58 67/67/67 59/59/59
f 59/59/59 67/67/67 68/68/68
f 59/59/59 68/68/68 69/69/69
f 59/59/59 69/69/69 60/60/60
f 60/60/60 69/69/69 61/61/61
f 61/61/61 69/69/69 70/70/70
f 61/61/61 70/70/70 71/71/71
f 61/61/61 71/71/71 62/62/62
f 62/62/62 71/71/71 63/63/63
f 63/63/63 71/71/71 72/72/72
f 64/64/64 73/73/73 65/65/65
f 65/65/65 73/73/73 74/74/74
f 65/65/65 74/74/74 75/75/75
f 65/65/65 75/75/75 66/66/66
f 66/66/66 75/75/75 67/67/67
f 67/67/67 75/75/75 76/76/76
f 67/67/67 76/76/76 77/77/77
f 67/67/67 77/77/77 68/68/68
f 68/68/68 77/77/77 69/69/69
f 69/69/69 77/77/77 78/78/78
f 69/69/69 78/78/78 79/79/79
f 69/69/69 79/79/79 70/70/70
f 70/70/70 79/79/79 71/71/71
f 71/71/71 79/79/79 80/80/80
f 71/71/71 80/80/80 81/81/81
f 71/71/71 81/81/81 72/72/72
