# Generated by tools/generate_island.py. Do not edit by hand.
o terrain_lod2_2_0

v 128.000 2.678 0.000 0.292 0.356 0.134
v 128.000 1.921 8.000 0.200 0.357 0.180
v 136.000 2.105 8.000 0.187 0.340 0.173
v 136.000 2.670 0.000 0.264 0.335 0.125
v 144.000 1.944 0.000 0.255 0.328 0.122
v 144.000 2.015 8.000 0.178 0.329 0.168
v 152.000 1.946 8.000 0.178 0.329 0.168
v 152.000 1.404 0.000 0.268 0.337 0.126
v 160.000 0.774 0.000 0.563 0.534 0.317
v 160.000 0.944 8.000 0.556 0.527 0.312
v 168.000 0.400 8.000 0.548 0.519 0.307
v 168.000 0.733 0.000 0.558 0.529 0.314
v 176.000 -0.229 0.000 0.567 0.538 0.319
v 176.000 -0.231 8.000 0.553 0.524 0.310
v 184.000 -0.754 8.000 0.544 0.515 0.304
v 184.000 -0.668 0.000 0.529 0.499 0.294
v 192.000 -1.125 0.000 0.483 0.452 0.264
v 192.000 -0.751 8.000 0.478 0.447 0.261
v 128.000 0.253 16.000 0.573 0.545 0.324
v 136.000 1.514 16.000 0.204 0.362 0.183
v 144.000 1.859 16.000 0.200 0.356 0.180
v 152.000 2.107 16.000 0.196 0.352 0.178
v 160.000 1.641 16.000 0.552 0.523 0.310
v 168.000 0.377 16.000 0.541 0.512 0.302
v 176.000 0.161 16.000 0.549 0.520 0.308
v 184.000 -0.553 16.000 0.509 0.478 0.281
v 192.000 -0.851 16.000 0.475 0.444 0.259
v 128.000 -2.048 24.000 0.563 0.535 0.318
v 136.000 0.395 24.000 0.585 0.557 0.331
v 144.000 1.787 24.000 0.206 0.365 0.184
v 152.000 1.978 24.000 0.206 0.365 0.184
v 160.000 1.796 24.000 0.557 0.528 0.313
v 168.000 0.598 24.000 0.527 0.497 0.293
v 176.000 -0.172 24.000 0.513 0.482 0.284
v 184.000 -0.572 24.000 0.482 0.451 0.264
v 192.000 -1.313 24.000 0.450 0.417 0.242
v 128.000 0.105 32.000 0.550 0.522 0.309
v 136.000 0.891 32.000 0.572 0.543 0.322
v 144.000 1.479 32.000 0.206 0.365 0.184
v 152.000 1.967 32.000 0.205 0.363 0.183
v 160.000 1.089 32.000 0.550 0.520 0.308
v 168.000 0.234 32.000 0.518 0.488 0.287
v 176.000 -0.279 32.000 0.488 0.457 0.267
v 184.000 -0.502 32.000 0.461 0.430 0.250
v 192.000 -1.178 32.000 0.428 0.396 0.228
v 128.000 0.331 40.000 0.443 0.417 0.245
v 136.000 0.546 40.000 0.550 0.521 0.308
v 144.000 0.750 40.000 0.585 0.557 0.331
v 152.000 1.931 40.000 0.199 0.356 0.180
v 160.000 0.981 40.000 0.541 0.511 0.302
v 168.000 0.345 40.000 0.534 0.504 0.298
v 176.000 0.166 40.000 0.511 0.481 0.283
v 184.000 -0.512 40.000 0.482 0.450 0.263
v 192.000 -1.126 40.000 0.419 0.386 0.222
v 128.000 0.124 48.000 0.367 0.343 0.200
v 136.000 0.315 48.000 0.480 0.453 0.267
v 144.000 0.587 48.000 0.563 0.535 0.317
v 152.000 1.373 48.000 0.194 0.349 0.177
v 160.000 1.010 48.000 0.538 0.508 0.300
v 168.000 0.251 48.000 0.544 0.515 0.305
v 176.000 -0.010 48.000 0.518 0.488 0.287
v 184.000 -0.847 48.000 0.488 0.457 0.267
v 192.000 -1.641 48.000 0.433 0.401 0.232
v 128.000 0.476 56.000 0.340 0.317 0.185
v 136.000 0.328 56.000 0.397 0.373 0.219
v 144.000 0.616 56.000 0.518 0.489 0.289
v 152.000 0.623 56.000 0.547 0.518 0.306
v 160.000 0.733 56.000 0.534 0.505 0.298
v 168.000 -0.016 56.000 0.528 0.498 0.294
v 176.000 -0.411 56.000 0.508 0.478 0.281
v 184.000 -0.936 56.000 0.489 0.458 0.268
v 192.000 -1.895 56.000 0.457 0.425 0.247
v 128.000 -1.708 64.000 0.351 0.329 0.193
v 136.000 -0.217 64.000 0.380 0.358 0.210
v 144.000 0.174 64.000 0.492 0.464 0.274
v 152.000 -0.013 64.000 0.546 0.517 0.306
v 160.000 -0.165 64.000 0.544 0.514 0.304
v 168.000 -0.228 64.000 0.522 0.493 0.290
v 176.000 -1.023 64.000 0.507 0.477 0.280
v 184.000 -1.489 64.000 0.491 0.460 0.269
v 192.000 -2.246 64.000 0.455 0.423 0.246

vt 0.700000 0.500000
vt 0.700000 0.487500
vt 0.712500 0.487500
vt 0.712500 0.500000
vt 0.725000 0.500000
vt 0.725000 0.487500
vt 0.737500 0.487500
vt 0.737500 0.500000
vt 0.750000 0.500000
vt 0.750000 0.487500
vt 0.762500 0.487500
vt 0.762500 0.500000
vt 0.775000 0.500000
vt 0.775000 0.487500
vt 0.787500 0.487500
vt 0.787500 0.500000
vt 0.800000 0.500000
vt 0.800000 0.487500
vt 0.700000 0.475000
vt 0.712500 0.475000
vt 0.725000 0.475000
vt 0.737500 0.475000
vt 0.750000 0.475000
vt 0.762500 0.475000
vt 0.775000 0.475000
vt 0.787500 0.475000
vt 0.800000 0.475000
vt 0.700000 0.462500
vt 0.712500 0.462500
vt 0.725000 0.462500
vt 0.737500 0.462500
vt 0.750000 0.462500
vt 0.762500 0.462500
vt 0.775000 0.462500
vt 0.787500 0.462500
vt 0.800000 0.462500
vt 0.700000 0.450000
vt 0.712500 0.450000
vt 0.725000 0.450000
vt 0.737500 0.450000
vt 0.750000 0.450000
vt 0.762500 0.450000
vt 0.775000 0.450000
vt 0.787500 0.450000
vt 0.800000 0.450000
vt 0.700000 0.437500
vt 0.712500 0.437500
vt 0.725000 0.437500
vt 0.737500 0.437500
vt 0.750000 0.437500
vt 0.762500 0.437500
vt 0.775000 0.437500
vt 0.787500 0.437500
vt 0.800000 0.437500
vt 0.700000 0.425000
vt 0.712500 0.425000
vt 0.725000 0.425000
vt 0.737500 0.425000
vt 0.750000 0.425000
vt 0.762500 0.425000
vt 0.775000 0.425000
vt 0.787500 0.425000
vt 0.800000 0.425000
vt 0.700000 0.412500
vt 0.712500 0.412500
vt 0.725000 0.412500
vt 0.737500 0.412500
vt 0.750000 0.412500
vt 0.762500 0.412500
vt 0.775000 0.412500
vt 0.787500 0.412500
vt 0.800000 0.412500
vt 0.700000 0.400000
vt 0.712500 0.400000
vt 0.725000 0.400000
vt 0.737500 0.400000
vt 0.750000 0.400000
vt 0.762500 0.400000
vt 0.775000 0.400000
vt 0.787500 0.400000
vt 0.800000 0.400000

vn -0.01103 0.99654 0.08238
vn -0.02278 0.98845 0.14980
vn -0.01654 0.99704 0.07515
vn 0.04567 0.99647 0.07043
vn 0.04452 0.99900 -0.00366
vn 0.00996 0.99994 0.00533
vn 0.05504 0.99790 -0.03411
vn 0.07276 0.99507 -0.06739
vn 0.06906 0.99747 -0.01709
vn 0.09599 0.99393 -0.05381
vn 0.07530 0.99712 -0.00848
vn 0.06253 0.99718 0.04150
vn 0.07962 0.99674 0.01320
vn 0.07196 0.99711 -0.02430
vn 0.04604 0.99884 -0.01394
vn 0.05594 0.99838 0.01078
vn 0.02839 0.99944 -0.01796
vn -0.00036 0.99985 -0.01712
vn -0.15649 0.97248 0.17258
vn -0.09933 0.98942 0.10573
vn -0.04074 0.99862 0.03329
vn 0.01365 0.99990 -0.00205
vn 0.09922 0.99461 -0.03007
vn 0.09208 0.99568 -0.01231
vn 0.06528 0.99784 -0.00775
vn 0.06315 0.99794 -0.01136
vn 0.04164 0.99906 0.01185
vn -0.29213 0.95634 0.00883
vn -0.16410 0.98607 0.02732
vn -0.09844 0.99486 0.02361
vn 0.00921 0.99978 0.01893
vn 0.08588 0.99571 0.03431
vn 0.10541 0.99423 0.01986
vn 0.07294 0.99696 0.02743
vn 0.06536 0.99781 0.01035
vn 0.09218 0.99553 0.02031
vn -0.13062 0.98835 -0.07817
vn -0.08557 0.99629 -0.00940
vn -0.07972 0.99635 0.03065
vn 0.02437 0.99970 0.00293
vn 0.09995 0.99454 0.03000
vn 0.08520 0.99624 0.01576
vn 0.05461 0.99848 -0.00756
vn 0.05608 0.99842 -0.00373
vn 0.08426 0.99641 -0.00768
vn -0.02684 0.99964 -0.00115
vn -0.04176 0.99863 0.03158
vn -0.08612 0.99474 0.05546
vn -0.00771 0.99940 0.03372
vn 0.09865 0.99511 0.00495
vn 0.06265 0.99803 -0.00348
vn 0.05352 0.99843 -0.01676
vn 0.07965 0.99673 0.01376
vn 0.07647 0.99665 0.02883
vn -0.01408 0.99990 0.00227
vn -0.02898 0.99949 0.01360
vn -0.05917 0.99786 0.02798
vn -0.02630 0.99633 0.08144
vn 0.06963 0.99700 0.03374
vn 0.06362 0.99772 0.02254
vn 0.06192 0.99762 0.03024
vn 0.10132 0.99451 0.02632
vn 0.09823 0.99447 0.03705
vn 0.01837 0.99334 0.11372
vn -0.04092 0.99783 0.05160
vn -0.01843 0.99950 0.02582
vn -0.00495 0.99768 0.06795
vn 0.03984 0.99652 0.07315
vn 0.06489 0.99669 0.04897
vn 0.05727 0.99636 0.06307
vn 0.09048 0.99488 0.04513
vn 0.11895 0.99219 0.03752
vn -0.08249 0.98240 0.16761
vn -0.11657 0.99088 0.06753
vn -0.01556 0.99780 0.06437
vn 0.02111 0.99663 0.07924
vn 0.02662 0.99625 0.08228
vn 0.05357 0.99822 0.02640
vn 0.06788 0.99577 0.06191
vn 0.07599 0.99473 0.06883
vn 0.10643 0.99274 0.05610

f 1/1/1 2/2/2 3/3/3
f 1/1/1 3/3/3 4/4/4
f 4/4/4 3/3/3 5/5/5
f 5/5/5 3/3/3 6/6/6
f 5/5/5 6/6/6 7/7/7
f 5/5/5 7/7/7 8/8/8
f 8/8/8 7/7/7 9/9/9
f 9/9/9 7/7/7 10/10/10
f 9/9/9 10/10/10 11/11/11
f 9/9/9 11/11/11 12/12/12
f 12/12/12 11/11/11 13/13/13
f 13/13/13 11/11/11 14/14/14
f 13/13/13 14/14/14 15/15/15
f 13/13/13 15/15/15 16/16/16
f 16/16/16 15/15/15 17/17/17
f 17/17/17 15/15/15 18/18/18
f 2/2/2 19/19/19 3/3/3
f 3/3/3 19/19/19 20/20/20
f 3/3/3 20/20/20 21/21/21
f 3/3/3 21/21/21 6/6/6
f 6/6/6 21/21/21 7/7/7
f 7/7/7 21/21/21 22/22/22
f 7/7/7 22/22/22 23/23/23
f 7/7/7 23/23/23 10/10/10
f 10/10/10 23/23/23 11/11/11
f 11/11/11 23/23/23 24/24/24
f 11/11/11 24/24/24 25/25/25
f 11/11/11 25/25/25 14/14/14
f 14/14/14 25/25/25 15/15/15
f 15/15/15 25/25/25 26/26/26
f 15/15/15 26/26/26 27/27/27
f 15/15/15 27/27/27 18/18/18
f 19/19/19 28/28/28 29/29/29
f 19/19/19 29/29/29 20/20/20
f 20/20/20 29/29/29 21/21/21
f 21/21/21 29/29/29 30/30/30
f 21/21/21 30/30/30 31/31/31
f 21/21/21 31/31/31 22/22/22
f 22/22/22 31/31/31 23/23/23
f 23/23/23 31/31/31 32/32/32
f 23/23/23 32/32/32 33/33/33
f 23/23/23 33/33/33 24/24/24
f 24/24/24 33/33/33 25/25/25
f 25/25/25 33/33/33 34/34/34
f 25/25/25 34/34/34 35/35/35
f 25/25/25 35/35/35 26/26/26
f 26/26/26 35/35/35 27/27/27
f 27/27/27 35/35/35 36/36/36
f 28/28/28 37/37/37 29/29/29
f 29/29/29 37/37/37 38/38/38
f 29/29/29 38/38/38 39/39/39
f 29/29/29 39/39/39 30/30/30
f 30/30/30 39/39/39 31/31/31
f 31/31/31 39/39/39 40/40/40
f 31/31/31 40/40/40 41/41/41
f 31/31/31 41/41/41 32/32/32
f 32/32/32 41/41/41 33/33/33
f 33/33/33 41/41/41 42/42/42
f 33/33/33 42/42/42 43/43/43
f 33/33/33 43/43/43 34/34/34
f 34/34/34 43/43/43 35/35/35
f 35/35/35 43/43/43 44/44/44
f 35/35/35 44/44/44 45/45/45
f 35/35/35 45/45/45 36/36/36
f 37/37/37 46/46/46 47/47/47
f 37/37/37 47/47/47 38/38/38
f 38/38/38 47/47/47 39/39/39
f 39/39/39 47/47/47 48/48/48
f 39/39/39 48/48/48 49/49/49
f 39/39/39 49/49/49 40/40/40
f 40/40/40 49/49/49 41/41/41
f 41/41/41 49/49/49 50/50/50
f 41/41/41 50/50/50 51/51/51
f 41/41/41 51/51/51 42/42/42
f 42/42/42 51/51/51 43/43/43
f 43/43/43 51/51/51 52/52/52
f 43/43/43 52/52/52 53/53/53
f 43/43/43 53/53/53 44/44/44
f 44/44/44 53/53/53 45/45/45
f 45/45/45 53/53/53 54/54/54
f 46/46/46 55/55/55 47/47/47
f 47/47/47 55/55/55 56/56/56
f 47/47/47 56/56/56 57/57/57
f 47/47/47 57/57/57 48/48/48
f 48/48/48 57/57/57 49/49/49
f 49/49/49 57/57/57 58/58/58
f 49/49/49 58/58/58 59/59/59
f 49/49/49 59/59/59 50/50/50
f 50/50/50 59/59/59 51/51/51
f 51/51/51 59/59/59 60/60/60
f 51/51/51 60/60/60 61/61/61
f 51/51/51 61/61/61 52/52/52
f 52/52/52 61/61/61 53/53/53
f 53/53/53 61/61/61 62/62/62
f 53/53/53 62/62/62 63/63/63
f 53/53/53 63/63/63 54/54/54
f 55/55/55 64/64/64 65/65/65
f 55/55/55 65/65/65 56/56/56
f 56/56/56 65/65/65 57/57/57
f 57/57/57 65/65/65 66/66/66
f 57/57/57 66/66/66 67/67/67
f 57/57/57 67/67/67 58/58/58
f 58/58/58 67/67/67 59/59/59
f 59/59/59 67/67/67 68/68/68
f 59/59/59 68/68/68 69/69/69
f 59/59/59 69/69/69 60/60/60
f 60/60/60 69/69/69 61/61/61
f 61/61/61 69/69/69 70/70/70
f 61/61/61 70/70/70 71/71/71
f 61/61/61 71/71/71 62/62/62
f 62/62/62 71/71/71 63/63/63
f 63/63/63 71/71/71 72/72/72
f 64/64/64 73/73/73 65/65/65
f 65/65/65 73/73/73 74/74/74
f 65/65/65 74/74/74 75/75/75
f 65/65/65 75/75/75 66/66/66
f 66/66/66 75/75/75 67/67/67
f 67/67/67 75/75/75 76/76/76
f 67/67/67 76/76/76 77/77/77
f 67/67/67 77/77/77 68/68/68
f 68/68/68 77/77/77 69/69/69
f 69/69/69 77/77/77 78/78/78
f 69/69/69 78/78/78 79/79/79
f 69/69/69 79/79/79 70/70/70
f 70/70/70 79/79/79 71/71/71
f 71/71/71 79/79/79 80/80/80
f 71/71/71 80/80/80 81/81/81
f 71/71/71 81/81/81 72/72/72
