# Generated by tools/generate_island.py. Do not edit by hand.
o terrain_lod2_1_1

v 64.000 0.664 64.000 0.500 0.469 0.275
v 64.000 0.615 72.000 0.514 0.484 0.285
v 72.000 1.189 72.000 0.520 0.490 0.289
v 72.000 1.292 64.000 0.166 0.313 0.161
v 80.000 1.944 64.000 0.157 0.301 0.155
v 80.000 1.624 72.000 0.169 0.316 0.162
v 88.000 1.719 72.000 0.151 0.293 0.152
v 88.000 1.869 64.000 0.140 0.279 0.146
v 96.000 0.747 64.000 0.439 0.407 0.235
v 96.000 0.961 72.000 0.465 0.433 0.252
v 104.000 0.643 72.000 0.458 0.426 0.248
v 104.000 0.328 64.000 0.415 0.385 0.223
v 112.000 0.040 64.000 0.335 0.310 0.179
v 112.000 0.782 72.000 0.405 0.376 0.219
v 120.000 0.206 72.000 0.317 0.294 0.170
v 120.000 -0.047 64.000 0.321 0.298 0.172
v 128.000 -1.708 64.000 0.351 0.329 0.193
v 128.000 -1.482 72.000 0.344 0.322 0.188
v 64.000 1.276 80.000 0.191 0.345 0.175
v 72.000 1.512 80.000 0.183 0.335 0.171
v 80.000 1.349 80.000 0.182 0.333 0.170
v 88.000 1.259 80.000 0.170 0.319 0.163
v 96.000 1.561 80.000 0.176 0.325 0.166
v 104.000 1.260 80.000 0.162 0.307 0.158
v 112.000 1.277 80.000 0.143 0.275 0.142
v 120.000 0.562 80.000 0.358 0.335 0.196
v 128.000 -2.017 80.000 0.352 0.330 0.193
v 64.000 1.840 88.000 0.189 0.342 0.174
v 72.000 1.776 88.000 0.193 0.348 0.176
v 80.000 1.516 88.000 0.194 0.348 0.177
v 88.000 1.462 88.000 0.183 0.335 0.171
v 96.000 1.725 88.000 0.176 0.326 0.167
v 104.000 1.503 88.000 0.171 0.319 0.164
v 112.000 0.976 88.000 0.413 0.386 0.226
v 120.000 0.391 88.000 0.342 0.319 0.186
v 128.000 -1.597 88.000 0.349 0.326 0.191
v 64.000 2.879 96.000 0.184 0.336 0.171
v 72.000 1.444 96.000 0.194 0.349 0.177
v 80.000 1.463 96.000 0.196 0.351 0.178
v 88.000 1.645 96.000 0.184 0.335 0.171
v 96.000 1.318 96.000 0.183 0.334 0.170
v 104.000 1.387 96.000 0.181 0.332 0.169
v 112.000 0.674 96.000 0.416 0.389 0.228
v 120.000 0.043 96.000 0.338 0.316 0.184
v 128.000 -0.615 96.000 0.352 0.330 0.193
v 64.000 2.060 104.000 0.197 0.353 0.179
v 72.000 1.592 104.000 0.190 0.344 0.175
v 80.000 1.070 104.000 0.530 0.500 0.295
v 88.000 1.285 104.000 0.177 0.327 0.167
v 96.000 0.983 104.000 0.522 0.492 0.290
v 104.000 0.986 104.000 0.520 0.490 0.288
v 112.000 0.470 104.000 0.496 0.468 0.275
v 120.000 -0.308 104.000 0.410 0.385 0.226
v 128.000 -0.607 104.000 0.396 0.372 0.218
v 64.000 1.326 112.000 0.201 0.358 0.181
v 72.000 1.575 112.000 0.190 0.343 0.174
v 80.000 1.003 112.000 0.534 0.505 0.298
v 88.000 0.990 112.000 0.521 0.491 0.289
v 96.000 1.034 112.000 0.517 0.487 0.287
v 104.000 0.488 112.000 0.507 0.477 0.280
v 112.000 -0.226 112.000 0.514 0.484 0.285
v 120.000 -0.965 112.000 0.519 0.489 0.288
v 128.000 -1.198 112.000 0.509 0.479 0.282
v 64.000 0.968 120.000 0.554 0.525 0.311
v 72.000 0.642 120.000 0.547 0.518 0.306
v 80.000 1.011 120.000 0.535 0.506 0.298
v 88.000 0.601 120.000 0.528 0.498 0.294
v 96.000 0.558 120.000 0.527 0.497 0.293
v 104.000 -0.008 120.000 0.497 0.466 0.273
v 112.000 -0.972 120.000 0.536 0.506 0.299
v 120.000 -1.070 120.000 0.539 0.509 0.301
v 128.000 -1.382 120.000 0.513 0.483 0.284
v 64.000 0.280 128.000 0.543 0.514 0.304
v 72.000 -0.069 128.000 0.547 0.517 0.306
v 80.000 0.221 128.000 0.550 0.521 0.308
v 88.000 0.125 128.000 0.555 0.526 0.312
v 96.000 -0.144 128.000 0.560 0.531 0.315
v 104.000 -0.275 128.000 0.547 0.518 0.306
v 112.000 -1.009 128.000 0.555 0.526 0.311
v 120.000 -1.228 128.000 0.554 0.525 0.311
v 128.000 -1.463 128.000 0.541 0.512 0.303

vt 0.600000 0.400000
vt 0.600000 0.387500
vt 0.612500 0.387500
vt 0.612500 0.400000
vt 0.625000 0.400000
vt 0.625000 0.387500
vt 0.637500 0.387500
vt 0.637500 0.400000
vt 0.650000 0.400000
vt 0.650000 0.387500
vt 0.662500 0.387500
vt 0.662500 0.400000
vt 0.675000 0.400000
vt 0.675000 0.387500
vt 0.687500 0.387500
vt 0.687500 0.400000
vt 0.700000 0.400000
vt 0.700000 0.387500
vt 0.600000 0.375000
vt 0.612500 0.375000
vt 0.625000 0.375000
vt 0.637500 0.375000
vt 0.650000 0.375000
vt 0.662500 0.375000
vt 0.675000 0.375000
vt 0.687500 0.375000
vt 0.700000 0.375000
vt 0.600000 0.362500
vt 0.612500 0.362500
vt 0.625000 0.362500
vt 0.637500 0.362500
vt 0.650000 0.362500
vt 0.662500 0.362500
vt 0.675000 0.362500
vt 0.687500 0.362500
vt 0.700000 0.362500
vt 0.600000 0.350000
vt 0.612500 0.350000
vt 0.625000 0.350000
vt 0.637500 0.350000
vt 0.650000 0.350000
vt 0.662500 0.350000
vt 0.675000 0.350000
vt 0.687500 0.350000
vt 0.700000 0.350000
vt 0.600000 0.337500
vt 0.612500 0.337500
vt 0.625000 0.337500
vt 0.637500 0.337500
vt 0.650000 0.337500
vt 0.662500 0.337500
vt 0.675000 0.337500
vt 0.687500 0.337500
vt 0.700000 0.337500
vt 0.600000 0.325000
vt 0.612500 0.325000
vt 0.625000 0.325000
vt 0.637500 0.325000
vt 0.650000 0.325000
vt 0.662500 0.325000
vt 0.675000 0.325000
vt 0.687500 0.325000
vt 0.700000 0.325000
vt 0.600000 0.312500
vt 0.612500 0.312500
vt 0.625000 0.312500
vt 0.637500 0.312500
vt 0.650000 0.312500
vt 0.662500 0.312500
vt 0.675000 0.312500
vt 0.687500 0.312500
vt 0.700000 0.312500
vt 0.600000 0.300000
vt 0.612500 0.300000
vt 0.625000 0.300000
vt 0.637500 0.300000
vt 0.650000 0.300000
vt 0.662500 0.300000
vt 0.675000 0.300000
vt 0.687500 0.300000
vt 0.700000 0.300000

vn -0.07496 0.99714 0.00951
vn -0.07157 0.99671 -0.03811
vn -0.05262 0.99859 -0.00712
vn -0.07974 0.99673 0.01287
vn -0.03455 0.99901 0.02788
vn -0.03307 0.99876 0.03717
vn 0.03609 0.99923 0.01565
vn 0.07460 0.99704 0.01873
vn 0.08151 0.99650 -0.01848
vn 0.06700 0.99646 -0.05070
vn 0.02105 0.99791 -0.06106
vn 0.04411 0.99825 -0.03938
vn 0.02530 0.99763 -0.06397
vn 0.02723 0.99665 -0.07707
vn 0.14780 0.98846 -0.03316
vn 0.10856 0.99359 -0.03143
vn 0.20483 0.97836 -0.02929
vn 0.20646 0.97827 0.01886
vn -0.03064 0.99793 -0.05651
vn -0.00455 0.99932 -0.03663
vn 0.00454 0.99999 -0.00178
vn -0.01327 0.99978 0.01603
vn 0.01612 0.99932 -0.03329
vn 0.01771 0.99840 -0.05366
vn 0.04596 0.99869 -0.02236
vn 0.20163 0.97940 -0.01129
vn 0.26609 0.96395 -0.00211
vn 0.00804 0.99499 -0.09967
vn 0.03108 0.99921 -0.02469
vn 0.01957 0.99978 -0.00716
vn -0.00758 0.99992 -0.01006
vn -0.00255 0.99988 0.01520
vn 0.03789 0.99924 0.00925
vn 0.06932 0.99689 0.03759
vn 0.15028 0.98864 0.00373
vn 0.24023 0.96701 -0.08468
vn 0.10569 0.99440 -0.00112
vn 0.08812 0.99604 0.01142
vn 0.00342 0.99980 0.01957
vn 0.00908 0.99990 0.01108
vn 0.01209 0.99935 0.03403
vn 0.04020 0.99867 0.03228
vn 0.07932 0.99625 0.03466
vn 0.08025 0.99583 0.04346
vn 0.11188 0.99368 -0.00906
vn 0.05811 0.99364 0.09640
vn 0.05798 0.99794 0.02731
vn 0.01917 0.99940 0.02874
vn 0.00452 0.99947 0.03209
vn 0.01869 0.99967 0.01776
vn 0.04568 0.99787 0.04652
vn 0.08046 0.99518 0.05599
vn 0.06873 0.99615 0.05444
vn 0.03735 0.99864 0.03639
vn 0.00925 0.99793 0.06370
vn 0.02017 0.99804 0.05927
vn 0.02370 0.99934 0.02738
vn -0.00191 0.99908 0.04273
vn 0.02986 0.99878 0.03945
vn 0.07836 0.99501 0.06184
vn 0.08170 0.99405 0.07208
vn 0.06058 0.99703 0.04751
vn 0.03366 0.99828 0.04797
vn 0.04059 0.99705 0.06519
vn 0.00461 0.99681 0.07967
vn 0.00257 0.99880 0.04882
vn 0.01933 0.99816 0.05755
vn 0.03795 0.99659 0.07333
vn 0.08065 0.99527 0.05422
vn 0.06613 0.99662 0.04877
vn 0.03506 0.99908 0.02457
vn 0.03896 0.99910 0.01651
vn 0.04196 0.99533 0.08695
vn 0.00369 0.99607 0.08846
vn -0.00474 0.99627 0.08612
vn 0.02275 0.99797 0.05940
vn 0.03145 0.99726 0.06692
vn 0.05399 0.99799 0.03330
vn 0.06281 0.99790 0.01557
vn 0.02834 0.99940 0.01970
vn 0.03416 0.99931 0.01490

f 1/1/1 2/2/2 3/3/3
f 1/1/1 3/3/3 4/4/4
f 4/4/4 3/3/3 5/5/5
f 5/5/5 3/3/3 6/6/6
f 5/5/5 6/6/6 7/7/7
f 5/5/5 7/7/7 8/8/8
f 8/8/8 7/7/7 9/9/9
f 9/9/9 7/7/7 10/10/10
f 9/9/9 10/10/10 11/11/11
f 9/9/9 11/11/11 12/12/12
f 12/12/12 11/11/11 13/13/13
f 13/13/13 11/11/11 14/14/14
f 13/13/13 14/14/14 15/15/15
f 13/13/13 15/15/15 16/16/16
f 16/16/16 15/15/15 17/17/17
f 17/17/17 15/15/15 18/18/18
f 2/2/2 19/19/19 3/3/3
f 3/3/3 19/19/19 20/20/20
f 3/3/3 20/20/20 21/21/21
f 3/3/3 21/21/21 6/6/6
f 6/6/6 21/21/21 7/7/7
f 7/7/7 21/21/21 22/22/22
f 7/7/7 22/22/22 23/23/23
f 7/7/7 23/23/23 10/10/10
f 10/10/10 23/23/23 11/11/11
f 11/11/11 23/23/23 24/24/24
f 11/11/11 24/24/24 25/25/25
f 11/11/11 25/25/25 14/14/14
f 14/14/14 25/25/25 15/15/15
f 15/15/15 25/25/25 26/26/26
f 15/15/15 26/26/26 27/27/27
f 15/15/15 27/27/27 18/18/18
f 19/19/19 28/28/28 29/29/29
f 19/19/19 29/29/29 20/20/20
f 20/20/20 29/29/29 21/21/21
f 21/21/21 29/29/29 30/30/30
f 21/21/21 30/30/30 31/31/31
f 21/21/21 31/31/31 22/22/22
f 22/22/22 31/31/31 23/23/23
f 23/23/23 31/31/31 32/32/32
f 23/23/23 32/32/32 33/33/33
f 23/23/23 33/33/33 24/24/24
f 24/24/24 33/33/33 25/25/25
f 25/25/25 33/33/33 34/34/34
f 25/25/25 34/34/34 35/35/35
f 25/25/25 35/35/35 26/26/26
f 26/26/26 35/35/35 27/27/27
f 27/27/27 35/35/35 36/36/36
f 28/28/28 37/37/37 29/29/29
f 29/29/29 37/37/37 38/38/38
f 29/29/29 38/38/38 39/39/39
f 29/29/29 39/39/39 30/30/30
f 30/30/30 39/39/39 31/31/31
f 31/31/31 39/39/39 40/40/40
f 31/31/31 40/40/40 41/41/41
f 31/31/31 41/41/41 32/32/32
f 32/32/32 41/41/41 33/33/33
f 33/33/33 41/41/41 42/42/42
f 33/33/33 42/42/42 43/43/43
f 33/33/33 43/43/43 34/34/34
f 34/34/34 43/43/43 35/35/35
f 35/35/35 43/43/43 44/44/44
f 35/35/35 44/44/44 45/45/45
f 35/35/35 45/45/45 36/36/36
f 37/37/37 46/46/46 47/47/47
f 37/37/37 47/47/47 38/38/38
f 38/38/38 47/47/47 39/39/39
f 39/39/39 47/47/47 48/48/48
f 39/39/39 48/48/48 49/49/49
f 39/39/39 49/49/49 40/40/40
f 40/40/40 49/49/49 41/41/41
f 41/41/41 49/49/49 50/50/50
f 41/41/41 50/50/50 51/51/51
f 41/41/41 51/51/51 42/42/42
f 42/42/42 51/51/51 43/43/43
f 43/43/43 51/51/51 52/52/52
f 43/43/43 52/52/52 53/53/53
f 43/43/43 53/53/53 44/44/44
f 44/44/44 53/53/53 45/45/45
f 45/45/45 53/53/53 54/54/54
f 46/46/46 55/55/55 47/47/47
f 47/47/47 55/55/55 56/56/56
f 47/47/47 56/56/56 57/57/57
f 47/47/47 57/57/57 48/48/48
f 48/48/48 57/57/57 49/49/49
f 49/49/49 57/57/57 58/58/58
f 49/49/49 58/58/58 59/59/59
f 49/49/49 59/59/59 50/50/50
f 50/50/50 59/59/59 51/51/51
f 51/51/51 59/59/59 60/60/60
f 51/51/51 60/60/60 61/61/61
f 51/51/51 61/61/61 52/52/52
f 52/52/52 61/61/61 53/53/53
f 53/53/53 61/61/61 62/62/62
f 53/53/53 62/62/62 63/63/63
f 53/53/53 63/63/63 54/54/54
f 55/55/55 64/64/64 65/65/65
f 55/55/55 65/65/65 56/56/56
f 56/56/56 65/65/65 57/57/57
f 57/57/57 65/65/65 66/66/66
f 57/57/57 66/66/66 67/67/67
f 57/57/57 67/67/67 58/58/58
f 58/58/58 67/67/67 59/59/59
f 59/59/59 67/67/67 68/68/68
f 59/59/59 68/68/68 69/69/69
f 59/59/59 69/69/69 60/60/60
f 60/60/60 69/69/69 61/61/61
f 61/61/61 69/69/69 70/70/70
f 61/61/61 70/70/70 71/71/71
f 61/61/61 71/71/71 62/62/62
f 62/62/62 71/71/71 63/63/63
f 63/63/63 71/71/71 72/72/72
f 64/64/64 73/73/73 65/65/65
f 65/65/65 73/73/73 74/74/74
f 65/65/65 74/74/74 75/75/75
f 65/65/65 75/75/75 66/66/66
f 66/66/66 75/75/75 67/67/67
f 67/67/67 75/75/75 76/76/76
f 67/67/67 76/76/76 77/77/77
f 67/67/67 77/77/77 68/68/68
f 68/68/68 77/77/77 69/69/69
f 69/69/69 77/77/77 78/78/78
f 69/69/69 78/78/78 79/79/79
f 69/69/69 79/79/79 70/70/70
f 70/70/70 79/79/79 71/71/71
f 71/71/71 79/79/79 80/80/80
f 71/71/71 80/80/80 81/81/81
f 71/71/71 81/81/81 72/72/72
