# Generated by tools/generate_island.py. Do not edit by hand.
o terrain_lod2_1_1

v 64.000 0.619 64.000 0.499 0.469 0.275
v 64.000 0.634 72.000 0.514 0.484 0.285
v 72.000 0.779 72.000 0.520 0.490 0.289
v 72.000 1.018 64.000 0.490 0.461 0.270
v 80.000 0.949 64.000 0.478 0.447 0.262
v 80.000 0.266 72.000 0.509 0.479 0.282
v 88.000 -0.387 72.000 0.474 0.443 0.258
v 88.000 0.249 64.000 0.452 0.420 0.244
v 96.000 -0.705 64.000 0.439 0.407 0.235
v 96.000 -1.294 72.000 0.465 0.433 0.252
v 104.000 -1.701 72.000 0.458 0.426 0.248
v 104.000 -0.877 64.000 0.442 0.410 0.237
v 112.000 -1.228 64.000 0.436 0.403 0.233
v 112.000 -1.852 72.000 0.458 0.426 0.248
v 120.000 -2.586 72.000 0.440 0.408 0.236
v 120.000 -1.571 64.000 0.445 0.413 0.239
v 128.000 -2.207 64.000 0.488 0.457 0.268
v 128.000 -3.127 72.000 0.478 0.447 0.261
v 64.000 1.616 80.000 0.554 0.525 0.311
v 72.000 0.604 80.000 0.538 0.509 0.300
v 80.000 -0.347 80.000 0.536 0.506 0.299
v 88.000 -1.200 80.000 0.513 0.483 0.284
v 96.000 -1.614 80.000 0.523 0.493 0.291
v 104.000 -2.301 80.000 0.496 0.465 0.273
v 112.000 -2.546 80.000 0.480 0.449 0.262
v 120.000 -3.439 80.000 0.489 0.458 0.268
v 128.000 -4.522 80.000 0.489 0.458 0.268
v 64.000 0.996 88.000 0.549 0.520 0.308
v 72.000 -0.252 88.000 0.558 0.529 0.314
v 80.000 -0.856 88.000 0.559 0.530 0.314
v 88.000 -1.677 88.000 0.538 0.509 0.300
v 96.000 -2.077 88.000 0.525 0.495 0.292
v 104.000 -2.780 88.000 0.514 0.484 0.285
v 112.000 -3.797 88.000 0.483 0.452 0.264
v 120.000 -4.782 88.000 0.474 0.443 0.259
v 128.000 -6.336 88.000 0.484 0.453 0.265
v 64.000 -0.389 96.000 0.539 0.510 0.301
v 72.000 -1.266 96.000 0.560 0.531 0.315
v 80.000 -1.772 96.000 0.563 0.534 0.317
v 88.000 -2.267 96.000 0.539 0.510 0.301
v 96.000 -3.092 96.000 0.538 0.508 0.300
v 104.000 -3.678 96.000 0.534 0.505 0.298
v 112.000 -5.047 96.000 0.487 0.456 0.267
v 120.000 -6.361 96.000 0.470 0.439 0.256
v 128.000 -7.660 96.000 0.489 0.458 0.268
v 64.000 -1.797 104.000 0.567 0.538 0.319
v 72.000 -2.307 104.000 0.553 0.524 0.310
v 80.000 -3.002 104.000 0.530 0.500 0.295
v 88.000 -3.154 104.000 0.526 0.496 0.292
v 96.000 -3.940 104.000 0.522 0.492 0.290
v 104.000 -4.765 104.000 0.520 0.490 0.288
v 112.000 -6.028 104.000 0.518 0.488 0.287
v 120.000 -7.735 104.000 0.499 0.469 0.275
v 128.000 -8.000 104.000 0.502 0.472 0.277
v 64.000 -3.409 112.000 0.575 0.547 0.325
v 72.000 -3.511 112.000 0.551 0.522 0.309
v 80.000 -3.947 112.000 0.534 0.505 0.298
v 88.000 -4.250 112.000 0.521 0.491 0.289
v 96.000 -4.766 112.000 0.517 0.487 0.287
v 104.000 -6.120 112.000 0.507 0.477 0.280
v 112.000 -7.545 112.000 0.514 0.484 0.285
v 120.000 -8.000 112.000 0.521 0.491 0.289
v 128.000 -8.000 112.000 0.516 0.486 0.286
v 64.000 -4.766 120.000 0.554 0.525 0.311
v 72.000 -5.152 120.000 0.547 0.518 0.306
v 80.000 -5.162 120.000 0.535 0.506 0.298
v 88.000 -5.834 120.000 0.528 0.498 0.294
v 96.000 -6.393 120.000 0.527 0.497 0.293
v 104.000 -7.664 120.000 0.497 0.466 0.273
v 112.000 -8.000 120.000 0.536 0.506 0.299
v 120.000 -8.000 120.000 0.539 0.509 0.301
v 128.000 -8.000 120.000 0.513 0.483 0.284
v 64.000 -6.575 128.000 0.543 0.514 0.304
v 72.000 -7.097 128.000 0.547 0.517 0.306
v 80.000 -7.106 128.000 0.550 0.521 0.308
v 88.000 -7.517 128.000 0.555 0.526 0.312
v 96.000 -8.000 128.000 0.560 0.531 0.315
v 104.000 -8.000 128.000 0.547 0.518 0.306
v 112.000 -8.000 128.000 0.555 0.526 0.311
v 120.000 -8.000 128.000 0.554 0.525 0.311
v 128.000 -8.000 128.000 0.541 0.512 0.303

vt 0.633333 0.366667
vt 0.633333 0.350000
vt 0.650000 0.350000
vt 0.650000 0.366667
vt 0.666667 0.366667
vt 0.666667 0.350000
vt 0.683333 0.350000
vt 0.683333 0.366667
vt 0.700000 0.366667
vt 0.700000 0.350000
vt 0.716667 0.350000
vt 0.716667 0.366667
vt 0.733333 0.366667
vt 0.733333 0.350000
vt 0.750000 0.350000
vt 0.750000 0.366667
vt 0.766667 0.366667
vt 0.766667 0.350000
vt 0.633333 0.333333
vt 0.650000 0.333333
vt 0.666667 0.333333
vt 0.683333 0.333333
vt 0.700000 0.333333
vt 0.716667 0.333333
vt 0.733333 0.333333
vt 0.750000 0.333333
vt 0.766667 0.333333
vt 0.633333 0.316667
vt 0.650000 0.316667
vt 0.666667 0.316667
vt 0.683333 0.316667
vt 0.700000 0.316667
vt 0.716667 0.316667
vt 0.733333 0.316667
vt 0.750000 0.316667
vt 0.766667 0.316667
vt 0.633333 0.300000
vt 0.650000 0.300000
vt 0.666667 0.300000
vt 0.683333 0.300000
vt 0.700000 0.300000
vt 0.716667 0.300000
vt 0.733333 0.300000
vt 0.750000 0.300000
vt 0.766667 0.300000
vt 0.633333 0.283333
vt 0.650000 0.283333
vt 0.666667 0.283333
vt 0.683333 0.283333
vt 0.700000 0.283333
vt 0.716667 0.283333
vt 0.733333 0.283333
vt 0.750000 0.283333
vt 0.766667 0.283333
vt 0.633333 0.266667
vt 0.650000 0.266667
vt 0.666667 0.266667
vt 0.683333 0.266667
vt 0.700000 0.266667
vt 0.716667 0.266667
vt 0.733333 0.266667
vt 0.750000 0.266667
vt 0.766667 0.266667
vt 0.633333 0.250000
vt 0.650000 0.250000
vt 0.666667 0.250000
vt 0.683333 0.250000
vt 0.700000 0.250000
vt 0.716667 0.250000
vt 0.733333 0.250000
vt 0.750000 0.250000
vt 0.766667 0.250000
vt 0.633333 0.233333
vt 0.650000 0.233333
vt 0.666667 0.233333
vt 0.683333 0.233333
vt 0.700000 0.233333
vt 0.716667 0.233333
vt 0.733333 0.233333
vt 0.750000 0.233333
vt 0.766667 0.233333

vn -0.03399 0.99932 0.01401
vn -0.01808 0.99790 -0.06221
vn 0.03695 0.99916 0.01758
vn -0.02065 0.99934 0.02989
vn 0.06022 0.99575 0.06973
vn 0.07243 0.99412 0.08052
vn 0.09371 0.99245 0.07912
vn 0.10254 0.99160 0.07878
vn 0.07577 0.99376 0.08189
vn 0.08171 0.99505 0.05654
vn 0.04000 0.99607 0.07898
vn 0.03248 0.99422 0.10233
vn 0.04905 0.99418 0.09588
vn 0.05504 0.99511 0.08198
vn 0.08516 0.98983 0.11395
vn 0.06062 0.99023 0.12556
vn 0.07285 0.99013 0.11969
vn 0.06682 0.98748 0.14287
vn 0.09723 0.99504 0.02081
vn 0.12151 0.99054 0.06383
vn 0.09617 0.99284 0.07082
vn 0.07874 0.99367 0.08013
vn 0.07186 0.99553 0.06122
vn 0.05800 0.99605 0.06721
vn 0.07989 0.99061 0.11093
vn 0.12146 0.98338 0.13498
vn 0.13021 0.97764 0.16512
vn 0.15295 0.98056 0.12291
vn 0.10878 0.98788 0.11071
vn 0.08836 0.99216 0.08839
vn 0.07812 0.99387 0.07823
vn 0.06850 0.99343 0.09173
vn 0.09785 0.98974 0.10411
vn 0.12266 0.98054 0.15325
vn 0.14704 0.97359 0.17467
vn 0.18721 0.96396 0.18904
vn 0.10787 0.98295 0.14888
vn 0.08540 0.98823 0.12689
vn 0.06613 0.99044 0.12108
vn 0.08186 0.99243 0.09157
vn 0.08566 0.99010 0.11119
vn 0.12038 0.98518 0.12221
vn 0.15778 0.97699 0.14348
vn 0.15859 0.97095 0.17920
vn 0.13537 0.98064 0.14150
vn 0.06250 0.98073 0.18510
vn 0.06676 0.98654 0.14927
vn 0.05237 0.98953 0.13450
vn 0.06215 0.99071 0.12097
vn 0.09969 0.98962 0.10356
vn 0.13655 0.98086 0.13878
vn 0.18038 0.97182 0.15175
vn 0.10842 0.98959 0.09459
vn 0.03309 0.99923 0.02123
vn 0.03377 0.98333 0.17866
vn 0.03308 0.98402 0.17498
vn 0.04640 0.98731 0.15188
vn 0.05043 0.98500 0.16501
vn 0.11005 0.98085 0.16070
vn 0.16847 0.96992 0.17571
vn 0.10909 0.98796 0.10972
vn 0.02841 0.99946 0.01655
vn 0.00828 0.99993 0.00828
vn 0.04727 0.97988 0.19390
vn 0.02844 0.97808 0.20630
vn 0.04179 0.98020 0.19356
vn 0.06383 0.97820 0.19759
vn 0.11141 0.97408 0.19689
vn 0.09260 0.98903 0.11513
vn 0.02099 0.99938 0.02841
vn 0.00711 0.99995 0.00711
vn 0.00000 1.00000 0.00000
vn 0.05517 0.97207 0.22811
vn 0.03225 0.97117 0.23618
vn 0.03350 0.97295 0.22857
vn 0.05457 0.97712 0.20556
vn 0.07115 0.98439 0.16095
vn 0.00000 0.99912 0.04197
vn 0.01050 0.99989 0.01050
vn 0.00000 1.00000 0.00000
vn 0.00000 1.00000 0.00000

f 1/1/1 2/2/2 3/3/3
f 1/1/1 3/3/3 4/4/4
f 4/4/4 3/3/3 5/5/5
f 5/5/5 3/3/3 6/6/6
f 5/5/5 6/6/6 7/7/7
f 5/5/5 7/7/7 8/8/8
f 8/8/8 7/7/7 9/9/9
f 9/9/9 7/7/7 10/10/10
f 9/9/9 10/10/10 11/11/11
f 9/9/9 11/11/11 12/12/12
f 12/12/12 11/11/11 13/13/13
f 13/13/13 11/11/11 14/14/14
f 13/13/13 14/14/14 15/15/15
f 13/13/13 15/15/15 16/16/16
f 16/16/16 15/15/15 17/17/17
f 17/17/17 15/15/15 18/18/18
f 2/2/2 19/19/19 3/3/3
f 3/3/3 19/19/19 20/20/20
f 3/3/3 20/20/20 21/21/21
f 3/3/3 21/21/21 6/6/6
f 6/6/6 21/21/21 7/7/7
f 7/7/7 21/21/21 22/22/22
f 7/7/7 22/22/22 23/23/23
f 7/7/7 23/23/23 10/10/10
f 10/10/10 23/23/23 11/11/11
f 11/11/11 23/23/23 24/24/24
f 11/11/11 24/24/24 25/25/25
f 11/11/11 25/25/25 14/14/14
f 14/14/14 25/25/25 15/15/15
f 15/15/15 25/25/25 26/26/26
f 15/15/15 26/26/26 27/27/27
f 15/15/15 27/27/27 18/18/18
f 19/19/19 28/28/28 29/29/29
f 19/19/19 29/29/29 20/20/20
f 20/20/20 29/29/29 21/21/21
f 21/21/21 29/29/29 30/30/30
f 21/21/21 30/30/30 31/31/31
f 21/21/21 31/31/31 22/22/22
f 22/22/22 31/31/31 23/23/23
f 23/23/23 31/31/31 32/32/32
f 23/23/23 32/32/32 33/33/33
f 23/23/23 33/33/33 24/24/24
f 24/24/24 33/33/33 25/25/25
f 25/25/25 33/33/33 34/34/34
f 25/25/25 34/34/34 35/35/35
f 25/25/25 35/35/35 26/26/26
f 26/26/26 35/35/35 27/27/27
f 27/27/27 35/35/35 36/36/36
f 28/28/28 37/37/37 29/29/29
f 29/29/29 37/37/37 38/38/38
f 29/29/29 38/38/38 39/39/39
f 29/29/29 39/39/39 30/30/30
f 30/30/30 39/39/39 31/31/31
f 31/31/31 39/39/39 40/40/40
f 31/31/31 40/40/40 41/41/41
f 31/31/31 41/41/41 32/32/32
f 32/32/32 41/41/41 33/33/33
f 33/33/33 41/41/41 42/42/42
f 33/33/33 42/42/42 43/43/43
f 33/33/33 43/43/43 34/34/34
f 34/34/34 43/43/43 35/35/35
f 35/35/35 43/43/43 44/44/44
f 35/35/35 44/44/44 45/45/45
f 35/35/35 45/45/45 36/36/36
f 37/37/37 46/46/46 47/47/47
f 37/37/37 47/47/47 38/38/38
f 38/38/38 47/47/47 39/39/39
f 39/39/39 47/47/47 48/48/48
f 39/39/39 48/48/48 49/49/49
f 39/39/39 49/49/49 40/40/40
f 40/40/40 49/49/49 41/41/41
f 41/41/41 49/49/49 50/50/50
f 41/41/41 50/50/50 51/51/51
f 41/41/41 51/51/51 42/42/42
f 42/42/42 51/51/51 43/43/43
f 43/43/43 51/51/51 52/52/52
f 43/43/43 52/52/52 53/53/53
f 43/43/43 53/53/53 44/44/44
f 44/44/44 53/53/53 45/45/45
f 45/45/45 53/53/53 54/54/54
f 46/46/46 55/55/55 47/47/47
f 47/47/47 55/55/55 56/56/56
f 47/47/47 56/56/56 57/57/57
f 47/47/47 57/57/57 48/48/48
f 48/48/48 57/57/57 49/49/49
f 49/49/49 57/57/57 58/58/58
f 49/49/49 58/58/58 59/59/59
f 49/49/49 59/59/59 50/50/50
f 50/50/50 59/59/59 51/51/51
f 51/51/51 59/59/59 60/60/60
f 51/51/51 60/60/60 61/61/61
f 51/51/51 61/61/61 52/52/52
f 52/52/52 61/61/61 53/53/53
f 53/53/53 61/61/61 62/62/62
f 53/53/53 62/62/62 63/63/63
f 53/53/53 63/63/63 54/54/54
f 55/55/55 64/64/64 65/65/65
f 55/55/55 65/65/65 56/56/56
f 56/56/56 65/65/65 57/57/57
f 57/57/57 65/65/65 66/66/66
f 57/57/57 66/66/66 67/67/67
f 57/57/57 67/67/67 58/58/58
f 58/58/58 67/67/67 59/59/59
f 59/59/59 67/67/67 68/68/68
f 59/59/59 68/68/68 69/69/69
f 59/59/59 69/69/69 60/60/60
f 60/60/60 69/69/69 61/61/61
f 61/61/61 69/69/69 70/70/70
f 61/61/61 70/70/70 71/71/71
f 61/61/61 71/71/71 62/62/62
f 62/62/62 71/71/71 63/63/63
f 63/63/63 71/71/71 72/72/72
f 64/64/64 73/73/73 65/65/65
f 65/65/65 73/73/73 74/74/74
f 65/65/65 74/74/74 75/75/75
f 65/65/65 75/75/75 66/66/66
f 66/66/66 75/75/75 67/67/67
f 67/67/67 75/75/75 76/76/76
f 67/67/67 76/76/76 77/77/77
f 67/67/67 77/77/77 68/68/68
f 68/68/68 77/77/77 69/69/69
f 69/69/69 77/77/77 78/78/78
f 69/69/69 78/78/78 79/79/79
f 69/69/69 79/79/79 70/70/70
f 70/70/70 79/79/79 71/71/71
f 71/71/71 79/79/79 80/80/80
f 71/71/71 80/80/80 81/81/81
f 71/71/71 81/81/81 72/72/72
