# Generated by tools/generate_island.py. Do not edit by hand.
o terrain_lod2_-1_-2

v -64.000 -4.556 -128.000 0.418 0.385 0.221
v -64.000 -3.189 -120.000 0.418 0.385 0.221
v -56.000 -2.913 -120.000 0.424 0.392 0.226
v -56.000 -3.728 -128.000 0.438 0.406 0.235
v -48.000 -3.565 -128.000 0.462 0.430 0.250
v -48.000 -2.500 -120.000 0.453 0.421 0.244
v -40.000 -2.523 -120.000 0.478 0.446 0.261
v -40.000 -3.390 -128.000 0.467 0.435 0.254
v -32.000 -2.724 -128.000 0.471 0.439 0.256
v -32.000 -1.811 -120.000 0.475 0.443 0.259
v -24.000 -1.368 -120.000 0.446 0.413 0.240
v -24.000 -2.477 -128.000 0.441 0.409 0.237
v -16.000 -1.884 -128.000 0.421 0.388 0.223
v -16.000 -1.219 -120.000 0.425 0.392 0.226
v -8.000 -1.020 -120.000 0.424 0.392 0.226
v -8.000 -1.885 -128.000 0.413 0.380 0.218
v 0.000 -2.059 -128.000 0.410 0.376 0.216
v 0.000 -1.284 -120.000 0.412 0.379 0.217
v -64.000 -2.454 -112.000 0.425 0.392 0.226
v -56.000 -2.383 -112.000 0.425 0.392 0.226
v -48.000 -1.950 -112.000 0.446 0.414 0.240
v -40.000 -1.399 -112.000 0.487 0.456 0.267
v -32.000 -0.954 -112.000 0.480 0.449 0.262
v -24.000 -0.255 -112.000 0.465 0.433 0.252
v -16.000 -0.543 -112.000 0.429 0.396 0.229
v -8.000 -0.761 -112.000 0.420 0.387 0.223
v 0.000 -0.739 -112.000 0.412 0.378 0.217
v -64.000 -1.961 -104.000 0.432 0.399 0.231
v -56.000 -1.453 -104.000 0.437 0.405 0.234
v -48.000 -1.163 -104.000 0.459 0.427 0.248
v -40.000 -0.320 -104.000 0.477 0.446 0.260
v -32.000 0.042 -104.000 0.458 0.426 0.248
v -24.000 0.136 -104.000 0.438 0.405 0.234
v -16.000 -0.073 -104.000 0.431 0.398 0.230
v -8.000 -0.543 -104.000 0.433 0.400 0.231
v 0.000 -0.065 -104.000 0.411 0.378 0.217
v -64.000 -1.358 -96.000 0.434 0.401 0.232
v -56.000 -0.883 -96.000 0.435 0.402 0.232
v -48.000 -0.529 -96.000 0.455 0.423 0.246
v -40.000 0.011 -96.000 0.460 0.429 0.249
v -32.000 0.161 -96.000 0.430 0.398 0.230
v -24.000 0.124 -96.000 0.432 0.400 0.231
v -16.000 0.390 -96.000 0.413 0.380 0.218
v -8.000 0.203 -96.000 0.422 0.390 0.224
v 0.000 0.284 -96.000 0.409 0.376 0.215
v -64.000 -0.796 -88.000 0.448 0.415 0.241
v -56.000 -0.674 -88.000 0.455 0.423 0.246
v -48.000 0.132 -88.000 0.450 0.418 0.243
v -40.000 0.589 -88.000 0.426 0.393 0.227
v -32.000 0.469 -88.000 0.425 0.392 0.226
v -24.000 0.305 -88.000 0.404 0.370 0.212
v -16.000 0.195 -88.000 0.385 0.351 0.200
v -8.000 0.545 -88.000 0.385 0.351 0.200
v 0.000 0.396 -88.000 0.389 0.355 0.202
v -64.000 0.301 -80.000 0.464 0.433 0.252
v -56.000 0.398 -80.000 0.469 0.438 0.255
v -48.000 1.212 -80.000 0.216 0.297 0.109
v -40.000 1.538 -80.000 0.186 0.273 0.099
v -32.000 0.917 -80.000 0.408 0.375 0.215
v -24.000 0.487 -80.000 0.380 0.346 0.197
v -16.000 0.015 -80.000 0.380 0.346 0.196
v -8.000 0.425 -80.000 0.373 0.338 0.191
v 0.000 0.460 -80.000 0.346 0.313 0.176
v -64.000 1.753 -72.000 0.220 0.300 0.110
v -56.000 1.871 -72.000 0.232 0.309 0.114
v -48.000 2.006 -72.000 0.229 0.307 0.113
v -40.000 2.086 -72.000 0.204 0.287 0.105
v -32.000 1.332 -72.000 0.167 0.259 0.092
v -24.000 1.070 -72.000 0.388 0.354 0.201
v -16.000 1.074 -72.000 0.374 0.341 0.194
v -8.000 1.173 -72.000 0.339 0.309 0.175
v 0.000 1.206 -72.000 0.085 0.168 0.056
v -64.000 2.915 -64.000 0.238 0.314 0.116
v -56.000 4.543 -64.000 0.240 0.315 0.117
v -48.000 4.771 -64.000 0.235 0.312 0.115
v -40.000 4.803 -64.000 0.191 0.277 0.100
v -32.000 3.359 -64.000 0.179 0.268 0.096
v -24.000 2.748 -64.000 0.141 0.242 0.083
v -16.000 2.864 -64.000 0.105 0.192 0.065
v -8.000 2.184 -64.000 0.091 0.169 0.057
v 0.000 1.627 -64.000 0.073 0.166 0.089

vt 0.366667 0.766667
vt 0.366667 0.750000
vt 0.383333 0.750000
vt 0.383333 0.766667
vt 0.400000 0.766667
vt 0.400000 0.750000
vt 0.416667 0.750000
vt 0.416667 0.766667
vt 0.433333 0.766667
vt 0.433333 0.750000
vt 0.450000 0.750000
vt 0.450000 0.766667
vt 0.466667 0.766667
vt 0.466667 0.750000
vt 0.483333 0.750000
vt 0.483333 0.766667
vt 0.500000 0.766667
vt 0.500000 0.750000
vt 0.366667 0.733333
vt 0.383333 0.733333
vt 0.400000 0.733333
vt 0.416667 0.733333
vt 0.433333 0.733333
vt 0.450000 0.733333
vt 0.466667 0.733333
vt 0.483333 0.733333
vt 0.500000 0.733333
vt 0.366667 0.716667
vt 0.383333 0.716667
vt 0.400000 0.716667
vt 0.416667 0.716667
vt 0.433333 0.716667
vt 0.450000 0.716667
vt 0.466667 0.716667
vt 0.483333 0.716667
vt 0.500000 0.716667
vt 0.366667 0.700000
vt 0.383333 0.700000
vt 0.400000 0.700000
vt 0.416667 0.700000
vt 0.433333 0.700000
vt 0.450000 0.700000
vt 0.466667 0.700000
vt 0.483333 0.700000
vt 0.500000 0.700000
vt 0.366667 0.683333
vt 0.383333 0.683333
vt 0.400000 0.683333
vt 0.416667 0.683333
vt 0.433333 0.683333
vt 0.450000 0.683333
vt 0.466667 0.683333
vt 0.483333 0.683333
vt 0.500000 0.683333
vt 0.366667 0.666667
vt 0.383333 0.666667
vt 0.400000 0.666667
vt 0.416667 0.666667
vt 0.433333 0.666667
vt 0.450000 0.666667
vt 0.466667 0.666667
vt 0.483333 0.666667
vt 0.500000 0.666667
vt 0.366667 0.650000
vt 0.383333 0.650000
vt 0.400000 0.650000
vt 0.416667 0.650000
vt 0.433333 0.650000
vt 0.450000 0.650000
vt 0.466667 0.650000
vt 0.483333 0.650000
vt 0.500000 0.650000
vt 0.366667 0.633333
vt 0.383333 0.633333
vt 0.400000 0.633333
vt 0.416667 0.633333
vt 0.433333 0.633333
vt 0.450000 0.633333
vt 0.466667 0.633333
vt 0.483333 0.633333
vt 0.500000 0.633333

vn -0.06818 0.98852 -0.13482
vn -0.03417 0.99090 -0.13020
vn -0.04462 0.99403 -0.09953
vn -0.06149 0.99297 -0.10118
vn -0.02259 0.99272 -0.11828
vn -0.02423 0.99465 -0.10040
vn -0.04983 0.99221 -0.11421
vn -0.05217 0.99283 -0.10755
vn -0.06405 0.99097 -0.11777
vn -0.07161 0.99138 -0.10969
vn -0.03776 0.99240 -0.11716
vn -0.05197 0.98918 -0.13721
vn -0.02921 0.99429 -0.10265
vn -0.02164 0.99628 -0.08345
vn 0.00781 0.99704 -0.07646
vn 0.01088 0.99415 -0.10746
vn 0.02725 0.99443 -0.10186
vn 0.03293 0.99607 -0.08218
vn -0.02879 0.99608 -0.08366
vn -0.03132 0.99538 -0.09081
vn -0.05421 0.99367 -0.09839
vn -0.06156 0.98877 -0.13617
vn -0.06042 0.99154 -0.11485
vn -0.02555 0.99529 -0.09355
vn 0.02095 0.99756 -0.06661
vn 0.01219 0.99948 -0.02981
vn -0.00804 0.99857 -0.05294
vn -0.06318 0.99567 -0.06821
vn -0.04555 0.99527 -0.08581
vn -0.07040 0.99361 -0.08826
vn -0.06364 0.99450 -0.08322
vn -0.02842 0.99718 -0.06952
vn -0.00639 0.99902 -0.04381
vn 0.04233 0.99741 -0.05817
vn 0.00446 0.99815 -0.06057
vn -0.05945 0.99620 -0.06367
vn -0.04923 0.99695 -0.06058
vn -0.05166 0.99748 -0.04861
vn -0.06507 0.99566 -0.06655
vn -0.04304 0.99747 -0.05663
vn -0.00625 0.99953 -0.03017
vn -0.01427 0.99984 -0.01056
vn 0.00441 0.99960 -0.02800
vn 0.00660 0.99768 -0.06782
vn -0.01533 0.99871 -0.04835
vn -0.01526 0.99455 -0.10312
vn -0.05587 0.99414 -0.09259
vn -0.07819 0.99109 -0.10787
vn -0.01663 0.99612 -0.08640
vn 0.01769 0.99873 -0.04714
vn 0.01908 0.99967 -0.01728
vn -0.01497 0.99961 0.02343
vn -0.01159 0.99993 -0.00384
vn 0.01860 0.99977 -0.01100
vn -0.01335 0.98748 -0.15719
vn -0.05615 0.98603 -0.15680
vn -0.05819 0.99099 -0.12063
vn 0.01841 0.99548 -0.09315
vn 0.05295 0.99666 -0.06210
vn 0.05620 0.99728 -0.04765
vn -0.00340 0.99879 -0.04916
vn -0.02780 0.99885 -0.03919
vn 0.00142 0.99899 -0.04488
vn -0.01447 0.98681 -0.16121
vn -0.04982 0.97419 -0.22016
vn -0.01313 0.97607 -0.21706
vn 0.04681 0.98029 -0.19193
vn 0.06266 0.98660 -0.15062
vn 0.02954 0.98802 -0.15149
vn -0.00633 0.98450 -0.17529
vn 0.00818 0.99311 -0.11690
vn -0.00417 0.99734 -0.07271
vn -0.10551 0.96703 -0.23177
vn -0.10934 0.94278 -0.31499
vn -0.01403 0.94633 -0.32289
vn 0.08324 0.94360 -0.32045
vn 0.09239 0.96273 -0.25420
vn 0.03030 0.97825 -0.20522
vn 0.01413 0.98124 -0.19225
vn 0.07648 0.98919 -0.12511
vn 0.03262 0.99549 -0.08912

f 1/1/1 2/2/2 3/3/3
f 1/1/1 3/3/3 4/4/4
f 4/4/4 3/3/3 5/5/5
f 5/5/5 3/3/3 6/6/6
f 5/5/5 6/6/6 7/7/7
f 5/5/5 7/7/7 8/8/8
f 8/8/8 7/7/7 9/9/9
f 9/9/9 7/7/7 10/10/10
f 9/9/9 10/10/10 11/11/11
f 9/9/9 11/11/11 12/12/12
f 12/12/12 11/11/11 13/13/13
f 13/13/13 11/11/11 14/14/14
f 13/13/13 14/14/14 15/15/15
f 13/13/13 15/15/15 16/16/16
f 16/16/16 15/15/15 17/17/17
f 17/17/17 15/15/15 18/18/18
f 2/2/2 19/19/19 3/3/3
f 3/3/3 19/19/19 20/20/20
f 3/3/3 20/20/20 21/21/21
f 3/3/3 21/21/21 6/6/6
f 6/6/6 21/21/21 7/7/7
f 7/7/7 21/21/21 22/22/22
f 7/7/7 22/22/22 23/23/23
f 7/7/7 23/23/23 10/10/10
f 10/10/10 23/23/23 11/11/11
f 11/11/11 23/23/23 24/24/24
f 11/11/11 24/24/24 25/25/25
f 11/11/11 25/25/25 14/14/14
f 14/14/14 25/25/25 15/15/15
f 15/15/15 25/25/25 26/26/26
f 15/15/15 26/26/26 27/27/27
f 15/15/15 27/27/27 18/18/18
f 19/19/19 28/28/28 29/29/29
f 19/19/19 29/29/29 20/20/20
f 20/20/20 29/29/29 21/21/21
f 21/21/21 29/29/29 30/30/30
f 21/21/21 30/30/30 31/31/31
f 21/21/21 31/31/31 22/22/22
f 22/22/22 31/31/31 23/23/23
f 23/23/23 31/31/31 32/32/32
f 23/23/23 32/32/32 33/33/33
f 23/23/23 33/33/33 24/24/24
f 24/24/24 33/33/33 25/25/25
f 25/25/25 33/33/33 34/34/34
f 25/25/25 34/34/34 35/35/35
f 25/25/25 35/35/35 26/26/26
f 26/26/26 35/35/35 27/27/27
f 27/27/27 35/35/35 36/36/36
f 28/28/28 37/37/37 29/29/29
f 29/29/29 37/37/37 38/38/38
f 29/29/29 38/38/38 39/39/39
f 29/29/29 39/39/39 30/30/30
f 30/30/30 39/39/39 31/31/31
f 31/31/31 39/39/39 40/40/40
f 31/31/31 40/40/40 41/41/41
f 31/31/31 41/41/41 32/32/32
f 32/32/32 41/41/41 33/33/33
f 33/33/33 41/41/41 42/42/42
f 33/33/33 42/42/42 43/43/43
f 33/33/33 43/43/43 34/34/34
f 34/34/34 43/43/43 35/35/35
f 35/35/35 43/43/43 44/44/44
f 35/35/35 44/44/44 45/45/45
f 35/35/35 45/45/45 36/36/36
f 37/37/37 46/46/46 47/47/47
f 37/37/37 47/47/47 38/38/38
f 38/38/38 47/47/47 39/39/39
f 39/39/39 47/47/47 48/48/48
f 39/39/39 48/48/48 49/49/49
f 39/39/39 49/49/49 40/40/40
f 40/40/40 49/49/49 41/41/41
f 41/41/41 49/49/49 50/50/50
f 41/41/41 50/50/50 51/51/51
f 41/41/41 51/51/51 42/42/42
f 42/42/42 51/51/51 43/43/43
f 43/43/43 51/51/51 52/52/52
f 43/43/43 52/52/52 53/53/53
f 43/43/43 53/53/53 44/44/44
f 44/44/44 53/53/53 45/45/45
f 45/45/45 53/53/53 54/54/54
f 46/46/46 55/55/55 47/47/47
f 47/47/47 55/55/55 56/56/56
f 47/47/47 56/56/56 57/57/57
f 47/47/47 57/57/57 48/48/48
f 48/48/48 57/57/57 49/49/49
f 49/49/49 57/57/57 58/58/58
f 49/49/49 58/58/58 59/59/59
f 49/49/49 59/59/59 50/50/50
f 50/50/50 59/59/59 51/51/51
f 51/51/51 59/59/59 60/60/60
f 51/51/51 60/60/60 61/61/61
f 51/51/51 61/61/61 52/52/52
f 52/52/52 61/61/61 53/53/53
f 53/53/53 61/61/61 62/62/62
f 53/53/53 62/62/62 63/63/63
f 53/53/53 63/63/63 54/54/54
f 55/55/55 64/64/64 65/65/65
f 55/55/55 65/65/65 56/56/56
f 56/56/56 65/65/65 57/57/57
f 57/57/57 65/65/65 66/66/66
f 57/57/57 66/66/66 67/67/67
f 57/57/57 67/67/67 58/58/58
f 58/58/58 67/67/67 59/59/59
f 59/59/59 67/67/67 68/68/68
f 59/59/59 68/68/68 69/69/69
f 59/59/59 69/69/69 60/60/60
f 60/60/60 69/69/69 61/61/61
f 61/61/61 69/69/69 70/70/70
f 61/61/61 70/70/70 71/71/71
f 61/61/61 71/71/71 62/62/62
f 62/62/62 71/71/71 63/63/63
f 63/63/63 71/71/71 72/72/72
f 64/64/64 73/73/73 65/65/65
f 65/65/65 73/73/73 74/74/74
f 65/65/65 74/74/74 75/75/75
f 65/65/65 75/75/75 66/66/66
f 66/66/66 75/75/75 67/67/67
f 67/67/67 75/75/75 76/76/76
f 67/67/67 76/76/76 77/77/77
f 67/67/67 77/77/77 68/68/68
f 68/68/68 77/77/77 69/69/69
f 69/69/69 77/77/77 78/78/78
f 69/69/69 78/78/78 79/79/79
f 69/69/69 79/79/79 70/70/70
f 70/70/70 79/79/79 71/71/71
f 71/71/71 79/79/79 80/80/80
f 71/71/71 80/80/80 81/81/81
f 71/71/71 81/81/81 72/72/72
