# Generated by tools/generate_island.py. Do not edit by hand.
o terrain_lod2_-2_2

v -256.000 0.078 256.000 0.479 0.448 0.262
v -256.000 0.175 272.000 0.522 0.492 0.290
v -240.000 1.550 272.000 0.504 0.473 0.278
v -240.000 1.448 256.000 0.474 0.443 0.258
v -224.000 2.246 256.000 0.238 0.314 0.116
v -224.000 1.641 272.000 0.219 0.299 0.110
v -208.000 1.518 272.000 0.429 0.397 0.229
v -208.000 1.422 256.000 0.455 0.423 0.246
v -192.000 0.638 256.000 0.437 0.405 0.234
v -192.000 0.951 272.000 0.369 0.334 0.189
v -176.000 -0.097 272.000 0.381 0.347 0.197
v -176.000 0.921 256.000 0.460 0.428 0.249
v -160.000 1.289 256.000 0.486 0.455 0.266
v -160.000 -0.429 272.000 0.408 0.374 0.215
v -144.000 0.022 272.000 0.446 0.414 0.240
v -144.000 2.334 256.000 0.253 0.326 0.121
v -128.000 2.178 256.000 0.282 0.348 0.131
v -128.000 0.785 272.000 0.488 0.457 0.268
v -256.000 0.050 288.000 0.494 0.464 0.272
v -240.000 0.589 288.000 0.464 0.432 0.252
v -224.000 0.956 288.000 0.471 0.440 0.256
v -208.000 1.276 288.000 0.403 0.370 0.212
v -192.000 1.293 288.000 0.361 0.326 0.184
v -176.000 -0.279 288.000 0.361 0.326 0.184
v -160.000 -0.822 288.000 0.368 0.333 0.188
v -144.000 -0.503 288.000 0.442 0.409 0.237
v -128.000 0.168 288.000 0.479 0.448 0.262
v -256.000 0.990 304.000 0.445 0.413 0.239
v -240.000 1.180 304.000 0.498 0.468 0.274
v -224.000 1.516 304.000 0.508 0.478 0.281
v -208.000 2.021 304.000 0.195 0.280 0.102
v -192.000 1.936 304.000 0.180 0.269 0.097
v -176.000 0.244 304.000 0.400 0.366 0.209
v -160.000 0.452 304.000 0.399 0.365 0.209
v -144.000 -0.218 304.000 0.451 0.419 0.243
v -128.000 -0.461 304.000 0.428 0.395 0.228
v -256.000 0.569 320.000 0.474 0.443 0.259
v -240.000 1.275 320.000 0.514 0.484 0.285
v -224.000 2.119 320.000 0.263 0.333 0.124
v -208.000 2.496 320.000 0.241 0.317 0.117
v -192.000 1.440 320.000 0.493 0.462 0.271
v -176.000 0.918 320.000 0.508 0.477 0.280
v -160.000 1.706 320.000 0.244 0.319 0.118
v -144.000 0.909 320.000 0.453 0.421 0.244
v -128.000 -0.246 320.000 0.426 0.393 0.227
v -256.000 0.911 336.000 0.491 0.460 0.269
v -240.000 1.779 336.000 0.281 0.348 0.130
v -224.000 1.960 336.000 0.275 0.343 0.128
v -208.000 2.313 336.000 0.269 0.338 0.126
v -192.000 1.877 336.000 0.264 0.335 0.125
v -176.000 1.941 336.000 0.294 0.358 0.135
v -160.000 1.853 336.000 0.251 0.324 0.120
v -144.000 -0.374 336.000 0.471 0.439 0.256
v -128.000 0.140 336.000 0.405 0.371 0.213
v -256.000 -0.197 352.000 0.525 0.495 0.292
v -240.000 1.764 352.000 0.280 0.347 0.130
v -224.000 2.153 352.000 0.268 0.338 0.126
v -208.000 0.606 352.000 0.492 0.461 0.270
v -192.000 1.493 352.000 0.517 0.487 0.286
v -176.000 1.578 352.000 0.554 0.525 0.311
v -160.000 1.238 352.000 0.510 0.480 0.282
v -144.000 0.600 352.000 0.403 0.370 0.212
v -128.000 0.274 352.000 0.409 0.375 0.215
v -256.000 -0.415 368.000 0.430 0.398 0.230
v -240.000 0.553 368.000 0.471 0.439 0.256
v -224.000 0.393 368.000 0.484 0.453 0.265
v -208.000 -0.088 368.000 0.497 0.466 0.273
v -192.000 1.774 368.000 0.272 0.341 0.127
v -176.000 0.720 368.000 0.528 0.498 0.294
v -160.000 0.515 368.000 0.509 0.479 0.282
v -144.000 1.260 368.000 0.416 0.383 0.220
v -128.000 0.572 368.000 0.429 0.396 0.229
v -256.000 -0.504 384.000 0.388 0.354 0.202
v -240.000 -0.314 384.000 0.421 0.388 0.224
v -224.000 -0.212 384.000 0.453 0.421 0.245
v -208.000 0.085 384.000 0.497 0.466 0.273
v -192.000 1.216 384.000 0.511 0.481 0.283
v -176.000 0.300 384.000 0.487 0.456 0.267
v -160.000 0.164 384.000 0.472 0.441 0.257
v -144.000 0.855 384.000 0.467 0.436 0.254
v -128.000 0.214 384.000 0.450 0.418 0.242

vt 0.366667 0.366667
vt 0.366667 0.358333
vt 0.375000 0.358333
vt 0.375000 0.366667
vt 0.383333 0.366667
vt 0.383333 0.358333
vt 0.391667 0.358333
vt 0.391667 0.366667
vt 0.400000 0.366667
vt 0.400000 0.358333
vt 0.408333 0.358333
vt 0.408333 0.366667
vt 0.416667 0.366667
vt 0.416667 0.358333
vt 0.425000 0.358333
vt 0.425000 0.366667
vt 0.433333 0.366667
vt 0.433333 0.358333
vt 0.366667 0.350000
vt 0.375000 0.350000
vt 0.383333 0.350000
vt 0.391667 0.350000
vt 0.400000 0.350000
vt 0.408333 0.350000
vt 0.416667 0.350000
vt 0.425000 0.350000
vt 0.433333 0.350000
vt 0.366667 0.341667
vt 0.375000 0.341667
vt 0.383333 0.341667
vt 0.391667 0.341667
vt 0.400000 0.341667
vt 0.408333 0.341667
vt 0.416667 0.341667
vt 0.425000 0.341667
vt 0.433333 0.341667
vt 0.366667 0.333333
vt 0.375000 0.333333
vt 0.383333 0.333333
vt 0.391667 0.333333
vt 0.400000 0.333333
vt 0.408333 0.333333
vt 0.416667 0.333333
vt 0.425000 0.333333
vt 0.433333 0.333333
vt 0.366667 0.325000
vt 0.375000 0.325000
vt 0.383333 0.325000
vt 0.391667 0.325000
vt 0.400000 0.325000
vt 0.408333 0.325000
vt 0.416667 0.325000
vt 0.425000 0.325000
vt 0.433333 0.325000
vt 0.366667 0.316667
vt 0.375000 0.316667
vt 0.383333 0.316667
vt 0.391667 0.316667
vt 0.400000 0.316667
vt 0.408333 0.316667
vt 0.416667 0.316667
vt 0.425000 0.316667
vt 0.433333 0.316667
vt 0.366667 0.308333
vt 0.375000 0.308333
vt 0.383333 0.308333
vt 0.391667 0.308333
vt 0.400000 0.308333
vt 0.408333 0.308333
vt 0.416667 0.308333
vt 0.425000 0.308333
vt 0.433333 0.308333
vt 0.366667 0.300000
vt 0.375000 0.300000
vt 0.383333 0.300000
vt 0.391667 0.300000
vt 0.400000 0.300000
vt 0.408333 0.300000
vt 0.416667 0.300000
vt 0.425000 0.300000
vt 0.433333 0.300000

vn -0.08545 0.99632 -0.00616
vn -0.08560 0.99633 0.00089
vn -0.04685 0.99862 0.02369
vn -0.06758 0.99769 -0.00632
vn 0.00091 0.99987 0.01582
vn 0.00099 0.99919 0.04029
vn 0.02069 0.99976 0.00724
vn 0.05018 0.99872 -0.00600
vn 0.03304 0.99944 0.00462
vn 0.05040 0.99852 -0.02044
vn 0.03297 0.99900 0.03010
vn -0.02029 0.99778 0.06350
vn -0.02381 0.99418 0.10510
vn -0.00373 0.99782 0.06584
vn -0.03353 0.99652 0.07625
vn -0.02747 0.98935 0.14294
vn -0.01883 0.99319 0.11496
vn -0.04754 0.99691 0.06261
vn -0.04128 0.99912 -0.00696
vn -0.02830 0.99953 0.01153
vn -0.01705 0.99985 0.00090
vn -0.01055 0.99982 -0.01573
vn 0.05073 0.99847 -0.02196
vn 0.06596 0.99777 -0.01064
vn 0.00616 0.99988 -0.01455
vn -0.03093 0.99949 0.00750
vn -0.02906 0.99931 0.02322
vn -0.01190 0.99980 -0.01624
vn -0.02739 0.99934 -0.02385
vn -0.02625 0.99900 -0.03633
vn -0.00389 0.99956 -0.02929
vn 0.05546 0.99845 -0.00458
vn 0.03759 0.99851 -0.03954
vn 0.01438 0.99679 -0.07874
vn 0.02176 0.99902 -0.03854
vn 0.01522 0.99980 0.01293
vn -0.03855 0.99922 -0.00811
vn -0.04837 0.99866 -0.01867
vn -0.02982 0.99946 -0.01387
vn 0.02123 0.99973 -0.00912
vn 0.04142 0.99904 -0.01460
vn -0.00829 0.99856 -0.05297
vn 0.02181 0.99919 -0.03391
vn 0.06087 0.99813 0.00489
vn 0.03185 0.99947 -0.00695
vn -0.05412 0.99825 0.02390
vn -0.04680 0.99890 -0.00192
vn -0.01670 0.99986 -0.00106
vn 0.01175 0.99951 0.02884
vn 0.01163 0.99993 -0.00165
vn 0.00029 0.99998 -0.00706
vn 0.07216 0.99729 0.01458
vn 0.04948 0.99877 0.00443
vn -0.03214 0.99935 -0.01623
vn -0.08951 0.99520 0.03967
vn -0.07318 0.99659 0.03817
vn 0.01889 0.99843 0.05273
vn 0.02058 0.99699 0.07480
vn -0.01856 0.99938 0.02989
vn 0.00796 0.99924 0.03814
vn 0.02913 0.99942 0.01767
vn 0.03007 0.99825 -0.05098
vn 0.01290 0.99940 -0.03226
vn -0.06035 0.99813 0.00958
vn -0.03319 0.99803 0.05323
vn 0.01995 0.99708 0.07369
vn -0.02755 0.99921 0.02877
vn -0.02521 0.99964 0.00864
vn 0.02985 0.99909 0.03049
vn -0.01687 0.99930 0.03352
vn 0.00626 0.99997 0.00487
vn 0.04295 0.99908 0.00188
vn -0.03614 0.99890 0.02983
vn -0.00912 0.99850 0.05407
vn 0.00378 0.99955 0.02973
vn -0.04457 0.99895 -0.01075
vn -0.01597 0.99965 0.02130
vn 0.03284 0.99912 0.02621
vn -0.01711 0.99957 0.02385
vn -0.00155 0.99968 0.02528
vn 0.04149 0.99885 0.02382

f 1/1/1 2/2/2 3/3/3
f 1/1/1 3/3/3 4/4/4
f 4/4/4 3/3/3 5/5/5
f 5/5/5 3/3/3 6/6/6
f 5/5/5 6/6/6 7/7/7
f 5/5/5 7/7/7 8/8/8
f 8/8/8 7/7/7 9/9/9
f 9/9/9 7/7/7 10/10/10
f 9/9/9 10/10/10 11/11/11
f 9/9/9 11/11/11 12/12/12
f 12/12/12 11/11/11 13/13/13
f 13/13/13 11/11/11 14/14/14
f 13/13/13 14/14/14 15/15/15
f 13/13/13 15/15/15 16/16/16
f 16/16/16 15/15/15 17/17/17
f 17/17/17 15/15/15 18/18/18
f 2/2/2 19/19/19 3/3/3
f 3/3/3 19/19/19 20/20/20
f 3/3/3 20/20/20 21/21/21
f 3/3/3 21/21/21 6/6/6
f 6/6/6 21/21/21 7/7/7
f 7/7/7 21/21/21 22/22/22
f 7/7/7 22/22/22 23/23/23
f 7/7/7 23/23/23 10/10/10
f 10/10/10 23/23/23 11/11/11
f 11/11/11 23/23/23 24/24/24
f 11/11/11 24/24/24 25/25/25
f 11/11/11 25/25/25 14/14/14
f 14/14/14 25/25/25 15/15/15
f 15/15/15 25/25/25 26/26/26
f 15/15/15 26/26/26 27/27/27
f 15/15/15 27/27/27 18/18/18
f 19/19/19 28/28/28 29/29/29
f 19/19/19 29/29/29 20/20/20
f 20/20/20 29/29/29 21/21/21
f 21/21/21 29/29/29 30/30/30
f 21/21/21 30/30/30 31/31/31
f 21/21/21 31/31/31 22/22/22
f 22/22/22 31/31/31 23/23/23
f 23/23/23 31/31/31 32/32/32
f 23/23/23 32/32/32 33/33/33
f 23/23/23 33/33/33 24/24/24
f 24/24/24 33/33/33 25/25/25
f 25/25/25 33/33/33 34/34/34
f 25/25/25 34/34/34 35/35/35
f 25/25/25 35/35/35 26/26/26
f 26/26/26 35/35/35 27/27/27
f 27/27/27 35/35/35 36/36/36
f 28/28/28 37/37/37 29/29/29
f 29/29/29 37/37/37 38/38/38
f 29/29/29 38/38/38 39/39/39
f 29/29/29 39/39/39 30/30/30
f 30/30/30 39/39/39 31/31/31
f 31/31/31 39/39/39 40/40/40
f 31/31/31 40/40/40 41/41/41
f 31/31/31 41/41/41 32/32/32
f 32/32/32 41/41/41 33/33/33
f 33/33/33 41/41/41 42/42/42
f 33/33/33 42/42/42 43/43/43
f 33/33/33 43/43/43 34/34/34
f 34/34/34 43/43/43 35/35/35
f 35/35/35 43/43/43 44/44/44
f 35/35/35 44/44/44 45/45/45
f 35/35/35 45/45/45 36/36/36
f 37/37/37 46/46/46 47/47/47
f 37/37/37 47/47/47 38/38/38
f 38/38/38 47/47/47 39/39/39
f 39/39/39 47/47/47 48/48/48
f 39/39/39 48/48/48 49/49/49
f 39/39/39 49/49/49 40/40/40
f 40/40/40 49/49/49 41/41/41
f 41/41/41 49/49/49 50/50/50
f 41/41/41 50/50/50 51/51/51
f 41/41/41 51/51/51 42/42/42
f 42/42/42 51/51/51 43/43/43
f 43/43/43 51/51/51 52/52/52
f 43/43/43 52/52/52 53/53/53
f 43/43/43 53/53/53 44/44/44
f 44/44/44 53/53/53 45/45/45
f 45/45/45 53/53/53 54/54/54
f 46/46/46 55/55/55 47/47/47
f 47/47/47 55/55/55 56/56/56
f 47/47/47 56/56/56 57/57/57
f 47/47/47 57/57/57 48/48/48
f 48/48/48 57/57/57 49/49/49
f 49/49/49 57/57/57 58/58/58
f 49/49/49 58/58/58 59/59/59
f 49/49/49 59/59/59 50/50/50
f 50/50/50 59/59/59 51/51/51
f 51/51/51 59/59/59 60/60/60
f 51/51/51 60/60/60 61/61/61
f 51/51/51 61/61/61 52/52/52
f 52/52/52 61/61/61 53/53/53
f 53/53/53 61/61/61 62/62/62
f 53/53/53 62/62/62 63/63/63
f 53/53/53 63/63/63 54/54/54
f 55/55/55 64/64/64 65/65/65
f 55/55/55 65/65/65 56/56/56
f 56/56/56 65/65/65 57/57/57
f 57/57/57 65/65/65 66/66/66
f 57/57/57 66/66/66 67/67/67
f 57/57/57 67/67/67 58/58/58
f 58/58/58 67/67/67 59/59/59
f 59/59/59 67/67/67 68/68/68
f 59/59/59 68/68/68 69/69/69
f 59/59/59 69/69/69 60/60/60
f 60/60/60 69/69/69 61/61/61
f 61/61/61 69/69/69 70/70/70
f 61/61/61 70/70/70 71/71/71
f 61/61/61 71/71/71 62/62/62
f 62/62/62 71/71/71 63/63/63
f 63/63/63 71/71/71 72/72/72
f 64/64/64 73/73/73 65/65/65
f 65/65/65 73/73/73 74/74/74
f 65/65/65 74/74/74 75/75/75
f 65/65/65 75/75/75 66/66/66
f 66/66/66 75/75/75 67/67/67
f 67/67/67 75/75/75 76/76/76
f 67/67/67 76/76/76 77/77/77
f 67/67/67 77/77/77 68/68/68
f 68/68/68 77/77/77 69/69/69
f 69/69/69 77/77/77 78/78/78
f 69/69/69 78/78/78 79/79/79
f 69/69/69 79/79/79 70/70/70
f 70/70/70 79/79/79 71/71/71
f 71/71/71 79/79/79 80/80/80
f 71/71/71 80/80/80 81/81/81
f 71/71/71 81/81/81 72/72/72
