# Generated by tools/generate_island.py. Do not edit by hand.
o terrain_lod2_0_-4

v 0.000 -0.335 -512.000 0.491 0.460 0.270
v 0.000 -0.638 -496.000 0.487 0.456 0.267
v 16.000 -0.751 -496.000 0.494 0.463 0.271
v 16.000 -0.544 -512.000 0.530 0.500 0.295
v 32.000 -0.365 -512.000 0.504 0.474 0.278
v 32.000 -0.350 -496.000 0.466 0.434 0.253
v 48.000 0.747 -496.000 0.501 0.470 0.276
v 48.000 -0.711 -512.000 0.495 0.464 0.272
v 64.000 -0.760 -512.000 0.523 0.493 0.290
v 64.000 0.129 -496.000 0.523 0.493 0.290
v 80.000 -0.140 -496.000 0.480 0.449 0.262
v 80.000 -0.491 -512.000 0.454 0.422 0.245
v 96.000 -0.703 -512.000 0.425 0.392 0.226
v 96.000 -0.610 -496.000 0.449 0.417 0.242
v 112.000 -1.183 -496.000 0.462 0.430 0.250
v 112.000 -1.558 -512.000 0.462 0.431 0.251
v 128.000 -1.618 -512.000 0.481 0.450 0.263
v 128.000 -0.717 -496.000 0.492 0.462 0.270
v 0.000 -0.935 -480.000 0.446 0.414 0.240
v 16.000 -0.381 -480.000 0.447 0.415 0.241
v 32.000 -0.058 -480.000 0.475 0.444 0.259
v 48.000 -0.223 -480.000 0.492 0.461 0.270
v 64.000 -0.129 -480.000 0.503 0.472 0.277
v 80.000 0.200 -480.000 0.499 0.469 0.275
v 96.000 -0.560 -480.000 0.435 0.402 0.233
v 112.000 -0.899 -480.000 0.451 0.419 0.243
v 128.000 -0.701 -480.000 0.441 0.409 0.237
v 0.000 0.367 -464.000 0.504 0.473 0.278
v 16.000 0.689 -464.000 0.487 0.456 0.267
v 32.000 0.207 -464.000 0.472 0.441 0.257
v 48.000 -0.126 -464.000 0.461 0.430 0.250
v 64.000 0.804 -464.000 0.502 0.472 0.277
v 80.000 0.192 -464.000 0.469 0.437 0.255
v 96.000 -0.472 -464.000 0.445 0.413 0.239
v 112.000 -0.370 -464.000 0.432 0.399 0.231
v 128.000 -0.682 -464.000 0.460 0.428 0.249
v 0.000 0.967 -448.000 0.547 0.518 0.306
v 16.000 1.823 -448.000 0.213 0.295 0.108
v 32.000 0.610 -448.000 0.463 0.431 0.251
v 48.000 0.311 -448.000 0.456 0.424 0.247
v 64.000 0.256 -448.000 0.442 0.410 0.237
v 80.000 -0.152 -448.000 0.423 0.390 0.225
v 96.000 -0.001 -448.000 0.441 0.408 0.236
v 112.000 -0.051 -448.000 0.447 0.415 0.240
v 128.000 -0.859 -448.000 0.452 0.420 0.244
v 0.000 0.854 -432.000 0.521 0.491 0.289
v 16.000 1.024 -432.000 0.484 0.453 0.265
v 32.000 0.513 -432.000 0.491 0.460 0.270
v 48.000 1.281 -432.000 0.462 0.430 0.250
v 64.000 0.538 -432.000 0.401 0.367 0.210
v 80.000 -0.249 -432.000 0.377 0.343 0.194
v 96.000 -0.507 -432.000 0.361 0.326 0.184
v 112.000 -0.802 -432.000 0.382 0.348 0.198
v 128.000 -0.549 -432.000 0.419 0.386 0.222
v 0.000 0.224 -416.000 0.484 0.453 0.265
v 16.000 0.734 -416.000 0.471 0.440 0.256
v 32.000 0.848 -416.000 0.480 0.449 0.262
v 48.000 0.811 -416.000 0.468 0.436 0.254
v 64.000 0.640 -416.000 0.415 0.382 0.220
v 80.000 0.810 -416.000 0.385 0.351 0.200
v 96.000 0.648 -416.000 0.366 0.331 0.187
v 112.000 -0.503 -416.000 0.397 0.363 0.208
v 128.000 -0.204 -416.000 0.439 0.407 0.235
v 0.000 0.665 -400.000 0.451 0.419 0.243
v 16.000 0.920 -400.000 0.441 0.409 0.237
v 32.000 0.516 -400.000 0.473 0.442 0.258
v 48.000 0.489 -400.000 0.501 0.470 0.276
v 64.000 2.040 -400.000 0.221 0.301 0.110
v 80.000 1.679 -400.000 0.221 0.301 0.110
v 96.000 0.717 -400.000 0.381 0.347 0.197
v 112.000 -0.083 -400.000 0.445 0.413 0.239
v 128.000 0.902 -400.000 0.441 0.408 0.236
v 0.000 1.178 -384.000 0.436 0.403 0.233
v 16.000 0.867 -384.000 0.395 0.361 0.206
v 32.000 0.485 -384.000 0.469 0.438 0.255
v 48.000 0.337 -384.000 0.485 0.454 0.265
v 64.000 1.509 -384.000 0.516 0.486 0.286
v 80.000 0.930 -384.000 0.493 0.462 0.270
v 96.000 0.523 -384.000 0.431 0.398 0.230
v 112.000 1.522 -384.000 0.442 0.410 0.237
v 128.000 0.256 -384.000 0.439 0.407 0.235

vt 0.500000 0.766667
vt 0.500000 0.758333
vt 0.508333 0.758333
vt 0.508333 0.766667
vt 0.516667 0.766667
vt 0.516667 0.758333
vt 0.525000 0.758333
vt 0.525000 0.766667
vt 0.533333 0.766667
vt 0.533333 0.758333
vt 0.541667 0.758333
vt 0.541667 0.766667
vt 0.550000 0.766667
vt 0.550000 0.758333
vt 0.558333 0.758333
vt 0.558333 0.766667
vt 0.566667 0.766667
vt 0.566667 0.758333
vt 0.500000 0.750000
vt 0.508333 0.750000
vt 0.516667 0.750000
vt 0.525000 0.750000
vt 0.533333 0.750000
vt 0.541667 0.750000
vt 0.550000 0.750000
vt 0.558333 0.750000
vt 0.566667 0.750000
vt 0.500000 0.741667
vt 0.508333 0.741667
vt 0.516667 0.741667
vt 0.525000 0.741667
vt 0.533333 0.741667
vt 0.541667 0.741667
vt 0.550000 0.741667
vt 0.558333 0.741667
vt 0.566667 0.741667
vt 0.500000 0.733333
vt 0.508333 0.733333
vt 0.516667 0.733333
vt 0.525000 0.733333
vt 0.533333 0.733333
vt 0.541667 0.733333
vt 0.550000 0.733333
vt 0.558333 0.733333
vt 0.566667 0.733333
vt 0.500000 0.725000
vt 0.508333 0.725000
vt 0.516667 0.725000
vt 0.525000 0.725000
vt 0.533333 0.725000
vt 0.541667 0.725000
vt 0.550000 0.725000
vt 0.558333 0.725000
vt 0.566667 0.725000
vt 0.500000 0.716667
vt 0.508333 0.716667
vt 0.516667 0.716667
vt 0.525000 0.716667
vt 0.533333 0.716667
vt 0.541667 0.716667
vt 0.550000 0.716667
vt 0.558333 0.716667
vt 0.566667 0.716667
vt 0.500000 0.708333
vt 0.508333 0.708333
vt 0.516667 0.708333
vt 0.525000 0.708333
vt 0.533333 0.708333
vt 0.541667 0.708333
vt 0.550000 0.708333
vt 0.558333 0.708333
vt 0.566667 0.708333
vt 0.500000 0.700000
vt 0.508333 0.700000
vt 0.516667 0.700000
vt 0.525000 0.700000
vt 0.533333 0.700000
vt 0.541667 0.700000
vt 0.550000 0.700000
vt 0.558333 0.700000
vt 0.566667 0.700000

vn 0.01004 0.99982 0.01590
vn 0.00703 0.99980 0.01873
vn -0.01112 0.99994 -0.00026
vn 0.00091 0.99992 0.01289
vn -0.02079 0.99958 -0.02001
vn -0.04674 0.99886 -0.00957
vn -0.00383 0.99988 -0.01494
vn 0.01231 0.99580 -0.09073
vn 0.01040 0.99838 -0.05595
vn 0.02770 0.99942 -0.01970
vn 0.01446 0.99975 -0.01684
vn -0.00179 0.99976 -0.02193
vn 0.03295 0.99936 -0.01423
vn 0.03258 0.99946 -0.00447
vn 0.00991 0.99978 -0.01858
vn 0.02856 0.99932 -0.02341
vn -0.01268 0.99913 -0.03981
vn -0.02908 0.99917 -0.02862
vn -0.02057 0.99906 -0.03817
vn -0.02736 0.99862 -0.04494
vn -0.00780 0.99988 -0.01313
vn 0.00223 0.99963 0.02726
vn -0.00216 0.99998 -0.00632
vn 0.01345 0.99986 -0.01036
vn 0.02970 0.99950 -0.01110
vn 0.00440 0.99967 -0.02539
vn -0.00858 0.99988 -0.01325
vn -0.02010 0.99804 -0.05932
vn -0.00155 0.99852 -0.05443
vn 0.02546 0.99946 -0.02086
vn -0.00601 0.99984 -0.01657
vn -0.00991 0.99988 -0.01203
vn 0.02529 0.99968 -0.00187
vn 0.01756 0.99969 -0.01747
vn 0.01108 0.99980 -0.01637
vn 0.01948 0.99980 0.00494
vn -0.03442 0.99933 -0.01284
vn 0.01117 0.99988 -0.01046
vn 0.02797 0.99944 -0.01838
vn 0.01105 0.99897 -0.04393
vn 0.01671 0.99985 -0.00340
vn 0.00802 0.99987 0.01376
vn 0.00714 0.99995 0.00735
vn 0.02680 0.99955 0.01348
vn 0.02615 0.99965 0.00466
vn -0.01062 0.99967 0.02320
vn 0.00326 0.99978 0.02095
vn -0.00804 0.99994 -0.00744
vn 0.00400 0.99991 -0.01267
vn 0.04776 0.99879 -0.01199
vn 0.01825 0.99957 -0.02309
vn 0.01728 0.99965 -0.02027
vn 0.01402 0.99990 -0.00313
vn -0.01581 0.99967 -0.02047
vn -0.02256 0.99973 0.00459
vn -0.01948 0.99980 0.00327
vn 0.00016 0.99998 0.00697
vn 0.00649 0.99967 0.02476
vn 0.00267 0.99947 -0.03232
vn -0.00026 0.99819 -0.06014
vn 0.03854 0.99847 -0.03973
vn 0.02660 0.99939 -0.02244
vn -0.02868 0.99901 -0.03387
vn -0.01590 0.99943 -0.02978
vn 0.00288 0.99997 -0.00669
vn 0.01346 0.99985 0.01134
vn -0.03018 0.99954 0.00345
vn -0.03716 0.99894 -0.02713
vn 0.02829 0.99957 -0.00769
vn 0.05500 0.99848 0.00389
vn 0.00584 0.99940 -0.03424
vn -0.06149 0.99800 -0.01433
vn 0.00176 0.99990 -0.01437
vn 0.02165 0.99976 0.00330
vn 0.01501 0.99988 0.00416
vn -0.03199 0.99944 0.00947
vn -0.02784 0.99914 0.03064
vn 0.03075 0.99843 0.04673
vn 0.01829 0.99981 -0.00733
vn 0.00831 0.99497 -0.09985
vn 0.00876 0.99951 -0.02996

f 1/1/1 2/2/2 3/3/3
f 1/1/1 3/3/3 4/4/4
f 4/4/4 3/3/3 5/5/5
f 5/5/5 3/3/3 6/6/6
f 5/5/5 6/6/6 7/7/7
f 5/5/5 7/7/7 8/8/8
f 8/8/8 7/7/7 9/9/9
f 9/9/9 7/7/7 10/10/10
f 9/9/9 10/10/10 11/11/11
f 9/9/9 11/11/11 12/12/12
f 12/12/12 11/11/11 13/13/13
f 13/13/13 11/11/11 14/14/14
f 13/13/13 14/14/14 15/15/15
f 13/13/13 15/15/15 16/16/16
f 16/16/16 15/15/15 17/17/17
f 17/17/17 15/15/15 18/18/18
f 2/2/2 19/19/19 3/3/3
f 3/3/3 19/19/19 20/20/20
f 3/3/3 20/20/20 21/21/21
f 3/3/3 21/21/21 6/6/6
f 6/6/6 21/21/21 7/7/7
f 7/7/7 21/21/21 22/22/22
f 7/7/7 22/22/22 23/23/23
f 7/7/7 23/23/23 10/10/10
f 10/10/10 23/23/23 11/11/11
f 11/11/11 23/23/23 24/24/24
f 11/11/11 24/24/24 25/25/25
f 11/11/11 25/25/25 14/14/14
f 14/14/14 25/25/25 15/15/15
f 15/15/15 25/25/25 26/26/26
f 15/15/15 26/26/26 27/27/27
f 15/15/15 27/27/27 18/18/18
f 19/19/19 28/28/28 29/29/29
f 19/19/19 29/29/29 20/20/20
f 20/20/20 29/29/29 21/21/21
f 21/21/21 29/29/29 30/30/30
f 21/21/21 30/30/30 31/31/31
f 21/21/21 31/31/31 22/22/22
f 22/22/22 31/31/31 23/23/23
f 23/23/23 31/31/31 32/32/32
f 23/23/23 32/32/32 33/33/33
f 23/23/23 33/33/33 24/24/24
f 24/24/24 33/33/33 25/25/25
f 25/25/25 33/33/33 34/34/34
f 25/25/25 34/34/34 35/35/35
f 25/25/25 35/35/35 26/26/26
f 26/26/26 35/35/35 27/27/27
f 27/27/27 35/35/35 36/36/36
f 28/28/28 37/37/37 29/29/29
f 29/29/29 37/37/37 38/38/38
f 29/29/29 38/38/38 39/39/39
f 29/29/29 39/39/39 30/30/30
f 30/30/30 39/39/39 31/31/31
f 31/31/31 39/39/39 40/40/40
f 31/31/31 40/40/40 41/41/41
f 31/31/31 41/41/41 32/32/32
f 32/32/32 41/41/41 33/33/33
f 33/33/33 41/41/41 42/42/42
f 33/33/33 42/42/42 43/43/43
f 33/33/33 43/43/43 34/34/34
f 34/34/34 43/43/43 35/35/35
f 35/35/35 43/43/43 44/44/44
f 35/35/35 44/44/44 45/45/45
f 35/35/35 45/45/45 36/36/36
f 37/37/37 46/46/46 47/47/47
f 37/37/37 47/47/47 38/38/38
f 38/38/38 47/47/47 39/39/39
f 39/39/39 47/47/47 48/48/48
f 39/39/39 48/48/48 49/49/49
f 39/39/39 49/49/49 40/40/40
f 40/40/40 49/49/49 41/41/41
f 41/41/41 49/49/49 50/50/50
f 41/41/41 50/50/50 51/51/51
f 41/41/41 51/51/51 42/42/42
f 42/42/42 51/51/51 43/43/43
f 43/43/43 51/51/51 52/52/52
f 43/43/43 52/52/52 53/53/53
f 43/43/43 53/53/53 44/44/44
f 44/44/44 53/53/53 45/45/45
f 45/45/45 53/53/53 54/54/54
f 46/46/46 55/55/55 47/47/47
f 47/47/47 55/55/55 56/56/56
f 47/47/47 56/56/56 57/57/57
f 47/47/47 57/57/57 48/48/48
f 48/48/48 57/57/57 49/49/49
f 49/49/49 57/57/57 58/58/58
f 49/49/49 58/58/58 59/59/59
f 49/49/49 59/59/59 50/50/50
f 50/50/50 59/59/59 51/51/51
f 51/51/51 59/59/59 60/60/60
f 51/51/51 60/60/60 61/61/61
f 51/51/51 61/61/61 52/52/52
f 52/52/52 61/61/61 53/53/53
f 53/53/53 61/61/61 62/62/62
f 53/53/53 62/62/62 63/63/63
f 53/53/53 63/63/63 54/54/54
f 55/55/55 64/64/64 65/65/65
f 55/55/55 65/65/65 56/56/56
f 56/56/56 65/65/65 57/57/57
f 57/57/57 65/65/65 66/66/66
f 57/57/57 66/66/66 67/67/67
f 57/57/57 67/67/67 58/58/58
f 58/58/58 67/67/67 59/59/59
f 59/59/59 67/67/67 68/68/68
f 59/59/59 68/68/68 69/69/69
f 59/59/59 69/69/69 60/60/60
f 60/60/60 69/69/69 61/61/61
f 61/61/61 69/69/69 70/70/70
f 61/61/61 70/70/70 71/71/71
f 61/61/61 71/71/71 62/62/62
f 62/62/62 71/71/71 63/63/63
f 63/63/63 71/71/71 72/72/72
f 64/64/64 73/73/73 65/65/65
f 65/65/65 73/73/73 74/74/74
f 65/65/65 74/74/74 75/75/75
f 65/65/65 75/75/75 66/66/66
f 66/66/66 75/75/75 67/67/67
f 67/67/67 75/75/75 76/76/76
f 67/67/67 76/76/76 77/77/77
f 67/67/67 77/77/77 68/68/68
f 68/68/68 77/77/77 69/69/69
f 69/69/69 77/77/77 78/78/78
f 69/69/69 78/78/78 79/79/79
f 69/69/69 79/79/79 70/70/70
f 70/70/70 79/79/79 71/71/71
f 71/71/71 79/79/79 80/80/80
f 71/71/71 80/80/80 81/81/81
f 71/71/71 81/81/81 72/72/72
