# Generated by tools/generate_island.py. Do not edit by hand.
o terrain_lod2_3_-1

v 192.000 -4.392 -64.000 0.488 0.457 0.267
v 192.000 -4.153 -56.000 0.481 0.450 0.263
v 200.000 -5.724 -56.000 0.481 0.450 0.263
v 200.000 -5.803 -64.000 0.499 0.469 0.275
v 208.000 -6.910 -64.000 0.488 0.457 0.268
v 208.000 -7.207 -56.000 0.490 0.460 0.269
v 216.000 -8.000 -56.000 0.485 0.454 0.266
v 216.000 -8.000 -64.000 0.466 0.434 0.253
v 224.000 -8.000 -64.000 0.451 0.419 0.243
v 224.000 -8.000 -56.000 0.476 0.444 0.259
v 232.000 -8.000 -56.000 0.450 0.418 0.243
v 232.000 -8.000 -64.000 0.436 0.403 0.233
v 240.000 -8.000 -64.000 0.435 0.402 0.232
v 240.000 -8.000 -56.000 0.440 0.408 0.236
v 248.000 -8.000 -56.000 0.451 0.419 0.243
v 248.000 -8.000 -64.000 0.436 0.403 0.233
v 256.000 -8.000 -64.000 0.392 0.358 0.204
v 256.000 -8.000 -56.000 0.420 0.387 0.223
v 192.000 -4.218 -48.000 0.460 0.428 0.249
v 200.000 -5.457 -48.000 0.463 0.431 0.251
v 208.000 -6.995 -48.000 0.500 0.470 0.276
v 216.000 -7.820 -48.000 0.470 0.439 0.256
v 224.000 -8.000 -48.000 0.461 0.429 0.250
v 232.000 -8.000 -48.000 0.449 0.417 0.242
v 240.000 -8.000 -48.000 0.451 0.419 0.243
v 248.000 -8.000 -48.000 0.465 0.433 0.252
v 256.000 -8.000 -48.000 0.429 0.396 0.229
v 192.000 -3.474 -40.000 0.467 0.435 0.254
v 200.000 -4.595 -40.000 0.484 0.453 0.265
v 208.000 -5.732 -40.000 0.473 0.442 0.258
v 216.000 -6.989 -40.000 0.466 0.435 0.253
v 224.000 -7.857 -40.000 0.460 0.429 0.249
v 232.000 -8.000 -40.000 0.459 0.427 0.249
v 240.000 -8.000 -40.000 0.454 0.422 0.245
v 248.000 -8.000 -40.000 0.470 0.439 0.256
v 256.000 -8.000 -40.000 0.439 0.407 0.236
v 192.000 -2.324 -32.000 0.492 0.462 0.270
v 200.000 -3.774 -32.000 0.468 0.437 0.255
v 208.000 -4.701 -32.000 0.448 0.416 0.241
v 216.000 -6.105 -32.000 0.467 0.435 0.253
v 224.000 -7.213 -32.000 0.456 0.425 0.247
v 232.000 -8.000 -32.000 0.432 0.399 0.230
v 240.000 -8.000 -32.000 0.451 0.419 0.243
v 248.000 -8.000 -32.000 0.469 0.437 0.255
v 256.000 -8.000 -32.000 0.430 0.397 0.229
v 192.000 -1.810 -24.000 0.482 0.450 0.263
v 200.000 -3.131 -24.000 0.475 0.444 0.259
v 208.000 -3.976 -24.000 0.432 0.399 0.230
v 216.000 -4.905 -24.000 0.449 0.417 0.242
v 224.000 -6.351 -24.000 0.447 0.415 0.241
v 232.000 -7.367 -24.000 0.448 0.416 0.241
v 240.000 -8.000 -24.000 0.436 0.404 0.233
v 248.000 -8.000 -24.000 0.434 0.402 0.232
v 256.000 -8.000 -24.000 0.450 0.418 0.242
v 192.000 -1.652 -16.000 0.487 0.456 0.267
v 200.000 -2.273 -16.000 0.459 0.428 0.249
v 208.000 -3.280 -16.000 0.437 0.405 0.234
v 216.000 -4.080 -16.000 0.457 0.425 0.247
v 224.000 -5.416 -16.000 0.458 0.426 0.248
v 232.000 -6.820 -16.000 0.453 0.421 0.245
v 240.000 -7.898 -16.000 0.452 0.420 0.244
v 248.000 -8.000 -16.000 0.453 0.421 0.244
v 256.000 -8.000 -16.000 0.457 0.426 0.247
v 192.000 -1.501 -8.000 0.471 0.440 0.257
v 200.000 -1.917 -8.000 0.454 0.422 0.245
v 208.000 -2.802 -8.000 0.442 0.409 0.237
v 216.000 -3.885 -8.000 0.463 0.431 0.251
v 224.000 -4.849 -8.000 0.468 0.437 0.254
v 232.000 -6.244 -8.000 0.479 0.448 0.262
v 240.000 -6.945 -8.000 0.491 0.460 0.269
v 248.000 -7.796 -8.000 0.502 0.471 0.277
v 256.000 -8.000 -8.000 0.487 0.456 0.267
v 192.000 -1.125 0.000 0.483 0.452 0.264
v 200.000 -1.908 0.000 0.464 0.433 0.252
v 208.000 -2.443 0.000 0.471 0.440 0.257
v 216.000 -3.550 0.000 0.490 0.459 0.269
v 224.000 -4.337 0.000 0.505 0.474 0.279
v 232.000 -5.277 0.000 0.497 0.467 0.274
v 240.000 -6.200 0.000 0.509 0.478 0.281
v 248.000 -6.907 0.000 0.512 0.481 0.283
v 256.000 -8.000 0.000 0.518 0.488 0.287

vt 0.800000 0.600000
vt 0.800000 0.587500
vt 0.812500 0.587500
vt 0.812500 0.600000
vt 0.825000 0.600000
vt 0.825000 0.587500
vt 0.837500 0.587500
vt 0.837500 0.600000
vt 0.850000 0.600000
vt 0.850000 0.587500
vt 0.862500 0.587500
vt 0.862500 0.600000
vt 0.875000 0.600000
vt 0.875000 0.587500
vt 0.887500 0.587500
vt 0.887500 0.600000
vt 0.900000 0.600000
vt 0.900000 0.587500
vt 0.800000 0.575000
vt 0.812500 0.575000
vt 0.825000 0.575000
vt 0.837500 0.575000
vt 0.850000 0.575000
vt 0.862500 0.575000
vt 0.875000 0.575000
vt 0.887500 0.575000
vt 0.900000 0.575000
vt 0.800000 0.562500
vt 0.812500 0.562500
vt 0.825000 0.562500
vt 0.837500 0.562500
vt 0.850000 0.562500
vt 0.862500 0.562500
vt 0.875000 0.562500
vt 0.887500 0.562500
vt 0.900000 0.562500
vt 0.800000 0.550000
vt 0.812500 0.550000
vt 0.825000 0.550000
vt 0.837500 0.550000
vt 0.850000 0.550000
vt 0.862500 0.550000
vt 0.875000 0.550000
vt 0.887500 0.550000
vt 0.900000 0.550000
vt 0.800000 0.537500
vt 0.812500 0.537500
vt 0.825000 0.537500
vt 0.837500 0.537500
vt 0.850000 0.537500
vt 0.862500 0.537500
vt 0.875000 0.537500
vt 0.887500 0.537500
vt 0.900000 0.537500
vt 0.800000 0.525000
vt 0.812500 0.525000
vt 0.825000 0.525000
vt 0.837500 0.525000
vt 0.850000 0.525000
vt 0.862500 0.525000
vt 0.875000 0.525000
vt 0.887500 0.525000
vt 0.900000 0.525000
vt 0.800000 0.512500
vt 0.812500 0.512500
vt 0.825000 0.512500
vt 0.837500 0.512500
vt 0.850000 0.512500
vt 0.862500 0.512500
vt 0.875000 0.512500
vt 0.887500 0.512500
vt 0.900000 0.512500
vt 0.800000 0.500000
vt 0.812500 0.500000
vt 0.825000 0.500000
vt 0.837500 0.500000
vt 0.850000 0.500000
vt 0.862500 0.500000
vt 0.875000 0.500000
vt 0.887500 0.500000
vt 0.900000 0.500000

vn 0.18316 0.98289 -0.01954
vn 0.19275 0.98119 -0.01071
vn 0.17540 0.98442 -0.01201
vn 0.15542 0.98780 -0.00967
vn 0.13843 0.99024 0.01596
vn 0.14082 0.99002 0.00528
vn 0.05742 0.99834 -0.00427
vn 0.06798 0.99769 0.00000
vn 0.00000 1.00000 0.00000
vn 0.00000 1.00000 0.00000
vn 0.00000 1.00000 0.00000
vn 0.00000 1.00000 0.00000
vn 0.00000 1.00000 0.00000
vn 0.00000 1.00000 0.00000
vn 0.00000 1.00000 0.00000
vn 0.00000 1.00000 0.00000
vn 0.00000 1.00000 0.00000
vn 0.00000 1.00000 0.00000
vn 0.15927 0.98566 -0.05567
vn 0.17062 0.98289 -0.06934
vn 0.14481 0.98635 -0.07843
vn 0.06255 0.99605 -0.06295
vn 0.02140 0.99957 -0.02026
vn 0.00000 1.00000 0.00000
vn 0.00000 1.00000 0.00000
vn 0.00000 1.00000 0.00000
vn 0.00000 1.00000 0.00000
vn 0.13786 0.98358 -0.11644
vn 0.14841 0.98211 -0.11593
vn 0.14648 0.97920 -0.14040
vn 0.11984 0.98769 -0.10051
vn 0.06300 0.99681 -0.04906
vn 0.01677 0.99978 -0.01230
vn 0.00000 1.00000 0.00000
vn 0.00000 1.00000 0.00000
vn 0.00000 1.00000 0.00000
vn 0.16389 0.98180 -0.09598
vn 0.14637 0.98511 -0.09016
vn 0.13585 0.98475 -0.10865
vn 0.15380 0.97982 -0.12763
vn 0.11234 0.98971 -0.08859
vn 0.04912 0.99801 -0.03946
vn 0.00988 0.99990 -0.00988
vn 0.00000 1.00000 0.00000
vn 0.00000 1.00000 0.00000
vn 0.16276 0.98580 -0.04141
vn 0.12878 0.98855 -0.07868
vn 0.10975 0.99006 -0.08795
vn 0.14437 0.98321 -0.11163
vn 0.15121 0.98233 -0.11029
vn 0.10186 0.99260 -0.06604
vn 0.03950 0.99920 -0.00636
vn 0.00159 1.00000 -0.00159
vn 0.00000 1.00000 0.00000
vn 0.09264 0.99457 -0.04736
vn 0.10096 0.99204 -0.07528
vn 0.11390 0.99096 -0.07095
vn 0.13208 0.98923 -0.06303
vn 0.15842 0.98419 -0.07916
vn 0.15292 0.98581 -0.06921
vn 0.07072 0.99606 -0.05351
vn 0.00636 0.99990 -0.01276
vn 0.00638 0.99996 -0.00638
vn 0.05195 0.99811 -0.03282
vn 0.08632 0.99574 -0.03256
vn 0.12193 0.99118 -0.05185
vn 0.12580 0.99098 -0.04608
vn 0.14553 0.98711 -0.06655
vn 0.13167 0.98716 -0.09043
vn 0.09599 0.98982 -0.10506
vn 0.06246 0.99621 -0.06047
vn 0.02552 0.99967 0.00000
vn 0.07473 0.99692 -0.02391
vn 0.08206 0.99663 -0.00107
vn 0.11205 0.99316 -0.03294
vn 0.11749 0.99220 -0.04154
vn 0.12633 0.98938 -0.07185
vn 0.11480 0.98621 -0.11919
vn 0.09839 0.98975 -0.10348
vn 0.11113 0.98772 -0.10978
vn 0.08071 0.99520 -0.05530

f 1/1/1 2/2/2 3/3/3
f 1/1/1 3/3/3 4/4/4
f 4/4/4 3/3/3 5/5/5
f 5/5/5 3/3/3 6/6/6
f 5/5/5 6/6/6 7/7/7
f 5/5/5 7/7/7 8/8/8
f 8/8/8 7/7/7 9/9/9
f 9/9/9 7/7/7 10/10/10
f 9/9/9 10/10/10 11/11/11
f 9/9/9 11/11/11 12/12/12
f 12/12/12 11/11/11 13/13/13
f 13/13/13 11/11/11 14/14/14
f 13/13/13 14/14/14 15/15/15
f 13/13/13 15/15/15 16/16/16
f 16/16/16 15/15/15 17/17/17
f 17/17/17 15/15/15 18/18/18
f 2/2/2 19/19/19 3/3/3
f 3/3/3 19/19/19 20/20/20
f 3/3/3 20/20/20 21/21/21
f 3/3/3 21/21/21 6/6/6
f 6/6/6 21/21/21 7/7/7
f 7/7/7 21/21/21 22/22/22
f 7/7/7 22/22/22 23/23/23
f 7/7/7 23/23/23 10/10/10
f 10/10/10 23/23/23 11/11/11
f 11/11/11 23/23/23 24/24/24
f 11/11/11 24/24/24 25/25/25
f 11/11/11 25/25/25 14/14/14
f 14/14/14 25/25/25 15/15/15
f 15/15/15 25/25/25 26/26/26
f 15/15/15 26/26/26 27/27/27
f 15/15/15 27/27/27 18/18/18
f 19/19/19 28/28/28 29/29/29
f 19/19/19 29/29/29 20/20/20
f 20/20/20 29/29/29 21/21/21
f 21/21/21 29/29/29 30/30/30
f 21/21/21 30/30/30 31/31/31
f 21/21/21 31/31/31 22/22/22
f 22/22/22 31/31/31 23/23/23
f 23/23/23 31/31/31 32/32/32
f 23/23/23 32/32/32 33/33/33
f 23/23/23 33/33/33 24/24/24
f 24/24/24 33/33/33 25/25/25
f 25/25/25 33/33/33 34/34/34
f 25/25/25 34/34/34 35/35/35
f 25/25/25 35/35/35 26/26/26
f 26/26/26 35/35/35 27/27/27
f 27/27/27 35/35/35 36/36/36
f 28/28/28 37/37/37 29/29/29
f 29/29/29 37/37/37 38/38/38
f 29/29/29 38/38/38 39/39/39
f 29/29/29 39/39/39 30/30/30
f 30/30/30 39/39/39 31/31/31
f 31/31/31 39/39/39 40/40/40
f 31/31/31 40/40/40 41/41/41
f 31/31/31 41/41/41 32/32/32
f 32/32/32 41/41/41 33/33/33
f 33/33/33 41/41/41 42/42/42
f 33/33/33 42/42/42 43/43/43
f 33/33/33 43/43/43 34/34/34
f 34/34/34 43/43/43 35/35/35
f 35/35/35 43/43/43 44/44/44
f 35/35/35 44/44/44 45/45/45
f 35/35/35 45/45/45 36/36/36
f 37/37/37 46/46/46 47/47/47
f 37/37/37 47/47/47 38/38/38
f 38/38/38 47/47/47 39/39/39
f 39/39/39 47/47/47 48/48/48
f 39/39/39 48/48/48 49/49/49
f 39/39/39 49/49/49 40/40/40
f 40/40/40 49/49/49 41/41/41
f 41/41/41 49/49/49 50/50/50
f 41/41/41 50/50/50 51/51/51
f 41/41/41 51/51/51 42/42/42
f 42/42/42 51/51/51 43/43/43
f 43/43/43 51/51/51 52/52/52
f 43/43/43 52/52/52 53/53/53
f 43/43/43 53/53/53 44/44/44
f 44/44/44 53/53/53 45/45/45
f 45/45/45 53/53/53 54/54/54
f 46/46/46 55/55/55 47/47/47
f 47/47/47 55/55/55 56/56/56
f 47/47/47 56/56/56 57/57/57
f 47/47/47 57/57/57 48/48/48
f 48/48/48 57/57/57 49/49/49
f 49/49/49 57/57/57 58/58/58
f 49/49/49 58/58/58 59/59/59
f 49/49/49 59/59/59 50/50/50
f 50/50/50 59/59/59 51/51/51
f 51/51/51 59/59/59 60/60/60
f 51/51/51 60/60/60 61/61/61
f 51/51/51 61/61/61 52/52/52
f 52/52/52 61/61/61 53/53/53
f 53/53/53 61/61/61 62/62/62
f 53/53/53 62/62/62 63/63/63
f 53/53/53 63/63/63 54/54/54
f 55/55/55 64/64/64 65/65/65
f 55/55/55 65/65/65 56/56/56
f 56/56/56 65/65/65 57/57/57
f 57/57/57 65/65/65 66/66/66
f 57/57/57 66/66/66 67/67/67
f 57/57/57 67/67/67 58/58/58
f 58/58/58 67/67/67 59/59/59
f 59/59/59 67/67/67 68/68/68
f 59/59/59 68/68/68 69/69/69
f 59/59/59 69/69/69 60/60/60
f 60/60/60 69/69/69 61/61/61
f 61/61/61 69/69/69 70/70/70
f 61/61/61 70/70/70 71/71/71
f 61/61/61 71/71/71 62/62/62
f 62/62/62 71/71/71 63/63/63
f 63/63/63 71/71/71 72/72/72
f 64/64/64 73/73/73 65/65/65
f 65/65/65 73/73/73 74/74/74
f 65/65/65 74/74/74 75/75/75
f 65/65/65 75/75/75 66/66/66
f 66/66/66 75/75/75 67/67/67
f 67/67/67 75/75/75 76/76/76
f 67/67/67 76/76/76 77/77/77
f 67/67/67 77/77/77 68/68/68
f 68/68/68 77/77/77 69/69/69
f 69/69/69 77/77/77 78/78/78
f 69/69/69 78/78/78 79/79/79
f 69/69/69 79/79/79 70/70/70
f 70/70/70 79/79/79 71/71/71
f 71/71/71 79/79/79 80/80/80
f 71/71/71 80/80/80 81/81/81
f 71/71/71 81/81/81 72/72/72
