# Generated by tools/generate_island.py. Do not edit by hand.
o terrain_lod2_-2_3

v -128.000 -7.879 192.000 0.440 0.408 0.236
v -128.000 -8.000 200.000 0.507 0.476 0.280
v -120.000 -8.000 200.000 0.489 0.458 0.268
v -120.000 -7.330 192.000 0.439 0.407 0.235
v -112.000 -7.157 192.000 0.450 0.417 0.242
v -112.000 -7.927 200.000 0.476 0.445 0.260
v -104.000 -7.746 200.000 0.477 0.446 0.260
v -104.000 -6.454 192.000 0.464 0.432 0.252
v -96.000 -6.010 192.000 0.464 0.433 0.252
v -96.000 -7.229 200.000 0.474 0.442 0.258
v -88.000 -7.626 200.000 0.467 0.436 0.254
v -88.000 -6.037 192.000 0.465 0.433 0.252
v -80.000 -6.172 192.000 0.443 0.411 0.238
v -80.000 -7.997 200.000 0.462 0.430 0.250
v -72.000 -8.000 200.000 0.457 0.425 0.247
v -72.000 -6.927 192.000 0.424 0.391 0.225
v -64.000 -7.322 192.000 0.423 0.390 0.225
v -64.000 -8.000 200.000 0.447 0.415 0.241
v -128.000 -8.000 208.000 0.544 0.515 0.304
v -120.000 -8.000 208.000 0.545 0.516 0.305
v -112.000 -8.000 208.000 0.528 0.498 0.294
v -104.000 -8.000 208.000 0.522 0.492 0.290
v -96.000 -8.000 208.000 0.496 0.465 0.272
v -88.000 -8.000 208.000 0.479 0.447 0.261
v -80.000 -8.000 208.000 0.485 0.454 0.266
v -72.000 -8.000 208.000 0.495 0.464 0.272
v -64.000 -8.000 208.000 0.508 0.478 0.281
v -128.000 -8.000 216.000 0.585 0.557 0.331
v -120.000 -8.000 216.000 0.585 0.557 0.331
v -112.000 -8.000 216.000 0.585 0.557 0.331
v -104.000 -8.000 216.000 0.557 0.529 0.313
v -96.000 -8.000 216.000 0.503 0.472 0.277
v -88.000 -8.000 216.000 0.493 0.462 0.270
v -80.000 -8.000 216.000 0.507 0.476 0.280
v -72.000 -8.000 216.000 0.531 0.502 0.296
v -64.000 -8.000 216.000 0.538 0.509 0.301
v -128.000 -8.000 224.000 0.585 0.557 0.331
v -120.000 -8.000 224.000 0.585 0.557 0.331
v -112.000 -8.000 224.000 0.585 0.557 0.331
v -104.000 -8.000 224.000 0.550 0.521 0.308
v -96.000 -8.000 224.000 0.518 0.488 0.287
v -88.000 -8.000 224.000 0.522 0.492 0.290
v -80.000 -8.000 224.000 0.548 0.519 0.307
v -72.000 -8.000 224.000 0.565 0.536 0.318
v -64.000 -8.000 224.000 0.558 0.530 0.314
v -128.000 -8.000 232.000 0.585 0.557 0.331
v -120.000 -8.000 232.000 0.585 0.557 0.331
v -112.000 -8.000 232.000 0.585 0.557 0.331
v -104.000 -8.000 232.000 0.582 0.553 0.329
v -96.000 -8.000 232.000 0.545 0.516 0.305
v -88.000 -8.000 232.000 0.535 0.505 0.298
v -80.000 -8.000 232.000 0.540 0.511 0.302
v -72.000 -8.000 232.000 0.554 0.525 0.311
v -64.000 -8.000 232.000 0.578 0.550 0.327
v -128.000 -8.000 240.000 0.583 0.554 0.330
v -120.000 -8.000 240.000 0.585 0.557 0.331
v -112.000 -8.000 240.000 0.585 0.557 0.331
v -104.000 -8.000 240.000 0.582 0.554 0.329
v -96.000 -8.000 240.000 0.563 0.534 0.317
v -88.000 -8.000 240.000 0.527 0.497 0.293
v -80.000 -8.000 240.000 0.532 0.502 0.296
v -72.000 -8.000 240.000 0.551 0.522 0.309
v -64.000 -8.000 240.000 0.572 0.544 0.323
v -128.000 -8.000 248.000 0.585 0.557 0.331
v -120.000 -8.000 248.000 0.574 0.546 0.324
v -112.000 -8.000 248.000 0.569 0.540 0.321
v -104.000 -8.000 248.000 0.579 0.550 0.327
v -96.000 -8.000 248.000 0.547 0.518 0.306
v -88.000 -8.000 248.000 0.515 0.485 0.285
v -80.000 -8.000 248.000 0.528 0.498 0.294
v -72.000 -8.000 248.000 0.537 0.507 0.300
v -64.000 -8.000 248.000 0.530 0.501 0.295
v -128.000 -8.000 256.000 0.550 0.521 0.308
v -120.000 -8.000 256.000 0.552 0.523 0.310
v -112.000 -8.000 256.000 0.534 0.505 0.298
v -104.000 -8.000 256.000 0.531 0.501 0.296
v -96.000 -8.000 256.000 0.519 0.489 0.288
v -88.000 -8.000 256.000 0.504 0.474 0.278
v -80.000 -8.000 256.000 0.500 0.470 0.276
v -72.000 -8.000 256.000 0.492 0.461 0.270
v -64.000 -8.000 256.000 0.484 0.453 0.265

vt 0.300000 0.200000
vt 0.300000 0.187500
vt 0.312500 0.187500
vt 0.312500 0.200000
vt 0.325000 0.200000
vt 0.325000 0.187500
vt 0.337500 0.187500
vt 0.337500 0.200000
vt 0.350000 0.200000
vt 0.350000 0.187500
vt 0.362500 0.187500
vt 0.362500 0.200000
vt 0.375000 0.200000
vt 0.375000 0.187500
vt 0.387500 0.187500
vt 0.387500 0.200000
vt 0.400000 0.200000
vt 0.400000 0.187500
vt 0.300000 0.175000
vt 0.312500 0.175000
vt 0.325000 0.175000
vt 0.337500 0.175000
vt 0.350000 0.175000
vt 0.362500 0.175000
vt 0.375000 0.175000
vt 0.387500 0.175000
vt 0.400000 0.175000
vt 0.300000 0.162500
vt 0.312500 0.162500
vt 0.325000 0.162500
vt 0.337500 0.162500
vt 0.350000 0.162500
vt 0.362500 0.162500
vt 0.375000 0.162500
vt 0.387500 0.162500
vt 0.400000 0.162500
vt 0.300000 0.150000
vt 0.312500 0.150000
vt 0.325000 0.150000
vt 0.337500 0.150000
vt 0.350000 0.150000
vt 0.362500 0.150000
vt 0.375000 0.150000
vt 0.387500 0.150000
vt 0.400000 0.150000
vt 0.300000 0.137500
vt 0.312500 0.137500
vt 0.325000 0.137500
vt 0.337500 0.137500
vt 0.350000 0.137500
vt 0.362500 0.137500
vt 0.375000 0.137500
vt 0.387500 0.137500
vt 0.400000 0.137500
vt 0.300000 0.125000
vt 0.312500 0.125000
vt 0.325000 0.125000
vt 0.337500 0.125000
vt 0.350000 0.125000
vt 0.362500 0.125000
vt 0.375000 0.125000
vt 0.387500 0.125000
vt 0.400000 0.125000
vt 0.300000 0.112500
vt 0.312500 0.112500
vt 0.325000 0.112500
vt 0.337500 0.112500
vt 0.350000 0.112500
vt 0.362500 0.112500
vt 0.375000 0.112500
vt 0.387500 0.112500
vt 0.400000 0.112500
vt 0.300000 0.100000
vt 0.312500 0.100000
vt 0.325000 0.100000
vt 0.337500 0.100000
vt 0.350000 0.100000
vt 0.362500 0.100000
vt 0.375000 0.100000
vt 0.387500 0.100000
vt 0.400000 0.100000

vn -0.03426 0.99819 0.04939
vn 0.00000 0.99997 0.00758
vn -0.01356 0.99926 0.03599
vn -0.04492 0.99550 0.08342
vn -0.03508 0.99345 0.10872
vn -0.01587 0.99849 0.05262
vn -0.03953 0.99496 0.09212
vn -0.07059 0.98475 0.15901
vn -0.01653 0.98633 0.16394
vn -0.00742 0.99233 0.12343
vn 0.02632 0.99242 0.12008
vn 0.00994 0.98079 0.19480
vn 0.03871 0.98036 0.19337
vn 0.02321 0.99327 0.11349
vn 0.01802 0.99721 0.07249
vn 0.07106 0.98861 0.13263
vn 0.02455 0.99376 0.10877
vn 0.00000 0.99910 0.04234
vn 0.00000 1.00000 0.00000
vn 0.00000 1.00000 0.00000
vn -0.00397 0.99997 0.00627
vn 0.00000 0.99987 0.01589
vn -0.00187 0.99942 0.03389
vn 0.00000 0.99973 0.02336
vn 0.00584 0.99997 0.00595
vn 0.00000 1.00000 0.00000
vn 0.00000 1.00000 0.00000
vn 0.00000 1.00000 0.00000
vn 0.00000 1.00000 0.00000
vn 0.00000 1.00000 0.00000
vn 0.00000 1.00000 0.00000
vn 0.00000 1.00000 0.00000
vn 0.00000 1.00000 0.00000
vn 0.00000 1.00000 0.00000
vn 0.00000 1.00000 0.00000
vn 0.00000 1.00000 0.00000
vn 0.00000 1.00000 0.00000
vn 0.00000 1.00000 0.00000
vn 0.00000 1.00000 0.00000
vn 0.00000 1.00000 0.00000
vn 0.00000 1.00000 0.00000
vn 0.00000 1.00000 0.00000
vn 0.00000 1.00000 0.00000
vn 0.00000 1.00000 0.00000
vn 0.00000 1.00000 0.00000
vn 0.00000 1.00000 0.00000
vn 0.00000 1.00000 0.00000
vn 0.00000 1.00000 0.00000
vn 0.00000 1.00000 0.00000
vn 0.00000 1.00000 0.00000
vn 0.00000 1.00000 0.00000
vn 0.00000 1.00000 0.00000
vn 0.00000 1.00000 0.00000
vn 0.00000 1.00000 0.00000
vn 0.00000 1.00000 0.00000
vn 0.00000 1.00000 0.00000
vn 0.00000 1.00000 0.00000
vn 0.00000 1.00000 0.00000
vn 0.00000 1.00000 0.00000
vn 0.00000 1.00000 0.00000
vn 0.00000 1.00000 0.00000
vn 0.00000 1.00000 0.00000
vn 0.00000 1.00000 0.00000
vn 0.00000 1.00000 0.00000
vn 0.00000 1.00000 0.00000
vn 0.00000 1.00000 0.00000
vn 0.00000 1.00000 0.00000
vn 0.00000 1.00000 0.00000
vn 0.00000 1.00000 0.00000
vn 0.00000 1.00000 0.00000
vn 0.00000 1.00000 0.00000
vn 0.00000 1.00000 0.00000
vn 0.00000 1.00000 0.00000
vn 0.00000 1.00000 0.00000
vn 0.00000 1.00000 0.00000
vn 0.00000 1.00000 0.00000
vn 0.00000 1.00000 0.00000
vn 0.00000 1.00000 0.00000
vn 0.00000 1.00000 0.00000
vn 0.00000 1.00000 0.00000
vn 0.00000 1.00000 0.00000

f 1/1/1 2/2/2 3/3/3
f 1/1/1 3/3/3 4/4/4
f 4/4/4 3/3/3 5/5/5
f 5/5/5 3/3/3 6/6/6
f 5/5/5 6/6/6 7/7/7
f 5/5/5 7/7/7 8/8/8
f 8/8/8 7/7/7 9/9/9
f 9/9/9 7/7/7 10/10/10
f 9/9/9 10/10/10 11/11/11
f 9/9/9 11/11/11 12/12/12
f 12/12/12 11/11/11 13/13/13
f 13/13/13 11/11/11 14/14/14
f 13/13/13 14/14/14 15/15/15
f 13/13/13 15/15/15 16/16/16
f 16/16/16 15/15/15 17/17/17
f 17/17/17 15/15/15 18/18/18
f 2/2/2 19/19/19 3/3/3
f 3/3/3 19/19/19 20/20/20
f 3/3/3 20/20/20 21/21/21
f 3/3/3 21/21/21 6/6/6
f 6/6/6 21/21/21 7/7/7
f 7/7/7 21/21/21 22/22/22
f 7/7/7 22/22/22 23/23/23
f 7/7/7 23/23/23 10/10/10
f 10/10/10 23/23/23 11/11/11
f 11/11/11 23/23/23 24/24/24
f 11/11/11 24/24/24 25/25/25
f 11/11/11 25/25/25 14/14/14
f 14/14/14 25/25/25 15/15/15
f 15/15/15 25/25/25 26/26/26
f 15/15/15 26/26/26 27/27/27
f 15/15/15 27/27/27 18/18/18
f 19/19/19 28/28/28 29/29/29
f 19/19/19 29/29/29 20/20/20
f 20/20/20 29/29/29 21/21/21
f 21/21/21 29/29/29 30/30/30
f 21/21/21 30/30/30 31/31/31
f 21/21/21 31/31/31 22/22/22
f 22/22/22 31/31/31 23/23/23
f 23/23/23 31/31/31 32/32/32
f 23/23/23 32/32/32 33/33/33
f 23/23/23 33/33/33 24/24/24
f 24/24/24 33/33/33 25/25/25
f 25/25/25 33/33/33 34/34/34
f 25/25/25 34/34/34 35/35/35
f 25/25/25 35/35/35 26/26/26
f 26/26/26 35/35/35 27/27/27
f 27/27/27 35/35/35 36/36/36
f 28/28/28 37/37/37 29/29/29
f 29/29/29 37/37/37 38/38/38
f 29/29/29 38/38/38 39/39/39
f 29/29/29 39/39/39 30/30/30
f 30/30/30 39/39/39 31/31/31
f 31/31/31 39/39/39 40/40/40
f 31/31/31 40/40/40 41/41/41
f 31/31/31 41/41/41 32/32/32
f 32/32/32 41/41/41 33/33/33
f 33/33/33 41/41/41 42/42/42
f 33/33/33 42/42/42 43/43/43
f 33/33/33 43/43/43 34/34/34
f 34/34/34 43/43/43 35/35/35
f 35/35/35 43/43/43 44/44/44
f 35/35/35 44/44/44 45/45/45
f 35/35/35 45/45/45 36/36/36
f 37/37/37 46/46/46 47/47/47
f 37/37/37 47/47/47 38/38/38
f 38/38/38 47/47/47 39/39/39
f 39/39/39 47/47/47 48/48/48
f 39/39/39 48/48/48 49/49/49
f 39/39/39 49/49/49 40/40/40
f 40/40/40 49/49/49 41/41/41
f 41/41/41 49/49/49 50/50/50
f 41/41/41 50/50/50 51/51/51
f 41/41/41 51/51/51 42/42/42
f 42/42/42 51/51/51 43/43/43
f 43/43/43 51/51/51 52/52/52
f 43/43/43 52/52/52 53/53/53
f 43/43/43 53/53/53 44/44/44
f 44/44/44 53/53/53 45/45/45
f 45/45/45 53/53/53 54/54/54
f 46/46/46 55/55/55 47/47/47
f 47/47/47 55/55/55 56/56/56
f 47/47/47 56/56/56 57/57/57
f 47/47/47 57/57/57 48/48/48
f 48/48/48 57/57/57 49/49/49
f 49/49/49 57/57/57 58/58/58
f 49/49/49 58/58/58 59/59/59
f 49/49/49 59/59/59 50/50/50
f 50/50/50 59/59/59 51/51/51
f 51/51/51 59/59/59 60/60/60
f 51/51/51 60/60/60 61/61/61
f 51/51/51 61/61/61 52/52/52
f 52/52/52 61/61/61 53/53/53
f 53/53/53 61/61/61 62/62/62
f 53/53/53 62/62/62 63/63/63
f 53/53/53 63/63/63 54/54/54
f 55/55/55 64/64/64 65/65/65
f 55/55/55 65/65/65 56/56/56
f 56/56/56 65/65/65 57/57/57
f 57/57/57 65/65/65 66/66/66
f 57/57/57 66/66/66 67/67/67
f 57/57/57 67/67/67 58/58/58
f 58/58/58 67/67/67 59/59/59
f 59/59/59 67/67/67 68/68/68
f 59/59/59 68/68/68 69/69/69
f 59/59/59 69/69/69 60/60/60
f 60/60/60 69/69/69 61/61/61
f 61/61/61 69/69/69 70/70/70
f 61/61/61 70/70/70 71/71/71
f 61/61/61 71/71/71 62/62/62
f 62/62/62 71/71/71 63/63/63
f 63/63/63 71/71/71 72/72/72
f 64/64/64 73/73/73 65/65/65
f 65/65/65 73/73/73 74/74/74
f 65/65/65 74/74/74 75/75/75
f 65/65/65 75/75/75 66/66/66
f 66/66/66 75/75/75 67/67/67
f 67/67/67 75/75/75 76/76/76
f 67/67/67 76/76/76 77/77/77
f 67/67/67 77/77/77 68/68/68
f 68/68/68 77/77/77 69/69/69
f 69/69/69 77/77/77 78/78/78
f 69/69/69 78/78/78 79/79/79
f 69/69/69 79/79/79 70/70/70
f 70/70/70 79/79/79 71/71/71
f 71/71/71 79/79/79 80/80/80
f 71/71/71 80/80/80 81/81/81
f 71/71/71 81/81/81 72/72/72
