# Generated by tools/generate_island.py. Do not edit by hand.
o terrain_lod2_5_-2

v 640.000 -7.999 -256.000 0.416 0.383 0.220
v 640.000 -8.431 -240.000 0.393 0.359 0.205
v 656.000 -9.596 -240.000 0.368 0.333 0.189
v 656.000 -9.555 -256.000 0.437 0.404 0.234
v 672.000 -10.457 -256.000 0.460 0.428 0.249
v 672.000 -10.112 -240.000 0.409 0.376 0.215
v 688.000 -10.800 -240.000 0.462 0.431 0.251
v 688.000 -10.800 -256.000 0.509 0.479 0.281
v 704.000 -10.800 -256.000 0.531 0.501 0.296
v 704.000 -10.800 -240.000 0.555 0.527 0.312
v 720.000 -10.800 -240.000 0.576 0.547 0.325
v 720.000 -10.800 -256.000 0.506 0.475 0.279
v 736.000 -10.800 -256.000 0.511 0.481 0.283
v 736.000 -10.800 -240.000 0.536 0.506 0.299
v 752.000 -10.800 -240.000 0.560 0.531 0.315
v 752.000 -10.800 -256.000 0.504 0.474 0.278
v 768.000 -10.800 -256.000 0.512 0.481 0.283
v 768.000 -10.800 -240.000 0.529 0.499 0.295
v 640.000 -8.443 -224.000 0.419 0.386 0.222
v 656.000 -9.063 -224.000 0.374 0.339 0.192
v 672.000 -10.174 -224.000 0.420 0.387 0.223
v 688.000 -10.800 -224.000 0.483 0.451 0.264
v 704.000 -10.800 -224.000 0.537 0.508 0.300
v 720.000 -10.800 -224.000 0.555 0.526 0.311
v 736.000 -10.800 -224.000 0.528 0.499 0.294
v 752.000 -10.800 -224.000 0.521 0.491 0.289
v 768.000 -10.800 -224.000 0.556 0.527 0.312
v 640.000 -8.261 -208.000 0.425 0.392 0.226
v 656.000 -9.099 -208.000 0.395 0.361 0.206
v 672.000 -10.448 -208.000 0.449 0.417 0.242
v 688.000 -10.800 -208.000 0.486 0.455 0.266
v 704.000 -10.800 -208.000 0.499 0.468 0.275
v 720.000 -10.800 -208.000 0.486 0.455 0.266
v 736.000 -10.800 -208.000 0.496 0.465 0.273
v 752.000 -10.800 -208.000 0.523 0.493 0.291
v 768.000 -10.800 -208.000 0.527 0.497 0.293
v 640.000 -7.606 -192.000 0.450 0.417 0.242
v 656.000 -8.582 -192.000 0.473 0.441 0.258
v 672.000 -10.295 -192.000 0.479 0.448 0.262
v 688.000 -10.800 -192.000 0.502 0.472 0.277
v 704.000 -10.800 -192.000 0.542 0.512 0.303
v 720.000 -10.800 -192.000 0.536 0.507 0.299
v 736.000 -10.800 -192.000 0.471 0.439 0.256
v 752.000 -10.800 -192.000 0.492 0.461 0.270
v 768.000 -10.800 -192.000 0.569 0.541 0.321
v 640.000 -7.755 -176.000 0.517 0.487 0.287
v 656.000 -8.876 -176.000 0.533 0.503 0.297
v 672.000 -9.485 -176.000 0.512 0.481 0.283
v 688.000 -10.228 -176.000 0.514 0.484 0.285
v 704.000 -10.800 -176.000 0.538 0.508 0.300
v 720.000 -10.800 -176.000 0.506 0.476 0.280
v 736.000 -10.800 -176.000 0.447 0.415 0.241
v 752.000 -10.800 -176.000 0.453 0.420 0.244
v 768.000 -10.800 -176.000 0.505 0.474 0.279
v 640.000 -7.738 -160.000 0.483 0.452 0.264
v 656.000 -8.706 -160.000 0.563 0.534 0.317
v 672.000 -9.091 -160.000 0.541 0.512 0.302
v 688.000 -10.259 -160.000 0.548 0.518 0.307
v 704.000 -10.800 -160.000 0.496 0.466 0.273
v 720.000 -10.800 -160.000 0.475 0.443 0.259
v 736.000 -10.800 -160.000 0.449 0.416 0.242
v 752.000 -10.800 -160.000 0.412 0.379 0.218
v 768.000 -10.800 -160.000 0.423 0.390 0.225
v 640.000 -7.645 -144.000 0.467 0.435 0.253
v 656.000 -8.254 -144.000 0.540 0.510 0.301
v 672.000 -8.696 -144.000 0.524 0.494 0.291
v 688.000 -9.982 -144.000 0.526 0.496 0.293
v 704.000 -10.800 -144.000 0.498 0.467 0.274
v 720.000 -10.800 -144.000 0.476 0.445 0.260
v 736.000 -10.800 -144.000 0.437 0.405 0.234
v 752.000 -10.800 -144.000 0.447 0.415 0.241
v 768.000 -10.800 -144.000 0.471 0.440 0.256
v 640.000 -7.221 -128.000 0.484 0.453 0.265
v 656.000 -7.251 -128.000 0.515 0.485 0.285
v 672.000 -8.335 -128.000 0.539 0.510 0.301
v 688.000 -9.580 -128.000 0.542 0.513 0.303
v 704.000 -10.146 -128.000 0.512 0.481 0.283
v 720.000 -10.800 -128.000 0.493 0.462 0.271
v 736.000 -10.800 -128.000 0.468 0.437 0.254
v 752.000 -10.800 -128.000 0.502 0.471 0.277
v 768.000 -10.800 -128.000 0.545 0.515 0.305

vt 0.833333 0.633333
vt 0.833333 0.625000
vt 0.841667 0.625000
vt 0.841667 0.633333
vt 0.850000 0.633333
vt 0.850000 0.625000
vt 0.858333 0.625000
vt 0.858333 0.633333
vt 0.866667 0.633333
vt 0.866667 0.625000
vt 0.875000 0.625000
vt 0.875000 0.633333
vt 0.883333 0.633333
vt 0.883333 0.625000
vt 0.891667 0.625000
vt 0.891667 0.633333
vt 0.900000 0.633333
vt 0.900000 0.625000
vt 0.833333 0.616667
vt 0.841667 0.616667
vt 0.850000 0.616667
vt 0.858333 0.616667
vt 0.866667 0.616667
vt 0.875000 0.616667
vt 0.883333 0.616667
vt 0.891667 0.616667
vt 0.900000 0.616667
vt 0.833333 0.608333
vt 0.841667 0.608333
vt 0.850000 0.608333
vt 0.858333 0.608333
vt 0.866667 0.608333
vt 0.875000 0.608333
vt 0.883333 0.608333
vt 0.891667 0.608333
vt 0.900000 0.608333
vt 0.833333 0.600000
vt 0.841667 0.600000
vt 0.850000 0.600000
vt 0.858333 0.600000
vt 0.866667 0.600000
vt 0.875000 0.600000
vt 0.883333 0.600000
vt 0.891667 0.600000
vt 0.900000 0.600000
vt 0.833333 0.591667
vt 0.841667 0.591667
vt 0.850000 0.591667
vt 0.858333 0.591667
vt 0.866667 0.591667
vt 0.875000 0.591667
vt 0.883333 0.591667
vt 0.891667 0.591667
vt 0.900000 0.591667
vt 0.833333 0.583333
vt 0.841667 0.583333
vt 0.850000 0.583333
vt 0.858333 0.583333
vt 0.866667 0.583333
vt 0.875000 0.583333
vt 0.883333 0.583333
vt 0.891667 0.583333
vt 0.900000 0.583333
vt 0.833333 0.575000
vt 0.841667 0.575000
vt 0.850000 0.575000
vt 0.858333 0.575000
vt 0.866667 0.575000
vt 0.875000 0.575000
vt 0.883333 0.575000
vt 0.891667 0.575000
vt 0.900000 0.575000
vt 0.833333 0.566667
vt 0.841667 0.566667
vt 0.850000 0.566667
vt 0.858333 0.566667
vt 0.866667 0.566667
vt 0.875000 0.566667
vt 0.883333 0.566667
vt 0.891667 0.566667
vt 0.900000 0.566667

vn 0.08470 0.99630 0.01472
vn 0.07258 0.99727 0.01384
vn 0.05888 0.99824 -0.00641
vn 0.07659 0.99706 0.00254
vn 0.03824 0.99922 -0.01015
vn 0.03761 0.99925 -0.00883
vn 0.01832 0.99983 -0.00221
vn 0.01072 0.99994 0.00000
vn 0.00000 1.00000 0.00000
vn 0.00000 1.00000 0.00000
vn 0.00000 1.00000 0.00000
vn 0.00000 1.00000 0.00000
vn 0.00000 1.00000 0.00000
vn 0.00000 1.00000 0.00000
vn 0.00000 1.00000 0.00000
vn 0.00000 1.00000 0.00000
vn 0.00000 1.00000 0.00000
vn 0.00000 1.00000 0.00000
vn 0.05060 0.99866 -0.01040
vn 0.05401 0.99842 -0.01549
vn 0.04978 0.99876 0.00137
vn 0.01955 0.99981 0.00000
vn 0.00000 1.00000 0.00000
vn 0.00000 1.00000 0.00000
vn 0.00000 1.00000 0.00000
vn 0.00000 1.00000 0.00000
vn 0.00000 1.00000 0.00000
vn 0.05229 0.99829 -0.02611
vn 0.06853 0.99756 -0.01309
vn 0.05308 0.99858 0.00376
vn 0.01434 0.99990 0.00094
vn 0.00000 1.00000 0.00000
vn 0.00000 1.00000 0.00000
vn 0.00000 1.00000 0.00000
vn 0.00000 1.00000 0.00000
vn 0.00000 1.00000 0.00000
vn 0.06098 0.99807 -0.01137
vn 0.08372 0.99647 -0.00694
vn 0.05840 0.99807 -0.02121
vn 0.01579 0.99972 -0.01787
vn 0.00447 0.99998 -0.00447
vn 0.00000 1.00000 0.00000
vn 0.00000 1.00000 0.00000
vn 0.00000 1.00000 0.00000
vn 0.00000 1.00000 0.00000
vn 0.06991 0.99754 0.00412
vn 0.05851 0.99827 -0.00641
vn 0.04218 0.99840 -0.03756
vn 0.03781 0.99913 -0.01785
vn 0.01787 0.99984 0.00000
vn 0.00000 1.00000 0.00000
vn 0.00000 1.00000 0.00000
vn 0.00000 1.00000 0.00000
vn 0.00000 1.00000 0.00000
vn 0.05718 0.99830 -0.01141
vn 0.04221 0.99892 -0.01943
vn 0.04826 0.99865 -0.01909
vn 0.05334 0.99855 -0.00767
vn 0.01931 0.99981 -0.00192
vn 0.00000 1.00000 0.00000
vn 0.00000 1.00000 0.00000
vn 0.00000 1.00000 0.00000
vn 0.00000 1.00000 0.00000
vn 0.03799 0.99915 -0.01616
vn 0.03564 0.99883 -0.03265
vn 0.05392 0.99827 -0.02357
vn 0.06025 0.99795 -0.02158
vn 0.02554 0.99946 -0.02044
vn 0.00511 0.99997 -0.00511
vn 0.00000 1.00000 0.00000
vn 0.00000 1.00000 0.00000
vn 0.00000 1.00000 0.00000
vn 0.01992 0.99881 -0.04456
vn 0.03473 0.99744 -0.06253
vn 0.06324 0.99745 -0.03315
vn 0.05647 0.99809 -0.02509
vn 0.03181 0.99914 -0.02671
vn 0.02045 0.99979 0.00000
vn 0.00000 1.00000 0.00000
vn 0.00000 1.00000 0.00000
vn 0.00000 1.00000 0.00000

f 1/1/1 2/2/2 3/3/3
f 1/1/1 3/3/3 4/4/4
f 4/4/4 3/3/3 5/5/5
f 5/5/5 3/3/3 6/6/6
f 5/5/5 6/6/6 7/7/7
f 5/5/5 7/7/7 8/8/8
f 8/8/8 7/7/7 9/9/9
f 9/9/9 7/7/7 10/10/10
f 9/9/9 10/10/10 11/11/11
f 9/9/9 11/11/11 12/12/12
f 12/12/12 11/11/11 13/13/13
f 13/13/13 11/11/11 14/14/14
f 13/13/13 14/14/14 15/15/15
f 13/13/13 15/15/15 16/16/16
f 16/16/16 15/15/15 17/17/17
f 17/17/17 15/15/15 18/18/18
f 2/2/2 19/19/19 3/3/3
f 3/3/3 19/19/19 20/20/20
f 3/3/3 20/20/20 21/21/21
f 3/3/3 21/21/21 6/6/6
f 6/6/6 21/21/21 7/7/7
f 7/7/7 21/21/21 22/22/22
f 7/7/7 22/22/22 23/23/23
f 7/7/7 23/23/23 10/10/10
f 10/10/10 23/23/23 11/11/11
f 11/11/11 23/23/23 24/24/24
f 11/11/11 24/24/24 25/25/25
f 11/11/11 25/25/25 14/14/14
f 14/14/14 25/25/25 15/15/15
f 15/15/15 25/25/25 26/26/26
f 15/15/15 26/26/26 27/27/27
f 15/15/15 27/27/27 18/18/18
f 19/19/19 28/28/28 29/29/29
f 19/19/19 29/29/29 20/20/20
f 20/20/20 29/29/29 21/21/21
f 21/21/21 29/29/29 30/30/30
f 21/21/21 30/30/30 31/31/31
f 21/21/21 31/31/31 22/22/22
f 22/22/22 31/31/31 23/23/23
f 23/23/23 31/31/31 32/32/32
f 23/23/23 32/32/32 33/33/33
f 23/23/23 33/33/33 24/24/24
f 24/24/24 33/33/33 25/25/25
f 25/25/25 33/33/33 34/34/34
f 25/25/25 34/34/34 35/35/35
f 25/25/25 35/35/35 26/26/26
f 26/26/26 35/35/35 27/27/27
f 27/27/27 35/35/35 36/36/36
f 28/28/28 37/37/37 29/29/29
f 29/29/29 37/37/37 38/38/38
f 29/29/29 38/38/38 39/39/39
f 29/29/29 39/39/39 30/30/30
f 30/30/30 39/39/39 31/31/31
f 31/31/31 39/39/39 40/40/40
f 31/31/31 40/40/40 41/41/41
f 31/31/31 41/41/41 32/32/32
f 32/32/32 41/41/41 33/33/33
f 33/33/33 41/41/41 42/42/42
f 33/33/33 42/42/42 43/43/43
f 33/33/33 43/43/43 34/34/34
f 34/34/34 43/43/43 35/35/35
f 35/35/35 43/43/43 44/44/44
f 35/35/35 44/44/44 45/45/45
f 35/35/35 45/45/45 36/36/36
f 37/37/37 46/46/46 47/47/47
f 37/37/37 47/47/47 38/38/38
f 38/38/38 47/47/47 39/39/39
f 39/39/39 47/47/47 48/48/48
f 39/39/39 48/48/48 49/49/49
f 39/39/39 49/49/49 40/40/40
f 40/40/40 49/49/49 41/41/41
f 41/41/41 49/49/49 50/50/50
f 41/41/41 50/50/50 51/51/51
f 41/41/41 51/51/51 42/42/42
f 42/42/42 51/51/51 43/43/43
f 43/43/43 51/51/51 52/52/52
f 43/43/43 52/52/52 53/53/53
f 43/43/43 53/53/53 44/44/44
f 44/44/44 53/53/53 45/45/45
f 45/45/45 53/53/53 54/54/54
f 46/46/46 55/55/55 47/47/47
f 47/47/47 55/55/55 56/56/56
f 47/47/47 56/56/56 57/57/57
f 47/47/47 57/57/57 48/48/48
f 48/48/48 57/57/57 49/49/49
f 49/49/49 57/57/57 58/58/58
f 49/49/49 58/58/58 59/59/59
f 49/49/49 59/59/59 50/50/50
f 50/50/50 59/59/59 51/51/51
f 51/51/51 59/59/59 60/60/60
f 51/51/51 60/60/60 61/61/61
f 51/51/51 61/61/61 52/52/52
f 52/52/52 61/61/61 53/53/53
f 53/53/53 61/61/61 62/62/62
f 53/53/53 62/62/62 63/63/63
f 53/53/53 63/63/63 54/54/54
f 55/55/55 64/64/64 65/65/65
f 55/55/55 65/65/65 56/56/56
f 56/56/56 65/65/65 57/57/57
f 57/57/57 65/65/65 66/66/66
f 57/57/57 66/66/66 67/67/67
f 57/57/57 67/67/67 58/58/58
f 58/58/58 67/67/67 59/59/59
f 59/59/59 67/67/67 68/68/68
f 59/59/59 68/68/68 69/69/69
f 59/59/59 69/69/69 60/60/60
f 60/60/60 69/69/69 61/61/61
f 61/61/61 69/69/69 70/70/70
f 61/61/61 70/70/70 71/71/71
f 61/61/61 71/71/71 62/62/62
f 62/62/62 71/71/71 63/63/63
f 63/63/63 71/71/71 72/72/72
f 64/64/64 73/73/73 65/65/65
f 65/65/65 73/73/73 74/74/74
f 65/65/65 74/74/74 75/75/75
f 65/65/65 75/75/75 66/66/66
f 66/66/66 75/75/75 67/67/67
f 67/67/67 75/75/75 76/76/76
f 67/67/67 76/76/76 77/77/77
f 67/67/67 77/77/77 68/68/68
f 68/68/68 77/77/77 69/69/69
f 69/69/69 77/77/77 78/78/78
f 69/69/69 78/78/78 79/79/79
f 69/69/69 79/79/79 70/70/70
f 70/70/70 79/79/79 71/71/71
f 71/71/71 79/79/79 80/80/80
f 71/71/71 80/80/80 81/81/81
f 71/71/71 81/81/81 72/72/72
