# Generated by tools/generate_island.py. Do not edit by hand.
o terrain_lod2_-3_2

v -384.000 1.344 256.000 0.423 0.390 0.224
v -384.000 0.273 272.000 0.443 0.411 0.238
v -368.000 0.698 272.000 0.454 0.422 0.245
v -368.000 1.744 256.000 0.166 0.258 0.092
v -352.000 0.763 256.000 0.422 0.389 0.224
v -352.000 0.501 272.000 0.410 0.377 0.216
v -336.000 0.189 272.000 0.415 0.382 0.220
v -336.000 -0.418 256.000 0.441 0.409 0.237
v -320.000 0.453 256.000 0.451 0.419 0.243
v -320.000 0.634 272.000 0.474 0.443 0.258
v -304.000 1.899 272.000 0.275 0.343 0.128
v -304.000 0.553 256.000 0.445 0.413 0.239
v -288.000 0.353 256.000 0.445 0.413 0.239
v -288.000 3.773 272.000 0.231 0.309 0.114
v -272.000 1.746 272.000 0.213 0.295 0.108
v -272.000 0.235 256.000 0.437 0.405 0.234
v -256.000 0.078 256.000 0.479 0.448 0.262
v -256.000 0.175 272.000 0.522 0.492 0.290
v -384.000 0.049 288.000 0.445 0.413 0.239
v -368.000 0.040 288.000 0.420 0.387 0.223
v -352.000 -0.249 288.000 0.444 0.412 0.239
v -336.000 0.231 288.000 0.445 0.413 0.239
v -320.000 0.086 288.000 0.464 0.432 0.252
v -304.000 0.737 288.000 0.533 0.503 0.297
v -288.000 1.776 288.000 0.256 0.328 0.122
v -272.000 2.157 288.000 0.216 0.297 0.109
v -256.000 0.050 288.000 0.494 0.464 0.272
v -384.000 0.644 304.000 0.446 0.414 0.240
v -368.000 2.522 304.000 0.455 0.423 0.246
v -352.000 0.799 304.000 0.430 0.397 0.229
v -336.000 0.192 304.000 0.490 0.459 0.269
v -320.000 0.213 304.000 0.476 0.445 0.260
v -304.000 0.306 304.000 0.449 0.417 0.242
v -288.000 0.183 304.000 0.456 0.424 0.246
v -272.000 0.973 304.000 0.473 0.441 0.257
v -256.000 0.990 304.000 0.445 0.413 0.239
v -384.000 -0.334 320.000 0.410 0.376 0.216
v -368.000 2.265 320.000 0.445 0.413 0.239
v -352.000 2.360 320.000 0.455 0.423 0.246
v -336.000 -0.347 320.000 0.412 0.379 0.218
v -320.000 -0.625 320.000 0.409 0.376 0.216
v -304.000 0.077 320.000 0.390 0.356 0.203
v -288.000 -0.399 320.000 0.408 0.375 0.215
v -272.000 0.281 320.000 0.451 0.419 0.243
v -256.000 0.569 320.000 0.474 0.443 0.259
v -384.000 -1.657 336.000 0.401 0.367 0.210
v -368.000 -0.664 336.000 0.417 0.384 0.221
v -352.000 -0.556 336.000 0.440 0.408 0.236
v -336.000 -0.369 336.000 0.398 0.364 0.208
v -320.000 -0.122 336.000 0.374 0.339 0.192
v -304.000 -0.793 336.000 0.362 0.327 0.185
v -288.000 -0.911 336.000 0.379 0.345 0.196
v -272.000 0.060 336.000 0.428 0.395 0.228
v -256.000 0.911 336.000 0.491 0.460 0.269
v -384.000 -1.015 352.000 0.447 0.415 0.241
v -368.000 -0.617 352.000 0.407 0.373 0.214
v -352.000 -0.983 352.000 0.404 0.371 0.212
v -336.000 -0.805 352.000 0.439 0.407 0.235
v -320.000 -0.091 352.000 0.412 0.379 0.217
v -304.000 -0.692 352.000 0.401 0.367 0.210
v -288.000 -0.376 352.000 0.361 0.326 0.184
v -272.000 -0.995 352.000 0.378 0.343 0.195
v -256.000 -0.197 352.000 0.525 0.495 0.292
v -384.000 -0.989 368.000 0.452 0.420 0.244
v -368.000 -0.952 368.000 0.475 0.443 0.259
v -352.000 -0.921 368.000 0.491 0.460 0.269
v -336.000 0.052 368.000 0.522 0.492 0.290
v -320.000 -0.057 368.000 0.462 0.431 0.251
v -304.000 -0.769 368.000 0.405 0.372 0.213
v -288.000 -0.531 368.000 0.362 0.327 0.184
v -272.000 -0.634 368.000 0.423 0.390 0.225
v -256.000 -0.415 368.000 0.430 0.398 0.230
v -384.000 -1.299 384.000 0.453 0.421 0.244
v -368.000 -1.268 384.000 0.511 0.481 0.283
v -352.000 -0.619 384.000 0.569 0.540 0.321
v -336.000 -0.118 384.000 0.529 0.499 0.294
v -320.000 -0.657 384.000 0.491 0.460 0.270
v -304.000 -0.622 384.000 0.419 0.386 0.222
v -288.000 -0.289 384.000 0.438 0.406 0.235
v -272.000 -0.577 384.000 0.428 0.395 0.228
v -256.000 -0.504 384.000 0.388 0.354 0.202

vt 0.300000 0.366667
vt 0.300000 0.358333
vt 0.308333 0.358333
vt 0.308333 0.366667
vt 0.316667 0.366667
vt 0.316667 0.358333
vt 0.325000 0.358333
vt 0.325000 0.366667
vt 0.333333 0.366667
vt 0.333333 0.358333
vt 0.341667 0.358333
vt 0.341667 0.366667
vt 0.350000 0.366667
vt 0.350000 0.358333
vt 0.358333 0.358333
vt 0.358333 0.366667
vt 0.366667 0.366667
vt 0.366667 0.358333
vt 0.300000 0.350000
vt 0.308333 0.350000
vt 0.316667 0.350000
vt 0.325000 0.350000
vt 0.333333 0.350000
vt 0.341667 0.350000
vt 0.350000 0.350000
vt 0.358333 0.350000
vt 0.366667 0.350000
vt 0.300000 0.341667
vt 0.308333 0.341667
vt 0.316667 0.341667
vt 0.325000 0.341667
vt 0.333333 0.341667
vt 0.341667 0.341667
vt 0.350000 0.341667
vt 0.358333 0.341667
vt 0.366667 0.341667
vt 0.300000 0.333333
vt 0.308333 0.333333
vt 0.316667 0.333333
vt 0.325000 0.333333
vt 0.333333 0.333333
vt 0.341667 0.333333
vt 0.350000 0.333333
vt 0.358333 0.333333
vt 0.366667 0.333333
vt 0.300000 0.325000
vt 0.308333 0.325000
vt 0.316667 0.325000
vt 0.325000 0.325000
vt 0.333333 0.325000
vt 0.341667 0.325000
vt 0.350000 0.325000
vt 0.358333 0.325000
vt 0.366667 0.325000
vt 0.300000 0.316667
vt 0.308333 0.316667
vt 0.316667 0.316667
vt 0.325000 0.316667
vt 0.333333 0.316667
vt 0.341667 0.316667
vt 0.350000 0.316667
vt 0.358333 0.316667
vt 0.366667 0.316667
vt 0.300000 0.308333
vt 0.308333 0.308333
vt 0.316667 0.308333
vt 0.325000 0.308333
vt 0.333333 0.308333
vt 0.341667 0.308333
vt 0.350000 0.308333
vt 0.358333 0.308333
vt 0.366667 0.308333
vt 0.300000 0.300000
vt 0.308333 0.300000
vt 0.316667 0.300000
vt 0.325000 0.300000
vt 0.333333 0.300000
vt 0.341667 0.300000
vt 0.350000 0.300000
vt 0.358333 0.300000
vt 0.366667 0.300000

vn -0.02571 0.99749 0.06599
vn -0.02654 0.99883 0.04044
vn 0.00330 0.99900 0.04461
vn 0.01811 0.99771 0.06521
vn 0.04168 0.99902 0.01505
vn 0.01589 0.99937 0.03161
vn -0.00227 1.00000 0.00063
vn 0.00970 0.99923 -0.03790
vn -0.04181 0.99847 -0.03611
vn -0.05334 0.99851 0.01143
vn -0.06135 0.99805 -0.01110
vn 0.00309 0.99648 -0.08380
vn 0.00727 0.98869 -0.14978
vn 0.00476 0.99900 -0.04439
vn 0.07161 0.99660 -0.04078
vn 0.00856 0.99553 -0.09403
vn 0.05385 0.99729 -0.05011
vn 0.09774 0.99521 0.00089
vn -0.03568 0.99878 -0.03425
vn 0.00928 0.99834 -0.05691
vn 0.01918 0.99964 -0.01893
vn -0.01048 0.99995 -0.00009
vn -0.02214 0.99957 0.01899
vn -0.05265 0.99738 0.04963
vn -0.02612 0.99689 0.07434
vn 0.05384 0.99826 0.02413
vn 0.08976 0.99596 -0.00064
vn -0.11661 0.99311 0.01188
vn -0.02112 0.99842 -0.05209
vn 0.07238 0.99408 -0.08106
vn 0.02985 0.99954 -0.00579
vn -0.00356 0.99975 0.02224
vn -0.01450 0.99936 0.03284
vn -0.02077 0.99748 0.06779
vn -0.00668 0.99909 0.04220
vn -0.00108 0.99987 -0.01624
vn -0.12468 0.98857 0.08476
vn -0.08350 0.99160 0.09874
vn 0.05655 0.99713 0.05030
vn 0.09289 0.99552 0.01745
vn -0.00420 0.99983 0.01820
vn -0.00706 0.99939 0.03434
vn -0.01505 0.99935 0.03279
vn -0.03024 0.99914 0.02849
vn -0.02257 0.99963 0.01549
vn -0.06196 0.99785 0.02124
vn -0.03837 0.99635 0.07620
vn -0.00918 0.99454 0.10391
vn 0.00957 0.99953 0.02910
vn 0.01326 0.99977 -0.01671
vn 0.01278 0.99989 0.00765
vn -0.02665 0.99964 -0.00073
vn -0.03739 0.99897 0.02571
vn -0.05310 0.99830 0.02390
vn -0.02856 0.99957 -0.00594
vn -0.00101 0.99996 0.00899
vn -0.00720 0.99996 0.00465
vn -0.02787 0.99953 -0.01314
vn 0.00794 0.99996 -0.00450
vn 0.00891 0.99996 -0.00077
vn -0.00298 1.00000 -0.00071
vn -0.00559 0.99975 0.02167
vn -0.04160 0.99864 0.03151
vn -0.00237 0.99996 0.00885
vn -0.00664 0.99993 0.00954
vn -0.03134 0.99944 -0.01137
vn -0.02016 0.99975 -0.00916
vn 0.02563 0.99951 0.01770
vn 0.00675 0.99997 0.00266
vn -0.00422 0.99999 -0.00272
vn -0.00153 0.99999 -0.00480
vn -0.01369 0.99986 0.00960
vn -0.00214 0.99981 0.01954
vn -0.02123 0.99958 0.01977
vn -0.03363 0.99943 -0.00183
vn 0.00120 0.99994 0.01061
vn 0.02069 0.99960 0.01912
vn -0.01151 0.99989 -0.00916
vn -0.00281 0.99994 -0.01073
vn 0.00672 0.99997 -0.00352
vn -0.00914 0.99996 0.00103

f 1/1/1 2/2/2 3/3/3
f 1/1/1 3/3/3 4/4/4
f 4/4/4 3/3/3 5/5/5
f 5/5/5 3/3/3 6/6/6
f 5/5/5 6/6/6 7/7/7
f 5/5/5 7/7/7 8/8/8
f 8/8/8 7/7/7 9/9/9
f 9/9/9 7/7/7 10/10/10
f 9/9/9 10/10/10 11/11/11
f 9/9/9 11/11/11 12/12/12
f 12/12/12 11/11/11 13/13/13
f 13/13/13 11/11/11 14/14/14
f 13/13/13 14/14/14 15/15/15
f 13/13/13 15/15/15 16/16/16
f 16/16/16 15/15/15 17/17/17
f 17/17/17 15/15/15 18/18/18
f 2/2/2 19/19/19 3/3/3
f 3/3/3 19/19/19 20/20/20
f 3/3/3 20/20/20 21/21/21
f 3/3/3 21/21/21 6/6/6
f 6/6/6 21/21/21 7/7/7
f 7/7/7 21/21/21 22/22/22
f 7/7/7 22/22/22 23/23/23
f 7/7/7 23/23/23 10/10/10
f 10/10/10 23/23/23 11/11/11
f 11/11/11 23/23/23 24/24/24
f 11/11/11 24/24/24 25/25/25
f 11/11/11 25/25/25 14/14/14
f 14/14/14 25/25/25 15/15/15
f 15/15/15 25/25/25 26/26/26
f 15/15/15 26/26/26 27/27/27
f 15/15/15 27/27/27 18/18/18
f 19/19/19 28/28/28 29/29/29
f 19/19/19 29/29/29 20/20/20
f 20/20/20 29/29/29 21/21/21
f 21/21/21 29/29/29 30/30/30
f 21/21/21 30/30/30 31/31/31
f 21/21/21 31/31/31 22/22/22
f 22/22/22 31/31/31 23/23/23
f 23/23/23 31/31/31 32/32/32
f 23/23/23 32/32/32 33/33/33
f 23/23/23 33/33/33 24/24/24
f 24/24/24 33/33/33 25/25/25
f 25/25/25 33/33/33 34/34/34
f 25/25/25 34/34/34 35/35/35
f 25/25/25 35/35/35 26/26/26
f 26/26/26 35/35/35 27/27/27
f 27/27/27 35/35/35 36/36/36
f 28/28/28 37/37/37 29/29/29
f 29/29/29 37/37/37 38/38/38
f 29/29/29 38/38/38 39/39/39
f 29/29/29 39/39/39 30/30/30
f 30/30/30 39/39/39 31/31/31
f 31/31/31 39/39/39 40/40/40
f 31/31/31 40/40/40 41/41/41
f 31/31/31 41/41/41 32/32/32
f 32/32/32 41/41/41 33/33/33
f 33/33/33 41/41/41 42/42/42
f 33/33/33 42/42/42 43/43/43
f 33/33/33 43/43/43 34/34/34
f 34/34/34 43/43/43 35/35/35
f 35/35/35 43/43/43 44/44/44
f 35/35/35 44/44/44 45/45/45
f 35/35/35 45/45/45 36/36/36
f 37/37/37 46/46/46 47/47/47
f 37/37/37 47/47/47 38/38/38
f 38/38/38 47/47/47 39/39/39
f 39/39/39 47/47/47 48/48/48
f 39/39/39 48/48/48 49/49/49
f 39/39/39 49/49/49 40/40/40
f 40/40/40 49/49/49 41/41/41
f 41/41/41 49/49/49 50/50/50
f 41/41/41 50/50/50 51/51/51
f 41/41/41 51/51/51 42/42/42
f 42/42/42 51/51/51 43/43/43
f 43/43/43 51/51/51 52/52/52
f 43/43/43 52/52/52 53/53/53
f 43/43/43 53/53/53 44/44/44
f 44/44/44 53/53/53 45/45/45
f 45/45/45 53/53/53 54/54/54
f 46/46/46 55/55/55 47/47/47
f 47/47/47 55/55/55 56/56/56
f 47/47/47 56/56/56 57/57/57
f 47/47/47 57/57/57 48/48/48
f 48/48/48 57/57/57 49/49/49
f 49/49/49 57/57/57 58/58/58
f 49/49/49 58/58/58 59/59/59
f 49/49/49 59/59/59 50/50/50
f 50/50/50 59/59/59 51/51/51
f 51/51/51 59/59/59 60/60/60
f 51/51/51 60/60/60 61/61/61
f 51/51/51 61/61/61 52/52/52
f 52/52/52 61/61/61 53/53/53
f 53/53/53 61/61/61 62/62/62
f 53/53/53 62/62/62 63/63/63
f 53/53/53 63/63/63 54/54/54
f 55/55/55 64/64/64 65/65/65
f 55/55/55 65/65/65 56/56/56
f 56/56/56 65/65/65 57/57/57
f 57/57/57 65/65/65 66/66/66
f 57/57/57 66/66/66 67/67/67
f 57/57/57 67/67/67 58/58/58
f 58/58/58 67/67/67 59/59/59
f 59/59/59 67/67/67 68/68/68
f 59/59/59 68/68/68 69/69/69
f 59/59/59 69/69/69 60/60/60
f 60/60/60 69/69/69 61/61/61
f 61/61/61 69/69/69 70/70/70
f 61/61/61 70/70/70 71/71/71
f 61/61/61 71/71/71 62/62/62
f 62/62/62 71/71/71 63/63/63
f 63/63/63 71/71/71 72/72/72
f 64/64/64 73/73/73 65/65/65
f 65/65/65 73/73/73 74/74/74
f 65/65/65 74/74/74 75/75/75
f 65/65/65 75/75/75 66/66/66
f 66/66/66 75/75/75 67/67/67
f 67/67/67 75/75/75 76/76/76
f 67/67/67 76/76/76 77/77/77
f 67/67/67 77/77/77 68/68/68
f 68/68/68 77/77/77 69/69/69
f 69/69/69 77/77/77 78/78/78
f 69/69/69 78/78/78 79/79/79
f 69/69/69 79/79/79 70/70/70
f 70/70/70 79/79/79 71/71/71
f 71/71/71 79/79/79 80/80/80
f 71/71/71 80/80/80 81/81/81
f 71/71/71 81/81/81 72/72/72
