# Generated by tools/generate_island.py. Do not edit by hand.
o terrain_lod2_-4_-5

v -512.000 -10.800 -640.000 0.474 0.442 0.258
v -512.000 -10.800 -624.000 0.460 0.428 0.249
v -496.000 -10.800 -624.000 0.475 0.443 0.259
v -496.000 -10.800 -640.000 0.453 0.421 0.244
v -480.000 -10.800 -640.000 0.444 0.412 0.238
v -480.000 -10.800 -624.000 0.488 0.457 0.268
v -464.000 -10.800 -624.000 0.462 0.431 0.251
v -464.000 -10.800 -640.000 0.417 0.384 0.221
v -448.000 -10.800 -640.000 0.496 0.466 0.273
v -448.000 -10.800 -624.000 0.496 0.465 0.272
v -432.000 -10.800 -624.000 0.478 0.447 0.261
v -432.000 -10.800 -640.000 0.490 0.459 0.269
v -416.000 -10.800 -640.000 0.482 0.451 0.263
v -416.000 -10.800 -624.000 0.514 0.484 0.285
v -400.000 -10.800 -624.000 0.477 0.446 0.261
v -400.000 -10.800 -640.000 0.430 0.397 0.229
v -384.000 -10.800 -640.000 0.467 0.435 0.254
v -384.000 -10.800 -624.000 0.489 0.458 0.268
v -512.000 -10.800 -608.000 0.459 0.427 0.248
v -496.000 -10.800 -608.000 0.476 0.445 0.259
v -480.000 -10.800 -608.000 0.510 0.480 0.282
v -464.000 -10.800 -608.000 0.513 0.483 0.284
v -448.000 -10.800 -608.000 0.486 0.455 0.266
v -432.000 -10.800 -608.000 0.477 0.445 0.260
v -416.000 -10.800 -608.000 0.513 0.482 0.284
v -400.000 -10.800 -608.000 0.479 0.447 0.261
v -384.000 -10.800 -608.000 0.507 0.477 0.280
v -512.000 -10.800 -592.000 0.490 0.459 0.269
v -496.000 -10.800 -592.000 0.458 0.426 0.247
v -480.000 -10.800 -592.000 0.495 0.465 0.272
v -464.000 -10.800 -592.000 0.494 0.463 0.271
v -448.000 -10.800 -592.000 0.528 0.498 0.294
v -432.000 -10.800 -592.000 0.502 0.471 0.277
v -416.000 -10.800 -592.000 0.488 0.457 0.267
v -400.000 -10.800 -592.000 0.468 0.437 0.255
v -384.000 -10.395 -592.000 0.509 0.479 0.281
v -512.000 -10.800 -576.000 0.453 0.421 0.244
v -496.000 -10.800 -576.000 0.457 0.425 0.247
v -480.000 -10.800 -576.000 0.493 0.462 0.271
v -464.000 -10.800 -576.000 0.512 0.482 0.283
v -448.000 -10.800 -576.000 0.519 0.489 0.288
v -432.000 -10.800 -576.000 0.494 0.463 0.271
v -416.000 -10.800 -576.000 0.487 0.456 0.267
v -400.000 -10.256 -576.000 0.511 0.481 0.283
v -384.000 -9.871 -576.000 0.521 0.491 0.289
v -512.000 -10.800 -560.000 0.397 0.364 0.208
v -496.000 -10.800 -560.000 0.387 0.353 0.201
v -480.000 -10.800 -560.000 0.486 0.455 0.266
v -464.000 -10.800 -560.000 0.561 0.532 0.315
v -448.000 -10.800 -560.000 0.506 0.475 0.279
v -432.000 -10.800 -560.000 0.481 0.450 0.263
v -416.000 -9.994 -560.000 0.499 0.468 0.275
v -400.000 -9.393 -560.000 0.465 0.433 0.252
v -384.000 -9.138 -560.000 0.477 0.446 0.260
v -512.000 -10.800 -544.000 0.384 0.350 0.199
v -496.000 -10.800 -544.000 0.385 0.351 0.200
v -480.000 -10.800 -544.000 0.451 0.419 0.243
v -464.000 -10.800 -544.000 0.543 0.514 0.304
v -448.000 -10.336 -544.000 0.546 0.517 0.306
v -432.000 -9.544 -544.000 0.525 0.495 0.292
v -416.000 -9.134 -544.000 0.509 0.479 0.282
v -400.000 -9.254 -544.000 0.483 0.451 0.264
v -384.000 -8.297 -544.000 0.488 0.457 0.268
v -512.000 -10.800 -528.000 0.395 0.361 0.206
v -496.000 -10.800 -528.000 0.405 0.372 0.213
v -480.000 -10.231 -528.000 0.445 0.413 0.239
v -464.000 -10.113 -528.000 0.490 0.459 0.269
v -448.000 -9.951 -528.000 0.510 0.480 0.282
v -432.000 -8.791 -528.000 0.528 0.498 0.294
v -416.000 -8.460 -528.000 0.526 0.496 0.292
v -400.000 -8.045 -528.000 0.488 0.457 0.267
v -384.000 -7.413 -528.000 0.499 0.469 0.275
v -512.000 -10.518 -512.000 0.395 0.361 0.206
v -496.000 -9.910 -512.000 0.389 0.355 0.202
v -480.000 -9.524 -512.000 0.428 0.396 0.228
v -464.000 -9.374 -512.000 0.455 0.423 0.246
v -448.000 -8.633 -512.000 0.453 0.421 0.245
v -432.000 -8.091 -512.000 0.444 0.412 0.239
v -416.000 -8.213 -512.000 0.461 0.429 0.250
v -400.000 -7.385 -512.000 0.466 0.434 0.253
v -384.000 -6.694 -512.000 0.453 0.421 0.244

vt 0.233333 0.833333
vt 0.233333 0.825000
vt 0.241667 0.825000
vt 0.241667 0.833333
vt 0.250000 0.833333
vt 0.250000 0.825000
vt 0.258333 0.825000
vt 0.258333 0.833333
vt 0.266667 0.833333
vt 0.266667 0.825000
vt 0.275000 0.825000
vt 0.275000 0.833333
vt 0.283333 0.833333
vt 0.283333 0.825000
vt 0.291667 0.825000
vt 0.291667 0.833333
vt 0.300000 0.833333
vt 0.300000 0.825000
vt 0.233333 0.816667
vt 0.241667 0.816667
vt 0.250000 0.816667
vt 0.258333 0.816667
vt 0.266667 0.816667
vt 0.275000 0.816667
vt 0.283333 0.816667
vt 0.291667 0.816667
vt 0.300000 0.816667
vt 0.233333 0.808333
vt 0.241667 0.808333
vt 0.250000 0.808333
vt 0.258333 0.808333
vt 0.266667 0.808333
vt 0.275000 0.808333
vt 0.283333 0.808333
vt 0.291667 0.808333
vt 0.300000 0.808333
vt 0.233333 0.800000
vt 0.241667 0.800000
vt 0.250000 0.800000
vt 0.258333 0.800000
vt 0.266667 0.800000
vt 0.275000 0.800000
vt 0.283333 0.800000
vt 0.291667 0.800000
vt 0.300000 0.800000
vt 0.233333 0.791667
vt 0.241667 0.791667
vt 0.250000 0.791667
vt 0.258333 0.791667
vt 0.266667 0.791667
vt 0.275000 0.791667
vt 0.283333 0.791667
vt 0.291667 0.791667
vt 0.300000 0.791667
vt 0.233333 0.783333
vt 0.241667 0.783333
vt 0.250000 0.783333
vt 0.258333 0.783333
vt 0.266667 0.783333
vt 0.275000 0.783333
vt 0.283333 0.783333
vt 0.291667 0.783333
vt 0.300000 0.783333
vt 0.233333 0.775000
vt 0.241667 0.775000
vt 0.250000 0.775000
vt 0.258333 0.775000
vt 0.266667 0.775000
vt 0.275000 0.775000
vt 0.283333 0.775000
vt 0.291667 0.775000
vt 0.300000 0.775000
vt 0.233333 0.766667
vt 0.241667 0.766667
vt 0.250000 0.766667
vt 0.258333 0.766667
vt 0.266667 0.766667
vt 0.275000 0.766667
vt 0.283333 0.766667
vt 0.291667 0.766667
vt 0.300000 0.766667

vn 0.00000 1.00000 0.00000
vn 0.00000 1.00000 0.00000
vn 0.00000 1.00000 0.00000
vn 0.00000 1.00000 0.00000
vn 0.00000 1.00000 0.00000
vn 0.00000 1.00000 0.00000
vn 0.00000 1.00000 0.00000
vn 0.00000 1.00000 0.00000
vn 0.00000 1.00000 0.00000
vn 0.00000 1.00000 0.00000
vn 0.00000 1.00000 0.00000
vn 0.00000 1.00000 0.00000
vn 0.00000 1.00000 0.00000
vn 0.00000 1.00000 0.00000
vn 0.00000 1.00000 0.00000
vn 0.00000 1.00000 0.00000
vn 0.00000 1.00000 0.00000
vn 0.00000 1.00000 0.00000
vn 0.00000 1.00000 0.00000
vn 0.00000 1.00000 0.00000
vn 0.00000 1.00000 0.00000
vn 0.00000 1.00000 0.00000
vn 0.00000 1.00000 0.00000
vn 0.00000 1.00000 0.00000
vn 0.00000 1.00000 0.00000
vn 0.00000 1.00000 0.00000
vn -0.00633 0.99996 -0.00633
vn 0.00000 1.00000 0.00000
vn 0.00000 1.00000 0.00000
vn 0.00000 1.00000 0.00000
vn 0.00000 1.00000 0.00000
vn 0.00000 1.00000 0.00000
vn 0.00000 1.00000 0.00000
vn 0.00000 1.00000 0.00000
vn -0.01359 0.99978 -0.01576
vn -0.02530 0.99926 -0.02902
vn 0.00000 1.00000 0.00000
vn 0.00000 1.00000 0.00000
vn 0.00000 1.00000 0.00000
vn 0.00000 1.00000 0.00000
vn 0.00000 1.00000 0.00000
vn 0.00000 1.00000 0.00000
vn -0.01948 0.99953 -0.02358
vn -0.02901 0.99861 -0.04391
vn -0.02233 0.99889 -0.04158
vn 0.00000 1.00000 0.00000
vn 0.00000 1.00000 0.00000
vn 0.00000 1.00000 0.00000
vn -0.00362 0.99999 -0.00362
vn 0.00000 0.99990 -0.01449
vn -0.02197 0.99910 -0.03622
vn -0.04387 0.99769 -0.05194
vn -0.02714 0.99879 -0.04091
vn -0.01592 0.99867 -0.04910
vn 0.00000 1.00000 0.00000
vn 0.00000 1.00000 0.00000
vn -0.00537 0.99988 -0.01427
vn -0.01448 0.99966 -0.02147
vn -0.02991 0.99896 -0.03429
vn -0.03747 0.99733 -0.06262
vn -0.02133 0.99852 -0.05012
vn -0.02611 0.99877 -0.04208
vn -0.04366 0.99790 -0.04791
vn 0.00000 0.99996 -0.00882
vn -0.01666 0.99952 -0.02606
vn -0.02146 0.99898 -0.03984
vn -0.01493 0.99885 -0.04551
vn -0.04121 0.99774 -0.05310
vn -0.03592 0.99842 -0.04314
vn -0.02330 0.99931 -0.02877
vn -0.03470 0.99820 -0.04884
vn -0.03938 0.99797 -0.05002
vn -0.01896 0.99915 -0.03659
vn -0.03100 0.99798 -0.05549
vn -0.01910 0.99869 -0.04747
vn -0.02778 0.99855 -0.04611
vn -0.04058 0.99716 -0.06348
vn -0.01313 0.99896 -0.04367
vn -0.02268 0.99932 -0.02895
vn -0.04738 0.99803 -0.04114
vn -0.04127 0.99822 -0.04302

f 1/1/1 2/2/2 3/3/3
f 1/1/1 3/3/3 4/4/4
f 4/4/4 3/3/3 5/5/5
f 5/5/5 3/3/3 6/6/6
f 5/5/5 6/6/6 7/7/7
f 5/5/5 7/7/7 8/8/8
f 8/8/8 7/7/7 9/9/9
f 9/9/9 7/7/7 10/10/10
f 9/9/9 10/10/10 11/11/11
f 9/9/9 11/11/11 12/12/12
f 12/12/12 11/11/11 13/13/13
f 13/13/13 11/11/11 14/14/14
f 13/13/13 14/14/14 15/15/15
f 13/13/13 15/15/15 16/16/16
f 16/16/16 15/15/15 17/17/17
f 17/17/17 15/15/15 18/18/18
f 2/2/2 19/19/19 3/3/3
f 3/3/3 19/19/19 20/20/20
f 3/3/3 20/20/20 21/21/21
f 3/3/3 21/21/21 6/6/6
f 6/6/6 21/21/21 7/7/7
f 7/7/7 21/21/21 22/22/22
f 7/7/7 22/22/22 23/23/23
f 7/7/7 23/23/23 10/10/10
f 10/10/10 23/23/23 11/11/11
f 11/11/11 23/23/23 24/24/24
f 11/11/11 24/24/24 25/25/25
f 11/11/11 25/25/25 14/14/14
f 14/14/14 25/25/25 15/15/15
f 15/15/15 25/25/25 26/26/26
f 15/15/15 26/26/26 27/27/27
f 15/15/15 27/27/27 18/18/18
f 19/19/19 28/28/28 29/29/29
f 19/19/19 29/29/29 20/20/20
f 20/20/20 29/29/29 21/21/21
f 21/21/21 29/29/29 30/30/30
f 21/21/21 30/30/30 31/31/31
f 21/21/21 31/31/31 22/22/22
f 22/22/22 31/31/31 23/23/23
f 23/23/23 31/31/31 32/32/32
f 23/23/23 32/32/32 33/33/33
f 23/23/23 33/33/33 24/24/24
f 24/24/24 33/33/33 25/25/25
f 25/25/25 33/33/33 34/34/34
f 25/25/25 34/34/34 35/35/35
f 25/25/25 35/35/35 26/26/26
f 26/26/26 35/35/35 27/27/27
f 27/27/27 35/35/35 36/36/36
f 28/28/28 37/37/37 29/29/29
f 29/29/29 37/37/37 38/38/38
f 29/29/29 38/38/38 39/39/39
f 29/29/29 39/39/39 30/30/30
f 30/30/30 39/39/39 31/31/31
f 31/31/31 39/39/39 40/40/40
f 31/31/31 40/40/40 41/41/41
f 31/31/31 41/41/41 32/32/32
f 32/32/32 41/41/41 33/33/33
f 33/33/33 41/41/41 42/42/42
f 33/33/33 42/42/42 43/43/43
f 33/33/33 43/43/43 34/34/34
f 34/34/34 43/43/43 35/35/35
f 35/35/35 43/43/43 44/44/44
f 35/35/35 44/44/44 45/45/45
f 35/35/35 45/45/45 36/36/36
f 37/37/37 46/46/46 47/47/47
f 37/37/37 47/47/47 38/38/38
f 38/38/38 47/47/47 39/39/39
f 39/39/39 47/47/47 48/48/48
f 39/39/39 48/48/48 49/49/49
f 39/39/39 49/49/49 40/40/40
f 40/40/40 49/49/49 41/41/41
f 41/41/41 49/49/49 50/50/50
f 41/41/41 50/50/50 51/51/51
f 41/41/41 51/51/51 42/42/42
f 42/42/42 51/51/51 43/43/43
f 43/43/43 51/51/51 52/52/52
f 43/43/43 52/52/52 53/53/53
f 43/43/43 53/53/53 44/44/44
f 44/44/44 53/53/53 45/45/45
f 45/45/45 53/53/53 54/54/54
f 46/46/46 55/55/55 47/47/47
f 47/47/47 55/55/55 56/56/56
f 47/47/47 56/56/56 57/57/57
f 47/47/47 57/57/57 48/48/48
f 48/48/48 57/57/57 49/49/49
f 49/49/49 57/57/57 58/58/58
f 49/49/49 58/58/58 59/59/59
f 49/49/49 59/59/59 50/50/50
f 50/50/50 59/59/59 51/51/51
f 51/51/51 59/59/59 60/60/60
f 51/51/51 60/60/60 61/61/61
f 51/51/51 61/61/61 52/52/52
f 52/52/52 61/61/61 53/53/53
f 53/53/53 61/61/61 62/62/62
f 53/53/53 62/62/62 63/63/63
f 53/53/53 63/63/63 54/54/54
f 55/55/55 64/64/64 65/65/65
f 55/55/55 65/65/65 56/56/56
f 56/56/56 65/65/65 57/57/57
f 57/57/57 65/65/65 66/66/66
f 57/57/57 66/66/66 67/67/67
f 57/57/57 67/67/67 58/58/58
f 58/58/58 67/67/67 59/59/59
f 59/59/59 67/67/67 68/68/68
f 59/59/59 68/68/68 69/69/69
f 59/59/59 69/69/69 60/60/60
f 60/60/60 69/69/69 61/61/61
f 61/61/61 69/69/69 70/70/70
f 61/61/61 70/70/70 71/71/71
f 61/61/61 71/71/71 62/62/62
f 62/62/62 71/71/71 63/63/63
f 63/63/63 71/71/71 72/72/72
f 64/64/64 73/73/73 65/65/65
f 65/65/65 73/73/73 74/74/74
f 65/65/65 74/74/74 75/75/75
f 65/65/65 75/75/75 66/66/66
f 66/66/66 75/75/75 67/67/67
f 67/67/67 75/75/75 76/76/76
f 67/67/67 76/76/76 77/77/77
f 67/67/67 77/77/77 68/68/68
f 68/68/68 77/77/77 69/69/69
f 69/69/69 77/77/77 78/78/78
f 69/69/69 78/78/78 79/79/79
f 69/69/69 79/79/79 70/70/70
f 70/70/70 79/79/79 71/71/71
f 71/71/71 79/79/79 80/80/80
f 71/71/71 80/80/80 81/81/81
f 71/71/71 81/81/81 72/72/72
