# Generated by tools/generate_island.py. Do not edit by hand.
o terrain_lod2_3_-2

v 192.000 -8.000 -128.000 0.484 0.453 0.265
v 192.000 -8.000 -120.000 0.498 0.468 0.274
v 200.000 -8.000 -120.000 0.529 0.499 0.294
v 200.000 -8.000 -128.000 0.520 0.490 0.288
v 208.000 -8.000 -128.000 0.537 0.507 0.300
v 208.000 -8.000 -120.000 0.527 0.498 0.293
v 216.000 -8.000 -120.000 0.522 0.492 0.290
v 216.000 -8.000 -128.000 0.509 0.479 0.282
v 224.000 -8.000 -128.000 0.502 0.471 0.277
v 224.000 -8.000 -120.000 0.516 0.486 0.286
v 232.000 -8.000 -120.000 0.504 0.474 0.278
v 232.000 -8.000 -128.000 0.472 0.440 0.257
v 240.000 -8.000 -128.000 0.460 0.429 0.249
v 240.000 -8.000 -120.000 0.483 0.452 0.264
v 248.000 -8.000 -120.000 0.460 0.428 0.249
v 248.000 -8.000 -128.000 0.444 0.412 0.239
v 256.000 -8.000 -128.000 0.432 0.399 0.230
v 256.000 -8.000 -120.000 0.450 0.418 0.243
v 192.000 -8.000 -112.000 0.505 0.475 0.279
v 200.000 -8.000 -112.000 0.527 0.498 0.293
v 208.000 -8.000 -112.000 0.538 0.508 0.300
v 216.000 -8.000 -112.000 0.556 0.527 0.312
v 224.000 -8.000 -112.000 0.554 0.525 0.311
v 232.000 -8.000 -112.000 0.536 0.506 0.299
v 240.000 -8.000 -112.000 0.519 0.489 0.288
v 248.000 -8.000 -112.000 0.504 0.473 0.278
v 256.000 -8.000 -112.000 0.481 0.450 0.263
v 192.000 -7.050 -104.000 0.497 0.466 0.273
v 200.000 -7.419 -104.000 0.537 0.507 0.300
v 208.000 -8.000 -104.000 0.567 0.538 0.319
v 216.000 -8.000 -104.000 0.561 0.532 0.315
v 224.000 -8.000 -104.000 0.547 0.517 0.306
v 232.000 -8.000 -104.000 0.521 0.491 0.289
v 240.000 -8.000 -104.000 0.520 0.490 0.289
v 248.000 -8.000 -104.000 0.530 0.501 0.295
v 256.000 -8.000 -104.000 0.506 0.476 0.279
v 192.000 -6.098 -96.000 0.494 0.463 0.271
v 200.000 -6.862 -96.000 0.535 0.505 0.298
v 208.000 -7.479 -96.000 0.572 0.544 0.323
v 216.000 -8.000 -96.000 0.553 0.524 0.310
v 224.000 -8.000 -96.000 0.544 0.515 0.304
v 232.000 -8.000 -96.000 0.504 0.473 0.278
v 240.000 -8.000 -96.000 0.506 0.476 0.280
v 248.000 -8.000 -96.000 0.506 0.475 0.279
v 256.000 -8.000 -96.000 0.470 0.439 0.256
v 192.000 -5.329 -88.000 0.494 0.464 0.272
v 200.000 -6.008 -88.000 0.505 0.474 0.278
v 208.000 -7.065 -88.000 0.486 0.455 0.266
v 216.000 -8.000 -88.000 0.493 0.463 0.271
v 224.000 -8.000 -88.000 0.488 0.457 0.268
v 232.000 -8.000 -88.000 0.477 0.446 0.260
v 240.000 -8.000 -88.000 0.465 0.434 0.253
v 248.000 -8.000 -88.000 0.463 0.431 0.251
v 256.000 -8.000 -88.000 0.456 0.425 0.247
v 192.000 -4.891 -80.000 0.480 0.449 0.262
v 200.000 -5.587 -80.000 0.478 0.446 0.261
v 208.000 -7.133 -80.000 0.488 0.457 0.267
v 216.000 -8.000 -80.000 0.463 0.431 0.251
v 224.000 -8.000 -80.000 0.448 0.416 0.241
v 232.000 -8.000 -80.000 0.436 0.404 0.234
v 240.000 -8.000 -80.000 0.422 0.389 0.224
v 248.000 -8.000 -80.000 0.404 0.370 0.212
v 256.000 -8.000 -80.000 0.393 0.360 0.205
v 192.000 -4.745 -72.000 0.469 0.437 0.255
v 200.000 -5.712 -72.000 0.477 0.446 0.261
v 208.000 -7.130 -72.000 0.492 0.461 0.270
v 216.000 -8.000 -72.000 0.464 0.433 0.252
v 224.000 -8.000 -72.000 0.438 0.406 0.235
v 232.000 -8.000 -72.000 0.428 0.396 0.228
v 240.000 -8.000 -72.000 0.405 0.371 0.213
v 248.000 -8.000 -72.000 0.384 0.350 0.199
v 256.000 -8.000 -72.000 0.369 0.335 0.189
v 192.000 -4.392 -64.000 0.488 0.457 0.267
v 200.000 -5.803 -64.000 0.499 0.469 0.275
v 208.000 -6.910 -64.000 0.488 0.457 0.268
v 216.000 -8.000 -64.000 0.466 0.434 0.253
v 224.000 -8.000 -64.000 0.451 0.419 0.243
v 232.000 -8.000 -64.000 0.436 0.403 0.233
v 240.000 -8.000 -64.000 0.435 0.402 0.232
v 248.000 -8.000 -64.000 0.436 0.403 0.233
v 256.000 -8.000 -64.000 0.392 0.358 0.204

vt 0.800000 0.700000
vt 0.800000 0.687500
vt 0.812500 0.687500
vt 0.812500 0.700000
vt 0.825000 0.700000
vt 0.825000 0.687500
vt 0.837500 0.687500
vt 0.837500 0.700000
vt 0.850000 0.700000
vt 0.850000 0.687500
vt 0.862500 0.687500
vt 0.862500 0.700000
vt 0.875000 0.700000
vt 0.875000 0.687500
vt 0.887500 0.687500
vt 0.887500 0.700000
vt 0.900000 0.700000
vt 0.900000 0.687500
vt 0.800000 0.675000
vt 0.812500 0.675000
vt 0.825000 0.675000
vt 0.837500 0.675000
vt 0.850000 0.675000
vt 0.862500 0.675000
vt 0.875000 0.675000
vt 0.887500 0.675000
vt 0.900000 0.675000
vt 0.800000 0.662500
vt 0.812500 0.662500
vt 0.825000 0.662500
vt 0.837500 0.662500
vt 0.850000 0.662500
vt 0.862500 0.662500
vt 0.875000 0.662500
vt 0.887500 0.662500
vt 0.900000 0.662500
vt 0.800000 0.650000
vt 0.812500 0.650000
vt 0.825000 0.650000
vt 0.837500 0.650000
vt 0.850000 0.650000
vt 0.862500 0.650000
vt 0.875000 0.650000
vt 0.887500 0.650000
vt 0.900000 0.650000
vt 0.800000 0.637500
vt 0.812500 0.637500
vt 0.825000 0.637500
vt 0.837500 0.637500
vt 0.850000 0.637500
vt 0.862500 0.637500
vt 0.875000 0.637500
vt 0.887500 0.637500
vt 0.900000 0.637500
vt 0.800000 0.625000
vt 0.812500 0.625000
vt 0.825000 0.625000
vt 0.837500 0.625000
vt 0.850000 0.625000
vt 0.862500 0.625000
vt 0.875000 0.625000
vt 0.887500 0.625000
vt 0.900000 0.625000
vt 0.800000 0.612500
vt 0.812500 0.612500
vt 0.825000 0.612500
vt 0.837500 0.612500
vt 0.850000 0.612500
vt 0.862500 0.612500
vt 0.875000 0.612500
vt 0.887500 0.612500
vt 0.900000 0.612500
vt 0.800000 0.600000
vt 0.812500 0.600000
vt 0.825000 0.600000
vt 0.837500 0.600000
vt 0.850000 0.600000
vt 0.862500 0.600000
vt 0.875000 0.600000
vt 0.887500 0.600000
vt 0.900000 0.600000

vn 0.00000 1.00000 0.00000
vn 0.00000 1.00000 0.00000
vn 0.00000 1.00000 0.00000
vn 0.00000 1.00000 0.00000
vn 0.00000 1.00000 0.00000
vn 0.00000 1.00000 0.00000
vn 0.00000 1.00000 0.00000
vn 0.00000 1.00000 0.00000
vn 0.00000 1.00000 0.00000
vn 0.00000 1.00000 0.00000
vn 0.00000 1.00000 0.00000
vn 0.00000 1.00000 0.00000
vn 0.00000 1.00000 0.00000
vn 0.00000 1.00000 0.00000
vn 0.00000 1.00000 0.00000
vn 0.00000 1.00000 0.00000
vn 0.00000 1.00000 0.00000
vn 0.00000 1.00000 0.00000
vn 0.01150 0.99879 -0.04779
vn 0.00000 0.99934 -0.03631
vn 0.00908 0.99992 -0.00908
vn 0.00000 1.00000 0.00000
vn 0.00000 1.00000 0.00000
vn 0.00000 1.00000 0.00000
vn 0.00000 1.00000 0.00000
vn 0.00000 1.00000 0.00000
vn 0.00000 1.00000 0.00000
vn 0.04570 0.99197 -0.11790
vn 0.05106 0.99602 -0.07311
vn 0.03629 0.99881 -0.03250
vn 0.00813 0.99993 -0.00813
vn 0.00000 1.00000 0.00000
vn 0.00000 1.00000 0.00000
vn 0.00000 1.00000 0.00000
vn 0.00000 1.00000 0.00000
vn 0.00000 1.00000 0.00000
vn 0.07985 0.99207 -0.09709
vn 0.08567 0.99247 -0.08749
vn 0.07544 0.99584 -0.05104
vn 0.03252 0.99947 0.00000
vn 0.00000 1.00000 0.00000
vn 0.00000 1.00000 0.00000
vn 0.00000 1.00000 0.00000
vn 0.00000 1.00000 0.00000
vn 0.00000 1.00000 0.00000
vn 0.08435 0.99361 -0.07497
vn 0.10997 0.99190 -0.06361
vn 0.12351 0.99211 -0.02148
vn 0.05083 0.99869 -0.00540
vn 0.00000 1.00000 0.00000
vn 0.00000 1.00000 0.00000
vn 0.00000 1.00000 0.00000
vn 0.00000 1.00000 0.00000
vn 0.00000 1.00000 0.00000
vn 0.09445 0.99515 -0.02736
vn 0.13874 0.99016 -0.01834
vn 0.14087 0.99003 -0.00258
vn 0.05411 0.99853 0.00000
vn 0.00000 1.00000 0.00000
vn 0.00000 1.00000 0.00000
vn 0.00000 1.00000 0.00000
vn 0.00000 1.00000 0.00000
vn 0.00000 1.00000 0.00000
vn 0.11987 0.99231 -0.03092
vn 0.14727 0.98909 -0.00449
vn 0.14156 0.98983 -0.01380
vn 0.05766 0.99833 -0.00348
vn 0.00000 1.00000 0.00000
vn 0.00000 1.00000 0.00000
vn 0.00000 1.00000 0.00000
vn 0.00000 1.00000 0.00000
vn 0.00000 1.00000 0.00000
vn 0.14690 0.98902 -0.01622
vn 0.15542 0.98779 0.01119
vn 0.13881 0.99026 -0.01083
vn 0.06798 0.99769 0.00000
vn 0.00000 1.00000 0.00000
vn 0.00000 1.00000 0.00000
vn 0.00000 1.00000 0.00000
vn 0.00000 1.00000 0.00000
vn 0.00000 1.00000 0.00000

f 1/1/1 2/2/2 3/3/3
f 1/1/1 3/3/3 4/4/4
f 4/4/4 3/3/3 5/5/5
f 5/5/5 3/3/3 6/6/6
f 5/5/5 6/6/6 7/7/7
f 5/5/5 7/7/7 8/8/8
f 8/8/8 7/7/7 9/9/9
f 9/9/9 7/7/7 10/10/10
f 9/9/9 10/10/10 11/11/11
f 9/9/9 11/11/11 12/12/12
f 12/12/12 11/11/11 13/13/13
f 13/13/13 11/11/11 14/14/14
f 13/13/13 14/14/14 15/15/15
f 13/13/13 15/15/15 16/16/16
f 16/16/16 15/15/15 17/17/17
f 17/17/17 15/15/15 18/18/18
f 2/2/2 19/19/19 3/3/3
f 3/3/3 19/19/19 20/20/20
f 3/3/3 20/20/20 21/21/21
f 3/3/3 21/21/21 6/6/6
f 6/6/6 21/21/21 7/7/7
f 7/7/7 21/21/21 22/22/22
f 7/7/7 22/22/22 23/23/23
f 7/7/7 23/23/23 10/10/10
f 10/10/10 23/23/23 11/11/11
f 11/11/11 23/23/23 24/24/24
f 11/11/11 24/24/24 25/25/25
f 11/11/11 25/25/25 14/14/14
f 14/14/14 25/25/25 15/15/15
f 15/15/15 25/25/25 26/26/26
f 15/15/15 26/26/26 27/27/27
f 15/15/15 27/27/27 18/18/18
f 19/19/19 28/28/28 29/29/29
f 19/19/19 29/29/29 20/20/20
f 20/20/20 29/29/29 21/21/21
f 21/21/21 29/29/29 30/30/30
f 21/21/21 30/30/30 31/31/31
f 21/21/21 31/31/31 22/22/22
f 22/22/22 31/31/31 23/23/23
f 23/23/23 31/31/31 32/32/32
f 23/23/23 32/32/32 33/33/33
f 23/23/23 33/33/33 24/24/24
f 24/24/24 33/33/33 25/25/25
f 25/25/25 33/33/33 34/34/34
f 25/25/25 34/34/34 35/35/35
f 25/25/25 35/35/35 26/26/26
f 26/26/26 35/35/35 27/27/27
f 27/27/27 35/35/35 36/36/36
f 28/28/28 37/37/37 29/29/29
f 29/29/29 37/37/37 38/38/38
f 29/29/29 38/38/38 39/39/39
f 29/29/29 39/39/39 30/30/30
f 30/30/30 39/39/39 31/31/31
f 31/31/31 39/39/39 40/40/40
f 31/31/31 40/40/40 41/41/41
f 31/31/31 41/41/41 32/32/32
f 32/32/32 41/41/41 33/33/33
f 33/33/33 41/41/41 42/42/42
f 33/33/33 42/42/42 43/43/43
f 33/33/33 43/43/43 34/34/34
f 34/34/34 43/43/43 35/35/35
f 35/35/35 43/43/43 44/44/44
f 35/35/35 44/44/44 45/45/45
f 35/35/35 45/45/45 36/36/36
f 37/37/37 46/46/46 47/47/47
f 37/37/37 47/47/47 38/38/38
f 38/38/38 47/47/47 39/39/39
f 39/39/39 47/47/47 48/48/48
f 39/39/39 48/48/48 49/49/49
f 39/39/39 49/49/49 40/40/40
f 40/40/40 49/49/49 41/41/41
f 41/41/41 49/49/49 50/50/50
f 41/41/41 50/50/50 51/51/51
f 41/41/41 51/51/51 42/42/42
f 42/42/42 51/51/51 43/43/43
f 43/43/43 51/51/51 52/52/52
f 43/43/43 52/52/52 53/53/53
f 43/43/43 53/53/53 44/44/44
f 44/44/44 53/53/53 45/45/45
f 45/45/45 53/53/53 54/54/54
f 46/46/46 55/55/55 47/47/47
f 47/47/47 55/55/55 56/56/56
f 47/47/47 56/56/56 57/57/57
f 47/47/47 57/57/57 48/48/48
f 48/48/48 57/57/57 49/49/49
f 49/49/49 57/57/57 58/58/58
f 49/49/49 58/58/58 59/59/59
f 49/49/49 59/59/59 50/50/50
f 50/50/50 59/59/59 51/51/51
f 51/51/51 59/59/59 60/60/60
f 51/51/51 60/60/60 61/61/61
f 51/51/51 61/61/61 52/52/52
f 52/52/52 61/61/61 53/53/53
f 53/53/53 61/61/61 62/62/62
f 53/53/53 62/62/62 63/63/63
f 53/53/53 63/63/63 54/54/54
f 55/55/55 64/64/64 65/65/65
f 55/55/55 65/65/65 56/56/56
f 56/56/56 65/65/65 57/57/57
f 57/57/57 65/65/65 66/66/66
f 57/57/57 66/66/66 67/67/67
f 57/57/57 67/67/67 58/58/58
f 58/58/58 67/67/67 59/59/59
f 59/59/59 67/67/67 68/68/68
f 59/59/59 68/68/68 69/69/69
f 59/59/59 69/69/69 60/60/60
f 60/60/60 69/69/69 61/61/61
f 61/61/61 69/69/69 70/70/70
f 61/61/61 70/70/70 71/71/71
f 61/61/61 71/71/71 62/62/62
f 62/62/62 71/71/71 63/63/63
f 63/63/63 71/71/71 72/72/72
f 64/64/64 73/73/73 65/65/65
f 65/65/65 73/73/73 74/74/74
f 65/65/65 74/74/74 75/75/75
f 65/65/65 75/75/75 66/66/66
f 66/66/66 75/75/75 67/67/67
f 67/67/67 75/75/75 76/76/76
f 67/67/67 76/76/76 77/77/77
f 67/67/67 77/77/77 68/68/68
f 68/68/68 77/77/77 69/69/69
f 69/69/69 77/77/77 78/78/78
f 69/69/69 78/78/78 79/79/79
f 69/69/69 79/79/79 70/70/70
f 70/70/70 79/79/79 71/71/71
f 71/71/71 79/79/79 80/80/80
f 71/71/71 80/80/80 81/81/81
f 71/71/71 81/81/81 72/72/72
