# Generated by tools/generate_island.py. Do not edit by hand.
o terrain_lod2_0_-5

v 0.000 -4.579 -640.000 0.477 0.446 0.260
v 0.000 -3.879 -624.000 0.475 0.444 0.259
v 16.000 -3.747 -624.000 0.500 0.470 0.276
v 16.000 -4.115 -640.000 0.450 0.417 0.242
v 32.000 -4.366 -640.000 0.526 0.497 0.293
v 32.000 -3.848 -624.000 0.516 0.486 0.286
v 48.000 -3.364 -624.000 0.533 0.503 0.297
v 48.000 -4.362 -640.000 0.547 0.517 0.306
v 64.000 -3.822 -640.000 0.531 0.501 0.296
v 64.000 -3.210 -624.000 0.532 0.503 0.297
v 80.000 -4.017 -624.000 0.519 0.489 0.288
v 80.000 -4.192 -640.000 0.461 0.429 0.250
v 96.000 -4.736 -640.000 0.427 0.394 0.227
v 96.000 -3.789 -624.000 0.539 0.509 0.301
v 112.000 -3.601 -624.000 0.536 0.506 0.299
v 112.000 -4.710 -640.000 0.453 0.421 0.244
v 128.000 -5.139 -640.000 0.484 0.453 0.265
v 128.000 -4.300 -624.000 0.534 0.505 0.298
v 0.000 -2.930 -608.000 0.505 0.475 0.279
v 16.000 -2.945 -608.000 0.524 0.494 0.291
v 32.000 -3.140 -608.000 0.537 0.507 0.300
v 48.000 -2.885 -608.000 0.509 0.478 0.281
v 64.000 -3.217 -608.000 0.519 0.489 0.288
v 80.000 -3.051 -608.000 0.576 0.548 0.326
v 96.000 -2.574 -608.000 0.585 0.557 0.331
v 112.000 -3.301 -608.000 0.571 0.543 0.322
v 128.000 -4.040 -608.000 0.557 0.529 0.313
v 0.000 -2.708 -592.000 0.501 0.471 0.276
v 16.000 -2.969 -592.000 0.501 0.471 0.276
v 32.000 -2.308 -592.000 0.529 0.499 0.294
v 48.000 -2.051 -592.000 0.523 0.494 0.291
v 64.000 -2.747 -592.000 0.520 0.490 0.288
v 80.000 -2.641 -592.000 0.561 0.532 0.315
v 96.000 -2.574 -592.000 0.542 0.512 0.303
v 112.000 -3.068 -592.000 0.502 0.472 0.277
v 128.000 -3.111 -592.000 0.471 0.439 0.256
v 0.000 -2.460 -576.000 0.459 0.427 0.248
v 16.000 -2.354 -576.000 0.481 0.449 0.263
v 32.000 -1.848 -576.000 0.530 0.501 0.295
v 48.000 -2.162 -576.000 0.543 0.514 0.304
v 64.000 -2.087 -576.000 0.530 0.500 0.295
v 80.000 -1.881 -576.000 0.470 0.439 0.256
v 96.000 -2.566 -576.000 0.493 0.463 0.271
v 112.000 -2.930 -576.000 0.447 0.415 0.241
v 128.000 -2.813 -576.000 0.448 0.416 0.241
v 0.000 -2.206 -560.000 0.454 0.422 0.245
v 16.000 -1.813 -560.000 0.484 0.453 0.265
v 32.000 -1.570 -560.000 0.509 0.479 0.281
v 48.000 -1.832 -560.000 0.513 0.483 0.284
v 64.000 -1.495 -560.000 0.442 0.410 0.237
v 80.000 -1.988 -560.000 0.407 0.374 0.214
v 96.000 -2.537 -560.000 0.432 0.399 0.230
v 112.000 -2.284 -560.000 0.387 0.353 0.201
v 128.000 -2.659 -560.000 0.412 0.379 0.218
v 0.000 -1.617 -544.000 0.458 0.426 0.248
v 16.000 -0.896 -544.000 0.538 0.508 0.300
v 32.000 -1.049 -544.000 0.540 0.510 0.302
v 48.000 -1.194 -544.000 0.527 0.497 0.293
v 64.000 -1.108 -544.000 0.462 0.431 0.251
v 80.000 -1.697 -544.000 0.420 0.387 0.222
v 96.000 -1.779 -544.000 0.409 0.376 0.215
v 112.000 -1.693 -544.000 0.387 0.352 0.201
v 128.000 -2.555 -544.000 0.434 0.402 0.232
v 0.000 -0.954 -528.000 0.500 0.469 0.275
v 16.000 -0.980 -528.000 0.546 0.517 0.306
v 32.000 -0.943 -528.000 0.525 0.495 0.292
v 48.000 -0.482 -528.000 0.528 0.498 0.294
v 64.000 -0.550 -528.000 0.511 0.481 0.283
v 80.000 -1.381 -528.000 0.433 0.400 0.231
v 96.000 -1.522 -528.000 0.430 0.397 0.229
v 112.000 -1.547 -528.000 0.413 0.380 0.218
v 128.000 -1.829 -528.000 0.446 0.413 0.240
v 0.000 -0.335 -512.000 0.491 0.460 0.270
v 16.000 -0.544 -512.000 0.530 0.500 0.295
v 32.000 -0.365 -512.000 0.504 0.474 0.278
v 48.000 -0.711 -512.000 0.495 0.464 0.272
v 64.000 -0.760 -512.000 0.523 0.493 0.290
v 80.000 -0.491 -512.000 0.454 0.422 0.245
v 96.000 -0.703 -512.000 0.425 0.392 0.226
v 112.000 -1.558 -512.000 0.462 0.431 0.251
v 128.000 -1.618 -512.000 0.481 0.450 0.263

vt 0.500000 0.833333
vt 0.500000 0.825000
vt 0.508333 0.825000
vt 0.508333 0.833333
vt 0.516667 0.833333
vt 0.516667 0.825000
vt 0.525000 0.825000
vt 0.525000 0.833333
vt 0.533333 0.833333
vt 0.533333 0.825000
vt 0.541667 0.825000
vt 0.541667 0.833333
vt 0.550000 0.833333
vt 0.550000 0.825000
vt 0.558333 0.825000
vt 0.558333 0.833333
vt 0.566667 0.833333
vt 0.566667 0.825000
vt 0.500000 0.816667
vt 0.508333 0.816667
vt 0.516667 0.816667
vt 0.525000 0.816667
vt 0.533333 0.816667
vt 0.541667 0.816667
vt 0.550000 0.816667
vt 0.558333 0.816667
vt 0.566667 0.816667
vt 0.500000 0.808333
vt 0.508333 0.808333
vt 0.516667 0.808333
vt 0.525000 0.808333
vt 0.533333 0.808333
vt 0.541667 0.808333
vt 0.550000 0.808333
vt 0.558333 0.808333
vt 0.566667 0.808333
vt 0.500000 0.800000
vt 0.508333 0.800000
vt 0.516667 0.800000
vt 0.525000 0.800000
vt 0.533333 0.800000
vt 0.541667 0.800000
vt 0.550000 0.800000
vt 0.558333 0.800000
vt 0.566667 0.800000
vt 0.500000 0.791667
vt 0.508333 0.791667
vt 0.516667 0.791667
vt 0.525000 0.791667
vt 0.533333 0.791667
vt 0.541667 0.791667
vt 0.550000 0.791667
vt 0.558333 0.791667
vt 0.566667 0.791667
vt 0.500000 0.783333
vt 0.508333 0.783333
vt 0.516667 0.783333
vt 0.525000 0.783333
vt 0.533333 0.783333
vt 0.541667 0.783333
vt 0.550000 0.783333
vt 0.558333 0.783333
vt 0.566667 0.783333
vt 0.500000 0.775000
vt 0.508333 0.775000
vt 0.516667 0.775000
vt 0.525000 0.775000
vt 0.533333 0.775000
vt 0.541667 0.775000
vt 0.550000 0.775000
vt 0.558333 0.775000
vt 0.566667 0.775000
vt 0.500000 0.766667
vt 0.508333 0.766667
vt 0.516667 0.766667
vt 0.525000 0.766667
vt 0.533333 0.766667
vt 0.541667 0.766667
vt 0.550000 0.766667
vt 0.558333 0.766667
vt 0.566667 0.766667

vn -0.01862 0.99927 -0.03335
vn -0.00825 0.99864 -0.05147
vn -0.00050 0.99917 -0.04071
vn -0.00666 0.99971 -0.02299
vn -0.00211 0.99929 -0.03749
vn -0.01194 0.99920 -0.03827
vn -0.01361 0.99921 -0.03735
vn -0.01695 0.99792 -0.06222
vn 0.00754 0.99927 -0.03744
vn 0.02039 0.99961 -0.01890
vn 0.01115 0.99916 -0.03941
vn 0.02854 0.99953 -0.01093
vn 0.00159 0.99877 -0.04961
vn -0.01297 0.99764 -0.06740
vn 0.02256 0.99862 -0.04743
vn 0.01257 0.99753 -0.06916
vn 0.03516 0.99753 -0.06075
vn 0.04361 0.99846 -0.03430
vn 0.00248 0.99953 -0.03043
vn 0.00658 0.99968 -0.02429
vn -0.01109 0.99912 -0.04037
vn 0.00241 0.99916 -0.04103
vn 0.01230 0.99953 -0.02823
vn -0.02008 0.99888 -0.04296
vn 0.00399 0.99942 -0.03388
vn 0.04575 0.99881 -0.01665
vn 0.03465 0.99904 -0.02688
vn 0.01633 0.99976 -0.01469
vn -0.00938 0.99969 -0.02299
vn -0.02867 0.99878 -0.04032
vn 0.00932 0.99950 -0.03021
vn 0.01844 0.99921 -0.03531
vn -0.00399 0.99962 -0.02717
vn 0.01333 0.99991 -0.00025
vn 0.02178 0.99964 -0.01544
vn 0.00273 0.99926 -0.03830
vn -0.00536 0.99965 -0.02589
vn -0.01908 0.99917 -0.03610
vn -0.01003 0.99970 -0.02227
vn 0.00745 0.99995 -0.00683
vn 0.00144 0.99965 -0.02636
vn 0.01497 0.99968 -0.02041
vn 0.02204 0.99969 -0.01179
vn 0.00773 0.99967 -0.02447
vn 0.00287 0.99981 -0.01931
vn -0.02456 0.99935 -0.02631
vn -0.01915 0.99918 -0.03557
vn 0.00059 0.99969 -0.02498
vn 0.00116 0.99958 -0.02900
vn 0.00486 0.99952 -0.03056
vn 0.02525 0.99954 -0.01665
vn 0.00927 0.99965 -0.02460
vn 0.00989 0.99957 -0.02749
vn 0.02339 0.99969 -0.00806
vn -0.02823 0.99907 -0.03255
vn -0.01774 0.99950 -0.02603
vn 0.00091 0.99964 -0.02683
vn 0.00186 0.99911 -0.04214
vn 0.01609 0.99942 -0.03004
vn 0.02094 0.99960 -0.01894
vn 0.00354 0.99965 -0.02635
vn 0.02426 0.99944 -0.02304
vn 0.03717 0.99901 -0.02446
vn 0.00161 0.99920 -0.04002
vn -0.00438 0.99977 -0.02086
vn -0.01555 0.99965 -0.02138
vn -0.00259 0.99987 -0.01562
vn 0.02809 0.99955 -0.01088
vn 0.01996 0.99935 -0.02995
vn 0.00516 0.99942 -0.03359
vn 0.01801 0.99968 -0.01784
vn 0.01765 0.99942 -0.02929
vn 0.00733 0.99943 -0.03293
vn 0.00091 0.99963 -0.02722
vn -0.00517 0.99976 -0.02131
vn 0.01236 0.99982 0.01429
vn 0.01061 0.99994 -0.00377
vn -0.00178 0.99845 -0.05556
vn 0.01924 0.99904 -0.03929
vn 0.02857 0.99959 0.00070
vn 0.01069 0.99992 -0.00626

f 1/1/1 2/2/2 3/3/3
f 1/1/1 3/3/3 4/4/4
f 4/4/4 3/3/3 5/5/5
f 5/5/5 3/3/3 6/6/6
f 5/5/5 6/6/6 7/7/7
f 5/5/5 7/7/7 8/8/8
f 8/8/8 7/7/7 9/9/9
f 9/9/9 7/7/7 10/10/10
f 9/9/9 10/10/10 11/11/11
f 9/9/9 11/11/11 12/12/12
f 12/12/12 11/11/11 13/13/13
f 13/13/13 11/11/11 14/14/14
f 13/13/13 14/14/14 15/15/15
f 13/13/13 15/15/15 16/16/16
f 16/16/16 15/15/15 17/17/17
f 17/17/17 15/15/15 18/18/18
f 2/2/2 19/19/19 3/3/3
f 3/3/3 19/19/19 20/20/20
f 3/3/3 20/20/20 21/21/21
f 3/3/3 21/21/21 6/6/6
f 6/6/6 21/21/21 7/7/7
f 7/7/7 21/21/21 22/22/22
f 7/7/7 22/22/22 23/23/23
f 7/7/7 23/23/23 10/10/10
f 10/10/10 23/23/23 11/11/11
f 11/11/11 23/23/23 24/24/24
f 11/11/11 24/24/24 25/25/25
f 11/11/11 25/25/25 14/14/14
f 14/14/14 25/25/25 15/15/15
f 15/15/15 25/25/25 26/26/26
f 15/15/15 26/26/26 27/27/27
f 15/15/15 27/27/27 18/18/18
f 19/19/19 28/28/28 29/29/29
f 19/19/19 29/29/29 20/20/20
f 20/20/20 29/29/29 21/21/21
f 21/21/21 29/29/29 30/30/30
f 21/21/21 30/30/30 31/31/31
f 21/21/21 31/31/31 22/22/22
f 22/22/22 31/31/31 23/23/23
f 23/23/23 31/31/31 32/32/32
f 23/23/23 32/32/32 33/33/33
f 23/23/23 33/33/33 24/24/24
f 24/24/24 33/33/33 25/25/25
f 25/25/25 33/33/33 34/34/34
f 25/25/25 34/34/34 35/35/35
f 25/25/25 35/35/35 26/26/26
f 26/26/26 35/35/35 27/27/27
f 27/27/27 35/35/35 36/36/36
f 28/28/28 37/37/37 29/29/29
f 29/29/29 37/37/37 38/38/38
f 29/29/29 38/38/38 39/39/39
f 29/29/29 39/39/39 30/30/30
f 30/30/30 39/39/39 31/31/31
f 31/31/31 39/39/39 40/40/40
f 31/31/31 40/40/40 41/41/41
f 31/31/31 41/41/41 32/32/32
f 32/32/32 41/41/41 33/33/33
f 33/33/33 41/41/41 42/42/42
f 33/33/33 42/42/42 43/43/43
f 33/33/33 43/43/43 34/34/34
f 34/34/34 43/43/43 35/35/35
f 35/35/35 43/43/43 44/44/44
f 35/35/35 44/44/44 45/45/45
f 35/35/35 45/45/45 36/36/36
f 37/37/37 46/46/46 47/47/47
f 37/37/37 47/47/47 38/38/38
f 38/38/38 47/47/47 39/39/39
f 39/39/39 47/47/47 48/48/48
f 39/39/39 48/48/48 49/49/49
f 39/39/39 49/49/49 40/40/40
f 40/40/40 49/49/49 41/41/41
f 41/41/41 49/49/49 50/50/50
f 41/41/41 50/50/50 51/51/51
f 41/41/41 51/51/51 42/42/42
f 42/42/42 51/51/51 43/43/43
f 43/43/43 51/51/51 52/52/52
f 43/43/43 52/52/52 53/53/53
f 43/43/43 53/53/53 44/44/44
f 44/44/44 53/53/53 45/45/45
f 45/45/45 53/53/53 54/54/54
f 46/46/46 55/55/55 47/47/47
f 47/47/47 55/55/55 56/56/56
f 47/47/47 56/56/56 57/57/57
f 47/47/47 57/57/57 48/48/48
f 48/48/48 57/57/57 49/49/49
f 49/49/49 57/57/57 58/58/58
f 49/49/49 58/58/58 59/59/59
f 49/49/49 59/59/59 50/50/50
f 50/50/50 59/59/59 51/51/51
f 51/51/51 59/59/59 60/60/60
f 51/51/51 60/60/60 61/61/61
f 51/51/51 61/61/61 52/52/52
f 52/52/52 61/61/61 53/53/53
f 53/53/53 61/61/61 62/62/62
f 53/53/53 62/62/62 63/63/63
f 53/53/53 63/63/63 54/54/54
f 55/55/55 64/64/64 65/65/65
f 55/55/55 65/65/65 56/56/56
f 56/56/56 65/65/65 57/57/57
f 57/57/57 65/65/65 66/66/66
f 57/57/57 66/66/66 67/67/67
f 57/57/57 67/67/67 58/58/58
f 58/58/58 67/67/67 59/59/59
f 59/59/59 67/67/67 68/68/68
f 59/59/59 68/68/68 69/69/69
f 59/59/59 69/69/69 60/60/60
f 60/60/60 69/69/69 61/61/61
f 61/61/61 69/69/69 70/70/70
f 61/61/61 70/70/70 71/71/71
f 61/61/61 71/71/71 62/62/62
f 62/62/62 71/71/71 63/63/63
f 63/63/63 71/71/71 72/72/72
f 64/64/64 73/73/73 65/65/65
f 65/65/65 73/73/73 74/74/74
f 65/65/65 74/74/74 75/75/75
f 65/65/65 75/75/75 66/66/66
f 66/66/66 75/75/75 67/67/67
f 67/67/67 75/75/75 76/76/76
f 67/67/67 76/76/76 77/77/77
f 67/67/67 77/77/77 68/68/68
f 68/68/68 77/77/77 69/69/69
f 69/69/69 77/77/77 78/78/78
f 69/69/69 78/78/78 79/79/79
f 69/69/69 79/79/79 70/70/70
f 70/70/70 79/79/79 71/71/71
f 71/71/71 79/79/79 80/80/80
f 71/71/71 80/80/80 81/81/81
f 71/71/71 81/81/81 72/72/72
