# Generated by tools/generate_island.py. Do not edit by hand.
o terrain_lod2_1_-1

v 128.000 1.711 -128.000 0.129 0.215 0.074
v 128.000 2.031 -112.000 0.095 0.175 0.059
v 144.000 0.904 -112.000 0.133 0.207 0.072
v 144.000 1.566 -128.000 0.104 0.179 0.061
v 160.000 -0.719 -128.000 0.304 0.281 0.162
v 160.000 0.593 -112.000 0.306 0.282 0.163
v 176.000 -1.589 -112.000 0.322 0.299 0.173
v 176.000 -2.002 -128.000 0.316 0.293 0.169
v 192.000 0.582 -128.000 0.349 0.326 0.191
v 192.000 0.014 -112.000 0.364 0.342 0.201
v 208.000 1.355 -112.000 0.180 0.251 0.090
v 208.000 0.739 -128.000 0.419 0.396 0.234
v 224.000 1.781 -128.000 0.186 0.271 0.096
v 224.000 2.126 -112.000 0.222 0.306 0.110
v 240.000 1.702 -112.000 0.221 0.315 0.112
v 240.000 1.577 -128.000 0.178 0.277 0.097
v 256.000 1.436 -128.000 0.187 0.274 0.099
v 256.000 2.177 -112.000 0.226 0.305 0.112
v 128.000 2.211 -96.000 0.092 0.169 0.057
v 144.000 1.431 -96.000 0.122 0.199 0.069
v 160.000 1.567 -96.000 0.103 0.204 0.106
v 176.000 -1.345 -96.000 0.324 0.300 0.174
v 192.000 0.421 -96.000 0.356 0.334 0.195
v 208.000 1.553 -96.000 0.191 0.257 0.093
v 224.000 1.491 -96.000 0.206 0.286 0.103
v 240.000 0.712 -96.000 0.500 0.470 0.276
v 256.000 0.856 -96.000 0.470 0.439 0.256
v 128.000 0.540 -80.000 0.304 0.281 0.162
v 144.000 2.235 -80.000 0.139 0.210 0.074
v 160.000 2.003 -80.000 0.119 0.193 0.067
v 176.000 -0.732 -80.000 0.320 0.296 0.172
v 192.000 0.091 -80.000 0.346 0.323 0.189
v 208.000 1.168 -80.000 0.144 0.215 0.076
v 224.000 0.182 -80.000 0.369 0.342 0.199
v 240.000 -0.226 -80.000 0.405 0.374 0.215
v 256.000 -0.112 -80.000 0.393 0.360 0.205
v 128.000 -1.048 -64.000 0.298 0.275 0.158
v 144.000 0.735 -64.000 0.301 0.278 0.160
v 160.000 2.071 -64.000 0.116 0.189 0.066
v 176.000 0.334 -64.000 0.318 0.295 0.171
v 192.000 -0.788 -64.000 0.351 0.329 0.193
v 208.000 1.413 -64.000 0.144 0.214 0.076
v 224.000 1.254 -64.000 0.136 0.215 0.075
v 240.000 0.867 -64.000 0.402 0.372 0.215
v 256.000 -0.055 -64.000 0.388 0.354 0.202
v 128.000 -2.198 -48.000 0.322 0.299 0.173
v 144.000 -1.078 -48.000 0.271 0.246 0.139
v 160.000 0.659 -48.000 0.307 0.283 0.163
v 176.000 1.982 -48.000 0.135 0.206 0.072
v 192.000 -1.120 -48.000 0.331 0.308 0.179
v 208.000 0.644 -48.000 0.360 0.338 0.198
v 224.000 1.496 -48.000 0.136 0.211 0.074
v 240.000 2.011 -48.000 0.145 0.229 0.080
v 256.000 1.564 -48.000 0.140 0.230 0.080
v 128.000 6.150 -32.000 0.114 0.188 0.065
v 144.000 -0.929 -32.000 0.333 0.311 0.181
v 160.000 -3.017 -32.000 0.329 0.306 0.178
v 176.000 -1.674 -32.000 0.341 0.318 0.186
v 192.000 -0.932 -32.000 0.354 0.332 0.195
v 208.000 0.601 -32.000 0.323 0.300 0.174
v 224.000 0.396 -32.000 0.329 0.306 0.178
v 240.000 0.896 -32.000 0.120 0.251 0.060
v 256.000 1.377 -32.000 0.114 0.249 0.060
v 128.000 8.925 -16.000 0.215 0.250 0.180
v 144.000 4.616 -16.000 0.153 0.222 0.079
v 160.000 1.987 -16.000 0.167 0.234 0.084
v 176.000 -1.453 -16.000 0.381 0.360 0.212
v 192.000 -1.738 -16.000 0.351 0.328 0.192
v 208.000 -2.056 -16.000 0.315 0.292 0.169
v 224.000 -1.640 -16.000 0.330 0.307 0.179
v 240.000 -0.884 -16.000 0.326 0.303 0.176
v 256.000 0.809 -16.000 0.329 0.306 0.178
v 128.000 10.260 0.000 0.303 0.334 0.243
v 144.000 6.634 0.000 0.176 0.252 0.090
v 160.000 4.084 0.000 0.185 0.251 0.091
v 176.000 2.572 0.000 0.183 0.248 0.090
v 192.000 2.624 0.000 0.141 0.212 0.075
v 208.000 -0.896 0.000 0.339 0.317 0.185
v 224.000 -1.101 0.000 0.363 0.342 0.201
v 240.000 -1.494 0.000 0.366 0.344 0.202
v 256.000 -0.926 0.000 0.373 0.351 0.207

vt 0.566667 0.566667
vt 0.566667 0.558333
vt 0.575000 0.558333
vt 0.575000 0.566667
vt 0.583333 0.566667
vt 0.583333 0.558333
vt 0.591667 0.558333
vt 0.591667 0.566667
vt 0.600000 0.566667
vt 0.600000 0.558333
vt 0.608333 0.558333
vt 0.608333 0.566667
vt 0.616667 0.566667
vt 0.616667 0.558333
vt 0.625000 0.558333
vt 0.625000 0.566667
vt 0.633333 0.566667
vt 0.633333 0.558333
vt 0.566667 0.550000
vt 0.575000 0.550000
vt 0.583333 0.550000
vt 0.591667 0.550000
vt 0.600000 0.550000
vt 0.608333 0.550000
vt 0.616667 0.550000
vt 0.625000 0.550000
vt 0.633333 0.550000
vt 0.566667 0.541667
vt 0.575000 0.541667
vt 0.583333 0.541667
vt 0.591667 0.541667
vt 0.600000 0.541667
vt 0.608333 0.541667
vt 0.616667 0.541667
vt 0.625000 0.541667
vt 0.633333 0.541667
vt 0.566667 0.533333
vt 0.575000 0.533333
vt 0.583333 0.533333
vt 0.591667 0.533333
vt 0.600000 0.533333
vt 0.608333 0.533333
vt 0.616667 0.533333
vt 0.625000 0.533333
vt 0.633333 0.533333
vt 0.566667 0.525000
vt 0.575000 0.525000
vt 0.583333 0.525000
vt 0.591667 0.525000
vt 0.600000 0.525000
vt 0.608333 0.525000
vt 0.616667 0.525000
vt 0.625000 0.525000
vt 0.633333 0.525000
vt 0.566667 0.516667
vt 0.575000 0.516667
vt 0.583333 0.516667
vt 0.591667 0.516667
vt 0.600000 0.516667
vt 0.608333 0.516667
vt 0.616667 0.516667
vt 0.625000 0.516667
vt 0.633333 0.516667
vt 0.566667 0.508333
vt 0.575000 0.508333
vt 0.583333 0.508333
vt 0.591667 0.508333
vt 0.600000 0.508333
vt 0.608333 0.508333
vt 0.616667 0.508333
vt 0.625000 0.508333
vt 0.633333 0.508333
vt 0.566667 0.500000
vt 0.575000 0.500000
vt 0.583333 0.500000
vt 0.591667 0.500000
vt 0.600000 0.500000
vt 0.608333 0.500000
vt 0.616667 0.500000
vt 0.625000 0.500000
vt 0.633333 0.500000

vn 0.03973 0.99915 0.01067
vn 0.07027 0.99741 -0.01557
vn 0.04644 0.99873 -0.01962
vn 0.07565 0.99628 0.04121
vn 0.09422 0.99487 -0.03690
vn 0.07747 0.99446 -0.07102
vn 0.00782 0.99961 -0.02686
vn -0.04061 0.99884 -0.02580
vn -0.08848 0.99608 0.00167
vn -0.09159 0.99578 0.00501
vn -0.05065 0.99867 -0.00917
vn -0.03741 0.99856 -0.03840
vn -0.01852 0.99958 -0.02232
vn -0.01086 0.99990 0.00908
vn 0.00685 0.99977 0.02032
vn 0.01079 0.99991 -0.00780
vn -0.01041 0.99958 -0.02706
vn -0.02968 0.99940 0.01810
vn 0.01550 0.99988 0.00251
vn 0.02012 0.99893 -0.04155
vn 0.08564 0.99556 -0.03895
vn 0.03575 0.99900 -0.02675
vn -0.08282 0.99654 -0.00641
vn -0.03340 0.99943 0.00583
vn 0.02128 0.99868 0.04683
vn 0.01978 0.99799 0.06015
vn -0.01369 0.99774 0.06576
vn -0.10482 0.98937 0.10076
vn -0.04213 0.99859 0.03235
vn 0.09231 0.99561 -0.01569
vn 0.06103 0.99792 -0.02068
vn -0.05923 0.99753 0.03770
vn -0.02572 0.99958 0.01346
vn 0.04353 0.99902 0.00738
vn 0.01978 0.99978 0.00654
vn -0.00715 0.99957 0.02847
vn -0.09877 0.99069 0.09367
vn -0.09649 0.99004 0.10251
vn 0.00553 0.99966 0.02567
vn 0.08866 0.99250 -0.08417
vn -0.02125 0.99977 0.00182
vn -0.06368 0.99784 0.01634
vn 0.00875 0.99939 -0.03389
vn 0.04078 0.99674 -0.06967
vn 0.03392 0.99756 -0.06099
vn -0.06811 0.97336 -0.21894
vn 0.00261 0.99995 0.00951
vn -0.09402 0.98322 0.15633
vn 0.03374 0.99683 0.07203
vn 0.04177 0.99912 0.00450
vn -0.06705 0.99754 0.02047
vn -0.04265 0.99873 0.02679
vn 0.00150 0.99999 -0.00493
vn 0.02785 0.99861 -0.04468
vn 0.25358 0.93556 -0.24583
vn 0.27145 0.94757 -0.16861
vn 0.03510 0.99865 -0.03835
vn -0.06466 0.99221 0.10650
vn -0.02035 0.99814 0.05748
vn -0.04131 0.99561 0.08401
vn -0.02432 0.99544 0.09229
vn -0.03051 0.99547 0.09006
vn -0.03443 0.99779 0.05691
vn 0.25807 0.95826 -0.12308
vn 0.21820 0.95588 -0.19668
vn 0.18205 0.95994 -0.21301
vn 0.05267 0.98762 -0.14775
vn 0.01873 0.99371 -0.11042
vn 0.01718 0.99983 0.00731
vn -0.03655 0.99824 0.04669
vn -0.04713 0.99665 0.06680
vn -0.10499 0.99191 0.07138
vn 0.23945 0.96562 -0.10117
vn 0.18807 0.97444 -0.12289
vn 0.15443 0.97561 -0.15602
vn 0.04419 0.96884 -0.24371
vn 0.06205 0.97531 -0.21197
vn 0.11532 0.99073 -0.07181
vn -0.00897 0.99964 -0.02543
vn -0.00546 0.99926 0.03805
vn -0.07030 0.99486 0.07288

f 1/1/1 2/2/2 3/3/3
f 1/1/1 3/3/3 4/4/4
f 4/4/4 3/3/3 5/5/5
f 5/5/5 3/3/3 6/6/6
f 5/5/5 6/6/6 7/7/7
f 5/5/5 7/7/7 8/8/8
f 8/8/8 7/7/7 9/9/9
f 9/9/9 7/7/7 10/10/10
f 9/9/9 10/10/10 11/11/11
f 9/9/9 11/11/11 12/12/12
f 12/12/12 11/11/11 13/13/13
f 13/13/13 11/11/11 14/14/14
f 13/13/13 14/14/14 15/15/15
f 13/13/13 15/15/15 16/16/16
f 16/16/16 15/15/15 17/17/17
f 17/17/17 15/15/15 18/18/18
f 2/2/2 19/19/19 3/3/3
f 3/3/3 19/19/19 20/20/20
f 3/3/3 20/20/20 21/21/21
f 3/3/3 21/21/21 6/6/6
f 6/6/6 21/21/21 7/7/7
f 7/7/7 21/21/21 22/22/22
f 7/7/7 22/22/22 23/23/23
f 7/7/7 23/23/23 10/10/10
f 10/10/10 23/23/23 11/11/11
f 11/11/11 23/23/23 24/24/24
f 11/11/11 24/24/24 25/25/25
f 11/11/11 25/25/25 14/14/14
f 14/14/14 25/25/25 15/15/15
f 15/15/15 25/25/25 26/26/26
f 15/15/15 26/26/26 27/27/27
f 15/15/15 27/27/27 18/18/18
f 19/19/19 28/28/28 29/29/29
f 19/19/19 29/29/29 20/20/20
f 20/20/20 29/29/29 21/21/21
f 21/21/21 29/29/29 30/30/30
f 21/21/21 30/30/30 31/31/31
f 21/21/21 31/31/31 22/22/22
f 22/22/22 31/31/31 23/23/23
f 23/23/23 31/31/31 32/32/32
f 23/23/23 32/32/32 33/33/33
f 23/23/23 33/33/33 24/24/24
f 24/24/24 33/33/33 25/25/25
f 25/25/25 33/33/33 34/34/34
f 25/25/25 34/34/34 35/35/35
f 25/25/25 35/35/35 26/26/26
f 26/26/26 35/35/35 27/27/27
f 27/27/27 35/35/35 36/36/36
f 28/28/28 37/37/37 29/29/29
f 29/29/29 37/37/37 38/38/38
f 29/29/29 38/38/38 39/39/39
f 29/29/29 39/39/39 30/30/30
f 30/30/30 39/39/39 31/31/31
f 31/31/31 39/39/39 40/40/40
f 31/31/31 40/40/40 41/41/41
f 31/31/31 41/41/41 32/32/32
f 32/32/32 41/41/41 33/33/33
f 33/33/33 41/41/41 42/42/42
f 33/33/33 42/42/42 43/43/43
f 33/33/33 43/43/43 34/34/34
f 34/34/34 43/43/43 35/35/35
f 35/35/35 43/43/43 44/44/44
f 35/35/35 44/44/44 45/45/45
f 35/35/35 45/45/45 36/36/36
f 37/37/37 46/46/46 47/47/47
f 37/37/37 47/47/47 38/38/38
f 38/38/38 47/47/47 39/39/39
f 39/39/39 47/47/47 48/48/48
f 39/39/39 48/48/48 49/49/49
f 39/39/39 49/49/49 40/40/40
f 40/40/40 49/49/49 41/41/41
f 41/41/41 49/49/49 50/50/50
f 41/41/41 50/50/50 51/51/51
f 41/41/41 51/51/51 42/42/42
f 42/42/42 51/51/51 43/43/43
f 43/43/43 51/51/51 52/52/52
f 43/43/43 52/52/52 53/53/53
f 43/43/43 53/53/53 44/44/44
f 44/44/44 53/53/53 45/45/45
f 45/45/45 53/53/53 54/54/54
f 46/46/46 55/55/55 47/47/47
f 47/47/47 55/55/55 56/56/56
f 47/47/47 56/56/56 57/57/57
f 47/47/47 57/57/57 48/48/48
f 48/48/48 57/57/57 49/49/49
f 49/49/49 57/57/57 58/58/58
f 49/49/49 58/58/58 59/59/59
f 49/49/49 59/59/59 50/50/50
f 50/50/50 59/59/59 51/51/51
f 51/51/51 59/59/59 60/60/60
f 51/51/51 60/60/60 61/61/61
f 51/51/51 61/61/61 52/52/52
f 52/52/52 61/61/61 53/53/53
f 53/53/53 61/61/61 62/62/62
f 53/53/53 62/62/62 63/63/63
f 53/53/53 63/63/63 54/54/54
f 55/55/55 64/64/64 65/65/65
f 55/55/55 65/65/65 56/56/56
f 56/56/56 65/65/65 57/57/57
f 57/57/57 65/65/65 66/66/66
f 57/57/57 66/66/66 67/67/67
f 57/57/57 67/67/67 58/58/58
f 58/58/58 67/67/67 59/59/59
f 59/59/59 67/67/67 68/68/68
f 59/59/59 68/68/68 69/69/69
f 59/59/59 69/69/69 60/60/60
f 60/60/60 69/69/69 61/61/61
f 61/61/61 69/69/69 70/70/70
f 61/61/61 70/70/70 71/71/71
f 61/61/61 71/71/71 62/62/62
f 62/62/62 71/71/71 63/63/63
f 63/63/63 71/71/71 72/72/72
f 64/64/64 73/73/73 65/65/65
f 65/65/65 73/73/73 74/74/74
f 65/65/65 74/74/74 75/75/75
f 65/65/65 75/75/75 66/66/66
f 66/66/66 75/75/75 67/67/67
f 67/67/67 75/75/75 76/76/76
f 67/67/67 76/76/76 77/77/77
f 67/67/67 77/77/77 68/68/68
f 68/68/68 77/77/77 69/69/69
f 69/69/69 77/77/77 78/78/78
f 69/69/69 78/78/78 79/79/79
f 69/69/69 79/79/79 70/70/70
f 70/70/70 79/79/79 71/71/71
f 71/71/71 79/79/79 80/80/80
f 71/71/71 80/80/80 81/81/81
f 71/71/71 81/81/81 72/72/72
