# Generated by tools/generate_island.py. Do not edit by hand.
o terrain_lod2_2_2

v 256.000 2.029 256.000 0.179 0.329 0.168
v 256.000 4.083 272.000 0.186 0.339 0.172
v 272.000 1.822 272.000 0.196 0.351 0.178
v 272.000 1.949 256.000 0.167 0.314 0.161
v 288.000 0.867 256.000 0.444 0.412 0.238
v 288.000 1.236 272.000 0.479 0.448 0.262
v 304.000 0.236 272.000 0.414 0.381 0.219
v 304.000 0.408 256.000 0.403 0.370 0.212
v 320.000 -0.381 256.000 0.368 0.339 0.195
v 320.000 -0.836 272.000 0.359 0.327 0.185
v 336.000 -0.386 272.000 0.374 0.347 0.202
v 336.000 -0.876 256.000 0.378 0.354 0.207
v 352.000 0.335 256.000 0.357 0.335 0.196
v 352.000 0.385 272.000 0.340 0.317 0.185
v 368.000 -1.904 272.000 0.325 0.302 0.175
v 368.000 -3.532 256.000 0.370 0.349 0.205
v 384.000 -1.672 256.000 0.376 0.354 0.209
v 384.000 -3.530 272.000 0.333 0.311 0.181
v 256.000 1.518 288.000 0.508 0.478 0.281
v 272.000 0.977 288.000 0.519 0.489 0.288
v 288.000 1.281 288.000 0.492 0.461 0.270
v 304.000 0.105 288.000 0.427 0.395 0.228
v 320.000 -0.827 288.000 0.382 0.349 0.199
v 336.000 -0.273 288.000 0.383 0.355 0.206
v 352.000 -0.101 288.000 0.332 0.308 0.179
v 368.000 -0.880 288.000 0.351 0.329 0.192
v 384.000 -0.965 288.000 0.347 0.324 0.190
v 256.000 2.225 304.000 0.157 0.301 0.156
v 272.000 1.891 304.000 0.157 0.301 0.155
v 288.000 0.863 304.000 0.463 0.431 0.251
v 304.000 0.749 304.000 0.435 0.403 0.233
v 320.000 1.170 304.000 0.432 0.399 0.230
v 336.000 -0.076 304.000 0.418 0.388 0.226
v 352.000 -0.526 304.000 0.370 0.344 0.200
v 368.000 -0.454 304.000 0.399 0.377 0.223
v 384.000 -0.246 304.000 0.372 0.350 0.205
v 256.000 2.628 320.000 0.153 0.295 0.153
v 272.000 1.630 320.000 0.141 0.281 0.146
v 288.000 -0.199 320.000 0.475 0.444 0.259
v 304.000 2.065 320.000 0.494 0.463 0.271
v 320.000 3.881 320.000 0.465 0.434 0.253
v 336.000 -0.295 320.000 0.453 0.421 0.245
v 352.000 -0.832 320.000 0.429 0.399 0.232
v 368.000 -0.615 320.000 0.418 0.391 0.229
v 384.000 -0.775 320.000 0.445 0.419 0.246
v 256.000 0.193 336.000 0.463 0.431 0.251
v 272.000 0.445 336.000 0.470 0.438 0.255
v 288.000 -0.011 336.000 0.469 0.437 0.255
v 304.000 0.846 336.000 0.489 0.458 0.268
v 320.000 0.841 336.000 0.491 0.460 0.269
v 336.000 -0.636 336.000 0.496 0.466 0.273
v 352.000 -0.304 336.000 0.499 0.469 0.275
v 368.000 -0.413 336.000 0.503 0.473 0.278
v 384.000 -1.456 336.000 0.524 0.495 0.292
v 256.000 0.201 352.000 0.473 0.441 0.257
v 272.000 -0.261 352.000 0.492 0.461 0.270
v 288.000 -0.380 352.000 0.462 0.430 0.250
v 304.000 0.043 352.000 0.463 0.431 0.251
v 320.000 -0.583 352.000 0.454 0.422 0.245
v 336.000 -1.096 352.000 0.481 0.450 0.263
v 352.000 -0.824 352.000 0.510 0.480 0.282
v 368.000 -1.037 352.000 0.547 0.518 0.306
v 384.000 -1.031 352.000 0.577 0.549 0.326
v 256.000 0.376 368.000 0.480 0.449 0.262
v 272.000 -0.405 368.000 0.464 0.432 0.251
v 288.000 -0.403 368.000 0.486 0.455 0.266
v 304.000 -0.563 368.000 0.441 0.409 0.237
v 320.000 -1.169 368.000 0.443 0.411 0.238
v 336.000 -0.990 368.000 0.502 0.472 0.277
v 352.000 -0.752 368.000 0.507 0.476 0.280
v 368.000 -1.602 368.000 0.524 0.495 0.291
v 384.000 -1.602 368.000 0.511 0.480 0.282
v 256.000 -0.414 384.000 0.459 0.427 0.248
v 272.000 -0.806 384.000 0.474 0.443 0.258
v 288.000 -0.404 384.000 0.480 0.449 0.262
v 304.000 -0.981 384.000 0.462 0.430 0.250
v 320.000 -1.409 384.000 0.418 0.385 0.221
v 336.000 -1.307 384.000 0.476 0.445 0.260
v 352.000 -1.570 384.000 0.507 0.477 0.280
v 368.000 -1.735 384.000 0.556 0.527 0.312
v 384.000 -1.395 384.000 0.525 0.495 0.292

vt 0.633333 0.366667
vt 0.633333 0.358333
vt 0.641667 0.358333
vt 0.641667 0.366667
vt 0.650000 0.366667
vt 0.650000 0.358333
vt 0.658333 0.358333
vt 0.658333 0.366667
vt 0.666667 0.366667
vt 0.666667 0.358333
vt 0.675000 0.358333
vt 0.675000 0.366667
vt 0.683333 0.366667
vt 0.683333 0.358333
vt 0.691667 0.358333
vt 0.691667 0.366667
vt 0.700000 0.366667
vt 0.700000 0.358333
vt 0.633333 0.350000
vt 0.641667 0.350000
vt 0.650000 0.350000
vt 0.658333 0.350000
vt 0.666667 0.350000
vt 0.675000 0.350000
vt 0.683333 0.350000
vt 0.691667 0.350000
vt 0.700000 0.350000
vt 0.633333 0.341667
vt 0.641667 0.341667
vt 0.650000 0.341667
vt 0.658333 0.341667
vt 0.666667 0.341667
vt 0.675000 0.341667
vt 0.683333 0.341667
vt 0.691667 0.341667
vt 0.700000 0.341667
vt 0.633333 0.333333
vt 0.641667 0.333333
vt 0.650000 0.333333
vt 0.658333 0.333333
vt 0.666667 0.333333
vt 0.675000 0.333333
vt 0.683333 0.333333
vt 0.691667 0.333333
vt 0.700000 0.333333
vt 0.633333 0.325000
vt 0.641667 0.325000
vt 0.650000 0.325000
vt 0.658333 0.325000
vt 0.666667 0.325000
vt 0.675000 0.325000
vt 0.683333 0.325000
vt 0.691667 0.325000
vt 0.700000 0.325000
vt 0.633333 0.316667
vt 0.641667 0.316667
vt 0.650000 0.316667
vt 0.658333 0.316667
vt 0.666667 0.316667
vt 0.675000 0.316667
vt 0.683333 0.316667
vt 0.691667 0.316667
vt 0.700000 0.316667
vt 0.633333 0.308333
vt 0.641667 0.308333
vt 0.650000 0.308333
vt 0.658333 0.308333
vt 0.666667 0.308333
vt 0.675000 0.308333
vt 0.683333 0.308333
vt 0.691667 0.308333
vt 0.700000 0.308333
vt 0.633333 0.300000
vt 0.641667 0.300000
vt 0.650000 0.300000
vt 0.658333 0.300000
vt 0.666667 0.300000
vt 0.675000 0.300000
vt 0.683333 0.300000
vt 0.691667 0.300000
vt 0.700000 0.300000

vn 0.07282 0.99554 -0.05996
vn 0.13991 0.99004 0.01580
vn 0.05532 0.99834 0.01592
vn 0.03628 0.99931 0.00794
vn 0.04881 0.99878 -0.00685
vn 0.04951 0.99869 -0.01291
vn 0.05849 0.99828 0.00497
vn 0.03897 0.99918 0.01077
vn 0.02976 0.99951 0.00923
vn 0.01941 0.99971 0.01392
vn -0.03033 0.99954 -0.00253
vn -0.02236 0.99928 -0.03062
vn 0.06506 0.99728 -0.03458
vn 0.04740 0.99878 0.01361
vn 0.08323 0.99559 -0.04336
vn 0.06226 0.99293 -0.10103
vn -0.00734 0.99995 0.00720
vn 0.10107 0.99464 -0.02196
vn 0.05733 0.99797 0.02790
vn 0.00743 0.99997 -0.00216
vn 0.03492 0.99939 0.00129
vn 0.06570 0.99771 -0.01601
vn 0.01720 0.99914 -0.03773
vn -0.02267 0.99970 -0.00966
vn 0.02429 0.99970 0.00049
vn 0.02696 0.99861 -0.04525
vn 0.02474 0.99697 -0.07374
vn 0.02084 0.99918 -0.03464
vn 0.04518 0.99895 -0.00731
vn 0.03563 0.99830 0.04616
vn -0.02017 0.99824 -0.05575
vn 0.02551 0.98903 -0.14549
vn 0.05752 0.99787 -0.03067
vn 0.01180 0.99967 0.02283
vn 0.00194 1.00000 0.00008
vn -0.01298 0.99990 -0.00594
vn 0.03237 0.99800 0.05424
vn 0.08790 0.99511 0.04498
vn -0.00101 0.99971 0.02419
vn -0.12646 0.99197 -0.00301
vn 0.05482 0.99846 0.00875
vn 0.14567 0.98918 0.01731
vn 0.00621 0.99998 0.00059
vn -0.00177 1.00000 -0.00128
vn 0.01806 0.99967 0.01825
vn -0.01569 0.99701 0.07560
vn 0.02976 0.99831 0.04984
vn -0.01255 0.99991 0.00566
vn -0.04346 0.99676 0.06766
vn 0.04584 0.98937 0.13800
vn 0.05643 0.99729 0.04721
vn -0.00698 0.99998 -0.00026
vn 0.01917 0.99978 0.00853
vn 0.06503 0.99785 0.00799
vn 0.02269 0.99969 0.01042
vn 0.01816 0.99948 0.02655
vn -0.00665 0.99970 0.02378
vn 0.00633 0.99901 0.04401
vn 0.03268 0.99845 0.04510
vn 0.00752 0.99991 0.01106
vn 0.00210 0.99982 0.01906
vn 0.00648 0.99929 0.03714
vn 0.01612 0.99965 0.02087
vn 0.04875 0.99863 0.01919
vn 0.01663 0.99977 0.01351
vn 0.00494 0.99999 0.00074
vn 0.02138 0.99952 0.02263
vn 0.01333 0.99958 0.02581
vn -0.00337 0.99987 0.01558
vn 0.01912 0.99955 0.02332
vn 0.01353 0.99972 0.01957
vn 0.00000 0.99994 0.01136
vn 0.03662 0.99864 0.03716
vn -0.00032 0.99969 0.02505
vn 0.00520 0.99990 0.01280
vn 0.03139 0.99917 0.02606
vn 0.01177 0.99975 0.01898
vn 0.00503 0.99979 0.01980
vn 0.01623 0.99934 0.03255
vn -0.00547 0.99995 0.00826
vn -0.01061 0.99994 -0.00235

f 1/1/1 2/2/2 3/3/3
f 1/1/1 3/3/3 4/4/4
f 4/4/4 3/3/3 5/5/5
f 5/5/5 3/3/3 6/6/6
f 5/5/5 6/6/6 7/7/7
f 5/5/5 7/7/7 8/8/8
f 8/8/8 7/7/7 9/9/9
f 9/9/9 7/7/7 10/10/10
f 9/9/9 10/10/10 11/11/11
f 9/9/9 11/11/11 12/12/12
f 12/12/12 11/11/11 13/13/13
f 13/13/13 11/11/11 14/14/14
f 13/13/13 14/14/14 15/15/15
f 13/13/13 15/15/15 16/16/16
f 16/16/16 15/15/15 17/17/17
f 17/17/17 15/15/15 18/18/18
f 2/2/2 19/19/19 3/3/3
f 3/3/3 19/19/19 20/20/20
f 3/3/3 20/20/20 21/21/21
f 3/3/3 21/21/21 6/6/6
f 6/6/6 21/21/21 7/7/7
f 7/7/7 21/21/21 22/22/22
f 7/7/7 22/22/22 23/23/23
f 7/7/7 23/23/23 10/10/10
f 10/10/10 23/23/23 11/11/11
f 11/11/11 23/23/23 24/24/24
f 11/11/11 24/24/24 25/25/25
f 11/11/11 25/25/25 14/14/14
f 14/14/14 25/25/25 15/15/15
f 15/15/15 25/25/25 26/26/26
f 15/15/15 26/26/26 27/27/27
f 15/15/15 27/27/27 18/18/18
f 19/19/19 28/28/28 29/29/29
f 19/19/19 29/29/29 20/20/20
f 20/20/20 29/29/29 21/21/21
f 21/21/21 29/29/29 30/30/30
f 21/21/21 30/30/30 31/31/31
f 21/21/21 31/31/31 22/22/22
f 22/22/22 31/31/31 23/23/23
f 23/23/23 31/31/31 32/32/32
f 23/23/23 32/32/32 33/33/33
f 23/23/23 33/33/33 24/24/24
f 24/24/24 33/33/33 25/25/25
f 25/25/25 33/33/33 34/34/34
f 25/25/25 34/34/34 35/35/35
f 25/25/25 35/35/35 26/26/26
f 26/26/26 35/35/35 27/27/27
f 27/27/27 35/35/35 36/36/36
f 28/28/28 37/37/37 29/29/29
f 29/29/29 37/37/37 38/38/38
f 29/29/29 38/38/38 39/39/39
f 29/29/29 39/39/39 30/30/30
f 30/30/30 39/39/39 31/31/31
f 31/31/31 39/39/39 40/40/40
f 31/31/31 40/40/40 41/41/41
f 31/31/31 41/41/41 32/32/32
f 32/32/32 41/41/41 33/33/33
f 33/33/33 41/41/41 42/42/42
f 33/33/33 42/42/42 43/43/43
f 33/33/33 43/43/43 34/34/34
f 34/34/34 43/43/43 35/35/35
f 35/35/35 43/43/43 44/44/44
f 35/35/35 44/44/44 45/45/45
f 35/35/35 45/45/45 36/36/36
f 37/37/37 46/46/46 47/47/47
f 37/37/37 47/47/47 38/38/38
f 38/38/38 47/47/47 39/39/39
f 39/39/39 47/47/47 48/48/48
f 39/39/39 48/48/48 49/49/49
f 39/39/39 49/49/49 40/40/40
f 40/40/40 49/49/49 41/41/41
f 41/41/41 49/49/49 50/50/50
f 41/41/41 50/50/50 51/51/51
f 41/41/41 51/51/51 42/42/42
f 42/42/42 51/51/51 43/43/43
f 43/43/43 51/51/51 52/52/52
f 43/43/43 52/52/52 53/53/53
f 43/43/43 53/53/53 44/44/44
f 44/44/44 53/53/53 45/45/45
f 45/45/45 53/53/53 54/54/54
f 46/46/46 55/55/55 47/47/47
f 47/47/47 55/55/55 56/56/56
f 47/47/47 56/56/56 57/57/57
f 47/47/47 57/57/57 48/48/48
f 48/48/48 57/57/57 49/49/49
f 49/49/49 57/57/57 58/58/58
f 49/49/49 58/58/58 59/59/59
f 49/49/49 59/59/59 50/50/50
f 50/50/50 59/59/59 51/51/51
f 51/51/51 59/59/59 60/60/60
f 51/51/51 60/60/60 61/61/61
f 51/51/51 61/61/61 52/52/52
f 52/52/52 61/61/61 53/53/53
f 53/53/53 61/61/61 62/62/62
f 53/53/53 62/62/62 63/63/63
f 53/53/53 63/63/63 54/54/54
f 55/55/55 64/64/64 65/65/65
f 55/55/55 65/65/65 56/56/56
f 56/56/56 65/65/65 57/57/57
f 57/57/57 65/65/65 66/66/66
f 57/57/57 66/66/66 67/67/67
f 57/57/57 67/67/67 58/58/58
f 58/58/58 67/67/67 59/59/59
f 59/59/59 67/67/67 68/68/68
f 59/59/59 68/68/68 69/69/69
f 59/59/59 69/69/69 60/60/60
f 60/60/60 69/69/69 61/61/61
f 61/61/61 69/69/69 70/70/70
f 61/61/61 70/70/70 71/71/71
f 61/61/61 71/71/71 62/62/62
f 62/62/62 71/71/71 63/63/63
f 63/63/63 71/71/71 72/72/72
f 64/64/64 73/73/73 65/65/65
f 65/65/65 73/73/73 74/74/74
f 65/65/65 74/74/74 75/75/75
f 65/65/65 75/75/75 66/66/66
f 66/66/66 75/75/75 67/67/67
f 67/67/67 75/75/75 76/76/76
f 67/67/67 76/76/76 77/77/77
f 67/67/67 77/77/77 68/68/68
f 68/68/68 77/77/77 69/69/69
f 69/69/69 77/77/77 78/78/78
f 69/69/69 78/78/78 79/79/79
f 69/69/69 79/79/79 70/70/70
f 70/70/70 79/79/79 71/71/71
f 71/71/71 79/79/79 80/80/80
f 71/71/71 80/80/80 81/81/81
f 71/71/71 81/81/81 72/72/72
