# Generated by tools/generate_island.py. Do not edit by hand.
o terrain_lod1_-3_5

v -344.000 -10.800 640.000 0.415 0.382 0.219
v -344.000 -10.800 648.000 0.419 0.386 0.222
v -336.000 -10.457 640.000 0.427 0.395 0.228
v -336.000 -10.800 648.000 0.446 0.414 0.240
v -328.000 -10.800 648.000 0.453 0.421 0.245
v -328.000 -10.466 640.000 0.436 0.404 0.233
v -320.000 -10.739 640.000 0.441 0.408 0.236
v -320.000 -10.800 648.000 0.478 0.447 0.261
v -312.000 -10.800 648.000 0.499 0.468 0.274
v -312.000 -10.650 640.000 0.454 0.422 0.245
v -304.000 -10.773 640.000 0.451 0.419 0.243
v -304.000 -10.767 648.000 0.505 0.474 0.279
v -296.000 -10.611 648.000 0.503 0.473 0.277
v -296.000 -10.290 640.000 0.453 0.421 0.245
v -288.000 -10.005 640.000 0.467 0.435 0.254
v -288.000 -10.320 648.000 0.473 0.442 0.258
v -280.000 -10.798 648.000 0.471 0.439 0.256
v -280.000 -10.151 640.000 0.481 0.450 0.263
v -272.000 -10.142 640.000 0.470 0.438 0.256
v -272.000 -10.800 648.000 0.464 0.433 0.252
v -264.000 -10.800 648.000 0.507 0.477 0.280
v -264.000 -10.681 640.000 0.481 0.450 0.263
v -256.000 -10.688 640.000 0.490 0.459 0.269
v -256.000 -10.800 648.000 0.531 0.502 0.296
v -304.000 -10.800 656.000 0.534 0.504 0.298
v -296.000 -10.800 656.000 0.523 0.493 0.290
v -288.000 -10.800 656.000 0.495 0.465 0.272

vt 0.320833 0.166667
vt 0.320833 0.162500
vt 0.325000 0.166667
vt 0.325000 0.162500
vt 0.329167 0.162500
vt 0.329167 0.166667
vt 0.333333 0.166667
vt 0.333333 0.162500
vt 0.337500 0.162500
vt 0.337500 0.166667
vt 0.341667 0.166667
vt 0.341667 0.162500
vt 0.345833 0.162500
vt 0.345833 0.166667
vt 0.350000 0.166667
vt 0.350000 0.162500
vt 0.354167 0.162500
vt 0.354167 0.166667
vt 0.358333 0.166667
vt 0.358333 0.162500
vt 0.362500 0.162500
vt 0.362500 0.166667
vt 0.366667 0.166667
vt 0.366667 0.162500
vt 0.341667 0.158333
vt 0.345833 0.158333
vt 0.350000 0.158333

vn -0.04290 0.99908 0.00000
vn -0.02146 0.99954 0.02146
vn -0.01042 0.99944 0.03188
vn 0.00000 0.99908 0.04290
vn 0.00882 0.99940 0.03348
vn 0.01763 0.99898 0.04168
vn 0.00574 0.99980 0.01893
vn 0.00000 0.99997 0.00764
vn -0.00078 0.99995 0.00969
vn 0.00215 0.99982 0.01874
vn -0.01714 0.99975 0.01434
vn -0.01178 0.99993 0.00167
vn -0.02596 0.99925 0.02875
vn -0.04791 0.99805 0.04009
vn 0.00148 0.99876 0.04986
vn 0.01164 0.99870 0.04960
vn 0.02731 0.99728 0.06847
vn 0.00854 0.99671 0.08061
vn 0.01660 0.99775 0.06489
vn 0.00013 0.99664 0.08193
vn 0.01703 0.99936 0.03147
vn 0.03405 0.99931 0.01484
vn 0.00040 0.99990 0.01445
vn 0.00000 0.99990 0.01405
vn -0.00786 0.99991 0.01059
vn 0.00000 0.99972 0.02356
vn 0.00776 0.99883 0.04782

f 1/1/1 2/2/2 3/3/3
f 3/3/3 2/2/2 4/4/4
f 3/3/3 4/4/4 5/5/5
f 3/3/3 5/5/5 6/6/6
f 6/6/6 5/5/5 7/7/7
f 7/7/7 5/5/5 8/8/8
f 7/7/7 8/8/8 9/9/9
f 7/7/7 9/9/9 10/10/10
f 10/10/10 9/9/9 11/11/11
f 11/11/11 9/9/9 12/12/12
f 11/11/11 12/12/12 13/13/13
f 11/11/11 13/13/13 14/14/14
f 14/14/14 13/13/13 15/15/15
f 15/15/15 13/13/13 16/16/16
f 15/15/15 16/16/16 17/17/17
f 15/15/15 17/17/17 18/18/18
f 18/18/18 17/17/17 19/19/19
f 19/19/19 17/17/17 20/20/20
f 19/19/19 20/20/20 21/21/21
f 19/19/19 21/21/21 22/22/22
f 22/22/22 21/21/21 23/23/23
f 23/23/23 21/21/21 24/24/24
f 9/9/9 25/25/25 12/12/12
f 12/12/12 25/25/25 13/13/13
f 13/13/13 25/25/25 26/26/26
f 13/13/13 26/26/26 27/27/27
f 13/13/13 27/27/27 16/16/16
f 16/16/16 27/27/27 17/17/17
